<?xml version="1.0" encoding="UTF-8" standalone="no"?>
<!DOCTYPE svg PUBLIC "-//W3C//DTD SVG 1.1//EN"
 "http://www.w3.org/Graphics/SVG/1.1/DTD/svg11.dtd">
<!-- Generated by graphviz version 8.0.3 (20230418.1244)
 -->
<!-- Title: snakemake_dag Pages: 1 -->
<svg width="5567pt" height="404pt"
 viewBox="0.00 0.00 5566.50 404.00" xmlns="http://www.w3.org/2000/svg" xmlns:xlink="http://www.w3.org/1999/xlink">
<g id="graph0" class="graph" transform="scale(1 1) rotate(0) translate(4 400)">
<title>snakemake_dag</title>
<polygon fill="white" stroke="none" points="-4,4 -4,-400 5562.5,-400 5562.5,4 -4,4"/>
<!-- 0 -->
<g id="node1" class="node">
<title>0</title>
<path fill="none" stroke="#70d856" stroke-width="2" d="M2747.5,-36C2747.5,-36 2676.5,-36 2676.5,-36 2670.5,-36 2664.5,-30 2664.5,-24 2664.5,-24 2664.5,-12 2664.5,-12 2664.5,-6 2670.5,0 2676.5,0 2676.5,0 2747.5,0 2747.5,0 2753.5,0 2759.5,-6 2759.5,-12 2759.5,-12 2759.5,-24 2759.5,-24 2759.5,-30 2753.5,-36 2747.5,-36"/>
<text text-anchor="middle" x="2712" y="-15.5" font-family="sans" font-size="10.00">make_summary</text>
</g>
<!-- 1 -->
<g id="node2" class="node">
<title>1</title>
<path fill="none" stroke="#56d873" stroke-width="2" d="M2595.5,-108C2595.5,-108 2524.5,-108 2524.5,-108 2518.5,-108 2512.5,-102 2512.5,-96 2512.5,-96 2512.5,-84 2512.5,-84 2512.5,-78 2518.5,-72 2524.5,-72 2524.5,-72 2595.5,-72 2595.5,-72 2601.5,-72 2607.5,-78 2607.5,-84 2607.5,-84 2607.5,-96 2607.5,-96 2607.5,-102 2601.5,-108 2595.5,-108"/>
<text text-anchor="middle" x="2560" y="-87.5" font-family="sans" font-size="10.00">make_rulegraph</text>
</g>
<!-- 1&#45;&gt;0 -->
<g id="edge1" class="edge">
<title>1&#45;&gt;0</title>
<path fill="none" stroke="grey" stroke-width="2" d="M2598.75,-71.15C2617.79,-62.38 2640.98,-51.71 2661.4,-42.3"/>
<polygon fill="grey" stroke="grey" stroke-width="2" points="2663.44,-45.3 2671.06,-37.93 2660.51,-38.94 2663.44,-45.3"/>
</g>
<!-- 2 -->
<g id="node3" class="node">
<title>2</title>
<path fill="none" stroke="#d8cb56" stroke-width="2" d="M2812,-324C2812,-324 2664,-324 2664,-324 2658,-324 2652,-318 2652,-312 2652,-312 2652,-300 2652,-300 2652,-294 2658,-288 2664,-288 2664,-288 2812,-288 2812,-288 2818,-288 2824,-294 2824,-300 2824,-300 2824,-312 2824,-312 2824,-318 2818,-324 2812,-324"/>
<text text-anchor="middle" x="2738" y="-303.5" font-family="sans" font-size="10.00">aggregate_variant_counts_ZIKV</text>
</g>
<!-- 2&#45;&gt;0 -->
<g id="edge2" class="edge">
<title>2&#45;&gt;0</title>
<path fill="none" stroke="grey" stroke-width="2" d="M2693.13,-287.14C2678.26,-278.81 2663.38,-267.29 2655,-252 2618.09,-184.64 2663.96,-93.39 2692.48,-47.65"/>
<polygon fill="grey" stroke="grey" stroke-width="2" points="2696,-49.08 2698.47,-38.78 2690.11,-45.3 2696,-49.08"/>
</g>
<!-- 27 -->
<g id="node28" class="node">
<title>27</title>
<path fill="none" stroke="#d88d56" stroke-width="2" d="M2800,-252C2800,-252 2676,-252 2676,-252 2670,-252 2664,-246 2664,-240 2664,-240 2664,-228 2664,-228 2664,-222 2670,-216 2676,-216 2676,-216 2800,-216 2800,-216 2806,-216 2812,-222 2812,-228 2812,-228 2812,-240 2812,-240 2812,-246 2806,-252 2800,-252"/>
<text text-anchor="middle" x="2738" y="-231.5" font-family="sans" font-size="10.00">counts_to_cells_ratio_ZIKV</text>
</g>
<!-- 2&#45;&gt;27 -->
<g id="edge32" class="edge">
<title>2&#45;&gt;27</title>
<path fill="none" stroke="grey" stroke-width="2" d="M2738,-287.34C2738,-280.75 2738,-273.08 2738,-265.67"/>
<polygon fill="grey" stroke="grey" stroke-width="2" points="2741.5,-265.9 2738,-255.9 2734.5,-265.9 2741.5,-265.9"/>
</g>
<!-- 28 -->
<g id="node29" class="node">
<title>28</title>
<path fill="none" stroke="#56d8a9" stroke-width="2" d="M2947.5,-252C2947.5,-252 2842.5,-252 2842.5,-252 2836.5,-252 2830.5,-246 2830.5,-240 2830.5,-240 2830.5,-228 2830.5,-228 2830.5,-222 2836.5,-216 2842.5,-216 2842.5,-216 2947.5,-216 2947.5,-216 2953.5,-216 2959.5,-222 2959.5,-228 2959.5,-228 2959.5,-240 2959.5,-240 2959.5,-246 2953.5,-252 2947.5,-252"/>
<text text-anchor="middle" x="2895" y="-231.5" font-family="sans" font-size="10.00">counts_to_scores_ZIKV</text>
</g>
<!-- 2&#45;&gt;28 -->
<g id="edge33" class="edge">
<title>2&#45;&gt;28</title>
<path fill="none" stroke="grey" stroke-width="2" d="M2778.02,-287.15C2797.79,-278.34 2821.87,-267.61 2843.04,-258.17"/>
<polygon fill="grey" stroke="grey" stroke-width="2" points="2845.07,-261.2 2852.78,-253.93 2842.22,-254.81 2845.07,-261.2"/>
</g>
<!-- 3 -->
<g id="node4" class="node">
<title>3</title>
<path fill="none" stroke="#56c9d8" stroke-width="2" d="M166,-396C166,-396 12,-396 12,-396 6,-396 0,-390 0,-384 0,-384 0,-372 0,-372 0,-366 6,-360 12,-360 12,-360 166,-360 166,-360 172,-360 178,-366 178,-372 178,-372 178,-384 178,-384 178,-390 172,-396 166,-396"/>
<text text-anchor="middle" x="89" y="-381" font-family="sans" font-size="10.00">count_variants_ZIKV</text>
<text text-anchor="middle" x="89" y="-370" font-family="sans" font-size="10.00">sample_lib: exp1&#45;none&#45;0&#45;ref_lib1</text>
</g>
<!-- 3&#45;&gt;2 -->
<g id="edge8" class="edge">
<title>3&#45;&gt;2</title>
<path fill="none" stroke="grey" stroke-width="2" d="M178.91,-360.86C181.64,-360.55 184.34,-360.26 187,-360 675.4,-312.84 2228.82,-307.61 2638.28,-307.06"/>
<polygon fill="grey" stroke="grey" stroke-width="2" points="2638.21,-310.56 2648.21,-307.04 2638.21,-303.56 2638.21,-310.56"/>
</g>
<!-- 4 -->
<g id="node5" class="node">
<title>4</title>
<path fill="none" stroke="#56c9d8" stroke-width="2" d="M375.5,-396C375.5,-396 208.5,-396 208.5,-396 202.5,-396 196.5,-390 196.5,-384 196.5,-384 196.5,-372 196.5,-372 196.5,-366 202.5,-360 208.5,-360 208.5,-360 375.5,-360 375.5,-360 381.5,-360 387.5,-366 387.5,-372 387.5,-372 387.5,-384 387.5,-384 387.5,-390 381.5,-396 375.5,-396"/>
<text text-anchor="middle" x="292" y="-381" font-family="sans" font-size="10.00">count_variants_ZIKV</text>
<text text-anchor="middle" x="292" y="-370" font-family="sans" font-size="10.00">sample_lib: exp1&#45;Msc&#45;1000&#45;ref_lib1</text>
</g>
<!-- 4&#45;&gt;2 -->
<g id="edge9" class="edge">
<title>4&#45;&gt;2</title>
<path fill="none" stroke="grey" stroke-width="2" d="M388.26,-360.78C390.87,-360.5 393.45,-360.24 396,-360 841.34,-318.77 2250.14,-309.26 2638.19,-307.4"/>
<polygon fill="grey" stroke="grey" stroke-width="2" points="2638.03,-310.89 2648.02,-307.34 2638,-303.89 2638.03,-310.89"/>
</g>
<!-- 5 -->
<g id="node6" class="node">
<title>5</title>
<path fill="none" stroke="#56c9d8" stroke-width="2" d="M612.5,-396C612.5,-396 417.5,-396 417.5,-396 411.5,-396 405.5,-390 405.5,-384 405.5,-384 405.5,-372 405.5,-372 405.5,-366 411.5,-360 417.5,-360 417.5,-360 612.5,-360 612.5,-360 618.5,-360 624.5,-366 624.5,-372 624.5,-372 624.5,-384 624.5,-384 624.5,-390 618.5,-396 612.5,-396"/>
<text text-anchor="middle" x="515" y="-381" font-family="sans" font-size="10.00">count_variants_ZIKV</text>
<text text-anchor="middle" x="515" y="-370" font-family="sans" font-size="10.00">sample_lib: exp1&#45;Z2131&#45;1000&#45;abneg_lib1</text>
</g>
<!-- 5&#45;&gt;2 -->
<g id="edge10" class="edge">
<title>5&#45;&gt;2</title>
<path fill="none" stroke="grey" stroke-width="2" d="M625.19,-360.71C627.81,-360.45 630.42,-360.22 633,-360 1029.92,-326.53 2276.47,-311.64 2638.49,-307.95"/>
<polygon fill="grey" stroke="grey" stroke-width="2" points="2638.29,-311.42 2648.25,-307.82 2638.22,-304.42 2638.29,-311.42"/>
</g>
<!-- 6 -->
<g id="node7" class="node">
<title>6</title>
<path fill="none" stroke="#56c9d8" stroke-width="2" d="M849.5,-396C849.5,-396 654.5,-396 654.5,-396 648.5,-396 642.5,-390 642.5,-384 642.5,-384 642.5,-372 642.5,-372 642.5,-366 648.5,-360 654.5,-360 654.5,-360 849.5,-360 849.5,-360 855.5,-360 861.5,-366 861.5,-372 861.5,-372 861.5,-384 861.5,-384 861.5,-390 855.5,-396 849.5,-396"/>
<text text-anchor="middle" x="752" y="-381" font-family="sans" font-size="10.00">count_variants_ZIKV</text>
<text text-anchor="middle" x="752" y="-370" font-family="sans" font-size="10.00">sample_lib: exp1&#45;Z6161&#45;1000&#45;abneg_lib1</text>
</g>
<!-- 6&#45;&gt;2 -->
<g id="edge11" class="edge">
<title>6&#45;&gt;2</title>
<path fill="none" stroke="grey" stroke-width="2" d="M862.19,-360.72C864.81,-360.46 867.42,-360.22 870,-360 1218.26,-330.07 2303.7,-312.98 2638.59,-308.31"/>
<polygon fill="grey" stroke="grey" stroke-width="2" points="2638.18,-311.78 2648.13,-308.14 2638.09,-304.78 2638.18,-311.78"/>
</g>
<!-- 7 -->
<g id="node8" class="node">
<title>7</title>
<path fill="none" stroke="#56c9d8" stroke-width="2" d="M1086.5,-396C1086.5,-396 891.5,-396 891.5,-396 885.5,-396 879.5,-390 879.5,-384 879.5,-384 879.5,-372 879.5,-372 879.5,-366 885.5,-360 891.5,-360 891.5,-360 1086.5,-360 1086.5,-360 1092.5,-360 1098.5,-366 1098.5,-372 1098.5,-372 1098.5,-384 1098.5,-384 1098.5,-390 1092.5,-396 1086.5,-396"/>
<text text-anchor="middle" x="989" y="-381" font-family="sans" font-size="10.00">count_variants_ZIKV</text>
<text text-anchor="middle" x="989" y="-370" font-family="sans" font-size="10.00">sample_lib: exp1&#45;Z6163&#45;1000&#45;abneg_lib1</text>
</g>
<!-- 7&#45;&gt;2 -->
<g id="edge12" class="edge">
<title>7&#45;&gt;2</title>
<path fill="none" stroke="grey" stroke-width="2" d="M1099.19,-360.73C1101.82,-360.47 1104.42,-360.23 1107,-360 1685.37,-309.1 2382.96,-305.73 2638.25,-306.41"/>
<polygon fill="grey" stroke="grey" stroke-width="2" points="2638.15,-309.92 2648.16,-306.45 2638.17,-302.92 2638.15,-309.92"/>
</g>
<!-- 8 -->
<g id="node9" class="node">
<title>8</title>
<path fill="none" stroke="#56c9d8" stroke-width="2" d="M1323.5,-396C1323.5,-396 1128.5,-396 1128.5,-396 1122.5,-396 1116.5,-390 1116.5,-384 1116.5,-384 1116.5,-372 1116.5,-372 1116.5,-366 1122.5,-360 1128.5,-360 1128.5,-360 1323.5,-360 1323.5,-360 1329.5,-360 1335.5,-366 1335.5,-372 1335.5,-372 1335.5,-384 1335.5,-384 1335.5,-390 1329.5,-396 1323.5,-396"/>
<text text-anchor="middle" x="1226" y="-381" font-family="sans" font-size="10.00">count_variants_ZIKV</text>
<text text-anchor="middle" x="1226" y="-370" font-family="sans" font-size="10.00">sample_lib: exp1&#45;Z3039&#45;1000&#45;abneg_lib1</text>
</g>
<!-- 8&#45;&gt;2 -->
<g id="edge13" class="edge">
<title>8&#45;&gt;2</title>
<path fill="none" stroke="grey" stroke-width="2" d="M1336.19,-360.75C1338.82,-360.49 1341.42,-360.23 1344,-360 1827.85,-316.07 2409.39,-308.44 2638.4,-307.2"/>
<polygon fill="grey" stroke="grey" stroke-width="2" points="2638.36,-310.69 2648.34,-307.13 2638.32,-303.69 2638.36,-310.69"/>
</g>
<!-- 9 -->
<g id="node10" class="node">
<title>9</title>
<path fill="none" stroke="#56c9d8" stroke-width="2" d="M1560.5,-396C1560.5,-396 1365.5,-396 1365.5,-396 1359.5,-396 1353.5,-390 1353.5,-384 1353.5,-384 1353.5,-372 1353.5,-372 1353.5,-366 1359.5,-360 1365.5,-360 1365.5,-360 1560.5,-360 1560.5,-360 1566.5,-360 1572.5,-366 1572.5,-372 1572.5,-372 1572.5,-384 1572.5,-384 1572.5,-390 1566.5,-396 1560.5,-396"/>
<text text-anchor="middle" x="1463" y="-381" font-family="sans" font-size="10.00">count_variants_ZIKV</text>
<text text-anchor="middle" x="1463" y="-370" font-family="sans" font-size="10.00">sample_lib: exp1&#45;Z2029&#45;1000&#45;abneg_lib1</text>
</g>
<!-- 9&#45;&gt;2 -->
<g id="edge14" class="edge">
<title>9&#45;&gt;2</title>
<path fill="none" stroke="grey" stroke-width="2" d="M1573.19,-360.78C1575.82,-360.5 1578.42,-360.24 1581,-360 1971.05,-323.06 2437.61,-311.65 2638.25,-308.3"/>
<polygon fill="grey" stroke="grey" stroke-width="2" points="2638.13,-311.76 2648.08,-308.1 2638.02,-304.76 2638.13,-311.76"/>
</g>
<!-- 10 -->
<g id="node11" class="node">
<title>10</title>
<path fill="none" stroke="#56c9d8" stroke-width="2" d="M1797.5,-396C1797.5,-396 1602.5,-396 1602.5,-396 1596.5,-396 1590.5,-390 1590.5,-384 1590.5,-384 1590.5,-372 1590.5,-372 1590.5,-366 1596.5,-360 1602.5,-360 1602.5,-360 1797.5,-360 1797.5,-360 1803.5,-360 1809.5,-366 1809.5,-372 1809.5,-372 1809.5,-384 1809.5,-384 1809.5,-390 1803.5,-396 1797.5,-396"/>
<text text-anchor="middle" x="1700" y="-381" font-family="sans" font-size="10.00">count_variants_ZIKV</text>
<text text-anchor="middle" x="1700" y="-370" font-family="sans" font-size="10.00">sample_lib: exp1&#45;Z2039&#45;1000&#45;abneg_lib1</text>
</g>
<!-- 10&#45;&gt;2 -->
<g id="edge15" class="edge">
<title>10&#45;&gt;2</title>
<path fill="none" stroke="grey" stroke-width="2" d="M1810.2,-360.82C1812.82,-360.53 1815.43,-360.26 1818,-360 2115.68,-330.04 2469.37,-315.57 2638.41,-309.95"/>
<polygon fill="grey" stroke="grey" stroke-width="2" points="2638.36,-313.35 2648.24,-309.52 2638.13,-306.35 2638.36,-313.35"/>
</g>
<!-- 11 -->
<g id="node12" class="node">
<title>11</title>
<path fill="none" stroke="#56c9d8" stroke-width="2" d="M2034.5,-396C2034.5,-396 1839.5,-396 1839.5,-396 1833.5,-396 1827.5,-390 1827.5,-384 1827.5,-384 1827.5,-372 1827.5,-372 1827.5,-366 1833.5,-360 1839.5,-360 1839.5,-360 2034.5,-360 2034.5,-360 2040.5,-360 2046.5,-366 2046.5,-372 2046.5,-372 2046.5,-384 2046.5,-384 2046.5,-390 2040.5,-396 2034.5,-396"/>
<text text-anchor="middle" x="1937" y="-381" font-family="sans" font-size="10.00">count_variants_ZIKV</text>
<text text-anchor="middle" x="1937" y="-370" font-family="sans" font-size="10.00">sample_lib: exp1&#45;Z2044&#45;1000&#45;abneg_lib1</text>
</g>
<!-- 11&#45;&gt;2 -->
<g id="edge16" class="edge">
<title>11&#45;&gt;2</title>
<path fill="none" stroke="grey" stroke-width="2" d="M2047.2,-360.89C2049.83,-360.58 2052.43,-360.28 2055,-360 2261.78,-337.11 2504.87,-320.75 2638.1,-312.69"/>
<polygon fill="grey" stroke="grey" stroke-width="2" points="2638.26,-316.01 2648.04,-311.91 2637.84,-309.02 2638.26,-316.01"/>
</g>
<!-- 12 -->
<g id="node13" class="node">
<title>12</title>
<path fill="none" stroke="#56c9d8" stroke-width="2" d="M2271.5,-396C2271.5,-396 2076.5,-396 2076.5,-396 2070.5,-396 2064.5,-390 2064.5,-384 2064.5,-384 2064.5,-372 2064.5,-372 2064.5,-366 2070.5,-360 2076.5,-360 2076.5,-360 2271.5,-360 2271.5,-360 2277.5,-360 2283.5,-366 2283.5,-372 2283.5,-372 2283.5,-384 2283.5,-384 2283.5,-390 2277.5,-396 2271.5,-396"/>
<text text-anchor="middle" x="2174" y="-381" font-family="sans" font-size="10.00">count_variants_ZIKV</text>
<text text-anchor="middle" x="2174" y="-370" font-family="sans" font-size="10.00">sample_lib: exp1&#45;Z2103&#45;1000&#45;abneg_lib1</text>
</g>
<!-- 12&#45;&gt;2 -->
<g id="edge17" class="edge">
<title>12&#45;&gt;2</title>
<path fill="none" stroke="grey" stroke-width="2" d="M2284.22,-361.03C2286.84,-360.68 2289.43,-360.34 2292,-360 2410.94,-344.37 2548,-328.38 2638.45,-318.11"/>
<polygon fill="grey" stroke="grey" stroke-width="2" points="2638.63,-321.28 2648.17,-316.67 2637.84,-314.32 2638.63,-321.28"/>
</g>
<!-- 13 -->
<g id="node14" class="node">
<title>13</title>
<path fill="none" stroke="#56c9d8" stroke-width="2" d="M2480.5,-396C2480.5,-396 2313.5,-396 2313.5,-396 2307.5,-396 2301.5,-390 2301.5,-384 2301.5,-384 2301.5,-372 2301.5,-372 2301.5,-366 2307.5,-360 2313.5,-360 2313.5,-360 2480.5,-360 2480.5,-360 2486.5,-360 2492.5,-366 2492.5,-372 2492.5,-372 2492.5,-384 2492.5,-384 2492.5,-390 2486.5,-396 2480.5,-396"/>
<text text-anchor="middle" x="2397" y="-381" font-family="sans" font-size="10.00">count_variants_ZIKV</text>
<text text-anchor="middle" x="2397" y="-370" font-family="sans" font-size="10.00">sample_lib: exp1&#45;Msc&#45;1000&#45;ref_lib2</text>
</g>
<!-- 13&#45;&gt;2 -->
<g id="edge18" class="edge">
<title>13&#45;&gt;2</title>
<path fill="none" stroke="grey" stroke-width="2" d="M2484.37,-359.06C2531.48,-349.39 2589.8,-337.42 2638.63,-327.4"/>
<polygon fill="grey" stroke="grey" stroke-width="2" points="2640.06,-330.27 2649.15,-324.83 2638.65,-323.41 2640.06,-330.27"/>
</g>
<!-- 14 -->
<g id="node15" class="node">
<title>14</title>
<path fill="none" stroke="#56c9d8" stroke-width="2" d="M2717.5,-396C2717.5,-396 2522.5,-396 2522.5,-396 2516.5,-396 2510.5,-390 2510.5,-384 2510.5,-384 2510.5,-372 2510.5,-372 2510.5,-366 2516.5,-360 2522.5,-360 2522.5,-360 2717.5,-360 2717.5,-360 2723.5,-360 2729.5,-366 2729.5,-372 2729.5,-372 2729.5,-384 2729.5,-384 2729.5,-390 2723.5,-396 2717.5,-396"/>
<text text-anchor="middle" x="2620" y="-381" font-family="sans" font-size="10.00">count_variants_ZIKV</text>
<text text-anchor="middle" x="2620" y="-370" font-family="sans" font-size="10.00">sample_lib: exp1&#45;Z2131&#45;1000&#45;abneg_lib2</text>
</g>
<!-- 14&#45;&gt;2 -->
<g id="edge19" class="edge">
<title>14&#45;&gt;2</title>
<path fill="none" stroke="grey" stroke-width="2" d="M2650.08,-359.15C2664.37,-350.68 2681.66,-340.42 2697.11,-331.25"/>
<polygon fill="grey" stroke="grey" stroke-width="2" points="2699.16,-333.92 2705.97,-325.81 2695.59,-327.9 2699.16,-333.92"/>
</g>
<!-- 15 -->
<g id="node16" class="node">
<title>15</title>
<path fill="none" stroke="#56c9d8" stroke-width="2" d="M2954.5,-396C2954.5,-396 2759.5,-396 2759.5,-396 2753.5,-396 2747.5,-390 2747.5,-384 2747.5,-384 2747.5,-372 2747.5,-372 2747.5,-366 2753.5,-360 2759.5,-360 2759.5,-360 2954.5,-360 2954.5,-360 2960.5,-360 2966.5,-366 2966.5,-372 2966.5,-372 2966.5,-384 2966.5,-384 2966.5,-390 2960.5,-396 2954.5,-396"/>
<text text-anchor="middle" x="2857" y="-381" font-family="sans" font-size="10.00">count_variants_ZIKV</text>
<text text-anchor="middle" x="2857" y="-370" font-family="sans" font-size="10.00">sample_lib: exp1&#45;Z6161&#45;1000&#45;abneg_lib2</text>
</g>
<!-- 15&#45;&gt;2 -->
<g id="edge20" class="edge">
<title>15&#45;&gt;2</title>
<path fill="none" stroke="grey" stroke-width="2" d="M2826.66,-359.15C2812.26,-350.68 2794.82,-340.42 2779.23,-331.25"/>
<polygon fill="grey" stroke="grey" stroke-width="2" points="2780.68,-327.87 2770.28,-325.81 2777.13,-333.9 2780.68,-327.87"/>
</g>
<!-- 16 -->
<g id="node17" class="node">
<title>16</title>
<path fill="none" stroke="#56c9d8" stroke-width="2" d="M3191.5,-396C3191.5,-396 2996.5,-396 2996.5,-396 2990.5,-396 2984.5,-390 2984.5,-384 2984.5,-384 2984.5,-372 2984.5,-372 2984.5,-366 2990.5,-360 2996.5,-360 2996.5,-360 3191.5,-360 3191.5,-360 3197.5,-360 3203.5,-366 3203.5,-372 3203.5,-372 3203.5,-384 3203.5,-384 3203.5,-390 3197.5,-396 3191.5,-396"/>
<text text-anchor="middle" x="3094" y="-381" font-family="sans" font-size="10.00">count_variants_ZIKV</text>
<text text-anchor="middle" x="3094" y="-370" font-family="sans" font-size="10.00">sample_lib: exp1&#45;Z6163&#45;1000&#45;abneg_lib2</text>
</g>
<!-- 16&#45;&gt;2 -->
<g id="edge21" class="edge">
<title>16&#45;&gt;2</title>
<path fill="none" stroke="grey" stroke-width="2" d="M3002.78,-359.06C2952.25,-349.13 2889.37,-336.76 2837.57,-326.58"/>
<polygon fill="grey" stroke="grey" stroke-width="2" points="2837.48,-322.6 2826.99,-324.11 2836.13,-329.47 2837.48,-322.6"/>
</g>
<!-- 17 -->
<g id="node18" class="node">
<title>17</title>
<path fill="none" stroke="#56c9d8" stroke-width="2" d="M3428.5,-396C3428.5,-396 3233.5,-396 3233.5,-396 3227.5,-396 3221.5,-390 3221.5,-384 3221.5,-384 3221.5,-372 3221.5,-372 3221.5,-366 3227.5,-360 3233.5,-360 3233.5,-360 3428.5,-360 3428.5,-360 3434.5,-360 3440.5,-366 3440.5,-372 3440.5,-372 3440.5,-384 3440.5,-384 3440.5,-390 3434.5,-396 3428.5,-396"/>
<text text-anchor="middle" x="3331" y="-381" font-family="sans" font-size="10.00">count_variants_ZIKV</text>
<text text-anchor="middle" x="3331" y="-370" font-family="sans" font-size="10.00">sample_lib: exp1&#45;Z3039&#45;1000&#45;abneg_lib2</text>
</g>
<!-- 17&#45;&gt;2 -->
<g id="edge22" class="edge">
<title>17&#45;&gt;2</title>
<path fill="none" stroke="grey" stroke-width="2" d="M3220.78,-361.01C3218.16,-360.66 3215.57,-360.33 3213,-360 3083.55,-343.46 2933.88,-327.24 2837.69,-317.19"/>
<polygon fill="grey" stroke="grey" stroke-width="2" points="2838.08,-313.4 2827.78,-315.84 2837.36,-320.36 2838.08,-313.4"/>
</g>
<!-- 18 -->
<g id="node19" class="node">
<title>18</title>
<path fill="none" stroke="#56c9d8" stroke-width="2" d="M3665.5,-396C3665.5,-396 3470.5,-396 3470.5,-396 3464.5,-396 3458.5,-390 3458.5,-384 3458.5,-384 3458.5,-372 3458.5,-372 3458.5,-366 3464.5,-360 3470.5,-360 3470.5,-360 3665.5,-360 3665.5,-360 3671.5,-360 3677.5,-366 3677.5,-372 3677.5,-372 3677.5,-384 3677.5,-384 3677.5,-390 3671.5,-396 3665.5,-396"/>
<text text-anchor="middle" x="3568" y="-381" font-family="sans" font-size="10.00">count_variants_ZIKV</text>
<text text-anchor="middle" x="3568" y="-370" font-family="sans" font-size="10.00">sample_lib: exp1&#45;Z2029&#45;1000&#45;abneg_lib2</text>
</g>
<!-- 18&#45;&gt;2 -->
<g id="edge23" class="edge">
<title>18&#45;&gt;2</title>
<path fill="none" stroke="grey" stroke-width="2" d="M3457.8,-360.88C3455.17,-360.57 3452.57,-360.28 3450,-360 3232.15,-336.23 2975.61,-320.01 2837.73,-312.25"/>
<polygon fill="grey" stroke="grey" stroke-width="2" points="2837.94,-308.59 2827.76,-311.53 2837.55,-315.58 2837.94,-308.59"/>
</g>
<!-- 19 -->
<g id="node20" class="node">
<title>19</title>
<path fill="none" stroke="#56c9d8" stroke-width="2" d="M3902.5,-396C3902.5,-396 3707.5,-396 3707.5,-396 3701.5,-396 3695.5,-390 3695.5,-384 3695.5,-384 3695.5,-372 3695.5,-372 3695.5,-366 3701.5,-360 3707.5,-360 3707.5,-360 3902.5,-360 3902.5,-360 3908.5,-360 3914.5,-366 3914.5,-372 3914.5,-372 3914.5,-384 3914.5,-384 3914.5,-390 3908.5,-396 3902.5,-396"/>
<text text-anchor="middle" x="3805" y="-381" font-family="sans" font-size="10.00">count_variants_ZIKV</text>
<text text-anchor="middle" x="3805" y="-370" font-family="sans" font-size="10.00">sample_lib: exp1&#45;Z3051&#45;1000&#45;abneg_lib1</text>
</g>
<!-- 19&#45;&gt;2 -->
<g id="edge24" class="edge">
<title>19&#45;&gt;2</title>
<path fill="none" stroke="grey" stroke-width="2" d="M3694.8,-360.81C3692.18,-360.53 3689.57,-360.26 3687,-360 3378.19,-329.19 3010.92,-315.04 2837.76,-309.71"/>
<polygon fill="grey" stroke="grey" stroke-width="2" points="2837.98,-306.12 2827.88,-309.32 2837.77,-313.12 2837.98,-306.12"/>
</g>
<!-- 20 -->
<g id="node21" class="node">
<title>20</title>
<path fill="none" stroke="#56c9d8" stroke-width="2" d="M4139.5,-396C4139.5,-396 3944.5,-396 3944.5,-396 3938.5,-396 3932.5,-390 3932.5,-384 3932.5,-384 3932.5,-372 3932.5,-372 3932.5,-366 3938.5,-360 3944.5,-360 3944.5,-360 4139.5,-360 4139.5,-360 4145.5,-360 4151.5,-366 4151.5,-372 4151.5,-372 4151.5,-384 4151.5,-384 4151.5,-390 4145.5,-396 4139.5,-396"/>
<text text-anchor="middle" x="4042" y="-381" font-family="sans" font-size="10.00">count_variants_ZIKV</text>
<text text-anchor="middle" x="4042" y="-370" font-family="sans" font-size="10.00">sample_lib: exp1&#45;Z2212&#45;1000&#45;abneg_lib1</text>
</g>
<!-- 20&#45;&gt;2 -->
<g id="edge25" class="edge">
<title>20&#45;&gt;2</title>
<path fill="none" stroke="grey" stroke-width="2" d="M3931.81,-360.78C3929.18,-360.5 3926.58,-360.24 3924,-360 3522.47,-322.2 3041.84,-311.22 2837.63,-308.14"/>
<polygon fill="grey" stroke="grey" stroke-width="2" points="2837.93,-304.6 2827.88,-307.96 2837.83,-311.6 2837.93,-304.6"/>
</g>
<!-- 21 -->
<g id="node22" class="node">
<title>21</title>
<path fill="none" stroke="#56c9d8" stroke-width="2" d="M4366,-396C4366,-396 4182,-396 4182,-396 4176,-396 4170,-390 4170,-384 4170,-384 4170,-372 4170,-372 4170,-366 4176,-360 4182,-360 4182,-360 4366,-360 4366,-360 4372,-360 4378,-366 4378,-372 4378,-372 4378,-384 4378,-384 4378,-390 4372,-396 4366,-396"/>
<text text-anchor="middle" x="4274" y="-381" font-family="sans" font-size="10.00">count_variants_ZIKV</text>
<text text-anchor="middle" x="4274" y="-370" font-family="sans" font-size="10.00">sample_lib: exp1&#45;ZV2&#45;1000&#45;abneg_lib1</text>
</g>
<!-- 21&#45;&gt;2 -->
<g id="edge26" class="edge">
<title>21&#45;&gt;2</title>
<path fill="none" stroke="grey" stroke-width="2" d="M4169.09,-360.81C4166.37,-360.52 4163.67,-360.25 4161,-360 3665.76,-313.67 3070.01,-307.43 2837.63,-306.88"/>
<polygon fill="grey" stroke="grey" stroke-width="2" points="2837.85,-303.37 2827.85,-306.85 2837.84,-310.37 2837.85,-303.37"/>
</g>
<!-- 22 -->
<g id="node23" class="node">
<title>22</title>
<path fill="none" stroke="#56c9d8" stroke-width="2" d="M4598,-396C4598,-396 4408,-396 4408,-396 4402,-396 4396,-390 4396,-384 4396,-384 4396,-372 4396,-372 4396,-366 4402,-360 4408,-360 4408,-360 4598,-360 4598,-360 4604,-360 4610,-366 4610,-372 4610,-372 4610,-384 4610,-384 4610,-390 4604,-396 4598,-396"/>
<text text-anchor="middle" x="4503" y="-381" font-family="sans" font-size="10.00">count_variants_ZIKV</text>
<text text-anchor="middle" x="4503" y="-370" font-family="sans" font-size="10.00">sample_lib: exp1&#45;ZV16&#45;1000&#45;abneg_lib1</text>
</g>
<!-- 22&#45;&gt;2 -->
<g id="edge27" class="edge">
<title>22&#45;&gt;2</title>
<path fill="none" stroke="grey" stroke-width="2" d="M4395.3,-360.79C4392.51,-360.51 4389.74,-360.24 4387,-360 3801.32,-307.84 3094.58,-305.25 2837.55,-306.27"/>
<polygon fill="grey" stroke="grey" stroke-width="2" points="2837.91,-302.79 2827.92,-306.33 2837.94,-309.79 2837.91,-302.79"/>
</g>
<!-- 23 -->
<g id="node24" class="node">
<title>23</title>
<path fill="none" stroke="#56c9d8" stroke-width="2" d="M4835.5,-396C4835.5,-396 4640.5,-396 4640.5,-396 4634.5,-396 4628.5,-390 4628.5,-384 4628.5,-384 4628.5,-372 4628.5,-372 4628.5,-366 4634.5,-360 4640.5,-360 4640.5,-360 4835.5,-360 4835.5,-360 4841.5,-360 4847.5,-366 4847.5,-372 4847.5,-372 4847.5,-384 4847.5,-384 4847.5,-390 4841.5,-396 4835.5,-396"/>
<text text-anchor="middle" x="4738" y="-381" font-family="sans" font-size="10.00">count_variants_ZIKV</text>
<text text-anchor="middle" x="4738" y="-370" font-family="sans" font-size="10.00">sample_lib: exp1&#45;Z2102&#45;1000&#45;abneg_lib1</text>
</g>
<!-- 23&#45;&gt;2 -->
<g id="edge28" class="edge">
<title>23&#45;&gt;2</title>
<path fill="none" stroke="grey" stroke-width="2" d="M4627.51,-360.78C4624.65,-360.5 4621.81,-360.24 4619,-360 4268.09,-330.09 3174.06,-312.97 2837.52,-308.31"/>
<polygon fill="grey" stroke="grey" stroke-width="2" points="2837.97,-304.77 2827.92,-308.13 2837.87,-311.77 2837.97,-304.77"/>
</g>
<!-- 24 -->
<g id="node25" class="node">
<title>24</title>
<path fill="none" stroke="#56c9d8" stroke-width="2" d="M5072.5,-396C5072.5,-396 4877.5,-396 4877.5,-396 4871.5,-396 4865.5,-390 4865.5,-384 4865.5,-384 4865.5,-372 4865.5,-372 4865.5,-366 4871.5,-360 4877.5,-360 4877.5,-360 5072.5,-360 5072.5,-360 5078.5,-360 5084.5,-366 5084.5,-372 5084.5,-372 5084.5,-384 5084.5,-384 5084.5,-390 5078.5,-396 5072.5,-396"/>
<text text-anchor="middle" x="4975" y="-381" font-family="sans" font-size="10.00">count_variants_ZIKV</text>
<text text-anchor="middle" x="4975" y="-370" font-family="sans" font-size="10.00">sample_lib: exp1&#45;Z2208&#45;1000&#45;abneg_lib1</text>
</g>
<!-- 24&#45;&gt;2 -->
<g id="edge29" class="edge">
<title>24&#45;&gt;2</title>
<path fill="none" stroke="grey" stroke-width="2" d="M4864.81,-360.71C4862.19,-360.45 4859.58,-360.22 4857,-360 4457.21,-326.32 3201.18,-311.56 2837.55,-307.93"/>
<polygon fill="grey" stroke="grey" stroke-width="2" points="2837.77,-304.4 2827.74,-307.8 2837.7,-311.4 2837.77,-304.4"/>
</g>
<!-- 25 -->
<g id="node26" class="node">
<title>25</title>
<path fill="none" stroke="#56c9d8" stroke-width="2" d="M5309.5,-396C5309.5,-396 5114.5,-396 5114.5,-396 5108.5,-396 5102.5,-390 5102.5,-384 5102.5,-384 5102.5,-372 5102.5,-372 5102.5,-366 5108.5,-360 5114.5,-360 5114.5,-360 5309.5,-360 5309.5,-360 5315.5,-360 5321.5,-366 5321.5,-372 5321.5,-372 5321.5,-384 5321.5,-384 5321.5,-390 5315.5,-396 5309.5,-396"/>
<text text-anchor="middle" x="5212" y="-381" font-family="sans" font-size="10.00">count_variants_ZIKV</text>
<text text-anchor="middle" x="5212" y="-370" font-family="sans" font-size="10.00">sample_lib: exp1&#45;Z3022&#45;1000&#45;abneg_lib1</text>
</g>
<!-- 25&#45;&gt;2 -->
<g id="edge30" class="edge">
<title>25&#45;&gt;2</title>
<path fill="none" stroke="grey" stroke-width="2" d="M5101.81,-360.7C5099.19,-360.45 5096.58,-360.21 5094,-360 4645.37,-322.77 3227.08,-310.38 2837.73,-307.64"/>
<polygon fill="grey" stroke="grey" stroke-width="2" points="2837.88,-304.12 2827.86,-307.55 2837.84,-311.12 2837.88,-304.12"/>
</g>
<!-- 26 -->
<g id="node27" class="node">
<title>26</title>
<path fill="none" stroke="#56c9d8" stroke-width="2" d="M5546.5,-396C5546.5,-396 5351.5,-396 5351.5,-396 5345.5,-396 5339.5,-390 5339.5,-384 5339.5,-384 5339.5,-372 5339.5,-372 5339.5,-366 5345.5,-360 5351.5,-360 5351.5,-360 5546.5,-360 5546.5,-360 5552.5,-360 5558.5,-366 5558.5,-372 5558.5,-372 5558.5,-384 5558.5,-384 5558.5,-390 5552.5,-396 5546.5,-396"/>
<text text-anchor="middle" x="5449" y="-381" font-family="sans" font-size="10.00">count_variants_ZIKV</text>
<text text-anchor="middle" x="5449" y="-370" font-family="sans" font-size="10.00">sample_lib: exp1&#45;Z6147&#45;1000&#45;abneg_lib1</text>
</g>
<!-- 26&#45;&gt;2 -->
<g id="edge31" class="edge">
<title>26&#45;&gt;2</title>
<path fill="none" stroke="grey" stroke-width="2" d="M5338.82,-360.69C5336.19,-360.44 5333.58,-360.21 5331,-360 4833.25,-319.21 3251.08,-309.32 2837.63,-307.4"/>
<polygon fill="grey" stroke="grey" stroke-width="2" points="2837.89,-303.89 2827.87,-307.34 2837.85,-310.89 2837.89,-303.89"/>
</g>
<!-- 27&#45;&gt;0 -->
<g id="edge3" class="edge">
<title>27&#45;&gt;0</title>
<path fill="none" stroke="grey" stroke-width="2" d="M2719.85,-215.12C2711.46,-205.58 2702.39,-193.12 2698,-180 2683.35,-136.28 2693.28,-82.33 2702.27,-49.32"/>
<polygon fill="grey" stroke="grey" stroke-width="2" points="2706.44,-49.52 2705.86,-38.94 2699.71,-47.57 2706.44,-49.52"/>
</g>
<!-- 28&#45;&gt;0 -->
<g id="edge4" class="edge">
<title>28&#45;&gt;0</title>
<path fill="none" stroke="grey" stroke-width="2" d="M2829.5,-215.46C2786.77,-203.4 2737.7,-188.15 2731,-180 2700.87,-143.33 2702.19,-85.12 2706.6,-49.65"/>
<polygon fill="grey" stroke="grey" stroke-width="2" points="2710.48,-49.23 2708.45,-38.83 2703.56,-48.23 2710.48,-49.23"/>
</g>
<!-- 29 -->
<g id="node30" class="node">
<title>29</title>
<path fill="none" stroke="#5692d8" stroke-width="2" d="M2895.5,-180C2895.5,-180 2752.5,-180 2752.5,-180 2746.5,-180 2740.5,-174 2740.5,-168 2740.5,-168 2740.5,-156 2740.5,-156 2740.5,-150 2746.5,-144 2752.5,-144 2752.5,-144 2895.5,-144 2895.5,-144 2901.5,-144 2907.5,-150 2907.5,-156 2907.5,-156 2907.5,-168 2907.5,-168 2907.5,-174 2901.5,-180 2895.5,-180"/>
<text text-anchor="middle" x="2824" y="-159.5" font-family="sans" font-size="10.00">call_strong_escape_sites_ZIKV</text>
</g>
<!-- 28&#45;&gt;29 -->
<g id="edge34" class="edge">
<title>28&#45;&gt;29</title>
<path fill="none" stroke="grey" stroke-width="2" d="M2877.08,-215.34C2869.24,-207.6 2859.86,-198.36 2851.19,-189.81"/>
<polygon fill="grey" stroke="grey" stroke-width="2" points="2853.74,-187.43 2844.16,-182.9 2848.82,-192.41 2853.74,-187.43"/>
</g>
<!-- 30 -->
<g id="node31" class="node">
<title>30</title>
<path fill="none" stroke="#afd856" stroke-width="2" d="M2887.5,-108C2887.5,-108 2790.5,-108 2790.5,-108 2784.5,-108 2778.5,-102 2778.5,-96 2778.5,-96 2778.5,-84 2778.5,-84 2778.5,-78 2784.5,-72 2790.5,-72 2790.5,-72 2887.5,-72 2887.5,-72 2893.5,-72 2899.5,-78 2899.5,-84 2899.5,-84 2899.5,-96 2899.5,-96 2899.5,-102 2893.5,-108 2887.5,-108"/>
<text text-anchor="middle" x="2839" y="-87.5" font-family="sans" font-size="10.00">escape_profiles_ZIKV</text>
</g>
<!-- 28&#45;&gt;30 -->
<g id="edge35" class="edge">
<title>28&#45;&gt;30</title>
<path fill="none" stroke="grey" stroke-width="2" d="M2906.6,-215.03C2917.05,-196.37 2929.07,-166.79 2917,-144 2911.02,-132.71 2901.45,-123.39 2891.02,-115.87"/>
<polygon fill="grey" stroke="grey" stroke-width="2" points="2892.7,-112.48 2882.41,-109.95 2888.88,-118.35 2892.7,-112.48"/>
</g>
<!-- 31 -->
<g id="node32" class="node">
<title>31</title>
<path fill="none" stroke="#d85656" stroke-width="2" d="M3057.5,-180C3057.5,-180 2976.5,-180 2976.5,-180 2970.5,-180 2964.5,-174 2964.5,-168 2964.5,-168 2964.5,-156 2964.5,-156 2964.5,-150 2970.5,-144 2976.5,-144 2976.5,-144 3057.5,-144 3057.5,-144 3063.5,-144 3069.5,-150 3069.5,-156 3069.5,-156 3069.5,-168 3069.5,-168 3069.5,-174 3063.5,-180 3057.5,-180"/>
<text text-anchor="middle" x="3017" y="-159.5" font-family="sans" font-size="10.00">output_pdbs_ZIKV</text>
</g>
<!-- 28&#45;&gt;31 -->
<g id="edge37" class="edge">
<title>28&#45;&gt;31</title>
<path fill="none" stroke="grey" stroke-width="2" d="M2926.1,-215.15C2940.87,-206.68 2958.75,-196.42 2974.73,-187.25"/>
<polygon fill="grey" stroke="grey" stroke-width="2" points="2977.02,-189.83 2983.96,-181.81 2973.54,-183.75 2977.02,-189.83"/>
</g>
<!-- 29&#45;&gt;0 -->
<g id="edge5" class="edge">
<title>29&#45;&gt;0</title>
<path fill="none" stroke="grey" stroke-width="2" d="M2803.71,-143.07C2793.1,-133.22 2780.24,-120.5 2770,-108 2754.47,-89.04 2739.44,-65.78 2728.57,-47.8"/>
<polygon fill="grey" stroke="grey" stroke-width="2" points="2731.17,-45.65 2723.06,-38.84 2725.16,-49.22 2731.17,-45.65"/>
</g>
<!-- 29&#45;&gt;30 -->
<g id="edge36" class="edge">
<title>29&#45;&gt;30</title>
<path fill="none" stroke="grey" stroke-width="2" d="M2827.79,-143.34C2829.21,-136.67 2830.88,-128.89 2832.49,-121.39"/>
<polygon fill="grey" stroke="grey" stroke-width="2" points="2836.49,-121.41 2835.16,-110.9 2829.65,-119.95 2836.49,-121.41"/>
</g>
<!-- 30&#45;&gt;0 -->
<g id="edge6" class="edge">
<title>30&#45;&gt;0</title>
<path fill="none" stroke="grey" stroke-width="2" d="M2806.62,-71.15C2791.1,-62.6 2772.28,-52.22 2755.52,-42.99"/>
<polygon fill="grey" stroke="grey" stroke-width="2" points="2756.76,-39.57 2746.32,-37.81 2753.39,-45.7 2756.76,-39.57"/>
</g>
<!-- 31&#45;&gt;0 -->
<g id="edge7" class="edge">
<title>31&#45;&gt;0</title>
<path fill="none" stroke="grey" stroke-width="2" d="M3000.35,-143.31C2980.45,-123.19 2945.28,-90.7 2909,-72 2866.11,-49.89 2813.07,-36.3 2772.83,-28.42"/>
<polygon fill="grey" stroke="grey" stroke-width="2" points="2772.72,-24.47 2762.25,-26.07 2771.43,-31.35 2772.72,-24.47"/>
</g>
</g>
</svg>
