<?xml version="1.0" encoding="utf-8" standalone="no"?>
<!DOCTYPE svg PUBLIC "-//W3C//DTD SVG 1.1//EN"
  "http://www.w3.org/Graphics/SVG/1.1/DTD/svg11.dtd">
<svg xmlns:xlink="http://www.w3.org/1999/xlink" width="341.872841pt" height="269.908203pt" viewBox="0 0 341.872841 269.908203" xmlns="http://www.w3.org/2000/svg" version="1.1">
 <metadata>
  <rdf:RDF xmlns:dc="http://purl.org/dc/elements/1.1/" xmlns:cc="http://creativecommons.org/ns#" xmlns:rdf="http://www.w3.org/1999/02/22-rdf-syntax-ns#">
   <cc:Work>
    <dc:type rdf:resource="http://purl.org/dc/dcmitype/StillImage"/>
    <dc:date>2025-12-18T15:42:42.510351</dc:date>
    <dc:format>image/svg+xml</dc:format>
    <dc:creator>
     <cc:Agent>
      <dc:title>Matplotlib v3.7.1, https://matplotlib.org/</dc:title>
     </cc:Agent>
    </dc:creator>
   </cc:Work>
  </rdf:RDF>
 </metadata>
 <defs>
  <style type="text/css">*{stroke-linejoin: round; stroke-linecap: butt}</style>
 </defs>
 <g id="figure_1">
  <g id="patch_1">
   <path d="M 0 269.908203 
L 341.872841 269.908203 
L 341.872841 0 
L 0 0 
L 0 269.908203 
z
" style="fill: none"/>
  </g>
  <g id="axes_1">
   <g id="patch_2">
    <path d="M 84.329609 177.478594 
L 175.111214 177.478594 
L 175.111214 33.478594 
L 84.329609 33.478594 
L 84.329609 177.478594 
z
" style="fill: none"/>
   </g>
   <g id="patch_3">
    <path d="M 87.477887 177.478594 
L 90.079538 177.478594 
L 90.079538 170.764308 
L 87.477887 170.764308 
z
" clip-path="url(#p787b631d97)" style="fill: #cc79a7"/>
   </g>
   <g id="patch_4">
    <path d="M 148.340642 177.478594 
L 150.942293 177.478594 
L 150.942293 170.764308 
L 148.340642 170.764308 
z
" clip-path="url(#p787b631d97)" style="fill: #cc79a7"/>
   </g>
   <g id="patch_5">
    <path d="M 164.357156 177.478594 
L 166.958808 177.478594 
L 166.958808 170.764308 
L 164.357156 170.764308 
z
" clip-path="url(#p787b631d97)" style="fill: #cc79a7"/>
   </g>
   <g id="matplotlib.axis_1">
    <g id="xtick_1">
     <g id="line2d_1">
      <defs>
       <path id="mc45265c60b" d="M 0 0 
L 0 5 
" style="stroke: #000000"/>
      </defs>
      <g>
       <use xlink:href="#mc45265c60b" x="87.276648" y="177.478594" style="stroke: #000000"/>
      </g>
     </g>
     <g id="text_1">
      <!-- 300 -->
      <g transform="translate(92.243523 220.336094) rotate(-90) scale(0.18 -0.18)">
       <defs>
        <path id="DejaVuSans-33" d="M 2597 2516 
Q 3050 2419 3304 2112 
Q 3559 1806 3559 1356 
Q 3559 666 3084 287 
Q 2609 -91 1734 -91 
Q 1441 -91 1130 -33 
Q 819 25 488 141 
L 488 750 
Q 750 597 1062 519 
Q 1375 441 1716 441 
Q 2309 441 2620 675 
Q 2931 909 2931 1356 
Q 2931 1769 2642 2001 
Q 2353 2234 1838 2234 
L 1294 2234 
L 1294 2753 
L 1863 2753 
Q 2328 2753 2575 2939 
Q 2822 3125 2822 3475 
Q 2822 3834 2567 4026 
Q 2313 4219 1838 4219 
Q 1578 4219 1281 4162 
Q 984 4106 628 3988 
L 628 4550 
Q 988 4650 1302 4700 
Q 1616 4750 1894 4750 
Q 2613 4750 3031 4423 
Q 3450 4097 3450 3541 
Q 3450 3153 3228 2886 
Q 3006 2619 2597 2516 
z
" transform="scale(0.015625)"/>
        <path id="DejaVuSans-30" d="M 2034 4250 
Q 1547 4250 1301 3770 
Q 1056 3291 1056 2328 
Q 1056 1369 1301 889 
Q 1547 409 2034 409 
Q 2525 409 2770 889 
Q 3016 1369 3016 2328 
Q 3016 3291 2770 3770 
Q 2525 4250 2034 4250 
z
M 2034 4750 
Q 2819 4750 3233 4129 
Q 3647 3509 3647 2328 
Q 3647 1150 3233 529 
Q 2819 -91 2034 -91 
Q 1250 -91 836 529 
Q 422 1150 422 2328 
Q 422 3509 836 4129 
Q 1250 4750 2034 4750 
z
" transform="scale(0.015625)"/>
       </defs>
       <use xlink:href="#DejaVuSans-33"/>
       <use xlink:href="#DejaVuSans-30" x="63.623047"/>
       <use xlink:href="#DejaVuSans-30" x="127.246094"/>
      </g>
     </g>
    </g>
    <g id="xtick_2">
     <g id="line2d_2">
      <g>
       <use xlink:href="#mc45265c60b" x="111.30142" y="177.478594" style="stroke: #000000"/>
      </g>
     </g>
     <g id="text_2">
      <!-- 330 -->
      <g transform="translate(116.268295 220.336094) rotate(-90) scale(0.18 -0.18)">
       <use xlink:href="#DejaVuSans-33"/>
       <use xlink:href="#DejaVuSans-33" x="63.623047"/>
       <use xlink:href="#DejaVuSans-30" x="127.246094"/>
      </g>
     </g>
    </g>
    <g id="xtick_3">
     <g id="line2d_3">
      <g>
       <use xlink:href="#mc45265c60b" x="135.326192" y="177.478594" style="stroke: #000000"/>
      </g>
     </g>
     <g id="text_3">
      <!-- 360 -->
      <g transform="translate(140.293067 220.336094) rotate(-90) scale(0.18 -0.18)">
       <defs>
        <path id="DejaVuSans-36" d="M 2113 2584 
Q 1688 2584 1439 2293 
Q 1191 2003 1191 1497 
Q 1191 994 1439 701 
Q 1688 409 2113 409 
Q 2538 409 2786 701 
Q 3034 994 3034 1497 
Q 3034 2003 2786 2293 
Q 2538 2584 2113 2584 
z
M 3366 4563 
L 3366 3988 
Q 3128 4100 2886 4159 
Q 2644 4219 2406 4219 
Q 1781 4219 1451 3797 
Q 1122 3375 1075 2522 
Q 1259 2794 1537 2939 
Q 1816 3084 2150 3084 
Q 2853 3084 3261 2657 
Q 3669 2231 3669 1497 
Q 3669 778 3244 343 
Q 2819 -91 2113 -91 
Q 1303 -91 875 529 
Q 447 1150 447 2328 
Q 447 3434 972 4092 
Q 1497 4750 2381 4750 
Q 2619 4750 2861 4703 
Q 3103 4656 3366 4563 
z
" transform="scale(0.015625)"/>
       </defs>
       <use xlink:href="#DejaVuSans-33"/>
       <use xlink:href="#DejaVuSans-36" x="63.623047"/>
       <use xlink:href="#DejaVuSans-30" x="127.246094"/>
      </g>
     </g>
    </g>
    <g id="xtick_4">
     <g id="line2d_4">
      <g>
       <use xlink:href="#mc45265c60b" x="159.350963" y="177.478594" style="stroke: #000000"/>
      </g>
     </g>
     <g id="text_4">
      <!-- 390 -->
      <g transform="translate(164.317838 220.336094) rotate(-90) scale(0.18 -0.18)">
       <defs>
        <path id="DejaVuSans-39" d="M 703 97 
L 703 672 
Q 941 559 1184 500 
Q 1428 441 1663 441 
Q 2288 441 2617 861 
Q 2947 1281 2994 2138 
Q 2813 1869 2534 1725 
Q 2256 1581 1919 1581 
Q 1219 1581 811 2004 
Q 403 2428 403 3163 
Q 403 3881 828 4315 
Q 1253 4750 1959 4750 
Q 2769 4750 3195 4129 
Q 3622 3509 3622 2328 
Q 3622 1225 3098 567 
Q 2575 -91 1691 -91 
Q 1453 -91 1209 -44 
Q 966 3 703 97 
z
M 1959 2075 
Q 2384 2075 2632 2365 
Q 2881 2656 2881 3163 
Q 2881 3666 2632 3958 
Q 2384 4250 1959 4250 
Q 1534 4250 1286 3958 
Q 1038 3666 1038 3163 
Q 1038 2656 1286 2365 
Q 1534 2075 1959 2075 
z
" transform="scale(0.015625)"/>
       </defs>
       <use xlink:href="#DejaVuSans-33"/>
       <use xlink:href="#DejaVuSans-39" x="63.623047"/>
       <use xlink:href="#DejaVuSans-30" x="127.246094"/>
      </g>
     </g>
    </g>
   </g>
   <g id="matplotlib.axis_2">
    <g id="ytick_1">
     <g id="line2d_5">
      <defs>
       <path id="m494a7981dc" d="M 0 0 
L -5 0 
" style="stroke: #000000"/>
      </defs>
      <g>
       <use xlink:href="#m494a7981dc" x="84.329609" y="169.764308" style="stroke: #000000"/>
      </g>
     </g>
     <g id="text_5">
      <!-- 0.00 -->
      <g transform="translate(35.751484 176.602902) scale(0.18 -0.18)">
       <defs>
        <path id="DejaVuSans-2e" d="M 684 794 
L 1344 794 
L 1344 0 
L 684 0 
L 684 794 
z
" transform="scale(0.015625)"/>
       </defs>
       <use xlink:href="#DejaVuSans-30"/>
       <use xlink:href="#DejaVuSans-2e" x="63.623047"/>
       <use xlink:href="#DejaVuSans-30" x="95.410156"/>
       <use xlink:href="#DejaVuSans-30" x="159.033203"/>
      </g>
     </g>
    </g>
    <g id="ytick_2">
     <g id="line2d_6">
      <g>
       <use xlink:href="#m494a7981dc" x="84.329609" y="133.608113" style="stroke: #000000"/>
      </g>
     </g>
     <g id="text_6">
      <!-- 0.15 -->
      <g transform="translate(35.751484 140.446707) scale(0.18 -0.18)">
       <defs>
        <path id="DejaVuSans-31" d="M 794 531 
L 1825 531 
L 1825 4091 
L 703 3866 
L 703 4441 
L 1819 4666 
L 2450 4666 
L 2450 531 
L 3481 531 
L 3481 0 
L 794 0 
L 794 531 
z
" transform="scale(0.015625)"/>
        <path id="DejaVuSans-35" d="M 691 4666 
L 3169 4666 
L 3169 4134 
L 1269 4134 
L 1269 2991 
Q 1406 3038 1543 3061 
Q 1681 3084 1819 3084 
Q 2600 3084 3056 2656 
Q 3513 2228 3513 1497 
Q 3513 744 3044 326 
Q 2575 -91 1722 -91 
Q 1428 -91 1123 -41 
Q 819 9 494 109 
L 494 744 
Q 775 591 1075 516 
Q 1375 441 1709 441 
Q 2250 441 2565 725 
Q 2881 1009 2881 1497 
Q 2881 1984 2565 2268 
Q 2250 2553 1709 2553 
Q 1456 2553 1204 2497 
Q 953 2441 691 2322 
L 691 4666 
z
" transform="scale(0.015625)"/>
       </defs>
       <use xlink:href="#DejaVuSans-30"/>
       <use xlink:href="#DejaVuSans-2e" x="63.623047"/>
       <use xlink:href="#DejaVuSans-31" x="95.410156"/>
       <use xlink:href="#DejaVuSans-35" x="159.033203"/>
      </g>
     </g>
    </g>
    <g id="ytick_3">
     <g id="line2d_7">
      <g>
       <use xlink:href="#m494a7981dc" x="84.329609" y="97.451919" style="stroke: #000000"/>
      </g>
     </g>
     <g id="text_7">
      <!-- 0.30 -->
      <g transform="translate(35.751484 104.290512) scale(0.18 -0.18)">
       <use xlink:href="#DejaVuSans-30"/>
       <use xlink:href="#DejaVuSans-2e" x="63.623047"/>
       <use xlink:href="#DejaVuSans-33" x="95.410156"/>
       <use xlink:href="#DejaVuSans-30" x="159.033203"/>
      </g>
     </g>
    </g>
    <g id="ytick_4">
     <g id="line2d_8">
      <g>
       <use xlink:href="#m494a7981dc" x="84.329609" y="61.295724" style="stroke: #000000"/>
      </g>
     </g>
     <g id="text_8">
      <!-- 0.45 -->
      <g transform="translate(35.751484 68.134318) scale(0.18 -0.18)">
       <defs>
        <path id="DejaVuSans-34" d="M 2419 4116 
L 825 1625 
L 2419 1625 
L 2419 4116 
z
M 2253 4666 
L 3047 4666 
L 3047 1625 
L 3713 1625 
L 3713 1100 
L 3047 1100 
L 3047 0 
L 2419 0 
L 2419 1100 
L 313 1100 
L 313 1709 
L 2253 4666 
z
" transform="scale(0.015625)"/>
       </defs>
       <use xlink:href="#DejaVuSans-30"/>
       <use xlink:href="#DejaVuSans-2e" x="63.623047"/>
       <use xlink:href="#DejaVuSans-34" x="95.410156"/>
       <use xlink:href="#DejaVuSans-35" x="159.033203"/>
      </g>
     </g>
    </g>
   </g>
   <g id="line2d_9">
    <path d="M 86.075409 142.478433 
L 86.876235 142.478433 
L 86.876235 141.731205 
L 87.677061 141.731205 
L 87.677061 169.764308 
L 88.477887 169.764308 
L 88.477887 97.909897 
L 89.278712 97.909897 
L 89.278712 157.796608 
L 90.079538 157.796608 
L 90.079538 120.447258 
L 90.880364 120.447258 
L 90.880364 162.904273 
L 91.68119 162.904273 
L 91.68119 152.32497 
L 92.482015 152.32497 
L 92.482015 141.899934 
L 93.282841 141.899934 
L 93.282841 169.764308 
L 94.083667 169.764308 
L 94.083667 159.471845 
L 94.884492 159.471845 
L 94.884492 167.916726 
L 95.685318 167.916726 
L 95.685318 151.10048 
L 96.486144 151.10048 
L 96.486144 166.286082 
L 97.28697 166.286082 
L 97.28697 109.383463 
L 98.087795 109.383463 
L 98.087795 165.883543 
L 98.888621 165.883543 
L 98.888621 169.65367 
L 99.689447 169.65367 
L 99.689447 169.161464 
L 100.490272 169.161464 
L 100.490272 169.764308 
L 101.291098 169.764308 
L 101.291098 169.333808 
L 102.091924 169.333808 
L 102.091924 169.520615 
L 102.89275 169.520615 
L 102.89275 169.265594 
L 103.693575 169.265594 
L 103.693575 162.641538 
L 104.494401 162.641538 
L 104.494401 169.764308 
L 105.295227 169.764308 
L 105.295227 168.565851 
L 106.096053 168.565851 
L 106.096053 165.770254 
L 106.896878 165.770254 
L 106.896878 166.21618 
L 107.697704 166.21618 
L 107.697704 169.50784 
L 108.49853 169.50784 
L 108.49853 169.748568 
L 109.299355 169.748568 
L 109.299355 163.47072 
L 110.100181 163.47072 
L 110.100181 167.059825 
L 110.901007 167.059825 
L 110.901007 159.006635 
L 111.701833 159.006635 
L 111.701833 167.601203 
L 112.502658 167.601203 
L 112.502658 169.764308 
L 113.303484 169.764308 
L 113.303484 149.926609 
L 114.10431 149.926609 
L 114.10431 169.764308 
L 114.905136 169.764308 
L 114.905136 150.697941 
L 115.705961 150.697941 
L 115.705961 165.637681 
L 116.506787 165.637681 
L 116.506787 169.764308 
L 117.307613 169.764308 
L 117.307613 167.768245 
L 118.108438 167.768245 
L 118.108438 169.764308 
L 118.909264 169.764308 
L 118.909264 138.525356 
L 119.71009 138.525356 
L 119.71009 167.110443 
L 120.510916 167.110443 
L 120.510916 160.802393 
L 121.311741 160.802393 
L 121.311741 164.181792 
L 122.112567 164.181792 
L 122.112567 169.352851 
L 122.913393 169.352851 
L 122.913393 149.135994 
L 123.714219 149.135994 
L 123.714219 150.288171 
L 124.515044 150.288171 
L 124.515044 123.966461 
L 125.31587 123.966461 
L 125.31587 165.676248 
L 126.116696 165.676248 
L 126.116696 132.71626 
L 126.917521 132.71626 
L 126.917521 153.26021 
L 127.718347 153.26021 
L 127.718347 134.40355 
L 128.519173 134.40355 
L 128.519173 157.69296 
L 129.319999 157.69296 
L 129.319999 156.728795 
L 130.120824 156.728795 
L 130.120824 168.290099 
L 130.92165 168.290099 
L 130.92165 169.457462 
L 131.722476 169.457462 
L 131.722476 158.635431 
L 132.523301 158.635431 
L 132.523301 169.736106 
L 133.324127 169.736106 
L 133.324127 166.515071 
L 134.124953 166.515071 
L 134.124953 169.762301 
L 134.925779 169.762301 
L 134.925779 164.687978 
L 135.726604 164.687978 
L 135.726604 158.620969 
L 136.52743 158.620969 
L 136.52743 153.927895 
L 137.328256 153.927895 
L 137.328256 169.398648 
L 138.129082 169.398648 
L 138.129082 164.760291 
L 138.929907 164.760291 
L 138.929907 168.915602 
L 139.730733 168.915602 
L 139.730733 150.39905 
L 140.531559 150.39905 
L 140.531559 168.795563 
L 141.332384 168.795563 
L 141.332384 160.274512 
L 142.13321 160.274512 
L 142.13321 153.930305 
L 142.934036 153.930305 
L 142.934036 165.133905 
L 143.734862 165.133905 
L 143.734862 169.764308 
L 145.336513 169.764308 
L 145.336513 164.090196 
L 146.137339 164.090196 
L 146.137339 169.675002 
L 147.73899 169.760167 
L 147.73899 169.314284 
L 148.539816 169.314284 
L 148.539816 164.948303 
L 149.340642 164.948303 
L 149.340642 87.159455 
L 150.141467 87.159455 
L 150.141467 167.840316 
L 150.942293 167.840316 
L 150.942293 148.972086 
L 151.743119 148.972086 
L 151.743119 166.826015 
L 152.543945 166.826015 
L 152.543945 152.404514 
L 153.34477 152.404514 
L 153.34477 167.163472 
L 154.145596 167.163472 
L 154.145596 169.063842 
L 154.946422 169.063842 
L 154.946422 159.336861 
L 155.747247 159.336861 
L 155.747247 127.027686 
L 156.548073 127.027686 
L 156.548073 164.99169 
L 157.348899 164.99169 
L 157.348899 162.872937 
L 158.149725 162.872937 
L 158.149725 169.747565 
L 158.95055 169.747565 
L 158.95055 167.963971 
L 159.751376 167.963971 
L 159.751376 149.152867 
L 160.552202 149.152867 
L 160.552202 152.797411 
L 161.353028 152.797411 
L 161.353028 157.943643 
L 162.153853 157.943643 
L 162.153853 143.322078 
L 162.954679 143.322078 
L 162.954679 152.161062 
L 163.755505 152.161062 
L 163.755505 168.712163 
L 164.55633 168.712163 
L 164.55633 163.716582 
L 165.357156 163.716582 
L 165.357156 41.192879 
L 166.157982 41.192879 
L 166.157982 162.029293 
L 166.958808 162.029293 
L 166.958808 165.999243 
L 167.759633 165.999243 
L 167.759633 152.816694 
L 168.560459 152.816694 
L 168.560459 145.889167 
L 169.361285 145.889167 
L 169.361285 145.129887 
L 170.162111 145.129887 
L 170.162111 144.021097 
L 170.962936 144.021097 
L 170.962936 159.235624 
L 171.763762 159.235624 
L 171.763762 120.230321 
L 172.564588 120.230321 
L 172.564588 135.801589 
L 173.365413 135.801589 
L 173.365413 135.801589 
" clip-path="url(#p787b631d97)" style="fill: none; stroke: #000000; stroke-linecap: square"/>
   </g>
   <g id="patch_6">
    <path d="M 84.329609 177.478594 
L 84.329609 33.478594 
" style="fill: none; stroke: #000000; stroke-width: 0.8; stroke-linejoin: miter; stroke-linecap: square"/>
   </g>
   <g id="patch_7">
    <path d="M 84.329609 177.478594 
L 175.111214 177.478594 
" style="fill: none; stroke: #000000; stroke-width: 0.8; stroke-linejoin: miter; stroke-linecap: square"/>
   </g>
   <g id="text_9">
    <!-- Z2029 -->
    <g transform="translate(88.537911 27.478594) scale(0.255 -0.255)">
     <defs>
      <path id="DejaVuSans-5a" d="M 359 4666 
L 4025 4666 
L 4025 4184 
L 1075 531 
L 4097 531 
L 4097 0 
L 288 0 
L 288 481 
L 3238 4134 
L 359 4134 
L 359 4666 
z
" transform="scale(0.015625)"/>
      <path id="DejaVuSans-32" d="M 1228 531 
L 3431 531 
L 3431 0 
L 469 0 
L 469 531 
Q 828 903 1448 1529 
Q 2069 2156 2228 2338 
Q 2531 2678 2651 2914 
Q 2772 3150 2772 3378 
Q 2772 3750 2511 3984 
Q 2250 4219 1831 4219 
Q 1534 4219 1204 4116 
Q 875 4013 500 3803 
L 500 4441 
Q 881 4594 1212 4672 
Q 1544 4750 1819 4750 
Q 2544 4750 2975 4387 
Q 3406 4025 3406 3419 
Q 3406 3131 3298 2873 
Q 3191 2616 2906 2266 
Q 2828 2175 2409 1742 
Q 1991 1309 1228 531 
z
" transform="scale(0.015625)"/>
     </defs>
     <use xlink:href="#DejaVuSans-5a"/>
     <use xlink:href="#DejaVuSans-32" x="68.505859"/>
     <use xlink:href="#DejaVuSans-30" x="132.128906"/>
     <use xlink:href="#DejaVuSans-32" x="195.751953"/>
     <use xlink:href="#DejaVuSans-39" x="259.375"/>
    </g>
   </g>
  </g>
  <g id="axes_2">
   <g id="patch_8">
    <path d="M 220.914155 177.478594 
L 311.444429 177.478594 
L 311.444429 33.478594 
L 220.914155 33.478594 
L 220.914155 177.478594 
z
" style="fill: none"/>
   </g>
   <g id="matplotlib.axis_3">
    <g id="xtick_5">
     <g id="line2d_10">
      <g>
       <use xlink:href="#mc45265c60b" x="232.649561" y="177.478594" style="stroke: #000000"/>
      </g>
     </g>
     <g id="text_10">
      <!-- G302 -->
      <g transform="translate(237.616436 234.283281) rotate(-90) scale(0.18 -0.18)">
       <defs>
        <path id="DejaVuSans-47" d="M 3809 666 
L 3809 1919 
L 2778 1919 
L 2778 2438 
L 4434 2438 
L 4434 434 
Q 4069 175 3628 42 
Q 3188 -91 2688 -91 
Q 1594 -91 976 548 
Q 359 1188 359 2328 
Q 359 3472 976 4111 
Q 1594 4750 2688 4750 
Q 3144 4750 3555 4637 
Q 3966 4525 4313 4306 
L 4313 3634 
Q 3963 3931 3569 4081 
Q 3175 4231 2741 4231 
Q 1884 4231 1454 3753 
Q 1025 3275 1025 2328 
Q 1025 1384 1454 906 
Q 1884 428 2741 428 
Q 3075 428 3337 486 
Q 3600 544 3809 666 
z
" transform="scale(0.015625)"/>
       </defs>
       <use xlink:href="#DejaVuSans-47"/>
       <use xlink:href="#DejaVuSans-33" x="77.490234"/>
       <use xlink:href="#DejaVuSans-30" x="141.113281"/>
       <use xlink:href="#DejaVuSans-32" x="204.736328"/>
      </g>
     </g>
    </g>
    <g id="xtick_6">
     <g id="line2d_11">
      <g>
       <use xlink:href="#mc45265c60b" x="266.179292" y="177.478594" style="stroke: #000000"/>
      </g>
     </g>
     <g id="text_11">
      <!-- L378 -->
      <g transform="translate(271.146167 230.365469) rotate(-90) scale(0.18 -0.18)">
       <defs>
        <path id="DejaVuSans-4c" d="M 628 4666 
L 1259 4666 
L 1259 531 
L 3531 531 
L 3531 0 
L 628 0 
L 628 4666 
z
" transform="scale(0.015625)"/>
        <path id="DejaVuSans-37" d="M 525 4666 
L 3525 4666 
L 3525 4397 
L 1831 0 
L 1172 0 
L 2766 4134 
L 525 4134 
L 525 4666 
z
" transform="scale(0.015625)"/>
        <path id="DejaVuSans-38" d="M 2034 2216 
Q 1584 2216 1326 1975 
Q 1069 1734 1069 1313 
Q 1069 891 1326 650 
Q 1584 409 2034 409 
Q 2484 409 2743 651 
Q 3003 894 3003 1313 
Q 3003 1734 2745 1975 
Q 2488 2216 2034 2216 
z
M 1403 2484 
Q 997 2584 770 2862 
Q 544 3141 544 3541 
Q 544 4100 942 4425 
Q 1341 4750 2034 4750 
Q 2731 4750 3128 4425 
Q 3525 4100 3525 3541 
Q 3525 3141 3298 2862 
Q 3072 2584 2669 2484 
Q 3125 2378 3379 2068 
Q 3634 1759 3634 1313 
Q 3634 634 3220 271 
Q 2806 -91 2034 -91 
Q 1263 -91 848 271 
Q 434 634 434 1313 
Q 434 1759 690 2068 
Q 947 2378 1403 2484 
z
M 1172 3481 
Q 1172 3119 1398 2916 
Q 1625 2713 2034 2713 
Q 2441 2713 2670 2916 
Q 2900 3119 2900 3481 
Q 2900 3844 2670 4047 
Q 2441 4250 2034 4250 
Q 1625 4250 1398 4047 
Q 1172 3844 1172 3481 
z
" transform="scale(0.015625)"/>
       </defs>
       <use xlink:href="#DejaVuSans-4c"/>
       <use xlink:href="#DejaVuSans-33" x="55.712891"/>
       <use xlink:href="#DejaVuSans-37" x="119.335938"/>
       <use xlink:href="#DejaVuSans-38" x="182.958984"/>
      </g>
     </g>
    </g>
    <g id="xtick_7">
     <g id="line2d_12">
      <g>
       <use xlink:href="#mc45265c60b" x="299.709023" y="177.478594" style="stroke: #000000"/>
      </g>
     </g>
     <g id="text_12">
      <!-- H398 -->
      <g transform="translate(304.675898 233.872656) rotate(-90) scale(0.18 -0.18)">
       <defs>
        <path id="DejaVuSans-48" d="M 628 4666 
L 1259 4666 
L 1259 2753 
L 3553 2753 
L 3553 4666 
L 4184 4666 
L 4184 0 
L 3553 0 
L 3553 2222 
L 1259 2222 
L 1259 0 
L 628 0 
L 628 4666 
z
" transform="scale(0.015625)"/>
       </defs>
       <use xlink:href="#DejaVuSans-48"/>
       <use xlink:href="#DejaVuSans-33" x="75.195312"/>
       <use xlink:href="#DejaVuSans-39" x="138.818359"/>
       <use xlink:href="#DejaVuSans-38" x="202.441406"/>
      </g>
     </g>
    </g>
   </g>
   <g id="matplotlib.axis_4">
    <g id="ytick_5">
     <g id="line2d_13">
      <g>
       <use xlink:href="#m494a7981dc" x="220.914155" y="169.764308" style="stroke: #000000"/>
      </g>
     </g>
     <g id="text_13">
      <!-- 0.00 -->
      <g transform="translate(172.33603 176.602902) scale(0.18 -0.18)">
       <use xlink:href="#DejaVuSans-30"/>
       <use xlink:href="#DejaVuSans-2e" x="63.623047"/>
       <use xlink:href="#DejaVuSans-30" x="95.410156"/>
       <use xlink:href="#DejaVuSans-30" x="159.033203"/>
      </g>
     </g>
    </g>
    <g id="ytick_6">
     <g id="line2d_14">
      <g>
       <use xlink:href="#m494a7981dc" x="220.914155" y="133.608113" style="stroke: #000000"/>
      </g>
     </g>
     <g id="text_14">
      <!-- 0.15 -->
      <g transform="translate(172.33603 140.446707) scale(0.18 -0.18)">
       <use xlink:href="#DejaVuSans-30"/>
       <use xlink:href="#DejaVuSans-2e" x="63.623047"/>
       <use xlink:href="#DejaVuSans-31" x="95.410156"/>
       <use xlink:href="#DejaVuSans-35" x="159.033203"/>
      </g>
     </g>
    </g>
    <g id="ytick_7">
     <g id="line2d_15">
      <g>
       <use xlink:href="#m494a7981dc" x="220.914155" y="97.451919" style="stroke: #000000"/>
      </g>
     </g>
     <g id="text_15">
      <!-- 0.30 -->
      <g transform="translate(172.33603 104.290512) scale(0.18 -0.18)">
       <use xlink:href="#DejaVuSans-30"/>
       <use xlink:href="#DejaVuSans-2e" x="63.623047"/>
       <use xlink:href="#DejaVuSans-33" x="95.410156"/>
       <use xlink:href="#DejaVuSans-30" x="159.033203"/>
      </g>
     </g>
    </g>
    <g id="ytick_8">
     <g id="line2d_16">
      <g>
       <use xlink:href="#m494a7981dc" x="220.914155" y="61.295724" style="stroke: #000000"/>
      </g>
     </g>
     <g id="text_16">
      <!-- 0.45 -->
      <g transform="translate(172.33603 68.134318) scale(0.18 -0.18)">
       <use xlink:href="#DejaVuSans-30"/>
       <use xlink:href="#DejaVuSans-2e" x="63.623047"/>
       <use xlink:href="#DejaVuSans-34" x="95.410156"/>
       <use xlink:href="#DejaVuSans-35" x="159.033203"/>
      </g>
     </g>
    </g>
   </g>
   <g id="line2d_17">
    <path d="M 249.414426 177.478594 
L 249.414426 33.478594 
" clip-path="url(#p79c881b36d)" style="fill: none; stroke-dasharray: 2,5; stroke-dashoffset: 0; stroke: #000000"/>
   </g>
   <g id="line2d_18">
    <path d="M 282.944158 177.478594 
L 282.944158 33.478594 
" clip-path="url(#p79c881b36d)" style="fill: none; stroke-dasharray: 2,5; stroke-dashoffset: 0; stroke: #000000"/>
   </g>
   <g id="patch_9">
    <path d="M 220.914155 177.478594 
L 220.914155 33.478594 
" style="fill: none; stroke: #000000; stroke-width: 0.8; stroke-linejoin: miter; stroke-linecap: square"/>
   </g>
   <g id="patch_10">
    <path d="M 220.914155 177.478594 
L 311.444429 177.478594 
" style="fill: none; stroke: #000000; stroke-width: 0.8; stroke-linejoin: miter; stroke-linecap: square"/>
   </g>
   <g id="text_17">
    <g id="patch_11">
     <path d="M 224.267128 184.738058 
L 267.613378 184.738058 
L 267.613378 115.055558 
L 224.267128 115.055558 
L 224.267128 184.738058 
z
" style="fill: none"/>
    </g>
    <path d="M 225.920129 169.764308 
L 230.084247 169.764308 
L 230.084247 169.764308 
L 236.601408 169.764308 
L 241.316526 169.764308 
L 234.66839 169.764308 
L 241.555895 169.764308 
L 236.926589 169.764308 
L 231.931453 169.764308 
L 230.084247 169.764308 
L 230.084247 169.764308 
L 225.920129 169.764308 
L 225.920129 169.764308 
z
" style="fill: #808080"/>
   </g>
   <g id="text_18">
    <g id="patch_12">
     <path d="M 224.267128 184.738058 
L 267.613378 184.738058 
L 267.613378 115.055558 
L 224.267128 115.055558 
L 224.267128 184.738058 
z
" style="fill: none"/>
    </g>
    <path d="M 227.442155 169.764308 
L 227.442155 169.764308 
L 231.606273 169.764308 
L 231.606273 169.764308 
L 240.512608 169.764308 
L 240.512608 169.764308 
L 227.442155 169.764308 
z
" style="fill: #808080"/>
   </g>
   <g id="text_19">
    <g id="patch_13">
     <path d="M 224.267128 184.738058 
L 267.613378 184.738058 
L 267.613378 115.055558 
L 224.267128 115.055558 
L 224.267128 184.738058 
z
" style="fill: none"/>
    </g>
    <path d="M 231.466265 169.764308 
Q 228.318336 169.764308 227.202786 169.764308 
Q 226.087236 169.764308 226.087236 169.764308 
Q 226.087236 169.764308 227.920893 169.764308 
Q 229.759066 169.764308 232.961192 169.764308 
Q 234.415472 169.764308 235.869752 169.764308 
Q 237.324031 169.764308 238.746697 169.764308 
L 238.746697 169.764308 
Q 237.405327 169.764308 236.023309 169.764308 
Q 234.641292 169.764308 233.286373 169.764308 
Q 231.777896 169.764308 230.969461 169.764308 
Q 230.165542 169.764308 230.165542 169.764308 
Q 230.165542 169.764308 230.752674 169.764308 
Q 231.339805 169.764308 233.200561 169.764308 
L 234.993571 169.764308 
Q 237.536302 169.764308 238.733147 169.764308 
Q 239.934509 169.764308 239.934509 169.764308 
Q 239.934509 169.764308 238.046655 169.764308 
Q 236.163317 169.764308 232.355995 169.764308 
Q 230.788805 169.764308 229.212582 169.764308 
Q 227.640876 169.764308 226.173047 169.764308 
L 226.173047 169.764308 
Q 227.839598 169.764308 229.397755 169.764308 
Q 230.955912 169.764308 232.482454 169.764308 
Q 234.018029 169.764308 234.862595 169.764308 
Q 235.711678 169.764308 235.711678 169.764308 
Q 235.711678 169.764308 235.147128 169.764308 
Q 234.582578 169.764308 233.512192 169.764308 
L 231.466265 169.764308 
z
" style="fill: #808080"/>
   </g>
   <g id="text_20">
    <g id="patch_14">
     <path d="M 224.267128 184.738058 
L 267.613378 184.738058 
L 267.613378 115.055558 
L 224.267128 115.055558 
L 224.267128 184.738058 
z
" style="fill: none"/>
    </g>
    <path d="M 236.57431 169.764308 
L 236.57431 169.764308 
L 233.724463 169.764308 
L 233.724463 169.764308 
L 240.214526 169.764308 
L 240.214526 169.764308 
Q 239.01768 169.764308 237.567917 169.764308 
Q 236.12267 169.764308 234.469669 169.764308 
Q 230.377813 169.764308 228.146713 169.764308 
Q 225.920129 169.764308 225.920129 169.764308 
Q 225.920129 169.764308 228.169295 169.764308 
Q 230.422977 169.764308 234.66839 169.764308 
Q 235.937498 169.764308 237.165958 169.764308 
Q 238.394418 169.764308 239.46932 169.764308 
L 239.46932 169.764308 
Q 238.593139 169.764308 237.455007 169.764308 
Q 236.321391 169.764308 234.966472 169.764308 
Q 232.595364 169.764308 231.421101 169.764308 
Q 230.251354 169.764308 230.251354 169.764308 
Q 230.251354 169.764308 231.380453 169.764308 
Q 232.509552 169.764308 234.66839 169.764308 
Q 235.318751 169.764308 235.797489 169.764308 
Q 236.276227 169.764308 236.57431 169.764308 
z
" style="fill: #808080"/>
   </g>
   <g id="text_21">
    <g id="patch_15">
     <path d="M 224.267128 184.738058 
L 267.613378 184.738058 
L 267.613378 115.055558 
L 224.267128 115.055558 
L 224.267128 184.738058 
z
" style="fill: none"/>
    </g>
    <path d="M 226.200146 169.764308 
L 230.364264 169.764308 
L 230.364264 169.764308 
L 235.571669 169.764308 
L 235.571669 169.764308 
L 239.735787 169.764308 
L 239.735787 169.764308 
L 235.571669 169.764308 
L 235.571669 169.764308 
L 230.364264 169.764308 
L 230.364264 169.764308 
L 226.200146 169.764308 
L 226.200146 169.764308 
z
" style="fill: #808080"/>
   </g>
   <g id="text_22">
    <g id="patch_16">
     <path d="M 224.267128 184.738058 
L 267.613378 184.738058 
L 267.613378 115.055558 
L 224.267128 115.055558 
L 224.267128 184.738058 
z
" style="fill: none"/>
    </g>
    <path d="M 233.525742 169.764308 
Q 233.32702 169.764308 233.191528 169.764308 
Q 233.060553 169.764308 232.934094 169.764308 
Q 229.307427 169.764308 227.437638 169.764308 
Q 225.56785 169.764308 225.56785 169.764308 
Q 225.56785 169.764308 227.437638 169.764308 
Q 229.307427 169.764308 232.961192 169.764308 
Q 236.633023 169.764308 238.502811 169.764308 
Q 240.372599 169.764308 240.372599 169.764308 
Q 240.372599 169.764308 239.482869 169.764308 
Q 238.593139 169.764308 236.89949 169.764308 
L 239.523517 169.764308 
L 236.67367 169.764308 
L 233.525742 169.764308 
z
M 232.961192 169.764308 
Q 231.366904 169.764308 230.630731 169.764308 
Q 229.899075 169.764308 229.899075 169.764308 
Q 229.899075 169.764308 230.630731 169.764308 
Q 231.366904 169.764308 232.961192 169.764308 
Q 234.569029 169.764308 235.300686 169.764308 
Q 236.036858 169.764308 236.036858 169.764308 
Q 236.036858 169.764308 235.300686 169.764308 
Q 234.569029 169.764308 232.961192 169.764308 
z
" style="fill: #808080"/>
   </g>
   <g id="text_23">
    <g id="patch_17">
     <path d="M 224.267128 184.738058 
L 267.613378 184.738058 
L 267.613378 115.055558 
L 224.267128 115.055558 
L 224.267128 184.738058 
z
" style="fill: none"/>
    </g>
    <path d="M 239.762886 169.764308 
L 226.638236 169.764308 
L 226.638236 169.764308 
L 239.762886 169.764308 
L 239.762886 169.764308 
L 230.802354 169.764308 
L 230.802354 169.764308 
L 238.91832 169.764308 
L 238.91832 169.764308 
L 230.802354 169.764308 
L 230.802354 169.764308 
L 239.762886 169.764308 
L 239.762886 169.764308 
z
" style="fill: #808080"/>
   </g>
   <g id="text_24">
    <g id="patch_18">
     <path d="M 224.267128 184.738058 
L 267.613378 184.738058 
L 267.613378 115.055558 
L 224.267128 115.055558 
L 224.267128 184.738058 
z
" style="fill: none"/>
    </g>
    <path d="M 225.482038 169.764308 
L 230.450075 169.764308 
L 232.961192 169.764308 
L 235.458759 169.764308 
L 240.453895 169.764308 
L 240.453895 169.764308 
L 236.872392 169.764308 
L 236.872392 169.764308 
L 234.641292 169.764308 
L 231.326256 169.764308 
L 229.068058 169.764308 
L 229.068058 169.764308 
L 225.482038 169.764308 
L 225.482038 169.764308 
z
" style="fill: #808080"/>
   </g>
   <g id="text_25">
    <g id="patch_19">
     <path d="M 224.267128 184.738058 
L 267.613378 184.738058 
L 267.613378 115.055558 
L 224.267128 115.055558 
L 224.267128 184.738058 
z
" style="fill: none"/>
    </g>
    <path d="M 235.657481 169.764308 
Q 236.276227 169.764308 236.7369 169.764308 
Q 237.197572 169.764308 237.856966 169.764308 
L 241.668805 169.764308 
L 237.098212 169.764308 
L 234.55548 169.764308 
Q 234.44257 169.764308 234.261914 169.764308 
Q 233.146364 169.764308 231.633371 169.764308 
L 230.310067 169.764308 
L 230.310067 169.764308 
L 226.145949 169.764308 
L 226.145949 169.764308 
L 232.157273 169.764308 
Q 236.222031 169.764308 237.992458 169.764308 
Q 239.762886 169.764308 239.762886 169.764308 
Q 239.762886 169.764308 238.706049 169.764308 
Q 237.649212 169.764308 235.657481 169.764308 
z
M 230.310067 169.764308 
L 230.310067 169.764308 
L 232.270183 169.764308 
Q 233.977381 169.764308 234.71807 169.764308 
Q 235.458759 169.764308 235.458759 169.764308 
Q 235.458759 169.764308 234.722587 169.764308 
Q 233.99093 169.764308 232.270183 169.764308 
L 230.310067 169.764308 
z
" style="fill: #808080"/>
   </g>
   <g id="text_26">
    <g id="patch_20">
     <path d="M 224.267128 184.738058 
L 267.613378 184.738058 
L 267.613378 115.055558 
L 224.267128 115.055558 
L 224.267128 184.738058 
z
" style="fill: none"/>
    </g>
    <path d="M 226.696949 169.764308 
L 226.696949 169.764308 
L 239.2435 169.764308 
L 239.2435 169.764308 
L 235.052284 169.764308 
L 235.052284 169.764308 
L 239.2435 169.764308 
L 239.2435 169.764308 
L 226.696949 169.764308 
L 226.696949 169.764308 
L 230.888166 169.764308 
L 230.888166 169.764308 
L 226.696949 169.764308 
z
" style="fill: #808080"/>
   </g>
   <g id="text_27">
    <g id="patch_21">
     <path d="M 224.267128 184.738058 
L 267.613378 184.738058 
L 267.613378 115.055558 
L 224.267128 115.055558 
L 224.267128 184.738058 
z
" style="fill: none"/>
    </g>
    <path d="M 239.961607 169.764308 
L 231.001076 169.764308 
L 231.001076 169.764308 
L 239.157689 169.764308 
L 239.157689 169.764308 
L 231.001076 169.764308 
L 231.001076 169.764308 
L 226.836958 169.764308 
L 226.836958 169.764308 
L 239.961607 169.764308 
L 239.961607 169.764308 
z
" style="fill: #808080"/>
   </g>
   <g id="text_28">
    <g id="patch_22">
     <path d="M 224.267128 184.738058 
L 267.613378 184.738058 
L 267.613378 115.055558 
L 224.267128 115.055558 
L 224.267128 184.738058 
z
" style="fill: none"/>
    </g>
    <path d="M 235.052284 169.764308 
L 230.888166 169.764308 
L 230.888166 169.764308 
L 225.536235 169.764308 
L 225.536235 169.764308 
L 240.399698 169.764308 
L 240.399698 169.764308 
L 235.052284 169.764308 
L 235.052284 169.764308 
z
" style="fill: #808080"/>
   </g>
   <g id="text_29">
    <g id="patch_23">
     <path d="M 224.267128 184.738058 
L 267.613378 184.738058 
L 267.613378 115.055558 
L 224.267128 115.055558 
L 224.267128 184.738058 
z
" style="fill: none"/>
    </g>
    <path d="M 224.380038 169.764308 
L 228.869336 169.764308 
L 232.961192 169.764308 
L 237.066597 169.764308 
L 241.555895 169.764308 
L 235.052284 169.764308 
L 235.052284 169.764308 
L 230.888166 169.764308 
L 230.888166 169.764308 
L 224.380038 169.764308 
z
" style="fill: #808080"/>
   </g>
   <g id="text_30">
    <g id="patch_24">
     <path d="M 224.267128 184.738058 
L 267.613378 184.738058 
L 267.613378 115.055558 
L 224.267128 115.055558 
L 224.267128 184.738058 
z
" style="fill: none"/>
    </g>
    <path d="M 232.961192 169.764308 
L 231.001076 169.764308 
L 234.939374 169.764308 
L 232.961192 169.764308 
z
M 230.422977 169.764308 
L 235.517473 169.764308 
L 241.203616 169.764308 
L 237.039498 169.764308 
L 235.743292 169.764308 
L 230.165542 169.764308 
L 228.896435 169.764308 
L 224.732317 169.764308 
L 230.422977 169.764308 
z
" style="fill: #808080"/>
   </g>
   <g id="text_31">
    <g id="patch_25">
     <path d="M 224.267128 184.738058 
L 267.613378 184.738058 
L 267.613378 115.055558 
L 224.267128 115.055558 
L 224.267128 184.738058 
z
" style="fill: none"/>
    </g>
    <path d="M 230.364264 169.764308 
L 230.364264 169.764308 
L 231.493363 169.764308 
Q 233.950283 169.764308 234.993571 169.764308 
Q 236.036858 169.764308 236.036858 169.764308 
Q 236.036858 169.764308 234.993571 169.764308 
Q 233.950283 169.764308 231.493363 169.764308 
L 230.364264 169.764308 
z
M 226.200146 169.764308 
L 230.662346 169.764308 
Q 235.824588 169.764308 238.096335 169.764308 
Q 240.372599 169.764308 240.372599 169.764308 
Q 240.372599 169.764308 238.096335 169.764308 
Q 235.824588 169.764308 230.662346 169.764308 
L 226.200146 169.764308 
L 226.200146 169.764308 
z
" style="fill: #808080"/>
   </g>
   <g id="text_32">
    <g id="patch_26">
     <path d="M 224.267128 183.321892 
L 267.613378 183.321892 
L 267.613378 113.639392 
L 224.267128 113.639392 
L 224.267128 183.321892 
z
" style="fill: none"/>
    </g>
    <path d="M 239.907411 167.551106 
L 235.246489 167.763296 
L 239.907411 167.977411 
L 238.832508 168.150387 
L 234.149004 167.924003 
L 234.149004 168.34742 
L 231.719183 168.34742 
L 231.719183 167.924003 
L 227.049228 168.150387 
L 225.974326 167.977411 
L 230.662346 167.763296 
L 225.974326 167.551106 
L 227.049228 167.37765 
L 231.719183 167.601628 
L 231.719183 167.17821 
L 234.149004 167.17821 
L 234.149004 167.601628 
L 238.832508 167.37765 
L 239.907411 167.551106 
z
" style="fill: #808080"/>
   </g>
   <g id="text_33">
    <g id="patch_27">
     <path d="M 224.267128 180.208414 
L 267.613378 180.208414 
L 267.613378 110.525914 
L 224.267128 110.525914 
L 224.267128 180.208414 
z
" style="fill: none"/>
    </g>
    <path d="M 239.523517 164.856348 
Q 238.534426 165.035968 237.445974 165.124984 
Q 236.362039 165.213999 235.165194 165.213999 
Q 230.901715 165.213999 228.657066 164.226881 
Q 226.412416 163.238173 226.412416 161.370436 
Q 226.412416 159.497931 228.657066 158.509222 
Q 230.901715 157.520514 235.165194 157.520514 
Q 236.362039 157.520514 237.46404 157.60953 
Q 238.566041 157.698545 239.523517 157.878166 
L 239.523517 159.507468 
Q 238.453131 159.159354 237.441458 158.998808 
Q 236.434301 158.836672 235.359399 158.836672 
Q 233.074102 158.836672 231.908871 159.475677 
Q 230.743641 160.113092 230.743641 161.370436 
Q 230.743641 162.621422 231.908871 163.260426 
Q 233.074102 163.897841 235.359399 163.897841 
Q 236.434301 163.897841 237.441458 163.737295 
Q 238.453131 163.57516 239.523517 163.227046 
L 239.523517 164.856348 
z
" style="fill: #808080"/>
   </g>
   <g id="text_34">
    <g id="patch_28">
     <path d="M 224.267128 170.27973 
L 267.613378 170.27973 
L 267.613378 100.59723 
L 224.267128 100.59723 
L 224.267128 170.27973 
z
" style="fill: none"/>
    </g>
    <path d="M 232.961192 153.82328 
L 236.67367 146.393286 
L 240.864887 146.393286 
L 235.856202 155.289485 
L 230.084247 155.289485 
L 225.071046 146.393286 
L 229.262263 146.393286 
L 232.961192 153.82328 
z
" style="fill: #808080"/>
   </g>
   <g id="text_35">
    <g id="patch_29">
     <path d="M 224.267128 159.086833 
L 267.613378 159.086833 
L 267.613378 89.404333 
L 224.267128 89.404333 
L 224.267128 159.086833 
z
" style="fill: none"/>
    </g>
    <path d="M 230.716543 135.810949 
L 230.716543 138.727749 
L 232.423741 138.727749 
Q 234.469669 138.727749 235.296169 138.402295 
Q 236.12267 138.074795 236.12267 137.268326 
Q 236.12267 136.461856 235.296169 136.136403 
Q 234.469669 135.810949 232.423741 135.810949 
L 230.716543 135.810949 
z
M 226.552425 134.159119 
L 232.270183 134.159119 
Q 236.633023 134.159119 238.543459 134.891901 
Q 240.453895 135.624683 240.453895 137.268326 
Q 240.453895 138.911968 238.543459 139.64475 
Q 236.633023 140.377532 232.270183 140.377532 
L 230.716543 140.377532 
L 230.716543 144.094661 
L 226.552425 144.094661 
L 226.552425 134.159119 
z
" style="fill: #808080"/>
   </g>
   <g id="text_36">
    <g id="patch_30">
     <path d="M 224.267128 146.804718 
L 267.613378 146.804718 
L 267.613378 77.122218 
L 224.267128 77.122218 
L 224.267128 146.804718 
z
" style="fill: none"/>
    </g>
    <path d="M 224.759415 121.515702 
L 228.191877 121.515702 
L 229.614542 129.073443 
L 231.339805 124.18838 
L 234.600644 124.18838 
L 236.587859 129.073443 
L 237.716958 121.515702 
L 241.176518 121.515702 
L 238.891221 131.811877 
L 235.21939 131.811877 
L 232.961192 126.409249 
L 230.843002 131.811877 
L 227.216335 131.811877 
L 224.759415 121.515702 
z
" style="fill: #808080"/>
   </g>
   <g id="text_37">
    <g id="patch_31">
     <path d="M 224.267128 133.725238 
L 267.613378 133.725238 
L 267.613378 64.042738 
L 224.267128 64.042738 
L 224.267128 133.725238 
z
" style="fill: none"/>
    </g>
    <path d="M 225.947227 98.548652 
L 230.422977 98.548652 
L 236.294293 113.209522 
L 236.294293 98.548652 
L 239.961607 98.548652 
L 239.961607 118.714099 
L 235.517473 118.714099 
L 229.614542 104.053229 
L 229.614542 118.714099 
L 225.947227 118.714099 
L 225.947227 98.548652 
z
" style="fill: #808080"/>
   </g>
   <g id="text_38">
    <g id="patch_32">
     <path d="M 257.796859 184.738058 
L 301.143109 184.738058 
L 301.143109 115.055558 
L 257.796859 115.055558 
L 257.796859 184.738058 
z
" style="fill: none"/>
    </g>
    <path d="M 259.44986 169.764308 
L 263.613978 169.764308 
L 263.613978 169.764308 
L 270.131139 169.764308 
L 274.846258 169.764308 
L 268.198121 169.764308 
L 275.085627 169.764308 
L 270.45632 169.764308 
L 265.461185 169.764308 
L 263.613978 169.764308 
L 263.613978 169.764308 
L 259.44986 169.764308 
L 259.44986 169.764308 
z
" style="fill: #808080"/>
   </g>
   <g id="text_39">
    <g id="patch_33">
     <path d="M 257.796859 184.738058 
L 301.143109 184.738058 
L 301.143109 115.055558 
L 257.796859 115.055558 
L 257.796859 184.738058 
z
" style="fill: none"/>
    </g>
    <path d="M 260.971886 169.764308 
L 260.971886 169.764308 
L 265.136004 169.764308 
L 265.136004 169.764308 
L 274.042339 169.764308 
L 274.042339 169.764308 
L 260.971886 169.764308 
z
" style="fill: #808080"/>
   </g>
   <g id="text_40">
    <g id="patch_34">
     <path d="M 257.796859 184.738058 
L 301.143109 184.738058 
L 301.143109 115.055558 
L 257.796859 115.055558 
L 257.796859 184.738058 
z
" style="fill: none"/>
    </g>
    <path d="M 259.476959 169.764308 
L 263.952708 169.764308 
L 269.824024 169.764308 
L 269.824024 169.764308 
L 273.491339 169.764308 
L 273.491339 169.764308 
L 269.047204 169.764308 
L 263.144273 169.764308 
L 263.144273 169.764308 
L 259.476959 169.764308 
L 259.476959 169.764308 
z
" style="fill: #808080"/>
   </g>
   <g id="text_41">
    <g id="patch_35">
     <path d="M 257.796859 184.738058 
L 301.143109 184.738058 
L 301.143109 115.055558 
L 257.796859 115.055558 
L 257.796859 184.738058 
z
" style="fill: none"/>
    </g>
    <path d="M 264.995996 169.764308 
Q 261.848067 169.764308 260.732517 169.764308 
Q 259.616967 169.764308 259.616967 169.764308 
Q 259.616967 169.764308 261.450624 169.764308 
Q 263.288798 169.764308 266.490923 169.764308 
Q 267.945203 169.764308 269.399483 169.764308 
Q 270.853763 169.764308 272.276428 169.764308 
L 272.276428 169.764308 
Q 270.935058 169.764308 269.553041 169.764308 
Q 268.171023 169.764308 266.816104 169.764308 
Q 265.307627 169.764308 264.499192 169.764308 
Q 263.695274 169.764308 263.695274 169.764308 
Q 263.695274 169.764308 264.282405 169.764308 
Q 264.869537 169.764308 266.730292 169.764308 
L 268.523302 169.764308 
Q 271.066034 169.764308 272.262879 169.764308 
Q 273.46424 169.764308 273.46424 169.764308 
Q 273.46424 169.764308 271.576386 169.764308 
Q 269.693049 169.764308 265.885726 169.764308 
Q 264.318536 169.764308 262.742314 169.764308 
Q 261.170608 169.764308 259.702779 169.764308 
L 259.702779 169.764308 
Q 261.369329 169.764308 262.927486 169.764308 
Q 264.485643 169.764308 266.012185 169.764308 
Q 267.54776 169.764308 268.392326 169.764308 
Q 269.241409 169.764308 269.241409 169.764308 
Q 269.241409 169.764308 268.67686 169.764308 
Q 268.11231 169.764308 267.041924 169.764308 
L 264.995996 169.764308 
z
" style="fill: #808080"/>
   </g>
   <g id="text_42">
    <g id="patch_36">
     <path d="M 257.796859 184.738058 
L 301.143109 184.738058 
L 301.143109 115.055558 
L 257.796859 115.055558 
L 257.796859 184.738058 
z
" style="fill: none"/>
    </g>
    <path d="M 273.437142 169.764308 
L 268.77622 169.764308 
L 273.437142 169.764308 
L 272.362239 169.764308 
L 267.678736 169.764308 
L 267.678736 169.764308 
L 265.248914 169.764308 
L 265.248914 169.764308 
L 260.57896 169.764308 
L 259.504057 169.764308 
L 264.192077 169.764308 
L 259.504057 169.764308 
L 260.57896 169.764308 
L 265.248914 169.764308 
L 265.248914 169.764308 
L 267.678736 169.764308 
L 267.678736 169.764308 
L 272.362239 169.764308 
L 273.437142 169.764308 
z
" style="fill: #808080"/>
   </g>
   <g id="text_43">
    <g id="patch_37">
     <path d="M 257.796859 184.738058 
L 301.143109 184.738058 
L 301.143109 115.055558 
L 257.796859 115.055558 
L 257.796859 184.738058 
z
" style="fill: none"/>
    </g>
    <path d="M 258.289146 169.764308 
L 261.721608 169.764308 
L 263.144273 169.764308 
L 264.869537 169.764308 
L 268.130375 169.764308 
L 270.11759 169.764308 
L 271.246689 169.764308 
L 274.70625 169.764308 
L 272.420953 169.764308 
L 268.749122 169.764308 
L 266.490923 169.764308 
L 264.372733 169.764308 
L 260.746066 169.764308 
L 258.289146 169.764308 
z
" style="fill: #808080"/>
   </g>
   <g id="text_44">
    <g id="patch_38">
     <path d="M 257.796859 184.738058 
L 301.143109 184.738058 
L 301.143109 115.055558 
L 257.796859 115.055558 
L 257.796859 184.738058 
z
" style="fill: none"/>
    </g>
    <path d="M 270.104041 169.764308 
L 270.104041 169.764308 
L 267.254194 169.764308 
L 267.254194 169.764308 
L 273.744257 169.764308 
L 273.744257 169.764308 
Q 272.547412 169.764308 271.097648 169.764308 
Q 269.652401 169.764308 267.9994 169.764308 
Q 263.907544 169.764308 261.676444 169.764308 
Q 259.44986 169.764308 259.44986 169.764308 
Q 259.44986 169.764308 261.699026 169.764308 
Q 263.952708 169.764308 268.198121 169.764308 
Q 269.467229 169.764308 270.695689 169.764308 
Q 271.924149 169.764308 272.999051 169.764308 
L 272.999051 169.764308 
Q 272.12287 169.764308 270.984738 169.764308 
Q 269.851123 169.764308 268.496204 169.764308 
Q 266.125095 169.764308 264.950832 169.764308 
Q 263.781085 169.764308 263.781085 169.764308 
Q 263.781085 169.764308 264.910184 169.764308 
Q 266.039284 169.764308 268.198121 169.764308 
Q 268.848483 169.764308 269.327221 169.764308 
Q 269.805959 169.764308 270.104041 169.764308 
z
" style="fill: #808080"/>
   </g>
   <g id="text_45">
    <g id="patch_39">
     <path d="M 257.796859 184.738058 
L 301.143109 184.738058 
L 301.143109 115.055558 
L 257.796859 115.055558 
L 257.796859 184.738058 
z
" style="fill: none"/>
    </g>
    <path d="M 259.729877 169.764308 
L 263.893995 169.764308 
L 263.893995 169.764308 
L 269.101401 169.764308 
L 269.101401 169.764308 
L 273.265519 169.764308 
L 273.265519 169.764308 
L 269.101401 169.764308 
L 269.101401 169.764308 
L 263.893995 169.764308 
L 263.893995 169.764308 
L 259.729877 169.764308 
L 259.729877 169.764308 
z
" style="fill: #808080"/>
   </g>
   <g id="text_46">
    <g id="patch_40">
     <path d="M 257.796859 184.738058 
L 301.143109 184.738058 
L 301.143109 115.055558 
L 257.796859 115.055558 
L 257.796859 184.738058 
z
" style="fill: none"/>
    </g>
    <path d="M 267.055473 169.764308 
Q 266.856752 169.764308 266.72126 169.764308 
Q 266.590284 169.764308 266.463825 169.764308 
Q 262.837158 169.764308 260.96737 169.764308 
Q 259.097581 169.764308 259.097581 169.764308 
Q 259.097581 169.764308 260.96737 169.764308 
Q 262.837158 169.764308 266.490923 169.764308 
Q 270.162754 169.764308 272.032542 169.764308 
Q 273.902331 169.764308 273.902331 169.764308 
Q 273.902331 169.764308 273.012601 169.764308 
Q 272.12287 169.764308 270.429222 169.764308 
L 273.053248 169.764308 
L 270.203402 169.764308 
L 267.055473 169.764308 
z
M 266.490923 169.764308 
Q 264.896635 169.764308 264.160462 169.764308 
Q 263.428806 169.764308 263.428806 169.764308 
Q 263.428806 169.764308 264.160462 169.764308 
Q 264.896635 169.764308 266.490923 169.764308 
Q 268.098761 169.764308 268.830417 169.764308 
Q 269.56659 169.764308 269.56659 169.764308 
Q 269.56659 169.764308 268.830417 169.764308 
Q 268.098761 169.764308 266.490923 169.764308 
z
" style="fill: #808080"/>
   </g>
   <g id="text_47">
    <g id="patch_41">
     <path d="M 257.796859 184.738058 
L 301.143109 184.738058 
L 301.143109 115.055558 
L 257.796859 115.055558 
L 257.796859 184.738058 
z
" style="fill: none"/>
    </g>
    <path d="M 273.292617 169.764308 
L 260.167968 169.764308 
L 260.167968 169.764308 
L 273.292617 169.764308 
L 273.292617 169.764308 
L 264.332086 169.764308 
L 264.332086 169.764308 
L 272.448051 169.764308 
L 272.448051 169.764308 
L 264.332086 169.764308 
L 264.332086 169.764308 
L 273.292617 169.764308 
L 273.292617 169.764308 
z
" style="fill: #808080"/>
   </g>
   <g id="text_48">
    <g id="patch_42">
     <path d="M 257.796859 184.738058 
L 301.143109 184.738058 
L 301.143109 115.055558 
L 257.796859 115.055558 
L 257.796859 184.738058 
z
" style="fill: none"/>
    </g>
    <path d="M 259.01177 169.764308 
L 263.979807 169.764308 
L 266.490923 169.764308 
L 268.988491 169.764308 
L 273.983626 169.764308 
L 273.983626 169.764308 
L 270.402123 169.764308 
L 270.402123 169.764308 
L 268.171023 169.764308 
L 264.855988 169.764308 
L 262.597789 169.764308 
L 262.597789 169.764308 
L 259.01177 169.764308 
L 259.01177 169.764308 
z
" style="fill: #808080"/>
   </g>
   <g id="text_49">
    <g id="patch_43">
     <path d="M 257.796859 184.738058 
L 301.143109 184.738058 
L 301.143109 115.055558 
L 257.796859 115.055558 
L 257.796859 184.738058 
z
" style="fill: none"/>
    </g>
    <path d="M 269.187212 169.764308 
Q 269.805959 169.764308 270.266631 169.764308 
Q 270.727304 169.764308 271.386698 169.764308 
L 275.198537 169.764308 
L 270.627943 169.764308 
L 268.085211 169.764308 
Q 267.972302 169.764308 267.791646 169.764308 
Q 266.676096 169.764308 265.163103 169.764308 
L 263.839798 169.764308 
L 263.839798 169.764308 
L 259.67568 169.764308 
L 259.67568 169.764308 
L 265.687005 169.764308 
Q 269.751762 169.764308 271.52219 169.764308 
Q 273.292617 169.764308 273.292617 169.764308 
Q 273.292617 169.764308 272.23578 169.764308 
Q 271.178943 169.764308 269.187212 169.764308 
z
M 263.839798 169.764308 
L 263.839798 169.764308 
L 265.799915 169.764308 
Q 267.507113 169.764308 268.247802 169.764308 
Q 268.988491 169.764308 268.988491 169.764308 
Q 268.988491 169.764308 268.252318 169.764308 
Q 267.520662 169.764308 265.799915 169.764308 
L 263.839798 169.764308 
z
" style="fill: #808080"/>
   </g>
   <g id="text_50">
    <g id="patch_44">
     <path d="M 257.796859 184.738058 
L 301.143109 184.738058 
L 301.143109 115.055558 
L 257.796859 115.055558 
L 257.796859 184.738058 
z
" style="fill: none"/>
    </g>
    <path d="M 260.226681 169.764308 
L 260.226681 169.764308 
L 272.773232 169.764308 
L 272.773232 169.764308 
L 268.582015 169.764308 
L 268.582015 169.764308 
L 272.773232 169.764308 
L 272.773232 169.764308 
L 260.226681 169.764308 
L 260.226681 169.764308 
L 264.417897 169.764308 
L 264.417897 169.764308 
L 260.226681 169.764308 
z
" style="fill: #808080"/>
   </g>
   <g id="text_51">
    <g id="patch_45">
     <path d="M 257.796859 184.738058 
L 301.143109 184.738058 
L 301.143109 115.055558 
L 257.796859 115.055558 
L 257.796859 184.738058 
z
" style="fill: none"/>
    </g>
    <path d="M 273.491339 169.764308 
L 264.530807 169.764308 
L 264.530807 169.764308 
L 272.68742 169.764308 
L 272.68742 169.764308 
L 264.530807 169.764308 
L 264.530807 169.764308 
L 260.366689 169.764308 
L 260.366689 169.764308 
L 273.491339 169.764308 
L 273.491339 169.764308 
z
" style="fill: #808080"/>
   </g>
   <g id="text_52">
    <g id="patch_46">
     <path d="M 257.796859 184.738058 
L 301.143109 184.738058 
L 301.143109 115.055558 
L 257.796859 115.055558 
L 257.796859 184.738058 
z
" style="fill: none"/>
    </g>
    <path d="M 268.582015 169.764308 
L 264.417897 169.764308 
L 264.417897 169.764308 
L 259.065967 169.764308 
L 259.065967 169.764308 
L 273.929429 169.764308 
L 273.929429 169.764308 
L 268.582015 169.764308 
L 268.582015 169.764308 
z
" style="fill: #808080"/>
   </g>
   <g id="text_53">
    <g id="patch_47">
     <path d="M 257.796859 184.738058 
L 301.143109 184.738058 
L 301.143109 115.055558 
L 257.796859 115.055558 
L 257.796859 184.738058 
z
" style="fill: none"/>
    </g>
    <path d="M 257.909769 169.764308 
L 262.399068 169.764308 
L 266.490923 169.764308 
L 270.596328 169.764308 
L 275.085627 169.764308 
L 268.582015 169.764308 
L 268.582015 169.764308 
L 264.417897 169.764308 
L 264.417897 169.764308 
L 257.909769 169.764308 
z
" style="fill: #808080"/>
   </g>
   <g id="text_54">
    <g id="patch_48">
     <path d="M 257.796859 184.738058 
L 301.143109 184.738058 
L 301.143109 115.055558 
L 257.796859 115.055558 
L 257.796859 184.738058 
z
" style="fill: none"/>
    </g>
    <path d="M 266.490923 169.764308 
L 264.530807 169.764308 
L 268.469105 169.764308 
L 266.490923 169.764308 
z
M 263.952708 169.764308 
L 269.047204 169.764308 
L 274.733348 169.764308 
L 270.56923 169.764308 
L 269.273024 169.764308 
L 263.695274 169.764308 
L 262.426166 169.764308 
L 258.262048 169.764308 
L 263.952708 169.764308 
z
" style="fill: #808080"/>
   </g>
   <g id="text_55">
    <g id="patch_49">
     <path d="M 257.796859 184.738058 
L 301.143109 184.738058 
L 301.143109 115.055558 
L 257.796859 115.055558 
L 257.796859 184.738058 
z
" style="fill: none"/>
    </g>
    <path d="M 263.893995 169.764308 
L 263.893995 169.764308 
L 265.023094 169.764308 
Q 267.480014 169.764308 268.523302 169.764308 
Q 269.56659 169.764308 269.56659 169.764308 
Q 269.56659 169.764308 268.523302 169.764308 
Q 267.480014 169.764308 265.023094 169.764308 
L 263.893995 169.764308 
z
M 259.729877 169.764308 
L 264.192077 169.764308 
Q 269.354319 169.764308 271.626067 169.764308 
Q 273.902331 169.764308 273.902331 169.764308 
Q 273.902331 169.764308 271.626067 169.764308 
Q 269.354319 169.764308 264.192077 169.764308 
L 259.729877 169.764308 
L 259.729877 169.764308 
z
" style="fill: #808080"/>
   </g>
   <g id="text_56">
    <g id="patch_50">
     <path d="M 257.796859 184.56286 
L 301.143109 184.56286 
L 301.143109 114.88036 
L 257.796859 114.88036 
L 257.796859 184.56286 
z
" style="fill: none"/>
    </g>
    <path d="M 266.490923 169.565032 
L 270.203402 169.444374 
L 274.394618 169.444374 
L 269.385934 169.588842 
L 263.613978 169.588842 
L 258.600778 169.444374 
L 262.791994 169.444374 
L 266.490923 169.565032 
z
" style="fill: #808080"/>
   </g>
   <g id="text_57">
    <g id="patch_51">
     <path d="M 257.796859 183.371797 
L 301.143109 183.371797 
L 301.143109 113.689297 
L 257.796859 113.689297 
L 257.796859 183.371797 
z
" style="fill: none"/>
    </g>
    <path d="M 273.053248 168.355925 
Q 272.064157 168.375924 270.975706 168.385835 
Q 269.89177 168.395747 268.694925 168.395747 
Q 264.431446 168.395747 262.186797 168.285839 
Q 259.942148 168.175755 259.942148 167.967799 
Q 259.942148 167.759311 262.186797 167.649227 
Q 264.431446 167.539143 268.694925 167.539143 
Q 269.89177 167.539143 270.993771 167.549054 
Q 272.095772 167.558965 273.053248 167.578964 
L 273.053248 167.760373 
Q 271.982862 167.721614 270.971189 167.703738 
Q 269.964033 167.685686 268.88913 167.685686 
Q 266.603833 167.685686 265.438603 167.756834 
Q 264.273372 167.827804 264.273372 167.967799 
Q 264.273372 168.107085 265.438603 168.178233 
Q 266.603833 168.249204 268.88913 168.249204 
Q 269.964033 168.249204 270.971189 168.231328 
Q 271.982862 168.213276 273.053248 168.174516 
L 273.053248 168.355925 
z
" style="fill: #808080"/>
   </g>
   <g id="text_58">
    <g id="patch_52">
     <path d="M 257.796859 177.758759 
L 301.143109 177.758759 
L 301.143109 108.076259 
L 257.796859 108.076259 
L 257.796859 177.758759 
z
" style="fill: none"/>
    </g>
    <path d="M 264.246274 101.623884 
L 264.246274 123.111705 
L 265.953472 123.111705 
Q 267.9994 123.111705 268.825901 120.714117 
Q 269.652401 118.301449 269.652401 112.360255 
Q 269.652401 106.419061 268.825901 104.021472 
Q 267.9994 101.623884 265.953472 101.623884 
L 264.246274 101.623884 
z
M 260.082156 89.454991 
L 265.799915 89.454991 
Q 270.162754 89.454991 272.07319 94.853335 
Q 273.983626 100.251679 273.983626 112.360255 
Q 273.983626 124.468831 272.07319 129.867175 
Q 270.162754 135.265519 265.799915 135.265519 
L 264.246274 135.265519 
L 264.246274 162.649297 
L 260.082156 162.649297 
L 260.082156 89.454991 
z
" style="fill: #808080"/>
   </g>
   <g id="text_59">
    <g id="patch_53">
     <path d="M 291.326591 184.738058 
L 334.672841 184.738058 
L 334.672841 115.055558 
L 291.326591 115.055558 
L 291.326591 184.738058 
z
" style="fill: none"/>
    </g>
    <path d="M 292.979592 169.764308 
L 297.14371 169.764308 
L 297.14371 169.764308 
L 303.660871 169.764308 
L 308.375989 169.764308 
L 301.727853 169.764308 
L 308.615358 169.764308 
L 303.986051 169.764308 
L 298.990916 169.764308 
L 297.14371 169.764308 
L 297.14371 169.764308 
L 292.979592 169.764308 
L 292.979592 169.764308 
z
" style="fill: #808080"/>
   </g>
   <g id="text_60">
    <g id="patch_54">
     <path d="M 291.326591 184.738058 
L 334.672841 184.738058 
L 334.672841 115.055558 
L 291.326591 115.055558 
L 291.326591 184.738058 
z
" style="fill: none"/>
    </g>
    <path d="M 294.501618 169.764308 
L 294.501618 169.764308 
L 298.665736 169.764308 
L 298.665736 169.764308 
L 307.572071 169.764308 
L 307.572071 169.764308 
L 294.501618 169.764308 
z
" style="fill: #808080"/>
   </g>
   <g id="text_61">
    <g id="patch_55">
     <path d="M 291.326591 184.738058 
L 334.672841 184.738058 
L 334.672841 115.055558 
L 291.326591 115.055558 
L 291.326591 184.738058 
z
" style="fill: none"/>
    </g>
    <path d="M 293.00669 169.764308 
L 297.48244 169.764308 
L 303.353756 169.764308 
L 303.353756 169.764308 
L 307.02107 169.764308 
L 307.02107 169.764308 
L 302.576935 169.764308 
L 296.674005 169.764308 
L 296.674005 169.764308 
L 293.00669 169.764308 
L 293.00669 169.764308 
z
" style="fill: #808080"/>
   </g>
   <g id="text_62">
    <g id="patch_56">
     <path d="M 291.326591 184.738058 
L 334.672841 184.738058 
L 334.672841 115.055558 
L 291.326591 115.055558 
L 291.326591 184.738058 
z
" style="fill: none"/>
    </g>
    <path d="M 297.776005 169.764308 
L 297.776005 169.764308 
L 299.483204 169.764308 
Q 301.529131 169.764308 302.355632 169.764308 
Q 303.182133 169.764308 303.182133 169.764308 
Q 303.182133 169.764308 302.355632 169.764308 
Q 301.529131 169.764308 299.483204 169.764308 
L 297.776005 169.764308 
z
M 293.611887 169.764308 
L 299.329646 169.764308 
Q 303.692486 169.764308 305.602921 169.764308 
Q 307.513357 169.764308 307.513357 169.764308 
Q 307.513357 169.764308 305.602921 169.764308 
Q 303.692486 169.764308 299.329646 169.764308 
L 297.776005 169.764308 
L 297.776005 169.764308 
L 293.611887 169.764308 
L 293.611887 169.764308 
z
" style="fill: #808080"/>
   </g>
   <g id="text_63">
    <g id="patch_57">
     <path d="M 291.326591 184.738058 
L 334.672841 184.738058 
L 334.672841 115.055558 
L 291.326591 115.055558 
L 291.326591 184.738058 
z
" style="fill: none"/>
    </g>
    <path d="M 306.966873 169.764308 
L 302.305952 169.764308 
L 306.966873 169.764308 
L 305.891971 169.764308 
L 301.208467 169.764308 
L 301.208467 169.764308 
L 298.778646 169.764308 
L 298.778646 169.764308 
L 294.108691 169.764308 
L 293.033789 169.764308 
L 297.721809 169.764308 
L 293.033789 169.764308 
L 294.108691 169.764308 
L 298.778646 169.764308 
L 298.778646 169.764308 
L 301.208467 169.764308 
L 301.208467 169.764308 
L 305.891971 169.764308 
L 306.966873 169.764308 
z
" style="fill: #808080"/>
   </g>
   <g id="text_64">
    <g id="patch_58">
     <path d="M 291.326591 184.738058 
L 334.672841 184.738058 
L 334.672841 115.055558 
L 291.326591 115.055558 
L 291.326591 184.738058 
z
" style="fill: none"/>
    </g>
    <path d="M 300.020655 169.764308 
L 303.733133 169.764308 
L 307.92435 169.764308 
L 302.915665 169.764308 
L 297.14371 169.764308 
L 292.130509 169.764308 
L 296.321726 169.764308 
L 300.020655 169.764308 
z
" style="fill: #808080"/>
   </g>
   <g id="text_65">
    <g id="patch_59">
     <path d="M 291.326591 184.738058 
L 334.672841 184.738058 
L 334.672841 115.055558 
L 291.326591 115.055558 
L 291.326591 184.738058 
z
" style="fill: none"/>
    </g>
    <path d="M 291.818878 169.764308 
L 295.25134 169.764308 
L 296.674005 169.764308 
L 298.399268 169.764308 
L 301.660107 169.764308 
L 303.647322 169.764308 
L 304.776421 169.764308 
L 308.235981 169.764308 
L 305.950684 169.764308 
L 302.278853 169.764308 
L 300.020655 169.764308 
L 297.902465 169.764308 
L 294.275798 169.764308 
L 291.818878 169.764308 
z
" style="fill: #808080"/>
   </g>
   <g id="text_66">
    <g id="patch_60">
     <path d="M 291.326591 184.738058 
L 334.672841 184.738058 
L 334.672841 115.055558 
L 291.326591 115.055558 
L 291.326591 184.738058 
z
" style="fill: none"/>
    </g>
    <path d="M 303.633772 169.764308 
L 303.633772 169.764308 
L 300.783926 169.764308 
L 300.783926 169.764308 
L 307.273988 169.764308 
L 307.273988 169.764308 
Q 306.077143 169.764308 304.62738 169.764308 
Q 303.182133 169.764308 301.529131 169.764308 
Q 297.437276 169.764308 295.206176 169.764308 
Q 292.979592 169.764308 292.979592 169.764308 
Q 292.979592 169.764308 295.228758 169.764308 
Q 297.48244 169.764308 301.727853 169.764308 
Q 302.99696 169.764308 304.22542 169.764308 
Q 305.45388 169.764308 306.528783 169.764308 
L 306.528783 169.764308 
Q 305.652602 169.764308 304.51447 169.764308 
Q 303.380854 169.764308 302.025935 169.764308 
Q 299.654827 169.764308 298.480563 169.764308 
Q 297.310817 169.764308 297.310817 169.764308 
Q 297.310817 169.764308 298.439916 169.764308 
Q 299.569015 169.764308 301.727853 169.764308 
Q 302.378214 169.764308 302.856952 169.764308 
Q 303.33569 169.764308 303.633772 169.764308 
z
" style="fill: #808080"/>
   </g>
   <g id="text_67">
    <g id="patch_61">
     <path d="M 291.326591 184.738058 
L 334.672841 184.738058 
L 334.672841 115.055558 
L 291.326591 115.055558 
L 291.326591 184.738058 
z
" style="fill: none"/>
    </g>
    <path d="M 293.259608 169.764308 
L 297.423726 169.764308 
L 297.423726 169.764308 
L 302.631132 169.764308 
L 302.631132 169.764308 
L 306.79525 169.764308 
L 306.79525 169.764308 
L 302.631132 169.764308 
L 302.631132 169.764308 
L 297.423726 169.764308 
L 297.423726 169.764308 
L 293.259608 169.764308 
L 293.259608 169.764308 
z
" style="fill: #808080"/>
   </g>
   <g id="text_68">
    <g id="patch_62">
     <path d="M 291.326591 184.738058 
L 334.672841 184.738058 
L 334.672841 115.055558 
L 291.326591 115.055558 
L 291.326591 184.738058 
z
" style="fill: none"/>
    </g>
    <path d="M 300.585204 169.764308 
Q 300.386483 169.764308 300.250991 169.764308 
Q 300.120016 169.764308 299.993556 169.764308 
Q 296.36689 169.764308 294.497101 169.764308 
Q 292.627313 169.764308 292.627313 169.764308 
Q 292.627313 169.764308 294.497101 169.764308 
Q 296.36689 169.764308 300.020655 169.764308 
Q 303.692486 169.764308 305.562274 169.764308 
Q 307.432062 169.764308 307.432062 169.764308 
Q 307.432062 169.764308 306.542332 169.764308 
Q 305.652602 169.764308 303.958953 169.764308 
L 306.58298 169.764308 
L 303.733133 169.764308 
L 300.585204 169.764308 
z
M 300.020655 169.764308 
Q 298.426367 169.764308 297.690194 169.764308 
Q 296.958538 169.764308 296.958538 169.764308 
Q 296.958538 169.764308 297.690194 169.764308 
Q 298.426367 169.764308 300.020655 169.764308 
Q 301.628492 169.764308 302.360148 169.764308 
Q 303.096321 169.764308 303.096321 169.764308 
Q 303.096321 169.764308 302.360148 169.764308 
Q 301.628492 169.764308 300.020655 169.764308 
z
" style="fill: #808080"/>
   </g>
   <g id="text_69">
    <g id="patch_63">
     <path d="M 291.326591 184.738058 
L 334.672841 184.738058 
L 334.672841 115.055558 
L 291.326591 115.055558 
L 291.326591 184.738058 
z
" style="fill: none"/>
    </g>
    <path d="M 306.822349 169.764308 
L 293.697699 169.764308 
L 293.697699 169.764308 
L 306.822349 169.764308 
L 306.822349 169.764308 
L 297.861817 169.764308 
L 297.861817 169.764308 
L 305.977782 169.764308 
L 305.977782 169.764308 
L 297.861817 169.764308 
L 297.861817 169.764308 
L 306.822349 169.764308 
L 306.822349 169.764308 
z
" style="fill: #808080"/>
   </g>
   <g id="text_70">
    <g id="patch_64">
     <path d="M 291.326591 184.738058 
L 334.672841 184.738058 
L 334.672841 115.055558 
L 291.326591 115.055558 
L 291.326591 184.738058 
z
" style="fill: none"/>
    </g>
    <path d="M 292.541501 169.764308 
L 297.509538 169.764308 
L 300.020655 169.764308 
L 302.518222 169.764308 
L 307.513357 169.764308 
L 307.513357 169.764308 
L 303.931855 169.764308 
L 303.931855 169.764308 
L 301.700754 169.764308 
L 298.385719 169.764308 
L 296.127521 169.764308 
L 296.127521 169.764308 
L 292.541501 169.764308 
L 292.541501 169.764308 
z
" style="fill: #808080"/>
   </g>
   <g id="text_71">
    <g id="patch_65">
     <path d="M 291.326591 184.738058 
L 334.672841 184.738058 
L 334.672841 115.055558 
L 291.326591 115.055558 
L 291.326591 184.738058 
z
" style="fill: none"/>
    </g>
    <path d="M 302.716944 169.764308 
Q 303.33569 169.764308 303.796363 169.764308 
Q 304.257035 169.764308 304.916429 169.764308 
L 308.728268 169.764308 
L 304.157674 169.764308 
L 301.614943 169.764308 
Q 301.502033 169.764308 301.321377 169.764308 
Q 300.205827 169.764308 298.692834 169.764308 
L 297.36953 169.764308 
L 297.36953 169.764308 
L 293.205412 169.764308 
L 293.205412 169.764308 
L 299.216736 169.764308 
Q 303.281493 169.764308 305.051921 169.764308 
Q 306.822349 169.764308 306.822349 169.764308 
Q 306.822349 169.764308 305.765512 169.764308 
Q 304.708675 169.764308 302.716944 169.764308 
z
M 297.36953 169.764308 
L 297.36953 169.764308 
L 299.329646 169.764308 
Q 301.036844 169.764308 301.777533 169.764308 
Q 302.518222 169.764308 302.518222 169.764308 
Q 302.518222 169.764308 301.78205 169.764308 
Q 301.050393 169.764308 299.329646 169.764308 
L 297.36953 169.764308 
z
" style="fill: #808080"/>
   </g>
   <g id="text_72">
    <g id="patch_66">
     <path d="M 291.326591 184.738058 
L 334.672841 184.738058 
L 334.672841 115.055558 
L 291.326591 115.055558 
L 291.326591 184.738058 
z
" style="fill: none"/>
    </g>
    <path d="M 307.02107 169.764308 
L 298.060538 169.764308 
L 298.060538 169.764308 
L 306.217151 169.764308 
L 306.217151 169.764308 
L 298.060538 169.764308 
L 298.060538 169.764308 
L 293.89642 169.764308 
L 293.89642 169.764308 
L 307.02107 169.764308 
L 307.02107 169.764308 
z
" style="fill: #808080"/>
   </g>
   <g id="text_73">
    <g id="patch_67">
     <path d="M 291.326591 184.738058 
L 334.672841 184.738058 
L 334.672841 115.055558 
L 291.326591 115.055558 
L 291.326591 184.738058 
z
" style="fill: none"/>
    </g>
    <path d="M 302.111747 169.764308 
L 297.947629 169.764308 
L 297.947629 169.764308 
L 292.595698 169.764308 
L 292.595698 169.764308 
L 307.459161 169.764308 
L 307.459161 169.764308 
L 302.111747 169.764308 
L 302.111747 169.764308 
z
" style="fill: #808080"/>
   </g>
   <g id="text_74">
    <g id="patch_68">
     <path d="M 291.326591 184.738058 
L 334.672841 184.738058 
L 334.672841 115.055558 
L 291.326591 115.055558 
L 291.326591 184.738058 
z
" style="fill: none"/>
    </g>
    <path d="M 291.4395 169.764308 
L 295.928799 169.764308 
L 300.020655 169.764308 
L 304.12606 169.764308 
L 308.615358 169.764308 
L 302.111747 169.764308 
L 302.111747 169.764308 
L 297.947629 169.764308 
L 297.947629 169.764308 
L 291.4395 169.764308 
z
" style="fill: #808080"/>
   </g>
   <g id="text_75">
    <g id="patch_69">
     <path d="M 291.326591 184.738058 
L 334.672841 184.738058 
L 334.672841 115.055558 
L 291.326591 115.055558 
L 291.326591 184.738058 
z
" style="fill: none"/>
    </g>
    <path d="M 300.020655 169.764308 
L 298.060538 169.764308 
L 301.998837 169.764308 
L 300.020655 169.764308 
z
M 297.48244 169.764308 
L 302.576935 169.764308 
L 308.263079 169.764308 
L 304.098961 169.764308 
L 302.802755 169.764308 
L 297.225005 169.764308 
L 295.955897 169.764308 
L 291.791779 169.764308 
L 297.48244 169.764308 
z
" style="fill: #808080"/>
   </g>
   <g id="text_76">
    <g id="patch_70">
     <path d="M 291.326591 184.738058 
L 334.672841 184.738058 
L 334.672841 115.055558 
L 291.326591 115.055558 
L 291.326591 184.738058 
z
" style="fill: none"/>
    </g>
    <path d="M 297.423726 169.764308 
L 297.423726 169.764308 
L 298.552826 169.764308 
Q 301.009746 169.764308 302.053033 169.764308 
Q 303.096321 169.764308 303.096321 169.764308 
Q 303.096321 169.764308 302.053033 169.764308 
Q 301.009746 169.764308 298.552826 169.764308 
L 297.423726 169.764308 
z
M 293.259608 169.764308 
L 297.721809 169.764308 
Q 302.88405 169.764308 305.155798 169.764308 
Q 307.432062 169.764308 307.432062 169.764308 
Q 307.432062 169.764308 305.155798 169.764308 
Q 302.88405 169.764308 297.721809 169.764308 
L 293.259608 169.764308 
L 293.259608 169.764308 
z
" style="fill: #808080"/>
   </g>
   <g id="text_77">
    <g id="patch_71">
     <path d="M 291.326591 184.670634 
L 334.672841 184.670634 
L 334.672841 114.988134 
L 291.326591 114.988134 
L 291.326591 184.670634 
z
" style="fill: none"/>
    </g>
    <path d="M 293.756412 169.650885 
L 293.756412 169.641183 
L 306.302963 169.641183 
L 306.302963 169.650885 
L 302.111747 169.650885 
L 302.111747 169.687079 
L 306.302963 169.687079 
L 306.302963 169.696781 
L 293.756412 169.696781 
L 293.756412 169.687079 
L 297.947629 169.687079 
L 297.947629 169.650885 
L 293.756412 169.650885 
z
" style="fill: #808080"/>
   </g>
   <g id="text_78">
    <g id="patch_72">
     <path d="M 291.326591 181.690625 
L 334.672841 181.690625 
L 334.672841 112.008125 
L 291.326591 112.008125 
L 291.326591 181.690625 
z
" style="fill: none"/>
    </g>
    <path d="M 298.525727 152.849943 
Q 295.377799 151.134313 294.262249 149.25099 
Q 293.146699 147.367667 293.146699 144.181498 
Q 293.146699 140.092365 294.980356 137.757561 
Q 296.818529 135.416307 300.020655 135.416307 
Q 301.474935 135.416307 302.929214 135.893587 
Q 304.383494 136.364418 305.806159 137.28673 
L 305.806159 143.091493 
Q 304.464789 141.743498 303.082772 141.040477 
Q 301.700754 140.331006 300.345835 140.331006 
Q 298.837359 140.331006 298.028924 141.20172 
Q 297.225005 142.065985 297.225005 143.678418 
Q 297.225005 144.929667 297.812137 145.748784 
Q 298.399268 146.56145 300.260024 147.54826 
L 302.053033 148.51572 
Q 304.595765 149.844366 305.79261 152.043726 
Q 306.993972 154.243086 306.993972 157.584049 
Q 306.993972 162.144012 305.106118 164.38852 
Q 303.22278 166.633028 299.415458 166.633028 
Q 297.848268 166.633028 296.272045 166.10415 
Q 294.700339 165.568822 293.23251 164.517515 
L 293.23251 158.370917 
Q 294.899061 160.067197 296.457218 160.892763 
Q 298.015374 161.71833 299.541917 161.71833 
Q 301.077492 161.71833 301.922058 160.72507 
Q 302.771141 159.725361 302.771141 157.925885 
Q 302.771141 156.57789 302.206591 155.558832 
Q 301.642041 154.539774 300.571655 153.959297 
L 298.525727 152.849943 
z
" style="fill: #808080"/>
   </g>
   <g id="text_79">
    <g id="patch_73">
     <path d="M 291.326591 144.109394 
L 334.672841 144.109394 
L 334.672841 74.426894 
L 291.326591 74.426894 
L 291.326591 144.109394 
z
" style="fill: none"/>
    </g>
    <path d="M 306.58298 124.961411 
Q 305.593889 126.943295 304.505437 127.925467 
Q 303.421502 128.90764 302.224657 128.90764 
Q 297.961178 128.90764 295.716528 118.016049 
Q 293.471879 107.10692 293.471879 86.498838 
Q 293.471879 65.838139 295.716528 54.92901 
Q 297.961178 44.019881 302.224657 44.019881 
Q 303.421502 44.019881 304.523503 45.002053 
Q 305.625503 45.984225 306.58298 47.966109 
L 306.58298 65.943372 
Q 305.512594 62.102376 304.500921 60.330958 
Q 303.493764 58.542001 302.418862 58.542001 
Q 300.133565 58.542001 298.968334 65.592596 
Q 297.803104 72.625652 297.803104 86.498838 
Q 297.803104 100.301868 298.968334 107.352463 
Q 300.133565 114.385519 302.418862 114.385519 
Q 303.493764 114.385519 304.500921 112.614101 
Q 305.512594 110.825144 306.58298 106.984148 
L 306.58298 124.961411 
z
" style="fill: #808080"/>
   </g>
   <g id="text_80">
    <!-- Z2029 -->
    <g transform="translate(224.996792 27.478594) scale(0.255 -0.255)">
     <use xlink:href="#DejaVuSans-5a"/>
     <use xlink:href="#DejaVuSans-32" x="68.505859"/>
     <use xlink:href="#DejaVuSans-30" x="132.128906"/>
     <use xlink:href="#DejaVuSans-32" x="195.751953"/>
     <use xlink:href="#DejaVuSans-39" x="259.375"/>
    </g>
   </g>
  </g>
  <g id="text_81">
   <!-- site -->
   <g transform="translate(174.922156 257.405) scale(0.255 -0.255)">
    <defs>
     <path id="DejaVuSans-73" d="M 2834 3397 
L 2834 2853 
Q 2591 2978 2328 3040 
Q 2066 3103 1784 3103 
Q 1356 3103 1142 2972 
Q 928 2841 928 2578 
Q 928 2378 1081 2264 
Q 1234 2150 1697 2047 
L 1894 2003 
Q 2506 1872 2764 1633 
Q 3022 1394 3022 966 
Q 3022 478 2636 193 
Q 2250 -91 1575 -91 
Q 1294 -91 989 -36 
Q 684 19 347 128 
L 347 722 
Q 666 556 975 473 
Q 1284 391 1588 391 
Q 1994 391 2212 530 
Q 2431 669 2431 922 
Q 2431 1156 2273 1281 
Q 2116 1406 1581 1522 
L 1381 1569 
Q 847 1681 609 1914 
Q 372 2147 372 2553 
Q 372 3047 722 3315 
Q 1072 3584 1716 3584 
Q 2034 3584 2315 3537 
Q 2597 3491 2834 3397 
z
" transform="scale(0.015625)"/>
     <path id="DejaVuSans-69" d="M 603 3500 
L 1178 3500 
L 1178 0 
L 603 0 
L 603 3500 
z
M 603 4863 
L 1178 4863 
L 1178 4134 
L 603 4134 
L 603 4863 
z
" transform="scale(0.015625)"/>
     <path id="DejaVuSans-74" d="M 1172 4494 
L 1172 3500 
L 2356 3500 
L 2356 3053 
L 1172 3053 
L 1172 1153 
Q 1172 725 1289 603 
Q 1406 481 1766 481 
L 2356 481 
L 2356 0 
L 1766 0 
Q 1100 0 847 248 
Q 594 497 594 1153 
L 594 3053 
L 172 3053 
L 172 3500 
L 594 3500 
L 594 4494 
L 1172 4494 
z
" transform="scale(0.015625)"/>
     <path id="DejaVuSans-65" d="M 3597 1894 
L 3597 1613 
L 953 1613 
Q 991 1019 1311 708 
Q 1631 397 2203 397 
Q 2534 397 2845 478 
Q 3156 559 3463 722 
L 3463 178 
Q 3153 47 2828 -22 
Q 2503 -91 2169 -91 
Q 1331 -91 842 396 
Q 353 884 353 1716 
Q 353 2575 817 3079 
Q 1281 3584 2069 3584 
Q 2775 3584 3186 3129 
Q 3597 2675 3597 1894 
z
M 3022 2063 
Q 3016 2534 2758 2815 
Q 2500 3097 2075 3097 
Q 1594 3097 1305 2825 
Q 1016 2553 972 2059 
L 3022 2063 
z
" transform="scale(0.015625)"/>
    </defs>
    <use xlink:href="#DejaVuSans-73"/>
    <use xlink:href="#DejaVuSans-69" x="52.099609"/>
    <use xlink:href="#DejaVuSans-74" x="79.882812"/>
    <use xlink:href="#DejaVuSans-65" x="119.091797"/>
   </g>
  </g>
  <g id="text_82">
   <!-- escape fraction -->
   <g transform="translate(26.576016 203.757188) rotate(-90) scale(0.255 -0.255)">
    <defs>
     <path id="DejaVuSans-63" d="M 3122 3366 
L 3122 2828 
Q 2878 2963 2633 3030 
Q 2388 3097 2138 3097 
Q 1578 3097 1268 2742 
Q 959 2388 959 1747 
Q 959 1106 1268 751 
Q 1578 397 2138 397 
Q 2388 397 2633 464 
Q 2878 531 3122 666 
L 3122 134 
Q 2881 22 2623 -34 
Q 2366 -91 2075 -91 
Q 1284 -91 818 406 
Q 353 903 353 1747 
Q 353 2603 823 3093 
Q 1294 3584 2113 3584 
Q 2378 3584 2631 3529 
Q 2884 3475 3122 3366 
z
" transform="scale(0.015625)"/>
     <path id="DejaVuSans-61" d="M 2194 1759 
Q 1497 1759 1228 1600 
Q 959 1441 959 1056 
Q 959 750 1161 570 
Q 1363 391 1709 391 
Q 2188 391 2477 730 
Q 2766 1069 2766 1631 
L 2766 1759 
L 2194 1759 
z
M 3341 1997 
L 3341 0 
L 2766 0 
L 2766 531 
Q 2569 213 2275 61 
Q 1981 -91 1556 -91 
Q 1019 -91 701 211 
Q 384 513 384 1019 
Q 384 1609 779 1909 
Q 1175 2209 1959 2209 
L 2766 2209 
L 2766 2266 
Q 2766 2663 2505 2880 
Q 2244 3097 1772 3097 
Q 1472 3097 1187 3025 
Q 903 2953 641 2809 
L 641 3341 
Q 956 3463 1253 3523 
Q 1550 3584 1831 3584 
Q 2591 3584 2966 3190 
Q 3341 2797 3341 1997 
z
" transform="scale(0.015625)"/>
     <path id="DejaVuSans-70" d="M 1159 525 
L 1159 -1331 
L 581 -1331 
L 581 3500 
L 1159 3500 
L 1159 2969 
Q 1341 3281 1617 3432 
Q 1894 3584 2278 3584 
Q 2916 3584 3314 3078 
Q 3713 2572 3713 1747 
Q 3713 922 3314 415 
Q 2916 -91 2278 -91 
Q 1894 -91 1617 61 
Q 1341 213 1159 525 
z
M 3116 1747 
Q 3116 2381 2855 2742 
Q 2594 3103 2138 3103 
Q 1681 3103 1420 2742 
Q 1159 2381 1159 1747 
Q 1159 1113 1420 752 
Q 1681 391 2138 391 
Q 2594 391 2855 752 
Q 3116 1113 3116 1747 
z
" transform="scale(0.015625)"/>
     <path id="DejaVuSans-20" transform="scale(0.015625)"/>
     <path id="DejaVuSans-66" d="M 2375 4863 
L 2375 4384 
L 1825 4384 
Q 1516 4384 1395 4259 
Q 1275 4134 1275 3809 
L 1275 3500 
L 2222 3500 
L 2222 3053 
L 1275 3053 
L 1275 0 
L 697 0 
L 697 3053 
L 147 3053 
L 147 3500 
L 697 3500 
L 697 3744 
Q 697 4328 969 4595 
Q 1241 4863 1831 4863 
L 2375 4863 
z
" transform="scale(0.015625)"/>
     <path id="DejaVuSans-72" d="M 2631 2963 
Q 2534 3019 2420 3045 
Q 2306 3072 2169 3072 
Q 1681 3072 1420 2755 
Q 1159 2438 1159 1844 
L 1159 0 
L 581 0 
L 581 3500 
L 1159 3500 
L 1159 2956 
Q 1341 3275 1631 3429 
Q 1922 3584 2338 3584 
Q 2397 3584 2469 3576 
Q 2541 3569 2628 3553 
L 2631 2963 
z
" transform="scale(0.015625)"/>
     <path id="DejaVuSans-6f" d="M 1959 3097 
Q 1497 3097 1228 2736 
Q 959 2375 959 1747 
Q 959 1119 1226 758 
Q 1494 397 1959 397 
Q 2419 397 2687 759 
Q 2956 1122 2956 1747 
Q 2956 2369 2687 2733 
Q 2419 3097 1959 3097 
z
M 1959 3584 
Q 2709 3584 3137 3096 
Q 3566 2609 3566 1747 
Q 3566 888 3137 398 
Q 2709 -91 1959 -91 
Q 1206 -91 779 398 
Q 353 888 353 1747 
Q 353 2609 779 3096 
Q 1206 3584 1959 3584 
z
" transform="scale(0.015625)"/>
     <path id="DejaVuSans-6e" d="M 3513 2113 
L 3513 0 
L 2938 0 
L 2938 2094 
Q 2938 2591 2744 2837 
Q 2550 3084 2163 3084 
Q 1697 3084 1428 2787 
Q 1159 2491 1159 1978 
L 1159 0 
L 581 0 
L 581 3500 
L 1159 3500 
L 1159 2956 
Q 1366 3272 1645 3428 
Q 1925 3584 2291 3584 
Q 2894 3584 3203 3211 
Q 3513 2838 3513 2113 
z
" transform="scale(0.015625)"/>
    </defs>
    <use xlink:href="#DejaVuSans-65"/>
    <use xlink:href="#DejaVuSans-73" x="61.523438"/>
    <use xlink:href="#DejaVuSans-63" x="113.623047"/>
    <use xlink:href="#DejaVuSans-61" x="168.603516"/>
    <use xlink:href="#DejaVuSans-70" x="229.882812"/>
    <use xlink:href="#DejaVuSans-65" x="293.359375"/>
    <use xlink:href="#DejaVuSans-20" x="354.882812"/>
    <use xlink:href="#DejaVuSans-66" x="386.669922"/>
    <use xlink:href="#DejaVuSans-72" x="421.875"/>
    <use xlink:href="#DejaVuSans-61" x="462.988281"/>
    <use xlink:href="#DejaVuSans-63" x="524.267578"/>
    <use xlink:href="#DejaVuSans-74" x="579.248047"/>
    <use xlink:href="#DejaVuSans-69" x="618.457031"/>
    <use xlink:href="#DejaVuSans-6f" x="646.240234"/>
    <use xlink:href="#DejaVuSans-6e" x="707.421875"/>
   </g>
  </g>
 </g>
 <defs>
  <clipPath id="p787b631d97">
   <rect x="84.329609" y="33.478594" width="90.781604" height="144"/>
  </clipPath>
  <clipPath id="p79c881b36d">
   <rect x="220.914155" y="33.478594" width="90.530275" height="144"/>
  </clipPath>
 </defs>
</svg>
