<?xml version="1.0" encoding="utf-8" standalone="no"?>
<!DOCTYPE svg PUBLIC "-//W3C//DTD SVG 1.1//EN"
  "http://www.w3.org/Graphics/SVG/1.1/DTD/svg11.dtd">
<svg xmlns:xlink="http://www.w3.org/1999/xlink" width="379.782403pt" height="269.908203pt" viewBox="0 0 379.782403 269.908203" xmlns="http://www.w3.org/2000/svg" version="1.1">
 <metadata>
  <rdf:RDF xmlns:dc="http://purl.org/dc/elements/1.1/" xmlns:cc="http://creativecommons.org/ns#" xmlns:rdf="http://www.w3.org/1999/02/22-rdf-syntax-ns#">
   <cc:Work>
    <dc:type rdf:resource="http://purl.org/dc/dcmitype/StillImage"/>
    <dc:date>2025-12-18T15:42:41.712764</dc:date>
    <dc:format>image/svg+xml</dc:format>
    <dc:creator>
     <cc:Agent>
      <dc:title>Matplotlib v3.7.1, https://matplotlib.org/</dc:title>
     </cc:Agent>
    </dc:creator>
   </cc:Work>
  </rdf:RDF>
 </metadata>
 <defs>
  <style type="text/css">*{stroke-linejoin: round; stroke-linecap: butt}</style>
 </defs>
 <g id="figure_1">
  <g id="patch_1">
   <path d="M 0 269.908203 
L 379.782403 269.908203 
L 379.782403 0 
L 0 0 
L 0 269.908203 
z
" style="fill: none"/>
  </g>
  <g id="axes_1">
   <g id="patch_2">
    <path d="M 84.329609 177.478594 
L 177.124792 177.478594 
L 177.124792 33.478594 
L 84.329609 33.478594 
L 84.329609 177.478594 
z
" style="fill: none"/>
   </g>
   <g id="patch_3">
    <path d="M 85.114132 177.478594 
L 87.751309 177.478594 
L 87.751309 170.764308 
L 85.114132 170.764308 
z
" clip-path="url(#p8bb7847112)" style="fill: #cc79a7"/>
   </g>
   <g id="patch_4">
    <path d="M 87.569897 177.478594 
L 90.207074 177.478594 
L 90.207074 170.764308 
L 87.569897 170.764308 
z
" clip-path="url(#p8bb7847112)" style="fill: #cc79a7"/>
   </g>
   <g id="patch_5">
    <path d="M 162.880032 177.478594 
L 165.517209 177.478594 
L 165.517209 170.764308 
L 162.880032 170.764308 
z
" clip-path="url(#p8bb7847112)" style="fill: #cc79a7"/>
   </g>
   <g id="patch_6">
    <path d="M 166.154385 177.478594 
L 168.791562 177.478594 
L 168.791562 170.764308 
L 166.154385 170.764308 
z
" clip-path="url(#p8bb7847112)" style="fill: #cc79a7"/>
   </g>
   <g id="matplotlib.axis_1">
    <g id="xtick_1">
     <g id="line2d_1">
      <defs>
       <path id="m1b8e406203" d="M 0 0 
L 0 5 
" style="stroke: #000000"/>
      </defs>
      <g>
       <use xlink:href="#m1b8e406203" x="87.342015" y="177.478594" style="stroke: #000000"/>
      </g>
     </g>
     <g id="text_1">
      <!-- 300 -->
      <g transform="translate(92.30889 220.336094) rotate(-90) scale(0.18 -0.18)">
       <defs>
        <path id="DejaVuSans-33" d="M 2597 2516 
Q 3050 2419 3304 2112 
Q 3559 1806 3559 1356 
Q 3559 666 3084 287 
Q 2609 -91 1734 -91 
Q 1441 -91 1130 -33 
Q 819 25 488 141 
L 488 750 
Q 750 597 1062 519 
Q 1375 441 1716 441 
Q 2309 441 2620 675 
Q 2931 909 2931 1356 
Q 2931 1769 2642 2001 
Q 2353 2234 1838 2234 
L 1294 2234 
L 1294 2753 
L 1863 2753 
Q 2328 2753 2575 2939 
Q 2822 3125 2822 3475 
Q 2822 3834 2567 4026 
Q 2313 4219 1838 4219 
Q 1578 4219 1281 4162 
Q 984 4106 628 3988 
L 628 4550 
Q 988 4650 1302 4700 
Q 1616 4750 1894 4750 
Q 2613 4750 3031 4423 
Q 3450 4097 3450 3541 
Q 3450 3153 3228 2886 
Q 3006 2619 2597 2516 
z
" transform="scale(0.015625)"/>
        <path id="DejaVuSans-30" d="M 2034 4250 
Q 1547 4250 1301 3770 
Q 1056 3291 1056 2328 
Q 1056 1369 1301 889 
Q 1547 409 2034 409 
Q 2525 409 2770 889 
Q 3016 1369 3016 2328 
Q 3016 3291 2770 3770 
Q 2525 4250 2034 4250 
z
M 2034 4750 
Q 2819 4750 3233 4129 
Q 3647 3509 3647 2328 
Q 3647 1150 3233 529 
Q 2819 -91 2034 -91 
Q 1250 -91 836 529 
Q 422 1150 422 2328 
Q 422 3509 836 4129 
Q 1250 4750 2034 4750 
z
" transform="scale(0.015625)"/>
       </defs>
       <use xlink:href="#DejaVuSans-33"/>
       <use xlink:href="#DejaVuSans-30" x="63.623047"/>
       <use xlink:href="#DejaVuSans-30" x="127.246094"/>
      </g>
     </g>
    </g>
    <g id="xtick_2">
     <g id="line2d_2">
      <g>
       <use xlink:href="#m1b8e406203" x="111.899667" y="177.478594" style="stroke: #000000"/>
      </g>
     </g>
     <g id="text_2">
      <!-- 330 -->
      <g transform="translate(116.866542 220.336094) rotate(-90) scale(0.18 -0.18)">
       <use xlink:href="#DejaVuSans-33"/>
       <use xlink:href="#DejaVuSans-33" x="63.623047"/>
       <use xlink:href="#DejaVuSans-30" x="127.246094"/>
      </g>
     </g>
    </g>
    <g id="xtick_3">
     <g id="line2d_3">
      <g>
       <use xlink:href="#m1b8e406203" x="136.45732" y="177.478594" style="stroke: #000000"/>
      </g>
     </g>
     <g id="text_3">
      <!-- 360 -->
      <g transform="translate(141.424195 220.336094) rotate(-90) scale(0.18 -0.18)">
       <defs>
        <path id="DejaVuSans-36" d="M 2113 2584 
Q 1688 2584 1439 2293 
Q 1191 2003 1191 1497 
Q 1191 994 1439 701 
Q 1688 409 2113 409 
Q 2538 409 2786 701 
Q 3034 994 3034 1497 
Q 3034 2003 2786 2293 
Q 2538 2584 2113 2584 
z
M 3366 4563 
L 3366 3988 
Q 3128 4100 2886 4159 
Q 2644 4219 2406 4219 
Q 1781 4219 1451 3797 
Q 1122 3375 1075 2522 
Q 1259 2794 1537 2939 
Q 1816 3084 2150 3084 
Q 2853 3084 3261 2657 
Q 3669 2231 3669 1497 
Q 3669 778 3244 343 
Q 2819 -91 2113 -91 
Q 1303 -91 875 529 
Q 447 1150 447 2328 
Q 447 3434 972 4092 
Q 1497 4750 2381 4750 
Q 2619 4750 2861 4703 
Q 3103 4656 3366 4563 
z
" transform="scale(0.015625)"/>
       </defs>
       <use xlink:href="#DejaVuSans-33"/>
       <use xlink:href="#DejaVuSans-36" x="63.623047"/>
       <use xlink:href="#DejaVuSans-30" x="127.246094"/>
      </g>
     </g>
    </g>
    <g id="xtick_4">
     <g id="line2d_4">
      <g>
       <use xlink:href="#m1b8e406203" x="161.014972" y="177.478594" style="stroke: #000000"/>
      </g>
     </g>
     <g id="text_4">
      <!-- 390 -->
      <g transform="translate(165.981847 220.336094) rotate(-90) scale(0.18 -0.18)">
       <defs>
        <path id="DejaVuSans-39" d="M 703 97 
L 703 672 
Q 941 559 1184 500 
Q 1428 441 1663 441 
Q 2288 441 2617 861 
Q 2947 1281 2994 2138 
Q 2813 1869 2534 1725 
Q 2256 1581 1919 1581 
Q 1219 1581 811 2004 
Q 403 2428 403 3163 
Q 403 3881 828 4315 
Q 1253 4750 1959 4750 
Q 2769 4750 3195 4129 
Q 3622 3509 3622 2328 
Q 3622 1225 3098 567 
Q 2575 -91 1691 -91 
Q 1453 -91 1209 -44 
Q 966 3 703 97 
z
M 1959 2075 
Q 2384 2075 2632 2365 
Q 2881 2656 2881 3163 
Q 2881 3666 2632 3958 
Q 2384 4250 1959 4250 
Q 1534 4250 1286 3958 
Q 1038 3666 1038 3163 
Q 1038 2656 1286 2365 
Q 1534 2075 1959 2075 
z
" transform="scale(0.015625)"/>
       </defs>
       <use xlink:href="#DejaVuSans-33"/>
       <use xlink:href="#DejaVuSans-39" x="63.623047"/>
       <use xlink:href="#DejaVuSans-30" x="127.246094"/>
      </g>
     </g>
    </g>
   </g>
   <g id="matplotlib.axis_2">
    <g id="ytick_1">
     <g id="line2d_5">
      <defs>
       <path id="m40aa71dedf" d="M 0 0 
L -5 0 
" style="stroke: #000000"/>
      </defs>
      <g>
       <use xlink:href="#m40aa71dedf" x="84.329609" y="169.764308" style="stroke: #000000"/>
      </g>
     </g>
     <g id="text_5">
      <!-- 0.00 -->
      <g transform="translate(35.751484 176.602902) scale(0.18 -0.18)">
       <defs>
        <path id="DejaVuSans-2e" d="M 684 794 
L 1344 794 
L 1344 0 
L 684 0 
L 684 794 
z
" transform="scale(0.015625)"/>
       </defs>
       <use xlink:href="#DejaVuSans-30"/>
       <use xlink:href="#DejaVuSans-2e" x="63.623047"/>
       <use xlink:href="#DejaVuSans-30" x="95.410156"/>
       <use xlink:href="#DejaVuSans-30" x="159.033203"/>
      </g>
     </g>
    </g>
    <g id="ytick_2">
     <g id="line2d_6">
      <g>
       <use xlink:href="#m40aa71dedf" x="84.329609" y="132.471284" style="stroke: #000000"/>
      </g>
     </g>
     <g id="text_6">
      <!-- 0.25 -->
      <g transform="translate(35.751484 139.309878) scale(0.18 -0.18)">
       <defs>
        <path id="DejaVuSans-32" d="M 1228 531 
L 3431 531 
L 3431 0 
L 469 0 
L 469 531 
Q 828 903 1448 1529 
Q 2069 2156 2228 2338 
Q 2531 2678 2651 2914 
Q 2772 3150 2772 3378 
Q 2772 3750 2511 3984 
Q 2250 4219 1831 4219 
Q 1534 4219 1204 4116 
Q 875 4013 500 3803 
L 500 4441 
Q 881 4594 1212 4672 
Q 1544 4750 1819 4750 
Q 2544 4750 2975 4387 
Q 3406 4025 3406 3419 
Q 3406 3131 3298 2873 
Q 3191 2616 2906 2266 
Q 2828 2175 2409 1742 
Q 1991 1309 1228 531 
z
" transform="scale(0.015625)"/>
        <path id="DejaVuSans-35" d="M 691 4666 
L 3169 4666 
L 3169 4134 
L 1269 4134 
L 1269 2991 
Q 1406 3038 1543 3061 
Q 1681 3084 1819 3084 
Q 2600 3084 3056 2656 
Q 3513 2228 3513 1497 
Q 3513 744 3044 326 
Q 2575 -91 1722 -91 
Q 1428 -91 1123 -41 
Q 819 9 494 109 
L 494 744 
Q 775 591 1075 516 
Q 1375 441 1709 441 
Q 2250 441 2565 725 
Q 2881 1009 2881 1497 
Q 2881 1984 2565 2268 
Q 2250 2553 1709 2553 
Q 1456 2553 1204 2497 
Q 953 2441 691 2322 
L 691 4666 
z
" transform="scale(0.015625)"/>
       </defs>
       <use xlink:href="#DejaVuSans-30"/>
       <use xlink:href="#DejaVuSans-2e" x="63.623047"/>
       <use xlink:href="#DejaVuSans-32" x="95.410156"/>
       <use xlink:href="#DejaVuSans-35" x="159.033203"/>
      </g>
     </g>
    </g>
    <g id="ytick_3">
     <g id="line2d_7">
      <g>
       <use xlink:href="#m40aa71dedf" x="84.329609" y="95.178261" style="stroke: #000000"/>
      </g>
     </g>
     <g id="text_7">
      <!-- 0.50 -->
      <g transform="translate(35.751484 102.016854) scale(0.18 -0.18)">
       <use xlink:href="#DejaVuSans-30"/>
       <use xlink:href="#DejaVuSans-2e" x="63.623047"/>
       <use xlink:href="#DejaVuSans-35" x="95.410156"/>
       <use xlink:href="#DejaVuSans-30" x="159.033203"/>
      </g>
     </g>
    </g>
    <g id="ytick_4">
     <g id="line2d_8">
      <g>
       <use xlink:href="#m40aa71dedf" x="84.329609" y="57.885237" style="stroke: #000000"/>
      </g>
     </g>
     <g id="text_8">
      <!-- 0.75 -->
      <g transform="translate(35.751484 64.723831) scale(0.18 -0.18)">
       <defs>
        <path id="DejaVuSans-37" d="M 525 4666 
L 3525 4666 
L 3525 4397 
L 1831 0 
L 1172 0 
L 2766 4134 
L 525 4134 
L 525 4666 
z
" transform="scale(0.015625)"/>
       </defs>
       <use xlink:href="#DejaVuSans-30"/>
       <use xlink:href="#DejaVuSans-2e" x="63.623047"/>
       <use xlink:href="#DejaVuSans-37" x="95.410156"/>
       <use xlink:href="#DejaVuSans-35" x="159.033203"/>
      </g>
     </g>
    </g>
   </g>
   <g id="line2d_9">
    <path d="M 86.114132 128.846402 
L 86.932721 128.846402 
L 86.932721 157.818607 
L 87.751309 157.818607 
L 87.751309 169.764308 
L 88.569897 169.764308 
L 88.569897 126.653573 
L 89.388486 126.653573 
L 89.388486 163.667645 
L 90.207074 163.667645 
L 90.207074 150.312267 
L 91.025663 150.312267 
L 91.025663 164.441848 
L 91.844251 164.441848 
L 91.844251 153.773059 
L 92.662839 153.773059 
L 92.662839 143.480185 
L 93.481428 143.480185 
L 93.481428 169.764308 
L 94.300016 169.764308 
L 94.300016 157.281587 
L 95.118605 157.281587 
L 95.118605 169.750025 
L 95.937193 169.750025 
L 95.937193 149.044304 
L 96.755782 149.044304 
L 96.755782 168.196509 
L 97.57437 168.196509 
L 97.57437 136.946447 
L 98.392958 136.946447 
L 98.392958 169.698956 
L 102.4859 169.761745 
L 102.4859 169.5495 
L 103.304489 169.5495 
L 103.304489 169.086768 
L 104.123077 169.086768 
L 104.123077 166.102133 
L 104.941666 166.102133 
L 104.941666 169.764308 
L 105.760254 169.764308 
L 105.760254 169.434936 
L 106.578843 169.434936 
L 106.578843 168.608224 
L 107.397431 168.608224 
L 107.397431 154.429417 
L 108.216019 154.429417 
L 108.216019 169.135249 
L 109.034608 169.135249 
L 109.034608 169.750044 
L 111.490373 169.653548 
L 111.490373 169.444185 
L 112.308961 169.444185 
L 112.308961 169.683606 
L 113.946138 169.764308 
L 113.946138 153.206206 
L 114.764727 153.206206 
L 114.764727 169.764308 
L 115.583315 169.764308 
L 115.583315 162.524986 
L 116.401904 162.524986 
L 116.401904 166.933022 
L 117.220492 166.933022 
L 117.220492 169.764308 
L 118.03908 169.764308 
L 118.03908 169.614987 
L 118.857669 169.614987 
L 118.857669 169.764308 
L 119.676257 169.764308 
L 119.676257 160.572324 
L 120.494846 160.572324 
L 120.494846 167.408881 
L 122.132023 167.39993 
L 122.132023 162.75322 
L 122.950611 162.75322 
L 122.950611 169.762573 
L 123.769199 169.762573 
L 123.769199 158.69723 
L 124.587788 158.69723 
L 124.587788 154.101238 
L 125.406376 154.101238 
L 125.406376 152.505097 
L 126.224965 152.505097 
L 126.224965 160.721496 
L 127.043553 160.721496 
L 127.043553 136.469096 
L 127.862141 136.469096 
L 127.862141 153.534384 
L 128.68073 153.534384 
L 128.68073 156.43429 
L 129.499318 156.43429 
L 129.499318 163.263388 
L 130.317907 163.263388 
L 130.317907 162.948635 
L 131.136495 162.948635 
L 131.136495 167.33877 
L 131.955084 167.33877 
L 131.955084 169.740769 
L 134.410849 169.73874 
L 134.410849 154.896325 
L 135.229437 154.896325 
L 135.229437 166.695838 
L 136.048026 166.695838 
L 136.048026 169.43777 
L 136.866614 169.43777 
L 136.866614 161.664263 
L 137.685202 161.664263 
L 137.685202 161.549401 
L 138.503791 161.549401 
L 138.503791 169.752079 
L 139.322379 169.752079 
L 139.322379 166.091691 
L 140.140968 166.091691 
L 140.140968 169.744752 
L 140.959556 169.744752 
L 140.959556 152.266421 
L 141.778145 152.266421 
L 141.778145 169.233255 
L 142.596733 169.233255 
L 142.596733 169.442544 
L 143.415321 169.442544 
L 143.415321 154.011735 
L 144.23391 154.011735 
L 144.23391 166.752523 
L 145.052498 166.752523 
L 145.052498 169.764308 
L 150.782617 169.68459 
L 150.782617 169.546368 
L 151.601206 169.546368 
L 151.601206 169.744289 
L 152.419794 169.744289 
L 152.419794 167.528218 
L 153.238382 167.528218 
L 153.238382 169.607677 
L 154.056971 169.607677 
L 154.056971 154.444334 
L 154.875559 154.444334 
L 154.875559 167.270151 
L 155.694148 167.270151 
L 155.694148 169.391676 
L 156.512736 169.391676 
L 156.512736 164.880414 
L 157.331324 164.880414 
L 157.331324 162.029735 
L 158.149913 162.029735 
L 158.149913 161.310725 
L 158.968501 161.310725 
L 158.968501 169.763834 
L 161.424267 169.711203 
L 161.424267 159.058227 
L 162.242855 159.058227 
L 162.242855 157.359157 
L 163.061443 157.359157 
L 163.061443 167.30446 
L 163.880032 167.30446 
L 163.880032 130.024862 
L 164.69862 130.024862 
L 164.69862 138.930436 
L 166.335797 139.005022 
L 166.335797 160.696136 
L 167.154385 160.696136 
L 167.154385 41.192879 
L 167.972974 41.192879 
L 167.972974 162.289294 
L 168.791562 162.289294 
L 168.791562 169.63062 
L 169.610151 169.63062 
L 169.610151 160.382875 
L 170.428739 160.382875 
L 170.428739 162.903883 
L 171.247328 162.903883 
L 171.247328 162.544379 
L 172.065916 162.544379 
L 172.065916 153.057033 
L 172.884504 153.057033 
L 172.884504 158.291482 
L 173.703093 158.291482 
L 173.703093 153.653722 
L 174.521681 153.653722 
L 174.521681 149.864751 
L 175.34027 149.864751 
L 175.34027 149.864751 
" clip-path="url(#p8bb7847112)" style="fill: none; stroke: #000000; stroke-linecap: square"/>
   </g>
   <g id="patch_7">
    <path d="M 84.329609 177.478594 
L 84.329609 33.478594 
" style="fill: none; stroke: #000000; stroke-width: 0.8; stroke-linejoin: miter; stroke-linecap: square"/>
   </g>
   <g id="patch_8">
    <path d="M 84.329609 177.478594 
L 177.124792 177.478594 
" style="fill: none; stroke: #000000; stroke-width: 0.8; stroke-linejoin: miter; stroke-linecap: square"/>
   </g>
   <g id="text_9">
    <!-- Z2039 -->
    <g transform="translate(89.544701 27.478594) scale(0.255 -0.255)">
     <defs>
      <path id="DejaVuSans-5a" d="M 359 4666 
L 4025 4666 
L 4025 4184 
L 1075 531 
L 4097 531 
L 4097 0 
L 288 0 
L 288 481 
L 3238 4134 
L 359 4134 
L 359 4666 
z
" transform="scale(0.015625)"/>
     </defs>
     <use xlink:href="#DejaVuSans-5a"/>
     <use xlink:href="#DejaVuSans-32" x="68.505859"/>
     <use xlink:href="#DejaVuSans-30" x="132.128906"/>
     <use xlink:href="#DejaVuSans-33" x="195.751953"/>
     <use xlink:href="#DejaVuSans-39" x="259.375"/>
    </g>
   </g>
  </g>
  <g id="axes_2">
   <g id="patch_9">
    <path d="M 225.860057 177.478594 
L 349.244429 177.478594 
L 349.244429 33.478594 
L 225.860057 33.478594 
L 225.860057 177.478594 
z
" style="fill: none"/>
   </g>
   <g id="matplotlib.axis_3">
    <g id="xtick_5">
     <g id="line2d_10">
      <g>
       <use xlink:href="#m1b8e406203" x="237.531552" y="177.478594" style="stroke: #000000"/>
      </g>
     </g>
     <g id="text_10">
      <!-- R299 -->
      <g transform="translate(242.498427 232.843281) rotate(-90) scale(0.18 -0.18)">
       <defs>
        <path id="DejaVuSans-52" d="M 2841 2188 
Q 3044 2119 3236 1894 
Q 3428 1669 3622 1275 
L 4263 0 
L 3584 0 
L 2988 1197 
Q 2756 1666 2539 1819 
Q 2322 1972 1947 1972 
L 1259 1972 
L 1259 0 
L 628 0 
L 628 4666 
L 2053 4666 
Q 2853 4666 3247 4331 
Q 3641 3997 3641 3322 
Q 3641 2881 3436 2590 
Q 3231 2300 2841 2188 
z
M 1259 4147 
L 1259 2491 
L 2053 2491 
Q 2509 2491 2742 2702 
Q 2975 2913 2975 3322 
Q 2975 3731 2742 3939 
Q 2509 4147 2053 4147 
L 1259 4147 
z
" transform="scale(0.015625)"/>
       </defs>
       <use xlink:href="#DejaVuSans-52"/>
       <use xlink:href="#DejaVuSans-32" x="69.482422"/>
       <use xlink:href="#DejaVuSans-39" x="133.105469"/>
       <use xlink:href="#DejaVuSans-39" x="196.728516"/>
      </g>
     </g>
    </g>
    <g id="xtick_6">
     <g id="line2d_11">
      <g>
       <use xlink:href="#m1b8e406203" x="270.878679" y="177.478594" style="stroke: #000000"/>
      </g>
     </g>
     <g id="text_11">
      <!-- G302 -->
      <g transform="translate(275.845554 234.283281) rotate(-90) scale(0.18 -0.18)">
       <defs>
        <path id="DejaVuSans-47" d="M 3809 666 
L 3809 1919 
L 2778 1919 
L 2778 2438 
L 4434 2438 
L 4434 434 
Q 4069 175 3628 42 
Q 3188 -91 2688 -91 
Q 1594 -91 976 548 
Q 359 1188 359 2328 
Q 359 3472 976 4111 
Q 1594 4750 2688 4750 
Q 3144 4750 3555 4637 
Q 3966 4525 4313 4306 
L 4313 3634 
Q 3963 3931 3569 4081 
Q 3175 4231 2741 4231 
Q 1884 4231 1454 3753 
Q 1025 3275 1025 2328 
Q 1025 1384 1454 906 
Q 1884 428 2741 428 
Q 3075 428 3337 486 
Q 3600 544 3809 666 
z
" transform="scale(0.015625)"/>
       </defs>
       <use xlink:href="#DejaVuSans-47"/>
       <use xlink:href="#DejaVuSans-33" x="77.490234"/>
       <use xlink:href="#DejaVuSans-30" x="141.113281"/>
       <use xlink:href="#DejaVuSans-32" x="204.736328"/>
      </g>
     </g>
    </g>
    <g id="xtick_7">
     <g id="line2d_12">
      <g>
       <use xlink:href="#m1b8e406203" x="304.225807" y="177.478594" style="stroke: #000000"/>
      </g>
     </g>
     <g id="text_12">
      <!-- K394 -->
      <g transform="translate(309.192682 232.140156) rotate(-90) scale(0.18 -0.18)">
       <defs>
        <path id="DejaVuSans-4b" d="M 628 4666 
L 1259 4666 
L 1259 2694 
L 3353 4666 
L 4166 4666 
L 1850 2491 
L 4331 0 
L 3500 0 
L 1259 2247 
L 1259 0 
L 628 0 
L 628 4666 
z
" transform="scale(0.015625)"/>
        <path id="DejaVuSans-34" d="M 2419 4116 
L 825 1625 
L 2419 1625 
L 2419 4116 
z
M 2253 4666 
L 3047 4666 
L 3047 1625 
L 3713 1625 
L 3713 1100 
L 3047 1100 
L 3047 0 
L 2419 0 
L 2419 1100 
L 313 1100 
L 313 1709 
L 2253 4666 
z
" transform="scale(0.015625)"/>
       </defs>
       <use xlink:href="#DejaVuSans-4b"/>
       <use xlink:href="#DejaVuSans-33" x="65.576172"/>
       <use xlink:href="#DejaVuSans-39" x="129.199219"/>
       <use xlink:href="#DejaVuSans-34" x="192.822266"/>
      </g>
     </g>
    </g>
    <g id="xtick_8">
     <g id="line2d_13">
      <g>
       <use xlink:href="#m1b8e406203" x="337.572935" y="177.478594" style="stroke: #000000"/>
      </g>
     </g>
     <g id="text_13">
      <!-- H398 -->
      <g transform="translate(342.53981 233.872656) rotate(-90) scale(0.18 -0.18)">
       <defs>
        <path id="DejaVuSans-48" d="M 628 4666 
L 1259 4666 
L 1259 2753 
L 3553 2753 
L 3553 4666 
L 4184 4666 
L 4184 0 
L 3553 0 
L 3553 2222 
L 1259 2222 
L 1259 0 
L 628 0 
L 628 4666 
z
" transform="scale(0.015625)"/>
        <path id="DejaVuSans-38" d="M 2034 2216 
Q 1584 2216 1326 1975 
Q 1069 1734 1069 1313 
Q 1069 891 1326 650 
Q 1584 409 2034 409 
Q 2484 409 2743 651 
Q 3003 894 3003 1313 
Q 3003 1734 2745 1975 
Q 2488 2216 2034 2216 
z
M 1403 2484 
Q 997 2584 770 2862 
Q 544 3141 544 3541 
Q 544 4100 942 4425 
Q 1341 4750 2034 4750 
Q 2731 4750 3128 4425 
Q 3525 4100 3525 3541 
Q 3525 3141 3298 2862 
Q 3072 2584 2669 2484 
Q 3125 2378 3379 2068 
Q 3634 1759 3634 1313 
Q 3634 634 3220 271 
Q 2806 -91 2034 -91 
Q 1263 -91 848 271 
Q 434 634 434 1313 
Q 434 1759 690 2068 
Q 947 2378 1403 2484 
z
M 1172 3481 
Q 1172 3119 1398 2916 
Q 1625 2713 2034 2713 
Q 2441 2713 2670 2916 
Q 2900 3119 2900 3481 
Q 2900 3844 2670 4047 
Q 2441 4250 2034 4250 
Q 1625 4250 1398 4047 
Q 1172 3844 1172 3481 
z
" transform="scale(0.015625)"/>
       </defs>
       <use xlink:href="#DejaVuSans-48"/>
       <use xlink:href="#DejaVuSans-33" x="75.195312"/>
       <use xlink:href="#DejaVuSans-39" x="138.818359"/>
       <use xlink:href="#DejaVuSans-38" x="202.441406"/>
      </g>
     </g>
    </g>
   </g>
   <g id="matplotlib.axis_4">
    <g id="ytick_5">
     <g id="line2d_14">
      <g>
       <use xlink:href="#m40aa71dedf" x="225.860057" y="169.764308" style="stroke: #000000"/>
      </g>
     </g>
     <g id="text_14">
      <!-- 0.00 -->
      <g transform="translate(177.281932 176.602902) scale(0.18 -0.18)">
       <use xlink:href="#DejaVuSans-30"/>
       <use xlink:href="#DejaVuSans-2e" x="63.623047"/>
       <use xlink:href="#DejaVuSans-30" x="95.410156"/>
       <use xlink:href="#DejaVuSans-30" x="159.033203"/>
      </g>
     </g>
    </g>
    <g id="ytick_6">
     <g id="line2d_15">
      <g>
       <use xlink:href="#m40aa71dedf" x="225.860057" y="132.471284" style="stroke: #000000"/>
      </g>
     </g>
     <g id="text_15">
      <!-- 0.25 -->
      <g transform="translate(177.281932 139.309878) scale(0.18 -0.18)">
       <use xlink:href="#DejaVuSans-30"/>
       <use xlink:href="#DejaVuSans-2e" x="63.623047"/>
       <use xlink:href="#DejaVuSans-32" x="95.410156"/>
       <use xlink:href="#DejaVuSans-35" x="159.033203"/>
      </g>
     </g>
    </g>
    <g id="ytick_7">
     <g id="line2d_16">
      <g>
       <use xlink:href="#m40aa71dedf" x="225.860057" y="95.178261" style="stroke: #000000"/>
      </g>
     </g>
     <g id="text_16">
      <!-- 0.50 -->
      <g transform="translate(177.281932 102.016854) scale(0.18 -0.18)">
       <use xlink:href="#DejaVuSans-30"/>
       <use xlink:href="#DejaVuSans-2e" x="63.623047"/>
       <use xlink:href="#DejaVuSans-35" x="95.410156"/>
       <use xlink:href="#DejaVuSans-30" x="159.033203"/>
      </g>
     </g>
    </g>
    <g id="ytick_8">
     <g id="line2d_17">
      <g>
       <use xlink:href="#m40aa71dedf" x="225.860057" y="57.885237" style="stroke: #000000"/>
      </g>
     </g>
     <g id="text_17">
      <!-- 0.75 -->
      <g transform="translate(177.281932 64.723831) scale(0.18 -0.18)">
       <use xlink:href="#DejaVuSans-30"/>
       <use xlink:href="#DejaVuSans-2e" x="63.623047"/>
       <use xlink:href="#DejaVuSans-37" x="95.410156"/>
       <use xlink:href="#DejaVuSans-35" x="159.033203"/>
      </g>
     </g>
    </g>
   </g>
   <g id="line2d_18">
    <path d="M 254.205116 177.478594 
L 254.205116 33.478594 
" clip-path="url(#pdff798e0de)" style="fill: none; stroke-dasharray: 2,5; stroke-dashoffset: 0; stroke: #000000"/>
   </g>
   <g id="line2d_19">
    <path d="M 287.552243 177.478594 
L 287.552243 33.478594 
" clip-path="url(#pdff798e0de)" style="fill: none; stroke-dasharray: 2,5; stroke-dashoffset: 0; stroke: #000000"/>
   </g>
   <g id="line2d_20">
    <path d="M 320.899371 177.478594 
L 320.899371 33.478594 
" clip-path="url(#pdff798e0de)" style="fill: none; stroke-dasharray: 2,5; stroke-dashoffset: 0; stroke: #000000"/>
   </g>
   <g id="patch_10">
    <path d="M 225.860057 177.478594 
L 225.860057 33.478594 
" style="fill: none; stroke: #000000; stroke-width: 0.8; stroke-linejoin: miter; stroke-linecap: square"/>
   </g>
   <g id="patch_11">
    <path d="M 225.860057 177.478594 
L 349.244429 177.478594 
" style="fill: none; stroke: #000000; stroke-width: 0.8; stroke-linejoin: miter; stroke-linecap: square"/>
   </g>
   <g id="text_18">
    <g id="patch_12">
     <path d="M 229.19477 184.738058 
L 272.54102 184.738058 
L 272.54102 115.055558 
L 229.19477 115.055558 
L 229.19477 184.738058 
z
" style="fill: none"/>
    </g>
    <path d="M 235.609061 169.764308 
L 235.609061 169.764308 
L 237.306962 169.764308 
Q 239.341747 169.764308 240.163747 169.764308 
Q 240.985747 169.764308 240.985747 169.764308 
Q 240.985747 169.764308 240.163747 169.764308 
Q 239.341747 169.764308 237.306962 169.764308 
L 235.609061 169.764308 
z
M 231.467621 169.764308 
L 237.154241 169.764308 
Q 241.49332 169.764308 243.393352 169.764308 
Q 245.293383 169.764308 245.293383 169.764308 
Q 245.293383 169.764308 243.393352 169.764308 
Q 241.49332 169.764308 237.154241 169.764308 
L 235.609061 169.764308 
L 235.609061 169.764308 
L 231.467621 169.764308 
L 231.467621 169.764308 
z
" style="fill: #808080"/>
   </g>
   <g id="text_19">
    <g id="patch_13">
     <path d="M 229.19477 184.738058 
L 272.54102 184.738058 
L 272.54102 115.055558 
L 229.19477 115.055558 
L 229.19477 184.738058 
z
" style="fill: none"/>
    </g>
    <path d="M 236.3547 169.764308 
Q 233.223915 169.764308 232.11444 169.764308 
Q 231.004966 169.764308 231.004966 169.764308 
Q 231.004966 169.764308 232.828637 169.764308 
Q 234.656799 169.764308 237.841486 169.764308 
Q 239.287846 169.764308 240.734206 169.764308 
Q 242.180565 169.764308 243.595483 169.764308 
L 243.595483 169.764308 
Q 242.261418 169.764308 240.886927 169.764308 
Q 239.512436 169.764308 238.164896 169.764308 
Q 236.664634 169.764308 235.860602 169.764308 
Q 235.061062 169.764308 235.061062 169.764308 
Q 235.061062 169.764308 235.644996 169.764308 
Q 236.22893 169.764308 238.079552 169.764308 
L 239.862796 169.764308 
Q 242.39168 169.764308 243.582007 169.764308 
Q 244.776826 169.764308 244.776826 169.764308 
Q 244.776826 169.764308 242.899254 169.764308 
Q 241.026173 169.764308 237.239585 169.764308 
Q 235.68093 169.764308 234.113292 169.764308 
Q 232.550145 169.764308 231.09031 169.764308 
L 231.09031 169.764308 
Q 232.747784 169.764308 234.297455 169.764308 
Q 235.847127 169.764308 237.365355 169.764308 
Q 238.892567 169.764308 239.732534 169.764308 
Q 240.576993 169.764308 240.576993 169.764308 
Q 240.576993 169.764308 240.015518 169.764308 
Q 239.454043 169.764308 238.389486 169.764308 
L 236.3547 169.764308 
z
" style="fill: #808080"/>
   </g>
   <g id="text_20">
    <g id="patch_14">
     <path d="M 229.19477 184.738058 
L 272.54102 184.738058 
L 272.54102 115.055558 
L 229.19477 115.055558 
L 229.19477 184.738058 
z
" style="fill: none"/>
    </g>
    <path d="M 244.749875 169.764308 
L 240.114337 169.764308 
L 244.749875 169.764308 
L 243.680827 169.764308 
L 239.02283 169.764308 
L 239.02283 169.764308 
L 236.606241 169.764308 
L 236.606241 169.764308 
L 231.961719 169.764308 
L 230.892671 169.764308 
L 235.55516 169.764308 
L 230.892671 169.764308 
L 231.961719 169.764308 
L 236.606241 169.764308 
L 236.606241 169.764308 
L 239.02283 169.764308 
L 239.02283 169.764308 
L 243.680827 169.764308 
L 244.749875 169.764308 
z
" style="fill: #808080"/>
   </g>
   <g id="text_21">
    <g id="patch_15">
     <path d="M 229.19477 184.738058 
L 272.54102 184.738058 
L 272.54102 115.055558 
L 229.19477 115.055558 
L 229.19477 184.738058 
z
" style="fill: none"/>
    </g>
    <path d="M 237.841486 169.764308 
L 241.533746 169.764308 
L 245.702137 169.764308 
L 240.72073 169.764308 
L 234.980209 169.764308 
L 229.99431 169.764308 
L 234.162701 169.764308 
L 237.841486 169.764308 
z
" style="fill: #808080"/>
   </g>
   <g id="text_22">
    <g id="patch_16">
     <path d="M 229.19477 184.738058 
L 272.54102 184.738058 
L 272.54102 115.055558 
L 229.19477 115.055558 
L 229.19477 184.738058 
z
" style="fill: none"/>
    </g>
    <path d="M 229.684376 169.764308 
L 233.098145 169.764308 
L 234.513062 169.764308 
L 236.22893 169.764308 
L 239.47201 169.764308 
L 241.448402 169.764308 
L 242.571352 169.764308 
L 246.012071 169.764308 
L 243.73922 169.764308 
L 240.087386 169.764308 
L 237.841486 169.764308 
L 235.734832 169.764308 
L 232.127916 169.764308 
L 229.684376 169.764308 
z
" style="fill: #808080"/>
   </g>
   <g id="text_23">
    <g id="patch_17">
     <path d="M 229.19477 184.738058 
L 272.54102 184.738058 
L 272.54102 115.055558 
L 229.19477 115.055558 
L 229.19477 184.738058 
z
" style="fill: none"/>
    </g>
    <path d="M 241.434927 169.764308 
L 241.434927 169.764308 
L 238.6006 169.764308 
L 238.6006 169.764308 
L 245.055318 169.764308 
L 245.055318 169.764308 
Q 243.864991 169.764308 242.423123 169.764308 
Q 240.985747 169.764308 239.341747 169.764308 
Q 235.272176 169.764308 233.053227 169.764308 
Q 230.838769 169.764308 230.838769 169.764308 
Q 230.838769 169.764308 233.075686 169.764308 
Q 235.317094 169.764308 239.539387 169.764308 
Q 240.801583 169.764308 242.023352 169.764308 
Q 243.245122 169.764308 244.314171 169.764308 
L 244.314171 169.764308 
Q 243.442761 169.764308 242.310828 169.764308 
Q 241.183386 169.764308 239.835846 169.764308 
Q 237.47765 169.764308 236.309782 169.764308 
Q 235.146406 169.764308 235.146406 169.764308 
Q 235.146406 169.764308 236.269356 169.764308 
Q 237.392306 169.764308 239.539387 169.764308 
Q 240.186206 169.764308 240.662337 169.764308 
Q 241.138468 169.764308 241.434927 169.764308 
z
" style="fill: #808080"/>
   </g>
   <g id="text_24">
    <g id="patch_18">
     <path d="M 229.19477 184.738058 
L 272.54102 184.738058 
L 272.54102 115.055558 
L 229.19477 115.055558 
L 229.19477 184.738058 
z
" style="fill: none"/>
    </g>
    <path d="M 231.117261 169.764308 
L 235.258701 169.764308 
L 235.258701 169.764308 
L 240.437747 169.764308 
L 240.437747 169.764308 
L 244.579187 169.764308 
L 244.579187 169.764308 
L 240.437747 169.764308 
L 240.437747 169.764308 
L 235.258701 169.764308 
L 235.258701 169.764308 
L 231.117261 169.764308 
L 231.117261 169.764308 
z
" style="fill: #808080"/>
   </g>
   <g id="text_25">
    <g id="patch_19">
     <path d="M 229.19477 184.738058 
L 272.54102 184.738058 
L 272.54102 115.055558 
L 229.19477 115.055558 
L 229.19477 184.738058 
z
" style="fill: none"/>
    </g>
    <path d="M 238.402961 169.764308 
Q 238.205322 169.764308 238.070568 169.764308 
Q 237.940306 169.764308 237.814535 169.764308 
Q 234.207619 169.764308 232.348014 169.764308 
Q 230.488409 169.764308 230.488409 169.764308 
Q 230.488409 169.764308 232.348014 169.764308 
Q 234.207619 169.764308 237.841486 169.764308 
Q 241.49332 169.764308 243.352925 169.764308 
Q 245.212531 169.764308 245.212531 169.764308 
Q 245.212531 169.764308 244.327646 169.764308 
Q 243.442761 169.764308 241.758336 169.764308 
L 244.368072 169.764308 
L 241.533746 169.764308 
L 238.402961 169.764308 
z
M 237.841486 169.764308 
Q 236.25588 169.764308 235.523717 169.764308 
Q 234.796045 169.764308 234.796045 169.764308 
Q 234.796045 169.764308 235.523717 169.764308 
Q 236.25588 169.764308 237.841486 169.764308 
Q 239.440567 169.764308 240.168239 169.764308 
Q 240.900402 169.764308 240.900402 169.764308 
Q 240.900402 169.764308 240.168239 169.764308 
Q 239.440567 169.764308 237.841486 169.764308 
z
" style="fill: #808080"/>
   </g>
   <g id="text_26">
    <g id="patch_20">
     <path d="M 229.19477 184.738058 
L 272.54102 184.738058 
L 272.54102 115.055558 
L 229.19477 115.055558 
L 229.19477 184.738058 
z
" style="fill: none"/>
    </g>
    <path d="M 244.606138 169.764308 
L 231.552965 169.764308 
L 231.552965 169.764308 
L 244.606138 169.764308 
L 244.606138 169.764308 
L 235.694405 169.764308 
L 235.694405 169.764308 
L 243.766171 169.764308 
L 243.766171 169.764308 
L 235.694405 169.764308 
L 235.694405 169.764308 
L 244.606138 169.764308 
L 244.606138 169.764308 
z
" style="fill: #808080"/>
   </g>
   <g id="text_27">
    <g id="patch_21">
     <path d="M 229.19477 184.738058 
L 272.54102 184.738058 
L 272.54102 115.055558 
L 229.19477 115.055558 
L 229.19477 184.738058 
z
" style="fill: none"/>
    </g>
    <path d="M 230.403064 169.764308 
L 235.344045 169.764308 
L 237.841486 169.764308 
L 240.325452 169.764308 
L 245.293383 169.764308 
L 245.293383 169.764308 
L 241.731385 169.764308 
L 241.731385 169.764308 
L 239.512436 169.764308 
L 236.215454 169.764308 
L 233.969554 169.764308 
L 233.969554 169.764308 
L 230.403064 169.764308 
L 230.403064 169.764308 
z
" style="fill: #808080"/>
   </g>
   <g id="text_28">
    <g id="patch_22">
     <path d="M 229.19477 184.738058 
L 272.54102 184.738058 
L 272.54102 115.055558 
L 229.19477 115.055558 
L 229.19477 184.738058 
z
" style="fill: none"/>
    </g>
    <path d="M 240.523091 169.764308 
Q 241.138468 169.764308 241.596631 169.764308 
Q 242.054795 169.764308 242.710598 169.764308 
L 246.501678 169.764308 
L 241.955975 169.764308 
L 239.427092 169.764308 
Q 239.314797 169.764308 239.135125 169.764308 
Q 238.02565 169.764308 236.520897 169.764308 
L 235.204799 169.764308 
L 235.204799 169.764308 
L 231.063359 169.764308 
L 231.063359 169.764308 
L 237.041946 169.764308 
Q 241.084566 169.764308 242.845352 169.764308 
Q 244.606138 169.764308 244.606138 169.764308 
Q 244.606138 169.764308 243.555056 169.764308 
Q 242.503975 169.764308 240.523091 169.764308 
z
M 235.204799 169.764308 
L 235.204799 169.764308 
L 237.154241 169.764308 
Q 238.852141 169.764308 239.588797 169.764308 
Q 240.325452 169.764308 240.325452 169.764308 
Q 240.325452 169.764308 239.593288 169.764308 
Q 238.865617 169.764308 237.154241 169.764308 
L 235.204799 169.764308 
z
" style="fill: #808080"/>
   </g>
   <g id="text_29">
    <g id="patch_23">
     <path d="M 229.19477 184.738058 
L 272.54102 184.738058 
L 272.54102 115.055558 
L 229.19477 115.055558 
L 229.19477 184.738058 
z
" style="fill: none"/>
    </g>
    <path d="M 231.611359 169.764308 
L 231.611359 169.764308 
L 244.089581 169.764308 
L 244.089581 169.764308 
L 239.92119 169.764308 
L 239.92119 169.764308 
L 244.089581 169.764308 
L 244.089581 169.764308 
L 231.611359 169.764308 
L 231.611359 169.764308 
L 235.77975 169.764308 
L 235.77975 169.764308 
L 231.611359 169.764308 
z
" style="fill: #808080"/>
   </g>
   <g id="text_30">
    <g id="patch_24">
     <path d="M 229.19477 184.738058 
L 272.54102 184.738058 
L 272.54102 115.055558 
L 229.19477 115.055558 
L 229.19477 184.738058 
z
" style="fill: none"/>
    </g>
    <path d="M 244.803777 169.764308 
L 235.892045 169.764308 
L 235.892045 169.764308 
L 244.004237 169.764308 
L 244.004237 169.764308 
L 235.892045 169.764308 
L 235.892045 169.764308 
L 231.750604 169.764308 
L 231.750604 169.764308 
L 244.803777 169.764308 
L 244.803777 169.764308 
z
" style="fill: #808080"/>
   </g>
   <g id="text_31">
    <g id="patch_25">
     <path d="M 229.19477 184.738058 
L 272.54102 184.738058 
L 272.54102 115.055558 
L 229.19477 115.055558 
L 229.19477 184.738058 
z
" style="fill: none"/>
    </g>
    <path d="M 239.92119 169.764308 
L 235.77975 169.764308 
L 235.77975 169.764308 
L 230.456966 169.764308 
L 230.456966 169.764308 
L 245.239482 169.764308 
L 245.239482 169.764308 
L 239.92119 169.764308 
L 239.92119 169.764308 
z
" style="fill: #808080"/>
   </g>
   <g id="text_32">
    <g id="patch_26">
     <path d="M 229.19477 184.738058 
L 272.54102 184.738058 
L 272.54102 115.055558 
L 229.19477 115.055558 
L 229.19477 184.738058 
z
" style="fill: none"/>
    </g>
    <path d="M 229.307065 169.764308 
L 233.771915 169.764308 
L 237.841486 169.764308 
L 241.924533 169.764308 
L 246.389383 169.764308 
L 239.92119 169.764308 
L 239.92119 169.764308 
L 235.77975 169.764308 
L 235.77975 169.764308 
L 229.307065 169.764308 
z
" style="fill: #808080"/>
   </g>
   <g id="text_33">
    <g id="patch_27">
     <path d="M 229.19477 184.738058 
L 272.54102 184.738058 
L 272.54102 115.055558 
L 229.19477 115.055558 
L 229.19477 184.738058 
z
" style="fill: none"/>
    </g>
    <path d="M 237.841486 169.764308 
L 235.892045 169.764308 
L 239.808895 169.764308 
L 237.841486 169.764308 
z
M 235.317094 169.764308 
L 240.383845 169.764308 
L 246.039022 169.764308 
L 241.897582 169.764308 
L 240.608435 169.764308 
L 235.061062 169.764308 
L 233.798866 169.764308 
L 229.657425 169.764308 
L 235.317094 169.764308 
z
" style="fill: #808080"/>
   </g>
   <g id="text_34">
    <g id="patch_28">
     <path d="M 229.19477 184.738058 
L 272.54102 184.738058 
L 272.54102 115.055558 
L 229.19477 115.055558 
L 229.19477 184.738058 
z
" style="fill: none"/>
    </g>
    <path d="M 235.258701 169.764308 
L 235.258701 169.764308 
L 236.381651 169.764308 
Q 238.82519 169.764308 239.862796 169.764308 
Q 240.900402 169.764308 240.900402 169.764308 
Q 240.900402 169.764308 239.862796 169.764308 
Q 238.82519 169.764308 236.381651 169.764308 
L 235.258701 169.764308 
z
M 231.117261 169.764308 
L 235.55516 169.764308 
Q 240.689288 169.764308 242.948663 169.764308 
Q 245.212531 169.764308 245.212531 169.764308 
Q 245.212531 169.764308 242.948663 169.764308 
Q 240.689288 169.764308 235.55516 169.764308 
L 231.117261 169.764308 
L 231.117261 169.764308 
z
" style="fill: #808080"/>
   </g>
   <g id="text_35">
    <g id="patch_29">
     <path d="M 229.19477 183.02563 
L 272.54102 183.02563 
L 272.54102 113.34313 
L 229.19477 113.34313 
L 229.19477 183.02563 
z
" style="fill: none"/>
    </g>
    <path d="M 244.368072 167.895335 
Q 243.384368 167.969661 242.301844 168.006495 
Q 241.223812 168.04333 240.033485 168.04333 
Q 235.793225 168.04333 233.5608 167.634864 
Q 231.328375 167.225741 231.328375 166.452881 
Q 231.328375 165.678046 233.5608 165.268924 
Q 235.793225 164.859801 240.033485 164.859801 
Q 241.223812 164.859801 242.319811 164.896635 
Q 243.415811 164.933469 244.368072 165.007795 
L 244.368072 165.681993 
Q 243.303516 165.537945 242.297352 165.471512 
Q 241.295681 165.404421 240.226632 165.404421 
Q 237.953781 165.404421 236.794897 165.668838 
Q 235.636012 165.932597 235.636012 166.452881 
Q 235.636012 166.970533 236.794897 167.23495 
Q 237.953781 167.498709 240.226632 167.498709 
Q 241.295681 167.498709 242.297352 167.432276 
Q 243.303516 167.365185 244.368072 167.221137 
L 244.368072 167.895335 
z
" style="fill: #808080"/>
   </g>
   <g id="text_36">
    <g id="patch_30">
     <path d="M 229.19477 177.904612 
L 272.54102 177.904612 
L 272.54102 108.222112 
L 229.19477 108.222112 
L 229.19477 177.904612 
z
" style="fill: none"/>
    </g>
    <path d="M 232.352506 162.92019 
L 232.352506 157.164304 
L 236.493946 157.164304 
L 236.493946 161.915815 
L 245.351777 161.915815 
L 245.351777 162.92019 
L 232.352506 162.92019 
z
" style="fill: #808080"/>
   </g>
   <g id="text_37">
    <g id="patch_31">
     <path d="M 229.19477 170.110549 
L 272.54102 170.110549 
L 272.54102 100.428049 
L 229.19477 100.428049 
L 229.19477 170.110549 
z
" style="fill: none"/>
    </g>
    <path d="M 230.838769 148.784166 
L 234.980209 148.784166 
L 234.980209 151.290993 
L 241.461877 148.784166 
L 246.151317 148.784166 
L 239.539387 151.283156 
L 246.389383 155.125042 
L 241.785287 155.125042 
L 236.817356 152.270733 
L 234.980209 152.977452 
L 234.980209 155.125042 
L 230.838769 155.125042 
L 230.838769 148.784166 
z
" style="fill: #808080"/>
   </g>
   <g id="text_38">
    <g id="patch_32">
     <path d="M 229.19477 161.25808 
L 272.54102 161.25808 
L 272.54102 91.57558 
L 229.19477 91.57558 
L 229.19477 161.25808 
z
" style="fill: none"/>
    </g>
    <path d="M 230.86572 129.362891 
L 235.317094 129.362891 
L 241.156435 141.642504 
L 241.156435 129.362891 
L 244.803777 129.362891 
L 244.803777 146.253014 
L 240.383845 146.253014 
L 234.513062 133.9734 
L 234.513062 146.253014 
L 230.86572 146.253014 
L 230.86572 129.362891 
z
" style="fill: #808080"/>
   </g>
   <g id="text_39">
    <g id="patch_33">
     <path d="M 262.541898 184.738058 
L 305.888148 184.738058 
L 305.888148 115.055558 
L 262.541898 115.055558 
L 262.541898 184.738058 
z
" style="fill: none"/>
    </g>
    <path d="M 264.185897 169.764308 
L 268.327337 169.764308 
L 268.327337 169.764308 
L 274.809005 169.764308 
L 279.498445 169.764308 
L 272.886514 169.764308 
L 279.73651 169.764308 
L 275.132415 169.764308 
L 270.164483 169.764308 
L 268.327337 169.764308 
L 268.327337 169.764308 
L 264.185897 169.764308 
L 264.185897 169.764308 
z
" style="fill: #808080"/>
   </g>
   <g id="text_40">
    <g id="patch_34">
     <path d="M 262.541898 184.738058 
L 305.888148 184.738058 
L 305.888148 115.055558 
L 262.541898 115.055558 
L 262.541898 184.738058 
z
" style="fill: none"/>
    </g>
    <path d="M 265.699633 169.764308 
L 265.699633 169.764308 
L 269.841074 169.764308 
L 269.841074 169.764308 
L 278.698904 169.764308 
L 278.698904 169.764308 
L 265.699633 169.764308 
z
" style="fill: #808080"/>
   </g>
   <g id="text_41">
    <g id="patch_35">
     <path d="M 262.541898 184.738058 
L 305.888148 184.738058 
L 305.888148 115.055558 
L 262.541898 115.055558 
L 262.541898 184.738058 
z
" style="fill: none"/>
    </g>
    <path d="M 269.701828 169.764308 
Q 266.571043 169.764308 265.461568 169.764308 
Q 264.352093 169.764308 264.352093 169.764308 
Q 264.352093 169.764308 266.175764 169.764308 
Q 268.003927 169.764308 271.188614 169.764308 
Q 272.634974 169.764308 274.081333 169.764308 
Q 275.527693 169.764308 276.94261 169.764308 
L 276.94261 169.764308 
Q 275.608545 169.764308 274.234055 169.764308 
Q 272.859564 169.764308 271.512023 169.764308 
Q 270.011762 169.764308 269.20773 169.764308 
Q 268.408189 169.764308 268.408189 169.764308 
Q 268.408189 169.764308 268.992123 169.764308 
Q 269.576057 169.764308 271.426679 169.764308 
L 273.209924 169.764308 
Q 275.738808 169.764308 276.929135 169.764308 
Q 278.123954 169.764308 278.123954 169.764308 
Q 278.123954 169.764308 276.246381 169.764308 
Q 274.3733 169.764308 270.586712 169.764308 
Q 269.028058 169.764308 267.460419 169.764308 
Q 265.897273 169.764308 264.437437 169.764308 
L 264.437437 169.764308 
Q 266.094912 169.764308 267.644583 169.764308 
Q 269.194254 169.764308 270.712483 169.764308 
Q 272.239695 169.764308 273.079662 169.764308 
Q 273.92412 169.764308 273.92412 169.764308 
Q 273.92412 169.764308 273.362645 169.764308 
Q 272.80117 169.764308 271.736613 169.764308 
L 269.701828 169.764308 
z
" style="fill: #808080"/>
   </g>
   <g id="text_42">
    <g id="patch_36">
     <path d="M 262.541898 184.738058 
L 305.888148 184.738058 
L 305.888148 115.055558 
L 262.541898 115.055558 
L 262.541898 184.738058 
z
" style="fill: none"/>
    </g>
    <path d="M 274.782054 169.764308 
L 274.782054 169.764308 
L 271.947728 169.764308 
L 271.947728 169.764308 
L 278.402445 169.764308 
L 278.402445 169.764308 
Q 277.212118 169.764308 275.77025 169.764308 
Q 274.332874 169.764308 272.688875 169.764308 
Q 268.619304 169.764308 266.400354 169.764308 
Q 264.185897 169.764308 264.185897 169.764308 
Q 264.185897 169.764308 266.422813 169.764308 
Q 268.664222 169.764308 272.886514 169.764308 
Q 274.14871 169.764308 275.37048 169.764308 
Q 276.59225 169.764308 277.661298 169.764308 
L 277.661298 169.764308 
Q 276.789889 169.764308 275.657955 169.764308 
Q 274.530513 169.764308 273.182973 169.764308 
Q 270.824778 169.764308 269.65691 169.764308 
Q 268.493533 169.764308 268.493533 169.764308 
Q 268.493533 169.764308 269.616484 169.764308 
Q 270.739434 169.764308 272.886514 169.764308 
Q 273.533334 169.764308 274.009464 169.764308 
Q 274.485595 169.764308 274.782054 169.764308 
z
" style="fill: #808080"/>
   </g>
   <g id="text_43">
    <g id="patch_37">
     <path d="M 262.541898 184.738058 
L 305.888148 184.738058 
L 305.888148 115.055558 
L 262.541898 115.055558 
L 262.541898 184.738058 
z
" style="fill: none"/>
    </g>
    <path d="M 264.464388 169.764308 
L 268.605828 169.764308 
L 268.605828 169.764308 
L 273.784874 169.764308 
L 273.784874 169.764308 
L 277.926315 169.764308 
L 277.926315 169.764308 
L 273.784874 169.764308 
L 273.784874 169.764308 
L 268.605828 169.764308 
L 268.605828 169.764308 
L 264.464388 169.764308 
L 264.464388 169.764308 
z
" style="fill: #808080"/>
   </g>
   <g id="text_44">
    <g id="patch_38">
     <path d="M 262.541898 184.738058 
L 305.888148 184.738058 
L 305.888148 115.055558 
L 262.541898 115.055558 
L 262.541898 184.738058 
z
" style="fill: none"/>
    </g>
    <path d="M 271.750089 169.764308 
Q 271.55245 169.764308 271.417696 169.764308 
Q 271.287433 169.764308 271.161663 169.764308 
Q 267.554747 169.764308 265.695142 169.764308 
Q 263.835536 169.764308 263.835536 169.764308 
Q 263.835536 169.764308 265.695142 169.764308 
Q 267.554747 169.764308 271.188614 169.764308 
Q 274.840448 169.764308 276.700053 169.764308 
Q 278.559658 169.764308 278.559658 169.764308 
Q 278.559658 169.764308 277.674774 169.764308 
Q 276.789889 169.764308 275.105464 169.764308 
L 277.7152 169.764308 
L 274.880874 169.764308 
L 271.750089 169.764308 
z
M 271.188614 169.764308 
Q 269.603008 169.764308 268.870845 169.764308 
Q 268.143173 169.764308 268.143173 169.764308 
Q 268.143173 169.764308 268.870845 169.764308 
Q 269.603008 169.764308 271.188614 169.764308 
Q 272.787695 169.764308 273.515366 169.764308 
Q 274.24753 169.764308 274.24753 169.764308 
Q 274.24753 169.764308 273.515366 169.764308 
Q 272.787695 169.764308 271.188614 169.764308 
z
" style="fill: #808080"/>
   </g>
   <g id="text_45">
    <g id="patch_39">
     <path d="M 262.541898 184.738058 
L 305.888148 184.738058 
L 305.888148 115.055558 
L 262.541898 115.055558 
L 262.541898 184.738058 
z
" style="fill: none"/>
    </g>
    <path d="M 277.953265 169.764308 
L 264.900093 169.764308 
L 264.900093 169.764308 
L 277.953265 169.764308 
L 277.953265 169.764308 
L 269.041533 169.764308 
L 269.041533 169.764308 
L 277.113299 169.764308 
L 277.113299 169.764308 
L 269.041533 169.764308 
L 269.041533 169.764308 
L 277.953265 169.764308 
L 277.953265 169.764308 
z
" style="fill: #808080"/>
   </g>
   <g id="text_46">
    <g id="patch_40">
     <path d="M 262.541898 184.738058 
L 305.888148 184.738058 
L 305.888148 115.055558 
L 262.541898 115.055558 
L 262.541898 184.738058 
z
" style="fill: none"/>
    </g>
    <path d="M 263.750192 169.764308 
L 268.691173 169.764308 
L 271.188614 169.764308 
L 273.672579 169.764308 
L 278.640511 169.764308 
L 278.640511 169.764308 
L 275.078513 169.764308 
L 275.078513 169.764308 
L 272.859564 169.764308 
L 269.562582 169.764308 
L 267.316682 169.764308 
L 267.316682 169.764308 
L 263.750192 169.764308 
L 263.750192 169.764308 
z
" style="fill: #808080"/>
   </g>
   <g id="text_47">
    <g id="patch_41">
     <path d="M 262.541898 184.738058 
L 305.888148 184.738058 
L 305.888148 115.055558 
L 262.541898 115.055558 
L 262.541898 184.738058 
z
" style="fill: none"/>
    </g>
    <path d="M 273.870219 169.764308 
Q 274.485595 169.764308 274.943759 169.764308 
Q 275.401923 169.764308 276.057726 169.764308 
L 279.848805 169.764308 
L 275.303103 169.764308 
L 272.774219 169.764308 
Q 272.661924 169.764308 272.482252 169.764308 
Q 271.372778 169.764308 269.868024 169.764308 
L 268.551927 169.764308 
L 268.551927 169.764308 
L 264.410487 169.764308 
L 264.410487 169.764308 
L 270.389073 169.764308 
Q 274.431694 169.764308 276.19248 169.764308 
Q 277.953265 169.764308 277.953265 169.764308 
Q 277.953265 169.764308 276.902184 169.764308 
Q 275.851103 169.764308 273.870219 169.764308 
z
M 268.551927 169.764308 
L 268.551927 169.764308 
L 270.501368 169.764308 
Q 272.199269 169.764308 272.935924 169.764308 
Q 273.672579 169.764308 273.672579 169.764308 
Q 273.672579 169.764308 272.940416 169.764308 
Q 272.212744 169.764308 270.501368 169.764308 
L 268.551927 169.764308 
z
" style="fill: #808080"/>
   </g>
   <g id="text_48">
    <g id="patch_42">
     <path d="M 262.541898 184.738058 
L 305.888148 184.738058 
L 305.888148 115.055558 
L 262.541898 115.055558 
L 262.541898 184.738058 
z
" style="fill: none"/>
    </g>
    <path d="M 264.958486 169.764308 
L 264.958486 169.764308 
L 277.436708 169.764308 
L 277.436708 169.764308 
L 273.268317 169.764308 
L 273.268317 169.764308 
L 277.436708 169.764308 
L 277.436708 169.764308 
L 264.958486 169.764308 
L 264.958486 169.764308 
L 269.126877 169.764308 
L 269.126877 169.764308 
L 264.958486 169.764308 
z
" style="fill: #808080"/>
   </g>
   <g id="text_49">
    <g id="patch_43">
     <path d="M 262.541898 184.738058 
L 305.888148 184.738058 
L 305.888148 115.055558 
L 262.541898 115.055558 
L 262.541898 184.738058 
z
" style="fill: none"/>
    </g>
    <path d="M 278.150905 169.764308 
L 269.239172 169.764308 
L 269.239172 169.764308 
L 277.351364 169.764308 
L 277.351364 169.764308 
L 269.239172 169.764308 
L 269.239172 169.764308 
L 265.097732 169.764308 
L 265.097732 169.764308 
L 278.150905 169.764308 
L 278.150905 169.764308 
z
" style="fill: #808080"/>
   </g>
   <g id="text_50">
    <g id="patch_44">
     <path d="M 262.541898 184.738058 
L 305.888148 184.738058 
L 305.888148 115.055558 
L 262.541898 115.055558 
L 262.541898 184.738058 
z
" style="fill: none"/>
    </g>
    <path d="M 273.268317 169.764308 
L 269.126877 169.764308 
L 269.126877 169.764308 
L 263.804094 169.764308 
L 263.804094 169.764308 
L 278.586609 169.764308 
L 278.586609 169.764308 
L 273.268317 169.764308 
L 273.268317 169.764308 
z
" style="fill: #808080"/>
   </g>
   <g id="text_51">
    <g id="patch_45">
     <path d="M 262.541898 184.738058 
L 305.888148 184.738058 
L 305.888148 115.055558 
L 262.541898 115.055558 
L 262.541898 184.738058 
z
" style="fill: none"/>
    </g>
    <path d="M 262.654193 169.764308 
L 267.119042 169.764308 
L 271.188614 169.764308 
L 275.27166 169.764308 
L 279.73651 169.764308 
L 273.268317 169.764308 
L 273.268317 169.764308 
L 269.126877 169.764308 
L 269.126877 169.764308 
L 262.654193 169.764308 
z
" style="fill: #808080"/>
   </g>
   <g id="text_52">
    <g id="patch_46">
     <path d="M 262.541898 184.738058 
L 305.888148 184.738058 
L 305.888148 115.055558 
L 262.541898 115.055558 
L 262.541898 184.738058 
z
" style="fill: none"/>
    </g>
    <path d="M 271.188614 169.764308 
L 269.239172 169.764308 
L 273.156022 169.764308 
L 271.188614 169.764308 
z
M 268.664222 169.764308 
L 273.730973 169.764308 
L 279.38615 169.764308 
L 275.24471 169.764308 
L 273.955563 169.764308 
L 268.408189 169.764308 
L 267.145993 169.764308 
L 263.004553 169.764308 
L 268.664222 169.764308 
z
" style="fill: #808080"/>
   </g>
   <g id="text_53">
    <g id="patch_47">
     <path d="M 262.541898 184.738058 
L 305.888148 184.738058 
L 305.888148 115.055558 
L 262.541898 115.055558 
L 262.541898 184.738058 
z
" style="fill: none"/>
    </g>
    <path d="M 268.605828 169.764308 
L 268.605828 169.764308 
L 269.728779 169.764308 
Q 272.172318 169.764308 273.209924 169.764308 
Q 274.24753 169.764308 274.24753 169.764308 
Q 274.24753 169.764308 273.209924 169.764308 
Q 272.172318 169.764308 269.728779 169.764308 
L 268.605828 169.764308 
z
M 264.464388 169.764308 
L 268.902287 169.764308 
Q 274.036415 169.764308 276.295791 169.764308 
Q 278.559658 169.764308 278.559658 169.764308 
Q 278.559658 169.764308 276.295791 169.764308 
Q 274.036415 169.764308 268.902287 169.764308 
L 264.464388 169.764308 
L 264.464388 169.764308 
z
" style="fill: #808080"/>
   </g>
   <g id="text_54">
    <g id="patch_48">
     <path d="M 262.541898 184.731919 
L 305.888148 184.731919 
L 305.888148 115.049419 
L 262.541898 115.049419 
L 262.541898 184.731919 
z
" style="fill: none"/>
    </g>
    <path d="M 278.097003 169.754714 
L 273.461465 169.755634 
L 278.097003 169.756562 
L 277.027954 169.757312 
L 272.369957 169.75633 
L 272.369957 169.758166 
L 269.953369 169.758166 
L 269.953369 169.75633 
L 265.308847 169.757312 
L 264.239798 169.756562 
L 268.902287 169.755634 
L 264.239798 169.754714 
L 265.308847 169.753962 
L 269.953369 169.754933 
L 269.953369 169.753098 
L 272.369957 169.753098 
L 272.369957 169.754933 
L 277.027954 169.753962 
L 278.097003 169.754714 
z
" style="fill: #808080"/>
   </g>
   <g id="text_55">
    <g id="patch_49">
     <path d="M 262.541898 183.763277 
L 305.888148 183.763277 
L 305.888148 114.080777 
L 262.541898 114.080777 
L 262.541898 183.763277 
z
" style="fill: none"/>
    </g>
    <path d="M 277.7152 168.750574 
Q 276.731496 168.769068 275.648972 168.778234 
Q 274.57094 168.787399 273.380612 168.787399 
Q 269.140353 168.787399 266.907928 168.685763 
Q 264.675503 168.583964 264.675503 168.391658 
Q 264.675503 168.198861 266.907928 168.097062 
Q 269.140353 167.995262 273.380612 167.995262 
Q 274.57094 167.995262 275.666939 168.004427 
Q 276.762938 168.013593 277.7152 168.032087 
L 277.7152 168.199843 
Q 276.650643 168.164 275.64448 168.14747 
Q 274.642808 168.130777 273.57376 168.130777 
Q 271.300909 168.130777 270.142024 168.19657 
Q 268.98314 168.262199 268.98314 168.391658 
Q 268.98314 168.520462 270.142024 168.586255 
Q 271.300909 168.651885 273.57376 168.651885 
Q 274.642808 168.651885 275.64448 168.635355 
Q 276.650643 168.618661 277.7152 168.582818 
L 277.7152 168.750574 
z
" style="fill: #808080"/>
   </g>
   <g id="text_56">
    <g id="patch_50">
     <path d="M 262.541898 181.172703 
L 305.888148 181.172703 
L 305.888148 111.490203 
L 262.541898 111.490203 
L 262.541898 181.172703 
z
" style="fill: none"/>
    </g>
    <path d="M 271.188614 165.444339 
L 274.880874 161.662876 
L 279.049265 161.662876 
L 274.067858 166.190558 
L 268.327337 166.190558 
L 263.341438 161.662876 
L 267.509829 161.662876 
L 271.188614 165.444339 
z
" style="fill: #808080"/>
   </g>
   <g id="text_57">
    <g id="patch_51">
     <path d="M 262.541898 174.683836 
L 305.888148 174.683836 
L 305.888148 105.001336 
L 262.541898 105.001336 
L 262.541898 174.683836 
z
" style="fill: none"/>
    </g>
    <path d="M 263.031504 154.204623 
L 266.445272 154.204623 
L 267.860189 158.23834 
L 269.576057 155.631085 
L 272.819137 155.631085 
L 274.79553 158.23834 
L 275.91848 154.204623 
L 279.359199 154.204623 
L 277.086348 159.699897 
L 273.434514 159.699897 
L 271.188614 156.816407 
L 269.081959 159.699897 
L 265.475043 159.699897 
L 263.031504 154.204623 
z
" style="fill: #808080"/>
   </g>
   <g id="text_58">
    <g id="patch_52">
     <path d="M 262.541898 167.008633 
L 305.888148 167.008633 
L 305.888148 97.326133 
L 262.541898 97.326133 
L 262.541898 167.008633 
z
" style="fill: none"/>
    </g>
    <path d="M 268.956189 143.817441 
L 268.956189 146.704486 
L 270.654089 146.704486 
Q 272.688875 146.704486 273.510875 146.382352 
Q 274.332874 146.058193 274.332874 145.25995 
Q 274.332874 144.461708 273.510875 144.139574 
Q 272.688875 143.817441 270.654089 143.817441 
L 268.956189 143.817441 
z
M 264.814749 142.182461 
L 270.501368 142.182461 
Q 274.840448 142.182461 276.740479 142.907768 
Q 278.640511 143.633075 278.640511 145.25995 
Q 278.640511 146.886826 276.740479 147.612132 
Q 274.840448 148.337439 270.501368 148.337439 
L 268.956189 148.337439 
L 268.956189 152.016649 
L 264.814749 152.016649 
L 264.814749 142.182461 
z
" style="fill: #808080"/>
   </g>
   <g id="text_59">
    <g id="patch_53">
     <path d="M 262.541898 154.728786 
L 305.888148 154.728786 
L 305.888148 85.046286 
L 262.541898 85.046286 
L 262.541898 154.728786 
z
" style="fill: none"/>
    </g>
    <path d="M 264.212847 127.055564 
L 268.664222 127.055564 
L 274.503563 136.271365 
L 274.503563 127.055564 
L 278.150905 127.055564 
L 278.150905 139.731533 
L 273.730973 139.731533 
L 267.860189 130.515733 
L 267.860189 139.731533 
L 264.212847 139.731533 
L 264.212847 127.055564 
z
" style="fill: #808080"/>
   </g>
   <g id="text_60">
    <g id="patch_54">
     <path d="M 295.889025 184.738058 
L 339.235275 184.738058 
L 339.235275 115.055558 
L 295.889025 115.055558 
L 295.889025 184.738058 
z
" style="fill: none"/>
    </g>
    <path d="M 311.062328 169.764308 
Q 310.078623 169.764308 308.996099 169.764308 
Q 307.918067 169.764308 306.72774 169.764308 
Q 302.48748 169.764308 300.255055 169.764308 
Q 298.02263 169.764308 298.02263 169.764308 
Q 298.02263 169.764308 300.255055 169.764308 
Q 302.48748 169.764308 306.72774 169.764308 
Q 307.918067 169.764308 309.014067 169.764308 
Q 310.110066 169.764308 311.062328 169.764308 
L 311.062328 169.764308 
Q 309.997771 169.764308 308.991608 169.764308 
Q 307.989936 169.764308 306.920887 169.764308 
Q 304.648036 169.764308 303.489152 169.764308 
Q 302.330267 169.764308 302.330267 169.764308 
Q 302.330267 169.764308 303.489152 169.764308 
Q 304.648036 169.764308 306.920887 169.764308 
Q 307.989936 169.764308 308.991608 169.764308 
Q 309.997771 169.764308 311.062328 169.764308 
L 311.062328 169.764308 
z
" style="fill: #e69f00"/>
   </g>
   <g id="text_61">
    <g id="patch_55">
     <path d="M 295.889025 184.738058 
L 339.235275 184.738058 
L 339.235275 115.055558 
L 295.889025 115.055558 
L 295.889025 184.738058 
z
" style="fill: none"/>
    </g>
    <path d="M 297.533024 169.764308 
L 301.674464 169.764308 
L 301.674464 169.764308 
L 308.156133 169.764308 
L 312.845572 169.764308 
L 306.233642 169.764308 
L 313.083638 169.764308 
L 308.479542 169.764308 
L 303.511611 169.764308 
L 301.674464 169.764308 
L 301.674464 169.764308 
L 297.533024 169.764308 
L 297.533024 169.764308 
z
" style="fill: #e69f00"/>
   </g>
   <g id="text_62">
    <g id="patch_56">
     <path d="M 295.889025 184.738058 
L 339.235275 184.738058 
L 339.235275 115.055558 
L 295.889025 115.055558 
L 295.889025 184.738058 
z
" style="fill: none"/>
    </g>
    <path d="M 302.303316 169.764308 
L 302.303316 169.764308 
L 304.001217 169.764308 
Q 306.036003 169.764308 306.858002 169.764308 
Q 307.680002 169.764308 307.680002 169.764308 
Q 307.680002 169.764308 306.858002 169.764308 
Q 306.036003 169.764308 304.001217 169.764308 
L 302.303316 169.764308 
z
M 298.161876 169.764308 
L 303.848496 169.764308 
Q 308.187575 169.764308 310.087607 169.764308 
Q 311.987639 169.764308 311.987639 169.764308 
Q 311.987639 169.764308 310.087607 169.764308 
Q 308.187575 169.764308 303.848496 169.764308 
L 302.303316 169.764308 
L 302.303316 169.764308 
L 298.161876 169.764308 
L 298.161876 169.764308 
z
" style="fill: #e69f00"/>
   </g>
   <g id="text_63">
    <g id="patch_57">
     <path d="M 295.889025 184.738058 
L 339.235275 184.738058 
L 339.235275 115.055558 
L 295.889025 115.055558 
L 295.889025 184.738058 
z
" style="fill: none"/>
    </g>
    <path d="M 303.048955 169.764308 
Q 299.91817 169.764308 298.808696 169.764308 
Q 297.699221 169.764308 297.699221 169.764308 
Q 297.699221 169.764308 299.522892 169.764308 
Q 301.351055 169.764308 304.535741 169.764308 
Q 305.982101 169.764308 307.428461 169.764308 
Q 308.874821 169.764308 310.289738 169.764308 
L 310.289738 169.764308 
Q 308.955673 169.764308 307.581182 169.764308 
Q 306.206691 169.764308 304.859151 169.764308 
Q 303.35889 169.764308 302.554857 169.764308 
Q 301.755317 169.764308 301.755317 169.764308 
Q 301.755317 169.764308 302.339251 169.764308 
Q 302.923185 169.764308 304.773807 169.764308 
L 306.557052 169.764308 
Q 309.085935 169.764308 310.276262 169.764308 
Q 311.471081 169.764308 311.471081 169.764308 
Q 311.471081 169.764308 309.593509 169.764308 
Q 307.720428 169.764308 303.93384 169.764308 
Q 302.375185 169.764308 300.807547 169.764308 
Q 299.2444 169.764308 297.784565 169.764308 
L 297.784565 169.764308 
Q 299.442039 169.764308 300.991711 169.764308 
Q 302.541382 169.764308 304.05961 169.764308 
Q 305.586823 169.764308 306.426789 169.764308 
Q 307.271248 169.764308 307.271248 169.764308 
Q 307.271248 169.764308 306.709773 169.764308 
Q 306.148298 169.764308 305.083741 169.764308 
L 303.048955 169.764308 
z
" style="fill: #e69f00"/>
   </g>
   <g id="text_64">
    <g id="patch_58">
     <path d="M 295.889025 184.738058 
L 339.235275 184.738058 
L 339.235275 115.055558 
L 295.889025 115.055558 
L 295.889025 184.738058 
z
" style="fill: none"/>
    </g>
    <path d="M 311.444131 169.764308 
L 306.808592 169.764308 
L 311.444131 169.764308 
L 310.375082 169.764308 
L 305.717085 169.764308 
L 305.717085 169.764308 
L 303.300496 169.764308 
L 303.300496 169.764308 
L 298.655974 169.764308 
L 297.586926 169.764308 
L 302.249415 169.764308 
L 297.586926 169.764308 
L 298.655974 169.764308 
L 303.300496 169.764308 
L 303.300496 169.764308 
L 305.717085 169.764308 
L 305.717085 169.764308 
L 310.375082 169.764308 
L 311.444131 169.764308 
z
" style="fill: #e69f00"/>
   </g>
   <g id="text_65">
    <g id="patch_59">
     <path d="M 295.889025 184.738058 
L 339.235275 184.738058 
L 339.235275 115.055558 
L 295.889025 115.055558 
L 295.889025 184.738058 
z
" style="fill: none"/>
    </g>
    <path d="M 304.535741 169.764308 
L 308.228001 169.764308 
L 312.396392 169.764308 
L 307.414986 169.764308 
L 301.674464 169.764308 
L 296.688566 169.764308 
L 300.856957 169.764308 
L 304.535741 169.764308 
z
" style="fill: #e69f00"/>
   </g>
   <g id="text_66">
    <g id="patch_60">
     <path d="M 295.889025 184.738058 
L 339.235275 184.738058 
L 339.235275 115.055558 
L 295.889025 115.055558 
L 295.889025 184.738058 
z
" style="fill: none"/>
    </g>
    <path d="M 296.378631 169.764308 
L 299.7924 169.764308 
L 301.207317 169.764308 
L 302.923185 169.764308 
L 306.166265 169.764308 
L 308.142657 169.764308 
L 309.265607 169.764308 
L 312.706327 169.764308 
L 310.433476 169.764308 
L 306.781642 169.764308 
L 304.535741 169.764308 
L 302.429087 169.764308 
L 298.822171 169.764308 
L 296.378631 169.764308 
z
" style="fill: #e69f00"/>
   </g>
   <g id="text_67">
    <g id="patch_61">
     <path d="M 295.889025 184.738058 
L 339.235275 184.738058 
L 339.235275 115.055558 
L 295.889025 115.055558 
L 295.889025 184.738058 
z
" style="fill: none"/>
    </g>
    <path d="M 308.129182 169.764308 
L 308.129182 169.764308 
L 305.294856 169.764308 
L 305.294856 169.764308 
L 311.749573 169.764308 
L 311.749573 169.764308 
Q 310.559246 169.764308 309.117378 169.764308 
Q 307.680002 169.764308 306.036003 169.764308 
Q 301.966431 169.764308 299.747482 169.764308 
Q 297.533024 169.764308 297.533024 169.764308 
Q 297.533024 169.764308 299.769941 169.764308 
Q 302.011349 169.764308 306.233642 169.764308 
Q 307.495838 169.764308 308.717608 169.764308 
Q 309.939377 169.764308 311.008426 169.764308 
L 311.008426 169.764308 
Q 310.137017 169.764308 309.005083 169.764308 
Q 307.877641 169.764308 306.530101 169.764308 
Q 304.171905 169.764308 303.004037 169.764308 
Q 301.840661 169.764308 301.840661 169.764308 
Q 301.840661 169.764308 302.963611 169.764308 
Q 304.086561 169.764308 306.233642 169.764308 
Q 306.880461 169.764308 307.356592 169.764308 
Q 307.832723 169.764308 308.129182 169.764308 
z
" style="fill: #e69f00"/>
   </g>
   <g id="text_68">
    <g id="patch_62">
     <path d="M 295.889025 184.738058 
L 339.235275 184.738058 
L 339.235275 115.055558 
L 295.889025 115.055558 
L 295.889025 184.738058 
z
" style="fill: none"/>
    </g>
    <path d="M 297.811516 169.764308 
L 301.952956 169.764308 
L 301.952956 169.764308 
L 307.132002 169.764308 
L 307.132002 169.764308 
L 311.273442 169.764308 
L 311.273442 169.764308 
L 307.132002 169.764308 
L 307.132002 169.764308 
L 301.952956 169.764308 
L 301.952956 169.764308 
L 297.811516 169.764308 
L 297.811516 169.764308 
z
" style="fill: #e69f00"/>
   </g>
   <g id="text_69">
    <g id="patch_63">
     <path d="M 295.889025 184.738058 
L 339.235275 184.738058 
L 339.235275 115.055558 
L 295.889025 115.055558 
L 295.889025 184.738058 
z
" style="fill: none"/>
    </g>
    <path d="M 305.097216 169.764308 
Q 304.899577 169.764308 304.764823 169.764308 
Q 304.634561 169.764308 304.508791 169.764308 
Q 300.901875 169.764308 299.042269 169.764308 
Q 297.182664 169.764308 297.182664 169.764308 
Q 297.182664 169.764308 299.042269 169.764308 
Q 300.901875 169.764308 304.535741 169.764308 
Q 308.187575 169.764308 310.047181 169.764308 
Q 311.906786 169.764308 311.906786 169.764308 
Q 311.906786 169.764308 311.021901 169.764308 
Q 310.137017 169.764308 308.452591 169.764308 
L 311.062328 169.764308 
L 308.228001 169.764308 
L 305.097216 169.764308 
z
M 304.535741 169.764308 
Q 302.950136 169.764308 302.217972 169.764308 
Q 301.490301 169.764308 301.490301 169.764308 
Q 301.490301 169.764308 302.217972 169.764308 
Q 302.950136 169.764308 304.535741 169.764308 
Q 306.134822 169.764308 306.862494 169.764308 
Q 307.594658 169.764308 307.594658 169.764308 
Q 307.594658 169.764308 306.862494 169.764308 
Q 306.134822 169.764308 304.535741 169.764308 
z
" style="fill: #e69f00"/>
   </g>
   <g id="text_70">
    <g id="patch_64">
     <path d="M 295.889025 184.738058 
L 339.235275 184.738058 
L 339.235275 115.055558 
L 295.889025 115.055558 
L 295.889025 184.738058 
z
" style="fill: none"/>
    </g>
    <path d="M 311.300393 169.764308 
L 298.24722 169.764308 
L 298.24722 169.764308 
L 311.300393 169.764308 
L 311.300393 169.764308 
L 302.388661 169.764308 
L 302.388661 169.764308 
L 310.460426 169.764308 
L 310.460426 169.764308 
L 302.388661 169.764308 
L 302.388661 169.764308 
L 311.300393 169.764308 
L 311.300393 169.764308 
z
" style="fill: #e69f00"/>
   </g>
   <g id="text_71">
    <g id="patch_65">
     <path d="M 295.889025 184.738058 
L 339.235275 184.738058 
L 339.235275 115.055558 
L 295.889025 115.055558 
L 295.889025 184.738058 
z
" style="fill: none"/>
    </g>
    <path d="M 297.09732 169.764308 
L 302.0383 169.764308 
L 304.535741 169.764308 
L 307.019707 169.764308 
L 311.987639 169.764308 
L 311.987639 169.764308 
L 308.425641 169.764308 
L 308.425641 169.764308 
L 306.206691 169.764308 
L 302.90971 169.764308 
L 300.663809 169.764308 
L 300.663809 169.764308 
L 297.09732 169.764308 
L 297.09732 169.764308 
z
" style="fill: #e69f00"/>
   </g>
   <g id="text_72">
    <g id="patch_66">
     <path d="M 295.889025 184.738058 
L 339.235275 184.738058 
L 339.235275 115.055558 
L 295.889025 115.055558 
L 295.889025 184.738058 
z
" style="fill: none"/>
    </g>
    <path d="M 307.217346 169.764308 
Q 307.832723 169.764308 308.290887 169.764308 
Q 308.74905 169.764308 309.404853 169.764308 
L 313.195933 169.764308 
L 308.650231 169.764308 
L 306.121347 169.764308 
Q 306.009052 169.764308 305.82938 169.764308 
Q 304.719905 169.764308 303.215152 169.764308 
L 301.899054 169.764308 
L 301.899054 169.764308 
L 297.757614 169.764308 
L 297.757614 169.764308 
L 303.736201 169.764308 
Q 307.778821 169.764308 309.539607 169.764308 
Q 311.300393 169.764308 311.300393 169.764308 
Q 311.300393 169.764308 310.249312 169.764308 
Q 309.19823 169.764308 307.217346 169.764308 
z
M 301.899054 169.764308 
L 301.899054 169.764308 
L 303.848496 169.764308 
Q 305.546396 169.764308 306.283052 169.764308 
Q 307.019707 169.764308 307.019707 169.764308 
Q 307.019707 169.764308 306.287544 169.764308 
Q 305.559872 169.764308 303.848496 169.764308 
L 301.899054 169.764308 
z
" style="fill: #e69f00"/>
   </g>
   <g id="text_73">
    <g id="patch_67">
     <path d="M 295.889025 184.738058 
L 339.235275 184.738058 
L 339.235275 115.055558 
L 295.889025 115.055558 
L 295.889025 184.738058 
z
" style="fill: none"/>
    </g>
    <path d="M 298.305614 169.764308 
L 298.305614 169.764308 
L 310.783836 169.764308 
L 310.783836 169.764308 
L 306.615445 169.764308 
L 306.615445 169.764308 
L 310.783836 169.764308 
L 310.783836 169.764308 
L 298.305614 169.764308 
L 298.305614 169.764308 
L 302.474005 169.764308 
L 302.474005 169.764308 
L 298.305614 169.764308 
z
" style="fill: #e69f00"/>
   </g>
   <g id="text_74">
    <g id="patch_68">
     <path d="M 295.889025 184.738058 
L 339.235275 184.738058 
L 339.235275 115.055558 
L 295.889025 115.055558 
L 295.889025 184.738058 
z
" style="fill: none"/>
    </g>
    <path d="M 311.498032 169.764308 
L 302.5863 169.764308 
L 302.5863 169.764308 
L 310.698492 169.764308 
L 310.698492 169.764308 
L 302.5863 169.764308 
L 302.5863 169.764308 
L 298.44486 169.764308 
L 298.44486 169.764308 
L 311.498032 169.764308 
L 311.498032 169.764308 
z
" style="fill: #e69f00"/>
   </g>
   <g id="text_75">
    <g id="patch_69">
     <path d="M 295.889025 184.738058 
L 339.235275 184.738058 
L 339.235275 115.055558 
L 295.889025 115.055558 
L 295.889025 184.738058 
z
" style="fill: none"/>
    </g>
    <path d="M 306.615445 169.764308 
L 302.474005 169.764308 
L 302.474005 169.764308 
L 297.151221 169.764308 
L 297.151221 169.764308 
L 311.933737 169.764308 
L 311.933737 169.764308 
L 306.615445 169.764308 
L 306.615445 169.764308 
z
" style="fill: #e69f00"/>
   </g>
   <g id="text_76">
    <g id="patch_70">
     <path d="M 295.889025 184.738058 
L 339.235275 184.738058 
L 339.235275 115.055558 
L 295.889025 115.055558 
L 295.889025 184.738058 
z
" style="fill: none"/>
    </g>
    <path d="M 296.00132 169.764308 
L 300.46617 169.764308 
L 304.535741 169.764308 
L 308.618788 169.764308 
L 313.083638 169.764308 
L 306.615445 169.764308 
L 306.615445 169.764308 
L 302.474005 169.764308 
L 302.474005 169.764308 
L 296.00132 169.764308 
z
" style="fill: #e69f00"/>
   </g>
   <g id="text_77">
    <g id="patch_71">
     <path d="M 295.889025 184.738058 
L 339.235275 184.738058 
L 339.235275 115.055558 
L 295.889025 115.055558 
L 295.889025 184.738058 
z
" style="fill: none"/>
    </g>
    <path d="M 304.535741 169.764308 
L 302.5863 169.764308 
L 306.50315 169.764308 
L 304.535741 169.764308 
z
M 302.011349 169.764308 
L 307.0781 169.764308 
L 312.733277 169.764308 
L 308.591837 169.764308 
L 307.30269 169.764308 
L 301.755317 169.764308 
L 300.493121 169.764308 
L 296.351681 169.764308 
L 302.011349 169.764308 
z
" style="fill: #e69f00"/>
   </g>
   <g id="text_78">
    <g id="patch_72">
     <path d="M 295.889025 183.023303 
L 339.235275 183.023303 
L 339.235275 113.340803 
L 295.889025 113.340803 
L 295.889025 183.023303 
z
" style="fill: none"/>
    </g>
    <path d="M 299.046761 168.043533 
L 299.046761 164.796733 
L 303.188201 164.796733 
L 303.188201 167.476982 
L 312.046032 167.476982 
L 312.046032 168.043533 
L 299.046761 168.043533 
z
" style="fill: #e69f00"/>
   </g>
   <g id="text_79">
    <g id="patch_73">
     <path d="M 295.889025 177.921916 
L 339.235275 177.921916 
L 339.235275 108.239416 
L 295.889025 108.239416 
L 295.889025 177.921916 
z
" style="fill: none"/>
    </g>
    <path d="M 297.559975 158.938447 
L 302.011349 158.938447 
L 307.85069 161.848235 
L 307.85069 158.938447 
L 311.498032 158.938447 
L 311.498032 162.940745 
L 307.0781 162.940745 
L 301.207317 160.030957 
L 301.207317 162.940745 
L 297.559975 162.940745 
L 297.559975 158.938447 
z
" style="fill: #e69f00"/>
   </g>
   <g id="text_80">
    <g id="patch_74">
     <path d="M 295.889025 171.123726 
L 339.235275 171.123726 
L 339.235275 101.441226 
L 295.889025 101.441226 
L 295.889025 171.123726 
z
" style="fill: none"/>
    </g>
    <path d="M 301.952956 135.324482 
L 301.952956 151.59098 
L 303.075906 151.59098 
Q 305.519446 151.59098 306.557052 149.73612 
Q 307.594658 147.876049 307.594658 143.43168 
Q 307.594658 139.018572 306.557052 137.174132 
Q 305.519446 135.324482 303.075906 135.324482 
L 301.952956 135.324482 
z
M 297.811516 130.812379 
L 302.249415 130.812379 
Q 307.383543 130.812379 309.642919 133.771818 
Q 311.906786 136.726048 311.906786 143.43168 
Q 311.906786 150.158153 309.642919 153.133223 
Q 307.383543 156.103083 302.249415 156.103083 
L 297.811516 156.103083 
L 297.811516 130.812379 
z
" style="fill: #e69f00"/>
   </g>
   <g id="text_81">
    <g id="patch_75">
     <path d="M 329.236153 184.738058 
L 372.582403 184.738058 
L 372.582403 115.055558 
L 329.236153 115.055558 
L 329.236153 184.738058 
z
" style="fill: none"/>
    </g>
    <path d="M 330.880152 169.764308 
L 335.021592 169.764308 
L 335.021592 169.764308 
L 341.50326 169.764308 
L 346.1927 169.764308 
L 339.58077 169.764308 
L 346.430765 169.764308 
L 341.82667 169.764308 
L 336.858738 169.764308 
L 335.021592 169.764308 
L 335.021592 169.764308 
L 330.880152 169.764308 
L 330.880152 169.764308 
z
" style="fill: #808080"/>
   </g>
   <g id="text_82">
    <g id="patch_76">
     <path d="M 329.236153 184.738058 
L 372.582403 184.738058 
L 372.582403 115.055558 
L 329.236153 115.055558 
L 329.236153 184.738058 
z
" style="fill: none"/>
    </g>
    <path d="M 332.393889 169.764308 
L 332.393889 169.764308 
L 336.535329 169.764308 
L 336.535329 169.764308 
L 345.39316 169.764308 
L 345.39316 169.764308 
L 332.393889 169.764308 
z
" style="fill: #808080"/>
   </g>
   <g id="text_83">
    <g id="patch_77">
     <path d="M 329.236153 184.738058 
L 372.582403 184.738058 
L 372.582403 115.055558 
L 329.236153 115.055558 
L 329.236153 184.738058 
z
" style="fill: none"/>
    </g>
    <path d="M 330.907103 169.764308 
L 335.358477 169.764308 
L 341.197818 169.764308 
L 341.197818 169.764308 
L 344.84516 169.764308 
L 344.84516 169.764308 
L 340.425228 169.764308 
L 334.554445 169.764308 
L 334.554445 169.764308 
L 330.907103 169.764308 
L 330.907103 169.764308 
z
" style="fill: #808080"/>
   </g>
   <g id="text_84">
    <g id="patch_78">
     <path d="M 329.236153 184.738058 
L 372.582403 184.738058 
L 372.582403 115.055558 
L 329.236153 115.055558 
L 329.236153 184.738058 
z
" style="fill: none"/>
    </g>
    <path d="M 335.650444 169.764308 
L 335.650444 169.764308 
L 337.348345 169.764308 
Q 339.38313 169.764308 340.20513 169.764308 
Q 341.027129 169.764308 341.027129 169.764308 
Q 341.027129 169.764308 340.20513 169.764308 
Q 339.38313 169.764308 337.348345 169.764308 
L 335.650444 169.764308 
z
M 331.509004 169.764308 
L 337.195623 169.764308 
Q 341.534703 169.764308 343.434734 169.764308 
Q 345.334766 169.764308 345.334766 169.764308 
Q 345.334766 169.764308 343.434734 169.764308 
Q 341.534703 169.764308 337.195623 169.764308 
L 335.650444 169.764308 
L 335.650444 169.764308 
L 331.509004 169.764308 
L 331.509004 169.764308 
z
" style="fill: #808080"/>
   </g>
   <g id="text_85">
    <g id="patch_79">
     <path d="M 329.236153 184.738058 
L 372.582403 184.738058 
L 372.582403 115.055558 
L 329.236153 115.055558 
L 329.236153 184.738058 
z
" style="fill: none"/>
    </g>
    <path d="M 344.791258 169.764308 
L 340.15572 169.764308 
L 344.791258 169.764308 
L 343.72221 169.764308 
L 339.064213 169.764308 
L 339.064213 169.764308 
L 336.647624 169.764308 
L 336.647624 169.764308 
L 332.003102 169.764308 
L 330.934053 169.764308 
L 335.596542 169.764308 
L 330.934053 169.764308 
L 332.003102 169.764308 
L 336.647624 169.764308 
L 336.647624 169.764308 
L 339.064213 169.764308 
L 339.064213 169.764308 
L 343.72221 169.764308 
L 344.791258 169.764308 
z
" style="fill: #808080"/>
   </g>
   <g id="text_86">
    <g id="patch_80">
     <path d="M 329.236153 184.738058 
L 372.582403 184.738058 
L 372.582403 115.055558 
L 329.236153 115.055558 
L 329.236153 184.738058 
z
" style="fill: none"/>
    </g>
    <path d="M 337.882869 169.764308 
L 341.575129 169.764308 
L 345.74352 169.764308 
L 340.762113 169.764308 
L 335.021592 169.764308 
L 330.035693 169.764308 
L 334.204084 169.764308 
L 337.882869 169.764308 
z
" style="fill: #808080"/>
   </g>
   <g id="text_87">
    <g id="patch_81">
     <path d="M 329.236153 184.738058 
L 372.582403 184.738058 
L 372.582403 115.055558 
L 329.236153 115.055558 
L 329.236153 184.738058 
z
" style="fill: none"/>
    </g>
    <path d="M 329.725759 169.764308 
L 333.139528 169.764308 
L 334.554445 169.764308 
L 336.270313 169.764308 
L 339.513393 169.764308 
L 341.489785 169.764308 
L 342.612735 169.764308 
L 346.053454 169.764308 
L 343.780603 169.764308 
L 340.128769 169.764308 
L 337.882869 169.764308 
L 335.776214 169.764308 
L 332.169299 169.764308 
L 329.725759 169.764308 
z
" style="fill: #808080"/>
   </g>
   <g id="text_88">
    <g id="patch_82">
     <path d="M 329.236153 184.738058 
L 372.582403 184.738058 
L 372.582403 115.055558 
L 329.236153 115.055558 
L 329.236153 184.738058 
z
" style="fill: none"/>
    </g>
    <path d="M 341.476309 169.764308 
L 341.476309 169.764308 
L 338.641983 169.764308 
L 338.641983 169.764308 
L 345.096701 169.764308 
L 345.096701 169.764308 
Q 343.906374 169.764308 342.464506 169.764308 
Q 341.027129 169.764308 339.38313 169.764308 
Q 335.313559 169.764308 333.09461 169.764308 
Q 330.880152 169.764308 330.880152 169.764308 
Q 330.880152 169.764308 333.117069 169.764308 
Q 335.358477 169.764308 339.58077 169.764308 
Q 340.842966 169.764308 342.064735 169.764308 
Q 343.286505 169.764308 344.355554 169.764308 
L 344.355554 169.764308 
Q 343.484144 169.764308 342.352211 169.764308 
Q 341.224769 169.764308 339.877228 169.764308 
Q 337.519033 169.764308 336.351165 169.764308 
Q 335.187789 169.764308 335.187789 169.764308 
Q 335.187789 169.764308 336.310739 169.764308 
Q 337.433689 169.764308 339.58077 169.764308 
Q 340.227589 169.764308 340.70372 169.764308 
Q 341.179851 169.764308 341.476309 169.764308 
z
" style="fill: #808080"/>
   </g>
   <g id="text_89">
    <g id="patch_83">
     <path d="M 329.236153 184.738058 
L 372.582403 184.738058 
L 372.582403 115.055558 
L 329.236153 115.055558 
L 329.236153 184.738058 
z
" style="fill: none"/>
    </g>
    <path d="M 331.158643 169.764308 
L 335.300084 169.764308 
L 335.300084 169.764308 
L 340.47913 169.764308 
L 340.47913 169.764308 
L 344.62057 169.764308 
L 344.62057 169.764308 
L 340.47913 169.764308 
L 340.47913 169.764308 
L 335.300084 169.764308 
L 335.300084 169.764308 
L 331.158643 169.764308 
L 331.158643 169.764308 
z
" style="fill: #808080"/>
   </g>
   <g id="text_90">
    <g id="patch_84">
     <path d="M 329.236153 184.738058 
L 372.582403 184.738058 
L 372.582403 115.055558 
L 329.236153 115.055558 
L 329.236153 184.738058 
z
" style="fill: none"/>
    </g>
    <path d="M 338.444344 169.764308 
Q 338.246705 169.764308 338.111951 169.764308 
Q 337.981689 169.764308 337.855918 169.764308 
Q 334.249002 169.764308 332.389397 169.764308 
Q 330.529791 169.764308 330.529791 169.764308 
Q 330.529791 169.764308 332.389397 169.764308 
Q 334.249002 169.764308 337.882869 169.764308 
Q 341.534703 169.764308 343.394308 169.764308 
Q 345.253914 169.764308 345.253914 169.764308 
Q 345.253914 169.764308 344.369029 169.764308 
Q 343.484144 169.764308 341.799719 169.764308 
L 344.409455 169.764308 
L 341.575129 169.764308 
L 338.444344 169.764308 
z
M 337.882869 169.764308 
Q 336.297263 169.764308 335.5651 169.764308 
Q 334.837428 169.764308 334.837428 169.764308 
Q 334.837428 169.764308 335.5651 169.764308 
Q 336.297263 169.764308 337.882869 169.764308 
Q 339.48195 169.764308 340.209622 169.764308 
Q 340.941785 169.764308 340.941785 169.764308 
Q 340.941785 169.764308 340.209622 169.764308 
Q 339.48195 169.764308 337.882869 169.764308 
z
" style="fill: #808080"/>
   </g>
   <g id="text_91">
    <g id="patch_85">
     <path d="M 329.236153 184.738058 
L 372.582403 184.738058 
L 372.582403 115.055558 
L 329.236153 115.055558 
L 329.236153 184.738058 
z
" style="fill: none"/>
    </g>
    <path d="M 344.647521 169.764308 
L 331.594348 169.764308 
L 331.594348 169.764308 
L 344.647521 169.764308 
L 344.647521 169.764308 
L 335.735788 169.764308 
L 335.735788 169.764308 
L 343.807554 169.764308 
L 343.807554 169.764308 
L 335.735788 169.764308 
L 335.735788 169.764308 
L 344.647521 169.764308 
L 344.647521 169.764308 
z
" style="fill: #808080"/>
   </g>
   <g id="text_92">
    <g id="patch_86">
     <path d="M 329.236153 184.738058 
L 372.582403 184.738058 
L 372.582403 115.055558 
L 329.236153 115.055558 
L 329.236153 184.738058 
z
" style="fill: none"/>
    </g>
    <path d="M 330.444447 169.764308 
L 335.385428 169.764308 
L 337.882869 169.764308 
L 340.366835 169.764308 
L 345.334766 169.764308 
L 345.334766 169.764308 
L 341.772768 169.764308 
L 341.772768 169.764308 
L 339.553819 169.764308 
L 336.256837 169.764308 
L 334.010937 169.764308 
L 334.010937 169.764308 
L 330.444447 169.764308 
L 330.444447 169.764308 
z
" style="fill: #808080"/>
   </g>
   <g id="text_93">
    <g id="patch_87">
     <path d="M 329.236153 184.738058 
L 372.582403 184.738058 
L 372.582403 115.055558 
L 329.236153 115.055558 
L 329.236153 184.738058 
z
" style="fill: none"/>
    </g>
    <path d="M 340.564474 169.764308 
Q 341.179851 169.764308 341.638014 169.764308 
Q 342.096178 169.764308 342.751981 169.764308 
L 346.54306 169.764308 
L 341.997358 169.764308 
L 339.468475 169.764308 
Q 339.35618 169.764308 339.176508 169.764308 
Q 338.067033 169.764308 336.56228 169.764308 
L 335.246182 169.764308 
L 335.246182 169.764308 
L 331.104742 169.764308 
L 331.104742 169.764308 
L 337.083328 169.764308 
Q 341.125949 169.764308 342.886735 169.764308 
Q 344.647521 169.764308 344.647521 169.764308 
Q 344.647521 169.764308 343.596439 169.764308 
Q 342.545358 169.764308 340.564474 169.764308 
z
M 335.246182 169.764308 
L 335.246182 169.764308 
L 337.195623 169.764308 
Q 338.893524 169.764308 339.630179 169.764308 
Q 340.366835 169.764308 340.366835 169.764308 
Q 340.366835 169.764308 339.634671 169.764308 
Q 338.906999 169.764308 337.195623 169.764308 
L 335.246182 169.764308 
z
" style="fill: #808080"/>
   </g>
   <g id="text_94">
    <g id="patch_88">
     <path d="M 329.236153 184.738058 
L 372.582403 184.738058 
L 372.582403 115.055558 
L 329.236153 115.055558 
L 329.236153 184.738058 
z
" style="fill: none"/>
    </g>
    <path d="M 344.84516 169.764308 
L 335.933427 169.764308 
L 335.933427 169.764308 
L 344.045619 169.764308 
L 344.045619 169.764308 
L 335.933427 169.764308 
L 335.933427 169.764308 
L 331.791987 169.764308 
L 331.791987 169.764308 
L 344.84516 169.764308 
L 344.84516 169.764308 
z
" style="fill: #808080"/>
   </g>
   <g id="text_95">
    <g id="patch_89">
     <path d="M 329.236153 184.738058 
L 372.582403 184.738058 
L 372.582403 115.055558 
L 329.236153 115.055558 
L 329.236153 184.738058 
z
" style="fill: none"/>
    </g>
    <path d="M 339.962573 169.764308 
L 335.821132 169.764308 
L 335.821132 169.764308 
L 330.498349 169.764308 
L 330.498349 169.764308 
L 345.280865 169.764308 
L 345.280865 169.764308 
L 339.962573 169.764308 
L 339.962573 169.764308 
z
" style="fill: #808080"/>
   </g>
   <g id="text_96">
    <g id="patch_90">
     <path d="M 329.236153 184.738058 
L 372.582403 184.738058 
L 372.582403 115.055558 
L 329.236153 115.055558 
L 329.236153 184.738058 
z
" style="fill: none"/>
    </g>
    <path d="M 329.348448 169.764308 
L 333.813298 169.764308 
L 337.882869 169.764308 
L 341.965916 169.764308 
L 346.430765 169.764308 
L 339.962573 169.764308 
L 339.962573 169.764308 
L 335.821132 169.764308 
L 335.821132 169.764308 
L 329.348448 169.764308 
z
" style="fill: #808080"/>
   </g>
   <g id="text_97">
    <g id="patch_91">
     <path d="M 329.236153 184.738058 
L 372.582403 184.738058 
L 372.582403 115.055558 
L 329.236153 115.055558 
L 329.236153 184.738058 
z
" style="fill: none"/>
    </g>
    <path d="M 337.882869 169.764308 
L 335.933427 169.764308 
L 339.850278 169.764308 
L 337.882869 169.764308 
z
M 335.358477 169.764308 
L 340.425228 169.764308 
L 346.080405 169.764308 
L 341.938965 169.764308 
L 340.649818 169.764308 
L 335.102444 169.764308 
L 333.840248 169.764308 
L 329.698808 169.764308 
L 335.358477 169.764308 
z
" style="fill: #808080"/>
   </g>
   <g id="text_98">
    <g id="patch_92">
     <path d="M 329.236153 184.738058 
L 372.582403 184.738058 
L 372.582403 115.055558 
L 329.236153 115.055558 
L 329.236153 184.738058 
z
" style="fill: none"/>
    </g>
    <path d="M 335.300084 169.764308 
L 335.300084 169.764308 
L 336.423034 169.764308 
Q 338.866573 169.764308 339.904179 169.764308 
Q 340.941785 169.764308 340.941785 169.764308 
Q 340.941785 169.764308 339.904179 169.764308 
Q 338.866573 169.764308 336.423034 169.764308 
L 335.300084 169.764308 
z
M 331.158643 169.764308 
L 335.596542 169.764308 
Q 340.730671 169.764308 342.990046 169.764308 
Q 345.253914 169.764308 345.253914 169.764308 
Q 345.253914 169.764308 342.990046 169.764308 
Q 340.730671 169.764308 335.596542 169.764308 
L 331.158643 169.764308 
L 331.158643 169.764308 
z
" style="fill: #808080"/>
   </g>
   <g id="text_99">
    <g id="patch_93">
     <path d="M 329.236153 184.734559 
L 372.582403 184.734559 
L 372.582403 115.052059 
L 329.236153 115.052059 
L 329.236153 184.734559 
z
" style="fill: none"/>
    </g>
    <path d="M 331.652742 169.758422 
L 331.652742 169.757918 
L 344.130964 169.757918 
L 344.130964 169.758422 
L 339.962573 169.758422 
L 339.962573 169.7603 
L 344.130964 169.7603 
L 344.130964 169.760803 
L 331.652742 169.760803 
L 331.652742 169.7603 
L 335.821132 169.7603 
L 335.821132 169.758422 
L 331.652742 169.758422 
z
" style="fill: #808080"/>
   </g>
   <g id="text_100">
    <g id="patch_94">
     <path d="M 329.236153 182.933347 
L 372.582403 182.933347 
L 372.582403 113.250847 
L 329.236153 113.250847 
L 329.236153 182.933347 
z
" style="fill: none"/>
    </g>
    <path d="M 336.396083 165.662479 
Q 333.265298 165.378278 332.155823 165.066297 
Q 331.046348 164.754317 331.046348 164.226514 
Q 331.046348 163.549131 332.870019 163.162361 
Q 334.698182 162.774522 337.882869 162.774522 
Q 339.329229 162.774522 340.775589 162.853585 
Q 342.221948 162.931581 343.636866 163.084366 
L 343.636866 164.04595 
Q 342.302801 163.822648 340.92831 163.70619 
Q 339.553819 163.588663 338.206279 163.588663 
Q 336.706017 163.588663 335.901985 163.732901 
Q 335.102444 163.87607 335.102444 164.143176 
Q 335.102444 164.350451 335.686378 164.486141 
Q 336.270313 164.620763 338.120934 164.784233 
L 339.904179 164.944497 
Q 342.433063 165.164592 343.62339 165.528926 
Q 344.818209 165.893259 344.818209 166.446704 
Q 344.818209 167.202082 342.940636 167.573895 
Q 341.067556 167.945707 337.280968 167.945707 
Q 335.722313 167.945707 334.154674 167.858096 
Q 332.591528 167.769417 331.131693 167.595263 
L 331.131693 166.577052 
Q 332.789167 166.858049 334.338838 166.994807 
Q 335.888509 167.131566 337.406738 167.131566 
Q 338.93395 167.131566 339.773917 166.967028 
Q 340.618376 166.801422 340.618376 166.503331 
Q 340.618376 166.28003 340.0569 166.111218 
Q 339.495425 165.942407 338.430869 165.846249 
L 336.396083 165.662479 
z
" style="fill: #808080"/>
   </g>
   <g id="text_101">
    <g id="patch_95">
     <path d="M 329.236153 171.207346 
L 372.582403 171.207346 
L 372.582403 101.524846 
L 329.236153 101.524846 
L 329.236153 171.207346 
z
" style="fill: none"/>
    </g>
    <path d="M 344.409455 150.773324 
Q 343.425751 153.365806 342.343227 154.650576 
Q 341.265195 155.935346 340.074868 155.935346 
Q 335.834608 155.935346 333.602183 141.688166 
Q 331.369758 127.418043 331.369758 100.460818 
Q 331.369758 73.434767 333.602183 59.164644 
Q 335.834608 44.894522 340.074868 44.894522 
Q 341.265195 44.894522 342.361194 46.179292 
Q 343.457193 47.464061 344.409455 50.056544 
L 344.409455 73.572421 
Q 343.344898 68.548053 342.338735 66.230878 
Q 341.337064 63.890762 340.268015 63.890762 
Q 337.995164 63.890762 336.836279 73.113574 
Q 335.677395 82.313444 335.677395 100.460818 
Q 335.677395 118.516423 336.836279 127.739236 
Q 337.995164 136.939106 340.268015 136.939106 
Q 341.337064 136.939106 342.338735 134.621931 
Q 343.344898 132.281815 344.409455 127.257447 
L 344.409455 150.773324 
z
" style="fill: #808080"/>
   </g>
   <g id="text_102">
    <!-- Z2039 -->
    <g transform="translate(246.369743 27.478594) scale(0.255 -0.255)">
     <use xlink:href="#DejaVuSans-5a"/>
     <use xlink:href="#DejaVuSans-32" x="68.505859"/>
     <use xlink:href="#DejaVuSans-30" x="132.128906"/>
     <use xlink:href="#DejaVuSans-33" x="195.751953"/>
     <use xlink:href="#DejaVuSans-39" x="259.375"/>
    </g>
   </g>
  </g>
  <g id="text_103">
   <!-- site -->
   <g transform="translate(186.112027 257.405) scale(0.255 -0.255)">
    <defs>
     <path id="DejaVuSans-73" d="M 2834 3397 
L 2834 2853 
Q 2591 2978 2328 3040 
Q 2066 3103 1784 3103 
Q 1356 3103 1142 2972 
Q 928 2841 928 2578 
Q 928 2378 1081 2264 
Q 1234 2150 1697 2047 
L 1894 2003 
Q 2506 1872 2764 1633 
Q 3022 1394 3022 966 
Q 3022 478 2636 193 
Q 2250 -91 1575 -91 
Q 1294 -91 989 -36 
Q 684 19 347 128 
L 347 722 
Q 666 556 975 473 
Q 1284 391 1588 391 
Q 1994 391 2212 530 
Q 2431 669 2431 922 
Q 2431 1156 2273 1281 
Q 2116 1406 1581 1522 
L 1381 1569 
Q 847 1681 609 1914 
Q 372 2147 372 2553 
Q 372 3047 722 3315 
Q 1072 3584 1716 3584 
Q 2034 3584 2315 3537 
Q 2597 3491 2834 3397 
z
" transform="scale(0.015625)"/>
     <path id="DejaVuSans-69" d="M 603 3500 
L 1178 3500 
L 1178 0 
L 603 0 
L 603 3500 
z
M 603 4863 
L 1178 4863 
L 1178 4134 
L 603 4134 
L 603 4863 
z
" transform="scale(0.015625)"/>
     <path id="DejaVuSans-74" d="M 1172 4494 
L 1172 3500 
L 2356 3500 
L 2356 3053 
L 1172 3053 
L 1172 1153 
Q 1172 725 1289 603 
Q 1406 481 1766 481 
L 2356 481 
L 2356 0 
L 1766 0 
Q 1100 0 847 248 
Q 594 497 594 1153 
L 594 3053 
L 172 3053 
L 172 3500 
L 594 3500 
L 594 4494 
L 1172 4494 
z
" transform="scale(0.015625)"/>
     <path id="DejaVuSans-65" d="M 3597 1894 
L 3597 1613 
L 953 1613 
Q 991 1019 1311 708 
Q 1631 397 2203 397 
Q 2534 397 2845 478 
Q 3156 559 3463 722 
L 3463 178 
Q 3153 47 2828 -22 
Q 2503 -91 2169 -91 
Q 1331 -91 842 396 
Q 353 884 353 1716 
Q 353 2575 817 3079 
Q 1281 3584 2069 3584 
Q 2775 3584 3186 3129 
Q 3597 2675 3597 1894 
z
M 3022 2063 
Q 3016 2534 2758 2815 
Q 2500 3097 2075 3097 
Q 1594 3097 1305 2825 
Q 1016 2553 972 2059 
L 3022 2063 
z
" transform="scale(0.015625)"/>
    </defs>
    <use xlink:href="#DejaVuSans-73"/>
    <use xlink:href="#DejaVuSans-69" x="52.099609"/>
    <use xlink:href="#DejaVuSans-74" x="79.882812"/>
    <use xlink:href="#DejaVuSans-65" x="119.091797"/>
   </g>
  </g>
  <g id="text_104">
   <!-- escape fraction -->
   <g transform="translate(26.576016 203.757188) rotate(-90) scale(0.255 -0.255)">
    <defs>
     <path id="DejaVuSans-63" d="M 3122 3366 
L 3122 2828 
Q 2878 2963 2633 3030 
Q 2388 3097 2138 3097 
Q 1578 3097 1268 2742 
Q 959 2388 959 1747 
Q 959 1106 1268 751 
Q 1578 397 2138 397 
Q 2388 397 2633 464 
Q 2878 531 3122 666 
L 3122 134 
Q 2881 22 2623 -34 
Q 2366 -91 2075 -91 
Q 1284 -91 818 406 
Q 353 903 353 1747 
Q 353 2603 823 3093 
Q 1294 3584 2113 3584 
Q 2378 3584 2631 3529 
Q 2884 3475 3122 3366 
z
" transform="scale(0.015625)"/>
     <path id="DejaVuSans-61" d="M 2194 1759 
Q 1497 1759 1228 1600 
Q 959 1441 959 1056 
Q 959 750 1161 570 
Q 1363 391 1709 391 
Q 2188 391 2477 730 
Q 2766 1069 2766 1631 
L 2766 1759 
L 2194 1759 
z
M 3341 1997 
L 3341 0 
L 2766 0 
L 2766 531 
Q 2569 213 2275 61 
Q 1981 -91 1556 -91 
Q 1019 -91 701 211 
Q 384 513 384 1019 
Q 384 1609 779 1909 
Q 1175 2209 1959 2209 
L 2766 2209 
L 2766 2266 
Q 2766 2663 2505 2880 
Q 2244 3097 1772 3097 
Q 1472 3097 1187 3025 
Q 903 2953 641 2809 
L 641 3341 
Q 956 3463 1253 3523 
Q 1550 3584 1831 3584 
Q 2591 3584 2966 3190 
Q 3341 2797 3341 1997 
z
" transform="scale(0.015625)"/>
     <path id="DejaVuSans-70" d="M 1159 525 
L 1159 -1331 
L 581 -1331 
L 581 3500 
L 1159 3500 
L 1159 2969 
Q 1341 3281 1617 3432 
Q 1894 3584 2278 3584 
Q 2916 3584 3314 3078 
Q 3713 2572 3713 1747 
Q 3713 922 3314 415 
Q 2916 -91 2278 -91 
Q 1894 -91 1617 61 
Q 1341 213 1159 525 
z
M 3116 1747 
Q 3116 2381 2855 2742 
Q 2594 3103 2138 3103 
Q 1681 3103 1420 2742 
Q 1159 2381 1159 1747 
Q 1159 1113 1420 752 
Q 1681 391 2138 391 
Q 2594 391 2855 752 
Q 3116 1113 3116 1747 
z
" transform="scale(0.015625)"/>
     <path id="DejaVuSans-20" transform="scale(0.015625)"/>
     <path id="DejaVuSans-66" d="M 2375 4863 
L 2375 4384 
L 1825 4384 
Q 1516 4384 1395 4259 
Q 1275 4134 1275 3809 
L 1275 3500 
L 2222 3500 
L 2222 3053 
L 1275 3053 
L 1275 0 
L 697 0 
L 697 3053 
L 147 3053 
L 147 3500 
L 697 3500 
L 697 3744 
Q 697 4328 969 4595 
Q 1241 4863 1831 4863 
L 2375 4863 
z
" transform="scale(0.015625)"/>
     <path id="DejaVuSans-72" d="M 2631 2963 
Q 2534 3019 2420 3045 
Q 2306 3072 2169 3072 
Q 1681 3072 1420 2755 
Q 1159 2438 1159 1844 
L 1159 0 
L 581 0 
L 581 3500 
L 1159 3500 
L 1159 2956 
Q 1341 3275 1631 3429 
Q 1922 3584 2338 3584 
Q 2397 3584 2469 3576 
Q 2541 3569 2628 3553 
L 2631 2963 
z
" transform="scale(0.015625)"/>
     <path id="DejaVuSans-6f" d="M 1959 3097 
Q 1497 3097 1228 2736 
Q 959 2375 959 1747 
Q 959 1119 1226 758 
Q 1494 397 1959 397 
Q 2419 397 2687 759 
Q 2956 1122 2956 1747 
Q 2956 2369 2687 2733 
Q 2419 3097 1959 3097 
z
M 1959 3584 
Q 2709 3584 3137 3096 
Q 3566 2609 3566 1747 
Q 3566 888 3137 398 
Q 2709 -91 1959 -91 
Q 1206 -91 779 398 
Q 353 888 353 1747 
Q 353 2609 779 3096 
Q 1206 3584 1959 3584 
z
" transform="scale(0.015625)"/>
     <path id="DejaVuSans-6e" d="M 3513 2113 
L 3513 0 
L 2938 0 
L 2938 2094 
Q 2938 2591 2744 2837 
Q 2550 3084 2163 3084 
Q 1697 3084 1428 2787 
Q 1159 2491 1159 1978 
L 1159 0 
L 581 0 
L 581 3500 
L 1159 3500 
L 1159 2956 
Q 1366 3272 1645 3428 
Q 1925 3584 2291 3584 
Q 2894 3584 3203 3211 
Q 3513 2838 3513 2113 
z
" transform="scale(0.015625)"/>
    </defs>
    <use xlink:href="#DejaVuSans-65"/>
    <use xlink:href="#DejaVuSans-73" x="61.523438"/>
    <use xlink:href="#DejaVuSans-63" x="113.623047"/>
    <use xlink:href="#DejaVuSans-61" x="168.603516"/>
    <use xlink:href="#DejaVuSans-70" x="229.882812"/>
    <use xlink:href="#DejaVuSans-65" x="293.359375"/>
    <use xlink:href="#DejaVuSans-20" x="354.882812"/>
    <use xlink:href="#DejaVuSans-66" x="386.669922"/>
    <use xlink:href="#DejaVuSans-72" x="421.875"/>
    <use xlink:href="#DejaVuSans-61" x="462.988281"/>
    <use xlink:href="#DejaVuSans-63" x="524.267578"/>
    <use xlink:href="#DejaVuSans-74" x="579.248047"/>
    <use xlink:href="#DejaVuSans-69" x="618.457031"/>
    <use xlink:href="#DejaVuSans-6f" x="646.240234"/>
    <use xlink:href="#DejaVuSans-6e" x="707.421875"/>
   </g>
  </g>
 </g>
 <defs>
  <clipPath id="p8bb7847112">
   <rect x="84.329609" y="33.478594" width="92.795183" height="144"/>
  </clipPath>
  <clipPath id="pdff798e0de">
   <rect x="225.860057" y="33.478594" width="123.384372" height="144"/>
  </clipPath>
 </defs>
</svg>
