<?xml version="1.0" encoding="utf-8" standalone="no"?>
<!DOCTYPE svg PUBLIC "-//W3C//DTD SVG 1.1//EN"
  "http://www.w3.org/Graphics/SVG/1.1/DTD/svg11.dtd">
<svg xmlns:xlink="http://www.w3.org/1999/xlink" width="349.427472pt" height="270.178203pt" viewBox="0 0 349.427472 270.178203" xmlns="http://www.w3.org/2000/svg" version="1.1">
 <metadata>
  <rdf:RDF xmlns:dc="http://purl.org/dc/elements/1.1/" xmlns:cc="http://creativecommons.org/ns#" xmlns:rdf="http://www.w3.org/1999/02/22-rdf-syntax-ns#">
   <cc:Work>
    <dc:type rdf:resource="http://purl.org/dc/dcmitype/StillImage"/>
    <dc:date>2025-12-18T15:42:42.166940</dc:date>
    <dc:format>image/svg+xml</dc:format>
    <dc:creator>
     <cc:Agent>
      <dc:title>Matplotlib v3.7.1, https://matplotlib.org/</dc:title>
     </cc:Agent>
    </dc:creator>
   </cc:Work>
  </rdf:RDF>
 </metadata>
 <defs>
  <style type="text/css">*{stroke-linejoin: round; stroke-linecap: butt}</style>
 </defs>
 <g id="figure_1">
  <g id="patch_1">
   <path d="M 0 270.178203 
L 349.427472 270.178203 
L 349.427472 0 
L 0 0 
L 0 270.178203 
z
" style="fill: none"/>
  </g>
  <g id="axes_1">
   <g id="patch_2">
    <path d="M 72.899609 177.478594 
L 164.734231 177.478594 
L 164.734231 33.478594 
L 72.899609 33.478594 
L 72.899609 177.478594 
z
" style="fill: none"/>
   </g>
   <g id="patch_3">
    <path d="M 114.981518 177.478594 
L 117.601748 177.478594 
L 117.601748 170.764308 
L 114.981518 170.764308 
z
" clip-path="url(#p2208f8b85c)" style="fill: #cc79a7"/>
   </g>
   <g id="patch_4">
    <path d="M 153.867032 177.478594 
L 156.487262 177.478594 
L 156.487262 170.764308 
L 153.867032 170.764308 
z
" clip-path="url(#p2208f8b85c)" style="fill: #cc79a7"/>
   </g>
   <g id="patch_5">
    <path d="M 154.677147 177.478594 
L 157.297377 177.478594 
L 157.297377 170.764308 
L 154.677147 170.764308 
z
" clip-path="url(#p2208f8b85c)" style="fill: #cc79a7"/>
   </g>
   <g id="patch_6">
    <path d="M 156.297377 177.478594 
L 158.917607 177.478594 
L 158.917607 170.764308 
L 156.297377 170.764308 
z
" clip-path="url(#p2208f8b85c)" style="fill: #cc79a7"/>
   </g>
   <g id="matplotlib.axis_1">
    <g id="xtick_1">
     <g id="line2d_1">
      <defs>
       <path id="mf8bdc3486a" d="M 0 0 
L 0 5 
" style="stroke: #000000"/>
      </defs>
      <g>
       <use xlink:href="#mf8bdc3486a" x="75.880832" y="177.478594" style="stroke: #000000"/>
      </g>
     </g>
     <g id="text_1">
      <!-- 300 -->
      <g transform="translate(80.847707 220.336094) rotate(-90) scale(0.18 -0.18)">
       <defs>
        <path id="DejaVuSans-33" d="M 2597 2516 
Q 3050 2419 3304 2112 
Q 3559 1806 3559 1356 
Q 3559 666 3084 287 
Q 2609 -91 1734 -91 
Q 1441 -91 1130 -33 
Q 819 25 488 141 
L 488 750 
Q 750 597 1062 519 
Q 1375 441 1716 441 
Q 2309 441 2620 675 
Q 2931 909 2931 1356 
Q 2931 1769 2642 2001 
Q 2353 2234 1838 2234 
L 1294 2234 
L 1294 2753 
L 1863 2753 
Q 2328 2753 2575 2939 
Q 2822 3125 2822 3475 
Q 2822 3834 2567 4026 
Q 2313 4219 1838 4219 
Q 1578 4219 1281 4162 
Q 984 4106 628 3988 
L 628 4550 
Q 988 4650 1302 4700 
Q 1616 4750 1894 4750 
Q 2613 4750 3031 4423 
Q 3450 4097 3450 3541 
Q 3450 3153 3228 2886 
Q 3006 2619 2597 2516 
z
" transform="scale(0.015625)"/>
        <path id="DejaVuSans-30" d="M 2034 4250 
Q 1547 4250 1301 3770 
Q 1056 3291 1056 2328 
Q 1056 1369 1301 889 
Q 1547 409 2034 409 
Q 2525 409 2770 889 
Q 3016 1369 3016 2328 
Q 3016 3291 2770 3770 
Q 2525 4250 2034 4250 
z
M 2034 4750 
Q 2819 4750 3233 4129 
Q 3647 3509 3647 2328 
Q 3647 1150 3233 529 
Q 2819 -91 2034 -91 
Q 1250 -91 836 529 
Q 422 1150 422 2328 
Q 422 3509 836 4129 
Q 1250 4750 2034 4750 
z
" transform="scale(0.015625)"/>
       </defs>
       <use xlink:href="#DejaVuSans-33"/>
       <use xlink:href="#DejaVuSans-30" x="63.623047"/>
       <use xlink:href="#DejaVuSans-30" x="127.246094"/>
      </g>
     </g>
    </g>
    <g id="xtick_2">
     <g id="line2d_2">
      <g>
       <use xlink:href="#mf8bdc3486a" x="100.184278" y="177.478594" style="stroke: #000000"/>
      </g>
     </g>
     <g id="text_2">
      <!-- 330 -->
      <g transform="translate(105.151153 220.336094) rotate(-90) scale(0.18 -0.18)">
       <use xlink:href="#DejaVuSans-33"/>
       <use xlink:href="#DejaVuSans-33" x="63.623047"/>
       <use xlink:href="#DejaVuSans-30" x="127.246094"/>
      </g>
     </g>
    </g>
    <g id="xtick_3">
     <g id="line2d_3">
      <g>
       <use xlink:href="#mf8bdc3486a" x="124.487725" y="177.478594" style="stroke: #000000"/>
      </g>
     </g>
     <g id="text_3">
      <!-- 360 -->
      <g transform="translate(129.4546 220.336094) rotate(-90) scale(0.18 -0.18)">
       <defs>
        <path id="DejaVuSans-36" d="M 2113 2584 
Q 1688 2584 1439 2293 
Q 1191 2003 1191 1497 
Q 1191 994 1439 701 
Q 1688 409 2113 409 
Q 2538 409 2786 701 
Q 3034 994 3034 1497 
Q 3034 2003 2786 2293 
Q 2538 2584 2113 2584 
z
M 3366 4563 
L 3366 3988 
Q 3128 4100 2886 4159 
Q 2644 4219 2406 4219 
Q 1781 4219 1451 3797 
Q 1122 3375 1075 2522 
Q 1259 2794 1537 2939 
Q 1816 3084 2150 3084 
Q 2853 3084 3261 2657 
Q 3669 2231 3669 1497 
Q 3669 778 3244 343 
Q 2819 -91 2113 -91 
Q 1303 -91 875 529 
Q 447 1150 447 2328 
Q 447 3434 972 4092 
Q 1497 4750 2381 4750 
Q 2619 4750 2861 4703 
Q 3103 4656 3366 4563 
z
" transform="scale(0.015625)"/>
       </defs>
       <use xlink:href="#DejaVuSans-33"/>
       <use xlink:href="#DejaVuSans-36" x="63.623047"/>
       <use xlink:href="#DejaVuSans-30" x="127.246094"/>
      </g>
     </g>
    </g>
    <g id="xtick_4">
     <g id="line2d_4">
      <g>
       <use xlink:href="#mf8bdc3486a" x="148.791171" y="177.478594" style="stroke: #000000"/>
      </g>
     </g>
     <g id="text_4">
      <!-- 390 -->
      <g transform="translate(153.758046 220.336094) rotate(-90) scale(0.18 -0.18)">
       <defs>
        <path id="DejaVuSans-39" d="M 703 97 
L 703 672 
Q 941 559 1184 500 
Q 1428 441 1663 441 
Q 2288 441 2617 861 
Q 2947 1281 2994 2138 
Q 2813 1869 2534 1725 
Q 2256 1581 1919 1581 
Q 1219 1581 811 2004 
Q 403 2428 403 3163 
Q 403 3881 828 4315 
Q 1253 4750 1959 4750 
Q 2769 4750 3195 4129 
Q 3622 3509 3622 2328 
Q 3622 1225 3098 567 
Q 2575 -91 1691 -91 
Q 1453 -91 1209 -44 
Q 966 3 703 97 
z
M 1959 2075 
Q 2384 2075 2632 2365 
Q 2881 2656 2881 3163 
Q 2881 3666 2632 3958 
Q 2384 4250 1959 4250 
Q 1534 4250 1286 3958 
Q 1038 3666 1038 3163 
Q 1038 2656 1286 2365 
Q 1534 2075 1959 2075 
z
" transform="scale(0.015625)"/>
       </defs>
       <use xlink:href="#DejaVuSans-33"/>
       <use xlink:href="#DejaVuSans-39" x="63.623047"/>
       <use xlink:href="#DejaVuSans-30" x="127.246094"/>
      </g>
     </g>
    </g>
   </g>
   <g id="matplotlib.axis_2">
    <g id="ytick_1">
     <g id="line2d_5">
      <defs>
       <path id="mc5e95af90d" d="M 0 0 
L -5 0 
" style="stroke: #000000"/>
      </defs>
      <g>
       <use xlink:href="#mc5e95af90d" x="72.899609" y="169.764308" style="stroke: #000000"/>
      </g>
     </g>
     <g id="text_5">
      <!-- 0.0 -->
      <g transform="translate(35.773984 176.602902) scale(0.18 -0.18)">
       <defs>
        <path id="DejaVuSans-2e" d="M 684 794 
L 1344 794 
L 1344 0 
L 684 0 
L 684 794 
z
" transform="scale(0.015625)"/>
       </defs>
       <use xlink:href="#DejaVuSans-30"/>
       <use xlink:href="#DejaVuSans-2e" x="63.623047"/>
       <use xlink:href="#DejaVuSans-30" x="95.410156"/>
      </g>
     </g>
    </g>
    <g id="ytick_2">
     <g id="line2d_6">
      <g>
       <use xlink:href="#mc5e95af90d" x="72.899609" y="131.536926" style="stroke: #000000"/>
      </g>
     </g>
     <g id="text_6">
      <!-- 0.3 -->
      <g transform="translate(35.773984 138.37552) scale(0.18 -0.18)">
       <use xlink:href="#DejaVuSans-30"/>
       <use xlink:href="#DejaVuSans-2e" x="63.623047"/>
       <use xlink:href="#DejaVuSans-33" x="95.410156"/>
      </g>
     </g>
    </g>
    <g id="ytick_3">
     <g id="line2d_7">
      <g>
       <use xlink:href="#mc5e95af90d" x="72.899609" y="93.309544" style="stroke: #000000"/>
      </g>
     </g>
     <g id="text_7">
      <!-- 0.6 -->
      <g transform="translate(35.773984 100.148138) scale(0.18 -0.18)">
       <use xlink:href="#DejaVuSans-30"/>
       <use xlink:href="#DejaVuSans-2e" x="63.623047"/>
       <use xlink:href="#DejaVuSans-36" x="95.410156"/>
      </g>
     </g>
    </g>
    <g id="ytick_4">
     <g id="line2d_8">
      <g>
       <use xlink:href="#mc5e95af90d" x="72.899609" y="55.082162" style="stroke: #000000"/>
      </g>
     </g>
     <g id="text_8">
      <!-- 0.9 -->
      <g transform="translate(35.773984 61.920755) scale(0.18 -0.18)">
       <use xlink:href="#DejaVuSans-30"/>
       <use xlink:href="#DejaVuSans-2e" x="63.623047"/>
       <use xlink:href="#DejaVuSans-39" x="95.410156"/>
      </g>
     </g>
    </g>
   </g>
   <g id="line2d_9">
    <path d="M 74.66566 143.948083 
L 75.475775 143.948083 
L 75.475775 153.708808 
L 76.28589 153.708808 
L 76.28589 169.764308 
L 77.096004 169.764308 
L 77.096004 118.92189 
L 77.906119 118.92189 
L 77.906119 156.588604 
L 78.716234 156.588604 
L 78.716234 93.882955 
L 79.526349 93.882955 
L 79.526349 164.257017 
L 80.336464 164.257017 
L 80.336464 150.153661 
L 81.146579 150.153661 
L 81.146579 135.525316 
L 81.956694 135.525316 
L 81.956694 169.764308 
L 82.766809 169.764308 
L 82.766809 160.184526 
L 83.576923 160.184526 
L 83.576923 169.726947 
L 84.387038 169.726947 
L 84.387038 158.710223 
L 86.007268 158.790501 
L 86.007268 123.126902 
L 86.817383 123.126902 
L 86.817383 169.683597 
L 88.437613 169.763918 
L 88.437613 169.508057 
L 89.247728 169.508057 
L 89.247728 169.764308 
L 90.057842 169.764308 
L 90.057842 165.463728 
L 90.867957 165.463728 
L 90.867957 169.762241 
L 91.678072 169.762241 
L 91.678072 105.440366 
L 92.488187 105.440366 
L 92.488187 163.314074 
L 93.298302 163.314074 
L 93.298302 169.764308 
L 94.108417 169.764308 
L 94.108417 169.434151 
L 94.918532 169.434151 
L 94.918532 168.067012 
L 95.728647 168.067012 
L 95.728647 137.232806 
L 96.538761 137.232806 
L 96.538761 169.540423 
L 97.348876 169.540423 
L 97.348876 169.750508 
L 98.158991 169.750508 
L 98.158991 169.638846 
L 98.969106 169.638846 
L 98.969106 169.759649 
L 100.589336 169.661069 
L 100.589336 167.621026 
L 101.399451 167.621026 
L 101.399451 169.764308 
L 102.209565 169.764308 
L 102.209565 146.190756 
L 103.01968 146.190756 
L 103.01968 169.764308 
L 103.829795 169.764308 
L 103.829795 154.855629 
L 104.63991 154.855629 
L 104.63991 166.325118 
L 105.450025 166.325118 
L 105.450025 169.764308 
L 107.88037 169.764308 
L 107.88037 147.898245 
L 108.690484 147.898245 
L 108.690484 169.73263 
L 109.500599 169.73263 
L 109.500599 165.063614 
L 110.310714 165.063614 
L 110.310714 160.173058 
L 111.120829 160.173058 
L 111.120829 169.423575 
L 111.930944 169.423575 
L 111.930944 149.478311 
L 112.741059 149.478311 
L 112.741059 155.174191 
L 113.551174 155.174191 
L 113.551174 158.902635 
L 114.361289 158.902635 
L 114.361289 144.343099 
L 115.171403 144.343099 
L 115.171403 160.655997 
L 115.981518 160.655997 
L 115.981518 41.192879 
L 116.791633 41.192879 
L 116.791633 132.79843 
L 117.601748 132.79843 
L 117.601748 146.088816 
L 118.411863 146.088816 
L 118.411863 156.10439 
L 119.221978 156.10439 
L 119.221978 167.470665 
L 120.032093 167.470665 
L 120.032093 169.741537 
L 120.842208 169.741537 
L 120.842208 169.541952 
L 121.652322 169.541952 
L 121.652322 169.739575 
L 122.462437 169.739575 
L 122.462437 168.184243 
L 123.272552 168.184243 
L 123.272552 169.762548 
L 124.082667 169.762548 
L 124.082667 168.414881 
L 124.892782 168.414881 
L 124.892782 161.253619 
L 125.702897 161.253619 
L 125.702897 158.168669 
L 126.513012 158.168669 
L 126.513012 169.762869 
L 127.323127 169.762869 
L 127.323127 163.933358 
L 128.133241 163.933358 
L 128.133241 169.744838 
L 128.943356 169.744838 
L 128.943356 162.144317 
L 129.753471 162.144317 
L 129.753471 169.633953 
L 130.563586 169.633953 
L 130.563586 166.680633 
L 131.373701 166.680633 
L 131.373701 152.116 
L 132.183816 152.116 
L 132.183816 161.918775 
L 132.993931 161.918775 
L 132.993931 169.764308 
L 134.61416 169.764308 
L 134.61416 165.5096 
L 135.424275 165.5096 
L 135.424275 169.753431 
L 137.044505 169.760678 
L 137.044505 168.202082 
L 137.85462 168.202082 
L 137.85462 169.696531 
L 138.664735 169.696531 
L 138.664735 147.847276 
L 139.47485 147.847276 
L 139.47485 169.729355 
L 140.284965 169.729355 
L 140.284965 168.405962 
L 141.095079 168.405962 
L 141.095079 169.6128 
L 141.905194 169.6128 
L 141.905194 147.19741 
L 142.715309 147.19741 
L 142.715309 169.269136 
L 143.525424 169.269136 
L 143.525424 148.85393 
L 144.335539 148.85393 
L 144.335539 158.008114 
L 145.145654 158.008114 
L 145.145654 148.599081 
L 145.955769 148.599081 
L 145.955769 169.748826 
L 146.765884 169.748826 
L 146.765884 163.384158 
L 147.575998 163.384158 
L 147.575998 169.749629 
L 149.196228 169.722678 
L 149.196228 154.906599 
L 150.006343 154.906599 
L 150.006343 161.993955 
L 150.816458 161.993955 
L 150.816458 147.617911 
L 151.626573 147.617911 
L 151.626573 141.463303 
L 152.436688 141.463303 
L 152.436688 160.14375 
L 153.246803 160.14375 
L 153.246803 150.56142 
L 154.056917 150.56142 
L 154.056917 157.684455 
L 154.867032 157.684455 
L 154.867032 75.087825 
L 155.677147 75.087825 
L 155.677147 81.127751 
L 156.487262 81.127751 
L 156.487262 167.5382 
L 157.297377 167.5382 
L 157.297377 65.709374 
L 158.107492 65.709374 
L 158.107492 161.052288 
L 158.917607 161.052288 
L 158.917607 158.988009 
L 159.727721 158.988009 
L 159.727721 143.629521 
L 160.537836 143.629521 
L 160.537836 109.874743 
L 161.347951 109.874743 
L 161.347951 155.543722 
L 162.158066 155.543722 
L 162.158066 143.98631 
L 162.968181 143.98631 
L 162.968181 143.98631 
" clip-path="url(#p2208f8b85c)" style="fill: none; stroke: #000000; stroke-linecap: square"/>
   </g>
   <g id="patch_7">
    <path d="M 72.899609 177.478594 
L 72.899609 33.478594 
" style="fill: none; stroke: #000000; stroke-width: 0.8; stroke-linejoin: miter; stroke-linecap: square"/>
   </g>
   <g id="patch_8">
    <path d="M 72.899609 177.478594 
L 164.734231 177.478594 
" style="fill: none; stroke: #000000; stroke-width: 0.8; stroke-linejoin: miter; stroke-linecap: square"/>
   </g>
   <g id="text_9">
    <!-- Z2044 -->
    <g transform="translate(77.63442 27.478594) scale(0.255 -0.255)">
     <defs>
      <path id="DejaVuSans-5a" d="M 359 4666 
L 4025 4666 
L 4025 4184 
L 1075 531 
L 4097 531 
L 4097 0 
L 288 0 
L 288 481 
L 3238 4134 
L 359 4134 
L 359 4666 
z
" transform="scale(0.015625)"/>
      <path id="DejaVuSans-32" d="M 1228 531 
L 3431 531 
L 3431 0 
L 469 0 
L 469 531 
Q 828 903 1448 1529 
Q 2069 2156 2228 2338 
Q 2531 2678 2651 2914 
Q 2772 3150 2772 3378 
Q 2772 3750 2511 3984 
Q 2250 4219 1831 4219 
Q 1534 4219 1204 4116 
Q 875 4013 500 3803 
L 500 4441 
Q 881 4594 1212 4672 
Q 1544 4750 1819 4750 
Q 2544 4750 2975 4387 
Q 3406 4025 3406 3419 
Q 3406 3131 3298 2873 
Q 3191 2616 2906 2266 
Q 2828 2175 2409 1742 
Q 1991 1309 1228 531 
z
" transform="scale(0.015625)"/>
      <path id="DejaVuSans-34" d="M 2419 4116 
L 825 1625 
L 2419 1625 
L 2419 4116 
z
M 2253 4666 
L 3047 4666 
L 3047 1625 
L 3713 1625 
L 3713 1100 
L 3047 1100 
L 3047 0 
L 2419 0 
L 2419 1100 
L 313 1100 
L 313 1709 
L 2253 4666 
z
" transform="scale(0.015625)"/>
     </defs>
     <use xlink:href="#DejaVuSans-5a"/>
     <use xlink:href="#DejaVuSans-32" x="68.505859"/>
     <use xlink:href="#DejaVuSans-30" x="132.128906"/>
     <use xlink:href="#DejaVuSans-34" x="195.751953"/>
     <use xlink:href="#DejaVuSans-34" x="259.375"/>
    </g>
   </g>
  </g>
  <g id="axes_2">
   <g id="patch_9">
    <path d="M 212.070656 177.478594 
L 318.914429 177.478594 
L 318.914429 33.478594 
L 212.070656 33.478594 
L 212.070656 177.478594 
z
" style="fill: none"/>
   </g>
   <g id="matplotlib.axis_3">
    <g id="xtick_5">
     <g id="line2d_10">
      <g>
       <use xlink:href="#mf8bdc3486a" x="223.756693" y="177.478594" style="stroke: #000000"/>
      </g>
     </g>
     <g id="text_10">
      <!-- Q350 -->
      <g transform="translate(228.723568 234.505469) rotate(-90) scale(0.18 -0.18)">
       <defs>
        <path id="DejaVuSans-51" d="M 2522 4238 
Q 1834 4238 1429 3725 
Q 1025 3213 1025 2328 
Q 1025 1447 1429 934 
Q 1834 422 2522 422 
Q 3209 422 3611 934 
Q 4013 1447 4013 2328 
Q 4013 3213 3611 3725 
Q 3209 4238 2522 4238 
z
M 3406 84 
L 4238 -825 
L 3475 -825 
L 2784 -78 
Q 2681 -84 2626 -87 
Q 2572 -91 2522 -91 
Q 1538 -91 948 567 
Q 359 1225 359 2328 
Q 359 3434 948 4092 
Q 1538 4750 2522 4750 
Q 3503 4750 4090 4092 
Q 4678 3434 4678 2328 
Q 4678 1516 4351 937 
Q 4025 359 3406 84 
z
" transform="scale(0.015625)"/>
        <path id="DejaVuSans-35" d="M 691 4666 
L 3169 4666 
L 3169 4134 
L 1269 4134 
L 1269 2991 
Q 1406 3038 1543 3061 
Q 1681 3084 1819 3084 
Q 2600 3084 3056 2656 
Q 3513 2228 3513 1497 
Q 3513 744 3044 326 
Q 2575 -91 1722 -91 
Q 1428 -91 1123 -41 
Q 819 9 494 109 
L 494 744 
Q 775 591 1075 516 
Q 1375 441 1709 441 
Q 2250 441 2565 725 
Q 2881 1009 2881 1497 
Q 2881 1984 2565 2268 
Q 2250 2553 1709 2553 
Q 1456 2553 1204 2497 
Q 953 2441 691 2322 
L 691 4666 
z
" transform="scale(0.015625)"/>
       </defs>
       <use xlink:href="#DejaVuSans-51"/>
       <use xlink:href="#DejaVuSans-33" x="78.710938"/>
       <use xlink:href="#DejaVuSans-35" x="142.333984"/>
       <use xlink:href="#DejaVuSans-30" x="205.957031"/>
      </g>
     </g>
    </g>
    <g id="xtick_6">
     <g id="line2d_11">
      <g>
       <use xlink:href="#mf8bdc3486a" x="257.145373" y="177.478594" style="stroke: #000000"/>
      </g>
     </g>
     <g id="text_11">
      <!-- H398 -->
      <g transform="translate(262.112248 233.872656) rotate(-90) scale(0.18 -0.18)">
       <defs>
        <path id="DejaVuSans-48" d="M 628 4666 
L 1259 4666 
L 1259 2753 
L 3553 2753 
L 3553 4666 
L 4184 4666 
L 4184 0 
L 3553 0 
L 3553 2222 
L 1259 2222 
L 1259 0 
L 628 0 
L 628 4666 
z
" transform="scale(0.015625)"/>
        <path id="DejaVuSans-38" d="M 2034 2216 
Q 1584 2216 1326 1975 
Q 1069 1734 1069 1313 
Q 1069 891 1326 650 
Q 1584 409 2034 409 
Q 2484 409 2743 651 
Q 3003 894 3003 1313 
Q 3003 1734 2745 1975 
Q 2488 2216 2034 2216 
z
M 1403 2484 
Q 997 2584 770 2862 
Q 544 3141 544 3541 
Q 544 4100 942 4425 
Q 1341 4750 2034 4750 
Q 2731 4750 3128 4425 
Q 3525 4100 3525 3541 
Q 3525 3141 3298 2862 
Q 3072 2584 2669 2484 
Q 3125 2378 3379 2068 
Q 3634 1759 3634 1313 
Q 3634 634 3220 271 
Q 2806 -91 2034 -91 
Q 1263 -91 848 271 
Q 434 634 434 1313 
Q 434 1759 690 2068 
Q 947 2378 1403 2484 
z
M 1172 3481 
Q 1172 3119 1398 2916 
Q 1625 2713 2034 2713 
Q 2441 2713 2670 2916 
Q 2900 3119 2900 3481 
Q 2900 3844 2670 4047 
Q 2441 4250 2034 4250 
Q 1625 4250 1398 4047 
Q 1172 3844 1172 3481 
z
" transform="scale(0.015625)"/>
       </defs>
       <use xlink:href="#DejaVuSans-48"/>
       <use xlink:href="#DejaVuSans-33" x="75.195312"/>
       <use xlink:href="#DejaVuSans-39" x="138.818359"/>
       <use xlink:href="#DejaVuSans-38" x="202.441406"/>
      </g>
     </g>
    </g>
    <g id="xtick_7">
     <g id="line2d_12">
      <g>
       <use xlink:href="#mf8bdc3486a" x="273.839712" y="177.478594" style="stroke: #000000"/>
      </g>
     </g>
     <g id="text_12">
      <!-- H399 -->
      <g transform="translate(278.806587 233.872656) rotate(-90) scale(0.18 -0.18)">
       <use xlink:href="#DejaVuSans-48"/>
       <use xlink:href="#DejaVuSans-33" x="75.195312"/>
       <use xlink:href="#DejaVuSans-39" x="138.818359"/>
       <use xlink:href="#DejaVuSans-39" x="202.441406"/>
      </g>
     </g>
    </g>
    <g id="xtick_8">
     <g id="line2d_13">
      <g>
       <use xlink:href="#mf8bdc3486a" x="307.228392" y="177.478594" style="stroke: #000000"/>
      </g>
     </g>
     <g id="text_13">
      <!-- H401 -->
      <g transform="translate(312.195267 233.872656) rotate(-90) scale(0.18 -0.18)">
       <defs>
        <path id="DejaVuSans-31" d="M 794 531 
L 1825 531 
L 1825 4091 
L 703 3866 
L 703 4441 
L 1819 4666 
L 2450 4666 
L 2450 531 
L 3481 531 
L 3481 0 
L 794 0 
L 794 531 
z
" transform="scale(0.015625)"/>
       </defs>
       <use xlink:href="#DejaVuSans-48"/>
       <use xlink:href="#DejaVuSans-34" x="75.195312"/>
       <use xlink:href="#DejaVuSans-30" x="138.818359"/>
       <use xlink:href="#DejaVuSans-31" x="202.441406"/>
      </g>
     </g>
    </g>
   </g>
   <g id="matplotlib.axis_4">
    <g id="ytick_5">
     <g id="line2d_14">
      <g>
       <use xlink:href="#mc5e95af90d" x="212.070656" y="169.764308" style="stroke: #000000"/>
      </g>
     </g>
     <g id="text_14">
      <!-- 0.0 -->
      <g transform="translate(174.945031 176.602902) scale(0.18 -0.18)">
       <use xlink:href="#DejaVuSans-30"/>
       <use xlink:href="#DejaVuSans-2e" x="63.623047"/>
       <use xlink:href="#DejaVuSans-30" x="95.410156"/>
      </g>
     </g>
    </g>
    <g id="ytick_6">
     <g id="line2d_15">
      <g>
       <use xlink:href="#mc5e95af90d" x="212.070656" y="131.536926" style="stroke: #000000"/>
      </g>
     </g>
     <g id="text_15">
      <!-- 0.3 -->
      <g transform="translate(174.945031 138.37552) scale(0.18 -0.18)">
       <use xlink:href="#DejaVuSans-30"/>
       <use xlink:href="#DejaVuSans-2e" x="63.623047"/>
       <use xlink:href="#DejaVuSans-33" x="95.410156"/>
      </g>
     </g>
    </g>
    <g id="ytick_7">
     <g id="line2d_16">
      <g>
       <use xlink:href="#mc5e95af90d" x="212.070656" y="93.309544" style="stroke: #000000"/>
      </g>
     </g>
     <g id="text_16">
      <!-- 0.6 -->
      <g transform="translate(174.945031 100.148138) scale(0.18 -0.18)">
       <use xlink:href="#DejaVuSans-30"/>
       <use xlink:href="#DejaVuSans-2e" x="63.623047"/>
       <use xlink:href="#DejaVuSans-36" x="95.410156"/>
      </g>
     </g>
    </g>
    <g id="ytick_8">
     <g id="line2d_17">
      <g>
       <use xlink:href="#mc5e95af90d" x="212.070656" y="55.082162" style="stroke: #000000"/>
      </g>
     </g>
     <g id="text_17">
      <!-- 0.9 -->
      <g transform="translate(174.945031 61.920755) scale(0.18 -0.18)">
       <use xlink:href="#DejaVuSans-30"/>
       <use xlink:href="#DejaVuSans-2e" x="63.623047"/>
       <use xlink:href="#DejaVuSans-39" x="95.410156"/>
      </g>
     </g>
    </g>
   </g>
   <g id="line2d_18">
    <path d="M 240.451033 177.478594 
L 240.451033 33.478594 
" clip-path="url(#p1888e4d1e9)" style="fill: none; stroke-dasharray: 2,5; stroke-dashoffset: 0; stroke: #000000"/>
   </g>
   <g id="line2d_19">
    <path d="M 290.534052 177.478594 
L 290.534052 33.478594 
" clip-path="url(#p1888e4d1e9)" style="fill: none; stroke-dasharray: 2,5; stroke-dashoffset: 0; stroke: #000000"/>
   </g>
   <g id="patch_10">
    <path d="M 212.070656 177.478594 
L 212.070656 33.478594 
" style="fill: none; stroke: #000000; stroke-width: 0.8; stroke-linejoin: miter; stroke-linecap: square"/>
   </g>
   <g id="patch_11">
    <path d="M 212.070656 177.478594 
L 318.914429 177.478594 
" style="fill: none; stroke: #000000; stroke-width: 0.8; stroke-linejoin: miter; stroke-linecap: square"/>
   </g>
   <g id="text_18">
    <g id="patch_12">
     <path d="M 215.409524 184.738058 
L 258.755774 184.738058 
L 258.755774 115.055558 
L 215.409524 115.055558 
L 215.409524 184.738058 
z
" style="fill: none"/>
    </g>
    <path d="M 230.601732 169.764308 
Q 229.616802 169.764308 228.53293 169.764308 
Q 227.453554 169.764308 226.261744 169.764308 
Q 222.016201 169.764308 219.780994 169.764308 
Q 217.545787 169.764308 217.545787 169.764308 
Q 217.545787 169.764308 219.780994 169.764308 
Q 222.016201 169.764308 226.261744 169.764308 
Q 227.453554 169.764308 228.550919 169.764308 
Q 229.648284 169.764308 230.601732 169.764308 
L 230.601732 169.764308 
Q 229.535849 169.764308 228.528432 169.764308 
Q 227.525513 169.764308 226.455132 169.764308 
Q 224.179449 169.764308 223.01912 169.764308 
Q 221.858792 169.764308 221.858792 169.764308 
Q 221.858792 169.764308 223.01912 169.764308 
Q 224.179449 169.764308 226.455132 169.764308 
Q 227.525513 169.764308 228.528432 169.764308 
Q 229.535849 169.764308 230.601732 169.764308 
L 230.601732 169.764308 
z
" style="fill: #004488"/>
   </g>
   <g id="text_19">
    <g id="patch_13">
     <path d="M 215.409524 184.738058 
L 258.755774 184.738058 
L 258.755774 115.055558 
L 215.409524 115.055558 
L 215.409524 184.738058 
z
" style="fill: none"/>
    </g>
    <path d="M 217.055571 169.764308 
L 221.202172 169.764308 
L 221.202172 169.764308 
L 227.691916 169.764308 
L 232.387199 169.764308 
L 225.76703 169.764308 
L 232.625561 169.764308 
L 228.015729 169.764308 
L 223.041607 169.764308 
L 221.202172 169.764308 
L 221.202172 169.764308 
L 217.055571 169.764308 
L 217.055571 169.764308 
z
" style="fill: #004488"/>
   </g>
   <g id="text_20">
    <g id="patch_14">
     <path d="M 215.409524 184.738058 
L 258.755774 184.738058 
L 258.755774 115.055558 
L 215.409524 115.055558 
L 215.409524 184.738058 
z
" style="fill: none"/>
    </g>
    <path d="M 218.571194 169.764308 
L 218.571194 169.764308 
L 222.717795 169.764308 
L 222.717795 169.764308 
L 231.586663 169.764308 
L 231.586663 169.764308 
L 218.571194 169.764308 
z
" style="fill: #004488"/>
   </g>
   <g id="text_21">
    <g id="patch_15">
     <path d="M 215.409524 184.738058 
L 258.755774 184.738058 
L 258.755774 115.055558 
L 215.409524 115.055558 
L 215.409524 184.738058 
z
" style="fill: none"/>
    </g>
    <path d="M 217.082555 169.764308 
L 221.539476 169.764308 
L 227.386093 169.764308 
L 227.386093 169.764308 
L 231.03798 169.764308 
L 231.03798 169.764308 
L 226.612541 169.764308 
L 220.734442 169.764308 
L 220.734442 169.764308 
L 217.082555 169.764308 
L 217.082555 169.764308 
z
" style="fill: #004488"/>
   </g>
   <g id="text_22">
    <g id="patch_16">
     <path d="M 215.409524 184.738058 
L 258.755774 184.738058 
L 258.755774 115.055558 
L 215.409524 115.055558 
L 215.409524 184.738058 
z
" style="fill: none"/>
    </g>
    <path d="M 221.831807 169.764308 
L 221.831807 169.764308 
L 223.531824 169.764308 
Q 225.569145 169.764308 226.392168 169.764308 
Q 227.215192 169.764308 227.215192 169.764308 
Q 227.215192 169.764308 226.392168 169.764308 
Q 225.569145 169.764308 223.531824 169.764308 
L 221.831807 169.764308 
z
M 217.685207 169.764308 
L 223.378912 169.764308 
Q 227.723398 169.764308 229.625797 169.764308 
Q 231.528196 169.764308 231.528196 169.764308 
Q 231.528196 169.764308 229.625797 169.764308 
Q 227.723398 169.764308 223.378912 169.764308 
L 221.831807 169.764308 
L 221.831807 169.764308 
L 217.685207 169.764308 
L 217.685207 169.764308 
z
" style="fill: #004488"/>
   </g>
   <g id="text_23">
    <g id="patch_17">
     <path d="M 215.409524 184.738058 
L 258.755774 184.738058 
L 258.755774 115.055558 
L 215.409524 115.055558 
L 215.409524 184.738058 
z
" style="fill: none"/>
    </g>
    <path d="M 230.984011 169.764308 
L 226.342697 169.764308 
L 230.984011 169.764308 
L 229.913631 169.764308 
L 225.249829 169.764308 
L 225.249829 169.764308 
L 222.83023 169.764308 
L 222.83023 169.764308 
L 218.17992 169.764308 
L 217.10954 169.764308 
L 221.777838 169.764308 
L 217.10954 169.764308 
L 218.17992 169.764308 
L 222.83023 169.764308 
L 222.83023 169.764308 
L 225.249829 169.764308 
L 225.249829 169.764308 
L 229.913631 169.764308 
L 230.984011 169.764308 
z
" style="fill: #004488"/>
   </g>
   <g id="text_24">
    <g id="patch_18">
     <path d="M 215.409524 184.738058 
L 258.755774 184.738058 
L 258.755774 115.055558 
L 215.409524 115.055558 
L 215.409524 184.738058 
z
" style="fill: none"/>
    </g>
    <path d="M 215.89974 169.764308 
L 219.317762 169.764308 
L 220.734442 169.764308 
L 222.452448 169.764308 
L 225.699569 169.764308 
L 227.678424 169.764308 
L 228.802773 169.764308 
L 232.24778 169.764308 
L 229.972097 169.764308 
L 226.315713 169.764308 
L 224.067014 169.764308 
L 221.957734 169.764308 
L 218.346324 169.764308 
L 215.89974 169.764308 
z
" style="fill: #004488"/>
   </g>
   <g id="text_25">
    <g id="patch_19">
     <path d="M 215.409524 184.738058 
L 258.755774 184.738058 
L 258.755774 115.055558 
L 215.409524 115.055558 
L 215.409524 184.738058 
z
" style="fill: none"/>
    </g>
    <path d="M 227.664932 169.764308 
L 227.664932 169.764308 
L 224.827074 169.764308 
L 224.827074 169.764308 
L 231.289834 169.764308 
L 231.289834 169.764308 
Q 230.098024 169.764308 228.654359 169.764308 
Q 227.215192 169.764308 225.569145 169.764308 
Q 221.494502 169.764308 219.272788 169.764308 
Q 217.055571 169.764308 217.055571 169.764308 
Q 217.055571 169.764308 219.295275 169.764308 
Q 221.539476 169.764308 225.76703 169.764308 
Q 227.030799 169.764308 228.254091 169.764308 
Q 229.477383 169.764308 230.547764 169.764308 
L 230.547764 169.764308 
Q 229.675269 169.764308 228.541924 169.764308 
Q 227.413078 169.764308 226.063858 169.764308 
Q 223.702725 169.764308 222.533401 169.764308 
Q 221.368575 169.764308 221.368575 169.764308 
Q 221.368575 169.764308 222.492925 169.764308 
Q 223.617274 169.764308 225.76703 169.764308 
Q 226.414655 169.764308 226.891379 169.764308 
Q 227.368104 169.764308 227.664932 169.764308 
z
" style="fill: #004488"/>
   </g>
   <g id="text_26">
    <g id="patch_20">
     <path d="M 215.409524 184.738058 
L 258.755774 184.738058 
L 258.755774 115.055558 
L 215.409524 115.055558 
L 215.409524 184.738058 
z
" style="fill: none"/>
    </g>
    <path d="M 217.33441 169.764308 
L 221.48101 169.764308 
L 221.48101 169.764308 
L 226.66651 169.764308 
L 226.66651 169.764308 
L 230.81311 169.764308 
L 230.81311 169.764308 
L 226.66651 169.764308 
L 226.66651 169.764308 
L 221.48101 169.764308 
L 221.48101 169.764308 
L 217.33441 169.764308 
L 217.33441 169.764308 
z
" style="fill: #004488"/>
   </g>
   <g id="text_27">
    <g id="patch_21">
     <path d="M 215.409524 184.738058 
L 258.755774 184.738058 
L 258.755774 115.055558 
L 215.409524 115.055558 
L 215.409524 184.738058 
z
" style="fill: none"/>
    </g>
    <path d="M 224.629189 169.764308 
Q 224.431303 169.764308 224.296381 169.764308 
Q 224.165957 169.764308 224.040029 169.764308 
Q 220.428619 169.764308 218.566697 169.764308 
Q 216.704774 169.764308 216.704774 169.764308 
Q 216.704774 169.764308 218.566697 169.764308 
Q 220.428619 169.764308 224.067014 169.764308 
Q 227.723398 169.764308 229.585321 169.764308 
Q 231.447243 169.764308 231.447243 169.764308 
Q 231.447243 169.764308 230.561256 169.764308 
Q 229.675269 169.764308 227.988744 169.764308 
L 230.601732 169.764308 
L 227.763875 169.764308 
L 224.629189 169.764308 
z
M 224.067014 169.764308 
Q 222.479433 169.764308 221.746357 169.764308 
Q 221.017778 169.764308 221.017778 169.764308 
Q 221.017778 169.764308 221.746357 169.764308 
Q 222.479433 169.764308 224.067014 169.764308 
Q 225.668087 169.764308 226.396666 169.764308 
Q 227.129742 169.764308 227.129742 169.764308 
Q 227.129742 169.764308 226.396666 169.764308 
Q 225.668087 169.764308 224.067014 169.764308 
z
" style="fill: #004488"/>
   </g>
   <g id="text_28">
    <g id="patch_22">
     <path d="M 215.409524 184.738058 
L 258.755774 184.738058 
L 258.755774 115.055558 
L 215.409524 115.055558 
L 215.409524 184.738058 
z
" style="fill: none"/>
    </g>
    <path d="M 230.840095 169.764308 
L 217.770657 169.764308 
L 217.770657 169.764308 
L 230.840095 169.764308 
L 230.840095 169.764308 
L 221.917258 169.764308 
L 221.917258 169.764308 
L 229.999081 169.764308 
L 229.999081 169.764308 
L 221.917258 169.764308 
L 221.917258 169.764308 
L 230.840095 169.764308 
L 230.840095 169.764308 
z
" style="fill: #004488"/>
   </g>
   <g id="text_29">
    <g id="patch_23">
     <path d="M 215.409524 184.738058 
L 258.755774 184.738058 
L 258.755774 115.055558 
L 215.409524 115.055558 
L 215.409524 184.738058 
z
" style="fill: none"/>
    </g>
    <path d="M 226.75196 169.764308 
Q 227.368104 169.764308 227.826838 169.764308 
Q 228.285573 169.764308 228.942193 169.764308 
L 232.737996 169.764308 
L 228.18663 169.764308 
L 225.654595 169.764308 
Q 225.54216 169.764308 225.362264 169.764308 
Q 224.251407 169.764308 222.744779 169.764308 
L 221.427041 169.764308 
L 221.427041 169.764308 
L 217.280441 169.764308 
L 217.280441 169.764308 
L 223.266477 169.764308 
Q 227.314135 169.764308 229.077115 169.764308 
Q 230.840095 169.764308 230.840095 169.764308 
Q 230.840095 169.764308 229.787704 169.764308 
Q 228.735312 169.764308 226.75196 169.764308 
z
M 221.427041 169.764308 
L 221.427041 169.764308 
L 223.378912 169.764308 
Q 225.078928 169.764308 225.816501 169.764308 
Q 226.554075 169.764308 226.554075 169.764308 
Q 226.554075 169.764308 225.820999 169.764308 
Q 225.09242 169.764308 223.378912 169.764308 
L 221.427041 169.764308 
z
" style="fill: #004488"/>
   </g>
   <g id="text_30">
    <g id="patch_24">
     <path d="M 215.409524 184.738058 
L 258.755774 184.738058 
L 258.755774 115.055558 
L 215.409524 115.055558 
L 215.409524 184.738058 
z
" style="fill: none"/>
    </g>
    <path d="M 217.829123 169.764308 
L 217.829123 169.764308 
L 230.322894 169.764308 
L 230.322894 169.764308 
L 226.149309 169.764308 
L 226.149309 169.764308 
L 230.322894 169.764308 
L 230.322894 169.764308 
L 217.829123 169.764308 
L 217.829123 169.764308 
L 222.002708 169.764308 
L 222.002708 169.764308 
L 217.829123 169.764308 
z
" style="fill: #004488"/>
   </g>
   <g id="text_31">
    <g id="patch_25">
     <path d="M 215.409524 184.738058 
L 258.755774 184.738058 
L 258.755774 115.055558 
L 215.409524 115.055558 
L 215.409524 184.738058 
z
" style="fill: none"/>
    </g>
    <path d="M 226.149309 169.764308 
L 222.002708 169.764308 
L 222.002708 169.764308 
L 216.673292 169.764308 
L 216.673292 169.764308 
L 231.474228 169.764308 
L 231.474228 169.764308 
L 226.149309 169.764308 
L 226.149309 169.764308 
z
" style="fill: #004488"/>
   </g>
   <g id="text_32">
    <g id="patch_26">
     <path d="M 215.409524 184.738058 
L 258.755774 184.738058 
L 258.755774 115.055558 
L 215.409524 115.055558 
L 215.409524 184.738058 
z
" style="fill: none"/>
    </g>
    <path d="M 215.521959 169.764308 
L 219.992372 169.764308 
L 224.067014 169.764308 
L 228.155148 169.764308 
L 232.625561 169.764308 
L 226.149309 169.764308 
L 226.149309 169.764308 
L 222.002708 169.764308 
L 222.002708 169.764308 
L 215.521959 169.764308 
z
" style="fill: #004488"/>
   </g>
   <g id="text_33">
    <g id="patch_27">
     <path d="M 215.409524 184.738058 
L 258.755774 184.738058 
L 258.755774 115.055558 
L 215.409524 115.055558 
L 215.409524 184.738058 
z
" style="fill: none"/>
    </g>
    <path d="M 224.067014 169.764308 
L 222.115143 169.764308 
L 226.036874 169.764308 
L 224.067014 169.764308 
z
M 221.539476 169.764308 
L 226.612541 169.764308 
L 232.274764 169.764308 
L 228.128164 169.764308 
L 226.837411 169.764308 
L 221.283125 169.764308 
L 220.019356 169.764308 
L 215.872756 169.764308 
L 221.539476 169.764308 
z
" style="fill: #004488"/>
   </g>
   <g id="text_34">
    <g id="patch_28">
     <path d="M 215.409524 184.738058 
L 258.755774 184.738058 
L 258.755774 115.055558 
L 215.409524 115.055558 
L 215.409524 184.738058 
z
" style="fill: none"/>
    </g>
    <path d="M 221.48101 169.764308 
L 221.48101 169.764308 
L 222.60536 169.764308 
Q 225.051944 169.764308 226.090843 169.764308 
Q 227.129742 169.764308 227.129742 169.764308 
Q 227.129742 169.764308 226.090843 169.764308 
Q 225.051944 169.764308 222.60536 169.764308 
L 221.48101 169.764308 
z
M 217.33441 169.764308 
L 221.777838 169.764308 
Q 226.918364 169.764308 229.180555 169.764308 
Q 231.447243 169.764308 231.447243 169.764308 
Q 231.447243 169.764308 229.180555 169.764308 
Q 226.918364 169.764308 221.777838 169.764308 
L 217.33441 169.764308 
L 217.33441 169.764308 
z
" style="fill: #004488"/>
   </g>
   <g id="text_35">
    <g id="patch_29">
     <path d="M 215.409524 184.720285 
L 258.755774 184.720285 
L 258.755774 115.037785 
L 215.409524 115.037785 
L 215.409524 184.720285 
z
" style="fill: none"/>
    </g>
    <path d="M 231.03798 169.734409 
L 222.115143 169.734409 
L 222.115143 169.737561 
L 230.237443 169.737561 
L 230.237443 169.740118 
L 222.115143 169.740118 
L 222.115143 169.746507 
L 217.968543 169.746507 
L 217.968543 169.731851 
L 231.03798 169.731851 
L 231.03798 169.734409 
z
" style="fill: #004488"/>
   </g>
   <g id="text_36">
    <g id="patch_30">
     <path d="M 215.409524 183.049715 
L 258.755774 183.049715 
L 258.755774 113.367215 
L 215.409524 113.367215 
L 215.409524 183.049715 
z
" style="fill: none"/>
    </g>
    <path d="M 222.578375 167.248325 
Q 219.443689 167.145929 218.332832 167.033524 
Q 217.221975 166.921119 217.221975 166.730954 
Q 217.221975 166.486897 219.047918 166.347546 
Q 220.878359 166.207809 224.067014 166.207809 
Q 225.515176 166.207809 226.963338 166.236295 
Q 228.4115 166.264397 229.82818 166.319444 
L 229.82818 166.665898 
Q 228.492453 166.585444 227.116249 166.543484 
Q 225.740046 166.50114 224.390826 166.50114 
Q 222.888696 166.50114 222.083662 166.553108 
Q 221.283125 166.604691 221.283125 166.700928 
Q 221.283125 166.775609 221.867786 166.824497 
Q 222.452448 166.873001 224.305376 166.931898 
L 226.090843 166.98964 
Q 228.622878 167.068939 229.814688 167.200207 
Q 231.010996 167.331474 231.010996 167.530878 
Q 231.010996 167.803037 229.131083 167.936999 
Q 227.255669 168.070961 223.464363 168.070961 
Q 221.903766 168.070961 220.334174 168.039395 
Q 218.76908 168.007444 217.307425 167.944698 
L 217.307425 167.577842 
Q 218.966965 167.679083 220.518567 167.728356 
Q 222.070169 167.77763 223.59029 167.77763 
Q 225.119405 167.77763 225.960418 167.718348 
Q 226.805929 167.658681 226.805929 167.55128 
Q 226.805929 167.470826 226.243754 167.410004 
Q 225.68158 167.349182 224.615696 167.314537 
L 222.578375 167.248325 
z
" style="fill: #004488"/>
   </g>
   <g id="text_37">
    <g id="patch_31">
     <path d="M 215.409524 179.18773 
L 258.755774 179.18773 
L 258.755774 109.50523 
L 215.409524 109.50523 
L 215.409524 179.18773 
z
" style="fill: none"/>
    </g>
    <path d="M 224.067014 162.832885 
L 227.763875 155.912045 
L 231.93746 155.912045 
L 226.949846 164.198616 
L 221.202172 164.198616 
L 216.21006 155.912045 
L 220.383645 155.912045 
L 224.067014 162.832885 
z
" style="fill: #004488"/>
   </g>
   <g id="text_38">
    <g id="patch_32">
     <path d="M 215.409524 164.536653 
L 258.755774 164.536653 
L 258.755774 94.854153 
L 215.409524 94.854153 
L 215.409524 164.536653 
z
" style="fill: none"/>
    </g>
    <path d="M 216.619324 44.460859 
L 221.566461 44.460859 
L 224.067014 90.474071 
L 226.554075 44.460859 
L 231.528196 44.460859 
L 231.528196 149.368389 
L 227.96176 149.368389 
L 227.96176 65.338624 
L 225.740046 111.200549 
L 222.438956 111.200549 
L 220.190257 65.338624 
L 220.190257 149.368389 
L 216.619324 149.368389 
L 216.619324 44.460859 
z
" style="fill: #004488"/>
   </g>
   <g id="text_39">
    <g id="patch_33">
     <path d="M 248.798203 184.738058 
L 292.144453 184.738058 
L 292.144453 115.055558 
L 248.798203 115.055558 
L 248.798203 184.738058 
z
" style="fill: none"/>
    </g>
    <path d="M 250.44425 169.764308 
L 254.590851 169.764308 
L 254.590851 169.764308 
L 261.080596 169.764308 
L 265.775879 169.764308 
L 259.155709 169.764308 
L 266.014241 169.764308 
L 261.404408 169.764308 
L 256.430286 169.764308 
L 254.590851 169.764308 
L 254.590851 169.764308 
L 250.44425 169.764308 
L 250.44425 169.764308 
z
" style="fill: #808080"/>
   </g>
   <g id="text_40">
    <g id="patch_34">
     <path d="M 248.798203 184.738058 
L 292.144453 184.738058 
L 292.144453 115.055558 
L 248.798203 115.055558 
L 248.798203 184.738058 
z
" style="fill: none"/>
    </g>
    <path d="M 251.959873 169.764308 
L 251.959873 169.764308 
L 256.106474 169.764308 
L 256.106474 169.764308 
L 264.975342 169.764308 
L 264.975342 169.764308 
L 251.959873 169.764308 
z
" style="fill: #808080"/>
   </g>
   <g id="text_41">
    <g id="patch_35">
     <path d="M 248.798203 184.738058 
L 292.144453 184.738058 
L 292.144453 115.055558 
L 248.798203 115.055558 
L 248.798203 184.738058 
z
" style="fill: none"/>
    </g>
    <path d="M 250.471235 169.764308 
L 254.928156 169.764308 
L 260.774773 169.764308 
L 260.774773 169.764308 
L 264.426659 169.764308 
L 264.426659 169.764308 
L 260.00122 169.764308 
L 254.123122 169.764308 
L 254.123122 169.764308 
L 250.471235 169.764308 
L 250.471235 169.764308 
z
" style="fill: #808080"/>
   </g>
   <g id="text_42">
    <g id="patch_36">
     <path d="M 248.798203 184.738058 
L 292.144453 184.738058 
L 292.144453 115.055558 
L 248.798203 115.055558 
L 248.798203 184.738058 
z
" style="fill: none"/>
    </g>
    <path d="M 255.220487 169.764308 
L 255.220487 169.764308 
L 256.920503 169.764308 
Q 258.957824 169.764308 259.780848 169.764308 
Q 260.603871 169.764308 260.603871 169.764308 
Q 260.603871 169.764308 259.780848 169.764308 
Q 258.957824 169.764308 256.920503 169.764308 
L 255.220487 169.764308 
z
M 251.073886 169.764308 
L 256.767591 169.764308 
Q 261.112077 169.764308 263.014476 169.764308 
Q 264.916876 169.764308 264.916876 169.764308 
Q 264.916876 169.764308 263.014476 169.764308 
Q 261.112077 169.764308 256.767591 169.764308 
L 255.220487 169.764308 
L 255.220487 169.764308 
L 251.073886 169.764308 
L 251.073886 169.764308 
z
" style="fill: #808080"/>
   </g>
   <g id="text_43">
    <g id="patch_37">
     <path d="M 248.798203 184.738058 
L 292.144453 184.738058 
L 292.144453 115.055558 
L 248.798203 115.055558 
L 248.798203 184.738058 
z
" style="fill: none"/>
    </g>
    <path d="M 264.372691 169.764308 
L 259.731376 169.764308 
L 264.372691 169.764308 
L 263.30231 169.764308 
L 258.638509 169.764308 
L 258.638509 169.764308 
L 256.218909 169.764308 
L 256.218909 169.764308 
L 251.5686 169.764308 
L 250.498219 169.764308 
L 255.166518 169.764308 
L 250.498219 169.764308 
L 251.5686 169.764308 
L 256.218909 169.764308 
L 256.218909 169.764308 
L 258.638509 169.764308 
L 258.638509 169.764308 
L 263.30231 169.764308 
L 264.372691 169.764308 
z
" style="fill: #808080"/>
   </g>
   <g id="text_44">
    <g id="patch_38">
     <path d="M 248.798203 184.738058 
L 292.144453 184.738058 
L 292.144453 115.055558 
L 248.798203 115.055558 
L 248.798203 184.738058 
z
" style="fill: none"/>
    </g>
    <path d="M 257.455693 169.764308 
L 261.152554 169.764308 
L 265.326139 169.764308 
L 260.338525 169.764308 
L 254.590851 169.764308 
L 249.59874 169.764308 
L 253.772325 169.764308 
L 257.455693 169.764308 
z
" style="fill: #808080"/>
   </g>
   <g id="text_45">
    <g id="patch_39">
     <path d="M 248.798203 184.738058 
L 292.144453 184.738058 
L 292.144453 115.055558 
L 248.798203 115.055558 
L 248.798203 184.738058 
z
" style="fill: none"/>
    </g>
    <path d="M 249.288419 169.764308 
L 252.706441 169.764308 
L 254.123122 169.764308 
L 255.841127 169.764308 
L 259.088248 169.764308 
L 261.067103 169.764308 
L 262.191453 169.764308 
L 265.636459 169.764308 
L 263.360776 169.764308 
L 259.704392 169.764308 
L 257.455693 169.764308 
L 255.346414 169.764308 
L 251.735003 169.764308 
L 249.288419 169.764308 
z
" style="fill: #808080"/>
   </g>
   <g id="text_46">
    <g id="patch_40">
     <path d="M 248.798203 184.738058 
L 292.144453 184.738058 
L 292.144453 115.055558 
L 248.798203 115.055558 
L 248.798203 184.738058 
z
" style="fill: none"/>
    </g>
    <path d="M 261.053611 169.764308 
L 261.053611 169.764308 
L 258.215753 169.764308 
L 258.215753 169.764308 
L 264.678514 169.764308 
L 264.678514 169.764308 
Q 263.486703 169.764308 262.043039 169.764308 
Q 260.603871 169.764308 258.957824 169.764308 
Q 254.883182 169.764308 252.661467 169.764308 
Q 250.44425 169.764308 250.44425 169.764308 
Q 250.44425 169.764308 252.683954 169.764308 
Q 254.928156 169.764308 259.155709 169.764308 
Q 260.419478 169.764308 261.64277 169.764308 
Q 262.866062 169.764308 263.936443 169.764308 
L 263.936443 169.764308 
Q 263.063948 169.764308 261.930604 169.764308 
Q 260.801757 169.764308 259.452538 169.764308 
Q 257.091404 169.764308 255.922081 169.764308 
Q 254.757255 169.764308 254.757255 169.764308 
Q 254.757255 169.764308 255.881604 169.764308 
Q 257.005953 169.764308 259.155709 169.764308 
Q 259.803335 169.764308 260.280059 169.764308 
Q 260.756783 169.764308 261.053611 169.764308 
z
" style="fill: #808080"/>
   </g>
   <g id="text_47">
    <g id="patch_41">
     <path d="M 248.798203 184.738058 
L 292.144453 184.738058 
L 292.144453 115.055558 
L 248.798203 115.055558 
L 248.798203 184.738058 
z
" style="fill: none"/>
    </g>
    <path d="M 250.723089 169.764308 
L 254.86969 169.764308 
L 254.86969 169.764308 
L 260.055189 169.764308 
L 260.055189 169.764308 
L 264.201789 169.764308 
L 264.201789 169.764308 
L 260.055189 169.764308 
L 260.055189 169.764308 
L 254.86969 169.764308 
L 254.86969 169.764308 
L 250.723089 169.764308 
L 250.723089 169.764308 
z
" style="fill: #808080"/>
   </g>
   <g id="text_48">
    <g id="patch_42">
     <path d="M 248.798203 184.738058 
L 292.144453 184.738058 
L 292.144453 115.055558 
L 248.798203 115.055558 
L 248.798203 184.738058 
z
" style="fill: none"/>
    </g>
    <path d="M 258.017868 169.764308 
Q 257.819982 169.764308 257.68506 169.764308 
Q 257.554636 169.764308 257.428709 169.764308 
Q 253.817299 169.764308 251.955376 169.764308 
Q 250.093453 169.764308 250.093453 169.764308 
Q 250.093453 169.764308 251.955376 169.764308 
Q 253.817299 169.764308 257.455693 169.764308 
Q 261.112077 169.764308 262.974 169.764308 
Q 264.835922 169.764308 264.835922 169.764308 
Q 264.835922 169.764308 263.949935 169.764308 
Q 263.063948 169.764308 261.377424 169.764308 
L 263.990412 169.764308 
L 261.152554 169.764308 
L 258.017868 169.764308 
z
M 257.455693 169.764308 
Q 255.868112 169.764308 255.135036 169.764308 
Q 254.406458 169.764308 254.406458 169.764308 
Q 254.406458 169.764308 255.135036 169.764308 
Q 255.868112 169.764308 257.455693 169.764308 
Q 259.056767 169.764308 259.785345 169.764308 
Q 260.518421 169.764308 260.518421 169.764308 
Q 260.518421 169.764308 259.785345 169.764308 
Q 259.056767 169.764308 257.455693 169.764308 
z
" style="fill: #808080"/>
   </g>
   <g id="text_49">
    <g id="patch_43">
     <path d="M 248.798203 184.738058 
L 292.144453 184.738058 
L 292.144453 115.055558 
L 248.798203 115.055558 
L 248.798203 184.738058 
z
" style="fill: none"/>
    </g>
    <path d="M 264.228774 169.764308 
L 251.159337 169.764308 
L 251.159337 169.764308 
L 264.228774 169.764308 
L 264.228774 169.764308 
L 255.305937 169.764308 
L 255.305937 169.764308 
L 263.38776 169.764308 
L 263.38776 169.764308 
L 255.305937 169.764308 
L 255.305937 169.764308 
L 264.228774 169.764308 
L 264.228774 169.764308 
z
" style="fill: #808080"/>
   </g>
   <g id="text_50">
    <g id="patch_44">
     <path d="M 248.798203 184.738058 
L 292.144453 184.738058 
L 292.144453 115.055558 
L 248.798203 115.055558 
L 248.798203 184.738058 
z
" style="fill: none"/>
    </g>
    <path d="M 250.008003 169.764308 
L 254.95514 169.764308 
L 257.455693 169.764308 
L 259.942754 169.764308 
L 264.916876 169.764308 
L 264.916876 169.764308 
L 261.350439 169.764308 
L 261.350439 169.764308 
L 259.128725 169.764308 
L 255.827635 169.764308 
L 253.578936 169.764308 
L 253.578936 169.764308 
L 250.008003 169.764308 
L 250.008003 169.764308 
z
" style="fill: #808080"/>
   </g>
   <g id="text_51">
    <g id="patch_45">
     <path d="M 248.798203 184.738058 
L 292.144453 184.738058 
L 292.144453 115.055558 
L 248.798203 115.055558 
L 248.798203 184.738058 
z
" style="fill: none"/>
    </g>
    <path d="M 260.140639 169.764308 
Q 260.756783 169.764308 261.215517 169.764308 
Q 261.674252 169.764308 262.330872 169.764308 
L 266.126676 169.764308 
L 261.575309 169.764308 
L 259.043274 169.764308 
Q 258.93084 169.764308 258.750944 169.764308 
Q 257.640086 169.764308 256.133458 169.764308 
L 254.815721 169.764308 
L 254.815721 169.764308 
L 250.66912 169.764308 
L 250.66912 169.764308 
L 256.655156 169.764308 
Q 260.702814 169.764308 262.465794 169.764308 
Q 264.228774 169.764308 264.228774 169.764308 
Q 264.228774 169.764308 263.176383 169.764308 
Q 262.123992 169.764308 260.140639 169.764308 
z
M 254.815721 169.764308 
L 254.815721 169.764308 
L 256.767591 169.764308 
Q 258.467608 169.764308 259.205181 169.764308 
Q 259.942754 169.764308 259.942754 169.764308 
Q 259.942754 169.764308 259.209678 169.764308 
Q 258.4811 169.764308 256.767591 169.764308 
L 254.815721 169.764308 
z
" style="fill: #808080"/>
   </g>
   <g id="text_52">
    <g id="patch_46">
     <path d="M 248.798203 184.738058 
L 292.144453 184.738058 
L 292.144453 115.055558 
L 248.798203 115.055558 
L 248.798203 184.738058 
z
" style="fill: none"/>
    </g>
    <path d="M 264.426659 169.764308 
L 255.503823 169.764308 
L 255.503823 169.764308 
L 263.626123 169.764308 
L 263.626123 169.764308 
L 255.503823 169.764308 
L 255.503823 169.764308 
L 251.357222 169.764308 
L 251.357222 169.764308 
L 264.426659 169.764308 
L 264.426659 169.764308 
z
" style="fill: #808080"/>
   </g>
   <g id="text_53">
    <g id="patch_47">
     <path d="M 248.798203 184.738058 
L 292.144453 184.738058 
L 292.144453 115.055558 
L 248.798203 115.055558 
L 248.798203 184.738058 
z
" style="fill: none"/>
    </g>
    <path d="M 259.537988 169.764308 
L 255.391388 169.764308 
L 255.391388 169.764308 
L 250.061972 169.764308 
L 250.061972 169.764308 
L 264.862907 169.764308 
L 264.862907 169.764308 
L 259.537988 169.764308 
L 259.537988 169.764308 
z
" style="fill: #808080"/>
   </g>
   <g id="text_54">
    <g id="patch_48">
     <path d="M 248.798203 184.738058 
L 292.144453 184.738058 
L 292.144453 115.055558 
L 248.798203 115.055558 
L 248.798203 184.738058 
z
" style="fill: none"/>
    </g>
    <path d="M 248.910638 169.764308 
L 253.381051 169.764308 
L 257.455693 169.764308 
L 261.543827 169.764308 
L 266.014241 169.764308 
L 259.537988 169.764308 
L 259.537988 169.764308 
L 255.391388 169.764308 
L 255.391388 169.764308 
L 248.910638 169.764308 
z
" style="fill: #808080"/>
   </g>
   <g id="text_55">
    <g id="patch_49">
     <path d="M 248.798203 184.738058 
L 292.144453 184.738058 
L 292.144453 115.055558 
L 248.798203 115.055558 
L 248.798203 184.738058 
z
" style="fill: none"/>
    </g>
    <path d="M 257.455693 169.764308 
L 255.503823 169.764308 
L 259.425553 169.764308 
L 257.455693 169.764308 
z
M 254.928156 169.764308 
L 260.00122 169.764308 
L 265.663444 169.764308 
L 261.516843 169.764308 
L 260.22609 169.764308 
L 254.671804 169.764308 
L 253.408035 169.764308 
L 249.261435 169.764308 
L 254.928156 169.764308 
z
" style="fill: #808080"/>
   </g>
   <g id="text_56">
    <g id="patch_50">
     <path d="M 248.798203 184.738058 
L 292.144453 184.738058 
L 292.144453 115.055558 
L 248.798203 115.055558 
L 248.798203 184.738058 
z
" style="fill: none"/>
    </g>
    <path d="M 254.86969 169.764308 
L 254.86969 169.764308 
L 255.994039 169.764308 
Q 258.440623 169.764308 259.479522 169.764308 
Q 260.518421 169.764308 260.518421 169.764308 
Q 260.518421 169.764308 259.479522 169.764308 
Q 258.440623 169.764308 255.994039 169.764308 
L 254.86969 169.764308 
z
M 250.723089 169.764308 
L 255.166518 169.764308 
Q 260.307043 169.764308 262.569234 169.764308 
Q 264.835922 169.764308 264.835922 169.764308 
Q 264.835922 169.764308 262.569234 169.764308 
Q 260.307043 169.764308 255.166518 169.764308 
L 250.723089 169.764308 
L 250.723089 169.764308 
z
" style="fill: #808080"/>
   </g>
   <g id="text_57">
    <g id="patch_51">
     <path d="M 248.798203 184.731548 
L 292.144453 184.731548 
L 292.144453 115.049048 
L 248.798203 115.049048 
L 248.798203 184.731548 
z
" style="fill: none"/>
    </g>
    <path d="M 251.217803 169.753357 
L 251.217803 169.75242 
L 263.711573 169.75242 
L 263.711573 169.753357 
L 259.537988 169.753357 
L 259.537988 169.756851 
L 263.711573 169.756851 
L 263.711573 169.757788 
L 251.217803 169.757788 
L 251.217803 169.756851 
L 255.391388 169.756851 
L 255.391388 169.753357 
L 251.217803 169.753357 
z
" style="fill: #808080"/>
   </g>
   <g id="text_58">
    <g id="patch_52">
     <path d="M 248.798203 182.975616 
L 292.144453 182.975616 
L 292.144453 113.293116 
L 248.798203 113.293116 
L 248.798203 182.975616 
z
" style="fill: none"/>
    </g>
    <path d="M 255.967055 166.197093 
Q 252.832368 165.973805 251.721511 165.728691 
Q 250.610654 165.483578 250.610654 165.0689 
Q 250.610654 164.536702 252.436597 164.232828 
Q 254.267038 163.928115 257.455693 163.928115 
Q 258.903855 163.928115 260.352017 163.990233 
Q 261.800179 164.051511 263.216859 164.17155 
L 263.216859 164.927036 
Q 261.881132 164.751595 260.504929 164.660098 
Q 259.128725 164.56776 257.779506 164.56776 
Q 256.277375 164.56776 255.472341 164.681083 
Q 254.671804 164.793567 254.671804 165.003424 
Q 254.671804 165.166274 255.256466 165.272881 
Q 255.841127 165.378649 257.694055 165.507082 
L 259.479522 165.632996 
Q 262.011557 165.805919 263.203367 166.092164 
Q 264.399675 166.37841 264.399675 166.813234 
Q 264.399675 167.406711 262.519763 167.698832 
Q 260.644348 167.990954 256.853042 167.990954 
Q 255.292445 167.990954 253.722853 167.922121 
Q 252.157759 167.852448 250.696105 167.715621 
L 250.696105 166.915645 
Q 252.355644 167.136415 253.907246 167.243862 
Q 255.458849 167.351309 256.978969 167.351309 
Q 258.508084 167.351309 259.349097 167.222036 
Q 260.194608 167.091925 260.194608 166.857724 
Q 260.194608 166.682283 259.632434 166.549653 
Q 259.070259 166.417024 258.004376 166.341475 
L 255.967055 166.197093 
z
" style="fill: #808080"/>
   </g>
   <g id="text_59">
    <g id="patch_53">
     <path d="M 248.798203 173.705833 
L 292.144453 173.705833 
L 292.144453 104.023333 
L 248.798203 104.023333 
L 248.798203 173.705833 
z
" style="fill: none"/>
    </g>
    <path d="M 263.990412 154.761685 
Q 263.005482 156.64679 261.921609 157.581001 
Q 260.842233 158.515213 259.650423 158.515213 
Q 255.40488 158.515213 253.169673 148.155478 
Q 250.934467 137.77906 250.934467 118.177307 
Q 250.934467 98.525507 253.169673 88.14909 
Q 255.40488 77.772673 259.650423 77.772673 
Q 260.842233 77.772673 261.939598 78.706884 
Q 263.036963 79.641095 263.990412 81.5262 
L 263.990412 98.625601 
Q 262.924529 94.972168 261.917111 93.287252 
Q 260.914192 91.585653 259.843811 91.585653 
Q 257.568128 91.585653 256.4078 98.291954 
Q 255.247471 104.981574 255.247471 118.177307 
Q 255.247471 131.306311 256.4078 138.012613 
Q 257.568128 144.702233 259.843811 144.702233 
Q 260.914192 144.702233 261.917111 143.017316 
Q 262.924529 141.315717 263.990412 137.662284 
L 263.990412 154.761685 
z
" style="fill: #808080"/>
   </g>
   <g id="text_60">
    <g id="patch_54">
     <path d="M 265.492543 184.738058 
L 308.838793 184.738058 
L 308.838793 115.055558 
L 265.492543 115.055558 
L 265.492543 184.738058 
z
" style="fill: none"/>
    </g>
    <path d="M 280.684751 169.764308 
Q 279.699821 169.764308 278.615949 169.764308 
Q 277.536573 169.764308 276.344763 169.764308 
Q 272.099219 169.764308 269.864013 169.764308 
Q 267.628806 169.764308 267.628806 169.764308 
Q 267.628806 169.764308 269.864013 169.764308 
Q 272.099219 169.764308 276.344763 169.764308 
Q 277.536573 169.764308 278.633938 169.764308 
Q 279.731303 169.764308 280.684751 169.764308 
L 280.684751 169.764308 
Q 279.618868 169.764308 278.611451 169.764308 
Q 277.608531 169.764308 276.538151 169.764308 
Q 274.262468 169.764308 273.102139 169.764308 
Q 271.941811 169.764308 271.941811 169.764308 
Q 271.941811 169.764308 273.102139 169.764308 
Q 274.262468 169.764308 276.538151 169.764308 
Q 277.608531 169.764308 278.611451 169.764308 
Q 279.618868 169.764308 280.684751 169.764308 
L 280.684751 169.764308 
z
" style="fill: #808080"/>
   </g>
   <g id="text_61">
    <g id="patch_55">
     <path d="M 265.492543 184.738058 
L 308.838793 184.738058 
L 308.838793 115.055558 
L 265.492543 115.055558 
L 265.492543 184.738058 
z
" style="fill: none"/>
    </g>
    <path d="M 267.13859 169.764308 
L 271.285191 169.764308 
L 271.285191 169.764308 
L 277.774935 169.764308 
L 282.470218 169.764308 
L 275.850049 169.764308 
L 282.70858 169.764308 
L 278.098748 169.764308 
L 273.124626 169.764308 
L 271.285191 169.764308 
L 271.285191 169.764308 
L 267.13859 169.764308 
L 267.13859 169.764308 
z
" style="fill: #808080"/>
   </g>
   <g id="text_62">
    <g id="patch_56">
     <path d="M 265.492543 184.738058 
L 308.838793 184.738058 
L 308.838793 115.055558 
L 265.492543 115.055558 
L 265.492543 184.738058 
z
" style="fill: none"/>
    </g>
    <path d="M 267.165574 169.764308 
L 271.622495 169.764308 
L 277.469112 169.764308 
L 277.469112 169.764308 
L 281.120999 169.764308 
L 281.120999 169.764308 
L 276.69556 169.764308 
L 270.817461 169.764308 
L 270.817461 169.764308 
L 267.165574 169.764308 
L 267.165574 169.764308 
z
" style="fill: #808080"/>
   </g>
   <g id="text_63">
    <g id="patch_57">
     <path d="M 265.492543 184.738058 
L 308.838793 184.738058 
L 308.838793 115.055558 
L 265.492543 115.055558 
L 265.492543 184.738058 
z
" style="fill: none"/>
    </g>
    <path d="M 271.914826 169.764308 
L 271.914826 169.764308 
L 273.614842 169.764308 
Q 275.652164 169.764308 276.475187 169.764308 
Q 277.298211 169.764308 277.298211 169.764308 
Q 277.298211 169.764308 276.475187 169.764308 
Q 275.652164 169.764308 273.614842 169.764308 
L 271.914826 169.764308 
z
M 267.768226 169.764308 
L 273.461931 169.764308 
Q 277.806417 169.764308 279.708816 169.764308 
Q 281.611215 169.764308 281.611215 169.764308 
Q 281.611215 169.764308 279.708816 169.764308 
Q 277.806417 169.764308 273.461931 169.764308 
L 271.914826 169.764308 
L 271.914826 169.764308 
L 267.768226 169.764308 
L 267.768226 169.764308 
z
" style="fill: #808080"/>
   </g>
   <g id="text_64">
    <g id="patch_58">
     <path d="M 265.492543 184.738058 
L 308.838793 184.738058 
L 308.838793 115.055558 
L 265.492543 115.055558 
L 265.492543 184.738058 
z
" style="fill: none"/>
    </g>
    <path d="M 272.661394 169.764308 
Q 269.526708 169.764308 268.415851 169.764308 
Q 267.304994 169.764308 267.304994 169.764308 
Q 267.304994 169.764308 269.130937 169.764308 
Q 270.961378 169.764308 274.150033 169.764308 
Q 275.598195 169.764308 277.046357 169.764308 
Q 278.494519 169.764308 279.911199 169.764308 
L 279.911199 169.764308 
Q 278.575472 169.764308 277.199268 169.764308 
Q 275.823065 169.764308 274.473845 169.764308 
Q 272.971715 169.764308 272.16668 169.764308 
Q 271.366144 169.764308 271.366144 169.764308 
Q 271.366144 169.764308 271.950805 169.764308 
Q 272.535467 169.764308 274.388395 169.764308 
L 276.173862 169.764308 
Q 278.705896 169.764308 279.897707 169.764308 
Q 281.094015 169.764308 281.094015 169.764308 
Q 281.094015 169.764308 279.214102 169.764308 
Q 277.338688 169.764308 273.547381 169.764308 
Q 271.986785 169.764308 270.417193 169.764308 
Q 268.852098 169.764308 267.390444 169.764308 
L 267.390444 169.764308 
Q 269.049984 169.764308 270.601586 169.764308 
Q 272.153188 169.764308 273.673309 169.764308 
Q 275.202424 169.764308 276.043437 169.764308 
Q 276.888948 169.764308 276.888948 169.764308 
Q 276.888948 169.764308 276.326773 169.764308 
Q 275.764598 169.764308 274.698715 169.764308 
L 272.661394 169.764308 
z
" style="fill: #808080"/>
   </g>
   <g id="text_65">
    <g id="patch_59">
     <path d="M 265.492543 184.738058 
L 308.838793 184.738058 
L 308.838793 115.055558 
L 265.492543 115.055558 
L 265.492543 184.738058 
z
" style="fill: none"/>
    </g>
    <path d="M 281.06703 169.764308 
L 276.425716 169.764308 
L 281.06703 169.764308 
L 279.99665 169.764308 
L 275.332848 169.764308 
L 275.332848 169.764308 
L 272.913248 169.764308 
L 272.913248 169.764308 
L 268.262939 169.764308 
L 267.192559 169.764308 
L 271.860857 169.764308 
L 267.192559 169.764308 
L 268.262939 169.764308 
L 272.913248 169.764308 
L 272.913248 169.764308 
L 275.332848 169.764308 
L 275.332848 169.764308 
L 279.99665 169.764308 
L 281.06703 169.764308 
z
" style="fill: #808080"/>
   </g>
   <g id="text_66">
    <g id="patch_60">
     <path d="M 265.492543 184.738058 
L 308.838793 184.738058 
L 308.838793 115.055558 
L 265.492543 115.055558 
L 265.492543 184.738058 
z
" style="fill: none"/>
    </g>
    <path d="M 274.150033 169.764308 
L 277.846894 169.764308 
L 282.020478 169.764308 
L 277.032865 169.764308 
L 271.285191 169.764308 
L 266.293079 169.764308 
L 270.466664 169.764308 
L 274.150033 169.764308 
z
" style="fill: #808080"/>
   </g>
   <g id="text_67">
    <g id="patch_61">
     <path d="M 265.492543 184.738058 
L 308.838793 184.738058 
L 308.838793 115.055558 
L 265.492543 115.055558 
L 265.492543 184.738058 
z
" style="fill: none"/>
    </g>
    <path d="M 265.982759 169.764308 
L 269.400781 169.764308 
L 270.817461 169.764308 
L 272.535467 169.764308 
L 275.782588 169.764308 
L 277.761443 169.764308 
L 278.885792 169.764308 
L 282.330799 169.764308 
L 280.055116 169.764308 
L 276.398732 169.764308 
L 274.150033 169.764308 
L 272.040753 169.764308 
L 268.429343 169.764308 
L 265.982759 169.764308 
z
" style="fill: #808080"/>
   </g>
   <g id="text_68">
    <g id="patch_62">
     <path d="M 265.492543 184.738058 
L 308.838793 184.738058 
L 308.838793 115.055558 
L 265.492543 115.055558 
L 265.492543 184.738058 
z
" style="fill: none"/>
    </g>
    <path d="M 277.747951 169.764308 
L 277.747951 169.764308 
L 274.910093 169.764308 
L 274.910093 169.764308 
L 281.372853 169.764308 
L 281.372853 169.764308 
Q 280.181043 169.764308 278.737378 169.764308 
Q 277.298211 169.764308 275.652164 169.764308 
Q 271.577521 169.764308 269.355807 169.764308 
Q 267.13859 169.764308 267.13859 169.764308 
Q 267.13859 169.764308 269.378294 169.764308 
Q 271.622495 169.764308 275.850049 169.764308 
Q 277.113818 169.764308 278.33711 169.764308 
Q 279.560402 169.764308 280.630783 169.764308 
L 280.630783 169.764308 
Q 279.758287 169.764308 278.624943 169.764308 
Q 277.496097 169.764308 276.146877 169.764308 
Q 273.785744 169.764308 272.61642 169.764308 
Q 271.451594 169.764308 271.451594 169.764308 
Q 271.451594 169.764308 272.575944 169.764308 
Q 273.700293 169.764308 275.850049 169.764308 
Q 276.497674 169.764308 276.974398 169.764308 
Q 277.451123 169.764308 277.747951 169.764308 
z
" style="fill: #808080"/>
   </g>
   <g id="text_69">
    <g id="patch_63">
     <path d="M 265.492543 184.738058 
L 308.838793 184.738058 
L 308.838793 115.055558 
L 265.492543 115.055558 
L 265.492543 184.738058 
z
" style="fill: none"/>
    </g>
    <path d="M 267.417429 169.764308 
L 271.564029 169.764308 
L 271.564029 169.764308 
L 276.749529 169.764308 
L 276.749529 169.764308 
L 280.896129 169.764308 
L 280.896129 169.764308 
L 276.749529 169.764308 
L 276.749529 169.764308 
L 271.564029 169.764308 
L 271.564029 169.764308 
L 267.417429 169.764308 
L 267.417429 169.764308 
z
" style="fill: #808080"/>
   </g>
   <g id="text_70">
    <g id="patch_64">
     <path d="M 265.492543 184.738058 
L 308.838793 184.738058 
L 308.838793 115.055558 
L 265.492543 115.055558 
L 265.492543 184.738058 
z
" style="fill: none"/>
    </g>
    <path d="M 274.712207 169.764308 
Q 274.514322 169.764308 274.3794 169.764308 
Q 274.248976 169.764308 274.123048 169.764308 
Q 270.511638 169.764308 268.649716 169.764308 
Q 266.787793 169.764308 266.787793 169.764308 
Q 266.787793 169.764308 268.649716 169.764308 
Q 270.511638 169.764308 274.150033 169.764308 
Q 277.806417 169.764308 279.66834 169.764308 
Q 281.530262 169.764308 281.530262 169.764308 
Q 281.530262 169.764308 280.644275 169.764308 
Q 279.758287 169.764308 278.071763 169.764308 
L 280.684751 169.764308 
L 277.846894 169.764308 
L 274.712207 169.764308 
z
M 274.150033 169.764308 
Q 272.562451 169.764308 271.829376 169.764308 
Q 271.100797 169.764308 271.100797 169.764308 
Q 271.100797 169.764308 271.829376 169.764308 
Q 272.562451 169.764308 274.150033 169.764308 
Q 275.751106 169.764308 276.479685 169.764308 
Q 277.21276 169.764308 277.21276 169.764308 
Q 277.21276 169.764308 276.479685 169.764308 
Q 275.751106 169.764308 274.150033 169.764308 
z
" style="fill: #808080"/>
   </g>
   <g id="text_71">
    <g id="patch_65">
     <path d="M 265.492543 184.738058 
L 308.838793 184.738058 
L 308.838793 115.055558 
L 265.492543 115.055558 
L 265.492543 184.738058 
z
" style="fill: none"/>
    </g>
    <path d="M 280.923113 169.764308 
L 267.853676 169.764308 
L 267.853676 169.764308 
L 280.923113 169.764308 
L 280.923113 169.764308 
L 272.000277 169.764308 
L 272.000277 169.764308 
L 280.0821 169.764308 
L 280.0821 169.764308 
L 272.000277 169.764308 
L 272.000277 169.764308 
L 280.923113 169.764308 
L 280.923113 169.764308 
z
" style="fill: #808080"/>
   </g>
   <g id="text_72">
    <g id="patch_66">
     <path d="M 265.492543 184.738058 
L 308.838793 184.738058 
L 308.838793 115.055558 
L 265.492543 115.055558 
L 265.492543 184.738058 
z
" style="fill: none"/>
    </g>
    <path d="M 266.702342 169.764308 
L 271.64948 169.764308 
L 274.150033 169.764308 
L 276.637094 169.764308 
L 281.611215 169.764308 
L 281.611215 169.764308 
L 278.044779 169.764308 
L 278.044779 169.764308 
L 275.823065 169.764308 
L 272.521975 169.764308 
L 270.273276 169.764308 
L 270.273276 169.764308 
L 266.702342 169.764308 
L 266.702342 169.764308 
z
" style="fill: #808080"/>
   </g>
   <g id="text_73">
    <g id="patch_67">
     <path d="M 265.492543 184.738058 
L 308.838793 184.738058 
L 308.838793 115.055558 
L 265.492543 115.055558 
L 265.492543 184.738058 
z
" style="fill: none"/>
    </g>
    <path d="M 276.834979 169.764308 
Q 277.451123 169.764308 277.909857 169.764308 
Q 278.368592 169.764308 279.025212 169.764308 
L 282.821015 169.764308 
L 278.269649 169.764308 
L 275.737614 169.764308 
Q 275.625179 169.764308 275.445283 169.764308 
Q 274.334426 169.764308 272.827798 169.764308 
L 271.51006 169.764308 
L 271.51006 169.764308 
L 267.36346 169.764308 
L 267.36346 169.764308 
L 273.349496 169.764308 
Q 277.397154 169.764308 279.160134 169.764308 
Q 280.923113 169.764308 280.923113 169.764308 
Q 280.923113 169.764308 279.870722 169.764308 
Q 278.818331 169.764308 276.834979 169.764308 
z
M 271.51006 169.764308 
L 271.51006 169.764308 
L 273.461931 169.764308 
Q 275.161947 169.764308 275.89952 169.764308 
Q 276.637094 169.764308 276.637094 169.764308 
Q 276.637094 169.764308 275.904018 169.764308 
Q 275.175439 169.764308 273.461931 169.764308 
L 271.51006 169.764308 
z
" style="fill: #808080"/>
   </g>
   <g id="text_74">
    <g id="patch_68">
     <path d="M 265.492543 184.738058 
L 308.838793 184.738058 
L 308.838793 115.055558 
L 265.492543 115.055558 
L 265.492543 184.738058 
z
" style="fill: none"/>
    </g>
    <path d="M 267.912142 169.764308 
L 267.912142 169.764308 
L 280.405913 169.764308 
L 280.405913 169.764308 
L 276.232328 169.764308 
L 276.232328 169.764308 
L 280.405913 169.764308 
L 280.405913 169.764308 
L 267.912142 169.764308 
L 267.912142 169.764308 
L 272.085727 169.764308 
L 272.085727 169.764308 
L 267.912142 169.764308 
z
" style="fill: #808080"/>
   </g>
   <g id="text_75">
    <g id="patch_69">
     <path d="M 265.492543 184.738058 
L 308.838793 184.738058 
L 308.838793 115.055558 
L 265.492543 115.055558 
L 265.492543 184.738058 
z
" style="fill: none"/>
    </g>
    <path d="M 281.120999 169.764308 
L 272.198162 169.764308 
L 272.198162 169.764308 
L 280.320462 169.764308 
L 280.320462 169.764308 
L 272.198162 169.764308 
L 272.198162 169.764308 
L 268.051562 169.764308 
L 268.051562 169.764308 
L 281.120999 169.764308 
L 281.120999 169.764308 
z
" style="fill: #808080"/>
   </g>
   <g id="text_76">
    <g id="patch_70">
     <path d="M 265.492543 184.738058 
L 308.838793 184.738058 
L 308.838793 115.055558 
L 265.492543 115.055558 
L 265.492543 184.738058 
z
" style="fill: none"/>
    </g>
    <path d="M 276.232328 169.764308 
L 272.085727 169.764308 
L 272.085727 169.764308 
L 266.756311 169.764308 
L 266.756311 169.764308 
L 281.557247 169.764308 
L 281.557247 169.764308 
L 276.232328 169.764308 
L 276.232328 169.764308 
z
" style="fill: #808080"/>
   </g>
   <g id="text_77">
    <g id="patch_71">
     <path d="M 265.492543 184.738058 
L 308.838793 184.738058 
L 308.838793 115.055558 
L 265.492543 115.055558 
L 265.492543 184.738058 
z
" style="fill: none"/>
    </g>
    <path d="M 265.604977 169.764308 
L 270.075391 169.764308 
L 274.150033 169.764308 
L 278.238167 169.764308 
L 282.70858 169.764308 
L 276.232328 169.764308 
L 276.232328 169.764308 
L 272.085727 169.764308 
L 272.085727 169.764308 
L 265.604977 169.764308 
z
" style="fill: #808080"/>
   </g>
   <g id="text_78">
    <g id="patch_72">
     <path d="M 265.492543 184.738058 
L 308.838793 184.738058 
L 308.838793 115.055558 
L 265.492543 115.055558 
L 265.492543 184.738058 
z
" style="fill: none"/>
    </g>
    <path d="M 274.150033 169.764308 
L 272.198162 169.764308 
L 276.119893 169.764308 
L 274.150033 169.764308 
z
M 271.622495 169.764308 
L 276.69556 169.764308 
L 282.357783 169.764308 
L 278.211183 169.764308 
L 276.92043 169.764308 
L 271.366144 169.764308 
L 270.102375 169.764308 
L 265.955774 169.764308 
L 271.622495 169.764308 
z
" style="fill: #808080"/>
   </g>
   <g id="text_79">
    <g id="patch_73">
     <path d="M 265.492543 184.738058 
L 308.838793 184.738058 
L 308.838793 115.055558 
L 265.492543 115.055558 
L 265.492543 184.738058 
z
" style="fill: none"/>
    </g>
    <path d="M 271.564029 169.764308 
L 271.564029 169.764308 
L 272.688379 169.764308 
Q 275.134963 169.764308 276.173862 169.764308 
Q 277.21276 169.764308 277.21276 169.764308 
Q 277.21276 169.764308 276.173862 169.764308 
Q 275.134963 169.764308 272.688379 169.764308 
L 271.564029 169.764308 
z
M 267.417429 169.764308 
L 271.860857 169.764308 
Q 277.001383 169.764308 279.263574 169.764308 
Q 281.530262 169.764308 281.530262 169.764308 
Q 281.530262 169.764308 279.263574 169.764308 
Q 277.001383 169.764308 271.860857 169.764308 
L 267.417429 169.764308 
L 267.417429 169.764308 
z
" style="fill: #808080"/>
   </g>
   <g id="text_80">
    <g id="patch_74">
     <path d="M 265.492543 179.680596 
L 308.838793 179.680596 
L 308.838793 109.998096 
L 265.492543 109.998096 
L 265.492543 179.680596 
z
" style="fill: none"/>
    </g>
    <path d="M 268.654213 164.556836 
L 268.654213 83.651792 
L 272.800814 83.651792 
L 272.800814 150.439289 
L 281.669681 150.439289 
L 281.669681 164.556836 
L 268.654213 164.556836 
z
" style="fill: #808080"/>
   </g>
   <g id="text_81">
    <g id="patch_75">
     <path d="M 298.881222 184.738058 
L 342.227472 184.738058 
L 342.227472 115.055558 
L 298.881222 115.055558 
L 298.881222 184.738058 
z
" style="fill: none"/>
    </g>
    <path d="M 314.073431 169.764308 
Q 313.088501 169.764308 312.004628 169.764308 
Q 310.925252 169.764308 309.733442 169.764308 
Q 305.487899 169.764308 303.252692 169.764308 
Q 301.017486 169.764308 301.017486 169.764308 
Q 301.017486 169.764308 303.252692 169.764308 
Q 305.487899 169.764308 309.733442 169.764308 
Q 310.925252 169.764308 312.022617 169.764308 
Q 313.119982 169.764308 314.073431 169.764308 
L 314.073431 169.764308 
Q 313.007547 169.764308 312.00013 169.764308 
Q 310.997211 169.764308 309.92683 169.764308 
Q 307.651147 169.764308 306.490818 169.764308 
Q 305.33049 169.764308 305.33049 169.764308 
Q 305.33049 169.764308 306.490818 169.764308 
Q 307.651147 169.764308 309.92683 169.764308 
Q 310.997211 169.764308 312.00013 169.764308 
Q 313.007547 169.764308 314.073431 169.764308 
L 314.073431 169.764308 
z
" style="fill: #808080"/>
   </g>
   <g id="text_82">
    <g id="patch_76">
     <path d="M 298.881222 184.738058 
L 342.227472 184.738058 
L 342.227472 115.055558 
L 298.881222 115.055558 
L 298.881222 184.738058 
z
" style="fill: none"/>
    </g>
    <path d="M 300.527269 169.764308 
L 304.67387 169.764308 
L 304.67387 169.764308 
L 311.163614 169.764308 
L 315.858897 169.764308 
L 309.238728 169.764308 
L 316.09726 169.764308 
L 311.487427 169.764308 
L 306.513305 169.764308 
L 304.67387 169.764308 
L 304.67387 169.764308 
L 300.527269 169.764308 
L 300.527269 169.764308 
z
" style="fill: #808080"/>
   </g>
   <g id="text_83">
    <g id="patch_77">
     <path d="M 298.881222 184.738058 
L 342.227472 184.738058 
L 342.227472 115.055558 
L 298.881222 115.055558 
L 298.881222 184.738058 
z
" style="fill: none"/>
    </g>
    <path d="M 302.042892 169.764308 
L 302.042892 169.764308 
L 306.189493 169.764308 
L 306.189493 169.764308 
L 315.058361 169.764308 
L 315.058361 169.764308 
L 302.042892 169.764308 
z
" style="fill: #808080"/>
   </g>
   <g id="text_84">
    <g id="patch_78">
     <path d="M 298.881222 184.738058 
L 342.227472 184.738058 
L 342.227472 115.055558 
L 298.881222 115.055558 
L 298.881222 184.738058 
z
" style="fill: none"/>
    </g>
    <path d="M 305.303505 169.764308 
L 305.303505 169.764308 
L 307.003522 169.764308 
Q 309.040843 169.764308 309.863867 169.764308 
Q 310.68689 169.764308 310.68689 169.764308 
Q 310.68689 169.764308 309.863867 169.764308 
Q 309.040843 169.764308 307.003522 169.764308 
L 305.303505 169.764308 
z
M 301.156905 169.764308 
L 306.85061 169.764308 
Q 311.195096 169.764308 313.097495 169.764308 
Q 314.999895 169.764308 314.999895 169.764308 
Q 314.999895 169.764308 313.097495 169.764308 
Q 311.195096 169.764308 306.85061 169.764308 
L 305.303505 169.764308 
L 305.303505 169.764308 
L 301.156905 169.764308 
L 301.156905 169.764308 
z
" style="fill: #808080"/>
   </g>
   <g id="text_85">
    <g id="patch_79">
     <path d="M 298.881222 184.738058 
L 342.227472 184.738058 
L 342.227472 115.055558 
L 298.881222 115.055558 
L 298.881222 184.738058 
z
" style="fill: none"/>
    </g>
    <path d="M 306.050073 169.764308 
Q 302.915387 169.764308 301.80453 169.764308 
Q 300.693673 169.764308 300.693673 169.764308 
Q 300.693673 169.764308 302.519616 169.764308 
Q 304.350057 169.764308 307.538712 169.764308 
Q 308.986874 169.764308 310.435036 169.764308 
Q 311.883198 169.764308 313.299878 169.764308 
L 313.299878 169.764308 
Q 311.964151 169.764308 310.587948 169.764308 
Q 309.211744 169.764308 307.862525 169.764308 
Q 306.360394 169.764308 305.55536 169.764308 
Q 304.754823 169.764308 304.754823 169.764308 
Q 304.754823 169.764308 305.339485 169.764308 
Q 305.924146 169.764308 307.777074 169.764308 
L 309.562541 169.764308 
Q 312.094576 169.764308 313.286386 169.764308 
Q 314.482694 169.764308 314.482694 169.764308 
Q 314.482694 169.764308 312.602782 169.764308 
Q 310.727367 169.764308 306.936061 169.764308 
Q 305.375464 169.764308 303.805872 169.764308 
Q 302.240778 169.764308 300.779124 169.764308 
L 300.779124 169.764308 
Q 302.438663 169.764308 303.990265 169.764308 
Q 305.541868 169.764308 307.061988 169.764308 
Q 308.591103 169.764308 309.432116 169.764308 
Q 310.277627 169.764308 310.277627 169.764308 
Q 310.277627 169.764308 309.715452 169.764308 
Q 309.153278 169.764308 308.087395 169.764308 
L 306.050073 169.764308 
z
" style="fill: #808080"/>
   </g>
   <g id="text_86">
    <g id="patch_80">
     <path d="M 298.881222 184.738058 
L 342.227472 184.738058 
L 342.227472 115.055558 
L 298.881222 115.055558 
L 298.881222 184.738058 
z
" style="fill: none"/>
    </g>
    <path d="M 314.455709 169.764308 
L 309.814395 169.764308 
L 314.455709 169.764308 
L 313.385329 169.764308 
L 308.721528 169.764308 
L 308.721528 169.764308 
L 306.301928 169.764308 
L 306.301928 169.764308 
L 301.651619 169.764308 
L 300.581238 169.764308 
L 305.249537 169.764308 
L 300.581238 169.764308 
L 301.651619 169.764308 
L 306.301928 169.764308 
L 306.301928 169.764308 
L 308.721528 169.764308 
L 308.721528 169.764308 
L 313.385329 169.764308 
L 314.455709 169.764308 
z
" style="fill: #808080"/>
   </g>
   <g id="text_87">
    <g id="patch_81">
     <path d="M 298.881222 184.738058 
L 342.227472 184.738058 
L 342.227472 115.055558 
L 298.881222 115.055558 
L 298.881222 184.738058 
z
" style="fill: none"/>
    </g>
    <path d="M 307.538712 169.764308 
L 311.235573 169.764308 
L 315.409158 169.764308 
L 310.421544 169.764308 
L 304.67387 169.764308 
L 299.681759 169.764308 
L 303.855343 169.764308 
L 307.538712 169.764308 
z
" style="fill: #808080"/>
   </g>
   <g id="text_88">
    <g id="patch_82">
     <path d="M 298.881222 184.738058 
L 342.227472 184.738058 
L 342.227472 115.055558 
L 298.881222 115.055558 
L 298.881222 184.738058 
z
" style="fill: none"/>
    </g>
    <path d="M 299.371438 169.764308 
L 302.78946 169.764308 
L 304.20614 169.764308 
L 305.924146 169.764308 
L 309.171267 169.764308 
L 311.150122 169.764308 
L 312.274472 169.764308 
L 315.719478 169.764308 
L 313.443795 169.764308 
L 309.787411 169.764308 
L 307.538712 169.764308 
L 305.429433 169.764308 
L 301.818022 169.764308 
L 299.371438 169.764308 
z
" style="fill: #808080"/>
   </g>
   <g id="text_89">
    <g id="patch_83">
     <path d="M 298.881222 184.738058 
L 342.227472 184.738058 
L 342.227472 115.055558 
L 298.881222 115.055558 
L 298.881222 184.738058 
z
" style="fill: none"/>
    </g>
    <path d="M 300.806108 169.764308 
L 304.952708 169.764308 
L 304.952708 169.764308 
L 310.138208 169.764308 
L 310.138208 169.764308 
L 314.284808 169.764308 
L 314.284808 169.764308 
L 310.138208 169.764308 
L 310.138208 169.764308 
L 304.952708 169.764308 
L 304.952708 169.764308 
L 300.806108 169.764308 
L 300.806108 169.764308 
z
" style="fill: #808080"/>
   </g>
   <g id="text_90">
    <g id="patch_84">
     <path d="M 298.881222 184.738058 
L 342.227472 184.738058 
L 342.227472 115.055558 
L 298.881222 115.055558 
L 298.881222 184.738058 
z
" style="fill: none"/>
    </g>
    <path d="M 314.311793 169.764308 
L 301.242356 169.764308 
L 301.242356 169.764308 
L 314.311793 169.764308 
L 314.311793 169.764308 
L 305.388956 169.764308 
L 305.388956 169.764308 
L 313.470779 169.764308 
L 313.470779 169.764308 
L 305.388956 169.764308 
L 305.388956 169.764308 
L 314.311793 169.764308 
L 314.311793 169.764308 
z
" style="fill: #808080"/>
   </g>
   <g id="text_91">
    <g id="patch_85">
     <path d="M 298.881222 184.738058 
L 342.227472 184.738058 
L 342.227472 115.055558 
L 298.881222 115.055558 
L 298.881222 184.738058 
z
" style="fill: none"/>
    </g>
    <path d="M 300.091022 169.764308 
L 305.038159 169.764308 
L 307.538712 169.764308 
L 310.025773 169.764308 
L 314.999895 169.764308 
L 314.999895 169.764308 
L 311.433458 169.764308 
L 311.433458 169.764308 
L 309.211744 169.764308 
L 305.910654 169.764308 
L 303.661955 169.764308 
L 303.661955 169.764308 
L 300.091022 169.764308 
L 300.091022 169.764308 
z
" style="fill: #808080"/>
   </g>
   <g id="text_92">
    <g id="patch_86">
     <path d="M 298.881222 184.738058 
L 342.227472 184.738058 
L 342.227472 115.055558 
L 298.881222 115.055558 
L 298.881222 184.738058 
z
" style="fill: none"/>
    </g>
    <path d="M 310.223658 169.764308 
Q 310.839802 169.764308 311.298536 169.764308 
Q 311.757271 169.764308 312.413891 169.764308 
L 316.209694 169.764308 
L 311.658328 169.764308 
L 309.126293 169.764308 
Q 309.013858 169.764308 308.833963 169.764308 
Q 307.723105 169.764308 306.216477 169.764308 
L 304.89874 169.764308 
L 304.89874 169.764308 
L 300.752139 169.764308 
L 300.752139 169.764308 
L 306.738175 169.764308 
Q 310.785833 169.764308 312.548813 169.764308 
Q 314.311793 169.764308 314.311793 169.764308 
Q 314.311793 169.764308 313.259402 169.764308 
Q 312.207011 169.764308 310.223658 169.764308 
z
M 304.89874 169.764308 
L 304.89874 169.764308 
L 306.85061 169.764308 
Q 308.550626 169.764308 309.2882 169.764308 
Q 310.025773 169.764308 310.025773 169.764308 
Q 310.025773 169.764308 309.292697 169.764308 
Q 308.564119 169.764308 306.85061 169.764308 
L 304.89874 169.764308 
z
" style="fill: #808080"/>
   </g>
   <g id="text_93">
    <g id="patch_87">
     <path d="M 298.881222 184.738058 
L 342.227472 184.738058 
L 342.227472 115.055558 
L 298.881222 115.055558 
L 298.881222 184.738058 
z
" style="fill: none"/>
    </g>
    <path d="M 301.300822 169.764308 
L 301.300822 169.764308 
L 313.794592 169.764308 
L 313.794592 169.764308 
L 309.621007 169.764308 
L 309.621007 169.764308 
L 313.794592 169.764308 
L 313.794592 169.764308 
L 301.300822 169.764308 
L 301.300822 169.764308 
L 305.474407 169.764308 
L 305.474407 169.764308 
L 301.300822 169.764308 
z
" style="fill: #808080"/>
   </g>
   <g id="text_94">
    <g id="patch_88">
     <path d="M 298.881222 184.738058 
L 342.227472 184.738058 
L 342.227472 115.055558 
L 298.881222 115.055558 
L 298.881222 184.738058 
z
" style="fill: none"/>
    </g>
    <path d="M 314.509678 169.764308 
L 305.586842 169.764308 
L 305.586842 169.764308 
L 313.709141 169.764308 
L 313.709141 169.764308 
L 305.586842 169.764308 
L 305.586842 169.764308 
L 301.440241 169.764308 
L 301.440241 169.764308 
L 314.509678 169.764308 
L 314.509678 169.764308 
z
" style="fill: #808080"/>
   </g>
   <g id="text_95">
    <g id="patch_89">
     <path d="M 298.881222 184.738058 
L 342.227472 184.738058 
L 342.227472 115.055558 
L 298.881222 115.055558 
L 298.881222 184.738058 
z
" style="fill: none"/>
    </g>
    <path d="M 309.621007 169.764308 
L 305.474407 169.764308 
L 305.474407 169.764308 
L 300.144991 169.764308 
L 300.144991 169.764308 
L 314.945926 169.764308 
L 314.945926 169.764308 
L 309.621007 169.764308 
L 309.621007 169.764308 
z
" style="fill: #808080"/>
   </g>
   <g id="text_96">
    <g id="patch_90">
     <path d="M 298.881222 184.738058 
L 342.227472 184.738058 
L 342.227472 115.055558 
L 298.881222 115.055558 
L 298.881222 184.738058 
z
" style="fill: none"/>
    </g>
    <path d="M 298.993657 169.764308 
L 303.46407 169.764308 
L 307.538712 169.764308 
L 311.626846 169.764308 
L 316.09726 169.764308 
L 309.621007 169.764308 
L 309.621007 169.764308 
L 305.474407 169.764308 
L 305.474407 169.764308 
L 298.993657 169.764308 
z
" style="fill: #808080"/>
   </g>
   <g id="text_97">
    <g id="patch_91">
     <path d="M 298.881222 184.738058 
L 342.227472 184.738058 
L 342.227472 115.055558 
L 298.881222 115.055558 
L 298.881222 184.738058 
z
" style="fill: none"/>
    </g>
    <path d="M 307.538712 169.764308 
L 305.586842 169.764308 
L 309.508572 169.764308 
L 307.538712 169.764308 
z
M 305.011175 169.764308 
L 310.084239 169.764308 
L 315.746463 169.764308 
L 311.599862 169.764308 
L 310.309109 169.764308 
L 304.754823 169.764308 
L 303.491054 169.764308 
L 299.344454 169.764308 
L 305.011175 169.764308 
z
" style="fill: #808080"/>
   </g>
   <g id="text_98">
    <g id="patch_92">
     <path d="M 298.881222 184.738058 
L 342.227472 184.738058 
L 342.227472 115.055558 
L 298.881222 115.055558 
L 298.881222 184.738058 
z
" style="fill: none"/>
    </g>
    <path d="M 304.952708 169.764308 
L 304.952708 169.764308 
L 306.077058 169.764308 
Q 308.523642 169.764308 309.562541 169.764308 
Q 310.60144 169.764308 310.60144 169.764308 
Q 310.60144 169.764308 309.562541 169.764308 
Q 308.523642 169.764308 306.077058 169.764308 
L 304.952708 169.764308 
z
M 300.806108 169.764308 
L 305.249537 169.764308 
Q 310.390062 169.764308 312.652253 169.764308 
Q 314.918941 169.764308 314.918941 169.764308 
Q 314.918941 169.764308 312.652253 169.764308 
Q 310.390062 169.764308 305.249537 169.764308 
L 300.806108 169.764308 
L 300.806108 169.764308 
z
" style="fill: #808080"/>
   </g>
   <g id="text_99">
    <g id="patch_93">
     <path d="M 298.881222 183.010252 
L 342.227472 183.010252 
L 342.227472 113.327752 
L 298.881222 113.327752 
L 298.881222 183.010252 
z
" style="fill: none"/>
    </g>
    <path d="M 300.554254 164.479902 
L 305.011175 164.479902 
L 310.857791 167.060869 
L 310.857791 164.479902 
L 314.509678 164.479902 
L 314.509678 168.029919 
L 310.084239 168.029919 
L 304.20614 165.448953 
L 304.20614 168.029919 
L 300.554254 168.029919 
L 300.554254 164.479902 
z
" style="fill: #808080"/>
   </g>
   <g id="text_100">
    <g id="patch_94">
     <path d="M 298.881222 177.529923 
L 342.227472 177.529923 
L 342.227472 107.847423 
L 298.881222 107.847423 
L 298.881222 177.529923 
z
" style="fill: none"/>
    </g>
    <path d="M 308.100887 161.78393 
Q 307.903001 161.794181 307.768079 161.797598 
Q 307.637655 161.801015 307.511728 161.801015 
Q 303.900317 161.801015 302.038395 161.198484 
Q 300.176472 160.594813 300.176472 159.417085 
Q 300.176472 158.234802 302.038395 157.629992 
Q 303.900317 157.025183 307.538712 157.025183 
Q 311.195096 157.025183 313.057019 157.629992 
Q 314.918941 158.234802 314.918941 159.417085 
Q 314.918941 160.228054 314.032954 160.774775 
Q 313.146967 161.321496 311.460443 161.55613 
L 314.073431 162.118797 
L 311.235573 162.581231 
L 308.100887 161.78393 
z
M 307.538712 157.842986 
Q 305.951131 157.842986 305.218055 158.215439 
Q 304.489477 158.587892 304.489477 159.417085 
Q 304.489477 160.242861 305.218055 160.615315 
Q 305.951131 160.986629 307.538712 160.986629 
Q 309.139786 160.986629 309.868364 160.615315 
Q 310.60144 160.242861 310.60144 159.417085 
Q 310.60144 158.587892 309.868364 158.215439 
Q 309.139786 157.842986 307.538712 157.842986 
z
" style="fill: #808080"/>
   </g>
   <g id="text_101">
    <g id="patch_95">
     <path d="M 298.881222 166.661114 
L 342.227472 166.661114 
L 342.227472 96.978614 
L 298.881222 96.978614 
L 298.881222 166.661114 
z
" style="fill: none"/>
    </g>
    <path d="M 311.13663 135.604557 
L 311.13663 120.34475 
L 308.298772 120.34475 
L 308.298772 107.056716 
L 314.761532 107.056716 
L 314.761532 143.697398 
Q 313.569722 147.606652 312.126058 149.629862 
Q 310.68689 151.635926 309.040843 151.635926 
Q 304.966201 151.635926 302.744486 140.834041 
Q 300.527269 130.032155 300.527269 110.160115 
Q 300.527269 89.962304 302.766973 79.297585 
Q 305.011175 68.632867 309.238728 68.632867 
Q 310.502497 68.632867 311.725789 70.004535 
Q 312.949081 71.376203 314.019462 73.94808 
L 314.019462 91.453993 
Q 313.146967 87.16753 312.013623 85.007153 
Q 310.884776 82.82963 309.535557 82.82963 
Q 307.174423 82.82963 306.005099 89.619387 
Q 304.840274 96.391998 304.840274 110.160115 
Q 304.840274 123.499587 305.964623 130.477948 
Q 307.088972 137.439163 309.238728 137.439163 
Q 309.886354 137.439163 310.363078 136.993371 
Q 310.839802 136.530433 311.13663 135.604557 
z
" style="fill: #808080"/>
   </g>
   <g id="text_102">
    <!-- Z2044 -->
    <g transform="translate(224.310043 27.478594) scale(0.255 -0.255)">
     <use xlink:href="#DejaVuSans-5a"/>
     <use xlink:href="#DejaVuSans-32" x="68.505859"/>
     <use xlink:href="#DejaVuSans-30" x="132.128906"/>
     <use xlink:href="#DejaVuSans-34" x="195.751953"/>
     <use xlink:href="#DejaVuSans-34" x="259.375"/>
    </g>
   </g>
  </g>
  <g id="text_103">
   <!-- site -->
   <g transform="translate(169.127036 257.675) scale(0.255 -0.255)">
    <defs>
     <path id="DejaVuSans-73" d="M 2834 3397 
L 2834 2853 
Q 2591 2978 2328 3040 
Q 2066 3103 1784 3103 
Q 1356 3103 1142 2972 
Q 928 2841 928 2578 
Q 928 2378 1081 2264 
Q 1234 2150 1697 2047 
L 1894 2003 
Q 2506 1872 2764 1633 
Q 3022 1394 3022 966 
Q 3022 478 2636 193 
Q 2250 -91 1575 -91 
Q 1294 -91 989 -36 
Q 684 19 347 128 
L 347 722 
Q 666 556 975 473 
Q 1284 391 1588 391 
Q 1994 391 2212 530 
Q 2431 669 2431 922 
Q 2431 1156 2273 1281 
Q 2116 1406 1581 1522 
L 1381 1569 
Q 847 1681 609 1914 
Q 372 2147 372 2553 
Q 372 3047 722 3315 
Q 1072 3584 1716 3584 
Q 2034 3584 2315 3537 
Q 2597 3491 2834 3397 
z
" transform="scale(0.015625)"/>
     <path id="DejaVuSans-69" d="M 603 3500 
L 1178 3500 
L 1178 0 
L 603 0 
L 603 3500 
z
M 603 4863 
L 1178 4863 
L 1178 4134 
L 603 4134 
L 603 4863 
z
" transform="scale(0.015625)"/>
     <path id="DejaVuSans-74" d="M 1172 4494 
L 1172 3500 
L 2356 3500 
L 2356 3053 
L 1172 3053 
L 1172 1153 
Q 1172 725 1289 603 
Q 1406 481 1766 481 
L 2356 481 
L 2356 0 
L 1766 0 
Q 1100 0 847 248 
Q 594 497 594 1153 
L 594 3053 
L 172 3053 
L 172 3500 
L 594 3500 
L 594 4494 
L 1172 4494 
z
" transform="scale(0.015625)"/>
     <path id="DejaVuSans-65" d="M 3597 1894 
L 3597 1613 
L 953 1613 
Q 991 1019 1311 708 
Q 1631 397 2203 397 
Q 2534 397 2845 478 
Q 3156 559 3463 722 
L 3463 178 
Q 3153 47 2828 -22 
Q 2503 -91 2169 -91 
Q 1331 -91 842 396 
Q 353 884 353 1716 
Q 353 2575 817 3079 
Q 1281 3584 2069 3584 
Q 2775 3584 3186 3129 
Q 3597 2675 3597 1894 
z
M 3022 2063 
Q 3016 2534 2758 2815 
Q 2500 3097 2075 3097 
Q 1594 3097 1305 2825 
Q 1016 2553 972 2059 
L 3022 2063 
z
" transform="scale(0.015625)"/>
    </defs>
    <use xlink:href="#DejaVuSans-73"/>
    <use xlink:href="#DejaVuSans-69" x="52.099609"/>
    <use xlink:href="#DejaVuSans-74" x="79.882812"/>
    <use xlink:href="#DejaVuSans-65" x="119.091797"/>
   </g>
  </g>
  <g id="text_104">
   <!-- escape fraction -->
   <g transform="translate(26.576016 203.757187) rotate(-90) scale(0.255 -0.255)">
    <defs>
     <path id="DejaVuSans-63" d="M 3122 3366 
L 3122 2828 
Q 2878 2963 2633 3030 
Q 2388 3097 2138 3097 
Q 1578 3097 1268 2742 
Q 959 2388 959 1747 
Q 959 1106 1268 751 
Q 1578 397 2138 397 
Q 2388 397 2633 464 
Q 2878 531 3122 666 
L 3122 134 
Q 2881 22 2623 -34 
Q 2366 -91 2075 -91 
Q 1284 -91 818 406 
Q 353 903 353 1747 
Q 353 2603 823 3093 
Q 1294 3584 2113 3584 
Q 2378 3584 2631 3529 
Q 2884 3475 3122 3366 
z
" transform="scale(0.015625)"/>
     <path id="DejaVuSans-61" d="M 2194 1759 
Q 1497 1759 1228 1600 
Q 959 1441 959 1056 
Q 959 750 1161 570 
Q 1363 391 1709 391 
Q 2188 391 2477 730 
Q 2766 1069 2766 1631 
L 2766 1759 
L 2194 1759 
z
M 3341 1997 
L 3341 0 
L 2766 0 
L 2766 531 
Q 2569 213 2275 61 
Q 1981 -91 1556 -91 
Q 1019 -91 701 211 
Q 384 513 384 1019 
Q 384 1609 779 1909 
Q 1175 2209 1959 2209 
L 2766 2209 
L 2766 2266 
Q 2766 2663 2505 2880 
Q 2244 3097 1772 3097 
Q 1472 3097 1187 3025 
Q 903 2953 641 2809 
L 641 3341 
Q 956 3463 1253 3523 
Q 1550 3584 1831 3584 
Q 2591 3584 2966 3190 
Q 3341 2797 3341 1997 
z
" transform="scale(0.015625)"/>
     <path id="DejaVuSans-70" d="M 1159 525 
L 1159 -1331 
L 581 -1331 
L 581 3500 
L 1159 3500 
L 1159 2969 
Q 1341 3281 1617 3432 
Q 1894 3584 2278 3584 
Q 2916 3584 3314 3078 
Q 3713 2572 3713 1747 
Q 3713 922 3314 415 
Q 2916 -91 2278 -91 
Q 1894 -91 1617 61 
Q 1341 213 1159 525 
z
M 3116 1747 
Q 3116 2381 2855 2742 
Q 2594 3103 2138 3103 
Q 1681 3103 1420 2742 
Q 1159 2381 1159 1747 
Q 1159 1113 1420 752 
Q 1681 391 2138 391 
Q 2594 391 2855 752 
Q 3116 1113 3116 1747 
z
" transform="scale(0.015625)"/>
     <path id="DejaVuSans-20" transform="scale(0.015625)"/>
     <path id="DejaVuSans-66" d="M 2375 4863 
L 2375 4384 
L 1825 4384 
Q 1516 4384 1395 4259 
Q 1275 4134 1275 3809 
L 1275 3500 
L 2222 3500 
L 2222 3053 
L 1275 3053 
L 1275 0 
L 697 0 
L 697 3053 
L 147 3053 
L 147 3500 
L 697 3500 
L 697 3744 
Q 697 4328 969 4595 
Q 1241 4863 1831 4863 
L 2375 4863 
z
" transform="scale(0.015625)"/>
     <path id="DejaVuSans-72" d="M 2631 2963 
Q 2534 3019 2420 3045 
Q 2306 3072 2169 3072 
Q 1681 3072 1420 2755 
Q 1159 2438 1159 1844 
L 1159 0 
L 581 0 
L 581 3500 
L 1159 3500 
L 1159 2956 
Q 1341 3275 1631 3429 
Q 1922 3584 2338 3584 
Q 2397 3584 2469 3576 
Q 2541 3569 2628 3553 
L 2631 2963 
z
" transform="scale(0.015625)"/>
     <path id="DejaVuSans-6f" d="M 1959 3097 
Q 1497 3097 1228 2736 
Q 959 2375 959 1747 
Q 959 1119 1226 758 
Q 1494 397 1959 397 
Q 2419 397 2687 759 
Q 2956 1122 2956 1747 
Q 2956 2369 2687 2733 
Q 2419 3097 1959 3097 
z
M 1959 3584 
Q 2709 3584 3137 3096 
Q 3566 2609 3566 1747 
Q 3566 888 3137 398 
Q 2709 -91 1959 -91 
Q 1206 -91 779 398 
Q 353 888 353 1747 
Q 353 2609 779 3096 
Q 1206 3584 1959 3584 
z
" transform="scale(0.015625)"/>
     <path id="DejaVuSans-6e" d="M 3513 2113 
L 3513 0 
L 2938 0 
L 2938 2094 
Q 2938 2591 2744 2837 
Q 2550 3084 2163 3084 
Q 1697 3084 1428 2787 
Q 1159 2491 1159 1978 
L 1159 0 
L 581 0 
L 581 3500 
L 1159 3500 
L 1159 2956 
Q 1366 3272 1645 3428 
Q 1925 3584 2291 3584 
Q 2894 3584 3203 3211 
Q 3513 2838 3513 2113 
z
" transform="scale(0.015625)"/>
    </defs>
    <use xlink:href="#DejaVuSans-65"/>
    <use xlink:href="#DejaVuSans-73" x="61.523438"/>
    <use xlink:href="#DejaVuSans-63" x="113.623047"/>
    <use xlink:href="#DejaVuSans-61" x="168.603516"/>
    <use xlink:href="#DejaVuSans-70" x="229.882812"/>
    <use xlink:href="#DejaVuSans-65" x="293.359375"/>
    <use xlink:href="#DejaVuSans-20" x="354.882812"/>
    <use xlink:href="#DejaVuSans-66" x="386.669922"/>
    <use xlink:href="#DejaVuSans-72" x="421.875"/>
    <use xlink:href="#DejaVuSans-61" x="462.988281"/>
    <use xlink:href="#DejaVuSans-63" x="524.267578"/>
    <use xlink:href="#DejaVuSans-74" x="579.248047"/>
    <use xlink:href="#DejaVuSans-69" x="618.457031"/>
    <use xlink:href="#DejaVuSans-6f" x="646.240234"/>
    <use xlink:href="#DejaVuSans-6e" x="707.421875"/>
   </g>
  </g>
 </g>
 <defs>
  <clipPath id="p2208f8b85c">
   <rect x="72.899609" y="33.478594" width="91.834622" height="144"/>
  </clipPath>
  <clipPath id="p1888e4d1e9">
   <rect x="212.070656" y="33.478594" width="106.843774" height="144"/>
  </clipPath>
 </defs>
</svg>
