<?xml version="1.0" encoding="utf-8" standalone="no"?>
<!DOCTYPE svg PUBLIC "-//W3C//DTD SVG 1.1//EN"
  "http://www.w3.org/Graphics/SVG/1.1/DTD/svg11.dtd">
<svg xmlns:xlink="http://www.w3.org/1999/xlink" width="311.34841pt" height="271.618203pt" viewBox="0 0 311.34841 271.618203" xmlns="http://www.w3.org/2000/svg" version="1.1">
 <metadata>
  <rdf:RDF xmlns:dc="http://purl.org/dc/elements/1.1/" xmlns:cc="http://creativecommons.org/ns#" xmlns:rdf="http://www.w3.org/1999/02/22-rdf-syntax-ns#">
   <cc:Work>
    <dc:type rdf:resource="http://purl.org/dc/dcmitype/StillImage"/>
    <dc:date>2025-12-18T15:42:41.254191</dc:date>
    <dc:format>image/svg+xml</dc:format>
    <dc:creator>
     <cc:Agent>
      <dc:title>Matplotlib v3.7.1, https://matplotlib.org/</dc:title>
     </cc:Agent>
    </dc:creator>
   </cc:Work>
  </rdf:RDF>
 </metadata>
 <defs>
  <style type="text/css">*{stroke-linejoin: round; stroke-linecap: butt}</style>
 </defs>
 <g id="figure_1">
  <g id="patch_1">
   <path d="M 0 271.618203 
L 311.34841 271.618203 
L 311.34841 0 
L 0 0 
L 0 271.618203 
z
" style="fill: none"/>
  </g>
  <g id="axes_1">
   <g id="patch_2">
    <path d="M 72.899609 177.478594 
L 162.521715 177.478594 
L 162.521715 33.478594 
L 72.899609 33.478594 
L 72.899609 177.478594 
z
" style="fill: none"/>
   </g>
   <g id="patch_3">
    <path d="M 110.781183 177.478594 
L 113.362377 177.478594 
L 113.362377 170.764308 
L 110.781183 170.764308 
z
" clip-path="url(#p87688538e2)" style="fill: #cc79a7"/>
   </g>
   <g id="patch_4">
    <path d="M 112.362377 177.478594 
L 114.943572 177.478594 
L 114.943572 170.764308 
L 112.362377 170.764308 
z
" clip-path="url(#p87688538e2)" style="fill: #cc79a7"/>
   </g>
   <g id="patch_5">
    <path d="M 113.152974 177.478594 
L 115.734169 177.478594 
L 115.734169 170.764308 
L 113.152974 170.764308 
z
" clip-path="url(#p87688538e2)" style="fill: #cc79a7"/>
   </g>
   <g id="matplotlib.axis_1">
    <g id="xtick_1">
     <g id="line2d_1">
      <defs>
       <path id="ma440bc02ee" d="M 0 0 
L 0 5 
" style="stroke: #000000"/>
      </defs>
      <g>
       <use xlink:href="#ma440bc02ee" x="75.809007" y="177.478594" style="stroke: #000000"/>
      </g>
     </g>
     <g id="text_1">
      <!-- 300 -->
      <g transform="translate(80.775882 220.336094) rotate(-90) scale(0.18 -0.18)">
       <defs>
        <path id="DejaVuSans-33" d="M 2597 2516 
Q 3050 2419 3304 2112 
Q 3559 1806 3559 1356 
Q 3559 666 3084 287 
Q 2609 -91 1734 -91 
Q 1441 -91 1130 -33 
Q 819 25 488 141 
L 488 750 
Q 750 597 1062 519 
Q 1375 441 1716 441 
Q 2309 441 2620 675 
Q 2931 909 2931 1356 
Q 2931 1769 2642 2001 
Q 2353 2234 1838 2234 
L 1294 2234 
L 1294 2753 
L 1863 2753 
Q 2328 2753 2575 2939 
Q 2822 3125 2822 3475 
Q 2822 3834 2567 4026 
Q 2313 4219 1838 4219 
Q 1578 4219 1281 4162 
Q 984 4106 628 3988 
L 628 4550 
Q 988 4650 1302 4700 
Q 1616 4750 1894 4750 
Q 2613 4750 3031 4423 
Q 3450 4097 3450 3541 
Q 3450 3153 3228 2886 
Q 3006 2619 2597 2516 
z
" transform="scale(0.015625)"/>
        <path id="DejaVuSans-30" d="M 2034 4250 
Q 1547 4250 1301 3770 
Q 1056 3291 1056 2328 
Q 1056 1369 1301 889 
Q 1547 409 2034 409 
Q 2525 409 2770 889 
Q 3016 1369 3016 2328 
Q 3016 3291 2770 3770 
Q 2525 4250 2034 4250 
z
M 2034 4750 
Q 2819 4750 3233 4129 
Q 3647 3509 3647 2328 
Q 3647 1150 3233 529 
Q 2819 -91 2034 -91 
Q 1250 -91 836 529 
Q 422 1150 422 2328 
Q 422 3509 836 4129 
Q 1250 4750 2034 4750 
z
" transform="scale(0.015625)"/>
       </defs>
       <use xlink:href="#DejaVuSans-33"/>
       <use xlink:href="#DejaVuSans-30" x="63.623047"/>
       <use xlink:href="#DejaVuSans-30" x="127.246094"/>
      </g>
     </g>
    </g>
    <g id="xtick_2">
     <g id="line2d_2">
      <g>
       <use xlink:href="#ma440bc02ee" x="99.526925" y="177.478594" style="stroke: #000000"/>
      </g>
     </g>
     <g id="text_2">
      <!-- 330 -->
      <g transform="translate(104.4938 220.336094) rotate(-90) scale(0.18 -0.18)">
       <use xlink:href="#DejaVuSans-33"/>
       <use xlink:href="#DejaVuSans-33" x="63.623047"/>
       <use xlink:href="#DejaVuSans-30" x="127.246094"/>
      </g>
     </g>
    </g>
    <g id="xtick_3">
     <g id="line2d_3">
      <g>
       <use xlink:href="#ma440bc02ee" x="123.244843" y="177.478594" style="stroke: #000000"/>
      </g>
     </g>
     <g id="text_3">
      <!-- 360 -->
      <g transform="translate(128.211718 220.336094) rotate(-90) scale(0.18 -0.18)">
       <defs>
        <path id="DejaVuSans-36" d="M 2113 2584 
Q 1688 2584 1439 2293 
Q 1191 2003 1191 1497 
Q 1191 994 1439 701 
Q 1688 409 2113 409 
Q 2538 409 2786 701 
Q 3034 994 3034 1497 
Q 3034 2003 2786 2293 
Q 2538 2584 2113 2584 
z
M 3366 4563 
L 3366 3988 
Q 3128 4100 2886 4159 
Q 2644 4219 2406 4219 
Q 1781 4219 1451 3797 
Q 1122 3375 1075 2522 
Q 1259 2794 1537 2939 
Q 1816 3084 2150 3084 
Q 2853 3084 3261 2657 
Q 3669 2231 3669 1497 
Q 3669 778 3244 343 
Q 2819 -91 2113 -91 
Q 1303 -91 875 529 
Q 447 1150 447 2328 
Q 447 3434 972 4092 
Q 1497 4750 2381 4750 
Q 2619 4750 2861 4703 
Q 3103 4656 3366 4563 
z
" transform="scale(0.015625)"/>
       </defs>
       <use xlink:href="#DejaVuSans-33"/>
       <use xlink:href="#DejaVuSans-36" x="63.623047"/>
       <use xlink:href="#DejaVuSans-30" x="127.246094"/>
      </g>
     </g>
    </g>
    <g id="xtick_4">
     <g id="line2d_4">
      <g>
       <use xlink:href="#ma440bc02ee" x="146.962761" y="177.478594" style="stroke: #000000"/>
      </g>
     </g>
     <g id="text_4">
      <!-- 390 -->
      <g transform="translate(151.929636 220.336094) rotate(-90) scale(0.18 -0.18)">
       <defs>
        <path id="DejaVuSans-39" d="M 703 97 
L 703 672 
Q 941 559 1184 500 
Q 1428 441 1663 441 
Q 2288 441 2617 861 
Q 2947 1281 2994 2138 
Q 2813 1869 2534 1725 
Q 2256 1581 1919 1581 
Q 1219 1581 811 2004 
Q 403 2428 403 3163 
Q 403 3881 828 4315 
Q 1253 4750 1959 4750 
Q 2769 4750 3195 4129 
Q 3622 3509 3622 2328 
Q 3622 1225 3098 567 
Q 2575 -91 1691 -91 
Q 1453 -91 1209 -44 
Q 966 3 703 97 
z
M 1959 2075 
Q 2384 2075 2632 2365 
Q 2881 2656 2881 3163 
Q 2881 3666 2632 3958 
Q 2384 4250 1959 4250 
Q 1534 4250 1286 3958 
Q 1038 3666 1038 3163 
Q 1038 2656 1286 2365 
Q 1534 2075 1959 2075 
z
" transform="scale(0.015625)"/>
       </defs>
       <use xlink:href="#DejaVuSans-33"/>
       <use xlink:href="#DejaVuSans-39" x="63.623047"/>
       <use xlink:href="#DejaVuSans-30" x="127.246094"/>
      </g>
     </g>
    </g>
   </g>
   <g id="matplotlib.axis_2">
    <g id="ytick_1">
     <g id="line2d_5">
      <defs>
       <path id="m80259f7308" d="M 0 0 
L -5 0 
" style="stroke: #000000"/>
      </defs>
      <g>
       <use xlink:href="#m80259f7308" x="72.899609" y="169.764308" style="stroke: #000000"/>
      </g>
     </g>
     <g id="text_5">
      <!-- 0.0 -->
      <g transform="translate(35.773984 176.602902) scale(0.18 -0.18)">
       <defs>
        <path id="DejaVuSans-2e" d="M 684 794 
L 1344 794 
L 1344 0 
L 684 0 
L 684 794 
z
" transform="scale(0.015625)"/>
       </defs>
       <use xlink:href="#DejaVuSans-30"/>
       <use xlink:href="#DejaVuSans-2e" x="63.623047"/>
       <use xlink:href="#DejaVuSans-30" x="95.410156"/>
      </g>
     </g>
    </g>
    <g id="ytick_2">
     <g id="line2d_6">
      <g>
       <use xlink:href="#m80259f7308" x="72.899609" y="131.384777" style="stroke: #000000"/>
      </g>
     </g>
     <g id="text_6">
      <!-- 0.3 -->
      <g transform="translate(35.773984 138.223371) scale(0.18 -0.18)">
       <use xlink:href="#DejaVuSans-30"/>
       <use xlink:href="#DejaVuSans-2e" x="63.623047"/>
       <use xlink:href="#DejaVuSans-33" x="95.410156"/>
      </g>
     </g>
    </g>
    <g id="ytick_3">
     <g id="line2d_7">
      <g>
       <use xlink:href="#m80259f7308" x="72.899609" y="93.005246" style="stroke: #000000"/>
      </g>
     </g>
     <g id="text_7">
      <!-- 0.6 -->
      <g transform="translate(35.773984 99.84384) scale(0.18 -0.18)">
       <use xlink:href="#DejaVuSans-30"/>
       <use xlink:href="#DejaVuSans-2e" x="63.623047"/>
       <use xlink:href="#DejaVuSans-36" x="95.410156"/>
      </g>
     </g>
    </g>
    <g id="ytick_4">
     <g id="line2d_8">
      <g>
       <use xlink:href="#m80259f7308" x="72.899609" y="54.625715" style="stroke: #000000"/>
      </g>
     </g>
     <g id="text_8">
      <!-- 0.9 -->
      <g transform="translate(35.773984 61.464309) scale(0.18 -0.18)">
       <use xlink:href="#DejaVuSans-30"/>
       <use xlink:href="#DejaVuSans-2e" x="63.623047"/>
       <use xlink:href="#DejaVuSans-39" x="95.410156"/>
      </g>
     </g>
    </g>
   </g>
   <g id="line2d_9">
    <path d="M 74.623111 160.586483 
L 75.413709 160.586483 
L 75.413709 165.893093 
L 76.204306 165.893093 
L 76.204306 169.764308 
L 76.994903 169.764308 
L 76.994903 160.61079 
L 77.7855 160.61079 
L 77.7855 166.377954 
L 78.576098 166.377954 
L 78.576098 169.163285 
L 79.366695 169.163285 
L 79.366695 168.248317 
L 80.157292 168.248317 
L 80.157292 163.046611 
L 80.947889 163.046611 
L 80.947889 168.192027 
L 81.738487 168.192027 
L 81.738487 169.764308 
L 82.529084 169.764308 
L 82.529084 168.074329 
L 83.319681 168.074329 
L 83.319681 169.764157 
L 84.110279 169.764157 
L 84.110279 168.436376 
L 84.900876 168.436376 
L 84.900876 169.763769 
L 85.691473 169.763769 
L 85.691473 158.444905 
L 86.48207 158.444905 
L 86.48207 169.763477 
L 92.016251 169.757253 
L 92.016251 168.383924 
L 92.806848 168.383924 
L 92.806848 169.764308 
L 94.388043 169.717012 
L 94.388043 169.626653 
L 95.17864 169.626653 
L 95.17864 167.224862 
L 95.969237 167.224862 
L 95.969237 169.75791 
L 101.503418 169.764308 
L 101.503418 164.089255 
L 102.294016 164.089255 
L 102.294016 169.764308 
L 103.084613 169.764308 
L 103.084613 167.737869 
L 103.87521 167.737869 
L 103.87521 169.763491 
L 107.037599 169.764308 
L 107.037599 169.023839 
L 107.828196 169.023839 
L 107.828196 169.758946 
L 108.618794 169.758946 
L 108.618794 168.906142 
L 109.409391 168.906142 
L 109.409391 169.166739 
L 110.199988 169.166739 
L 110.199988 169.763811 
L 110.990585 169.763811 
L 110.990585 166.719532 
L 111.781183 166.719532 
L 111.781183 41.192879 
L 112.57178 41.192879 
L 112.57178 166.411216 
L 113.362377 166.411216 
L 113.362377 108.919958 
L 114.152974 108.919958 
L 114.152974 155.512709 
L 114.943572 155.512709 
L 114.943572 168.383924 
L 115.734169 168.383924 
L 115.734169 163.773263 
L 116.524766 163.773263 
L 116.524766 169.126696 
L 117.315363 169.126696 
L 117.315363 169.436291 
L 118.105961 169.436291 
L 118.105961 168.153647 
L 118.896558 168.153647 
L 118.896558 169.757566 
L 121.26835 169.756988 
L 121.26835 166.76047 
L 122.058947 166.76047 
L 122.058947 163.358764 
L 122.849544 163.358764 
L 122.849544 169.761753 
L 123.640142 169.761753 
L 123.640142 168.142133 
L 124.430739 168.142133 
L 124.430739 167.302901 
L 125.221336 167.302901 
L 125.221336 169.763882 
L 127.593128 169.76242 
L 127.593128 169.409042 
L 128.383725 169.409042 
L 128.383725 169.762635 
L 129.96492 169.763139 
L 129.96492 167.067506 
L 130.755517 167.067506 
L 130.755517 169.762636 
L 140.242684 169.719455 
L 140.242684 169.15369 
L 141.033281 169.15369 
L 141.033281 169.473391 
L 141.823879 169.473391 
L 141.823879 169.764203 
L 147.358059 169.763522 
L 147.358059 168.48563 
L 148.148657 168.48563 
L 148.148657 169.747472 
L 148.939254 169.747472 
L 148.939254 166.232112 
L 149.729851 166.232112 
L 149.729851 162.318679 
L 150.520448 162.318679 
L 150.520448 168.623029 
L 151.311046 168.623029 
L 151.311046 169.562432 
L 152.101643 169.562432 
L 152.101643 168.397997 
L 153.682837 168.441494 
L 153.682837 169.763713 
L 155.264032 169.762587 
L 155.264032 168.918679 
L 156.054629 168.918679 
L 156.054629 167.221024 
L 156.845227 167.221024 
L 156.845227 168.770022 
L 157.635824 168.770022 
L 157.635824 166.638935 
L 158.426421 166.638935 
L 158.426421 168.186909 
L 159.217018 168.186909 
L 159.217018 168.460683 
L 160.007616 168.460683 
L 160.007616 167.6803 
L 160.798213 167.6803 
L 160.798213 167.6803 
" clip-path="url(#p87688538e2)" style="fill: none; stroke: #000000; stroke-linecap: square"/>
   </g>
   <g id="patch_6">
    <path d="M 72.899609 177.478594 
L 72.899609 33.478594 
" style="fill: none; stroke: #000000; stroke-width: 0.8; stroke-linejoin: miter; stroke-linecap: square"/>
   </g>
   <g id="patch_7">
    <path d="M 72.899609 177.478594 
L 162.521715 177.478594 
" style="fill: none; stroke: #000000; stroke-width: 0.8; stroke-linejoin: miter; stroke-linecap: square"/>
   </g>
   <g id="text_9">
    <!-- Z2208 -->
    <g transform="translate(76.528162 27.478594) scale(0.255 -0.255)">
     <defs>
      <path id="DejaVuSans-5a" d="M 359 4666 
L 4025 4666 
L 4025 4184 
L 1075 531 
L 4097 531 
L 4097 0 
L 288 0 
L 288 481 
L 3238 4134 
L 359 4134 
L 359 4666 
z
" transform="scale(0.015625)"/>
      <path id="DejaVuSans-32" d="M 1228 531 
L 3431 531 
L 3431 0 
L 469 0 
L 469 531 
Q 828 903 1448 1529 
Q 2069 2156 2228 2338 
Q 2531 2678 2651 2914 
Q 2772 3150 2772 3378 
Q 2772 3750 2511 3984 
Q 2250 4219 1831 4219 
Q 1534 4219 1204 4116 
Q 875 4013 500 3803 
L 500 4441 
Q 881 4594 1212 4672 
Q 1544 4750 1819 4750 
Q 2544 4750 2975 4387 
Q 3406 4025 3406 3419 
Q 3406 3131 3298 2873 
Q 3191 2616 2906 2266 
Q 2828 2175 2409 1742 
Q 1991 1309 1228 531 
z
" transform="scale(0.015625)"/>
      <path id="DejaVuSans-38" d="M 2034 2216 
Q 1584 2216 1326 1975 
Q 1069 1734 1069 1313 
Q 1069 891 1326 650 
Q 1584 409 2034 409 
Q 2484 409 2743 651 
Q 3003 894 3003 1313 
Q 3003 1734 2745 1975 
Q 2488 2216 2034 2216 
z
M 1403 2484 
Q 997 2584 770 2862 
Q 544 3141 544 3541 
Q 544 4100 942 4425 
Q 1341 4750 2034 4750 
Q 2731 4750 3128 4425 
Q 3525 4100 3525 3541 
Q 3525 3141 3298 2862 
Q 3072 2584 2669 2484 
Q 3125 2378 3379 2068 
Q 3634 1759 3634 1313 
Q 3634 634 3220 271 
Q 2806 -91 2034 -91 
Q 1263 -91 848 271 
Q 434 634 434 1313 
Q 434 1759 690 2068 
Q 947 2378 1403 2484 
z
M 1172 3481 
Q 1172 3119 1398 2916 
Q 1625 2713 2034 2713 
Q 2441 2713 2670 2916 
Q 2900 3119 2900 3481 
Q 2900 3844 2670 4047 
Q 2441 4250 2034 4250 
Q 1625 4250 1398 4047 
Q 1172 3844 1172 3481 
z
" transform="scale(0.015625)"/>
     </defs>
     <use xlink:href="#DejaVuSans-5a"/>
     <use xlink:href="#DejaVuSans-32" x="68.505859"/>
     <use xlink:href="#DejaVuSans-32" x="132.128906"/>
     <use xlink:href="#DejaVuSans-30" x="195.751953"/>
     <use xlink:href="#DejaVuSans-38" x="259.375"/>
    </g>
   </g>
  </g>
  <g id="axes_2">
   <g id="patch_8">
    <path d="M 206.636107 177.478594 
L 281.114429 177.478594 
L 281.114429 33.478594 
L 206.636107 33.478594 
L 206.636107 177.478594 
z
" style="fill: none"/>
   </g>
   <g id="matplotlib.axis_3">
    <g id="xtick_5">
     <g id="line2d_10">
      <g>
       <use xlink:href="#ma440bc02ee" x="218.484931" y="177.478594" style="stroke: #000000"/>
      </g>
     </g>
     <g id="text_10">
      <!-- A346 -->
      <g transform="translate(223.451806 232.649219) rotate(-90) scale(0.18 -0.18)">
       <defs>
        <path id="DejaVuSans-41" d="M 2188 4044 
L 1331 1722 
L 3047 1722 
L 2188 4044 
z
M 1831 4666 
L 2547 4666 
L 4325 0 
L 3669 0 
L 3244 1197 
L 1141 1197 
L 716 0 
L 50 0 
L 1831 4666 
z
" transform="scale(0.015625)"/>
        <path id="DejaVuSans-34" d="M 2419 4116 
L 825 1625 
L 2419 1625 
L 2419 4116 
z
M 2253 4666 
L 3047 4666 
L 3047 1625 
L 3713 1625 
L 3713 1100 
L 3047 1100 
L 3047 0 
L 2419 0 
L 2419 1100 
L 313 1100 
L 313 1709 
L 2253 4666 
z
" transform="scale(0.015625)"/>
       </defs>
       <use xlink:href="#DejaVuSans-41"/>
       <use xlink:href="#DejaVuSans-33" x="68.408203"/>
       <use xlink:href="#DejaVuSans-34" x="132.03125"/>
       <use xlink:href="#DejaVuSans-36" x="195.654297"/>
      </g>
     </g>
    </g>
    <g id="xtick_6">
     <g id="line2d_11">
      <g>
       <use xlink:href="#ma440bc02ee" x="252.338714" y="177.478594" style="stroke: #000000"/>
      </g>
     </g>
     <g id="text_11">
      <!-- D348 -->
      <g transform="translate(257.305589 234.196094) rotate(-90) scale(0.18 -0.18)">
       <defs>
        <path id="DejaVuSans-44" d="M 1259 4147 
L 1259 519 
L 2022 519 
Q 2988 519 3436 956 
Q 3884 1394 3884 2338 
Q 3884 3275 3436 3711 
Q 2988 4147 2022 4147 
L 1259 4147 
z
M 628 4666 
L 1925 4666 
Q 3281 4666 3915 4102 
Q 4550 3538 4550 2338 
Q 4550 1131 3912 565 
Q 3275 0 1925 0 
L 628 0 
L 628 4666 
z
" transform="scale(0.015625)"/>
       </defs>
       <use xlink:href="#DejaVuSans-44"/>
       <use xlink:href="#DejaVuSans-33" x="77.001953"/>
       <use xlink:href="#DejaVuSans-34" x="140.625"/>
       <use xlink:href="#DejaVuSans-38" x="204.248047"/>
      </g>
     </g>
    </g>
    <g id="xtick_7">
     <g id="line2d_12">
      <g>
       <use xlink:href="#ma440bc02ee" x="269.265605" y="177.478594" style="stroke: #000000"/>
      </g>
     </g>
     <g id="text_12">
      <!-- M349 -->
      <g transform="translate(274.23248 235.866719) rotate(-90) scale(0.18 -0.18)">
       <defs>
        <path id="DejaVuSans-4d" d="M 628 4666 
L 1569 4666 
L 2759 1491 
L 3956 4666 
L 4897 4666 
L 4897 0 
L 4281 0 
L 4281 4097 
L 3078 897 
L 2444 897 
L 1241 4097 
L 1241 0 
L 628 0 
L 628 4666 
z
" transform="scale(0.015625)"/>
       </defs>
       <use xlink:href="#DejaVuSans-4d"/>
       <use xlink:href="#DejaVuSans-33" x="86.279297"/>
       <use xlink:href="#DejaVuSans-34" x="149.902344"/>
       <use xlink:href="#DejaVuSans-39" x="213.525391"/>
      </g>
     </g>
    </g>
   </g>
   <g id="matplotlib.axis_4">
    <g id="ytick_5">
     <g id="line2d_13">
      <g>
       <use xlink:href="#m80259f7308" x="206.636107" y="169.764308" style="stroke: #000000"/>
      </g>
     </g>
     <g id="text_13">
      <!-- 0.0 -->
      <g transform="translate(169.510482 176.602902) scale(0.18 -0.18)">
       <use xlink:href="#DejaVuSans-30"/>
       <use xlink:href="#DejaVuSans-2e" x="63.623047"/>
       <use xlink:href="#DejaVuSans-30" x="95.410156"/>
      </g>
     </g>
    </g>
    <g id="ytick_6">
     <g id="line2d_14">
      <g>
       <use xlink:href="#m80259f7308" x="206.636107" y="131.384777" style="stroke: #000000"/>
      </g>
     </g>
     <g id="text_14">
      <!-- 0.3 -->
      <g transform="translate(169.510482 138.223371) scale(0.18 -0.18)">
       <use xlink:href="#DejaVuSans-30"/>
       <use xlink:href="#DejaVuSans-2e" x="63.623047"/>
       <use xlink:href="#DejaVuSans-33" x="95.410156"/>
      </g>
     </g>
    </g>
    <g id="ytick_7">
     <g id="line2d_15">
      <g>
       <use xlink:href="#m80259f7308" x="206.636107" y="93.005246" style="stroke: #000000"/>
      </g>
     </g>
     <g id="text_15">
      <!-- 0.6 -->
      <g transform="translate(169.510482 99.84384) scale(0.18 -0.18)">
       <use xlink:href="#DejaVuSans-30"/>
       <use xlink:href="#DejaVuSans-2e" x="63.623047"/>
       <use xlink:href="#DejaVuSans-36" x="95.410156"/>
      </g>
     </g>
    </g>
    <g id="ytick_8">
     <g id="line2d_16">
      <g>
       <use xlink:href="#m80259f7308" x="206.636107" y="54.625715" style="stroke: #000000"/>
      </g>
     </g>
     <g id="text_16">
      <!-- 0.9 -->
      <g transform="translate(169.510482 61.464309) scale(0.18 -0.18)">
       <use xlink:href="#DejaVuSans-30"/>
       <use xlink:href="#DejaVuSans-2e" x="63.623047"/>
       <use xlink:href="#DejaVuSans-39" x="95.410156"/>
      </g>
     </g>
    </g>
   </g>
   <g id="line2d_17">
    <path d="M 235.411823 177.478594 
L 235.411823 33.478594 
" clip-path="url(#pa031091eda)" style="fill: none; stroke-dasharray: 2,5; stroke-dashoffset: 0; stroke: #000000"/>
   </g>
   <g id="patch_9">
    <path d="M 206.636107 177.478594 
L 206.636107 33.478594 
" style="fill: none; stroke: #000000; stroke-width: 0.8; stroke-linejoin: miter; stroke-linecap: square"/>
   </g>
   <g id="patch_10">
    <path d="M 206.636107 177.478594 
L 281.114429 177.478594 
" style="fill: none; stroke: #000000; stroke-width: 0.8; stroke-linejoin: miter; stroke-linecap: square"/>
   </g>
   <g id="text_17">
    <g id="patch_11">
     <path d="M 210.021486 184.738058 
L 253.367736 184.738058 
L 253.367736 115.055558 
L 210.021486 115.055558 
L 210.021486 184.738058 
z
" style="fill: none"/>
    </g>
    <path d="M 225.425322 169.764308 
Q 224.426672 169.764308 223.3277 169.764308 
Q 222.233289 169.764308 221.024877 169.764308 
Q 216.720194 169.764308 214.453851 169.764308 
Q 212.187508 169.764308 212.187508 169.764308 
Q 212.187508 169.764308 214.453851 169.764308 
Q 216.720194 169.764308 221.024877 169.764308 
Q 222.233289 169.764308 223.345941 169.764308 
Q 224.458592 169.764308 225.425322 169.764308 
L 225.425322 169.764308 
Q 224.344591 169.764308 223.32314 169.764308 
Q 222.30625 169.764308 221.220959 169.764308 
Q 218.913576 169.764308 217.737084 169.764308 
Q 216.560592 169.764308 216.560592 169.764308 
Q 216.560592 169.764308 217.737084 169.764308 
Q 218.913576 169.764308 221.220959 169.764308 
Q 222.30625 169.764308 223.32314 169.764308 
Q 224.344591 169.764308 225.425322 169.764308 
L 225.425322 169.764308 
z
" style="fill: #808080"/>
   </g>
   <g id="text_18">
    <g id="patch_12">
     <path d="M 210.021486 184.738058 
L 253.367736 184.738058 
L 253.367736 115.055558 
L 210.021486 115.055558 
L 210.021486 184.738058 
z
" style="fill: none"/>
    </g>
    <path d="M 211.690463 169.764308 
L 215.894825 169.764308 
L 215.894825 169.764308 
L 222.474972 169.764308 
L 227.23566 169.764308 
L 220.523272 169.764308 
L 227.477342 169.764308 
L 222.803295 169.764308 
L 217.759884 169.764308 
L 215.894825 169.764308 
L 215.894825 169.764308 
L 211.690463 169.764308 
L 211.690463 169.764308 
z
" style="fill: #808080"/>
   </g>
   <g id="text_19">
    <g id="patch_13">
     <path d="M 210.021486 184.738058 
L 253.367736 184.738058 
L 253.367736 115.055558 
L 210.021486 115.055558 
L 210.021486 184.738058 
z
" style="fill: none"/>
    </g>
    <path d="M 213.227198 169.764308 
L 213.227198 169.764308 
L 217.431561 169.764308 
L 217.431561 169.764308 
L 226.423972 169.764308 
L 226.423972 169.764308 
L 213.227198 169.764308 
z
" style="fill: #808080"/>
   </g>
   <g id="text_20">
    <g id="patch_14">
     <path d="M 210.021486 184.738058 
L 253.367736 184.738058 
L 253.367736 115.055558 
L 210.021486 115.055558 
L 210.021486 184.738058 
z
" style="fill: none"/>
    </g>
    <path d="M 211.717823 169.764308 
L 216.236829 169.764308 
L 222.164889 169.764308 
L 222.164889 169.764308 
L 225.867646 169.764308 
L 225.867646 169.764308 
L 221.380561 169.764308 
L 215.42058 169.764308 
L 215.42058 169.764308 
L 211.717823 169.764308 
L 211.717823 169.764308 
z
" style="fill: #808080"/>
   </g>
   <g id="text_21">
    <g id="patch_15">
     <path d="M 210.021486 184.738058 
L 253.367736 184.738058 
L 253.367736 115.055558 
L 210.021486 115.055558 
L 210.021486 184.738058 
z
" style="fill: none"/>
    </g>
    <path d="M 217.290199 169.764308 
Q 214.111847 169.764308 212.985516 169.764308 
Q 211.859184 169.764308 211.859184 169.764308 
Q 211.859184 169.764308 213.710563 169.764308 
Q 215.566502 169.764308 218.799575 169.764308 
Q 220.267909 169.764308 221.736244 169.764308 
Q 223.204579 169.764308 224.640994 169.764308 
L 224.640994 169.764308 
Q 223.28666 169.764308 221.891286 169.764308 
Q 220.495912 169.764308 219.127898 169.764308 
Q 217.604843 169.764308 216.788594 169.764308 
Q 215.976906 169.764308 215.976906 169.764308 
Q 215.976906 169.764308 216.569712 169.764308 
Q 217.162518 169.764308 219.041257 169.764308 
L 220.851595 169.764308 
Q 223.418901 169.764308 224.627314 169.764308 
Q 225.840286 169.764308 225.840286 169.764308 
Q 225.840286 169.764308 223.934187 169.764308 
Q 222.032647 169.764308 218.188528 169.764308 
Q 216.606192 169.764308 215.014736 169.764308 
Q 213.42784 169.764308 211.945825 169.764308 
L 211.945825 169.764308 
Q 213.628482 169.764308 215.201698 169.764308 
Q 216.774914 169.764308 218.31621 169.764308 
Q 219.866625 169.764308 220.719354 169.764308 
Q 221.576643 169.764308 221.576643 169.764308 
Q 221.576643 169.764308 221.006637 169.764308 
Q 220.436631 169.764308 219.3559 169.764308 
L 217.290199 169.764308 
z
" style="fill: #808080"/>
   </g>
   <g id="text_22">
    <g id="patch_16">
     <path d="M 210.021486 184.738058 
L 253.367736 184.738058 
L 253.367736 115.055558 
L 210.021486 115.055558 
L 210.021486 184.738058 
z
" style="fill: none"/>
    </g>
    <path d="M 225.812926 169.764308 
L 221.106958 169.764308 
L 225.812926 169.764308 
L 224.727635 169.764308 
L 219.998867 169.764308 
L 219.998867 169.764308 
L 217.545562 169.764308 
L 217.545562 169.764308 
L 212.830474 169.764308 
L 211.745183 169.764308 
L 216.478511 169.764308 
L 211.745183 169.764308 
L 212.830474 169.764308 
L 217.545562 169.764308 
L 217.545562 169.764308 
L 219.998867 169.764308 
L 219.998867 169.764308 
L 224.727635 169.764308 
L 225.812926 169.764308 
z
" style="fill: #808080"/>
   </g>
   <g id="text_23">
    <g id="patch_17">
     <path d="M 210.021486 184.738058 
L 253.367736 184.738058 
L 253.367736 115.055558 
L 210.021486 115.055558 
L 210.021486 184.738058 
z
" style="fill: none"/>
    </g>
    <path d="M 218.799575 169.764308 
L 222.547933 169.764308 
L 226.779655 169.764308 
L 221.722564 169.764308 
L 215.894825 169.764308 
L 210.833174 169.764308 
L 215.064897 169.764308 
L 218.799575 169.764308 
z
" style="fill: #808080"/>
   </g>
   <g id="text_24">
    <g id="patch_18">
     <path d="M 210.021486 184.738058 
L 253.367736 184.738058 
L 253.367736 115.055558 
L 210.021486 115.055558 
L 210.021486 184.738058 
z
" style="fill: none"/>
    </g>
    <path d="M 210.518531 169.764308 
L 213.984166 169.764308 
L 215.42058 169.764308 
L 217.162518 169.764308 
L 220.454871 169.764308 
L 222.461292 169.764308 
L 223.601303 169.764308 
L 227.094299 169.764308 
L 224.786915 169.764308 
L 221.079598 169.764308 
L 218.799575 169.764308 
L 216.660913 169.764308 
L 212.999196 169.764308 
L 210.518531 169.764308 
z
" style="fill: #808080"/>
   </g>
   <g id="text_25">
    <g id="patch_19">
     <path d="M 210.021486 184.738058 
L 253.367736 184.738058 
L 253.367736 115.055558 
L 210.021486 115.055558 
L 210.021486 184.738058 
z
" style="fill: none"/>
    </g>
    <path d="M 222.447612 169.764308 
L 222.447612 169.764308 
L 219.570222 169.764308 
L 219.570222 169.764308 
L 226.123009 169.764308 
L 226.123009 169.764308 
Q 224.914597 169.764308 223.450822 169.764308 
Q 221.991607 169.764308 220.32263 169.764308 
Q 216.191228 169.764308 213.938565 169.764308 
Q 211.690463 169.764308 211.690463 169.764308 
Q 211.690463 169.764308 213.961366 169.764308 
Q 216.236829 169.764308 220.523272 169.764308 
Q 221.804645 169.764308 223.044978 169.764308 
Q 224.28531 169.764308 225.370601 169.764308 
L 225.370601 169.764308 
Q 224.485952 169.764308 223.336821 169.764308 
Q 222.192249 169.764308 220.824235 169.764308 
Q 218.430211 169.764308 217.244599 169.764308 
Q 216.063547 169.764308 216.063547 169.764308 
Q 216.063547 169.764308 217.203558 169.764308 
Q 218.34357 169.764308 220.523272 169.764308 
Q 221.179919 169.764308 221.663284 169.764308 
Q 222.146648 169.764308 222.447612 169.764308 
z
" style="fill: #808080"/>
   </g>
   <g id="text_26">
    <g id="patch_20">
     <path d="M 210.021486 184.738058 
L 253.367736 184.738058 
L 253.367736 115.055558 
L 210.021486 115.055558 
L 210.021486 184.738058 
z
" style="fill: none"/>
    </g>
    <path d="M 211.973186 169.764308 
L 216.177548 169.764308 
L 216.177548 169.764308 
L 221.435281 169.764308 
L 221.435281 169.764308 
L 225.639644 169.764308 
L 225.639644 169.764308 
L 221.435281 169.764308 
L 221.435281 169.764308 
L 216.177548 169.764308 
L 216.177548 169.764308 
L 211.973186 169.764308 
L 211.973186 169.764308 
z
" style="fill: #808080"/>
   </g>
   <g id="text_27">
    <g id="patch_21">
     <path d="M 210.021486 184.738058 
L 253.367736 184.738058 
L 253.367736 115.055558 
L 210.021486 115.055558 
L 210.021486 184.738058 
z
" style="fill: none"/>
    </g>
    <path d="M 211.248138 169.764308 
L 216.264189 169.764308 
L 218.799575 169.764308 
L 221.32128 169.764308 
L 226.364691 169.764308 
L 226.364691 169.764308 
L 222.748575 169.764308 
L 222.748575 169.764308 
L 220.495912 169.764308 
L 217.148838 169.764308 
L 214.868815 169.764308 
L 214.868815 169.764308 
L 211.248138 169.764308 
L 211.248138 169.764308 
z
" style="fill: #808080"/>
   </g>
   <g id="text_28">
    <g id="patch_22">
     <path d="M 210.021486 184.738058 
L 253.367736 184.738058 
L 253.367736 115.055558 
L 210.021486 115.055558 
L 210.021486 184.738058 
z
" style="fill: none"/>
    </g>
    <path d="M 212.474791 169.764308 
L 212.474791 169.764308 
L 225.142599 169.764308 
L 225.142599 169.764308 
L 220.910876 169.764308 
L 220.910876 169.764308 
L 225.142599 169.764308 
L 225.142599 169.764308 
L 212.474791 169.764308 
L 212.474791 169.764308 
L 216.706513 169.764308 
L 216.706513 169.764308 
L 212.474791 169.764308 
z
" style="fill: #808080"/>
   </g>
   <g id="text_29">
    <g id="patch_23">
     <path d="M 210.021486 184.738058 
L 253.367736 184.738058 
L 253.367736 115.055558 
L 210.021486 115.055558 
L 210.021486 184.738058 
z
" style="fill: none"/>
    </g>
    <path d="M 225.867646 169.764308 
L 216.820515 169.764308 
L 216.820515 169.764308 
L 225.055958 169.764308 
L 225.055958 169.764308 
L 216.820515 169.764308 
L 216.820515 169.764308 
L 212.616152 169.764308 
L 212.616152 169.764308 
L 225.867646 169.764308 
L 225.867646 169.764308 
z
" style="fill: #808080"/>
   </g>
   <g id="text_30">
    <g id="patch_24">
     <path d="M 210.021486 184.738058 
L 253.367736 184.738058 
L 253.367736 115.055558 
L 210.021486 115.055558 
L 210.021486 184.738058 
z
" style="fill: none"/>
    </g>
    <path d="M 220.910876 169.764308 
L 216.706513 169.764308 
L 216.706513 169.764308 
L 211.302859 169.764308 
L 211.302859 169.764308 
L 226.309971 169.764308 
L 226.309971 169.764308 
L 220.910876 169.764308 
L 220.910876 169.764308 
z
" style="fill: #808080"/>
   </g>
   <g id="text_31">
    <g id="patch_25">
     <path d="M 210.021486 184.738058 
L 253.367736 184.738058 
L 253.367736 115.055558 
L 210.021486 115.055558 
L 210.021486 184.738058 
z
" style="fill: none"/>
    </g>
    <path d="M 218.799575 169.764308 
L 216.820515 169.764308 
L 220.796875 169.764308 
L 218.799575 169.764308 
z
M 216.236829 169.764308 
L 221.380561 169.764308 
L 227.121659 169.764308 
L 222.917296 169.764308 
L 221.608563 169.764308 
L 215.976906 169.764308 
L 214.695533 169.764308 
L 210.491171 169.764308 
L 216.236829 169.764308 
z
" style="fill: #808080"/>
   </g>
   <g id="text_32">
    <g id="patch_26">
     <path d="M 210.021486 184.738058 
L 253.367736 184.738058 
L 253.367736 115.055558 
L 210.021486 115.055558 
L 210.021486 184.738058 
z
" style="fill: none"/>
    </g>
    <path d="M 216.177548 169.764308 
L 216.177548 169.764308 
L 217.31756 169.764308 
Q 219.798225 169.764308 220.851595 169.764308 
Q 221.904966 169.764308 221.904966 169.764308 
Q 221.904966 169.764308 220.851595 169.764308 
Q 219.798225 169.764308 217.31756 169.764308 
L 216.177548 169.764308 
z
M 211.973186 169.764308 
L 216.478511 169.764308 
Q 221.690644 169.764308 223.984347 169.764308 
Q 226.28261 169.764308 226.28261 169.764308 
Q 226.28261 169.764308 223.984347 169.764308 
Q 221.690644 169.764308 216.478511 169.764308 
L 211.973186 169.764308 
L 211.973186 169.764308 
z
" style="fill: #808080"/>
   </g>
   <g id="text_33">
    <g id="patch_27">
     <path d="M 210.021486 184.737958 
L 253.367736 184.737958 
L 253.367736 115.055458 
L 210.021486 115.055458 
L 210.021486 184.737958 
z
" style="fill: none"/>
    </g>
    <path d="M 225.667004 169.764208 
L 212.41551 169.764208 
L 212.41551 169.764126 
L 225.667004 169.764126 
L 225.667004 169.76414 
L 216.619873 169.76414 
L 216.619873 169.764158 
L 224.814275 169.764158 
L 224.814275 169.764172 
L 216.619873 169.764172 
L 216.619873 169.764194 
L 225.667004 169.764194 
L 225.667004 169.764208 
z
" style="fill: #808080"/>
   </g>
   <g id="text_34">
    <g id="patch_28">
     <path d="M 210.021486 184.737363 
L 253.367736 184.737363 
L 253.367736 115.054863 
L 210.021486 115.054863 
L 210.021486 184.737363 
z
" style="fill: none"/>
    </g>
    <path d="M 210.135487 169.763192 
L 214.668173 169.763192 
L 218.799575 169.763361 
L 222.944657 169.763192 
L 227.477342 169.763192 
L 220.910876 169.763447 
L 220.910876 169.763613 
L 216.706513 169.763613 
L 216.706513 169.763447 
L 210.135487 169.763192 
z
" style="fill: #808080"/>
   </g>
   <g id="text_35">
    <g id="patch_29">
     <path d="M 210.021486 184.736382 
L 253.367736 184.736382 
L 253.367736 115.053882 
L 210.021486 115.053882 
L 210.021486 184.736382 
z
" style="fill: none"/>
    </g>
    <path d="M 216.533232 169.762255 
L 216.533232 169.762388 
L 218.256929 169.762388 
Q 220.32263 169.762388 221.157118 169.762373 
Q 221.991607 169.762358 221.991607 169.762321 
Q 221.991607 169.762285 221.157118 169.76227 
Q 220.32263 169.762255 218.256929 169.762255 
L 216.533232 169.762255 
z
M 212.328869 169.76218 
L 218.101888 169.76218 
Q 222.506892 169.76218 224.435792 169.762213 
Q 226.364691 169.762247 226.364691 169.762321 
Q 226.364691 169.762396 224.435792 169.762429 
Q 222.506892 169.762462 218.101888 169.762462 
L 216.533232 169.762462 
L 216.533232 169.762631 
L 212.328869 169.762631 
L 212.328869 169.76218 
z
" style="fill: #808080"/>
   </g>
   <g id="text_36">
    <g id="patch_30">
     <path d="M 210.021486 182.01317 
L 253.367736 182.01317 
L 253.367736 112.33067 
L 210.021486 112.33067 
L 210.021486 182.01317 
z
" style="fill: none"/>
    </g>
    <path d="M 221.521922 154.404772 
Q 222.146648 154.558585 222.611773 155.146371 
Q 223.076898 155.728663 223.742665 157.393141 
L 227.591344 166.98998 
L 222.976577 166.98998 
L 220.409271 160.260657 
Q 220.29527 159.964017 220.112868 159.469618 
Q 218.986537 156.448289 217.458921 156.448289 
L 216.122828 156.448289 
L 216.122828 166.98998 
L 211.918465 166.98998 
L 211.918465 140.32538 
L 217.987886 140.32538 
Q 222.091928 140.32538 223.879466 142.149164 
Q 225.667004 143.967455 225.667004 148.087448 
Q 225.667004 150.834111 224.599953 152.460135 
Q 223.532903 154.080666 221.521922 154.404772 
z
M 216.122828 144.758493 
L 216.122828 152.020669 
L 218.101888 152.020669 
Q 219.825585 152.020669 220.573433 151.18019 
Q 221.32128 150.334218 221.32128 148.378595 
Q 221.32128 146.439451 220.577993 145.598972 
Q 219.839265 144.758493 218.101888 144.758493 
L 216.122828 144.758493 
z
" style="fill: #808080"/>
   </g>
   <g id="text_37">
    <g id="patch_31">
     <path d="M 210.021486 149.022637 
L 253.367736 149.022637 
L 253.367736 79.340137 
L 210.021486 79.340137 
L 210.021486 149.022637 
z
" style="fill: none"/>
    </g>
    <path d="M 219.36958 121.491834 
Q 219.168938 121.658521 219.032137 121.714083 
Q 218.899896 121.769645 218.772214 121.769645 
Q 215.110497 121.769645 213.222638 111.972181 
Q 211.334779 102.156196 211.334779 83.005764 
Q 211.334779 63.78125 213.222638 53.946744 
Q 215.110497 44.112238 218.799575 44.112238 
Q 222.506892 44.112238 224.394751 53.946744 
Q 226.28261 63.78125 226.28261 83.005764 
Q 226.28261 96.192522 225.384281 105.08247 
Q 224.485952 113.972419 222.775935 117.787689 
L 225.425322 126.936928 
L 222.547933 134.456343 
L 219.36958 121.491834 
z
M 218.799575 57.41012 
Q 217.189878 57.41012 216.446591 63.466398 
Q 215.707863 69.522675 215.707863 83.005764 
Q 215.707863 96.433291 216.446591 102.489569 
Q 217.189878 108.527326 218.799575 108.527326 
Q 220.422951 108.527326 221.161679 102.489569 
Q 221.904966 96.433291 221.904966 83.005764 
Q 221.904966 69.522675 221.161679 63.466398 
Q 220.422951 57.41012 218.799575 57.41012 
z
" style="fill: #808080"/>
   </g>
   <g id="text_38">
    <g id="patch_32">
     <path d="M 243.875268 184.738058 
L 287.221518 184.738058 
L 287.221518 115.055558 
L 243.875268 115.055558 
L 243.875268 184.738058 
z
" style="fill: none"/>
    </g>
    <path d="M 259.279104 169.764308 
Q 258.280454 169.764308 257.181483 169.764308 
Q 256.087072 169.764308 254.87866 169.764308 
Q 250.573976 169.764308 248.307633 169.764308 
Q 246.04129 169.764308 246.04129 169.764308 
Q 246.04129 169.764308 248.307633 169.764308 
Q 250.573976 169.764308 254.87866 169.764308 
Q 256.087072 169.764308 257.199723 169.764308 
Q 258.312375 169.764308 259.279104 169.764308 
L 259.279104 169.764308 
Q 258.198373 169.764308 257.176923 169.764308 
Q 256.160033 169.764308 255.074742 169.764308 
Q 252.767358 169.764308 251.590867 169.764308 
Q 250.414375 169.764308 250.414375 169.764308 
Q 250.414375 169.764308 251.590867 169.764308 
Q 252.767358 169.764308 255.074742 169.764308 
Q 256.160033 169.764308 257.176923 169.764308 
Q 258.198373 169.764308 259.279104 169.764308 
L 259.279104 169.764308 
z
" style="fill: #004488"/>
   </g>
   <g id="text_39">
    <g id="patch_33">
     <path d="M 243.875268 184.738058 
L 287.221518 184.738058 
L 287.221518 115.055558 
L 243.875268 115.055558 
L 243.875268 184.738058 
z
" style="fill: none"/>
    </g>
    <path d="M 245.544245 169.764308 
L 249.748608 169.764308 
L 249.748608 169.764308 
L 256.328754 169.764308 
L 261.089443 169.764308 
L 254.377055 169.764308 
L 261.331125 169.764308 
L 256.657078 169.764308 
L 251.613667 169.764308 
L 249.748608 169.764308 
L 249.748608 169.764308 
L 245.544245 169.764308 
L 245.544245 169.764308 
z
" style="fill: #004488"/>
   </g>
   <g id="text_40">
    <g id="patch_34">
     <path d="M 243.875268 184.738058 
L 287.221518 184.738058 
L 287.221518 115.055558 
L 243.875268 115.055558 
L 243.875268 184.738058 
z
" style="fill: none"/>
    </g>
    <path d="M 247.080981 169.764308 
L 247.080981 169.764308 
L 251.285343 169.764308 
L 251.285343 169.764308 
L 260.277754 169.764308 
L 260.277754 169.764308 
L 247.080981 169.764308 
z
" style="fill: #004488"/>
   </g>
   <g id="text_41">
    <g id="patch_35">
     <path d="M 243.875268 184.738058 
L 287.221518 184.738058 
L 287.221518 115.055558 
L 243.875268 115.055558 
L 243.875268 184.738058 
z
" style="fill: none"/>
    </g>
    <path d="M 245.571606 169.764308 
L 250.090611 169.764308 
L 256.018671 169.764308 
L 256.018671 169.764308 
L 259.721429 169.764308 
L 259.721429 169.764308 
L 255.234343 169.764308 
L 249.274363 169.764308 
L 249.274363 169.764308 
L 245.571606 169.764308 
L 245.571606 169.764308 
z
" style="fill: #004488"/>
   </g>
   <g id="text_42">
    <g id="patch_36">
     <path d="M 243.875268 184.738058 
L 287.221518 184.738058 
L 287.221518 115.055558 
L 243.875268 115.055558 
L 243.875268 184.738058 
z
" style="fill: none"/>
    </g>
    <path d="M 259.666708 169.764308 
L 254.960741 169.764308 
L 259.666708 169.764308 
L 258.581417 169.764308 
L 253.852649 169.764308 
L 253.852649 169.764308 
L 251.399345 169.764308 
L 251.399345 169.764308 
L 246.684257 169.764308 
L 245.598966 169.764308 
L 250.332294 169.764308 
L 245.598966 169.764308 
L 246.684257 169.764308 
L 251.399345 169.764308 
L 251.399345 169.764308 
L 253.852649 169.764308 
L 253.852649 169.764308 
L 258.581417 169.764308 
L 259.666708 169.764308 
z
" style="fill: #004488"/>
   </g>
   <g id="text_43">
    <g id="patch_37">
     <path d="M 243.875268 184.738058 
L 287.221518 184.738058 
L 287.221518 115.055558 
L 243.875268 115.055558 
L 243.875268 184.738058 
z
" style="fill: none"/>
    </g>
    <path d="M 252.653357 169.764308 
L 256.401715 169.764308 
L 260.633438 169.764308 
L 255.576347 169.764308 
L 249.748608 169.764308 
L 244.686957 169.764308 
L 248.918679 169.764308 
L 252.653357 169.764308 
z
" style="fill: #004488"/>
   </g>
   <g id="text_44">
    <g id="patch_38">
     <path d="M 243.875268 184.738058 
L 287.221518 184.738058 
L 287.221518 115.055558 
L 243.875268 115.055558 
L 243.875268 184.738058 
z
" style="fill: none"/>
    </g>
    <path d="M 244.372313 169.764308 
L 247.837949 169.764308 
L 249.274363 169.764308 
L 251.016301 169.764308 
L 254.308654 169.764308 
L 256.315074 169.764308 
L 257.455086 169.764308 
L 260.948081 169.764308 
L 258.640698 169.764308 
L 254.93338 169.764308 
L 252.653357 169.764308 
L 250.514696 169.764308 
L 246.852979 169.764308 
L 244.372313 169.764308 
z
" style="fill: #004488"/>
   </g>
   <g id="text_45">
    <g id="patch_39">
     <path d="M 243.875268 184.738058 
L 287.221518 184.738058 
L 287.221518 115.055558 
L 243.875268 115.055558 
L 243.875268 184.738058 
z
" style="fill: none"/>
    </g>
    <path d="M 256.301394 169.764308 
L 256.301394 169.764308 
L 253.424005 169.764308 
L 253.424005 169.764308 
L 259.976791 169.764308 
L 259.976791 169.764308 
Q 258.768379 169.764308 257.304604 169.764308 
Q 255.84539 169.764308 254.176413 169.764308 
Q 250.045011 169.764308 247.792348 169.764308 
Q 245.544245 169.764308 245.544245 169.764308 
Q 245.544245 169.764308 247.815148 169.764308 
Q 250.090611 169.764308 254.377055 169.764308 
Q 255.658428 169.764308 256.89876 169.764308 
Q 258.139093 169.764308 259.224384 169.764308 
L 259.224384 169.764308 
Q 258.339735 169.764308 257.190603 169.764308 
Q 256.046032 169.764308 254.678018 169.764308 
Q 252.283994 169.764308 251.098382 169.764308 
Q 249.91733 169.764308 249.91733 169.764308 
Q 249.91733 169.764308 251.057341 169.764308 
Q 252.197353 169.764308 254.377055 169.764308 
Q 255.033701 169.764308 255.517066 169.764308 
Q 256.000431 169.764308 256.301394 169.764308 
z
" style="fill: #004488"/>
   </g>
   <g id="text_46">
    <g id="patch_40">
     <path d="M 243.875268 184.738058 
L 287.221518 184.738058 
L 287.221518 115.055558 
L 243.875268 115.055558 
L 243.875268 184.738058 
z
" style="fill: none"/>
    </g>
    <path d="M 245.826968 169.764308 
L 250.031331 169.764308 
L 250.031331 169.764308 
L 255.289064 169.764308 
L 255.289064 169.764308 
L 259.493427 169.764308 
L 259.493427 169.764308 
L 255.289064 169.764308 
L 255.289064 169.764308 
L 250.031331 169.764308 
L 250.031331 169.764308 
L 245.826968 169.764308 
L 245.826968 169.764308 
z
" style="fill: #004488"/>
   </g>
   <g id="text_47">
    <g id="patch_41">
     <path d="M 243.875268 184.738058 
L 287.221518 184.738058 
L 287.221518 115.055558 
L 243.875268 115.055558 
L 243.875268 184.738058 
z
" style="fill: none"/>
    </g>
    <path d="M 253.223363 169.764308 
Q 253.022721 169.764308 252.88592 169.764308 
Q 252.753678 169.764308 252.625997 169.764308 
Q 248.96428 169.764308 247.076421 169.764308 
Q 245.188562 169.764308 245.188562 169.764308 
Q 245.188562 169.764308 247.076421 169.764308 
Q 248.96428 169.764308 252.653357 169.764308 
Q 256.360675 169.764308 258.248534 169.764308 
Q 260.136393 169.764308 260.136393 169.764308 
Q 260.136393 169.764308 259.238064 169.764308 
Q 258.339735 169.764308 256.629718 169.764308 
L 259.279104 169.764308 
L 256.401715 169.764308 
L 253.223363 169.764308 
z
M 252.653357 169.764308 
Q 251.043661 169.764308 250.300373 169.764308 
Q 249.561646 169.764308 249.561646 169.764308 
Q 249.561646 169.764308 250.300373 169.764308 
Q 251.043661 169.764308 252.653357 169.764308 
Q 254.276734 169.764308 255.015461 169.764308 
Q 255.758749 169.764308 255.758749 169.764308 
Q 255.758749 169.764308 255.015461 169.764308 
Q 254.276734 169.764308 252.653357 169.764308 
z
" style="fill: #004488"/>
   </g>
   <g id="text_48">
    <g id="patch_42">
     <path d="M 243.875268 184.738058 
L 287.221518 184.738058 
L 287.221518 115.055558 
L 243.875268 115.055558 
L 243.875268 184.738058 
z
" style="fill: none"/>
    </g>
    <path d="M 255.375705 169.764308 
Q 256.000431 169.764308 256.465556 169.764308 
Q 256.930681 169.764308 257.596447 169.764308 
L 261.445126 169.764308 
L 256.83036 169.764308 
L 254.263054 169.764308 
Q 254.149052 169.764308 253.966651 169.764308 
Q 252.840319 169.764308 251.312704 169.764308 
L 249.97661 169.764308 
L 249.97661 169.764308 
L 245.772248 169.764308 
L 245.772248 169.764308 
L 251.841669 169.764308 
Q 255.945711 169.764308 257.733249 169.764308 
Q 259.520787 169.764308 259.520787 169.764308 
Q 259.520787 169.764308 258.453736 169.764308 
Q 257.386685 169.764308 255.375705 169.764308 
z
M 249.97661 169.764308 
L 249.97661 169.764308 
L 251.95567 169.764308 
Q 253.679368 169.764308 254.427215 169.764308 
Q 255.175063 169.764308 255.175063 169.764308 
Q 255.175063 169.764308 254.431775 169.764308 
Q 253.693048 169.764308 251.95567 169.764308 
L 249.97661 169.764308 
z
" style="fill: #004488"/>
   </g>
   <g id="text_49">
    <g id="patch_43">
     <path d="M 243.875268 184.738058 
L 287.221518 184.738058 
L 287.221518 115.055558 
L 243.875268 115.055558 
L 243.875268 184.738058 
z
" style="fill: none"/>
    </g>
    <path d="M 246.328573 169.764308 
L 246.328573 169.764308 
L 258.996381 169.764308 
L 258.996381 169.764308 
L 254.764659 169.764308 
L 254.764659 169.764308 
L 258.996381 169.764308 
L 258.996381 169.764308 
L 246.328573 169.764308 
L 246.328573 169.764308 
L 250.560296 169.764308 
L 250.560296 169.764308 
L 246.328573 169.764308 
z
" style="fill: #004488"/>
   </g>
   <g id="text_50">
    <g id="patch_44">
     <path d="M 243.875268 184.738058 
L 287.221518 184.738058 
L 287.221518 115.055558 
L 243.875268 115.055558 
L 243.875268 184.738058 
z
" style="fill: none"/>
    </g>
    <path d="M 259.721429 169.764308 
L 250.674297 169.764308 
L 250.674297 169.764308 
L 258.909741 169.764308 
L 258.909741 169.764308 
L 250.674297 169.764308 
L 250.674297 169.764308 
L 246.469935 169.764308 
L 246.469935 169.764308 
L 259.721429 169.764308 
L 259.721429 169.764308 
z
" style="fill: #004488"/>
   </g>
   <g id="text_51">
    <g id="patch_45">
     <path d="M 243.875268 184.738058 
L 287.221518 184.738058 
L 287.221518 115.055558 
L 243.875268 115.055558 
L 243.875268 184.738058 
z
" style="fill: none"/>
    </g>
    <path d="M 254.764659 169.764308 
L 250.560296 169.764308 
L 250.560296 169.764308 
L 245.156641 169.764308 
L 245.156641 169.764308 
L 260.163753 169.764308 
L 260.163753 169.764308 
L 254.764659 169.764308 
L 254.764659 169.764308 
z
" style="fill: #004488"/>
   </g>
   <g id="text_52">
    <g id="patch_46">
     <path d="M 243.875268 184.738058 
L 287.221518 184.738058 
L 287.221518 115.055558 
L 243.875268 115.055558 
L 243.875268 184.738058 
z
" style="fill: none"/>
    </g>
    <path d="M 243.98927 169.764308 
L 248.521955 169.764308 
L 252.653357 169.764308 
L 256.798439 169.764308 
L 261.331125 169.764308 
L 254.764659 169.764308 
L 254.764659 169.764308 
L 250.560296 169.764308 
L 250.560296 169.764308 
L 243.98927 169.764308 
z
" style="fill: #004488"/>
   </g>
   <g id="text_53">
    <g id="patch_47">
     <path d="M 243.875268 184.738058 
L 287.221518 184.738058 
L 287.221518 115.055558 
L 243.875268 115.055558 
L 243.875268 184.738058 
z
" style="fill: none"/>
    </g>
    <path d="M 252.653357 169.764308 
L 250.674297 169.764308 
L 254.650658 169.764308 
L 252.653357 169.764308 
z
M 250.090611 169.764308 
L 255.234343 169.764308 
L 260.975442 169.764308 
L 256.771079 169.764308 
L 255.462346 169.764308 
L 249.830689 169.764308 
L 248.549316 169.764308 
L 244.344953 169.764308 
L 250.090611 169.764308 
z
" style="fill: #004488"/>
   </g>
   <g id="text_54">
    <g id="patch_48">
     <path d="M 243.875268 184.738058 
L 287.221518 184.738058 
L 287.221518 115.055558 
L 243.875268 115.055558 
L 243.875268 184.738058 
z
" style="fill: none"/>
    </g>
    <path d="M 250.031331 169.764308 
L 250.031331 169.764308 
L 251.171342 169.764308 
Q 253.652007 169.764308 254.705378 169.764308 
Q 255.758749 169.764308 255.758749 169.764308 
Q 255.758749 169.764308 254.705378 169.764308 
Q 253.652007 169.764308 251.171342 169.764308 
L 250.031331 169.764308 
z
M 245.826968 169.764308 
L 250.332294 169.764308 
Q 255.544427 169.764308 257.83813 169.764308 
Q 260.136393 169.764308 260.136393 169.764308 
Q 260.136393 169.764308 257.83813 169.764308 
Q 255.544427 169.764308 250.332294 169.764308 
L 245.826968 169.764308 
L 245.826968 169.764308 
z
" style="fill: #004488"/>
   </g>
   <g id="text_55">
    <g id="patch_49">
     <path d="M 243.875268 184.737973 
L 287.221518 184.737973 
L 287.221518 115.055473 
L 243.875268 115.055473 
L 243.875268 184.737973 
z
" style="fill: none"/>
    </g>
    <path d="M 259.520787 169.764223 
L 246.269293 169.764223 
L 246.269293 169.764152 
L 259.520787 169.764152 
L 259.520787 169.764165 
L 250.473655 169.764165 
L 250.473655 169.76418 
L 258.668058 169.76418 
L 258.668058 169.764192 
L 250.473655 169.764192 
L 250.473655 169.76421 
L 259.520787 169.76421 
L 259.520787 169.764223 
z
" style="fill: #004488"/>
   </g>
   <g id="text_56">
    <g id="patch_50">
     <path d="M 243.875268 184.737567 
L 287.221518 184.737567 
L 287.221518 115.055067 
L 243.875268 115.055067 
L 243.875268 184.737567 
z
" style="fill: none"/>
    </g>
    <path d="M 250.387014 169.763587 
L 250.387014 169.763667 
L 252.110712 169.763667 
Q 254.176413 169.763667 255.010901 169.763658 
Q 255.84539 169.763649 255.84539 169.763627 
Q 255.84539 169.763605 255.010901 169.763596 
Q 254.176413 169.763587 252.110712 169.763587 
L 250.387014 169.763587 
z
M 246.182652 169.763541 
L 251.95567 169.763541 
Q 256.360675 169.763541 258.289574 169.763561 
Q 260.218474 169.763582 260.218474 169.763627 
Q 260.218474 169.763673 258.289574 169.763693 
Q 256.360675 169.763713 251.95567 169.763713 
L 250.387014 169.763713 
L 250.387014 169.763816 
L 246.182652 169.763816 
L 246.182652 169.763541 
z
" style="fill: #004488"/>
   </g>
   <g id="text_57">
    <g id="patch_51">
     <path d="M 243.875268 183.97115 
L 287.221518 183.97115 
L 287.221518 114.28865 
L 243.875268 114.28865 
L 243.875268 183.97115 
z
" style="fill: none"/>
    </g>
    <path d="M 251.143982 168.717577 
Q 247.96563 168.682956 246.839298 168.644953 
Q 245.712967 168.606949 245.712967 168.542654 
Q 245.712967 168.460139 247.564346 168.413024 
Q 249.420285 168.36578 252.653357 168.36578 
Q 254.121692 168.36578 255.590027 168.375411 
Q 257.058362 168.384912 258.494776 168.403523 
L 258.494776 168.520659 
Q 257.140443 168.493457 255.745069 168.479271 
Q 254.349694 168.464954 252.981681 168.464954 
Q 251.458625 168.464954 250.642377 168.482525 
Q 249.830689 168.499965 249.830689 168.532502 
Q 249.830689 168.557752 250.423495 168.574281 
Q 251.016301 168.59068 252.89504 168.610593 
L 254.705378 168.630115 
Q 257.272684 168.656926 258.481096 168.701308 
Q 259.694069 168.745689 259.694069 168.813107 
Q 259.694069 168.905123 257.787969 168.950416 
Q 255.88643 168.995708 252.042311 168.995708 
Q 250.459975 168.995708 248.868519 168.985036 
Q 247.281623 168.974233 245.799608 168.953019 
L 245.799608 168.828985 
Q 247.482265 168.863215 249.055481 168.879874 
Q 250.628697 168.896534 252.169992 168.896534 
Q 253.720408 168.896534 254.573137 168.87649 
Q 255.430425 168.856317 255.430425 168.820005 
Q 255.430425 168.792804 254.86042 168.77224 
Q 254.290414 168.751676 253.209683 168.739962 
L 251.143982 168.717577 
z
" style="fill: #004488"/>
   </g>
   <g id="text_58">
    <g id="patch_52">
     <path d="M 243.875268 179.429547 
L 287.221518 179.429547 
L 287.221518 109.747047 
L 243.875268 109.747047 
L 243.875268 179.429547 
z
" style="fill: none"/>
    </g>
    <path d="M 245.101921 110.597597 
L 250.117972 110.597597 
L 252.653357 134.17648 
L 255.175063 110.597597 
L 260.218474 110.597597 
L 260.218474 164.356121 
L 256.602357 164.356121 
L 256.602357 121.296141 
L 254.349694 144.797499 
L 251.002621 144.797499 
L 248.722597 121.296141 
L 248.722597 164.356121 
L 245.101921 164.356121 
L 245.101921 110.597597 
z
" style="fill: #004488"/>
   </g>
   <g id="text_59">
    <g id="patch_53">
     <path d="M 260.80216 184.738058 
L 304.14841 184.738058 
L 304.14841 115.055558 
L 260.80216 115.055558 
L 260.80216 184.738058 
z
" style="fill: none"/>
    </g>
    <path d="M 276.205996 169.764308 
Q 275.207346 169.764308 274.108374 169.764308 
Q 273.013963 169.764308 271.805551 169.764308 
Q 267.500868 169.764308 265.234525 169.764308 
Q 262.968182 169.764308 262.968182 169.764308 
Q 262.968182 169.764308 265.234525 169.764308 
Q 267.500868 169.764308 271.805551 169.764308 
Q 273.013963 169.764308 274.126615 169.764308 
Q 275.239266 169.764308 276.205996 169.764308 
L 276.205996 169.764308 
Q 275.125265 169.764308 274.103814 169.764308 
Q 273.086924 169.764308 272.001633 169.764308 
Q 269.69425 169.764308 268.517758 169.764308 
Q 267.341266 169.764308 267.341266 169.764308 
Q 267.341266 169.764308 268.517758 169.764308 
Q 269.69425 169.764308 272.001633 169.764308 
Q 273.086924 169.764308 274.103814 169.764308 
Q 275.125265 169.764308 276.205996 169.764308 
L 276.205996 169.764308 
z
" style="fill: #808080"/>
   </g>
   <g id="text_60">
    <g id="patch_54">
     <path d="M 260.80216 184.738058 
L 304.14841 184.738058 
L 304.14841 115.055558 
L 260.80216 115.055558 
L 260.80216 184.738058 
z
" style="fill: none"/>
    </g>
    <path d="M 262.471137 169.764308 
L 266.675499 169.764308 
L 266.675499 169.764308 
L 273.255646 169.764308 
L 278.016334 169.764308 
L 271.303946 169.764308 
L 278.258016 169.764308 
L 273.583969 169.764308 
L 268.540558 169.764308 
L 266.675499 169.764308 
L 266.675499 169.764308 
L 262.471137 169.764308 
L 262.471137 169.764308 
z
" style="fill: #808080"/>
   </g>
   <g id="text_61">
    <g id="patch_55">
     <path d="M 260.80216 184.738058 
L 304.14841 184.738058 
L 304.14841 115.055558 
L 260.80216 115.055558 
L 260.80216 184.738058 
z
" style="fill: none"/>
    </g>
    <path d="M 264.007872 169.764308 
L 264.007872 169.764308 
L 268.212235 169.764308 
L 268.212235 169.764308 
L 277.204646 169.764308 
L 277.204646 169.764308 
L 264.007872 169.764308 
z
" style="fill: #808080"/>
   </g>
   <g id="text_62">
    <g id="patch_56">
     <path d="M 260.80216 184.738058 
L 304.14841 184.738058 
L 304.14841 115.055558 
L 260.80216 115.055558 
L 260.80216 184.738058 
z
" style="fill: none"/>
    </g>
    <path d="M 262.498497 169.764308 
L 267.017503 169.764308 
L 272.945563 169.764308 
L 272.945563 169.764308 
L 276.64832 169.764308 
L 276.64832 169.764308 
L 272.161235 169.764308 
L 266.201254 169.764308 
L 266.201254 169.764308 
L 262.498497 169.764308 
L 262.498497 169.764308 
z
" style="fill: #808080"/>
   </g>
   <g id="text_63">
    <g id="patch_57">
     <path d="M 260.80216 184.738058 
L 304.14841 184.738058 
L 304.14841 115.055558 
L 260.80216 115.055558 
L 260.80216 184.738058 
z
" style="fill: none"/>
    </g>
    <path d="M 268.070873 169.764308 
Q 264.892521 169.764308 263.76619 169.764308 
Q 262.639858 169.764308 262.639858 169.764308 
Q 262.639858 169.764308 264.491237 169.764308 
Q 266.347176 169.764308 269.580249 169.764308 
Q 271.048583 169.764308 272.516918 169.764308 
Q 273.985253 169.764308 275.421668 169.764308 
L 275.421668 169.764308 
Q 274.067334 169.764308 272.67196 169.764308 
Q 271.276586 169.764308 269.908572 169.764308 
Q 268.385517 169.764308 267.569268 169.764308 
Q 266.75758 169.764308 266.75758 169.764308 
Q 266.75758 169.764308 267.350386 169.764308 
Q 267.943192 169.764308 269.821931 169.764308 
L 271.632269 169.764308 
Q 274.199575 169.764308 275.407988 169.764308 
Q 276.62096 169.764308 276.62096 169.764308 
Q 276.62096 169.764308 274.714861 169.764308 
Q 272.813321 169.764308 268.969202 169.764308 
Q 267.386866 169.764308 265.79541 169.764308 
Q 264.208514 169.764308 262.726499 169.764308 
L 262.726499 169.764308 
Q 264.409156 169.764308 265.982372 169.764308 
Q 267.555588 169.764308 269.096884 169.764308 
Q 270.647299 169.764308 271.500028 169.764308 
Q 272.357317 169.764308 272.357317 169.764308 
Q 272.357317 169.764308 271.787311 169.764308 
Q 271.217305 169.764308 270.136574 169.764308 
L 268.070873 169.764308 
z
" style="fill: #808080"/>
   </g>
   <g id="text_64">
    <g id="patch_58">
     <path d="M 260.80216 184.738058 
L 304.14841 184.738058 
L 304.14841 115.055558 
L 260.80216 115.055558 
L 260.80216 184.738058 
z
" style="fill: none"/>
    </g>
    <path d="M 276.5936 169.764308 
L 271.887632 169.764308 
L 276.5936 169.764308 
L 275.508309 169.764308 
L 270.779541 169.764308 
L 270.779541 169.764308 
L 268.326236 169.764308 
L 268.326236 169.764308 
L 263.611148 169.764308 
L 262.525857 169.764308 
L 267.259185 169.764308 
L 262.525857 169.764308 
L 263.611148 169.764308 
L 268.326236 169.764308 
L 268.326236 169.764308 
L 270.779541 169.764308 
L 270.779541 169.764308 
L 275.508309 169.764308 
L 276.5936 169.764308 
z
" style="fill: #808080"/>
   </g>
   <g id="text_65">
    <g id="patch_59">
     <path d="M 260.80216 184.738058 
L 304.14841 184.738058 
L 304.14841 115.055558 
L 260.80216 115.055558 
L 260.80216 184.738058 
z
" style="fill: none"/>
    </g>
    <path d="M 269.580249 169.764308 
L 273.328607 169.764308 
L 277.560329 169.764308 
L 272.503238 169.764308 
L 266.675499 169.764308 
L 261.613848 169.764308 
L 265.845571 169.764308 
L 269.580249 169.764308 
z
" style="fill: #808080"/>
   </g>
   <g id="text_66">
    <g id="patch_60">
     <path d="M 260.80216 184.738058 
L 304.14841 184.738058 
L 304.14841 115.055558 
L 260.80216 115.055558 
L 260.80216 184.738058 
z
" style="fill: none"/>
    </g>
    <path d="M 261.299205 169.764308 
L 264.76484 169.764308 
L 266.201254 169.764308 
L 267.943192 169.764308 
L 271.235545 169.764308 
L 273.241966 169.764308 
L 274.381977 169.764308 
L 277.874973 169.764308 
L 275.567589 169.764308 
L 271.860272 169.764308 
L 269.580249 169.764308 
L 267.441587 169.764308 
L 263.77987 169.764308 
L 261.299205 169.764308 
z
" style="fill: #808080"/>
   </g>
   <g id="text_67">
    <g id="patch_61">
     <path d="M 260.80216 184.738058 
L 304.14841 184.738058 
L 304.14841 115.055558 
L 260.80216 115.055558 
L 260.80216 184.738058 
z
" style="fill: none"/>
    </g>
    <path d="M 273.228286 169.764308 
L 273.228286 169.764308 
L 270.350896 169.764308 
L 270.350896 169.764308 
L 276.903683 169.764308 
L 276.903683 169.764308 
Q 275.695271 169.764308 274.231496 169.764308 
Q 272.772281 169.764308 271.103304 169.764308 
Q 266.971902 169.764308 264.719239 169.764308 
Q 262.471137 169.764308 262.471137 169.764308 
Q 262.471137 169.764308 264.74204 169.764308 
Q 267.017503 169.764308 271.303946 169.764308 
Q 272.585319 169.764308 273.825652 169.764308 
Q 275.065984 169.764308 276.151275 169.764308 
L 276.151275 169.764308 
Q 275.266626 169.764308 274.117495 169.764308 
Q 272.972923 169.764308 271.604909 169.764308 
Q 269.210885 169.764308 268.025273 169.764308 
Q 266.844221 169.764308 266.844221 169.764308 
Q 266.844221 169.764308 267.984232 169.764308 
Q 269.124244 169.764308 271.303946 169.764308 
Q 271.960593 169.764308 272.443958 169.764308 
Q 272.927323 169.764308 273.228286 169.764308 
z
" style="fill: #808080"/>
   </g>
   <g id="text_68">
    <g id="patch_62">
     <path d="M 260.80216 184.738058 
L 304.14841 184.738058 
L 304.14841 115.055558 
L 260.80216 115.055558 
L 260.80216 184.738058 
z
" style="fill: none"/>
    </g>
    <path d="M 262.75386 169.764308 
L 266.958222 169.764308 
L 266.958222 169.764308 
L 272.215955 169.764308 
L 272.215955 169.764308 
L 276.420318 169.764308 
L 276.420318 169.764308 
L 272.215955 169.764308 
L 272.215955 169.764308 
L 266.958222 169.764308 
L 266.958222 169.764308 
L 262.75386 169.764308 
L 262.75386 169.764308 
z
" style="fill: #808080"/>
   </g>
   <g id="text_69">
    <g id="patch_63">
     <path d="M 260.80216 184.738058 
L 304.14841 184.738058 
L 304.14841 115.055558 
L 260.80216 115.055558 
L 260.80216 184.738058 
z
" style="fill: none"/>
    </g>
    <path d="M 270.150254 169.764308 
Q 269.949612 169.764308 269.812811 169.764308 
Q 269.68057 169.764308 269.552888 169.764308 
Q 265.891171 169.764308 264.003312 169.764308 
Q 262.115453 169.764308 262.115453 169.764308 
Q 262.115453 169.764308 264.003312 169.764308 
Q 265.891171 169.764308 269.580249 169.764308 
Q 273.287566 169.764308 275.175425 169.764308 
Q 277.063284 169.764308 277.063284 169.764308 
Q 277.063284 169.764308 276.164955 169.764308 
Q 275.266626 169.764308 273.556609 169.764308 
L 276.205996 169.764308 
L 273.328607 169.764308 
L 270.150254 169.764308 
z
M 269.580249 169.764308 
Q 267.970552 169.764308 267.227265 169.764308 
Q 266.488537 169.764308 266.488537 169.764308 
Q 266.488537 169.764308 267.227265 169.764308 
Q 267.970552 169.764308 269.580249 169.764308 
Q 271.203625 169.764308 271.942353 169.764308 
Q 272.68564 169.764308 272.68564 169.764308 
Q 272.68564 169.764308 271.942353 169.764308 
Q 271.203625 169.764308 269.580249 169.764308 
z
" style="fill: #808080"/>
   </g>
   <g id="text_70">
    <g id="patch_64">
     <path d="M 260.80216 184.738058 
L 304.14841 184.738058 
L 304.14841 115.055558 
L 260.80216 115.055558 
L 260.80216 184.738058 
z
" style="fill: none"/>
    </g>
    <path d="M 276.447678 169.764308 
L 263.196184 169.764308 
L 263.196184 169.764308 
L 276.447678 169.764308 
L 276.447678 169.764308 
L 267.400547 169.764308 
L 267.400547 169.764308 
L 275.59495 169.764308 
L 275.59495 169.764308 
L 267.400547 169.764308 
L 267.400547 169.764308 
L 276.447678 169.764308 
L 276.447678 169.764308 
z
" style="fill: #808080"/>
   </g>
   <g id="text_71">
    <g id="patch_65">
     <path d="M 260.80216 184.738058 
L 304.14841 184.738058 
L 304.14841 115.055558 
L 260.80216 115.055558 
L 260.80216 184.738058 
z
" style="fill: none"/>
    </g>
    <path d="M 262.028812 169.764308 
L 267.044863 169.764308 
L 269.580249 169.764308 
L 272.101954 169.764308 
L 277.145365 169.764308 
L 277.145365 169.764308 
L 273.529249 169.764308 
L 273.529249 169.764308 
L 271.276586 169.764308 
L 267.929512 169.764308 
L 265.649489 169.764308 
L 265.649489 169.764308 
L 262.028812 169.764308 
L 262.028812 169.764308 
z
" style="fill: #808080"/>
   </g>
   <g id="text_72">
    <g id="patch_66">
     <path d="M 260.80216 184.738058 
L 304.14841 184.738058 
L 304.14841 115.055558 
L 260.80216 115.055558 
L 260.80216 184.738058 
z
" style="fill: none"/>
    </g>
    <path d="M 272.302596 169.764308 
Q 272.927323 169.764308 273.392447 169.764308 
Q 273.857572 169.764308 274.523339 169.764308 
L 278.372018 169.764308 
L 273.757251 169.764308 
L 271.189945 169.764308 
Q 271.075944 169.764308 270.893542 169.764308 
Q 269.767211 169.764308 268.239595 169.764308 
L 266.903502 169.764308 
L 266.903502 169.764308 
L 262.699139 169.764308 
L 262.699139 169.764308 
L 268.76856 169.764308 
Q 272.872602 169.764308 274.66014 169.764308 
Q 276.447678 169.764308 276.447678 169.764308 
Q 276.447678 169.764308 275.380627 169.764308 
Q 274.313577 169.764308 272.302596 169.764308 
z
M 266.903502 169.764308 
L 266.903502 169.764308 
L 268.882562 169.764308 
Q 270.606259 169.764308 271.354107 169.764308 
Q 272.101954 169.764308 272.101954 169.764308 
Q 272.101954 169.764308 271.358667 169.764308 
Q 270.619939 169.764308 268.882562 169.764308 
L 266.903502 169.764308 
z
" style="fill: #808080"/>
   </g>
   <g id="text_73">
    <g id="patch_67">
     <path d="M 260.80216 184.738058 
L 304.14841 184.738058 
L 304.14841 115.055558 
L 260.80216 115.055558 
L 260.80216 184.738058 
z
" style="fill: none"/>
    </g>
    <path d="M 263.255465 169.764308 
L 263.255465 169.764308 
L 275.923273 169.764308 
L 275.923273 169.764308 
L 271.69155 169.764308 
L 271.69155 169.764308 
L 275.923273 169.764308 
L 275.923273 169.764308 
L 263.255465 169.764308 
L 263.255465 169.764308 
L 267.487187 169.764308 
L 267.487187 169.764308 
L 263.255465 169.764308 
z
" style="fill: #808080"/>
   </g>
   <g id="text_74">
    <g id="patch_68">
     <path d="M 260.80216 184.738058 
L 304.14841 184.738058 
L 304.14841 115.055558 
L 260.80216 115.055558 
L 260.80216 184.738058 
z
" style="fill: none"/>
    </g>
    <path d="M 276.64832 169.764308 
L 267.601189 169.764308 
L 267.601189 169.764308 
L 275.836632 169.764308 
L 275.836632 169.764308 
L 267.601189 169.764308 
L 267.601189 169.764308 
L 263.396826 169.764308 
L 263.396826 169.764308 
L 276.64832 169.764308 
L 276.64832 169.764308 
z
" style="fill: #808080"/>
   </g>
   <g id="text_75">
    <g id="patch_69">
     <path d="M 260.80216 184.738058 
L 304.14841 184.738058 
L 304.14841 115.055558 
L 260.80216 115.055558 
L 260.80216 184.738058 
z
" style="fill: none"/>
    </g>
    <path d="M 271.69155 169.764308 
L 267.487187 169.764308 
L 267.487187 169.764308 
L 262.083533 169.764308 
L 262.083533 169.764308 
L 277.090645 169.764308 
L 277.090645 169.764308 
L 271.69155 169.764308 
L 271.69155 169.764308 
z
" style="fill: #808080"/>
   </g>
   <g id="text_76">
    <g id="patch_70">
     <path d="M 260.80216 184.738058 
L 304.14841 184.738058 
L 304.14841 115.055558 
L 260.80216 115.055558 
L 260.80216 184.738058 
z
" style="fill: none"/>
    </g>
    <path d="M 260.916161 169.764308 
L 265.448847 169.764308 
L 269.580249 169.764308 
L 273.725331 169.764308 
L 278.258016 169.764308 
L 271.69155 169.764308 
L 271.69155 169.764308 
L 267.487187 169.764308 
L 267.487187 169.764308 
L 260.916161 169.764308 
z
" style="fill: #808080"/>
   </g>
   <g id="text_77">
    <g id="patch_71">
     <path d="M 260.80216 184.738058 
L 304.14841 184.738058 
L 304.14841 115.055558 
L 260.80216 115.055558 
L 260.80216 184.738058 
z
" style="fill: none"/>
    </g>
    <path d="M 266.958222 169.764308 
L 266.958222 169.764308 
L 268.098234 169.764308 
Q 270.578899 169.764308 271.632269 169.764308 
Q 272.68564 169.764308 272.68564 169.764308 
Q 272.68564 169.764308 271.632269 169.764308 
Q 270.578899 169.764308 268.098234 169.764308 
L 266.958222 169.764308 
z
M 262.75386 169.764308 
L 267.259185 169.764308 
Q 272.471318 169.764308 274.765021 169.764308 
Q 277.063284 169.764308 277.063284 169.764308 
Q 277.063284 169.764308 274.765021 169.764308 
Q 272.471318 169.764308 267.259185 169.764308 
L 262.75386 169.764308 
L 262.75386 169.764308 
z
" style="fill: #808080"/>
   </g>
   <g id="text_78">
    <g id="patch_72">
     <path d="M 260.80216 183.614075 
L 304.14841 183.614075 
L 304.14841 113.931575 
L 260.80216 113.931575 
L 260.80216 183.614075 
z
" style="fill: none"/>
    </g>
    <path d="M 269.580249 167.878275 
L 267.601189 168.259013 
L 271.577549 168.259013 
L 269.580249 167.878275 
z
M 267.017503 167.710055 
L 272.161235 167.710055 
L 277.902333 168.640325 
L 273.69797 168.640325 
L 272.389237 168.410049 
L 266.75758 168.410049 
L 265.476207 168.640325 
L 261.271845 168.640325 
L 267.017503 167.710055 
z
" style="fill: #808080"/>
   </g>
   <g id="text_79">
    <g id="patch_73">
     <path d="M 260.80216 180.6577 
L 304.14841 180.6577 
L 304.14841 110.9752 
L 260.80216 110.9752 
L 260.80216 180.6577 
z
" style="fill: none"/>
    </g>
    <path d="M 267.313906 157.454718 
L 267.313906 160.345905 
L 269.037603 160.345905 
Q 271.103304 160.345905 271.937792 160.02331 
Q 272.772281 159.698685 272.772281 158.899297 
Q 272.772281 158.099909 271.937792 157.777314 
Q 271.103304 157.454718 269.037603 157.454718 
L 267.313906 157.454718 
z
M 263.109543 155.817393 
L 268.882562 155.817393 
Q 273.287566 155.817393 275.216466 156.543741 
Q 277.145365 157.270088 277.145365 158.899297 
Q 277.145365 160.528507 275.216466 161.254854 
Q 273.287566 161.981201 268.882562 161.981201 
L 267.313906 161.981201 
L 267.313906 165.66569 
L 263.109543 165.66569 
L 263.109543 155.817393 
z
" style="fill: #808080"/>
   </g>
   <g id="text_80">
    <!-- Z2208 -->
    <g transform="translate(202.692768 27.478594) scale(0.255 -0.255)">
     <use xlink:href="#DejaVuSans-5a"/>
     <use xlink:href="#DejaVuSans-32" x="68.505859"/>
     <use xlink:href="#DejaVuSans-32" x="132.128906"/>
     <use xlink:href="#DejaVuSans-30" x="195.751953"/>
     <use xlink:href="#DejaVuSans-38" x="259.375"/>
    </g>
   </g>
  </g>
  <g id="text_81">
   <!-- site -->
   <g transform="translate(157.76527 259.115) scale(0.255 -0.255)">
    <defs>
     <path id="DejaVuSans-73" d="M 2834 3397 
L 2834 2853 
Q 2591 2978 2328 3040 
Q 2066 3103 1784 3103 
Q 1356 3103 1142 2972 
Q 928 2841 928 2578 
Q 928 2378 1081 2264 
Q 1234 2150 1697 2047 
L 1894 2003 
Q 2506 1872 2764 1633 
Q 3022 1394 3022 966 
Q 3022 478 2636 193 
Q 2250 -91 1575 -91 
Q 1294 -91 989 -36 
Q 684 19 347 128 
L 347 722 
Q 666 556 975 473 
Q 1284 391 1588 391 
Q 1994 391 2212 530 
Q 2431 669 2431 922 
Q 2431 1156 2273 1281 
Q 2116 1406 1581 1522 
L 1381 1569 
Q 847 1681 609 1914 
Q 372 2147 372 2553 
Q 372 3047 722 3315 
Q 1072 3584 1716 3584 
Q 2034 3584 2315 3537 
Q 2597 3491 2834 3397 
z
" transform="scale(0.015625)"/>
     <path id="DejaVuSans-69" d="M 603 3500 
L 1178 3500 
L 1178 0 
L 603 0 
L 603 3500 
z
M 603 4863 
L 1178 4863 
L 1178 4134 
L 603 4134 
L 603 4863 
z
" transform="scale(0.015625)"/>
     <path id="DejaVuSans-74" d="M 1172 4494 
L 1172 3500 
L 2356 3500 
L 2356 3053 
L 1172 3053 
L 1172 1153 
Q 1172 725 1289 603 
Q 1406 481 1766 481 
L 2356 481 
L 2356 0 
L 1766 0 
Q 1100 0 847 248 
Q 594 497 594 1153 
L 594 3053 
L 172 3053 
L 172 3500 
L 594 3500 
L 594 4494 
L 1172 4494 
z
" transform="scale(0.015625)"/>
     <path id="DejaVuSans-65" d="M 3597 1894 
L 3597 1613 
L 953 1613 
Q 991 1019 1311 708 
Q 1631 397 2203 397 
Q 2534 397 2845 478 
Q 3156 559 3463 722 
L 3463 178 
Q 3153 47 2828 -22 
Q 2503 -91 2169 -91 
Q 1331 -91 842 396 
Q 353 884 353 1716 
Q 353 2575 817 3079 
Q 1281 3584 2069 3584 
Q 2775 3584 3186 3129 
Q 3597 2675 3597 1894 
z
M 3022 2063 
Q 3016 2534 2758 2815 
Q 2500 3097 2075 3097 
Q 1594 3097 1305 2825 
Q 1016 2553 972 2059 
L 3022 2063 
z
" transform="scale(0.015625)"/>
    </defs>
    <use xlink:href="#DejaVuSans-73"/>
    <use xlink:href="#DejaVuSans-69" x="52.099609"/>
    <use xlink:href="#DejaVuSans-74" x="79.882812"/>
    <use xlink:href="#DejaVuSans-65" x="119.091797"/>
   </g>
  </g>
  <g id="text_82">
   <!-- escape fraction -->
   <g transform="translate(26.576016 203.757187) rotate(-90) scale(0.255 -0.255)">
    <defs>
     <path id="DejaVuSans-63" d="M 3122 3366 
L 3122 2828 
Q 2878 2963 2633 3030 
Q 2388 3097 2138 3097 
Q 1578 3097 1268 2742 
Q 959 2388 959 1747 
Q 959 1106 1268 751 
Q 1578 397 2138 397 
Q 2388 397 2633 464 
Q 2878 531 3122 666 
L 3122 134 
Q 2881 22 2623 -34 
Q 2366 -91 2075 -91 
Q 1284 -91 818 406 
Q 353 903 353 1747 
Q 353 2603 823 3093 
Q 1294 3584 2113 3584 
Q 2378 3584 2631 3529 
Q 2884 3475 3122 3366 
z
" transform="scale(0.015625)"/>
     <path id="DejaVuSans-61" d="M 2194 1759 
Q 1497 1759 1228 1600 
Q 959 1441 959 1056 
Q 959 750 1161 570 
Q 1363 391 1709 391 
Q 2188 391 2477 730 
Q 2766 1069 2766 1631 
L 2766 1759 
L 2194 1759 
z
M 3341 1997 
L 3341 0 
L 2766 0 
L 2766 531 
Q 2569 213 2275 61 
Q 1981 -91 1556 -91 
Q 1019 -91 701 211 
Q 384 513 384 1019 
Q 384 1609 779 1909 
Q 1175 2209 1959 2209 
L 2766 2209 
L 2766 2266 
Q 2766 2663 2505 2880 
Q 2244 3097 1772 3097 
Q 1472 3097 1187 3025 
Q 903 2953 641 2809 
L 641 3341 
Q 956 3463 1253 3523 
Q 1550 3584 1831 3584 
Q 2591 3584 2966 3190 
Q 3341 2797 3341 1997 
z
" transform="scale(0.015625)"/>
     <path id="DejaVuSans-70" d="M 1159 525 
L 1159 -1331 
L 581 -1331 
L 581 3500 
L 1159 3500 
L 1159 2969 
Q 1341 3281 1617 3432 
Q 1894 3584 2278 3584 
Q 2916 3584 3314 3078 
Q 3713 2572 3713 1747 
Q 3713 922 3314 415 
Q 2916 -91 2278 -91 
Q 1894 -91 1617 61 
Q 1341 213 1159 525 
z
M 3116 1747 
Q 3116 2381 2855 2742 
Q 2594 3103 2138 3103 
Q 1681 3103 1420 2742 
Q 1159 2381 1159 1747 
Q 1159 1113 1420 752 
Q 1681 391 2138 391 
Q 2594 391 2855 752 
Q 3116 1113 3116 1747 
z
" transform="scale(0.015625)"/>
     <path id="DejaVuSans-20" transform="scale(0.015625)"/>
     <path id="DejaVuSans-66" d="M 2375 4863 
L 2375 4384 
L 1825 4384 
Q 1516 4384 1395 4259 
Q 1275 4134 1275 3809 
L 1275 3500 
L 2222 3500 
L 2222 3053 
L 1275 3053 
L 1275 0 
L 697 0 
L 697 3053 
L 147 3053 
L 147 3500 
L 697 3500 
L 697 3744 
Q 697 4328 969 4595 
Q 1241 4863 1831 4863 
L 2375 4863 
z
" transform="scale(0.015625)"/>
     <path id="DejaVuSans-72" d="M 2631 2963 
Q 2534 3019 2420 3045 
Q 2306 3072 2169 3072 
Q 1681 3072 1420 2755 
Q 1159 2438 1159 1844 
L 1159 0 
L 581 0 
L 581 3500 
L 1159 3500 
L 1159 2956 
Q 1341 3275 1631 3429 
Q 1922 3584 2338 3584 
Q 2397 3584 2469 3576 
Q 2541 3569 2628 3553 
L 2631 2963 
z
" transform="scale(0.015625)"/>
     <path id="DejaVuSans-6f" d="M 1959 3097 
Q 1497 3097 1228 2736 
Q 959 2375 959 1747 
Q 959 1119 1226 758 
Q 1494 397 1959 397 
Q 2419 397 2687 759 
Q 2956 1122 2956 1747 
Q 2956 2369 2687 2733 
Q 2419 3097 1959 3097 
z
M 1959 3584 
Q 2709 3584 3137 3096 
Q 3566 2609 3566 1747 
Q 3566 888 3137 398 
Q 2709 -91 1959 -91 
Q 1206 -91 779 398 
Q 353 888 353 1747 
Q 353 2609 779 3096 
Q 1206 3584 1959 3584 
z
" transform="scale(0.015625)"/>
     <path id="DejaVuSans-6e" d="M 3513 2113 
L 3513 0 
L 2938 0 
L 2938 2094 
Q 2938 2591 2744 2837 
Q 2550 3084 2163 3084 
Q 1697 3084 1428 2787 
Q 1159 2491 1159 1978 
L 1159 0 
L 581 0 
L 581 3500 
L 1159 3500 
L 1159 2956 
Q 1366 3272 1645 3428 
Q 1925 3584 2291 3584 
Q 2894 3584 3203 3211 
Q 3513 2838 3513 2113 
z
" transform="scale(0.015625)"/>
    </defs>
    <use xlink:href="#DejaVuSans-65"/>
    <use xlink:href="#DejaVuSans-73" x="61.523438"/>
    <use xlink:href="#DejaVuSans-63" x="113.623047"/>
    <use xlink:href="#DejaVuSans-61" x="168.603516"/>
    <use xlink:href="#DejaVuSans-70" x="229.882812"/>
    <use xlink:href="#DejaVuSans-65" x="293.359375"/>
    <use xlink:href="#DejaVuSans-20" x="354.882812"/>
    <use xlink:href="#DejaVuSans-66" x="386.669922"/>
    <use xlink:href="#DejaVuSans-72" x="421.875"/>
    <use xlink:href="#DejaVuSans-61" x="462.988281"/>
    <use xlink:href="#DejaVuSans-63" x="524.267578"/>
    <use xlink:href="#DejaVuSans-74" x="579.248047"/>
    <use xlink:href="#DejaVuSans-69" x="618.457031"/>
    <use xlink:href="#DejaVuSans-6f" x="646.240234"/>
    <use xlink:href="#DejaVuSans-6e" x="707.421875"/>
   </g>
  </g>
 </g>
 <defs>
  <clipPath id="p87688538e2">
   <rect x="72.899609" y="33.478594" width="89.622105" height="144"/>
  </clipPath>
  <clipPath id="pa031091eda">
   <rect x="206.636107" y="33.478594" width="74.478322" height="144"/>
  </clipPath>
 </defs>
</svg>
