<?xml version="1.0" encoding="utf-8" standalone="no"?>
<!DOCTYPE svg PUBLIC "-//W3C//DTD SVG 1.1//EN"
  "http://www.w3.org/Graphics/SVG/1.1/DTD/svg11.dtd">
<svg xmlns:xlink="http://www.w3.org/1999/xlink" width="368.352403pt" height="268.378203pt" viewBox="0 0 368.352403 268.378203" xmlns="http://www.w3.org/2000/svg" version="1.1">
 <metadata>
  <rdf:RDF xmlns:dc="http://purl.org/dc/elements/1.1/" xmlns:cc="http://creativecommons.org/ns#" xmlns:rdf="http://www.w3.org/1999/02/22-rdf-syntax-ns#">
   <cc:Work>
    <dc:type rdf:resource="http://purl.org/dc/dcmitype/StillImage"/>
    <dc:date>2025-12-18T15:42:41.742217</dc:date>
    <dc:format>image/svg+xml</dc:format>
    <dc:creator>
     <cc:Agent>
      <dc:title>Matplotlib v3.7.1, https://matplotlib.org/</dc:title>
     </cc:Agent>
    </dc:creator>
   </cc:Work>
  </rdf:RDF>
 </metadata>
 <defs>
  <style type="text/css">*{stroke-linejoin: round; stroke-linecap: butt}</style>
 </defs>
 <g id="figure_1">
  <g id="patch_1">
   <path d="M 0 268.378203 
L 368.352403 268.378203 
L 368.352403 0 
L 0 0 
L 0 268.378203 
z
" style="fill: none"/>
  </g>
  <g id="axes_1">
   <g id="patch_2">
    <path d="M 72.899609 177.478594 
L 165.694792 177.478594 
L 165.694792 33.478594 
L 72.899609 33.478594 
L 72.899609 177.478594 
z
" style="fill: none"/>
   </g>
   <g id="patch_3">
    <path d="M 101.516138 177.478594 
L 104.153315 177.478594 
L 104.153315 170.764308 
L 101.516138 170.764308 
z
" clip-path="url(#pa2160c50c6)" style="fill: #cc79a7"/>
   </g>
   <g id="patch_4">
    <path d="M 103.153315 177.478594 
L 105.790492 177.478594 
L 105.790492 170.764308 
L 103.153315 170.764308 
z
" clip-path="url(#pa2160c50c6)" style="fill: #cc79a7"/>
   </g>
   <g id="patch_5">
    <path d="M 131.80391 177.478594 
L 134.441087 177.478594 
L 134.441087 170.764308 
L 131.80391 170.764308 
z
" clip-path="url(#pa2160c50c6)" style="fill: #cc79a7"/>
   </g>
   <g id="patch_6">
    <path d="M 151.450032 177.478594 
L 154.087209 177.478594 
L 154.087209 170.764308 
L 151.450032 170.764308 
z
" clip-path="url(#pa2160c50c6)" style="fill: #cc79a7"/>
   </g>
   <g id="matplotlib.axis_1">
    <g id="xtick_1">
     <g id="line2d_1">
      <defs>
       <path id="m1527d62082" d="M 0 0 
L 0 5 
" style="stroke: #000000"/>
      </defs>
      <g>
       <use xlink:href="#m1527d62082" x="75.912015" y="177.478594" style="stroke: #000000"/>
      </g>
     </g>
     <g id="text_1">
      <!-- 300 -->
      <g transform="translate(80.87889 220.336094) rotate(-90) scale(0.18 -0.18)">
       <defs>
        <path id="DejaVuSans-33" d="M 2597 2516 
Q 3050 2419 3304 2112 
Q 3559 1806 3559 1356 
Q 3559 666 3084 287 
Q 2609 -91 1734 -91 
Q 1441 -91 1130 -33 
Q 819 25 488 141 
L 488 750 
Q 750 597 1062 519 
Q 1375 441 1716 441 
Q 2309 441 2620 675 
Q 2931 909 2931 1356 
Q 2931 1769 2642 2001 
Q 2353 2234 1838 2234 
L 1294 2234 
L 1294 2753 
L 1863 2753 
Q 2328 2753 2575 2939 
Q 2822 3125 2822 3475 
Q 2822 3834 2567 4026 
Q 2313 4219 1838 4219 
Q 1578 4219 1281 4162 
Q 984 4106 628 3988 
L 628 4550 
Q 988 4650 1302 4700 
Q 1616 4750 1894 4750 
Q 2613 4750 3031 4423 
Q 3450 4097 3450 3541 
Q 3450 3153 3228 2886 
Q 3006 2619 2597 2516 
z
" transform="scale(0.015625)"/>
        <path id="DejaVuSans-30" d="M 2034 4250 
Q 1547 4250 1301 3770 
Q 1056 3291 1056 2328 
Q 1056 1369 1301 889 
Q 1547 409 2034 409 
Q 2525 409 2770 889 
Q 3016 1369 3016 2328 
Q 3016 3291 2770 3770 
Q 2525 4250 2034 4250 
z
M 2034 4750 
Q 2819 4750 3233 4129 
Q 3647 3509 3647 2328 
Q 3647 1150 3233 529 
Q 2819 -91 2034 -91 
Q 1250 -91 836 529 
Q 422 1150 422 2328 
Q 422 3509 836 4129 
Q 1250 4750 2034 4750 
z
" transform="scale(0.015625)"/>
       </defs>
       <use xlink:href="#DejaVuSans-33"/>
       <use xlink:href="#DejaVuSans-30" x="63.623047"/>
       <use xlink:href="#DejaVuSans-30" x="127.246094"/>
      </g>
     </g>
    </g>
    <g id="xtick_2">
     <g id="line2d_2">
      <g>
       <use xlink:href="#m1527d62082" x="100.469667" y="177.478594" style="stroke: #000000"/>
      </g>
     </g>
     <g id="text_2">
      <!-- 330 -->
      <g transform="translate(105.436542 220.336094) rotate(-90) scale(0.18 -0.18)">
       <use xlink:href="#DejaVuSans-33"/>
       <use xlink:href="#DejaVuSans-33" x="63.623047"/>
       <use xlink:href="#DejaVuSans-30" x="127.246094"/>
      </g>
     </g>
    </g>
    <g id="xtick_3">
     <g id="line2d_3">
      <g>
       <use xlink:href="#m1527d62082" x="125.02732" y="177.478594" style="stroke: #000000"/>
      </g>
     </g>
     <g id="text_3">
      <!-- 360 -->
      <g transform="translate(129.994195 220.336094) rotate(-90) scale(0.18 -0.18)">
       <defs>
        <path id="DejaVuSans-36" d="M 2113 2584 
Q 1688 2584 1439 2293 
Q 1191 2003 1191 1497 
Q 1191 994 1439 701 
Q 1688 409 2113 409 
Q 2538 409 2786 701 
Q 3034 994 3034 1497 
Q 3034 2003 2786 2293 
Q 2538 2584 2113 2584 
z
M 3366 4563 
L 3366 3988 
Q 3128 4100 2886 4159 
Q 2644 4219 2406 4219 
Q 1781 4219 1451 3797 
Q 1122 3375 1075 2522 
Q 1259 2794 1537 2939 
Q 1816 3084 2150 3084 
Q 2853 3084 3261 2657 
Q 3669 2231 3669 1497 
Q 3669 778 3244 343 
Q 2819 -91 2113 -91 
Q 1303 -91 875 529 
Q 447 1150 447 2328 
Q 447 3434 972 4092 
Q 1497 4750 2381 4750 
Q 2619 4750 2861 4703 
Q 3103 4656 3366 4563 
z
" transform="scale(0.015625)"/>
       </defs>
       <use xlink:href="#DejaVuSans-33"/>
       <use xlink:href="#DejaVuSans-36" x="63.623047"/>
       <use xlink:href="#DejaVuSans-30" x="127.246094"/>
      </g>
     </g>
    </g>
    <g id="xtick_4">
     <g id="line2d_4">
      <g>
       <use xlink:href="#m1527d62082" x="149.584972" y="177.478594" style="stroke: #000000"/>
      </g>
     </g>
     <g id="text_4">
      <!-- 390 -->
      <g transform="translate(154.551847 220.336094) rotate(-90) scale(0.18 -0.18)">
       <defs>
        <path id="DejaVuSans-39" d="M 703 97 
L 703 672 
Q 941 559 1184 500 
Q 1428 441 1663 441 
Q 2288 441 2617 861 
Q 2947 1281 2994 2138 
Q 2813 1869 2534 1725 
Q 2256 1581 1919 1581 
Q 1219 1581 811 2004 
Q 403 2428 403 3163 
Q 403 3881 828 4315 
Q 1253 4750 1959 4750 
Q 2769 4750 3195 4129 
Q 3622 3509 3622 2328 
Q 3622 1225 3098 567 
Q 2575 -91 1691 -91 
Q 1453 -91 1209 -44 
Q 966 3 703 97 
z
M 1959 2075 
Q 2384 2075 2632 2365 
Q 2881 2656 2881 3163 
Q 2881 3666 2632 3958 
Q 2384 4250 1959 4250 
Q 1534 4250 1286 3958 
Q 1038 3666 1038 3163 
Q 1038 2656 1286 2365 
Q 1534 2075 1959 2075 
z
" transform="scale(0.015625)"/>
       </defs>
       <use xlink:href="#DejaVuSans-33"/>
       <use xlink:href="#DejaVuSans-39" x="63.623047"/>
       <use xlink:href="#DejaVuSans-30" x="127.246094"/>
      </g>
     </g>
    </g>
   </g>
   <g id="matplotlib.axis_2">
    <g id="ytick_1">
     <g id="line2d_5">
      <defs>
       <path id="m0a48b6aa59" d="M 0 0 
L -5 0 
" style="stroke: #000000"/>
      </defs>
      <g>
       <use xlink:href="#m0a48b6aa59" x="72.899609" y="169.764308" style="stroke: #000000"/>
      </g>
     </g>
     <g id="text_5">
      <!-- 0.0 -->
      <g transform="translate(35.773984 176.602902) scale(0.18 -0.18)">
       <defs>
        <path id="DejaVuSans-2e" d="M 684 794 
L 1344 794 
L 1344 0 
L 684 0 
L 684 794 
z
" transform="scale(0.015625)"/>
       </defs>
       <use xlink:href="#DejaVuSans-30"/>
       <use xlink:href="#DejaVuSans-2e" x="63.623047"/>
       <use xlink:href="#DejaVuSans-30" x="95.410156"/>
      </g>
     </g>
    </g>
    <g id="ytick_2">
     <g id="line2d_6">
      <g>
       <use xlink:href="#m0a48b6aa59" x="72.899609" y="126.782997" style="stroke: #000000"/>
      </g>
     </g>
     <g id="text_6">
      <!-- 0.3 -->
      <g transform="translate(35.773984 133.621591) scale(0.18 -0.18)">
       <use xlink:href="#DejaVuSans-30"/>
       <use xlink:href="#DejaVuSans-2e" x="63.623047"/>
       <use xlink:href="#DejaVuSans-33" x="95.410156"/>
      </g>
     </g>
    </g>
    <g id="ytick_3">
     <g id="line2d_7">
      <g>
       <use xlink:href="#m0a48b6aa59" x="72.899609" y="83.801686" style="stroke: #000000"/>
      </g>
     </g>
     <g id="text_7">
      <!-- 0.6 -->
      <g transform="translate(35.773984 90.64028) scale(0.18 -0.18)">
       <use xlink:href="#DejaVuSans-30"/>
       <use xlink:href="#DejaVuSans-2e" x="63.623047"/>
       <use xlink:href="#DejaVuSans-36" x="95.410156"/>
      </g>
     </g>
    </g>
    <g id="ytick_4">
     <g id="line2d_8">
      <g>
       <use xlink:href="#m0a48b6aa59" x="72.899609" y="40.820375" style="stroke: #000000"/>
      </g>
     </g>
     <g id="text_8">
      <!-- 0.9 -->
      <g transform="translate(35.773984 47.658969) scale(0.18 -0.18)">
       <use xlink:href="#DejaVuSans-30"/>
       <use xlink:href="#DejaVuSans-2e" x="63.623047"/>
       <use xlink:href="#DejaVuSans-39" x="95.410156"/>
      </g>
     </g>
    </g>
   </g>
   <g id="line2d_9">
    <path d="M 74.684132 169.464728 
L 76.321309 169.532352 
L 76.321309 169.764308 
L 77.139897 169.764308 
L 77.139897 169.374611 
L 77.958486 169.374611 
L 77.958486 169.764286 
L 79.595663 169.764035 
L 79.595663 169.561006 
L 81.232839 169.485216 
L 81.232839 167.913246 
L 82.051428 167.913246 
L 82.051428 169.764308 
L 82.870016 169.764308 
L 82.870016 169.538083 
L 83.688605 169.538083 
L 83.688605 169.764278 
L 84.507193 169.764278 
L 84.507193 169.183201 
L 85.325782 169.183201 
L 85.325782 169.764071 
L 92.693077 169.762901 
L 92.693077 169.546823 
L 93.511666 169.546823 
L 93.511666 169.764308 
L 95.967431 169.762721 
L 95.967431 169.46788 
L 96.786019 169.46788 
L 96.786019 169.763327 
L 102.516138 169.764308 
L 102.516138 129.677072 
L 103.334727 129.677072 
L 103.334727 169.764308 
L 104.153315 169.764308 
L 104.153315 113.902931 
L 104.971904 113.902931 
L 104.971904 169.190651 
L 105.790492 169.190651 
L 105.790492 169.764308 
L 112.339199 169.764211 
L 112.339199 169.572182 
L 113.157788 169.572182 
L 113.157788 169.742989 
L 114.794965 169.762232 
L 114.794965 169.614447 
L 115.613553 169.614447 
L 115.613553 169.752407 
L 117.25073 169.69528 
L 117.25073 167.800062 
L 118.069318 167.800062 
L 118.069318 169.692128 
L 124.618026 169.764206 
L 124.618026 169.450401 
L 125.436614 169.450401 
L 125.436614 169.616452 
L 127.073791 169.510862 
L 127.073791 169.764225 
L 132.80391 169.753248 
L 132.80391 113.573407 
L 133.622498 113.573407 
L 133.622498 169.764308 
L 142.626971 169.755518 
L 142.626971 169.560004 
L 143.445559 169.560004 
L 143.445559 169.763532 
L 149.994267 169.764154 
L 149.994267 169.090504 
L 150.812855 169.090504 
L 150.812855 169.762491 
L 152.450032 169.764087 
L 152.450032 41.192879 
L 153.26862 41.192879 
L 153.26862 169.690953 
L 155.724385 169.764263 
L 155.724385 169.396101 
L 156.542974 169.396101 
L 156.542974 169.673016 
L 157.361562 169.673016 
L 157.361562 166.861637 
L 158.180151 166.861637 
L 158.180151 169.540662 
L 158.998739 169.540662 
L 158.998739 169.764111 
L 160.635916 169.764265 
L 160.635916 169.538943 
L 161.454504 169.538943 
L 161.454504 169.709077 
L 162.273093 169.709077 
L 162.273093 167.47627 
L 163.091681 167.47627 
L 163.091681 169.507566 
L 163.91027 169.507566 
L 163.91027 169.507566 
" clip-path="url(#pa2160c50c6)" style="fill: none; stroke: #000000; stroke-linecap: square"/>
   </g>
   <g id="patch_7">
    <path d="M 72.899609 177.478594 
L 72.899609 33.478594 
" style="fill: none; stroke: #000000; stroke-width: 0.8; stroke-linejoin: miter; stroke-linecap: square"/>
   </g>
   <g id="patch_8">
    <path d="M 72.899609 177.478594 
L 165.694792 177.478594 
" style="fill: none; stroke: #000000; stroke-width: 0.8; stroke-linejoin: miter; stroke-linecap: square"/>
   </g>
   <g id="text_9">
    <!-- Z3022 -->
    <g transform="translate(78.114701 27.478594) scale(0.255 -0.255)">
     <defs>
      <path id="DejaVuSans-5a" d="M 359 4666 
L 4025 4666 
L 4025 4184 
L 1075 531 
L 4097 531 
L 4097 0 
L 288 0 
L 288 481 
L 3238 4134 
L 359 4134 
L 359 4666 
z
" transform="scale(0.015625)"/>
      <path id="DejaVuSans-32" d="M 1228 531 
L 3431 531 
L 3431 0 
L 469 0 
L 469 531 
Q 828 903 1448 1529 
Q 2069 2156 2228 2338 
Q 2531 2678 2651 2914 
Q 2772 3150 2772 3378 
Q 2772 3750 2511 3984 
Q 2250 4219 1831 4219 
Q 1534 4219 1204 4116 
Q 875 4013 500 3803 
L 500 4441 
Q 881 4594 1212 4672 
Q 1544 4750 1819 4750 
Q 2544 4750 2975 4387 
Q 3406 4025 3406 3419 
Q 3406 3131 3298 2873 
Q 3191 2616 2906 2266 
Q 2828 2175 2409 1742 
Q 1991 1309 1228 531 
z
" transform="scale(0.015625)"/>
     </defs>
     <use xlink:href="#DejaVuSans-5a"/>
     <use xlink:href="#DejaVuSans-33" x="68.505859"/>
     <use xlink:href="#DejaVuSans-30" x="132.128906"/>
     <use xlink:href="#DejaVuSans-32" x="195.751953"/>
     <use xlink:href="#DejaVuSans-32" x="259.375"/>
    </g>
   </g>
  </g>
  <g id="axes_2">
   <g id="patch_9">
    <path d="M 214.430057 177.478594 
L 337.814429 177.478594 
L 337.814429 33.478594 
L 214.430057 33.478594 
L 214.430057 177.478594 
z
" style="fill: none"/>
   </g>
   <g id="matplotlib.axis_3">
    <g id="xtick_5">
     <g id="line2d_10">
      <g>
       <use xlink:href="#m1527d62082" x="226.101552" y="177.478594" style="stroke: #000000"/>
      </g>
     </g>
     <g id="text_10">
      <!-- A333 -->
      <g transform="translate(231.068427 232.649219) rotate(-90) scale(0.18 -0.18)">
       <defs>
        <path id="DejaVuSans-41" d="M 2188 4044 
L 1331 1722 
L 3047 1722 
L 2188 4044 
z
M 1831 4666 
L 2547 4666 
L 4325 0 
L 3669 0 
L 3244 1197 
L 1141 1197 
L 716 0 
L 50 0 
L 1831 4666 
z
" transform="scale(0.015625)"/>
       </defs>
       <use xlink:href="#DejaVuSans-41"/>
       <use xlink:href="#DejaVuSans-33" x="68.408203"/>
       <use xlink:href="#DejaVuSans-33" x="132.03125"/>
       <use xlink:href="#DejaVuSans-33" x="195.654297"/>
      </g>
     </g>
    </g>
    <g id="xtick_6">
     <g id="line2d_11">
      <g>
       <use xlink:href="#m1527d62082" x="259.448679" y="177.478594" style="stroke: #000000"/>
      </g>
     </g>
     <g id="text_11">
      <!-- T335 -->
      <g transform="translate(264.415554 231.330156) rotate(-90) scale(0.18 -0.18)">
       <defs>
        <path id="DejaVuSans-54" d="M -19 4666 
L 3928 4666 
L 3928 4134 
L 2272 4134 
L 2272 0 
L 1638 0 
L 1638 4134 
L -19 4134 
L -19 4666 
z
" transform="scale(0.015625)"/>
        <path id="DejaVuSans-35" d="M 691 4666 
L 3169 4666 
L 3169 4134 
L 1269 4134 
L 1269 2991 
Q 1406 3038 1543 3061 
Q 1681 3084 1819 3084 
Q 2600 3084 3056 2656 
Q 3513 2228 3513 1497 
Q 3513 744 3044 326 
Q 2575 -91 1722 -91 
Q 1428 -91 1123 -41 
Q 819 9 494 109 
L 494 744 
Q 775 591 1075 516 
Q 1375 441 1709 441 
Q 2250 441 2565 725 
Q 2881 1009 2881 1497 
Q 2881 1984 2565 2268 
Q 2250 2553 1709 2553 
Q 1456 2553 1204 2497 
Q 953 2441 691 2322 
L 691 4666 
z
" transform="scale(0.015625)"/>
       </defs>
       <use xlink:href="#DejaVuSans-54"/>
       <use xlink:href="#DejaVuSans-33" x="61.083984"/>
       <use xlink:href="#DejaVuSans-33" x="124.707031"/>
       <use xlink:href="#DejaVuSans-35" x="188.330078"/>
      </g>
     </g>
    </g>
    <g id="xtick_7">
     <g id="line2d_12">
      <g>
       <use xlink:href="#m1527d62082" x="292.795807" y="177.478594" style="stroke: #000000"/>
      </g>
     </g>
     <g id="text_12">
      <!-- E370 -->
      <g transform="translate(297.762682 231.709844) rotate(-90) scale(0.18 -0.18)">
       <defs>
        <path id="DejaVuSans-45" d="M 628 4666 
L 3578 4666 
L 3578 4134 
L 1259 4134 
L 1259 2753 
L 3481 2753 
L 3481 2222 
L 1259 2222 
L 1259 531 
L 3634 531 
L 3634 0 
L 628 0 
L 628 4666 
z
" transform="scale(0.015625)"/>
        <path id="DejaVuSans-37" d="M 525 4666 
L 3525 4666 
L 3525 4397 
L 1831 0 
L 1172 0 
L 2766 4134 
L 525 4134 
L 525 4666 
z
" transform="scale(0.015625)"/>
       </defs>
       <use xlink:href="#DejaVuSans-45"/>
       <use xlink:href="#DejaVuSans-33" x="63.183594"/>
       <use xlink:href="#DejaVuSans-37" x="126.806641"/>
       <use xlink:href="#DejaVuSans-30" x="190.429688"/>
      </g>
     </g>
    </g>
    <g id="xtick_8">
     <g id="line2d_13">
      <g>
       <use xlink:href="#m1527d62082" x="326.142935" y="177.478594" style="stroke: #000000"/>
      </g>
     </g>
     <g id="text_13">
      <!-- K394 -->
      <g transform="translate(331.10981 232.140156) rotate(-90) scale(0.18 -0.18)">
       <defs>
        <path id="DejaVuSans-4b" d="M 628 4666 
L 1259 4666 
L 1259 2694 
L 3353 4666 
L 4166 4666 
L 1850 2491 
L 4331 0 
L 3500 0 
L 1259 2247 
L 1259 0 
L 628 0 
L 628 4666 
z
" transform="scale(0.015625)"/>
        <path id="DejaVuSans-34" d="M 2419 4116 
L 825 1625 
L 2419 1625 
L 2419 4116 
z
M 2253 4666 
L 3047 4666 
L 3047 1625 
L 3713 1625 
L 3713 1100 
L 3047 1100 
L 3047 0 
L 2419 0 
L 2419 1100 
L 313 1100 
L 313 1709 
L 2253 4666 
z
" transform="scale(0.015625)"/>
       </defs>
       <use xlink:href="#DejaVuSans-4b"/>
       <use xlink:href="#DejaVuSans-33" x="65.576172"/>
       <use xlink:href="#DejaVuSans-39" x="129.199219"/>
       <use xlink:href="#DejaVuSans-34" x="192.822266"/>
      </g>
     </g>
    </g>
   </g>
   <g id="matplotlib.axis_4">
    <g id="ytick_5">
     <g id="line2d_14">
      <g>
       <use xlink:href="#m0a48b6aa59" x="214.430057" y="169.764308" style="stroke: #000000"/>
      </g>
     </g>
     <g id="text_14">
      <!-- 0.0 -->
      <g transform="translate(177.304432 176.602902) scale(0.18 -0.18)">
       <use xlink:href="#DejaVuSans-30"/>
       <use xlink:href="#DejaVuSans-2e" x="63.623047"/>
       <use xlink:href="#DejaVuSans-30" x="95.410156"/>
      </g>
     </g>
    </g>
    <g id="ytick_6">
     <g id="line2d_15">
      <g>
       <use xlink:href="#m0a48b6aa59" x="214.430057" y="126.782997" style="stroke: #000000"/>
      </g>
     </g>
     <g id="text_15">
      <!-- 0.3 -->
      <g transform="translate(177.304432 133.621591) scale(0.18 -0.18)">
       <use xlink:href="#DejaVuSans-30"/>
       <use xlink:href="#DejaVuSans-2e" x="63.623047"/>
       <use xlink:href="#DejaVuSans-33" x="95.410156"/>
      </g>
     </g>
    </g>
    <g id="ytick_7">
     <g id="line2d_16">
      <g>
       <use xlink:href="#m0a48b6aa59" x="214.430057" y="83.801686" style="stroke: #000000"/>
      </g>
     </g>
     <g id="text_16">
      <!-- 0.6 -->
      <g transform="translate(177.304432 90.64028) scale(0.18 -0.18)">
       <use xlink:href="#DejaVuSans-30"/>
       <use xlink:href="#DejaVuSans-2e" x="63.623047"/>
       <use xlink:href="#DejaVuSans-36" x="95.410156"/>
      </g>
     </g>
    </g>
    <g id="ytick_8">
     <g id="line2d_17">
      <g>
       <use xlink:href="#m0a48b6aa59" x="214.430057" y="40.820375" style="stroke: #000000"/>
      </g>
     </g>
     <g id="text_17">
      <!-- 0.9 -->
      <g transform="translate(177.304432 47.658969) scale(0.18 -0.18)">
       <use xlink:href="#DejaVuSans-30"/>
       <use xlink:href="#DejaVuSans-2e" x="63.623047"/>
       <use xlink:href="#DejaVuSans-39" x="95.410156"/>
      </g>
     </g>
    </g>
   </g>
   <g id="line2d_18">
    <path d="M 242.775116 177.478594 
L 242.775116 33.478594 
" clip-path="url(#p7114263bf5)" style="fill: none; stroke-dasharray: 2,5; stroke-dashoffset: 0; stroke: #000000"/>
   </g>
   <g id="line2d_19">
    <path d="M 276.122243 177.478594 
L 276.122243 33.478594 
" clip-path="url(#p7114263bf5)" style="fill: none; stroke-dasharray: 2,5; stroke-dashoffset: 0; stroke: #000000"/>
   </g>
   <g id="line2d_20">
    <path d="M 309.469371 177.478594 
L 309.469371 33.478594 
" clip-path="url(#p7114263bf5)" style="fill: none; stroke-dasharray: 2,5; stroke-dashoffset: 0; stroke: #000000"/>
   </g>
   <g id="patch_10">
    <path d="M 214.430057 177.478594 
L 214.430057 33.478594 
" style="fill: none; stroke: #000000; stroke-width: 0.8; stroke-linejoin: miter; stroke-linecap: square"/>
   </g>
   <g id="patch_11">
    <path d="M 214.430057 177.478594 
L 337.814429 177.478594 
" style="fill: none; stroke: #000000; stroke-width: 0.8; stroke-linejoin: miter; stroke-linecap: square"/>
   </g>
   <g id="text_18">
    <g id="patch_12">
     <path d="M 217.76477 184.738058 
L 261.11102 184.738058 
L 261.11102 115.055558 
L 217.76477 115.055558 
L 217.76477 184.738058 
z
" style="fill: none"/>
    </g>
    <path d="M 232.938072 169.764308 
Q 231.954368 169.764308 230.871844 169.764308 
Q 229.793812 169.764308 228.603485 169.764308 
Q 224.363225 169.764308 222.1308 169.764308 
Q 219.898375 169.764308 219.898375 169.764308 
Q 219.898375 169.764308 222.1308 169.764308 
Q 224.363225 169.764308 228.603485 169.764308 
Q 229.793812 169.764308 230.889811 169.764308 
Q 231.985811 169.764308 232.938072 169.764308 
L 232.938072 169.764308 
Q 231.873516 169.764308 230.867352 169.764308 
Q 229.865681 169.764308 228.796632 169.764308 
Q 226.523781 169.764308 225.364897 169.764308 
Q 224.206012 169.764308 224.206012 169.764308 
Q 224.206012 169.764308 225.364897 169.764308 
Q 226.523781 169.764308 228.796632 169.764308 
Q 229.865681 169.764308 230.867352 169.764308 
Q 231.873516 169.764308 232.938072 169.764308 
L 232.938072 169.764308 
z
" style="fill: #e69f00"/>
   </g>
   <g id="text_19">
    <g id="patch_13">
     <path d="M 217.76477 184.738058 
L 261.11102 184.738058 
L 261.11102 115.055558 
L 217.76477 115.055558 
L 217.76477 184.738058 
z
" style="fill: none"/>
    </g>
    <path d="M 219.408769 169.764308 
L 223.550209 169.764308 
L 223.550209 169.764308 
L 230.031877 169.764308 
L 234.721317 169.764308 
L 228.109387 169.764308 
L 234.959383 169.764308 
L 230.355287 169.764308 
L 225.387356 169.764308 
L 223.550209 169.764308 
L 223.550209 169.764308 
L 219.408769 169.764308 
L 219.408769 169.764308 
z
" style="fill: #e69f00"/>
   </g>
   <g id="text_20">
    <g id="patch_14">
     <path d="M 217.76477 184.738058 
L 261.11102 184.738058 
L 261.11102 115.055558 
L 217.76477 115.055558 
L 217.76477 184.738058 
z
" style="fill: none"/>
    </g>
    <path d="M 220.922506 169.764308 
L 220.922506 169.764308 
L 225.063946 169.764308 
L 225.063946 169.764308 
L 233.921777 169.764308 
L 233.921777 169.764308 
L 220.922506 169.764308 
z
" style="fill: #e69f00"/>
   </g>
   <g id="text_21">
    <g id="patch_15">
     <path d="M 217.76477 184.738058 
L 261.11102 184.738058 
L 261.11102 115.055558 
L 217.76477 115.055558 
L 217.76477 184.738058 
z
" style="fill: none"/>
    </g>
    <path d="M 219.43572 169.764308 
L 223.887094 169.764308 
L 229.726435 169.764308 
L 229.726435 169.764308 
L 233.373777 169.764308 
L 233.373777 169.764308 
L 228.953845 169.764308 
L 223.083062 169.764308 
L 223.083062 169.764308 
L 219.43572 169.764308 
L 219.43572 169.764308 
z
" style="fill: #e69f00"/>
   </g>
   <g id="text_22">
    <g id="patch_16">
     <path d="M 217.76477 184.738058 
L 261.11102 184.738058 
L 261.11102 115.055558 
L 217.76477 115.055558 
L 217.76477 184.738058 
z
" style="fill: none"/>
    </g>
    <path d="M 224.179061 169.764308 
L 224.179061 169.764308 
L 225.876962 169.764308 
Q 227.911747 169.764308 228.733747 169.764308 
Q 229.555747 169.764308 229.555747 169.764308 
Q 229.555747 169.764308 228.733747 169.764308 
Q 227.911747 169.764308 225.876962 169.764308 
L 224.179061 169.764308 
z
M 220.037621 169.764308 
L 225.724241 169.764308 
Q 230.06332 169.764308 231.963352 169.764308 
Q 233.863383 169.764308 233.863383 169.764308 
Q 233.863383 169.764308 231.963352 169.764308 
Q 230.06332 169.764308 225.724241 169.764308 
L 224.179061 169.764308 
L 224.179061 169.764308 
L 220.037621 169.764308 
L 220.037621 169.764308 
z
" style="fill: #e69f00"/>
   </g>
   <g id="text_23">
    <g id="patch_17">
     <path d="M 217.76477 184.738058 
L 261.11102 184.738058 
L 261.11102 115.055558 
L 217.76477 115.055558 
L 217.76477 184.738058 
z
" style="fill: none"/>
    </g>
    <path d="M 233.319875 169.764308 
L 228.684337 169.764308 
L 233.319875 169.764308 
L 232.250827 169.764308 
L 227.59283 169.764308 
L 227.59283 169.764308 
L 225.176241 169.764308 
L 225.176241 169.764308 
L 220.531719 169.764308 
L 219.462671 169.764308 
L 224.12516 169.764308 
L 219.462671 169.764308 
L 220.531719 169.764308 
L 225.176241 169.764308 
L 225.176241 169.764308 
L 227.59283 169.764308 
L 227.59283 169.764308 
L 232.250827 169.764308 
L 233.319875 169.764308 
z
" style="fill: #e69f00"/>
   </g>
   <g id="text_24">
    <g id="patch_18">
     <path d="M 217.76477 184.738058 
L 261.11102 184.738058 
L 261.11102 115.055558 
L 217.76477 115.055558 
L 217.76477 184.738058 
z
" style="fill: none"/>
    </g>
    <path d="M 226.411486 169.764308 
L 230.103746 169.764308 
L 234.272137 169.764308 
L 229.29073 169.764308 
L 223.550209 169.764308 
L 218.56431 169.764308 
L 222.732701 169.764308 
L 226.411486 169.764308 
z
" style="fill: #e69f00"/>
   </g>
   <g id="text_25">
    <g id="patch_19">
     <path d="M 217.76477 184.738058 
L 261.11102 184.738058 
L 261.11102 115.055558 
L 217.76477 115.055558 
L 217.76477 184.738058 
z
" style="fill: none"/>
    </g>
    <path d="M 218.254376 169.764308 
L 221.668145 169.764308 
L 223.083062 169.764308 
L 224.79893 169.764308 
L 228.04201 169.764308 
L 230.018402 169.764308 
L 231.141352 169.764308 
L 234.582071 169.764308 
L 232.30922 169.764308 
L 228.657386 169.764308 
L 226.411486 169.764308 
L 224.304832 169.764308 
L 220.697916 169.764308 
L 218.254376 169.764308 
z
" style="fill: #e69f00"/>
   </g>
   <g id="text_26">
    <g id="patch_20">
     <path d="M 217.76477 184.738058 
L 261.11102 184.738058 
L 261.11102 115.055558 
L 217.76477 115.055558 
L 217.76477 184.738058 
z
" style="fill: none"/>
    </g>
    <path d="M 219.687261 169.764308 
L 223.828701 169.764308 
L 223.828701 169.764308 
L 229.007747 169.764308 
L 229.007747 169.764308 
L 233.149187 169.764308 
L 233.149187 169.764308 
L 229.007747 169.764308 
L 229.007747 169.764308 
L 223.828701 169.764308 
L 223.828701 169.764308 
L 219.687261 169.764308 
L 219.687261 169.764308 
z
" style="fill: #e69f00"/>
   </g>
   <g id="text_27">
    <g id="patch_21">
     <path d="M 217.76477 184.738058 
L 261.11102 184.738058 
L 261.11102 115.055558 
L 217.76477 115.055558 
L 217.76477 184.738058 
z
" style="fill: none"/>
    </g>
    <path d="M 226.972961 169.764308 
Q 226.775322 169.764308 226.640568 169.764308 
Q 226.510306 169.764308 226.384535 169.764308 
Q 222.777619 169.764308 220.918014 169.764308 
Q 219.058409 169.764308 219.058409 169.764308 
Q 219.058409 169.764308 220.918014 169.764308 
Q 222.777619 169.764308 226.411486 169.764308 
Q 230.06332 169.764308 231.922925 169.764308 
Q 233.782531 169.764308 233.782531 169.764308 
Q 233.782531 169.764308 232.897646 169.764308 
Q 232.012761 169.764308 230.328336 169.764308 
L 232.938072 169.764308 
L 230.103746 169.764308 
L 226.972961 169.764308 
z
M 226.411486 169.764308 
Q 224.82588 169.764308 224.093717 169.764308 
Q 223.366045 169.764308 223.366045 169.764308 
Q 223.366045 169.764308 224.093717 169.764308 
Q 224.82588 169.764308 226.411486 169.764308 
Q 228.010567 169.764308 228.738239 169.764308 
Q 229.470402 169.764308 229.470402 169.764308 
Q 229.470402 169.764308 228.738239 169.764308 
Q 228.010567 169.764308 226.411486 169.764308 
z
" style="fill: #e69f00"/>
   </g>
   <g id="text_28">
    <g id="patch_22">
     <path d="M 217.76477 184.738058 
L 261.11102 184.738058 
L 261.11102 115.055558 
L 217.76477 115.055558 
L 217.76477 184.738058 
z
" style="fill: none"/>
    </g>
    <path d="M 233.176138 169.764308 
L 220.122965 169.764308 
L 220.122965 169.764308 
L 233.176138 169.764308 
L 233.176138 169.764308 
L 224.264405 169.764308 
L 224.264405 169.764308 
L 232.336171 169.764308 
L 232.336171 169.764308 
L 224.264405 169.764308 
L 224.264405 169.764308 
L 233.176138 169.764308 
L 233.176138 169.764308 
z
" style="fill: #e69f00"/>
   </g>
   <g id="text_29">
    <g id="patch_23">
     <path d="M 217.76477 184.738058 
L 261.11102 184.738058 
L 261.11102 115.055558 
L 217.76477 115.055558 
L 217.76477 184.738058 
z
" style="fill: none"/>
    </g>
    <path d="M 218.973064 169.764308 
L 223.914045 169.764308 
L 226.411486 169.764308 
L 228.895452 169.764308 
L 233.863383 169.764308 
L 233.863383 169.764308 
L 230.301385 169.764308 
L 230.301385 169.764308 
L 228.082436 169.764308 
L 224.785454 169.764308 
L 222.539554 169.764308 
L 222.539554 169.764308 
L 218.973064 169.764308 
L 218.973064 169.764308 
z
" style="fill: #e69f00"/>
   </g>
   <g id="text_30">
    <g id="patch_24">
     <path d="M 217.76477 184.738058 
L 261.11102 184.738058 
L 261.11102 115.055558 
L 217.76477 115.055558 
L 217.76477 184.738058 
z
" style="fill: none"/>
    </g>
    <path d="M 220.181359 169.764308 
L 220.181359 169.764308 
L 232.659581 169.764308 
L 232.659581 169.764308 
L 228.49119 169.764308 
L 228.49119 169.764308 
L 232.659581 169.764308 
L 232.659581 169.764308 
L 220.181359 169.764308 
L 220.181359 169.764308 
L 224.34975 169.764308 
L 224.34975 169.764308 
L 220.181359 169.764308 
z
" style="fill: #e69f00"/>
   </g>
   <g id="text_31">
    <g id="patch_25">
     <path d="M 217.76477 184.738058 
L 261.11102 184.738058 
L 261.11102 115.055558 
L 217.76477 115.055558 
L 217.76477 184.738058 
z
" style="fill: none"/>
    </g>
    <path d="M 233.373777 169.764308 
L 224.462045 169.764308 
L 224.462045 169.764308 
L 232.574237 169.764308 
L 232.574237 169.764308 
L 224.462045 169.764308 
L 224.462045 169.764308 
L 220.320604 169.764308 
L 220.320604 169.764308 
L 233.373777 169.764308 
L 233.373777 169.764308 
z
" style="fill: #e69f00"/>
   </g>
   <g id="text_32">
    <g id="patch_26">
     <path d="M 217.76477 184.738058 
L 261.11102 184.738058 
L 261.11102 115.055558 
L 217.76477 115.055558 
L 217.76477 184.738058 
z
" style="fill: none"/>
    </g>
    <path d="M 228.49119 169.764308 
L 224.34975 169.764308 
L 224.34975 169.764308 
L 219.026966 169.764308 
L 219.026966 169.764308 
L 233.809482 169.764308 
L 233.809482 169.764308 
L 228.49119 169.764308 
L 228.49119 169.764308 
z
" style="fill: #e69f00"/>
   </g>
   <g id="text_33">
    <g id="patch_27">
     <path d="M 217.76477 184.738058 
L 261.11102 184.738058 
L 261.11102 115.055558 
L 217.76477 115.055558 
L 217.76477 184.738058 
z
" style="fill: none"/>
    </g>
    <path d="M 217.877065 169.764308 
L 222.341915 169.764308 
L 226.411486 169.764308 
L 230.494533 169.764308 
L 234.959383 169.764308 
L 228.49119 169.764308 
L 228.49119 169.764308 
L 224.34975 169.764308 
L 224.34975 169.764308 
L 217.877065 169.764308 
z
" style="fill: #e69f00"/>
   </g>
   <g id="text_34">
    <g id="patch_28">
     <path d="M 217.76477 184.738058 
L 261.11102 184.738058 
L 261.11102 115.055558 
L 217.76477 115.055558 
L 217.76477 184.738058 
z
" style="fill: none"/>
    </g>
    <path d="M 226.411486 169.764308 
L 224.462045 169.764308 
L 228.378895 169.764308 
L 226.411486 169.764308 
z
M 223.887094 169.764308 
L 228.953845 169.764308 
L 234.609022 169.764308 
L 230.467582 169.764308 
L 229.178435 169.764308 
L 223.631062 169.764308 
L 222.368866 169.764308 
L 218.227425 169.764308 
L 223.887094 169.764308 
z
" style="fill: #e69f00"/>
   </g>
   <g id="text_35">
    <g id="patch_29">
     <path d="M 217.76477 184.738058 
L 261.11102 184.738058 
L 261.11102 115.055558 
L 217.76477 115.055558 
L 217.76477 184.738058 
z
" style="fill: none"/>
    </g>
    <path d="M 223.828701 169.764308 
L 223.828701 169.764308 
L 224.951651 169.764308 
Q 227.39519 169.764308 228.432796 169.764308 
Q 229.470402 169.764308 229.470402 169.764308 
Q 229.470402 169.764308 228.432796 169.764308 
Q 227.39519 169.764308 224.951651 169.764308 
L 223.828701 169.764308 
z
M 219.687261 169.764308 
L 224.12516 169.764308 
Q 229.259288 169.764308 231.518663 169.764308 
Q 233.782531 169.764308 233.782531 169.764308 
Q 233.782531 169.764308 231.518663 169.764308 
Q 229.259288 169.764308 224.12516 169.764308 
L 219.687261 169.764308 
L 219.687261 169.764308 
z
" style="fill: #e69f00"/>
   </g>
   <g id="text_36">
    <g id="patch_30">
     <path d="M 217.76477 184.564757 
L 261.11102 184.564757 
L 261.11102 114.882257 
L 217.76477 114.882257 
L 217.76477 184.564757 
z
" style="fill: none"/>
    </g>
    <path d="M 230.004927 169.563392 
L 230.004927 169.53719 
L 227.1706 169.53719 
L 227.1706 169.514374 
L 233.625318 169.514374 
L 233.625318 169.577288 
Q 232.434991 169.584001 230.993123 169.587475 
Q 229.555747 169.590919 227.911747 169.590919 
Q 223.842176 169.590919 221.623227 169.572372 
Q 219.408769 169.553824 219.408769 169.519703 
Q 219.408769 169.485022 221.645686 169.46671 
Q 223.887094 169.448399 228.109387 169.448399 
Q 229.371583 169.448399 230.593352 169.450754 
Q 231.815122 169.453109 232.884171 169.457525 
L 232.884171 169.487584 
Q 232.012761 169.480223 230.880828 169.476514 
Q 229.753386 169.472775 228.405846 169.472775 
Q 226.04765 169.472775 224.879782 169.484433 
Q 223.716406 169.496062 223.716406 169.519703 
Q 223.716406 169.542608 224.839356 169.55459 
Q 225.962306 169.566542 228.109387 169.566542 
Q 228.756206 169.566542 229.232337 169.565777 
Q 229.708468 169.564982 230.004927 169.563392 
z
" style="fill: #e69f00"/>
   </g>
   <g id="text_37">
    <g id="patch_31">
     <path d="M 217.76477 184.1513 
L 261.11102 184.1513 
L 261.11102 114.4688 
L 217.76477 114.4688 
L 217.76477 184.1513 
z
" style="fill: none"/>
    </g>
    <path d="M 224.9247 169.080458 
Q 221.793915 169.068445 220.68444 169.055259 
Q 219.574966 169.042072 219.574966 169.019763 
Q 219.574966 168.991132 221.398637 168.974785 
Q 223.226799 168.958392 226.411486 168.958392 
Q 227.857846 168.958392 229.304206 168.961734 
Q 230.750565 168.96503 232.165483 168.971488 
L 232.165483 169.012131 
Q 230.831418 169.002693 229.456927 168.997771 
Q 228.082436 168.992803 226.734896 168.992803 
Q 225.234634 168.992803 224.430602 168.9989 
Q 223.631062 169.004951 223.631062 169.016241 
Q 223.631062 169.025002 224.214996 169.030737 
Q 224.79893 169.036427 226.649552 169.043337 
L 228.432796 169.05011 
Q 230.96168 169.059413 232.152007 169.074813 
Q 233.346826 169.090212 233.346826 169.113604 
Q 233.346826 169.145532 231.469254 169.161248 
Q 229.596173 169.176963 225.809585 169.176963 
Q 224.25093 169.176963 222.683292 169.17326 
Q 221.120145 169.169512 219.66031 169.162151 
L 219.66031 169.119114 
Q 221.317784 169.130991 222.867455 169.136771 
Q 224.417127 169.142552 225.935355 169.142552 
Q 227.462567 169.142552 228.302534 169.135597 
Q 229.146993 169.128597 229.146993 169.115998 
Q 229.146993 169.10656 228.585518 169.099424 
Q 228.024043 169.092289 226.959486 169.088225 
L 224.9247 169.080458 
z
" style="fill: #e69f00"/>
   </g>
   <g id="text_38">
    <g id="patch_32">
     <path d="M 217.76477 180.841455 
L 261.11102 180.841455 
L 261.11102 111.158955 
L 217.76477 111.158955 
L 217.76477 180.841455 
z
" style="fill: none"/>
    </g>
    <path d="M 229.093091 149.262936 
Q 229.708468 149.465081 230.166631 150.237564 
Q 230.624795 151.002827 231.280598 153.190325 
L 235.071678 165.80273 
L 230.525975 165.80273 
L 227.997092 156.958886 
Q 227.884797 156.569034 227.705125 155.919283 
Q 226.59565 151.948577 225.090897 151.948577 
L 223.774799 151.948577 
L 223.774799 165.80273 
L 219.633359 165.80273 
L 219.633359 130.759448 
L 225.611946 130.759448 
Q 229.654566 130.759448 231.415352 133.156311 
Q 233.176138 135.545953 233.176138 140.960552 
Q 233.176138 144.570284 232.125056 146.707246 
Q 231.073975 148.836988 229.093091 149.262936 
z
M 223.774799 136.585556 
L 223.774799 146.129689 
L 225.724241 146.129689 
Q 227.422141 146.129689 228.158797 145.025111 
Q 228.895452 143.913313 228.895452 141.343184 
Q 228.895452 138.794713 228.163288 137.690134 
Q 227.435617 136.585556 225.724241 136.585556 
L 223.774799 136.585556 
z
" style="fill: #e69f00"/>
   </g>
   <g id="text_39">
    <g id="patch_33">
     <path d="M 251.111898 184.738058 
L 294.458148 184.738058 
L 294.458148 115.055558 
L 251.111898 115.055558 
L 251.111898 184.738058 
z
" style="fill: none"/>
    </g>
    <path d="M 266.2852 169.764308 
Q 265.301496 169.764308 264.218972 169.764308 
Q 263.14094 169.764308 261.950612 169.764308 
Q 257.710353 169.764308 255.477928 169.764308 
Q 253.245503 169.764308 253.245503 169.764308 
Q 253.245503 169.764308 255.477928 169.764308 
Q 257.710353 169.764308 261.950612 169.764308 
Q 263.14094 169.764308 264.236939 169.764308 
Q 265.332938 169.764308 266.2852 169.764308 
L 266.2852 169.764308 
Q 265.220643 169.764308 264.21448 169.764308 
Q 263.212808 169.764308 262.14376 169.764308 
Q 259.870909 169.764308 258.712024 169.764308 
Q 257.55314 169.764308 257.55314 169.764308 
Q 257.55314 169.764308 258.712024 169.764308 
Q 259.870909 169.764308 262.14376 169.764308 
Q 263.212808 169.764308 264.21448 169.764308 
Q 265.220643 169.764308 266.2852 169.764308 
L 266.2852 169.764308 
z
" style="fill: #e69f00"/>
   </g>
   <g id="text_40">
    <g id="patch_34">
     <path d="M 251.111898 184.738058 
L 294.458148 184.738058 
L 294.458148 115.055558 
L 251.111898 115.055558 
L 251.111898 184.738058 
z
" style="fill: none"/>
    </g>
    <path d="M 252.755897 169.764308 
L 256.897337 169.764308 
L 256.897337 169.764308 
L 263.379005 169.764308 
L 268.068445 169.764308 
L 261.456514 169.764308 
L 268.30651 169.764308 
L 263.702415 169.764308 
L 258.734483 169.764308 
L 256.897337 169.764308 
L 256.897337 169.764308 
L 252.755897 169.764308 
L 252.755897 169.764308 
z
" style="fill: #e69f00"/>
   </g>
   <g id="text_41">
    <g id="patch_35">
     <path d="M 251.111898 184.738058 
L 294.458148 184.738058 
L 294.458148 115.055558 
L 251.111898 115.055558 
L 251.111898 184.738058 
z
" style="fill: none"/>
    </g>
    <path d="M 252.782847 169.764308 
L 257.234222 169.764308 
L 263.073563 169.764308 
L 263.073563 169.764308 
L 266.720905 169.764308 
L 266.720905 169.764308 
L 262.300973 169.764308 
L 256.430189 169.764308 
L 256.430189 169.764308 
L 252.782847 169.764308 
L 252.782847 169.764308 
z
" style="fill: #e69f00"/>
   </g>
   <g id="text_42">
    <g id="patch_36">
     <path d="M 251.111898 184.738058 
L 294.458148 184.738058 
L 294.458148 115.055558 
L 251.111898 115.055558 
L 251.111898 184.738058 
z
" style="fill: none"/>
    </g>
    <path d="M 257.526189 169.764308 
L 257.526189 169.764308 
L 259.224089 169.764308 
Q 261.258875 169.764308 262.080875 169.764308 
Q 262.902874 169.764308 262.902874 169.764308 
Q 262.902874 169.764308 262.080875 169.764308 
Q 261.258875 169.764308 259.224089 169.764308 
L 257.526189 169.764308 
z
M 253.384749 169.764308 
L 259.071368 169.764308 
Q 263.410448 169.764308 265.310479 169.764308 
Q 267.210511 169.764308 267.210511 169.764308 
Q 267.210511 169.764308 265.310479 169.764308 
Q 263.410448 169.764308 259.071368 169.764308 
L 257.526189 169.764308 
L 257.526189 169.764308 
L 253.384749 169.764308 
L 253.384749 169.764308 
z
" style="fill: #e69f00"/>
   </g>
   <g id="text_43">
    <g id="patch_37">
     <path d="M 251.111898 184.738058 
L 294.458148 184.738058 
L 294.458148 115.055558 
L 251.111898 115.055558 
L 251.111898 184.738058 
z
" style="fill: none"/>
    </g>
    <path d="M 258.271828 169.764308 
Q 255.141043 169.764308 254.031568 169.764308 
Q 252.922093 169.764308 252.922093 169.764308 
Q 252.922093 169.764308 254.745764 169.764308 
Q 256.573927 169.764308 259.758614 169.764308 
Q 261.204974 169.764308 262.651333 169.764308 
Q 264.097693 169.764308 265.51261 169.764308 
L 265.51261 169.764308 
Q 264.178545 169.764308 262.804055 169.764308 
Q 261.429564 169.764308 260.082023 169.764308 
Q 258.581762 169.764308 257.77773 169.764308 
Q 256.978189 169.764308 256.978189 169.764308 
Q 256.978189 169.764308 257.562123 169.764308 
Q 258.146057 169.764308 259.996679 169.764308 
L 261.779924 169.764308 
Q 264.308808 169.764308 265.499135 169.764308 
Q 266.693954 169.764308 266.693954 169.764308 
Q 266.693954 169.764308 264.816381 169.764308 
Q 262.9433 169.764308 259.156712 169.764308 
Q 257.598058 169.764308 256.030419 169.764308 
Q 254.467273 169.764308 253.007437 169.764308 
L 253.007437 169.764308 
Q 254.664912 169.764308 256.214583 169.764308 
Q 257.764254 169.764308 259.282483 169.764308 
Q 260.809695 169.764308 261.649662 169.764308 
Q 262.49412 169.764308 262.49412 169.764308 
Q 262.49412 169.764308 261.932645 169.764308 
Q 261.37117 169.764308 260.306613 169.764308 
L 258.271828 169.764308 
z
" style="fill: #e69f00"/>
   </g>
   <g id="text_44">
    <g id="patch_38">
     <path d="M 251.111898 184.738058 
L 294.458148 184.738058 
L 294.458148 115.055558 
L 251.111898 115.055558 
L 251.111898 184.738058 
z
" style="fill: none"/>
    </g>
    <path d="M 266.667003 169.764308 
L 262.031465 169.764308 
L 266.667003 169.764308 
L 265.597954 169.764308 
L 260.939957 169.764308 
L 260.939957 169.764308 
L 258.523369 169.764308 
L 258.523369 169.764308 
L 253.878847 169.764308 
L 252.809798 169.764308 
L 257.472287 169.764308 
L 252.809798 169.764308 
L 253.878847 169.764308 
L 258.523369 169.764308 
L 258.523369 169.764308 
L 260.939957 169.764308 
L 260.939957 169.764308 
L 265.597954 169.764308 
L 266.667003 169.764308 
z
" style="fill: #e69f00"/>
   </g>
   <g id="text_45">
    <g id="patch_39">
     <path d="M 251.111898 184.738058 
L 294.458148 184.738058 
L 294.458148 115.055558 
L 251.111898 115.055558 
L 251.111898 184.738058 
z
" style="fill: none"/>
    </g>
    <path d="M 259.758614 169.764308 
L 263.450874 169.764308 
L 267.619265 169.764308 
L 262.637858 169.764308 
L 256.897337 169.764308 
L 251.911438 169.764308 
L 256.079829 169.764308 
L 259.758614 169.764308 
z
" style="fill: #e69f00"/>
   </g>
   <g id="text_46">
    <g id="patch_40">
     <path d="M 251.111898 184.738058 
L 294.458148 184.738058 
L 294.458148 115.055558 
L 251.111898 115.055558 
L 251.111898 184.738058 
z
" style="fill: none"/>
    </g>
    <path d="M 251.601504 169.764308 
L 255.015272 169.764308 
L 256.430189 169.764308 
L 258.146057 169.764308 
L 261.389137 169.764308 
L 263.36553 169.764308 
L 264.48848 169.764308 
L 267.929199 169.764308 
L 265.656348 169.764308 
L 262.004514 169.764308 
L 259.758614 169.764308 
L 257.651959 169.764308 
L 254.045043 169.764308 
L 251.601504 169.764308 
z
" style="fill: #e69f00"/>
   </g>
   <g id="text_47">
    <g id="patch_41">
     <path d="M 251.111898 184.738058 
L 294.458148 184.738058 
L 294.458148 115.055558 
L 251.111898 115.055558 
L 251.111898 184.738058 
z
" style="fill: none"/>
    </g>
    <path d="M 253.034388 169.764308 
L 257.175828 169.764308 
L 257.175828 169.764308 
L 262.354874 169.764308 
L 262.354874 169.764308 
L 266.496315 169.764308 
L 266.496315 169.764308 
L 262.354874 169.764308 
L 262.354874 169.764308 
L 257.175828 169.764308 
L 257.175828 169.764308 
L 253.034388 169.764308 
L 253.034388 169.764308 
z
" style="fill: #e69f00"/>
   </g>
   <g id="text_48">
    <g id="patch_42">
     <path d="M 251.111898 184.738058 
L 294.458148 184.738058 
L 294.458148 115.055558 
L 251.111898 115.055558 
L 251.111898 184.738058 
z
" style="fill: none"/>
    </g>
    <path d="M 260.320089 169.764308 
Q 260.12245 169.764308 259.987696 169.764308 
Q 259.857433 169.764308 259.731663 169.764308 
Q 256.124747 169.764308 254.265142 169.764308 
Q 252.405536 169.764308 252.405536 169.764308 
Q 252.405536 169.764308 254.265142 169.764308 
Q 256.124747 169.764308 259.758614 169.764308 
Q 263.410448 169.764308 265.270053 169.764308 
Q 267.129658 169.764308 267.129658 169.764308 
Q 267.129658 169.764308 266.244774 169.764308 
Q 265.359889 169.764308 263.675464 169.764308 
L 266.2852 169.764308 
L 263.450874 169.764308 
L 260.320089 169.764308 
z
M 259.758614 169.764308 
Q 258.173008 169.764308 257.440845 169.764308 
Q 256.713173 169.764308 256.713173 169.764308 
Q 256.713173 169.764308 257.440845 169.764308 
Q 258.173008 169.764308 259.758614 169.764308 
Q 261.357695 169.764308 262.085366 169.764308 
Q 262.81753 169.764308 262.81753 169.764308 
Q 262.81753 169.764308 262.085366 169.764308 
Q 261.357695 169.764308 259.758614 169.764308 
z
" style="fill: #e69f00"/>
   </g>
   <g id="text_49">
    <g id="patch_43">
     <path d="M 251.111898 184.738058 
L 294.458148 184.738058 
L 294.458148 115.055558 
L 251.111898 115.055558 
L 251.111898 184.738058 
z
" style="fill: none"/>
    </g>
    <path d="M 266.523265 169.764308 
L 253.470093 169.764308 
L 253.470093 169.764308 
L 266.523265 169.764308 
L 266.523265 169.764308 
L 257.611533 169.764308 
L 257.611533 169.764308 
L 265.683299 169.764308 
L 265.683299 169.764308 
L 257.611533 169.764308 
L 257.611533 169.764308 
L 266.523265 169.764308 
L 266.523265 169.764308 
z
" style="fill: #e69f00"/>
   </g>
   <g id="text_50">
    <g id="patch_44">
     <path d="M 251.111898 184.738058 
L 294.458148 184.738058 
L 294.458148 115.055558 
L 251.111898 115.055558 
L 251.111898 184.738058 
z
" style="fill: none"/>
    </g>
    <path d="M 252.320192 169.764308 
L 257.261173 169.764308 
L 259.758614 169.764308 
L 262.242579 169.764308 
L 267.210511 169.764308 
L 267.210511 169.764308 
L 263.648513 169.764308 
L 263.648513 169.764308 
L 261.429564 169.764308 
L 258.132582 169.764308 
L 255.886682 169.764308 
L 255.886682 169.764308 
L 252.320192 169.764308 
L 252.320192 169.764308 
z
" style="fill: #e69f00"/>
   </g>
   <g id="text_51">
    <g id="patch_45">
     <path d="M 251.111898 184.738058 
L 294.458148 184.738058 
L 294.458148 115.055558 
L 251.111898 115.055558 
L 251.111898 184.738058 
z
" style="fill: none"/>
    </g>
    <path d="M 262.440219 169.764308 
Q 263.055595 169.764308 263.513759 169.764308 
Q 263.971923 169.764308 264.627726 169.764308 
L 268.418805 169.764308 
L 263.873103 169.764308 
L 261.344219 169.764308 
Q 261.231924 169.764308 261.052252 169.764308 
Q 259.942778 169.764308 258.438024 169.764308 
L 257.121927 169.764308 
L 257.121927 169.764308 
L 252.980487 169.764308 
L 252.980487 169.764308 
L 258.959073 169.764308 
Q 263.001694 169.764308 264.76248 169.764308 
Q 266.523265 169.764308 266.523265 169.764308 
Q 266.523265 169.764308 265.472184 169.764308 
Q 264.421103 169.764308 262.440219 169.764308 
z
M 257.121927 169.764308 
L 257.121927 169.764308 
L 259.071368 169.764308 
Q 260.769269 169.764308 261.505924 169.764308 
Q 262.242579 169.764308 262.242579 169.764308 
Q 262.242579 169.764308 261.510416 169.764308 
Q 260.782744 169.764308 259.071368 169.764308 
L 257.121927 169.764308 
z
" style="fill: #e69f00"/>
   </g>
   <g id="text_52">
    <g id="patch_46">
     <path d="M 251.111898 184.738058 
L 294.458148 184.738058 
L 294.458148 115.055558 
L 251.111898 115.055558 
L 251.111898 184.738058 
z
" style="fill: none"/>
    </g>
    <path d="M 253.528486 169.764308 
L 253.528486 169.764308 
L 266.006708 169.764308 
L 266.006708 169.764308 
L 261.838317 169.764308 
L 261.838317 169.764308 
L 266.006708 169.764308 
L 266.006708 169.764308 
L 253.528486 169.764308 
L 253.528486 169.764308 
L 257.696877 169.764308 
L 257.696877 169.764308 
L 253.528486 169.764308 
z
" style="fill: #e69f00"/>
   </g>
   <g id="text_53">
    <g id="patch_47">
     <path d="M 251.111898 184.738058 
L 294.458148 184.738058 
L 294.458148 115.055558 
L 251.111898 115.055558 
L 251.111898 184.738058 
z
" style="fill: none"/>
    </g>
    <path d="M 266.720905 169.764308 
L 257.809172 169.764308 
L 257.809172 169.764308 
L 265.921364 169.764308 
L 265.921364 169.764308 
L 257.809172 169.764308 
L 257.809172 169.764308 
L 253.667732 169.764308 
L 253.667732 169.764308 
L 266.720905 169.764308 
L 266.720905 169.764308 
z
" style="fill: #e69f00"/>
   </g>
   <g id="text_54">
    <g id="patch_48">
     <path d="M 251.111898 184.738058 
L 294.458148 184.738058 
L 294.458148 115.055558 
L 251.111898 115.055558 
L 251.111898 184.738058 
z
" style="fill: none"/>
    </g>
    <path d="M 261.838317 169.764308 
L 257.696877 169.764308 
L 257.696877 169.764308 
L 252.374094 169.764308 
L 252.374094 169.764308 
L 267.156609 169.764308 
L 267.156609 169.764308 
L 261.838317 169.764308 
L 261.838317 169.764308 
z
" style="fill: #e69f00"/>
   </g>
   <g id="text_55">
    <g id="patch_49">
     <path d="M 251.111898 184.738058 
L 294.458148 184.738058 
L 294.458148 115.055558 
L 251.111898 115.055558 
L 251.111898 184.738058 
z
" style="fill: none"/>
    </g>
    <path d="M 251.224193 169.764308 
L 255.689042 169.764308 
L 259.758614 169.764308 
L 263.84166 169.764308 
L 268.30651 169.764308 
L 261.838317 169.764308 
L 261.838317 169.764308 
L 257.696877 169.764308 
L 257.696877 169.764308 
L 251.224193 169.764308 
z
" style="fill: #e69f00"/>
   </g>
   <g id="text_56">
    <g id="patch_50">
     <path d="M 251.111898 184.738058 
L 294.458148 184.738058 
L 294.458148 115.055558 
L 251.111898 115.055558 
L 251.111898 184.738058 
z
" style="fill: none"/>
    </g>
    <path d="M 259.758614 169.764308 
L 257.809172 169.764308 
L 261.726022 169.764308 
L 259.758614 169.764308 
z
M 257.234222 169.764308 
L 262.300973 169.764308 
L 267.95615 169.764308 
L 263.81471 169.764308 
L 262.525563 169.764308 
L 256.978189 169.764308 
L 255.715993 169.764308 
L 251.574553 169.764308 
L 257.234222 169.764308 
z
" style="fill: #e69f00"/>
   </g>
   <g id="text_57">
    <g id="patch_51">
     <path d="M 251.111898 184.738058 
L 294.458148 184.738058 
L 294.458148 115.055558 
L 251.111898 115.055558 
L 251.111898 184.738058 
z
" style="fill: none"/>
    </g>
    <path d="M 257.175828 169.764308 
L 257.175828 169.764308 
L 258.298779 169.764308 
Q 260.742318 169.764308 261.779924 169.764308 
Q 262.81753 169.764308 262.81753 169.764308 
Q 262.81753 169.764308 261.779924 169.764308 
Q 260.742318 169.764308 258.298779 169.764308 
L 257.175828 169.764308 
z
M 253.034388 169.764308 
L 257.472287 169.764308 
Q 262.606415 169.764308 264.865791 169.764308 
Q 267.129658 169.764308 267.129658 169.764308 
Q 267.129658 169.764308 264.865791 169.764308 
Q 262.606415 169.764308 257.472287 169.764308 
L 253.034388 169.764308 
L 253.034388 169.764308 
z
" style="fill: #e69f00"/>
   </g>
   <g id="text_58">
    <g id="patch_52">
     <path d="M 251.111898 184.457528 
L 294.458148 184.457528 
L 294.458148 114.775028 
L 251.111898 114.775028 
L 251.111898 184.457528 
z
" style="fill: none"/>
    </g>
    <path d="M 254.269633 169.483349 
L 254.269633 169.252024 
L 258.411074 169.252024 
L 258.411074 169.442984 
L 267.268904 169.442984 
L 267.268904 169.483349 
L 254.269633 169.483349 
z
" style="fill: #e69f00"/>
   </g>
   <g id="text_59">
    <g id="patch_53">
     <path d="M 251.111898 180.492733 
L 294.458148 180.492733 
L 294.458148 110.810233 
L 251.111898 110.810233 
L 251.111898 180.492733 
z
" style="fill: none"/>
    </g>
    <path d="M 263.352054 155.862986 
L 263.352054 146.701112 
L 260.517728 146.701112 
L 260.517728 138.723076 
L 266.972445 138.723076 
L 266.972445 160.721867 
Q 265.782118 163.068954 264.34025 164.283674 
Q 262.902874 165.4881 261.258875 165.4881 
Q 257.189304 165.4881 254.970354 159.002729 
Q 252.755897 152.517358 252.755897 140.586333 
Q 252.755897 128.459719 254.992813 122.056701 
Q 257.234222 115.653684 261.456514 115.653684 
Q 262.71871 115.653684 263.94048 116.477223 
Q 265.16225 117.300762 266.231298 118.844898 
L 266.231298 129.355317 
Q 265.359889 126.781757 264.227955 125.484683 
Q 263.100513 124.177315 261.752973 124.177315 
Q 259.394778 124.177315 258.22691 128.253834 
Q 257.063533 132.320059 257.063533 140.586333 
Q 257.063533 148.595252 258.186484 152.785008 
Q 259.309434 156.96447 261.456514 156.96447 
Q 262.103334 156.96447 262.579464 156.696819 
Q 263.055595 156.418875 263.352054 155.862986 
z
" style="fill: #e69f00"/>
   </g>
   <g id="text_60">
    <g id="patch_54">
     <path d="M 284.459025 184.738058 
L 327.805275 184.738058 
L 327.805275 115.055558 
L 284.459025 115.055558 
L 284.459025 184.738058 
z
" style="fill: none"/>
    </g>
    <path d="M 299.632328 169.764308 
Q 298.648623 169.764308 297.566099 169.764308 
Q 296.488067 169.764308 295.29774 169.764308 
Q 291.05748 169.764308 288.825055 169.764308 
Q 286.59263 169.764308 286.59263 169.764308 
Q 286.59263 169.764308 288.825055 169.764308 
Q 291.05748 169.764308 295.29774 169.764308 
Q 296.488067 169.764308 297.584067 169.764308 
Q 298.680066 169.764308 299.632328 169.764308 
L 299.632328 169.764308 
Q 298.567771 169.764308 297.561608 169.764308 
Q 296.559936 169.764308 295.490887 169.764308 
Q 293.218036 169.764308 292.059152 169.764308 
Q 290.900267 169.764308 290.900267 169.764308 
Q 290.900267 169.764308 292.059152 169.764308 
Q 293.218036 169.764308 295.490887 169.764308 
Q 296.559936 169.764308 297.561608 169.764308 
Q 298.567771 169.764308 299.632328 169.764308 
L 299.632328 169.764308 
z
" style="fill: #e69f00"/>
   </g>
   <g id="text_61">
    <g id="patch_55">
     <path d="M 284.459025 184.738058 
L 327.805275 184.738058 
L 327.805275 115.055558 
L 284.459025 115.055558 
L 284.459025 184.738058 
z
" style="fill: none"/>
    </g>
    <path d="M 286.103024 169.764308 
L 290.244464 169.764308 
L 290.244464 169.764308 
L 296.726133 169.764308 
L 301.415572 169.764308 
L 294.803642 169.764308 
L 301.653638 169.764308 
L 297.049542 169.764308 
L 292.081611 169.764308 
L 290.244464 169.764308 
L 290.244464 169.764308 
L 286.103024 169.764308 
L 286.103024 169.764308 
z
" style="fill: #e69f00"/>
   </g>
   <g id="text_62">
    <g id="patch_56">
     <path d="M 284.459025 184.738058 
L 327.805275 184.738058 
L 327.805275 115.055558 
L 284.459025 115.055558 
L 284.459025 184.738058 
z
" style="fill: none"/>
    </g>
    <path d="M 287.616761 169.764308 
L 287.616761 169.764308 
L 291.758201 169.764308 
L 291.758201 169.764308 
L 300.616032 169.764308 
L 300.616032 169.764308 
L 287.616761 169.764308 
z
" style="fill: #e69f00"/>
   </g>
   <g id="text_63">
    <g id="patch_57">
     <path d="M 284.459025 184.738058 
L 327.805275 184.738058 
L 327.805275 115.055558 
L 284.459025 115.055558 
L 284.459025 184.738058 
z
" style="fill: none"/>
    </g>
    <path d="M 286.129975 169.764308 
L 290.581349 169.764308 
L 296.42069 169.764308 
L 296.42069 169.764308 
L 300.068032 169.764308 
L 300.068032 169.764308 
L 295.6481 169.764308 
L 289.777317 169.764308 
L 289.777317 169.764308 
L 286.129975 169.764308 
L 286.129975 169.764308 
z
" style="fill: #e69f00"/>
   </g>
   <g id="text_64">
    <g id="patch_58">
     <path d="M 284.459025 184.738058 
L 327.805275 184.738058 
L 327.805275 115.055558 
L 284.459025 115.055558 
L 284.459025 184.738058 
z
" style="fill: none"/>
    </g>
    <path d="M 290.873316 169.764308 
L 290.873316 169.764308 
L 292.571217 169.764308 
Q 294.606003 169.764308 295.428002 169.764308 
Q 296.250002 169.764308 296.250002 169.764308 
Q 296.250002 169.764308 295.428002 169.764308 
Q 294.606003 169.764308 292.571217 169.764308 
L 290.873316 169.764308 
z
M 286.731876 169.764308 
L 292.418496 169.764308 
Q 296.757575 169.764308 298.657607 169.764308 
Q 300.557639 169.764308 300.557639 169.764308 
Q 300.557639 169.764308 298.657607 169.764308 
Q 296.757575 169.764308 292.418496 169.764308 
L 290.873316 169.764308 
L 290.873316 169.764308 
L 286.731876 169.764308 
L 286.731876 169.764308 
z
" style="fill: #e69f00"/>
   </g>
   <g id="text_65">
    <g id="patch_59">
     <path d="M 284.459025 184.738058 
L 327.805275 184.738058 
L 327.805275 115.055558 
L 284.459025 115.055558 
L 284.459025 184.738058 
z
" style="fill: none"/>
    </g>
    <path d="M 291.618955 169.764308 
Q 288.48817 169.764308 287.378696 169.764308 
Q 286.269221 169.764308 286.269221 169.764308 
Q 286.269221 169.764308 288.092892 169.764308 
Q 289.921055 169.764308 293.105741 169.764308 
Q 294.552101 169.764308 295.998461 169.764308 
Q 297.444821 169.764308 298.859738 169.764308 
L 298.859738 169.764308 
Q 297.525673 169.764308 296.151182 169.764308 
Q 294.776691 169.764308 293.429151 169.764308 
Q 291.92889 169.764308 291.124857 169.764308 
Q 290.325317 169.764308 290.325317 169.764308 
Q 290.325317 169.764308 290.909251 169.764308 
Q 291.493185 169.764308 293.343807 169.764308 
L 295.127052 169.764308 
Q 297.655935 169.764308 298.846262 169.764308 
Q 300.041081 169.764308 300.041081 169.764308 
Q 300.041081 169.764308 298.163509 169.764308 
Q 296.290428 169.764308 292.50384 169.764308 
Q 290.945185 169.764308 289.377547 169.764308 
Q 287.8144 169.764308 286.354565 169.764308 
L 286.354565 169.764308 
Q 288.012039 169.764308 289.561711 169.764308 
Q 291.111382 169.764308 292.62961 169.764308 
Q 294.156823 169.764308 294.996789 169.764308 
Q 295.841248 169.764308 295.841248 169.764308 
Q 295.841248 169.764308 295.279773 169.764308 
Q 294.718298 169.764308 293.653741 169.764308 
L 291.618955 169.764308 
z
" style="fill: #e69f00"/>
   </g>
   <g id="text_66">
    <g id="patch_60">
     <path d="M 284.459025 184.738058 
L 327.805275 184.738058 
L 327.805275 115.055558 
L 284.459025 115.055558 
L 284.459025 184.738058 
z
" style="fill: none"/>
    </g>
    <path d="M 300.014131 169.764308 
L 295.378592 169.764308 
L 300.014131 169.764308 
L 298.945082 169.764308 
L 294.287085 169.764308 
L 294.287085 169.764308 
L 291.870496 169.764308 
L 291.870496 169.764308 
L 287.225974 169.764308 
L 286.156926 169.764308 
L 290.819415 169.764308 
L 286.156926 169.764308 
L 287.225974 169.764308 
L 291.870496 169.764308 
L 291.870496 169.764308 
L 294.287085 169.764308 
L 294.287085 169.764308 
L 298.945082 169.764308 
L 300.014131 169.764308 
z
" style="fill: #e69f00"/>
   </g>
   <g id="text_67">
    <g id="patch_61">
     <path d="M 284.459025 184.738058 
L 327.805275 184.738058 
L 327.805275 115.055558 
L 284.459025 115.055558 
L 284.459025 184.738058 
z
" style="fill: none"/>
    </g>
    <path d="M 293.105741 169.764308 
L 296.798001 169.764308 
L 300.966392 169.764308 
L 295.984986 169.764308 
L 290.244464 169.764308 
L 285.258566 169.764308 
L 289.426957 169.764308 
L 293.105741 169.764308 
z
" style="fill: #e69f00"/>
   </g>
   <g id="text_68">
    <g id="patch_62">
     <path d="M 284.459025 184.738058 
L 327.805275 184.738058 
L 327.805275 115.055558 
L 284.459025 115.055558 
L 284.459025 184.738058 
z
" style="fill: none"/>
    </g>
    <path d="M 284.948631 169.764308 
L 288.3624 169.764308 
L 289.777317 169.764308 
L 291.493185 169.764308 
L 294.736265 169.764308 
L 296.712657 169.764308 
L 297.835607 169.764308 
L 301.276327 169.764308 
L 299.003476 169.764308 
L 295.351642 169.764308 
L 293.105741 169.764308 
L 290.999087 169.764308 
L 287.392171 169.764308 
L 284.948631 169.764308 
z
" style="fill: #e69f00"/>
   </g>
   <g id="text_69">
    <g id="patch_63">
     <path d="M 284.459025 184.738058 
L 327.805275 184.738058 
L 327.805275 115.055558 
L 284.459025 115.055558 
L 284.459025 184.738058 
z
" style="fill: none"/>
    </g>
    <path d="M 296.699182 169.764308 
L 296.699182 169.764308 
L 293.864856 169.764308 
L 293.864856 169.764308 
L 300.319573 169.764308 
L 300.319573 169.764308 
Q 299.129246 169.764308 297.687378 169.764308 
Q 296.250002 169.764308 294.606003 169.764308 
Q 290.536431 169.764308 288.317482 169.764308 
Q 286.103024 169.764308 286.103024 169.764308 
Q 286.103024 169.764308 288.339941 169.764308 
Q 290.581349 169.764308 294.803642 169.764308 
Q 296.065838 169.764308 297.287608 169.764308 
Q 298.509377 169.764308 299.578426 169.764308 
L 299.578426 169.764308 
Q 298.707017 169.764308 297.575083 169.764308 
Q 296.447641 169.764308 295.100101 169.764308 
Q 292.741905 169.764308 291.574037 169.764308 
Q 290.410661 169.764308 290.410661 169.764308 
Q 290.410661 169.764308 291.533611 169.764308 
Q 292.656561 169.764308 294.803642 169.764308 
Q 295.450461 169.764308 295.926592 169.764308 
Q 296.402723 169.764308 296.699182 169.764308 
z
" style="fill: #e69f00"/>
   </g>
   <g id="text_70">
    <g id="patch_64">
     <path d="M 284.459025 184.738058 
L 327.805275 184.738058 
L 327.805275 115.055558 
L 284.459025 115.055558 
L 284.459025 184.738058 
z
" style="fill: none"/>
    </g>
    <path d="M 286.381516 169.764308 
L 290.522956 169.764308 
L 290.522956 169.764308 
L 295.702002 169.764308 
L 295.702002 169.764308 
L 299.843442 169.764308 
L 299.843442 169.764308 
L 295.702002 169.764308 
L 295.702002 169.764308 
L 290.522956 169.764308 
L 290.522956 169.764308 
L 286.381516 169.764308 
L 286.381516 169.764308 
z
" style="fill: #e69f00"/>
   </g>
   <g id="text_71">
    <g id="patch_65">
     <path d="M 284.459025 184.738058 
L 327.805275 184.738058 
L 327.805275 115.055558 
L 284.459025 115.055558 
L 284.459025 184.738058 
z
" style="fill: none"/>
    </g>
    <path d="M 293.667216 169.764308 
Q 293.469577 169.764308 293.334823 169.764308 
Q 293.204561 169.764308 293.078791 169.764308 
Q 289.471875 169.764308 287.612269 169.764308 
Q 285.752664 169.764308 285.752664 169.764308 
Q 285.752664 169.764308 287.612269 169.764308 
Q 289.471875 169.764308 293.105741 169.764308 
Q 296.757575 169.764308 298.617181 169.764308 
Q 300.476786 169.764308 300.476786 169.764308 
Q 300.476786 169.764308 299.591901 169.764308 
Q 298.707017 169.764308 297.022591 169.764308 
L 299.632328 169.764308 
L 296.798001 169.764308 
L 293.667216 169.764308 
z
M 293.105741 169.764308 
Q 291.520136 169.764308 290.787972 169.764308 
Q 290.060301 169.764308 290.060301 169.764308 
Q 290.060301 169.764308 290.787972 169.764308 
Q 291.520136 169.764308 293.105741 169.764308 
Q 294.704822 169.764308 295.432494 169.764308 
Q 296.164658 169.764308 296.164658 169.764308 
Q 296.164658 169.764308 295.432494 169.764308 
Q 294.704822 169.764308 293.105741 169.764308 
z
" style="fill: #e69f00"/>
   </g>
   <g id="text_72">
    <g id="patch_66">
     <path d="M 284.459025 184.738058 
L 327.805275 184.738058 
L 327.805275 115.055558 
L 284.459025 115.055558 
L 284.459025 184.738058 
z
" style="fill: none"/>
    </g>
    <path d="M 299.870393 169.764308 
L 286.81722 169.764308 
L 286.81722 169.764308 
L 299.870393 169.764308 
L 299.870393 169.764308 
L 290.958661 169.764308 
L 290.958661 169.764308 
L 299.030426 169.764308 
L 299.030426 169.764308 
L 290.958661 169.764308 
L 290.958661 169.764308 
L 299.870393 169.764308 
L 299.870393 169.764308 
z
" style="fill: #e69f00"/>
   </g>
   <g id="text_73">
    <g id="patch_67">
     <path d="M 284.459025 184.738058 
L 327.805275 184.738058 
L 327.805275 115.055558 
L 284.459025 115.055558 
L 284.459025 184.738058 
z
" style="fill: none"/>
    </g>
    <path d="M 285.66732 169.764308 
L 290.6083 169.764308 
L 293.105741 169.764308 
L 295.589707 169.764308 
L 300.557639 169.764308 
L 300.557639 169.764308 
L 296.995641 169.764308 
L 296.995641 169.764308 
L 294.776691 169.764308 
L 291.47971 169.764308 
L 289.233809 169.764308 
L 289.233809 169.764308 
L 285.66732 169.764308 
L 285.66732 169.764308 
z
" style="fill: #e69f00"/>
   </g>
   <g id="text_74">
    <g id="patch_68">
     <path d="M 284.459025 184.738058 
L 327.805275 184.738058 
L 327.805275 115.055558 
L 284.459025 115.055558 
L 284.459025 184.738058 
z
" style="fill: none"/>
    </g>
    <path d="M 295.787346 169.764308 
Q 296.402723 169.764308 296.860887 169.764308 
Q 297.31905 169.764308 297.974853 169.764308 
L 301.765933 169.764308 
L 297.220231 169.764308 
L 294.691347 169.764308 
Q 294.579052 169.764308 294.39938 169.764308 
Q 293.289905 169.764308 291.785152 169.764308 
L 290.469054 169.764308 
L 290.469054 169.764308 
L 286.327614 169.764308 
L 286.327614 169.764308 
L 292.306201 169.764308 
Q 296.348821 169.764308 298.109607 169.764308 
Q 299.870393 169.764308 299.870393 169.764308 
Q 299.870393 169.764308 298.819312 169.764308 
Q 297.76823 169.764308 295.787346 169.764308 
z
M 290.469054 169.764308 
L 290.469054 169.764308 
L 292.418496 169.764308 
Q 294.116396 169.764308 294.853052 169.764308 
Q 295.589707 169.764308 295.589707 169.764308 
Q 295.589707 169.764308 294.857544 169.764308 
Q 294.129872 169.764308 292.418496 169.764308 
L 290.469054 169.764308 
z
" style="fill: #e69f00"/>
   </g>
   <g id="text_75">
    <g id="patch_69">
     <path d="M 284.459025 184.738058 
L 327.805275 184.738058 
L 327.805275 115.055558 
L 284.459025 115.055558 
L 284.459025 184.738058 
z
" style="fill: none"/>
    </g>
    <path d="M 286.875614 169.764308 
L 286.875614 169.764308 
L 299.353836 169.764308 
L 299.353836 169.764308 
L 295.185445 169.764308 
L 295.185445 169.764308 
L 299.353836 169.764308 
L 299.353836 169.764308 
L 286.875614 169.764308 
L 286.875614 169.764308 
L 291.044005 169.764308 
L 291.044005 169.764308 
L 286.875614 169.764308 
z
" style="fill: #e69f00"/>
   </g>
   <g id="text_76">
    <g id="patch_70">
     <path d="M 284.459025 184.738058 
L 327.805275 184.738058 
L 327.805275 115.055558 
L 284.459025 115.055558 
L 284.459025 184.738058 
z
" style="fill: none"/>
    </g>
    <path d="M 295.185445 169.764308 
L 291.044005 169.764308 
L 291.044005 169.764308 
L 285.721221 169.764308 
L 285.721221 169.764308 
L 300.503737 169.764308 
L 300.503737 169.764308 
L 295.185445 169.764308 
L 295.185445 169.764308 
z
" style="fill: #e69f00"/>
   </g>
   <g id="text_77">
    <g id="patch_71">
     <path d="M 284.459025 184.738058 
L 327.805275 184.738058 
L 327.805275 115.055558 
L 284.459025 115.055558 
L 284.459025 184.738058 
z
" style="fill: none"/>
    </g>
    <path d="M 284.57132 169.764308 
L 289.03617 169.764308 
L 293.105741 169.764308 
L 297.188788 169.764308 
L 301.653638 169.764308 
L 295.185445 169.764308 
L 295.185445 169.764308 
L 291.044005 169.764308 
L 291.044005 169.764308 
L 284.57132 169.764308 
z
" style="fill: #e69f00"/>
   </g>
   <g id="text_78">
    <g id="patch_72">
     <path d="M 284.459025 184.738058 
L 327.805275 184.738058 
L 327.805275 115.055558 
L 284.459025 115.055558 
L 284.459025 184.738058 
z
" style="fill: none"/>
    </g>
    <path d="M 293.105741 169.764308 
L 291.1563 169.764308 
L 295.07315 169.764308 
L 293.105741 169.764308 
z
M 290.581349 169.764308 
L 295.6481 169.764308 
L 301.303277 169.764308 
L 297.161837 169.764308 
L 295.87269 169.764308 
L 290.325317 169.764308 
L 289.063121 169.764308 
L 284.921681 169.764308 
L 290.581349 169.764308 
z
" style="fill: #e69f00"/>
   </g>
   <g id="text_79">
    <g id="patch_73">
     <path d="M 284.459025 184.738058 
L 327.805275 184.738058 
L 327.805275 115.055558 
L 284.459025 115.055558 
L 284.459025 184.738058 
z
" style="fill: none"/>
    </g>
    <path d="M 290.522956 169.764308 
L 290.522956 169.764308 
L 291.645906 169.764308 
Q 294.089446 169.764308 295.127052 169.764308 
Q 296.164658 169.764308 296.164658 169.764308 
Q 296.164658 169.764308 295.127052 169.764308 
Q 294.089446 169.764308 291.645906 169.764308 
L 290.522956 169.764308 
z
M 286.381516 169.764308 
L 290.819415 169.764308 
Q 295.953543 169.764308 298.212919 169.764308 
Q 300.476786 169.764308 300.476786 169.764308 
Q 300.476786 169.764308 298.212919 169.764308 
Q 295.953543 169.764308 290.819415 169.764308 
L 286.381516 169.764308 
L 286.381516 169.764308 
z
" style="fill: #e69f00"/>
   </g>
   <g id="text_80">
    <g id="patch_74">
     <path d="M 284.459025 180.978422 
L 327.805275 180.978422 
L 327.805275 111.295922 
L 284.459025 111.295922 
L 284.459025 180.978422 
z
" style="fill: none"/>
    </g>
    <path d="M 300.068032 124.013093 
L 291.1563 124.013093 
L 291.1563 134.929231 
L 299.268492 134.929231 
L 299.268492 143.785522 
L 291.1563 143.785522 
L 291.1563 165.910567 
L 287.01486 165.910567 
L 287.01486 115.156801 
L 300.068032 115.156801 
L 300.068032 124.013093 
z
" style="fill: #e69f00"/>
   </g>
   <g id="text_81">
    <g id="patch_75">
     <path d="M 317.806153 184.738058 
L 361.152403 184.738058 
L 361.152403 115.055558 
L 317.806153 115.055558 
L 317.806153 184.738058 
z
" style="fill: none"/>
    </g>
    <path d="M 332.979455 169.764308 
Q 331.995751 169.764308 330.913227 169.764308 
Q 329.835195 169.764308 328.644868 169.764308 
Q 324.404608 169.764308 322.172183 169.764308 
Q 319.939758 169.764308 319.939758 169.764308 
Q 319.939758 169.764308 322.172183 169.764308 
Q 324.404608 169.764308 328.644868 169.764308 
Q 329.835195 169.764308 330.931194 169.764308 
Q 332.027193 169.764308 332.979455 169.764308 
L 332.979455 169.764308 
Q 331.914898 169.764308 330.908735 169.764308 
Q 329.907064 169.764308 328.838015 169.764308 
Q 326.565164 169.764308 325.406279 169.764308 
Q 324.247395 169.764308 324.247395 169.764308 
Q 324.247395 169.764308 325.406279 169.764308 
Q 326.565164 169.764308 328.838015 169.764308 
Q 329.907064 169.764308 330.908735 169.764308 
Q 331.914898 169.764308 332.979455 169.764308 
L 332.979455 169.764308 
z
" style="fill: #e69f00"/>
   </g>
   <g id="text_82">
    <g id="patch_76">
     <path d="M 317.806153 184.738058 
L 361.152403 184.738058 
L 361.152403 115.055558 
L 317.806153 115.055558 
L 317.806153 184.738058 
z
" style="fill: none"/>
    </g>
    <path d="M 319.450152 169.764308 
L 323.591592 169.764308 
L 323.591592 169.764308 
L 330.07326 169.764308 
L 334.7627 169.764308 
L 328.15077 169.764308 
L 335.000765 169.764308 
L 330.39667 169.764308 
L 325.428738 169.764308 
L 323.591592 169.764308 
L 323.591592 169.764308 
L 319.450152 169.764308 
L 319.450152 169.764308 
z
" style="fill: #e69f00"/>
   </g>
   <g id="text_83">
    <g id="patch_77">
     <path d="M 317.806153 184.738058 
L 361.152403 184.738058 
L 361.152403 115.055558 
L 317.806153 115.055558 
L 317.806153 184.738058 
z
" style="fill: none"/>
    </g>
    <path d="M 324.220444 169.764308 
L 324.220444 169.764308 
L 325.918345 169.764308 
Q 327.95313 169.764308 328.77513 169.764308 
Q 329.597129 169.764308 329.597129 169.764308 
Q 329.597129 169.764308 328.77513 169.764308 
Q 327.95313 169.764308 325.918345 169.764308 
L 324.220444 169.764308 
z
M 320.079004 169.764308 
L 325.765623 169.764308 
Q 330.104703 169.764308 332.004734 169.764308 
Q 333.904766 169.764308 333.904766 169.764308 
Q 333.904766 169.764308 332.004734 169.764308 
Q 330.104703 169.764308 325.765623 169.764308 
L 324.220444 169.764308 
L 324.220444 169.764308 
L 320.079004 169.764308 
L 320.079004 169.764308 
z
" style="fill: #e69f00"/>
   </g>
   <g id="text_84">
    <g id="patch_78">
     <path d="M 317.806153 184.738058 
L 361.152403 184.738058 
L 361.152403 115.055558 
L 317.806153 115.055558 
L 317.806153 184.738058 
z
" style="fill: none"/>
    </g>
    <path d="M 324.966083 169.764308 
Q 321.835298 169.764308 320.725823 169.764308 
Q 319.616348 169.764308 319.616348 169.764308 
Q 319.616348 169.764308 321.440019 169.764308 
Q 323.268182 169.764308 326.452869 169.764308 
Q 327.899229 169.764308 329.345589 169.764308 
Q 330.791948 169.764308 332.206866 169.764308 
L 332.206866 169.764308 
Q 330.872801 169.764308 329.49831 169.764308 
Q 328.123819 169.764308 326.776279 169.764308 
Q 325.276017 169.764308 324.471985 169.764308 
Q 323.672444 169.764308 323.672444 169.764308 
Q 323.672444 169.764308 324.256378 169.764308 
Q 324.840313 169.764308 326.690934 169.764308 
L 328.474179 169.764308 
Q 331.003063 169.764308 332.19339 169.764308 
Q 333.388209 169.764308 333.388209 169.764308 
Q 333.388209 169.764308 331.510636 169.764308 
Q 329.637556 169.764308 325.850968 169.764308 
Q 324.292313 169.764308 322.724674 169.764308 
Q 321.161528 169.764308 319.701693 169.764308 
L 319.701693 169.764308 
Q 321.359167 169.764308 322.908838 169.764308 
Q 324.458509 169.764308 325.976738 169.764308 
Q 327.50395 169.764308 328.343917 169.764308 
Q 329.188376 169.764308 329.188376 169.764308 
Q 329.188376 169.764308 328.6269 169.764308 
Q 328.065425 169.764308 327.000869 169.764308 
L 324.966083 169.764308 
z
" style="fill: #e69f00"/>
   </g>
   <g id="text_85">
    <g id="patch_79">
     <path d="M 317.806153 184.738058 
L 361.152403 184.738058 
L 361.152403 115.055558 
L 317.806153 115.055558 
L 317.806153 184.738058 
z
" style="fill: none"/>
    </g>
    <path d="M 333.361258 169.764308 
L 328.72572 169.764308 
L 333.361258 169.764308 
L 332.29221 169.764308 
L 327.634213 169.764308 
L 327.634213 169.764308 
L 325.217624 169.764308 
L 325.217624 169.764308 
L 320.573102 169.764308 
L 319.504053 169.764308 
L 324.166542 169.764308 
L 319.504053 169.764308 
L 320.573102 169.764308 
L 325.217624 169.764308 
L 325.217624 169.764308 
L 327.634213 169.764308 
L 327.634213 169.764308 
L 332.29221 169.764308 
L 333.361258 169.764308 
z
" style="fill: #e69f00"/>
   </g>
   <g id="text_86">
    <g id="patch_80">
     <path d="M 317.806153 184.738058 
L 361.152403 184.738058 
L 361.152403 115.055558 
L 317.806153 115.055558 
L 317.806153 184.738058 
z
" style="fill: none"/>
    </g>
    <path d="M 326.452869 169.764308 
L 330.145129 169.764308 
L 334.31352 169.764308 
L 329.332113 169.764308 
L 323.591592 169.764308 
L 318.605693 169.764308 
L 322.774084 169.764308 
L 326.452869 169.764308 
z
" style="fill: #e69f00"/>
   </g>
   <g id="text_87">
    <g id="patch_81">
     <path d="M 317.806153 184.738058 
L 361.152403 184.738058 
L 361.152403 115.055558 
L 317.806153 115.055558 
L 317.806153 184.738058 
z
" style="fill: none"/>
    </g>
    <path d="M 318.295759 169.764308 
L 321.709528 169.764308 
L 323.124445 169.764308 
L 324.840313 169.764308 
L 328.083393 169.764308 
L 330.059785 169.764308 
L 331.182735 169.764308 
L 334.623454 169.764308 
L 332.350603 169.764308 
L 328.698769 169.764308 
L 326.452869 169.764308 
L 324.346214 169.764308 
L 320.739299 169.764308 
L 318.295759 169.764308 
z
" style="fill: #e69f00"/>
   </g>
   <g id="text_88">
    <g id="patch_82">
     <path d="M 317.806153 184.738058 
L 361.152403 184.738058 
L 361.152403 115.055558 
L 317.806153 115.055558 
L 317.806153 184.738058 
z
" style="fill: none"/>
    </g>
    <path d="M 330.046309 169.764308 
L 330.046309 169.764308 
L 327.211983 169.764308 
L 327.211983 169.764308 
L 333.666701 169.764308 
L 333.666701 169.764308 
Q 332.476374 169.764308 331.034506 169.764308 
Q 329.597129 169.764308 327.95313 169.764308 
Q 323.883559 169.764308 321.66461 169.764308 
Q 319.450152 169.764308 319.450152 169.764308 
Q 319.450152 169.764308 321.687069 169.764308 
Q 323.928477 169.764308 328.15077 169.764308 
Q 329.412966 169.764308 330.634735 169.764308 
Q 331.856505 169.764308 332.925554 169.764308 
L 332.925554 169.764308 
Q 332.054144 169.764308 330.922211 169.764308 
Q 329.794769 169.764308 328.447228 169.764308 
Q 326.089033 169.764308 324.921165 169.764308 
Q 323.757789 169.764308 323.757789 169.764308 
Q 323.757789 169.764308 324.880739 169.764308 
Q 326.003689 169.764308 328.15077 169.764308 
Q 328.797589 169.764308 329.27372 169.764308 
Q 329.749851 169.764308 330.046309 169.764308 
z
" style="fill: #e69f00"/>
   </g>
   <g id="text_89">
    <g id="patch_83">
     <path d="M 317.806153 184.738058 
L 361.152403 184.738058 
L 361.152403 115.055558 
L 317.806153 115.055558 
L 317.806153 184.738058 
z
" style="fill: none"/>
    </g>
    <path d="M 319.728643 169.764308 
L 323.870084 169.764308 
L 323.870084 169.764308 
L 329.04913 169.764308 
L 329.04913 169.764308 
L 333.19057 169.764308 
L 333.19057 169.764308 
L 329.04913 169.764308 
L 329.04913 169.764308 
L 323.870084 169.764308 
L 323.870084 169.764308 
L 319.728643 169.764308 
L 319.728643 169.764308 
z
" style="fill: #e69f00"/>
   </g>
   <g id="text_90">
    <g id="patch_84">
     <path d="M 317.806153 184.738058 
L 361.152403 184.738058 
L 361.152403 115.055558 
L 317.806153 115.055558 
L 317.806153 184.738058 
z
" style="fill: none"/>
    </g>
    <path d="M 327.014344 169.764308 
Q 326.816705 169.764308 326.681951 169.764308 
Q 326.551689 169.764308 326.425918 169.764308 
Q 322.819002 169.764308 320.959397 169.764308 
Q 319.099791 169.764308 319.099791 169.764308 
Q 319.099791 169.764308 320.959397 169.764308 
Q 322.819002 169.764308 326.452869 169.764308 
Q 330.104703 169.764308 331.964308 169.764308 
Q 333.823914 169.764308 333.823914 169.764308 
Q 333.823914 169.764308 332.939029 169.764308 
Q 332.054144 169.764308 330.369719 169.764308 
L 332.979455 169.764308 
L 330.145129 169.764308 
L 327.014344 169.764308 
z
M 326.452869 169.764308 
Q 324.867263 169.764308 324.1351 169.764308 
Q 323.407428 169.764308 323.407428 169.764308 
Q 323.407428 169.764308 324.1351 169.764308 
Q 324.867263 169.764308 326.452869 169.764308 
Q 328.05195 169.764308 328.779622 169.764308 
Q 329.511785 169.764308 329.511785 169.764308 
Q 329.511785 169.764308 328.779622 169.764308 
Q 328.05195 169.764308 326.452869 169.764308 
z
" style="fill: #e69f00"/>
   </g>
   <g id="text_91">
    <g id="patch_85">
     <path d="M 317.806153 184.738058 
L 361.152403 184.738058 
L 361.152403 115.055558 
L 317.806153 115.055558 
L 317.806153 184.738058 
z
" style="fill: none"/>
    </g>
    <path d="M 333.217521 169.764308 
L 320.164348 169.764308 
L 320.164348 169.764308 
L 333.217521 169.764308 
L 333.217521 169.764308 
L 324.305788 169.764308 
L 324.305788 169.764308 
L 332.377554 169.764308 
L 332.377554 169.764308 
L 324.305788 169.764308 
L 324.305788 169.764308 
L 333.217521 169.764308 
L 333.217521 169.764308 
z
" style="fill: #e69f00"/>
   </g>
   <g id="text_92">
    <g id="patch_86">
     <path d="M 317.806153 184.738058 
L 361.152403 184.738058 
L 361.152403 115.055558 
L 317.806153 115.055558 
L 317.806153 184.738058 
z
" style="fill: none"/>
    </g>
    <path d="M 319.014447 169.764308 
L 323.955428 169.764308 
L 326.452869 169.764308 
L 328.936835 169.764308 
L 333.904766 169.764308 
L 333.904766 169.764308 
L 330.342768 169.764308 
L 330.342768 169.764308 
L 328.123819 169.764308 
L 324.826837 169.764308 
L 322.580937 169.764308 
L 322.580937 169.764308 
L 319.014447 169.764308 
L 319.014447 169.764308 
z
" style="fill: #e69f00"/>
   </g>
   <g id="text_93">
    <g id="patch_87">
     <path d="M 317.806153 184.738058 
L 361.152403 184.738058 
L 361.152403 115.055558 
L 317.806153 115.055558 
L 317.806153 184.738058 
z
" style="fill: none"/>
    </g>
    <path d="M 329.134474 169.764308 
Q 329.749851 169.764308 330.208014 169.764308 
Q 330.666178 169.764308 331.321981 169.764308 
L 335.11306 169.764308 
L 330.567358 169.764308 
L 328.038475 169.764308 
Q 327.92618 169.764308 327.746508 169.764308 
Q 326.637033 169.764308 325.13228 169.764308 
L 323.816182 169.764308 
L 323.816182 169.764308 
L 319.674742 169.764308 
L 319.674742 169.764308 
L 325.653328 169.764308 
Q 329.695949 169.764308 331.456735 169.764308 
Q 333.217521 169.764308 333.217521 169.764308 
Q 333.217521 169.764308 332.166439 169.764308 
Q 331.115358 169.764308 329.134474 169.764308 
z
M 323.816182 169.764308 
L 323.816182 169.764308 
L 325.765623 169.764308 
Q 327.463524 169.764308 328.200179 169.764308 
Q 328.936835 169.764308 328.936835 169.764308 
Q 328.936835 169.764308 328.204671 169.764308 
Q 327.476999 169.764308 325.765623 169.764308 
L 323.816182 169.764308 
z
" style="fill: #e69f00"/>
   </g>
   <g id="text_94">
    <g id="patch_88">
     <path d="M 317.806153 184.738058 
L 361.152403 184.738058 
L 361.152403 115.055558 
L 317.806153 115.055558 
L 317.806153 184.738058 
z
" style="fill: none"/>
    </g>
    <path d="M 320.222742 169.764308 
L 320.222742 169.764308 
L 332.700964 169.764308 
L 332.700964 169.764308 
L 328.532573 169.764308 
L 328.532573 169.764308 
L 332.700964 169.764308 
L 332.700964 169.764308 
L 320.222742 169.764308 
L 320.222742 169.764308 
L 324.391132 169.764308 
L 324.391132 169.764308 
L 320.222742 169.764308 
z
" style="fill: #e69f00"/>
   </g>
   <g id="text_95">
    <g id="patch_89">
     <path d="M 317.806153 184.738058 
L 361.152403 184.738058 
L 361.152403 115.055558 
L 317.806153 115.055558 
L 317.806153 184.738058 
z
" style="fill: none"/>
    </g>
    <path d="M 333.41516 169.764308 
L 324.503427 169.764308 
L 324.503427 169.764308 
L 332.615619 169.764308 
L 332.615619 169.764308 
L 324.503427 169.764308 
L 324.503427 169.764308 
L 320.361987 169.764308 
L 320.361987 169.764308 
L 333.41516 169.764308 
L 333.41516 169.764308 
z
" style="fill: #e69f00"/>
   </g>
   <g id="text_96">
    <g id="patch_90">
     <path d="M 317.806153 184.738058 
L 361.152403 184.738058 
L 361.152403 115.055558 
L 317.806153 115.055558 
L 317.806153 184.738058 
z
" style="fill: none"/>
    </g>
    <path d="M 328.532573 169.764308 
L 324.391132 169.764308 
L 324.391132 169.764308 
L 319.068349 169.764308 
L 319.068349 169.764308 
L 333.850865 169.764308 
L 333.850865 169.764308 
L 328.532573 169.764308 
L 328.532573 169.764308 
z
" style="fill: #e69f00"/>
   </g>
   <g id="text_97">
    <g id="patch_91">
     <path d="M 317.806153 184.738058 
L 361.152403 184.738058 
L 361.152403 115.055558 
L 317.806153 115.055558 
L 317.806153 184.738058 
z
" style="fill: none"/>
    </g>
    <path d="M 317.918448 169.764308 
L 322.383298 169.764308 
L 326.452869 169.764308 
L 330.535916 169.764308 
L 335.000765 169.764308 
L 328.532573 169.764308 
L 328.532573 169.764308 
L 324.391132 169.764308 
L 324.391132 169.764308 
L 317.918448 169.764308 
z
" style="fill: #e69f00"/>
   </g>
   <g id="text_98">
    <g id="patch_92">
     <path d="M 317.806153 184.738058 
L 361.152403 184.738058 
L 361.152403 115.055558 
L 317.806153 115.055558 
L 317.806153 184.738058 
z
" style="fill: none"/>
    </g>
    <path d="M 326.452869 169.764308 
L 324.503427 169.764308 
L 328.420278 169.764308 
L 326.452869 169.764308 
z
M 323.928477 169.764308 
L 328.995228 169.764308 
L 334.650405 169.764308 
L 330.508965 169.764308 
L 329.219818 169.764308 
L 323.672444 169.764308 
L 322.410248 169.764308 
L 318.268808 169.764308 
L 323.928477 169.764308 
z
" style="fill: #e69f00"/>
   </g>
   <g id="text_99">
    <g id="patch_93">
     <path d="M 317.806153 184.422016 
L 361.152403 184.422016 
L 361.152403 114.739516 
L 317.806153 114.739516 
L 317.806153 184.422016 
z
" style="fill: none"/>
    </g>
    <path d="M 320.963889 169.447783 
L 320.963889 169.187176 
L 325.105329 169.187176 
L 325.105329 169.402309 
L 333.96316 169.402309 
L 333.96316 169.447783 
L 320.963889 169.447783 
z
" style="fill: #e69f00"/>
   </g>
   <g id="text_100">
    <g id="patch_94">
     <path d="M 317.806153 183.80279 
L 361.152403 183.80279 
L 361.152403 114.12029 
L 317.806153 114.12029 
L 317.806153 183.80279 
z
" style="fill: none"/>
    </g>
    <path d="M 319.477103 168.539892 
L 323.928477 168.539892 
L 329.767818 168.749722 
L 329.767818 168.539892 
L 333.41516 168.539892 
L 333.41516 168.828505 
L 328.995228 168.828505 
L 323.124445 168.618675 
L 323.124445 168.828505 
L 319.477103 168.828505 
L 319.477103 168.539892 
z
" style="fill: #e69f00"/>
   </g>
   <g id="text_101">
    <g id="patch_95">
     <path d="M 317.806153 176.899639 
L 361.152403 176.899639 
L 361.152403 107.217139 
L 317.806153 107.217139 
L 317.806153 176.899639 
z
" style="fill: none"/>
    </g>
    <path d="M 323.870084 65.700109 
L 323.870084 140.860701 
L 324.993034 140.860701 
Q 327.436573 140.860701 328.474179 132.290178 
Q 329.511785 123.695581 329.511785 103.160032 
Q 329.511785 82.76893 328.474179 74.246556 
Q 327.436573 65.700109 324.993034 65.700109 
L 323.870084 65.700109 
z
M 319.728643 44.851591 
L 324.166542 44.851591 
Q 329.300671 44.851591 331.560046 58.525907 
Q 333.823914 72.176149 333.823914 103.160032 
Q 333.823914 134.240213 331.560046 147.986753 
Q 329.300671 161.709218 324.166542 161.709218 
L 319.728643 161.709218 
L 319.728643 44.851591 
z
" style="fill: #e69f00"/>
   </g>
   <g id="text_102">
    <!-- Z3022 -->
    <g transform="translate(234.939743 27.478594) scale(0.255 -0.255)">
     <use xlink:href="#DejaVuSans-5a"/>
     <use xlink:href="#DejaVuSans-33" x="68.505859"/>
     <use xlink:href="#DejaVuSans-30" x="132.128906"/>
     <use xlink:href="#DejaVuSans-32" x="195.751953"/>
     <use xlink:href="#DejaVuSans-32" x="259.375"/>
    </g>
   </g>
  </g>
  <g id="text_103">
   <!-- site -->
   <g transform="translate(174.682027 255.875) scale(0.255 -0.255)">
    <defs>
     <path id="DejaVuSans-73" d="M 2834 3397 
L 2834 2853 
Q 2591 2978 2328 3040 
Q 2066 3103 1784 3103 
Q 1356 3103 1142 2972 
Q 928 2841 928 2578 
Q 928 2378 1081 2264 
Q 1234 2150 1697 2047 
L 1894 2003 
Q 2506 1872 2764 1633 
Q 3022 1394 3022 966 
Q 3022 478 2636 193 
Q 2250 -91 1575 -91 
Q 1294 -91 989 -36 
Q 684 19 347 128 
L 347 722 
Q 666 556 975 473 
Q 1284 391 1588 391 
Q 1994 391 2212 530 
Q 2431 669 2431 922 
Q 2431 1156 2273 1281 
Q 2116 1406 1581 1522 
L 1381 1569 
Q 847 1681 609 1914 
Q 372 2147 372 2553 
Q 372 3047 722 3315 
Q 1072 3584 1716 3584 
Q 2034 3584 2315 3537 
Q 2597 3491 2834 3397 
z
" transform="scale(0.015625)"/>
     <path id="DejaVuSans-69" d="M 603 3500 
L 1178 3500 
L 1178 0 
L 603 0 
L 603 3500 
z
M 603 4863 
L 1178 4863 
L 1178 4134 
L 603 4134 
L 603 4863 
z
" transform="scale(0.015625)"/>
     <path id="DejaVuSans-74" d="M 1172 4494 
L 1172 3500 
L 2356 3500 
L 2356 3053 
L 1172 3053 
L 1172 1153 
Q 1172 725 1289 603 
Q 1406 481 1766 481 
L 2356 481 
L 2356 0 
L 1766 0 
Q 1100 0 847 248 
Q 594 497 594 1153 
L 594 3053 
L 172 3053 
L 172 3500 
L 594 3500 
L 594 4494 
L 1172 4494 
z
" transform="scale(0.015625)"/>
     <path id="DejaVuSans-65" d="M 3597 1894 
L 3597 1613 
L 953 1613 
Q 991 1019 1311 708 
Q 1631 397 2203 397 
Q 2534 397 2845 478 
Q 3156 559 3463 722 
L 3463 178 
Q 3153 47 2828 -22 
Q 2503 -91 2169 -91 
Q 1331 -91 842 396 
Q 353 884 353 1716 
Q 353 2575 817 3079 
Q 1281 3584 2069 3584 
Q 2775 3584 3186 3129 
Q 3597 2675 3597 1894 
z
M 3022 2063 
Q 3016 2534 2758 2815 
Q 2500 3097 2075 3097 
Q 1594 3097 1305 2825 
Q 1016 2553 972 2059 
L 3022 2063 
z
" transform="scale(0.015625)"/>
    </defs>
    <use xlink:href="#DejaVuSans-73"/>
    <use xlink:href="#DejaVuSans-69" x="52.099609"/>
    <use xlink:href="#DejaVuSans-74" x="79.882812"/>
    <use xlink:href="#DejaVuSans-65" x="119.091797"/>
   </g>
  </g>
  <g id="text_104">
   <!-- escape fraction -->
   <g transform="translate(26.576016 203.757187) rotate(-90) scale(0.255 -0.255)">
    <defs>
     <path id="DejaVuSans-63" d="M 3122 3366 
L 3122 2828 
Q 2878 2963 2633 3030 
Q 2388 3097 2138 3097 
Q 1578 3097 1268 2742 
Q 959 2388 959 1747 
Q 959 1106 1268 751 
Q 1578 397 2138 397 
Q 2388 397 2633 464 
Q 2878 531 3122 666 
L 3122 134 
Q 2881 22 2623 -34 
Q 2366 -91 2075 -91 
Q 1284 -91 818 406 
Q 353 903 353 1747 
Q 353 2603 823 3093 
Q 1294 3584 2113 3584 
Q 2378 3584 2631 3529 
Q 2884 3475 3122 3366 
z
" transform="scale(0.015625)"/>
     <path id="DejaVuSans-61" d="M 2194 1759 
Q 1497 1759 1228 1600 
Q 959 1441 959 1056 
Q 959 750 1161 570 
Q 1363 391 1709 391 
Q 2188 391 2477 730 
Q 2766 1069 2766 1631 
L 2766 1759 
L 2194 1759 
z
M 3341 1997 
L 3341 0 
L 2766 0 
L 2766 531 
Q 2569 213 2275 61 
Q 1981 -91 1556 -91 
Q 1019 -91 701 211 
Q 384 513 384 1019 
Q 384 1609 779 1909 
Q 1175 2209 1959 2209 
L 2766 2209 
L 2766 2266 
Q 2766 2663 2505 2880 
Q 2244 3097 1772 3097 
Q 1472 3097 1187 3025 
Q 903 2953 641 2809 
L 641 3341 
Q 956 3463 1253 3523 
Q 1550 3584 1831 3584 
Q 2591 3584 2966 3190 
Q 3341 2797 3341 1997 
z
" transform="scale(0.015625)"/>
     <path id="DejaVuSans-70" d="M 1159 525 
L 1159 -1331 
L 581 -1331 
L 581 3500 
L 1159 3500 
L 1159 2969 
Q 1341 3281 1617 3432 
Q 1894 3584 2278 3584 
Q 2916 3584 3314 3078 
Q 3713 2572 3713 1747 
Q 3713 922 3314 415 
Q 2916 -91 2278 -91 
Q 1894 -91 1617 61 
Q 1341 213 1159 525 
z
M 3116 1747 
Q 3116 2381 2855 2742 
Q 2594 3103 2138 3103 
Q 1681 3103 1420 2742 
Q 1159 2381 1159 1747 
Q 1159 1113 1420 752 
Q 1681 391 2138 391 
Q 2594 391 2855 752 
Q 3116 1113 3116 1747 
z
" transform="scale(0.015625)"/>
     <path id="DejaVuSans-20" transform="scale(0.015625)"/>
     <path id="DejaVuSans-66" d="M 2375 4863 
L 2375 4384 
L 1825 4384 
Q 1516 4384 1395 4259 
Q 1275 4134 1275 3809 
L 1275 3500 
L 2222 3500 
L 2222 3053 
L 1275 3053 
L 1275 0 
L 697 0 
L 697 3053 
L 147 3053 
L 147 3500 
L 697 3500 
L 697 3744 
Q 697 4328 969 4595 
Q 1241 4863 1831 4863 
L 2375 4863 
z
" transform="scale(0.015625)"/>
     <path id="DejaVuSans-72" d="M 2631 2963 
Q 2534 3019 2420 3045 
Q 2306 3072 2169 3072 
Q 1681 3072 1420 2755 
Q 1159 2438 1159 1844 
L 1159 0 
L 581 0 
L 581 3500 
L 1159 3500 
L 1159 2956 
Q 1341 3275 1631 3429 
Q 1922 3584 2338 3584 
Q 2397 3584 2469 3576 
Q 2541 3569 2628 3553 
L 2631 2963 
z
" transform="scale(0.015625)"/>
     <path id="DejaVuSans-6f" d="M 1959 3097 
Q 1497 3097 1228 2736 
Q 959 2375 959 1747 
Q 959 1119 1226 758 
Q 1494 397 1959 397 
Q 2419 397 2687 759 
Q 2956 1122 2956 1747 
Q 2956 2369 2687 2733 
Q 2419 3097 1959 3097 
z
M 1959 3584 
Q 2709 3584 3137 3096 
Q 3566 2609 3566 1747 
Q 3566 888 3137 398 
Q 2709 -91 1959 -91 
Q 1206 -91 779 398 
Q 353 888 353 1747 
Q 353 2609 779 3096 
Q 1206 3584 1959 3584 
z
" transform="scale(0.015625)"/>
     <path id="DejaVuSans-6e" d="M 3513 2113 
L 3513 0 
L 2938 0 
L 2938 2094 
Q 2938 2591 2744 2837 
Q 2550 3084 2163 3084 
Q 1697 3084 1428 2787 
Q 1159 2491 1159 1978 
L 1159 0 
L 581 0 
L 581 3500 
L 1159 3500 
L 1159 2956 
Q 1366 3272 1645 3428 
Q 1925 3584 2291 3584 
Q 2894 3584 3203 3211 
Q 3513 2838 3513 2113 
z
" transform="scale(0.015625)"/>
    </defs>
    <use xlink:href="#DejaVuSans-65"/>
    <use xlink:href="#DejaVuSans-73" x="61.523438"/>
    <use xlink:href="#DejaVuSans-63" x="113.623047"/>
    <use xlink:href="#DejaVuSans-61" x="168.603516"/>
    <use xlink:href="#DejaVuSans-70" x="229.882812"/>
    <use xlink:href="#DejaVuSans-65" x="293.359375"/>
    <use xlink:href="#DejaVuSans-20" x="354.882812"/>
    <use xlink:href="#DejaVuSans-66" x="386.669922"/>
    <use xlink:href="#DejaVuSans-72" x="421.875"/>
    <use xlink:href="#DejaVuSans-61" x="462.988281"/>
    <use xlink:href="#DejaVuSans-63" x="524.267578"/>
    <use xlink:href="#DejaVuSans-74" x="579.248047"/>
    <use xlink:href="#DejaVuSans-69" x="618.457031"/>
    <use xlink:href="#DejaVuSans-6f" x="646.240234"/>
    <use xlink:href="#DejaVuSans-6e" x="707.421875"/>
   </g>
  </g>
 </g>
 <defs>
  <clipPath id="pa2160c50c6">
   <rect x="72.899609" y="33.478594" width="92.795183" height="144"/>
  </clipPath>
  <clipPath id="p7114263bf5">
   <rect x="214.430057" y="33.478594" width="123.384372" height="144"/>
  </clipPath>
 </defs>
</svg>
