<?xml version="1.0" encoding="utf-8" standalone="no"?>
<!DOCTYPE svg PUBLIC "-//W3C//DTD SVG 1.1//EN"
  "http://www.w3.org/Graphics/SVG/1.1/DTD/svg11.dtd">
<svg xmlns:xlink="http://www.w3.org/1999/xlink" width="292.03255pt" height="270.178203pt" viewBox="0 0 292.03255 270.178203" xmlns="http://www.w3.org/2000/svg" version="1.1">
 <metadata>
  <rdf:RDF xmlns:dc="http://purl.org/dc/elements/1.1/" xmlns:cc="http://creativecommons.org/ns#" xmlns:rdf="http://www.w3.org/1999/02/22-rdf-syntax-ns#">
   <cc:Work>
    <dc:type rdf:resource="http://purl.org/dc/dcmitype/StillImage"/>
    <dc:date>2025-12-18T15:42:40.819933</dc:date>
    <dc:format>image/svg+xml</dc:format>
    <dc:creator>
     <cc:Agent>
      <dc:title>Matplotlib v3.7.1, https://matplotlib.org/</dc:title>
     </cc:Agent>
    </dc:creator>
   </cc:Work>
  </rdf:RDF>
 </metadata>
 <defs>
  <style type="text/css">*{stroke-linejoin: round; stroke-linecap: butt}</style>
 </defs>
 <g id="figure_1">
  <g id="patch_1">
   <path d="M 0 270.178203 
L 292.03255 270.178203 
L 292.03255 0 
L 0 0 
L 0 270.178203 
z
" style="fill: none"/>
  </g>
  <g id="axes_1">
   <g id="patch_2">
    <path d="M 72.899609 177.478594 
L 161.238724 177.478594 
L 161.238724 33.478594 
L 72.899609 33.478594 
L 72.899609 177.478594 
z
" style="fill: none"/>
   </g>
   <g id="patch_3">
    <path d="M 98.53538 177.478594 
L 101.093939 177.478594 
L 101.093939 170.764308 
L 98.53538 170.764308 
z
" clip-path="url(#p7abb5d27d5)" style="fill: #cc79a7"/>
   </g>
   <g id="patch_4">
    <path d="M 117.238086 177.478594 
L 119.796645 177.478594 
L 119.796645 170.764308 
L 117.238086 170.764308 
z
" clip-path="url(#p7abb5d27d5)" style="fill: #cc79a7"/>
   </g>
   <g id="matplotlib.axis_1">
    <g id="xtick_1">
     <g id="line2d_1">
      <defs>
       <path id="m67dc7ae3b8" d="M 0 0 
L 0 5 
" style="stroke: #000000"/>
      </defs>
      <g>
       <use xlink:href="#m67dc7ae3b8" x="75.767358" y="177.478594" style="stroke: #000000"/>
      </g>
     </g>
     <g id="text_1">
      <!-- 300 -->
      <g transform="translate(80.734233 220.336094) rotate(-90) scale(0.18 -0.18)">
       <defs>
        <path id="DejaVuSans-33" d="M 2597 2516 
Q 3050 2419 3304 2112 
Q 3559 1806 3559 1356 
Q 3559 666 3084 287 
Q 2609 -91 1734 -91 
Q 1441 -91 1130 -33 
Q 819 25 488 141 
L 488 750 
Q 750 597 1062 519 
Q 1375 441 1716 441 
Q 2309 441 2620 675 
Q 2931 909 2931 1356 
Q 2931 1769 2642 2001 
Q 2353 2234 1838 2234 
L 1294 2234 
L 1294 2753 
L 1863 2753 
Q 2328 2753 2575 2939 
Q 2822 3125 2822 3475 
Q 2822 3834 2567 4026 
Q 2313 4219 1838 4219 
Q 1578 4219 1281 4162 
Q 984 4106 628 3988 
L 628 4550 
Q 988 4650 1302 4700 
Q 1616 4750 1894 4750 
Q 2613 4750 3031 4423 
Q 3450 4097 3450 3541 
Q 3450 3153 3228 2886 
Q 3006 2619 2597 2516 
z
" transform="scale(0.015625)"/>
        <path id="DejaVuSans-30" d="M 2034 4250 
Q 1547 4250 1301 3770 
Q 1056 3291 1056 2328 
Q 1056 1369 1301 889 
Q 1547 409 2034 409 
Q 2525 409 2770 889 
Q 3016 1369 3016 2328 
Q 3016 3291 2770 3770 
Q 2525 4250 2034 4250 
z
M 2034 4750 
Q 2819 4750 3233 4129 
Q 3647 3509 3647 2328 
Q 3647 1150 3233 529 
Q 2819 -91 2034 -91 
Q 1250 -91 836 529 
Q 422 1150 422 2328 
Q 422 3509 836 4129 
Q 1250 4750 2034 4750 
z
" transform="scale(0.015625)"/>
       </defs>
       <use xlink:href="#DejaVuSans-33"/>
       <use xlink:href="#DejaVuSans-30" x="63.623047"/>
       <use xlink:href="#DejaVuSans-30" x="127.246094"/>
      </g>
     </g>
    </g>
    <g id="xtick_2">
     <g id="line2d_2">
      <g>
       <use xlink:href="#m67dc7ae3b8" x="99.14574" y="177.478594" style="stroke: #000000"/>
      </g>
     </g>
     <g id="text_2">
      <!-- 330 -->
      <g transform="translate(104.112615 220.336094) rotate(-90) scale(0.18 -0.18)">
       <use xlink:href="#DejaVuSans-33"/>
       <use xlink:href="#DejaVuSans-33" x="63.623047"/>
       <use xlink:href="#DejaVuSans-30" x="127.246094"/>
      </g>
     </g>
    </g>
    <g id="xtick_3">
     <g id="line2d_3">
      <g>
       <use xlink:href="#m67dc7ae3b8" x="122.524123" y="177.478594" style="stroke: #000000"/>
      </g>
     </g>
     <g id="text_3">
      <!-- 360 -->
      <g transform="translate(127.490998 220.336094) rotate(-90) scale(0.18 -0.18)">
       <defs>
        <path id="DejaVuSans-36" d="M 2113 2584 
Q 1688 2584 1439 2293 
Q 1191 2003 1191 1497 
Q 1191 994 1439 701 
Q 1688 409 2113 409 
Q 2538 409 2786 701 
Q 3034 994 3034 1497 
Q 3034 2003 2786 2293 
Q 2538 2584 2113 2584 
z
M 3366 4563 
L 3366 3988 
Q 3128 4100 2886 4159 
Q 2644 4219 2406 4219 
Q 1781 4219 1451 3797 
Q 1122 3375 1075 2522 
Q 1259 2794 1537 2939 
Q 1816 3084 2150 3084 
Q 2853 3084 3261 2657 
Q 3669 2231 3669 1497 
Q 3669 778 3244 343 
Q 2819 -91 2113 -91 
Q 1303 -91 875 529 
Q 447 1150 447 2328 
Q 447 3434 972 4092 
Q 1497 4750 2381 4750 
Q 2619 4750 2861 4703 
Q 3103 4656 3366 4563 
z
" transform="scale(0.015625)"/>
       </defs>
       <use xlink:href="#DejaVuSans-33"/>
       <use xlink:href="#DejaVuSans-36" x="63.623047"/>
       <use xlink:href="#DejaVuSans-30" x="127.246094"/>
      </g>
     </g>
    </g>
    <g id="xtick_4">
     <g id="line2d_4">
      <g>
       <use xlink:href="#m67dc7ae3b8" x="145.902505" y="177.478594" style="stroke: #000000"/>
      </g>
     </g>
     <g id="text_4">
      <!-- 390 -->
      <g transform="translate(150.86938 220.336094) rotate(-90) scale(0.18 -0.18)">
       <defs>
        <path id="DejaVuSans-39" d="M 703 97 
L 703 672 
Q 941 559 1184 500 
Q 1428 441 1663 441 
Q 2288 441 2617 861 
Q 2947 1281 2994 2138 
Q 2813 1869 2534 1725 
Q 2256 1581 1919 1581 
Q 1219 1581 811 2004 
Q 403 2428 403 3163 
Q 403 3881 828 4315 
Q 1253 4750 1959 4750 
Q 2769 4750 3195 4129 
Q 3622 3509 3622 2328 
Q 3622 1225 3098 567 
Q 2575 -91 1691 -91 
Q 1453 -91 1209 -44 
Q 966 3 703 97 
z
M 1959 2075 
Q 2384 2075 2632 2365 
Q 2881 2656 2881 3163 
Q 2881 3666 2632 3958 
Q 2384 4250 1959 4250 
Q 1534 4250 1286 3958 
Q 1038 3666 1038 3163 
Q 1038 2656 1286 2365 
Q 1534 2075 1959 2075 
z
" transform="scale(0.015625)"/>
       </defs>
       <use xlink:href="#DejaVuSans-33"/>
       <use xlink:href="#DejaVuSans-39" x="63.623047"/>
       <use xlink:href="#DejaVuSans-30" x="127.246094"/>
      </g>
     </g>
    </g>
   </g>
   <g id="matplotlib.axis_2">
    <g id="ytick_1">
     <g id="line2d_5">
      <defs>
       <path id="m20a9a7e5a1" d="M 0 0 
L -5 0 
" style="stroke: #000000"/>
      </defs>
      <g>
       <use xlink:href="#m20a9a7e5a1" x="72.899609" y="169.764308" style="stroke: #000000"/>
      </g>
     </g>
     <g id="text_5">
      <!-- 0.0 -->
      <g transform="translate(35.773984 176.602902) scale(0.18 -0.18)">
       <defs>
        <path id="DejaVuSans-2e" d="M 684 794 
L 1344 794 
L 1344 0 
L 684 0 
L 684 794 
z
" transform="scale(0.015625)"/>
       </defs>
       <use xlink:href="#DejaVuSans-30"/>
       <use xlink:href="#DejaVuSans-2e" x="63.623047"/>
       <use xlink:href="#DejaVuSans-30" x="95.410156"/>
      </g>
     </g>
    </g>
    <g id="ytick_2">
     <g id="line2d_6">
      <g>
       <use xlink:href="#m20a9a7e5a1" x="72.899609" y="131.192879" style="stroke: #000000"/>
      </g>
     </g>
     <g id="text_6">
      <!-- 0.3 -->
      <g transform="translate(35.773984 138.031473) scale(0.18 -0.18)">
       <use xlink:href="#DejaVuSans-30"/>
       <use xlink:href="#DejaVuSans-2e" x="63.623047"/>
       <use xlink:href="#DejaVuSans-33" x="95.410156"/>
      </g>
     </g>
    </g>
    <g id="ytick_3">
     <g id="line2d_7">
      <g>
       <use xlink:href="#m20a9a7e5a1" x="72.899609" y="92.621451" style="stroke: #000000"/>
      </g>
     </g>
     <g id="text_7">
      <!-- 0.6 -->
      <g transform="translate(35.773984 99.460045) scale(0.18 -0.18)">
       <use xlink:href="#DejaVuSans-30"/>
       <use xlink:href="#DejaVuSans-2e" x="63.623047"/>
       <use xlink:href="#DejaVuSans-36" x="95.410156"/>
      </g>
     </g>
    </g>
    <g id="ytick_4">
     <g id="line2d_8">
      <g>
       <use xlink:href="#m20a9a7e5a1" x="72.899609" y="54.050022" style="stroke: #000000"/>
      </g>
     </g>
     <g id="text_8">
      <!-- 0.9 -->
      <g transform="translate(35.773984 60.888616) scale(0.18 -0.18)">
       <use xlink:href="#DejaVuSans-30"/>
       <use xlink:href="#DejaVuSans-2e" x="63.623047"/>
       <use xlink:href="#DejaVuSans-39" x="95.410156"/>
      </g>
     </g>
    </g>
   </g>
   <g id="line2d_9">
    <path d="M 74.598439 148.434308 
L 75.377718 148.434308 
L 75.377718 149.630022 
L 76.156997 149.630022 
L 76.156997 169.764308 
L 76.936277 169.764308 
L 76.936277 135.667165 
L 77.715556 135.667165 
L 77.715556 155.814308 
L 78.494836 155.814308 
L 78.494836 148.742879 
L 79.274115 148.742879 
L 79.274115 166.146308 
L 80.053394 166.146308 
L 80.053394 159.509451 
L 80.832674 159.509451 
L 80.832674 153.770022 
L 81.611953 153.770022 
L 81.611953 169.764308 
L 82.391233 169.764308 
L 82.391233 165.431451 
L 83.170512 165.431451 
L 83.170512 168.899537 
L 83.949792 168.899537 
L 83.949792 154.554308 
L 84.729071 154.554308 
L 84.729071 160.295022 
L 85.50835 160.295022 
L 85.50835 139.472879 
L 86.28763 139.472879 
L 86.28763 169.757233 
L 87.846189 169.764073 
L 87.846189 168.146879 
L 88.625468 168.146879 
L 88.625468 169.764308 
L 90.184027 169.76281 
L 90.184027 169.090337 
L 90.963306 169.090337 
L 90.963306 163.181451 
L 91.742586 163.181451 
L 91.742586 165.767022 
L 92.521865 165.767022 
L 92.521865 169.764308 
L 93.301145 169.764308 
L 93.301145 168.840265 
L 94.080424 168.840265 
L 94.080424 166.543594 
L 94.859703 166.543594 
L 94.859703 158.365165 
L 95.638983 158.365165 
L 95.638983 169.754094 
L 99.53538 169.76064 
L 99.53538 115.777165 
L 100.314659 115.777165 
L 100.314659 169.764308 
L 101.093939 169.764308 
L 101.093939 157.430451 
L 101.873218 157.430451 
L 101.873218 169.764308 
L 102.652498 169.764308 
L 102.652498 165.710451 
L 103.431777 165.710451 
L 103.431777 168.708608 
L 104.211056 168.708608 
L 104.211056 169.764308 
L 106.548895 169.764308 
L 106.548895 160.667879 
L 107.328174 160.667879 
L 107.328174 169.753367 
L 108.107454 169.753367 
L 108.107454 164.255022 
L 108.886733 164.255022 
L 108.886733 165.270737 
L 109.666012 165.270737 
L 109.666012 169.763294 
L 110.445292 169.763294 
L 110.445292 155.235737 
L 111.224571 155.235737 
L 111.224571 162.070594 
L 112.003851 162.070594 
L 112.003851 138.945737 
L 112.78313 138.945737 
L 112.78313 167.252022 
L 113.56241 167.252022 
L 113.56241 165.503451 
L 114.341689 165.503451 
L 114.341689 144.628594 
L 115.120968 144.628594 
L 115.120968 152.188594 
L 115.900248 152.188594 
L 115.900248 162.017879 
L 116.679527 162.017879 
L 116.679527 161.299165 
L 117.458807 161.299165 
L 117.458807 167.433308 
L 118.238086 167.433308 
L 118.238086 41.192879 
L 119.017365 41.192879 
L 119.017365 169.707621 
L 122.134483 169.763245 
L 122.134483 168.537608 
L 122.913763 168.537608 
L 122.913763 162.735308 
L 123.693042 162.735308 
L 123.693042 161.888022 
L 124.472321 161.888022 
L 124.472321 167.657022 
L 125.251601 167.657022 
L 125.251601 163.112022 
L 126.03088 163.112022 
L 126.03088 169.762647 
L 126.81016 169.762647 
L 126.81016 167.298308 
L 127.589439 167.298308 
L 127.589439 169.088922 
L 128.368719 169.088922 
L 128.368719 169.617865 
L 129.147998 169.617865 
L 129.147998 158.660879 
L 129.927277 158.660879 
L 129.927277 166.089737 
L 130.706557 166.089737 
L 130.706557 169.764308 
L 134.602954 169.762115 
L 134.602954 168.478594 
L 135.382233 168.478594 
L 135.382233 169.760727 
L 136.161513 169.760727 
L 136.161513 169.636894 
L 136.940792 169.636894 
L 136.940792 169.757319 
L 137.720072 169.757319 
L 137.720072 168.496208 
L 138.499351 168.496208 
L 138.499351 169.672765 
L 139.27863 169.672765 
L 139.27863 154.142879 
L 140.05791 154.142879 
L 140.05791 166.002308 
L 140.837189 166.002308 
L 140.837189 165.786308 
L 141.616469 165.786308 
L 141.616469 164.719165 
L 142.395748 164.719165 
L 142.395748 169.734389 
L 143.954307 169.734698 
L 143.954307 168.320451 
L 144.733586 168.320451 
L 144.733586 169.75544 
L 146.292145 169.762705 
L 146.292145 162.093737 
L 147.071425 162.093737 
L 147.071425 162.393308 
L 147.850704 162.393308 
L 147.850704 161.646308 
L 148.629983 161.646308 
L 148.629983 152.844308 
L 149.409263 152.844308 
L 149.409263 163.913022 
L 150.188542 163.913022 
L 150.188542 166.877879 
L 151.747101 166.964022 
L 151.747101 164.802737 
L 152.526381 164.802737 
L 152.526381 166.472879 
L 153.30566 166.472879 
L 153.30566 169.757647 
L 154.084939 169.757647 
L 154.084939 165.016165 
L 154.864219 165.016165 
L 154.864219 162.997594 
L 155.643498 162.997594 
L 155.643498 154.965737 
L 156.422778 154.965737 
L 156.422778 157.001022 
L 157.202057 157.001022 
L 157.202057 165.940594 
L 157.981336 165.940594 
L 157.981336 151.815737 
L 158.760616 151.815737 
L 158.760616 154.400022 
L 159.539895 154.400022 
L 159.539895 154.400022 
" clip-path="url(#p7abb5d27d5)" style="fill: none; stroke: #000000; stroke-linecap: square"/>
   </g>
   <g id="patch_5">
    <path d="M 72.899609 177.478594 
L 72.899609 33.478594 
" style="fill: none; stroke: #000000; stroke-width: 0.8; stroke-linejoin: miter; stroke-linecap: square"/>
   </g>
   <g id="patch_6">
    <path d="M 72.899609 177.478594 
L 161.238724 177.478594 
" style="fill: none; stroke: #000000; stroke-width: 0.8; stroke-linejoin: miter; stroke-linecap: square"/>
   </g>
   <g id="text_9">
    <!-- Z6161 -->
    <g transform="translate(75.886667 27.478594) scale(0.255 -0.255)">
     <defs>
      <path id="DejaVuSans-5a" d="M 359 4666 
L 4025 4666 
L 4025 4184 
L 1075 531 
L 4097 531 
L 4097 0 
L 288 0 
L 288 481 
L 3238 4134 
L 359 4134 
L 359 4666 
z
" transform="scale(0.015625)"/>
      <path id="DejaVuSans-31" d="M 794 531 
L 1825 531 
L 1825 4091 
L 703 3866 
L 703 4441 
L 1819 4666 
L 2450 4666 
L 2450 531 
L 3481 531 
L 3481 0 
L 794 0 
L 794 531 
z
" transform="scale(0.015625)"/>
     </defs>
     <use xlink:href="#DejaVuSans-5a"/>
     <use xlink:href="#DejaVuSans-36" x="68.505859"/>
     <use xlink:href="#DejaVuSans-31" x="132.128906"/>
     <use xlink:href="#DejaVuSans-36" x="195.751953"/>
     <use xlink:href="#DejaVuSans-31" x="259.375"/>
    </g>
   </g>
  </g>
  <g id="axes_2">
   <g id="patch_7">
    <path d="M 203.484731 177.478594 
L 262.214429 177.478594 
L 262.214429 33.478594 
L 203.484731 33.478594 
L 203.484731 177.478594 
z
" style="fill: none"/>
   </g>
   <g id="matplotlib.axis_3">
    <g id="xtick_5">
     <g id="line2d_10">
      <g>
       <use xlink:href="#m67dc7ae3b8" x="215.576139" y="177.478594" style="stroke: #000000"/>
      </g>
     </g>
     <g id="text_10">
      <!-- Q331 -->
      <g transform="translate(220.543014 234.505469) rotate(-90) scale(0.18 -0.18)">
       <defs>
        <path id="DejaVuSans-51" d="M 2522 4238 
Q 1834 4238 1429 3725 
Q 1025 3213 1025 2328 
Q 1025 1447 1429 934 
Q 1834 422 2522 422 
Q 3209 422 3611 934 
Q 4013 1447 4013 2328 
Q 4013 3213 3611 3725 
Q 3209 4238 2522 4238 
z
M 3406 84 
L 4238 -825 
L 3475 -825 
L 2784 -78 
Q 2681 -84 2626 -87 
Q 2572 -91 2522 -91 
Q 1538 -91 948 567 
Q 359 1225 359 2328 
Q 359 3434 948 4092 
Q 1538 4750 2522 4750 
Q 3503 4750 4090 4092 
Q 4678 3434 4678 2328 
Q 4678 1516 4351 937 
Q 4025 359 3406 84 
z
" transform="scale(0.015625)"/>
       </defs>
       <use xlink:href="#DejaVuSans-51"/>
       <use xlink:href="#DejaVuSans-33" x="78.710938"/>
       <use xlink:href="#DejaVuSans-33" x="142.333984"/>
       <use xlink:href="#DejaVuSans-31" x="205.957031"/>
      </g>
     </g>
    </g>
    <g id="xtick_6">
     <g id="line2d_11">
      <g>
       <use xlink:href="#m67dc7ae3b8" x="250.123021" y="177.478594" style="stroke: #000000"/>
      </g>
     </g>
     <g id="text_11">
      <!-- V355 -->
      <g transform="translate(255.089896 232.649219) rotate(-90) scale(0.18 -0.18)">
       <defs>
        <path id="DejaVuSans-56" d="M 1831 0 
L 50 4666 
L 709 4666 
L 2188 738 
L 3669 4666 
L 4325 4666 
L 2547 0 
L 1831 0 
z
" transform="scale(0.015625)"/>
        <path id="DejaVuSans-35" d="M 691 4666 
L 3169 4666 
L 3169 4134 
L 1269 4134 
L 1269 2991 
Q 1406 3038 1543 3061 
Q 1681 3084 1819 3084 
Q 2600 3084 3056 2656 
Q 3513 2228 3513 1497 
Q 3513 744 3044 326 
Q 2575 -91 1722 -91 
Q 1428 -91 1123 -41 
Q 819 9 494 109 
L 494 744 
Q 775 591 1075 516 
Q 1375 441 1709 441 
Q 2250 441 2565 725 
Q 2881 1009 2881 1497 
Q 2881 1984 2565 2268 
Q 2250 2553 1709 2553 
Q 1456 2553 1204 2497 
Q 953 2441 691 2322 
L 691 4666 
z
" transform="scale(0.015625)"/>
       </defs>
       <use xlink:href="#DejaVuSans-56"/>
       <use xlink:href="#DejaVuSans-33" x="68.408203"/>
       <use xlink:href="#DejaVuSans-35" x="132.03125"/>
       <use xlink:href="#DejaVuSans-35" x="195.654297"/>
      </g>
     </g>
    </g>
   </g>
   <g id="matplotlib.axis_4">
    <g id="ytick_5">
     <g id="line2d_12">
      <g>
       <use xlink:href="#m20a9a7e5a1" x="203.484731" y="169.764308" style="stroke: #000000"/>
      </g>
     </g>
     <g id="text_12">
      <!-- 0.0 -->
      <g transform="translate(166.359106 176.602902) scale(0.18 -0.18)">
       <use xlink:href="#DejaVuSans-30"/>
       <use xlink:href="#DejaVuSans-2e" x="63.623047"/>
       <use xlink:href="#DejaVuSans-30" x="95.410156"/>
      </g>
     </g>
    </g>
    <g id="ytick_6">
     <g id="line2d_13">
      <g>
       <use xlink:href="#m20a9a7e5a1" x="203.484731" y="131.192879" style="stroke: #000000"/>
      </g>
     </g>
     <g id="text_13">
      <!-- 0.3 -->
      <g transform="translate(166.359106 138.031473) scale(0.18 -0.18)">
       <use xlink:href="#DejaVuSans-30"/>
       <use xlink:href="#DejaVuSans-2e" x="63.623047"/>
       <use xlink:href="#DejaVuSans-33" x="95.410156"/>
      </g>
     </g>
    </g>
    <g id="ytick_7">
     <g id="line2d_14">
      <g>
       <use xlink:href="#m20a9a7e5a1" x="203.484731" y="92.621451" style="stroke: #000000"/>
      </g>
     </g>
     <g id="text_14">
      <!-- 0.6 -->
      <g transform="translate(166.359106 99.460045) scale(0.18 -0.18)">
       <use xlink:href="#DejaVuSans-30"/>
       <use xlink:href="#DejaVuSans-2e" x="63.623047"/>
       <use xlink:href="#DejaVuSans-36" x="95.410156"/>
      </g>
     </g>
    </g>
    <g id="ytick_8">
     <g id="line2d_15">
      <g>
       <use xlink:href="#m20a9a7e5a1" x="203.484731" y="54.050022" style="stroke: #000000"/>
      </g>
     </g>
     <g id="text_15">
      <!-- 0.9 -->
      <g transform="translate(166.359106 60.888616) scale(0.18 -0.18)">
       <use xlink:href="#DejaVuSans-30"/>
       <use xlink:href="#DejaVuSans-2e" x="63.623047"/>
       <use xlink:href="#DejaVuSans-39" x="95.410156"/>
      </g>
     </g>
    </g>
   </g>
   <g id="line2d_16">
    <path d="M 232.84958 177.478594 
L 232.84958 33.478594 
" clip-path="url(#pbefe7fa960)" style="fill: none; stroke-dasharray: 2,5; stroke-dashoffset: 0; stroke: #000000"/>
   </g>
   <g id="patch_8">
    <path d="M 203.484731 177.478594 
L 203.484731 33.478594 
" style="fill: none; stroke: #000000; stroke-width: 0.8; stroke-linejoin: miter; stroke-linecap: square"/>
   </g>
   <g id="patch_9">
    <path d="M 203.484731 177.478594 
L 262.214429 177.478594 
" style="fill: none; stroke: #000000; stroke-width: 0.8; stroke-linejoin: miter; stroke-linecap: square"/>
   </g>
   <g id="text_16">
    <g id="patch_10">
     <path d="M 206.939419 184.738058 
L 250.285669 184.738058 
L 250.285669 115.055558 
L 206.939419 115.055558 
L 206.939419 184.738058 
z
" style="fill: none"/>
    </g>
    <path d="M 222.658622 169.764308 
Q 221.639527 169.764308 220.518056 169.764308 
Q 219.401239 169.764308 218.168086 169.764308 
Q 213.775271 169.764308 211.462529 169.764308 
Q 209.149787 169.764308 209.149787 169.764308 
Q 209.149787 169.764308 211.462529 169.764308 
Q 213.775271 169.764308 218.168086 169.764308 
Q 219.401239 169.764308 220.536669 169.764308 
Q 221.6721 169.764308 222.658622 169.764308 
L 222.658622 169.764308 
Q 221.555765 169.764308 220.513402 169.764308 
Q 219.475693 169.764308 218.368183 169.764308 
Q 216.013559 169.764308 214.812981 169.764308 
Q 213.612402 169.764308 213.612402 169.764308 
Q 213.612402 169.764308 214.812981 169.764308 
Q 216.013559 169.764308 218.368183 169.764308 
Q 219.475693 169.764308 220.513402 169.764308 
Q 221.555765 169.764308 222.658622 169.764308 
L 222.658622 169.764308 
z
" style="fill: #e69f00"/>
   </g>
   <g id="text_17">
    <g id="patch_11">
     <path d="M 206.939419 184.738058 
L 250.285669 184.738058 
L 250.285669 115.055558 
L 206.939419 115.055558 
L 206.939419 184.738058 
z
" style="fill: none"/>
    </g>
    <path d="M 208.642565 169.764308 
L 212.933005 169.764308 
L 212.933005 169.764308 
L 219.647869 169.764308 
L 224.506024 169.764308 
L 217.656212 169.764308 
L 224.752655 169.764308 
L 219.982914 169.764308 
L 214.836248 169.764308 
L 212.933005 169.764308 
L 212.933005 169.764308 
L 208.642565 169.764308 
L 208.642565 169.764308 
z
" style="fill: #e69f00"/>
   </g>
   <g id="text_18">
    <g id="patch_12">
     <path d="M 206.939419 184.738058 
L 250.285669 184.738058 
L 250.285669 115.055558 
L 206.939419 115.055558 
L 206.939419 184.738058 
z
" style="fill: none"/>
    </g>
    <path d="M 208.670486 169.764308 
L 213.28201 169.764308 
L 219.331437 169.764308 
L 219.331437 169.764308 
L 223.110003 169.764308 
L 223.110003 169.764308 
L 218.531052 169.764308 
L 212.449051 169.764308 
L 212.449051 169.764308 
L 208.670486 169.764308 
L 208.670486 169.764308 
z
" style="fill: #e69f00"/>
   </g>
   <g id="text_19">
    <g id="patch_13">
     <path d="M 206.939419 184.738058 
L 250.285669 184.738058 
L 250.285669 115.055558 
L 206.939419 115.055558 
L 206.939419 184.738058 
z
" style="fill: none"/>
    </g>
    <path d="M 213.584482 169.764308 
L 213.584482 169.764308 
L 215.343469 169.764308 
Q 217.451462 169.764308 218.303035 169.764308 
Q 219.154608 169.764308 219.154608 169.764308 
Q 219.154608 169.764308 218.303035 169.764308 
Q 217.451462 169.764308 215.343469 169.764308 
L 213.584482 169.764308 
z
M 209.294042 169.764308 
L 215.185253 169.764308 
Q 219.680443 169.764308 221.648833 169.764308 
Q 223.617224 169.764308 223.617224 169.764308 
Q 223.617224 169.764308 221.648833 169.764308 
Q 219.680443 169.764308 215.185253 169.764308 
L 213.584482 169.764308 
L 213.584482 169.764308 
L 209.294042 169.764308 
L 209.294042 169.764308 
z
" style="fill: #e69f00"/>
   </g>
   <g id="text_20">
    <g id="patch_14">
     <path d="M 206.939419 184.738058 
L 250.285669 184.738058 
L 250.285669 115.055558 
L 206.939419 115.055558 
L 206.939419 184.738058 
z
" style="fill: none"/>
    </g>
    <path d="M 214.356947 169.764308 
Q 211.113524 169.764308 209.964132 169.764308 
Q 208.814741 169.764308 208.814741 169.764308 
Q 208.814741 169.764308 210.704024 169.764308 
Q 212.59796 169.764308 215.897224 169.764308 
Q 217.395621 169.764308 218.894017 169.764308 
Q 220.392414 169.764308 221.858237 169.764308 
L 221.858237 169.764308 
Q 220.476175 169.764308 219.052233 169.764308 
Q 217.628291 169.764308 216.23227 169.764308 
Q 214.678032 169.764308 213.845073 169.764308 
Q 213.016766 169.764308 213.016766 169.764308 
Q 213.016766 169.764308 213.621709 169.764308 
Q 214.226652 169.764308 216.143855 169.764308 
L 217.991257 169.764308 
Q 220.611124 169.764308 221.844276 169.764308 
Q 223.082082 169.764308 223.082082 169.764308 
Q 223.082082 169.764308 221.136959 169.764308 
Q 219.196489 169.764308 215.273668 169.764308 
Q 213.658936 169.764308 212.034898 169.764308 
Q 210.415513 169.764308 208.903156 169.764308 
L 208.903156 169.764308 
Q 210.620263 169.764308 212.225687 169.764308 
Q 213.831112 169.764308 215.403963 169.764308 
Q 216.986121 169.764308 217.856308 169.764308 
Q 218.731148 169.764308 218.731148 169.764308 
Q 218.731148 169.764308 218.149473 169.764308 
Q 217.567797 169.764308 216.46494 169.764308 
L 214.356947 169.764308 
z
" style="fill: #e69f00"/>
   </g>
   <g id="text_21">
    <g id="patch_15">
     <path d="M 206.939419 184.738058 
L 250.285669 184.738058 
L 250.285669 115.055558 
L 206.939419 115.055558 
L 206.939419 184.738058 
z
" style="fill: none"/>
    </g>
    <path d="M 215.897224 169.764308 
L 219.722324 169.764308 
L 224.040684 169.764308 
L 218.880057 169.764308 
L 212.933005 169.764308 
L 207.767725 169.764308 
L 212.086085 169.764308 
L 215.897224 169.764308 
z
" style="fill: #e69f00"/>
   </g>
   <g id="text_22">
    <g id="patch_16">
     <path d="M 206.939419 184.738058 
L 250.285669 184.738058 
L 250.285669 115.055558 
L 206.939419 115.055558 
L 206.939419 184.738058 
z
" style="fill: none"/>
    </g>
    <path d="M 207.44664 169.764308 
L 210.983228 169.764308 
L 212.449051 169.764308 
L 214.226652 169.764308 
L 217.58641 169.764308 
L 219.633909 169.764308 
L 220.79726 169.764308 
L 224.361769 169.764308 
L 222.007146 169.764308 
L 218.223927 169.764308 
L 215.897224 169.764308 
L 213.714777 169.764308 
L 209.978093 169.764308 
L 207.44664 169.764308 
z
" style="fill: #e69f00"/>
   </g>
   <g id="text_23">
    <g id="patch_17">
     <path d="M 206.939419 184.738058 
L 250.285669 184.738058 
L 250.285669 115.055558 
L 206.939419 115.055558 
L 206.939419 184.738058 
z
" style="fill: none"/>
    </g>
    <path d="M 219.619949 169.764308 
L 219.619949 169.764308 
L 216.68365 169.764308 
L 216.68365 169.764308 
L 223.370593 169.764308 
L 223.370593 169.764308 
Q 222.137441 169.764308 220.643698 169.764308 
Q 219.154608 169.764308 217.451462 169.764308 
Q 213.235476 169.764308 210.936694 169.764308 
Q 208.642565 169.764308 208.642565 169.764308 
Q 208.642565 169.764308 210.959961 169.764308 
Q 213.28201 169.764308 217.656212 169.764308 
Q 218.963818 169.764308 220.229545 169.764308 
Q 221.495271 169.764308 222.602781 169.764308 
L 222.602781 169.764308 
Q 221.700021 169.764308 220.527363 169.764308 
Q 219.359358 169.764308 217.963336 169.764308 
Q 215.520298 169.764308 214.310413 169.764308 
Q 213.105181 169.764308 213.105181 169.764308 
Q 213.105181 169.764308 214.268532 169.764308 
Q 215.431884 169.764308 217.656212 169.764308 
Q 218.326302 169.764308 218.819563 169.764308 
Q 219.312824 169.764308 219.619949 169.764308 
z
" style="fill: #e69f00"/>
   </g>
   <g id="text_24">
    <g id="patch_18">
     <path d="M 206.939419 184.738058 
L 250.285669 184.738058 
L 250.285669 115.055558 
L 206.939419 115.055558 
L 206.939419 184.738058 
z
" style="fill: none"/>
    </g>
    <path d="M 208.931076 169.764308 
L 213.221516 169.764308 
L 213.221516 169.764308 
L 218.586893 169.764308 
L 218.586893 169.764308 
L 222.877332 169.764308 
L 222.877332 169.764308 
L 218.586893 169.764308 
L 218.586893 169.764308 
L 213.221516 169.764308 
L 213.221516 169.764308 
L 208.931076 169.764308 
L 208.931076 169.764308 
z
" style="fill: #e69f00"/>
   </g>
   <g id="text_25">
    <g id="patch_19">
     <path d="M 206.939419 184.738058 
L 250.285669 184.738058 
L 250.285669 115.055558 
L 206.939419 115.055558 
L 206.939419 184.738058 
z
" style="fill: none"/>
    </g>
    <path d="M 216.4789 169.764308 
Q 216.27415 169.764308 216.134548 169.764308 
Q 215.999599 169.764308 215.869304 169.764308 
Q 212.132619 169.764308 210.20611 169.764308 
Q 208.2796 169.764308 208.2796 169.764308 
Q 208.2796 169.764308 210.20611 169.764308 
Q 212.132619 169.764308 215.897224 169.764308 
Q 219.680443 169.764308 221.606953 169.764308 
Q 223.533463 169.764308 223.533463 169.764308 
Q 223.533463 169.764308 222.616742 169.764308 
Q 221.700021 169.764308 219.954994 169.764308 
L 222.658622 169.764308 
L 219.722324 169.764308 
L 216.4789 169.764308 
z
M 215.897224 169.764308 
Q 214.254572 169.764308 213.496067 169.764308 
Q 212.742215 169.764308 212.742215 169.764308 
Q 212.742215 169.764308 213.496067 169.764308 
Q 214.254572 169.764308 215.897224 169.764308 
Q 217.553837 169.764308 218.307688 169.764308 
Q 219.066193 169.764308 219.066193 169.764308 
Q 219.066193 169.764308 218.307688 169.764308 
Q 217.553837 169.764308 215.897224 169.764308 
z
" style="fill: #e69f00"/>
   </g>
   <g id="text_26">
    <g id="patch_20">
     <path d="M 206.939419 184.738058 
L 250.285669 184.738058 
L 250.285669 115.055558 
L 206.939419 115.055558 
L 206.939419 184.738058 
z
" style="fill: none"/>
    </g>
    <path d="M 222.905253 169.764308 
L 209.382457 169.764308 
L 209.382457 169.764308 
L 222.905253 169.764308 
L 222.905253 169.764308 
L 213.672897 169.764308 
L 213.672897 169.764308 
L 222.035066 169.764308 
L 222.035066 169.764308 
L 213.672897 169.764308 
L 213.672897 169.764308 
L 222.905253 169.764308 
L 222.905253 169.764308 
z
" style="fill: #e69f00"/>
   </g>
   <g id="text_27">
    <g id="patch_21">
     <path d="M 206.939419 184.738058 
L 250.285669 184.738058 
L 250.285669 115.055558 
L 206.939419 115.055558 
L 206.939419 184.738058 
z
" style="fill: none"/>
    </g>
    <path d="M 208.191185 169.764308 
L 213.309931 169.764308 
L 215.897224 169.764308 
L 218.470557 169.764308 
L 223.617224 169.764308 
L 223.617224 169.764308 
L 219.927073 169.764308 
L 219.927073 169.764308 
L 217.628291 169.764308 
L 214.212692 169.764308 
L 211.885989 169.764308 
L 211.885989 169.764308 
L 208.191185 169.764308 
L 208.191185 169.764308 
z
" style="fill: #e69f00"/>
   </g>
   <g id="text_28">
    <g id="patch_22">
     <path d="M 206.939419 184.738058 
L 250.285669 184.738058 
L 250.285669 115.055558 
L 206.939419 115.055558 
L 206.939419 184.738058 
z
" style="fill: none"/>
    </g>
    <path d="M 218.675307 169.764308 
Q 219.312824 169.764308 219.787471 169.764308 
Q 220.262119 169.764308 220.941516 169.764308 
L 224.86899 169.764308 
L 220.159744 169.764308 
L 217.539876 169.764308 
Q 217.423541 169.764308 217.237405 169.764308 
Q 216.088014 169.764308 214.529123 169.764308 
L 213.165675 169.764308 
L 213.165675 169.764308 
L 208.875236 169.764308 
L 208.875236 169.764308 
L 215.068918 169.764308 
Q 219.256983 169.764308 221.081118 169.764308 
Q 222.905253 169.764308 222.905253 169.764308 
Q 222.905253 169.764308 221.816356 169.764308 
Q 220.727459 169.764308 218.675307 169.764308 
z
M 213.165675 169.764308 
L 213.165675 169.764308 
L 215.185253 169.764308 
Q 216.944241 169.764308 217.707399 169.764308 
Q 218.470557 169.764308 218.470557 169.764308 
Q 218.470557 169.764308 217.712052 169.764308 
Q 216.958201 169.764308 215.185253 169.764308 
L 213.165675 169.764308 
z
" style="fill: #e69f00"/>
   </g>
   <g id="text_29">
    <g id="patch_23">
     <path d="M 206.939419 184.738058 
L 250.285669 184.738058 
L 250.285669 115.055558 
L 206.939419 115.055558 
L 206.939419 184.738058 
z
" style="fill: none"/>
    </g>
    <path d="M 209.442951 169.764308 
L 209.442951 169.764308 
L 222.370111 169.764308 
L 222.370111 169.764308 
L 218.051751 169.764308 
L 218.051751 169.764308 
L 222.370111 169.764308 
L 222.370111 169.764308 
L 209.442951 169.764308 
L 209.442951 169.764308 
L 213.761311 169.764308 
L 213.761311 169.764308 
L 209.442951 169.764308 
z
" style="fill: #e69f00"/>
   </g>
   <g id="text_30">
    <g id="patch_24">
     <path d="M 206.939419 184.738058 
L 250.285669 184.738058 
L 250.285669 115.055558 
L 206.939419 115.055558 
L 206.939419 184.738058 
z
" style="fill: none"/>
    </g>
    <path d="M 223.110003 169.764308 
L 213.877646 169.764308 
L 213.877646 169.764308 
L 222.281696 169.764308 
L 222.281696 169.764308 
L 213.877646 169.764308 
L 213.877646 169.764308 
L 209.587207 169.764308 
L 209.587207 169.764308 
L 223.110003 169.764308 
L 223.110003 169.764308 
z
" style="fill: #e69f00"/>
   </g>
   <g id="text_31">
    <g id="patch_25">
     <path d="M 206.939419 184.738058 
L 250.285669 184.738058 
L 250.285669 115.055558 
L 206.939419 115.055558 
L 206.939419 184.738058 
z
" style="fill: none"/>
    </g>
    <path d="M 207.055754 169.764308 
L 211.681239 169.764308 
L 215.897224 169.764308 
L 220.12717 169.764308 
L 224.752655 169.764308 
L 218.051751 169.764308 
L 218.051751 169.764308 
L 213.761311 169.764308 
L 213.761311 169.764308 
L 207.055754 169.764308 
z
" style="fill: #e69f00"/>
   </g>
   <g id="text_32">
    <g id="patch_26">
     <path d="M 206.939419 184.738058 
L 250.285669 184.738058 
L 250.285669 115.055558 
L 206.939419 115.055558 
L 206.939419 184.738058 
z
" style="fill: none"/>
    </g>
    <path d="M 215.897224 169.764308 
L 213.877646 169.764308 
L 217.935416 169.764308 
L 215.897224 169.764308 
z
M 213.28201 169.764308 
L 218.531052 169.764308 
L 224.389689 169.764308 
L 220.099249 169.764308 
L 218.763722 169.764308 
L 213.016766 169.764308 
L 211.709159 169.764308 
L 207.41872 169.764308 
L 213.28201 169.764308 
z
" style="fill: #e69f00"/>
   </g>
   <g id="text_33">
    <g id="patch_27">
     <path d="M 206.939419 184.738058 
L 250.285669 184.738058 
L 250.285669 115.055558 
L 206.939419 115.055558 
L 206.939419 184.738058 
z
" style="fill: none"/>
    </g>
    <path d="M 213.221516 169.764308 
L 213.221516 169.764308 
L 214.384868 169.764308 
Q 216.91632 169.764308 217.991257 169.764308 
Q 219.066193 169.764308 219.066193 169.764308 
Q 219.066193 169.764308 217.991257 169.764308 
Q 216.91632 169.764308 214.384868 169.764308 
L 213.221516 169.764308 
z
M 208.931076 169.764308 
L 213.528641 169.764308 
Q 218.847483 169.764308 221.188146 169.764308 
Q 223.533463 169.764308 223.533463 169.764308 
Q 223.533463 169.764308 221.188146 169.764308 
Q 218.847483 169.764308 213.528641 169.764308 
L 208.931076 169.764308 
L 208.931076 169.764308 
z
" style="fill: #e69f00"/>
   </g>
   <g id="text_34">
    <g id="patch_28">
     <path d="M 206.939419 184.737966 
L 250.285669 184.737966 
L 250.285669 115.055466 
L 206.939419 115.055466 
L 206.939419 184.737966 
z
" style="fill: none"/>
    </g>
    <path d="M 218.051751 169.764215 
L 213.761311 169.764215 
L 213.761311 169.764152 
L 208.247026 169.764152 
L 208.247026 169.764139 
L 223.561383 169.764139 
L 223.561383 169.764152 
L 218.051751 169.764152 
L 218.051751 169.764215 
z
" style="fill: #e69f00"/>
   </g>
   <g id="text_35">
    <g id="patch_29">
     <path d="M 206.939419 184.736972 
L 250.285669 184.736972 
L 250.285669 115.054472 
L 206.939419 115.054472 
L 206.939419 184.736972 
z
" style="fill: none"/>
    </g>
    <path d="M 210.210763 169.76322 
L 210.210763 169.762466 
L 214.501203 169.762466 
L 214.501203 169.763089 
L 223.677718 169.763089 
L 223.677718 169.76322 
L 210.210763 169.76322 
z
" style="fill: #e69f00"/>
   </g>
   <g id="text_36">
    <g id="patch_30">
     <path d="M 206.939419 181.064707 
L 250.285669 181.064707 
L 250.285669 111.382207 
L 206.939419 111.382207 
L 206.939419 181.064707 
z
" style="fill: none"/>
    </g>
    <path d="M 223.054162 132.847762 
L 218.251847 141.697897 
L 223.054162 150.628306 
L 221.946651 157.842871 
L 217.12107 148.400721 
L 217.12107 166.060854 
L 214.617538 166.060854 
L 214.617538 148.400721 
L 209.805917 157.842871 
L 208.698406 150.628306 
L 213.528641 141.697897 
L 208.698406 132.847762 
L 209.805917 125.613128 
L 214.617538 134.954937 
L 214.617538 117.294803 
L 217.12107 117.294803 
L 217.12107 134.954937 
L 221.946651 125.613128 
L 223.054162 132.847762 
z
" style="fill: #e69f00"/>
   </g>
   <g id="text_37">
    <g id="patch_31">
     <path d="M 241.4863 184.738058 
L 284.83255 184.738058 
L 284.83255 115.055558 
L 241.4863 115.055558 
L 241.4863 184.738058 
z
" style="fill: none"/>
    </g>
    <path d="M 257.205504 169.764308 
Q 256.186408 169.764308 255.064937 169.764308 
Q 253.94812 169.764308 252.714968 169.764308 
Q 248.322153 169.764308 246.00941 169.764308 
Q 243.696668 169.764308 243.696668 169.764308 
Q 243.696668 169.764308 246.00941 169.764308 
Q 248.322153 169.764308 252.714968 169.764308 
Q 253.94812 169.764308 255.083551 169.764308 
Q 256.218982 169.764308 257.205504 169.764308 
L 257.205504 169.764308 
Q 256.102647 169.764308 255.060284 169.764308 
Q 254.022575 169.764308 252.915064 169.764308 
Q 250.560441 169.764308 249.359862 169.764308 
Q 248.159284 169.764308 248.159284 169.764308 
Q 248.159284 169.764308 249.359862 169.764308 
Q 250.560441 169.764308 252.915064 169.764308 
Q 254.022575 169.764308 255.060284 169.764308 
Q 256.102647 169.764308 257.205504 169.764308 
L 257.205504 169.764308 
z
" style="fill: #004488"/>
   </g>
   <g id="text_38">
    <g id="patch_32">
     <path d="M 241.4863 184.738058 
L 284.83255 184.738058 
L 284.83255 115.055558 
L 241.4863 115.055558 
L 241.4863 184.738058 
z
" style="fill: none"/>
    </g>
    <path d="M 243.189447 169.764308 
L 247.479887 169.764308 
L 247.479887 169.764308 
L 254.194751 169.764308 
L 259.052906 169.764308 
L 252.203093 169.764308 
L 259.299536 169.764308 
L 254.529796 169.764308 
L 249.383129 169.764308 
L 247.479887 169.764308 
L 247.479887 169.764308 
L 243.189447 169.764308 
L 243.189447 169.764308 
z
" style="fill: #004488"/>
   </g>
   <g id="text_39">
    <g id="patch_33">
     <path d="M 241.4863 184.738058 
L 284.83255 184.738058 
L 284.83255 115.055558 
L 241.4863 115.055558 
L 241.4863 184.738058 
z
" style="fill: none"/>
    </g>
    <path d="M 244.757644 169.764308 
L 244.757644 169.764308 
L 249.048084 169.764308 
L 249.048084 169.764308 
L 258.2246 169.764308 
L 258.2246 169.764308 
L 244.757644 169.764308 
z
" style="fill: #004488"/>
   </g>
   <g id="text_40">
    <g id="patch_34">
     <path d="M 241.4863 184.738058 
L 284.83255 184.738058 
L 284.83255 115.055558 
L 241.4863 115.055558 
L 241.4863 184.738058 
z
" style="fill: none"/>
    </g>
    <path d="M 243.217367 169.764308 
L 247.828892 169.764308 
L 253.878319 169.764308 
L 253.878319 169.764308 
L 257.656884 169.764308 
L 257.656884 169.764308 
L 253.077933 169.764308 
L 246.995932 169.764308 
L 246.995932 169.764308 
L 243.217367 169.764308 
L 243.217367 169.764308 
z
" style="fill: #004488"/>
   </g>
   <g id="text_41">
    <g id="patch_35">
     <path d="M 241.4863 184.738058 
L 284.83255 184.738058 
L 284.83255 115.055558 
L 241.4863 115.055558 
L 241.4863 184.738058 
z
" style="fill: none"/>
    </g>
    <path d="M 248.131363 169.764308 
L 248.131363 169.764308 
L 249.890351 169.764308 
Q 251.998343 169.764308 252.849916 169.764308 
Q 253.70149 169.764308 253.70149 169.764308 
Q 253.70149 169.764308 252.849916 169.764308 
Q 251.998343 169.764308 249.890351 169.764308 
L 248.131363 169.764308 
z
M 243.840924 169.764308 
L 249.732135 169.764308 
Q 254.227324 169.764308 256.195715 169.764308 
Q 258.164105 169.764308 258.164105 169.764308 
Q 258.164105 169.764308 256.195715 169.764308 
Q 254.227324 169.764308 249.732135 169.764308 
L 248.131363 169.764308 
L 248.131363 169.764308 
L 243.840924 169.764308 
L 243.840924 169.764308 
z
" style="fill: #004488"/>
   </g>
   <g id="text_42">
    <g id="patch_36">
     <path d="M 241.4863 184.738058 
L 284.83255 184.738058 
L 284.83255 115.055558 
L 241.4863 115.055558 
L 241.4863 184.738058 
z
" style="fill: none"/>
    </g>
    <path d="M 248.903829 169.764308 
Q 245.660405 169.764308 244.511014 169.764308 
Q 243.361623 169.764308 243.361623 169.764308 
Q 243.361623 169.764308 245.250905 169.764308 
Q 247.144841 169.764308 250.444106 169.764308 
Q 251.942502 169.764308 253.440899 169.764308 
Q 254.939295 169.764308 256.405118 169.764308 
L 256.405118 169.764308 
Q 255.023057 169.764308 253.599115 169.764308 
Q 252.175173 169.764308 250.779151 169.764308 
Q 249.224914 169.764308 248.391954 169.764308 
Q 247.563648 169.764308 247.563648 169.764308 
Q 247.563648 169.764308 248.168591 169.764308 
Q 248.773533 169.764308 250.690736 169.764308 
L 252.538138 169.764308 
Q 255.158005 169.764308 256.391158 169.764308 
Q 257.628964 169.764308 257.628964 169.764308 
Q 257.628964 169.764308 255.68384 169.764308 
Q 253.74337 169.764308 249.820549 169.764308 
Q 248.205818 169.764308 246.581779 169.764308 
Q 244.962394 169.764308 243.450038 169.764308 
L 243.450038 169.764308 
Q 245.167144 169.764308 246.772569 169.764308 
Q 248.377994 169.764308 249.950845 169.764308 
Q 251.533003 169.764308 252.403189 169.764308 
Q 253.27803 169.764308 253.27803 169.764308 
Q 253.27803 169.764308 252.696354 169.764308 
Q 252.114678 169.764308 251.011821 169.764308 
L 248.903829 169.764308 
z
" style="fill: #004488"/>
   </g>
   <g id="text_43">
    <g id="patch_37">
     <path d="M 241.4863 184.738058 
L 284.83255 184.738058 
L 284.83255 115.055558 
L 241.4863 115.055558 
L 241.4863 184.738058 
z
" style="fill: none"/>
    </g>
    <path d="M 257.601043 169.764308 
L 252.798729 169.764308 
L 257.601043 169.764308 
L 256.493533 169.764308 
L 251.667951 169.764308 
L 251.667951 169.764308 
L 249.164419 169.764308 
L 249.164419 169.764308 
L 244.352798 169.764308 
L 243.245288 169.764308 
L 248.075522 169.764308 
L 243.245288 169.764308 
L 244.352798 169.764308 
L 249.164419 169.764308 
L 249.164419 169.764308 
L 251.667951 169.764308 
L 251.667951 169.764308 
L 256.493533 169.764308 
L 257.601043 169.764308 
z
" style="fill: #004488"/>
   </g>
   <g id="text_44">
    <g id="patch_38">
     <path d="M 241.4863 184.738058 
L 284.83255 184.738058 
L 284.83255 115.055558 
L 241.4863 115.055558 
L 241.4863 184.738058 
z
" style="fill: none"/>
    </g>
    <path d="M 250.444106 169.764308 
L 254.269205 169.764308 
L 258.587565 169.764308 
L 253.426939 169.764308 
L 247.479887 169.764308 
L 242.314607 169.764308 
L 246.632967 169.764308 
L 250.444106 169.764308 
z
" style="fill: #004488"/>
   </g>
   <g id="text_45">
    <g id="patch_39">
     <path d="M 241.4863 184.738058 
L 284.83255 184.738058 
L 284.83255 115.055558 
L 241.4863 115.055558 
L 241.4863 184.738058 
z
" style="fill: none"/>
    </g>
    <path d="M 241.993522 169.764308 
L 245.53011 169.764308 
L 246.995932 169.764308 
L 248.773533 169.764308 
L 252.133292 169.764308 
L 254.18079 169.764308 
L 255.344142 169.764308 
L 258.90865 169.764308 
L 256.554027 169.764308 
L 252.770809 169.764308 
L 250.444106 169.764308 
L 248.261659 169.764308 
L 244.524974 169.764308 
L 241.993522 169.764308 
z
" style="fill: #004488"/>
   </g>
   <g id="text_46">
    <g id="patch_40">
     <path d="M 241.4863 184.738058 
L 284.83255 184.738058 
L 284.83255 115.055558 
L 241.4863 115.055558 
L 241.4863 184.738058 
z
" style="fill: none"/>
    </g>
    <path d="M 243.477958 169.764308 
L 247.768398 169.764308 
L 247.768398 169.764308 
L 253.133774 169.764308 
L 253.133774 169.764308 
L 257.424214 169.764308 
L 257.424214 169.764308 
L 253.133774 169.764308 
L 253.133774 169.764308 
L 247.768398 169.764308 
L 247.768398 169.764308 
L 243.477958 169.764308 
L 243.477958 169.764308 
z
" style="fill: #004488"/>
   </g>
   <g id="text_47">
    <g id="patch_41">
     <path d="M 241.4863 184.738058 
L 284.83255 184.738058 
L 284.83255 115.055558 
L 241.4863 115.055558 
L 241.4863 184.738058 
z
" style="fill: none"/>
    </g>
    <path d="M 251.025781 169.764308 
Q 250.821032 169.764308 250.681429 169.764308 
Q 250.546481 169.764308 250.416185 169.764308 
Q 246.679501 169.764308 244.752991 169.764308 
Q 242.826481 169.764308 242.826481 169.764308 
Q 242.826481 169.764308 244.752991 169.764308 
Q 246.679501 169.764308 250.444106 169.764308 
Q 254.227324 169.764308 256.153834 169.764308 
Q 258.080344 169.764308 258.080344 169.764308 
Q 258.080344 169.764308 257.163623 169.764308 
Q 256.246902 169.764308 254.501875 169.764308 
L 257.205504 169.764308 
L 254.269205 169.764308 
L 251.025781 169.764308 
z
M 250.444106 169.764308 
Q 248.801454 169.764308 248.042949 169.764308 
Q 247.289097 169.764308 247.289097 169.764308 
Q 247.289097 169.764308 248.042949 169.764308 
Q 248.801454 169.764308 250.444106 169.764308 
Q 252.100718 169.764308 252.85457 169.764308 
Q 253.613075 169.764308 253.613075 169.764308 
Q 253.613075 169.764308 252.85457 169.764308 
Q 252.100718 169.764308 250.444106 169.764308 
z
" style="fill: #004488"/>
   </g>
   <g id="text_48">
    <g id="patch_42">
     <path d="M 241.4863 184.738058 
L 284.83255 184.738058 
L 284.83255 115.055558 
L 241.4863 115.055558 
L 241.4863 184.738058 
z
" style="fill: none"/>
    </g>
    <path d="M 242.738067 169.764308 
L 247.856812 169.764308 
L 250.444106 169.764308 
L 253.017439 169.764308 
L 258.164105 169.764308 
L 258.164105 169.764308 
L 254.473955 169.764308 
L 254.473955 169.764308 
L 252.175173 169.764308 
L 248.759573 169.764308 
L 246.43287 169.764308 
L 246.43287 169.764308 
L 242.738067 169.764308 
L 242.738067 169.764308 
z
" style="fill: #004488"/>
   </g>
   <g id="text_49">
    <g id="patch_43">
     <path d="M 241.4863 184.738058 
L 284.83255 184.738058 
L 284.83255 115.055558 
L 241.4863 115.055558 
L 241.4863 184.738058 
z
" style="fill: none"/>
    </g>
    <path d="M 243.989833 169.764308 
L 243.989833 169.764308 
L 256.916993 169.764308 
L 256.916993 169.764308 
L 252.598633 169.764308 
L 252.598633 169.764308 
L 256.916993 169.764308 
L 256.916993 169.764308 
L 243.989833 169.764308 
L 243.989833 169.764308 
L 248.308193 169.764308 
L 248.308193 169.764308 
L 243.989833 169.764308 
z
" style="fill: #004488"/>
   </g>
   <g id="text_50">
    <g id="patch_44">
     <path d="M 241.4863 184.738058 
L 284.83255 184.738058 
L 284.83255 115.055558 
L 241.4863 115.055558 
L 241.4863 184.738058 
z
" style="fill: none"/>
    </g>
    <path d="M 257.656884 169.764308 
L 248.424528 169.764308 
L 248.424528 169.764308 
L 256.828578 169.764308 
L 256.828578 169.764308 
L 248.424528 169.764308 
L 248.424528 169.764308 
L 244.134088 169.764308 
L 244.134088 169.764308 
L 257.656884 169.764308 
L 257.656884 169.764308 
z
" style="fill: #004488"/>
   </g>
   <g id="text_51">
    <g id="patch_45">
     <path d="M 241.4863 184.738058 
L 284.83255 184.738058 
L 284.83255 115.055558 
L 241.4863 115.055558 
L 241.4863 184.738058 
z
" style="fill: none"/>
    </g>
    <path d="M 252.598633 169.764308 
L 248.308193 169.764308 
L 248.308193 169.764308 
L 242.793907 169.764308 
L 242.793907 169.764308 
L 258.108264 169.764308 
L 258.108264 169.764308 
L 252.598633 169.764308 
L 252.598633 169.764308 
z
" style="fill: #004488"/>
   </g>
   <g id="text_52">
    <g id="patch_46">
     <path d="M 241.4863 184.738058 
L 284.83255 184.738058 
L 284.83255 115.055558 
L 241.4863 115.055558 
L 241.4863 184.738058 
z
" style="fill: none"/>
    </g>
    <path d="M 241.602636 169.764308 
L 246.228121 169.764308 
L 250.444106 169.764308 
L 254.674051 169.764308 
L 259.299536 169.764308 
L 252.598633 169.764308 
L 252.598633 169.764308 
L 248.308193 169.764308 
L 248.308193 169.764308 
L 241.602636 169.764308 
z
" style="fill: #004488"/>
   </g>
   <g id="text_53">
    <g id="patch_47">
     <path d="M 241.4863 184.738058 
L 284.83255 184.738058 
L 284.83255 115.055558 
L 241.4863 115.055558 
L 241.4863 184.738058 
z
" style="fill: none"/>
    </g>
    <path d="M 250.444106 169.764308 
L 248.424528 169.764308 
L 252.482297 169.764308 
L 250.444106 169.764308 
z
M 247.828892 169.764308 
L 253.077933 169.764308 
L 258.936571 169.764308 
L 254.646131 169.764308 
L 253.310604 169.764308 
L 247.563648 169.764308 
L 246.256041 169.764308 
L 241.965601 169.764308 
L 247.828892 169.764308 
z
" style="fill: #004488"/>
   </g>
   <g id="text_54">
    <g id="patch_48">
     <path d="M 241.4863 184.738058 
L 284.83255 184.738058 
L 284.83255 115.055558 
L 241.4863 115.055558 
L 241.4863 184.738058 
z
" style="fill: none"/>
    </g>
    <path d="M 247.768398 169.764308 
L 247.768398 169.764308 
L 248.931749 169.764308 
Q 251.463202 169.764308 252.538138 169.764308 
Q 253.613075 169.764308 253.613075 169.764308 
Q 253.613075 169.764308 252.538138 169.764308 
Q 251.463202 169.764308 248.931749 169.764308 
L 247.768398 169.764308 
z
M 243.477958 169.764308 
L 248.075522 169.764308 
Q 253.394365 169.764308 255.735028 169.764308 
Q 258.080344 169.764308 258.080344 169.764308 
Q 258.080344 169.764308 255.735028 169.764308 
Q 253.394365 169.764308 248.075522 169.764308 
L 243.477958 169.764308 
L 243.477958 169.764308 
z
" style="fill: #004488"/>
   </g>
   <g id="text_55">
    <g id="patch_49">
     <path d="M 241.4863 184.737853 
L 284.83255 184.737853 
L 284.83255 115.055353 
L 241.4863 115.055353 
L 241.4863 184.737853 
z
" style="fill: none"/>
    </g>
    <path d="M 253.222189 169.764023 
Q 253.859705 169.764024 254.334353 169.764028 
Q 254.809 169.764031 255.488397 169.764042 
L 259.415871 169.764103 
L 254.706625 169.764103 
L 252.086758 169.76406 
Q 251.970423 169.764058 251.784287 169.764055 
Q 250.634895 169.764036 249.076005 169.764036 
L 247.712557 169.764036 
L 247.712557 169.764103 
L 243.422117 169.764103 
L 243.422117 169.763934 
L 249.6158 169.763934 
Q 253.803865 169.763934 255.627999 169.763945 
Q 257.452134 169.763957 257.452134 169.763983 
Q 257.452134 169.764 256.363237 169.764011 
Q 255.274341 169.764021 253.222189 169.764023 
z
M 247.712557 169.763962 
L 247.712557 169.764008 
L 249.732135 169.764008 
Q 251.491122 169.764008 252.254281 169.764003 
Q 253.017439 169.763997 253.017439 169.763985 
Q 253.017439 169.763973 252.258934 169.763967 
Q 251.505082 169.763962 249.732135 169.763962 
L 247.712557 169.763962 
z
" style="fill: #004488"/>
   </g>
   <g id="text_56">
    <g id="patch_50">
     <path d="M 241.4863 184.734254 
L 284.83255 184.734254 
L 284.83255 115.051754 
L 241.4863 115.051754 
L 241.4863 184.734254 
z
" style="fill: none"/>
    </g>
    <path d="M 254.16683 169.759959 
L 254.16683 169.759441 
L 251.230531 169.759441 
L 251.230531 169.75899 
L 257.917475 169.75899 
L 257.917475 169.760233 
Q 256.684322 169.760366 255.190579 169.760435 
Q 253.70149 169.760503 251.998343 169.760503 
Q 247.782358 169.760503 245.483576 169.760136 
Q 243.189447 169.75977 243.189447 169.759096 
Q 243.189447 169.75841 245.506843 169.758048 
Q 247.828892 169.757687 252.203093 169.757687 
Q 253.5107 169.757687 254.776426 169.757733 
Q 256.042152 169.75778 257.149663 169.757867 
L 257.149663 169.758461 
Q 256.246902 169.758315 255.074244 169.758242 
Q 253.906239 169.758168 252.510218 169.758168 
Q 250.06718 169.758168 248.857295 169.758399 
Q 247.652063 169.758628 247.652063 169.759096 
Q 247.652063 169.759548 248.815414 169.759785 
Q 249.978765 169.760021 252.203093 169.760021 
Q 252.873183 169.760021 253.366444 169.760006 
Q 253.859705 169.75999 254.16683 169.759959 
z
" style="fill: #004488"/>
   </g>
   <g id="text_57">
    <g id="patch_51">
     <path d="M 241.4863 178.07648 
L 284.83255 178.07648 
L 284.83255 108.39398 
L 241.4863 108.39398 
L 241.4863 178.07648 
z
" style="fill: none"/>
    </g>
    <path d="M 257.452134 162.883912 
L 243.929338 162.883912 
L 243.929338 44.867969 
L 257.452134 44.867969 
L 257.452134 65.461192 
L 248.219778 65.461192 
L 248.219778 90.844102 
L 256.581948 90.844102 
L 256.581948 111.437325 
L 248.219778 111.437325 
L 248.219778 142.290689 
L 257.452134 142.290689 
L 257.452134 162.883912 
z
" style="fill: #004488"/>
   </g>
   <g id="text_58">
    <!-- Z6161 -->
    <g transform="translate(191.66708 27.478594) scale(0.255 -0.255)">
     <use xlink:href="#DejaVuSans-5a"/>
     <use xlink:href="#DejaVuSans-36" x="68.505859"/>
     <use xlink:href="#DejaVuSans-31" x="132.128906"/>
     <use xlink:href="#DejaVuSans-36" x="195.751953"/>
     <use xlink:href="#DejaVuSans-31" x="259.375"/>
    </g>
   </g>
  </g>
  <g id="text_59">
   <!-- site -->
   <g transform="translate(151.931678 257.675) scale(0.255 -0.255)">
    <defs>
     <path id="DejaVuSans-73" d="M 2834 3397 
L 2834 2853 
Q 2591 2978 2328 3040 
Q 2066 3103 1784 3103 
Q 1356 3103 1142 2972 
Q 928 2841 928 2578 
Q 928 2378 1081 2264 
Q 1234 2150 1697 2047 
L 1894 2003 
Q 2506 1872 2764 1633 
Q 3022 1394 3022 966 
Q 3022 478 2636 193 
Q 2250 -91 1575 -91 
Q 1294 -91 989 -36 
Q 684 19 347 128 
L 347 722 
Q 666 556 975 473 
Q 1284 391 1588 391 
Q 1994 391 2212 530 
Q 2431 669 2431 922 
Q 2431 1156 2273 1281 
Q 2116 1406 1581 1522 
L 1381 1569 
Q 847 1681 609 1914 
Q 372 2147 372 2553 
Q 372 3047 722 3315 
Q 1072 3584 1716 3584 
Q 2034 3584 2315 3537 
Q 2597 3491 2834 3397 
z
" transform="scale(0.015625)"/>
     <path id="DejaVuSans-69" d="M 603 3500 
L 1178 3500 
L 1178 0 
L 603 0 
L 603 3500 
z
M 603 4863 
L 1178 4863 
L 1178 4134 
L 603 4134 
L 603 4863 
z
" transform="scale(0.015625)"/>
     <path id="DejaVuSans-74" d="M 1172 4494 
L 1172 3500 
L 2356 3500 
L 2356 3053 
L 1172 3053 
L 1172 1153 
Q 1172 725 1289 603 
Q 1406 481 1766 481 
L 2356 481 
L 2356 0 
L 1766 0 
Q 1100 0 847 248 
Q 594 497 594 1153 
L 594 3053 
L 172 3053 
L 172 3500 
L 594 3500 
L 594 4494 
L 1172 4494 
z
" transform="scale(0.015625)"/>
     <path id="DejaVuSans-65" d="M 3597 1894 
L 3597 1613 
L 953 1613 
Q 991 1019 1311 708 
Q 1631 397 2203 397 
Q 2534 397 2845 478 
Q 3156 559 3463 722 
L 3463 178 
Q 3153 47 2828 -22 
Q 2503 -91 2169 -91 
Q 1331 -91 842 396 
Q 353 884 353 1716 
Q 353 2575 817 3079 
Q 1281 3584 2069 3584 
Q 2775 3584 3186 3129 
Q 3597 2675 3597 1894 
z
M 3022 2063 
Q 3016 2534 2758 2815 
Q 2500 3097 2075 3097 
Q 1594 3097 1305 2825 
Q 1016 2553 972 2059 
L 3022 2063 
z
" transform="scale(0.015625)"/>
    </defs>
    <use xlink:href="#DejaVuSans-73"/>
    <use xlink:href="#DejaVuSans-69" x="52.099609"/>
    <use xlink:href="#DejaVuSans-74" x="79.882812"/>
    <use xlink:href="#DejaVuSans-65" x="119.091797"/>
   </g>
  </g>
  <g id="text_60">
   <!-- escape fraction -->
   <g transform="translate(26.576016 203.757187) rotate(-90) scale(0.255 -0.255)">
    <defs>
     <path id="DejaVuSans-63" d="M 3122 3366 
L 3122 2828 
Q 2878 2963 2633 3030 
Q 2388 3097 2138 3097 
Q 1578 3097 1268 2742 
Q 959 2388 959 1747 
Q 959 1106 1268 751 
Q 1578 397 2138 397 
Q 2388 397 2633 464 
Q 2878 531 3122 666 
L 3122 134 
Q 2881 22 2623 -34 
Q 2366 -91 2075 -91 
Q 1284 -91 818 406 
Q 353 903 353 1747 
Q 353 2603 823 3093 
Q 1294 3584 2113 3584 
Q 2378 3584 2631 3529 
Q 2884 3475 3122 3366 
z
" transform="scale(0.015625)"/>
     <path id="DejaVuSans-61" d="M 2194 1759 
Q 1497 1759 1228 1600 
Q 959 1441 959 1056 
Q 959 750 1161 570 
Q 1363 391 1709 391 
Q 2188 391 2477 730 
Q 2766 1069 2766 1631 
L 2766 1759 
L 2194 1759 
z
M 3341 1997 
L 3341 0 
L 2766 0 
L 2766 531 
Q 2569 213 2275 61 
Q 1981 -91 1556 -91 
Q 1019 -91 701 211 
Q 384 513 384 1019 
Q 384 1609 779 1909 
Q 1175 2209 1959 2209 
L 2766 2209 
L 2766 2266 
Q 2766 2663 2505 2880 
Q 2244 3097 1772 3097 
Q 1472 3097 1187 3025 
Q 903 2953 641 2809 
L 641 3341 
Q 956 3463 1253 3523 
Q 1550 3584 1831 3584 
Q 2591 3584 2966 3190 
Q 3341 2797 3341 1997 
z
" transform="scale(0.015625)"/>
     <path id="DejaVuSans-70" d="M 1159 525 
L 1159 -1331 
L 581 -1331 
L 581 3500 
L 1159 3500 
L 1159 2969 
Q 1341 3281 1617 3432 
Q 1894 3584 2278 3584 
Q 2916 3584 3314 3078 
Q 3713 2572 3713 1747 
Q 3713 922 3314 415 
Q 2916 -91 2278 -91 
Q 1894 -91 1617 61 
Q 1341 213 1159 525 
z
M 3116 1747 
Q 3116 2381 2855 2742 
Q 2594 3103 2138 3103 
Q 1681 3103 1420 2742 
Q 1159 2381 1159 1747 
Q 1159 1113 1420 752 
Q 1681 391 2138 391 
Q 2594 391 2855 752 
Q 3116 1113 3116 1747 
z
" transform="scale(0.015625)"/>
     <path id="DejaVuSans-20" transform="scale(0.015625)"/>
     <path id="DejaVuSans-66" d="M 2375 4863 
L 2375 4384 
L 1825 4384 
Q 1516 4384 1395 4259 
Q 1275 4134 1275 3809 
L 1275 3500 
L 2222 3500 
L 2222 3053 
L 1275 3053 
L 1275 0 
L 697 0 
L 697 3053 
L 147 3053 
L 147 3500 
L 697 3500 
L 697 3744 
Q 697 4328 969 4595 
Q 1241 4863 1831 4863 
L 2375 4863 
z
" transform="scale(0.015625)"/>
     <path id="DejaVuSans-72" d="M 2631 2963 
Q 2534 3019 2420 3045 
Q 2306 3072 2169 3072 
Q 1681 3072 1420 2755 
Q 1159 2438 1159 1844 
L 1159 0 
L 581 0 
L 581 3500 
L 1159 3500 
L 1159 2956 
Q 1341 3275 1631 3429 
Q 1922 3584 2338 3584 
Q 2397 3584 2469 3576 
Q 2541 3569 2628 3553 
L 2631 2963 
z
" transform="scale(0.015625)"/>
     <path id="DejaVuSans-6f" d="M 1959 3097 
Q 1497 3097 1228 2736 
Q 959 2375 959 1747 
Q 959 1119 1226 758 
Q 1494 397 1959 397 
Q 2419 397 2687 759 
Q 2956 1122 2956 1747 
Q 2956 2369 2687 2733 
Q 2419 3097 1959 3097 
z
M 1959 3584 
Q 2709 3584 3137 3096 
Q 3566 2609 3566 1747 
Q 3566 888 3137 398 
Q 2709 -91 1959 -91 
Q 1206 -91 779 398 
Q 353 888 353 1747 
Q 353 2609 779 3096 
Q 1206 3584 1959 3584 
z
" transform="scale(0.015625)"/>
     <path id="DejaVuSans-6e" d="M 3513 2113 
L 3513 0 
L 2938 0 
L 2938 2094 
Q 2938 2591 2744 2837 
Q 2550 3084 2163 3084 
Q 1697 3084 1428 2787 
Q 1159 2491 1159 1978 
L 1159 0 
L 581 0 
L 581 3500 
L 1159 3500 
L 1159 2956 
Q 1366 3272 1645 3428 
Q 1925 3584 2291 3584 
Q 2894 3584 3203 3211 
Q 3513 2838 3513 2113 
z
" transform="scale(0.015625)"/>
    </defs>
    <use xlink:href="#DejaVuSans-65"/>
    <use xlink:href="#DejaVuSans-73" x="61.523438"/>
    <use xlink:href="#DejaVuSans-63" x="113.623047"/>
    <use xlink:href="#DejaVuSans-61" x="168.603516"/>
    <use xlink:href="#DejaVuSans-70" x="229.882812"/>
    <use xlink:href="#DejaVuSans-65" x="293.359375"/>
    <use xlink:href="#DejaVuSans-20" x="354.882812"/>
    <use xlink:href="#DejaVuSans-66" x="386.669922"/>
    <use xlink:href="#DejaVuSans-72" x="421.875"/>
    <use xlink:href="#DejaVuSans-61" x="462.988281"/>
    <use xlink:href="#DejaVuSans-63" x="524.267578"/>
    <use xlink:href="#DejaVuSans-74" x="579.248047"/>
    <use xlink:href="#DejaVuSans-69" x="618.457031"/>
    <use xlink:href="#DejaVuSans-6f" x="646.240234"/>
    <use xlink:href="#DejaVuSans-6e" x="707.421875"/>
   </g>
  </g>
 </g>
 <defs>
  <clipPath id="p7abb5d27d5">
   <rect x="72.899609" y="33.478594" width="88.339115" height="144"/>
  </clipPath>
  <clipPath id="pbefe7fa960">
   <rect x="203.484731" y="33.478594" width="58.729699" height="144"/>
  </clipPath>
 </defs>
</svg>
