<?xml version="1.0" encoding="utf-8" standalone="no"?>
<!DOCTYPE svg PUBLIC "-//W3C//DTD SVG 1.1//EN"
  "http://www.w3.org/Graphics/SVG/1.1/DTD/svg11.dtd">
<svg xmlns:xlink="http://www.w3.org/1999/xlink" width="330.442841pt" height="269.908203pt" viewBox="0 0 330.442841 269.908203" xmlns="http://www.w3.org/2000/svg" version="1.1">
 <metadata>
  <rdf:RDF xmlns:dc="http://purl.org/dc/elements/1.1/" xmlns:cc="http://creativecommons.org/ns#" xmlns:rdf="http://www.w3.org/1999/02/22-rdf-syntax-ns#">
   <cc:Work>
    <dc:type rdf:resource="http://purl.org/dc/dcmitype/StillImage"/>
    <dc:date>2025-12-18T15:42:41.033170</dc:date>
    <dc:format>image/svg+xml</dc:format>
    <dc:creator>
     <cc:Agent>
      <dc:title>Matplotlib v3.7.1, https://matplotlib.org/</dc:title>
     </cc:Agent>
    </dc:creator>
   </cc:Work>
  </rdf:RDF>
 </metadata>
 <defs>
  <style type="text/css">*{stroke-linejoin: round; stroke-linecap: butt}</style>
 </defs>
 <g id="figure_1">
  <g id="patch_1">
   <path d="M 0 269.908203 
L 330.442841 269.908203 
L 330.442841 0 
L 0 0 
L 0 269.908203 
z
" style="fill: none"/>
  </g>
  <g id="axes_1">
   <g id="patch_2">
    <path d="M 72.899609 177.478594 
L 163.681214 177.478594 
L 163.681214 33.478594 
L 72.899609 33.478594 
L 72.899609 177.478594 
z
" style="fill: none"/>
   </g>
   <g id="patch_3">
    <path d="M 73.645409 177.478594 
L 76.247061 177.478594 
L 76.247061 170.764308 
L 73.645409 170.764308 
z
" clip-path="url(#p1e66c685d9)" style="fill: #cc79a7"/>
   </g>
   <g id="patch_4">
    <path d="M 76.047887 177.478594 
L 78.649538 177.478594 
L 78.649538 170.764308 
L 76.047887 170.764308 
z
" clip-path="url(#p1e66c685d9)" style="fill: #cc79a7"/>
   </g>
   <g id="patch_5">
    <path d="M 83.255318 177.478594 
L 85.85697 177.478594 
L 85.85697 170.764308 
L 83.255318 170.764308 
z
" clip-path="url(#p1e66c685d9)" style="fill: #cc79a7"/>
   </g>
   <g id="matplotlib.axis_1">
    <g id="xtick_1">
     <g id="line2d_1">
      <defs>
       <path id="meeec8821b6" d="M 0 0 
L 0 5 
" style="stroke: #000000"/>
      </defs>
      <g>
       <use xlink:href="#meeec8821b6" x="75.846648" y="177.478594" style="stroke: #000000"/>
      </g>
     </g>
     <g id="text_1">
      <!-- 300 -->
      <g transform="translate(80.813523 220.336094) rotate(-90) scale(0.18 -0.18)">
       <defs>
        <path id="DejaVuSans-33" d="M 2597 2516 
Q 3050 2419 3304 2112 
Q 3559 1806 3559 1356 
Q 3559 666 3084 287 
Q 2609 -91 1734 -91 
Q 1441 -91 1130 -33 
Q 819 25 488 141 
L 488 750 
Q 750 597 1062 519 
Q 1375 441 1716 441 
Q 2309 441 2620 675 
Q 2931 909 2931 1356 
Q 2931 1769 2642 2001 
Q 2353 2234 1838 2234 
L 1294 2234 
L 1294 2753 
L 1863 2753 
Q 2328 2753 2575 2939 
Q 2822 3125 2822 3475 
Q 2822 3834 2567 4026 
Q 2313 4219 1838 4219 
Q 1578 4219 1281 4162 
Q 984 4106 628 3988 
L 628 4550 
Q 988 4650 1302 4700 
Q 1616 4750 1894 4750 
Q 2613 4750 3031 4423 
Q 3450 4097 3450 3541 
Q 3450 3153 3228 2886 
Q 3006 2619 2597 2516 
z
" transform="scale(0.015625)"/>
        <path id="DejaVuSans-30" d="M 2034 4250 
Q 1547 4250 1301 3770 
Q 1056 3291 1056 2328 
Q 1056 1369 1301 889 
Q 1547 409 2034 409 
Q 2525 409 2770 889 
Q 3016 1369 3016 2328 
Q 3016 3291 2770 3770 
Q 2525 4250 2034 4250 
z
M 2034 4750 
Q 2819 4750 3233 4129 
Q 3647 3509 3647 2328 
Q 3647 1150 3233 529 
Q 2819 -91 2034 -91 
Q 1250 -91 836 529 
Q 422 1150 422 2328 
Q 422 3509 836 4129 
Q 1250 4750 2034 4750 
z
" transform="scale(0.015625)"/>
       </defs>
       <use xlink:href="#DejaVuSans-33"/>
       <use xlink:href="#DejaVuSans-30" x="63.623047"/>
       <use xlink:href="#DejaVuSans-30" x="127.246094"/>
      </g>
     </g>
    </g>
    <g id="xtick_2">
     <g id="line2d_2">
      <g>
       <use xlink:href="#meeec8821b6" x="99.87142" y="177.478594" style="stroke: #000000"/>
      </g>
     </g>
     <g id="text_2">
      <!-- 330 -->
      <g transform="translate(104.838295 220.336094) rotate(-90) scale(0.18 -0.18)">
       <use xlink:href="#DejaVuSans-33"/>
       <use xlink:href="#DejaVuSans-33" x="63.623047"/>
       <use xlink:href="#DejaVuSans-30" x="127.246094"/>
      </g>
     </g>
    </g>
    <g id="xtick_3">
     <g id="line2d_3">
      <g>
       <use xlink:href="#meeec8821b6" x="123.896192" y="177.478594" style="stroke: #000000"/>
      </g>
     </g>
     <g id="text_3">
      <!-- 360 -->
      <g transform="translate(128.863067 220.336094) rotate(-90) scale(0.18 -0.18)">
       <defs>
        <path id="DejaVuSans-36" d="M 2113 2584 
Q 1688 2584 1439 2293 
Q 1191 2003 1191 1497 
Q 1191 994 1439 701 
Q 1688 409 2113 409 
Q 2538 409 2786 701 
Q 3034 994 3034 1497 
Q 3034 2003 2786 2293 
Q 2538 2584 2113 2584 
z
M 3366 4563 
L 3366 3988 
Q 3128 4100 2886 4159 
Q 2644 4219 2406 4219 
Q 1781 4219 1451 3797 
Q 1122 3375 1075 2522 
Q 1259 2794 1537 2939 
Q 1816 3084 2150 3084 
Q 2853 3084 3261 2657 
Q 3669 2231 3669 1497 
Q 3669 778 3244 343 
Q 2819 -91 2113 -91 
Q 1303 -91 875 529 
Q 447 1150 447 2328 
Q 447 3434 972 4092 
Q 1497 4750 2381 4750 
Q 2619 4750 2861 4703 
Q 3103 4656 3366 4563 
z
" transform="scale(0.015625)"/>
       </defs>
       <use xlink:href="#DejaVuSans-33"/>
       <use xlink:href="#DejaVuSans-36" x="63.623047"/>
       <use xlink:href="#DejaVuSans-30" x="127.246094"/>
      </g>
     </g>
    </g>
    <g id="xtick_4">
     <g id="line2d_4">
      <g>
       <use xlink:href="#meeec8821b6" x="147.920963" y="177.478594" style="stroke: #000000"/>
      </g>
     </g>
     <g id="text_4">
      <!-- 390 -->
      <g transform="translate(152.887838 220.336094) rotate(-90) scale(0.18 -0.18)">
       <defs>
        <path id="DejaVuSans-39" d="M 703 97 
L 703 672 
Q 941 559 1184 500 
Q 1428 441 1663 441 
Q 2288 441 2617 861 
Q 2947 1281 2994 2138 
Q 2813 1869 2534 1725 
Q 2256 1581 1919 1581 
Q 1219 1581 811 2004 
Q 403 2428 403 3163 
Q 403 3881 828 4315 
Q 1253 4750 1959 4750 
Q 2769 4750 3195 4129 
Q 3622 3509 3622 2328 
Q 3622 1225 3098 567 
Q 2575 -91 1691 -91 
Q 1453 -91 1209 -44 
Q 966 3 703 97 
z
M 1959 2075 
Q 2384 2075 2632 2365 
Q 2881 2656 2881 3163 
Q 2881 3666 2632 3958 
Q 2384 4250 1959 4250 
Q 1534 4250 1286 3958 
Q 1038 3666 1038 3163 
Q 1038 2656 1286 2365 
Q 1534 2075 1959 2075 
z
" transform="scale(0.015625)"/>
       </defs>
       <use xlink:href="#DejaVuSans-33"/>
       <use xlink:href="#DejaVuSans-39" x="63.623047"/>
       <use xlink:href="#DejaVuSans-30" x="127.246094"/>
      </g>
     </g>
    </g>
   </g>
   <g id="matplotlib.axis_2">
    <g id="ytick_1">
     <g id="line2d_5">
      <defs>
       <path id="mea692384b0" d="M 0 0 
L -5 0 
" style="stroke: #000000"/>
      </defs>
      <g>
       <use xlink:href="#mea692384b0" x="72.899609" y="169.764308" style="stroke: #000000"/>
      </g>
     </g>
     <g id="text_5">
      <!-- 0.0 -->
      <g transform="translate(35.773984 176.602902) scale(0.18 -0.18)">
       <defs>
        <path id="DejaVuSans-2e" d="M 684 794 
L 1344 794 
L 1344 0 
L 684 0 
L 684 794 
z
" transform="scale(0.015625)"/>
       </defs>
       <use xlink:href="#DejaVuSans-30"/>
       <use xlink:href="#DejaVuSans-2e" x="63.623047"/>
       <use xlink:href="#DejaVuSans-30" x="95.410156"/>
      </g>
     </g>
    </g>
    <g id="ytick_2">
     <g id="line2d_6">
      <g>
       <use xlink:href="#mea692384b0" x="72.899609" y="129.802198" style="stroke: #000000"/>
      </g>
     </g>
     <g id="text_6">
      <!-- 1.5 -->
      <g transform="translate(35.773984 136.640792) scale(0.18 -0.18)">
       <defs>
        <path id="DejaVuSans-31" d="M 794 531 
L 1825 531 
L 1825 4091 
L 703 3866 
L 703 4441 
L 1819 4666 
L 2450 4666 
L 2450 531 
L 3481 531 
L 3481 0 
L 794 0 
L 794 531 
z
" transform="scale(0.015625)"/>
        <path id="DejaVuSans-35" d="M 691 4666 
L 3169 4666 
L 3169 4134 
L 1269 4134 
L 1269 2991 
Q 1406 3038 1543 3061 
Q 1681 3084 1819 3084 
Q 2600 3084 3056 2656 
Q 3513 2228 3513 1497 
Q 3513 744 3044 326 
Q 2575 -91 1722 -91 
Q 1428 -91 1123 -41 
Q 819 9 494 109 
L 494 744 
Q 775 591 1075 516 
Q 1375 441 1709 441 
Q 2250 441 2565 725 
Q 2881 1009 2881 1497 
Q 2881 1984 2565 2268 
Q 2250 2553 1709 2553 
Q 1456 2553 1204 2497 
Q 953 2441 691 2322 
L 691 4666 
z
" transform="scale(0.015625)"/>
       </defs>
       <use xlink:href="#DejaVuSans-31"/>
       <use xlink:href="#DejaVuSans-2e" x="63.623047"/>
       <use xlink:href="#DejaVuSans-35" x="95.410156"/>
      </g>
     </g>
    </g>
    <g id="ytick_3">
     <g id="line2d_7">
      <g>
       <use xlink:href="#mea692384b0" x="72.899609" y="89.840088" style="stroke: #000000"/>
      </g>
     </g>
     <g id="text_7">
      <!-- 3.0 -->
      <g transform="translate(35.773984 96.678682) scale(0.18 -0.18)">
       <use xlink:href="#DejaVuSans-33"/>
       <use xlink:href="#DejaVuSans-2e" x="63.623047"/>
       <use xlink:href="#DejaVuSans-30" x="95.410156"/>
      </g>
     </g>
    </g>
    <g id="ytick_4">
     <g id="line2d_8">
      <g>
       <use xlink:href="#mea692384b0" x="72.899609" y="49.877978" style="stroke: #000000"/>
      </g>
     </g>
     <g id="text_8">
      <!-- 4.5 -->
      <g transform="translate(35.773984 56.716572) scale(0.18 -0.18)">
       <defs>
        <path id="DejaVuSans-34" d="M 2419 4116 
L 825 1625 
L 2419 1625 
L 2419 4116 
z
M 2253 4666 
L 3047 4666 
L 3047 1625 
L 3713 1625 
L 3713 1100 
L 3047 1100 
L 3047 0 
L 2419 0 
L 2419 1100 
L 313 1100 
L 313 1709 
L 2253 4666 
z
" transform="scale(0.015625)"/>
       </defs>
       <use xlink:href="#DejaVuSans-34"/>
       <use xlink:href="#DejaVuSans-2e" x="63.623047"/>
       <use xlink:href="#DejaVuSans-35" x="95.410156"/>
      </g>
     </g>
    </g>
   </g>
   <g id="line2d_9">
    <path d="M 74.645409 163.639449 
L 75.446235 163.639449 
L 75.446235 155.106206 
L 76.247061 155.106206 
L 76.247061 169.764308 
L 77.047887 169.764308 
L 77.047887 158.417733 
L 77.848712 158.417733 
L 77.848712 168.322209 
L 78.649538 168.322209 
L 78.649538 167.303708 
L 79.450364 167.303708 
L 79.450364 163.335737 
L 80.25119 163.335737 
L 80.25119 164.068375 
L 81.052015 164.068375 
L 81.052015 150.86223 
L 81.852841 150.86223 
L 81.852841 169.764308 
L 82.653667 169.764308 
L 82.653667 157.490612 
L 83.454492 157.490612 
L 83.454492 169.740222 
L 84.255318 169.740222 
L 84.255318 158.169968 
L 85.056144 158.169968 
L 85.056144 166.346216 
L 85.85697 166.346216 
L 85.85697 155.383277 
L 86.657795 155.383277 
L 86.657795 167.848524 
L 87.458621 167.848524 
L 87.458621 160.575687 
L 88.259447 160.575687 
L 88.259447 137.954468 
L 89.060272 137.954468 
L 89.060272 169.764308 
L 89.861098 169.764308 
L 89.861098 138.806993 
L 90.661924 138.806993 
L 90.661924 136.64904 
L 91.46275 136.64904 
L 91.46275 160.058844 
L 92.263575 160.058844 
L 92.263575 138.114317 
L 93.064401 138.114317 
L 93.064401 169.764308 
L 93.865227 169.764308 
L 93.865227 160.234677 
L 94.666053 160.234677 
L 94.666053 164.606532 
L 95.466878 164.606532 
L 95.466878 148.930728 
L 96.267704 148.930728 
L 96.267704 163.269133 
L 97.06853 163.269133 
L 97.06853 138.966842 
L 97.869355 138.966842 
L 97.869355 169.630515 
L 100.271833 169.624361 
L 100.271833 153.116093 
L 101.072658 153.116093 
L 101.072658 169.764308 
L 101.873484 169.764308 
L 101.873484 157.477291 
L 102.67431 157.477291 
L 102.67431 169.764308 
L 103.475136 169.764308 
L 103.475136 160.216028 
L 104.275961 160.216028 
L 104.275961 164.651822 
L 105.076787 164.651822 
L 105.076787 169.764308 
L 107.479264 169.764308 
L 107.479264 164.190926 
L 108.28009 164.190926 
L 108.28009 167.730503 
L 109.080916 167.730503 
L 109.080916 125.699421 
L 109.881741 125.699421 
L 109.881741 165.054107 
L 110.682567 165.054107 
L 110.682567 166.458109 
L 111.483393 166.458109 
L 111.483393 164.409385 
L 112.284219 164.409385 
L 112.284219 157.466635 
L 113.085044 157.466635 
L 113.085044 145.400742 
L 113.88587 145.400742 
L 113.88587 152.082406 
L 114.686696 152.082406 
L 114.686696 161.27902 
L 115.487521 161.27902 
L 115.487521 160.098806 
L 116.288347 160.098806 
L 116.288347 135.796515 
L 117.089173 135.796515 
L 117.089173 154.759868 
L 117.889999 154.759868 
L 117.889999 166.783135 
L 118.690824 166.783135 
L 118.690824 154.749211 
L 119.49165 154.749211 
L 119.49165 157.120296 
L 120.292476 157.120296 
L 120.292476 169.441414 
L 121.093301 169.441414 
L 121.093301 169.756281 
L 121.894127 169.756281 
L 121.894127 164.001772 
L 122.694953 164.001772 
L 122.694953 169.763737 
L 123.495779 169.763737 
L 123.495779 166.926998 
L 124.296604 166.926998 
L 124.296604 166.43946 
L 125.09743 166.43946 
L 125.09743 169.212032 
L 125.898256 169.212032 
L 125.898256 133.931616 
L 126.699082 133.931616 
L 126.699082 164.793022 
L 127.499907 164.793022 
L 127.499907 151.49896 
L 128.300733 151.49896 
L 128.300733 141.657624 
L 129.101559 141.657624 
L 129.101559 131.001061 
L 129.902384 131.001061 
L 129.902384 158.961218 
L 130.70321 158.961218 
L 130.70321 146.466398 
L 131.504036 146.466398 
L 131.504036 164.206911 
L 132.304862 164.206911 
L 132.304862 169.764308 
L 133.906513 169.764308 
L 133.906513 145.693797 
L 134.707339 145.693797 
L 134.707339 155.332658 
L 135.508165 155.332658 
L 135.508165 143.122901 
L 136.30899 143.122901 
L 136.30899 162.312707 
L 137.109816 162.312707 
L 137.109816 150.750336 
L 137.910642 150.750336 
L 137.910642 161.105851 
L 138.711467 161.105851 
L 138.711467 166.70321 
L 139.512293 166.70321 
L 139.512293 168.780441 
L 140.313119 168.780441 
L 140.313119 169.715128 
L 141.113945 169.715128 
L 141.113945 154.152444 
L 141.91477 154.152444 
L 141.91477 167.678019 
L 142.715596 167.678019 
L 142.715596 160.032202 
L 143.516422 160.032202 
L 143.516422 165.706822 
L 144.317247 165.706822 
L 144.317247 164.222895 
L 145.118073 164.222895 
L 145.118073 160.636962 
L 145.918899 160.636962 
L 145.918899 159.07844 
L 146.719725 159.07844 
L 146.719725 169.740488 
L 148.321376 169.747351 
L 148.321376 162.837542 
L 149.122202 162.837542 
L 149.122202 162.275409 
L 149.923028 162.275409 
L 149.923028 166.860395 
L 150.723853 166.860395 
L 150.723853 156.377001 
L 151.524679 156.377001 
L 151.524679 165.288552 
L 152.325505 165.288552 
L 152.325505 161.113843 
L 153.12633 161.113843 
L 153.12633 167.995851 
L 153.927156 167.995851 
L 153.927156 168.889404 
L 154.727982 168.889404 
L 154.727982 168.024091 
L 155.528808 168.024091 
L 155.528808 154.730562 
L 156.329633 154.730562 
L 156.329633 161.220409 
L 157.130459 161.220409 
L 157.130459 154.861105 
L 157.931285 154.861105 
L 157.931285 162.648388 
L 158.732111 162.648388 
L 158.732111 163.924512 
L 159.532936 163.924512 
L 159.532936 143.581134 
L 160.333762 143.581134 
L 160.333762 164.513287 
L 161.134588 164.513287 
L 161.134588 165.333842 
L 161.935413 165.333842 
L 161.935413 165.333842 
" clip-path="url(#p1e66c685d9)" style="fill: none; stroke: #000000; stroke-linecap: square"/>
   </g>
   <g id="patch_6">
    <path d="M 72.899609 177.478594 
L 72.899609 33.478594 
" style="fill: none; stroke: #000000; stroke-width: 0.8; stroke-linejoin: miter; stroke-linecap: square"/>
   </g>
   <g id="patch_7">
    <path d="M 72.899609 177.478594 
L 163.681214 177.478594 
" style="fill: none; stroke: #000000; stroke-width: 0.8; stroke-linejoin: miter; stroke-linecap: square"/>
   </g>
   <g id="text_9">
    <!-- ZV2 -->
    <g transform="translate(92.722677 27.478594) scale(0.255 -0.255)">
     <defs>
      <path id="DejaVuSans-5a" d="M 359 4666 
L 4025 4666 
L 4025 4184 
L 1075 531 
L 4097 531 
L 4097 0 
L 288 0 
L 288 481 
L 3238 4134 
L 359 4134 
L 359 4666 
z
" transform="scale(0.015625)"/>
      <path id="DejaVuSans-56" d="M 1831 0 
L 50 4666 
L 709 4666 
L 2188 738 
L 3669 4666 
L 4325 4666 
L 2547 0 
L 1831 0 
z
" transform="scale(0.015625)"/>
      <path id="DejaVuSans-32" d="M 1228 531 
L 3431 531 
L 3431 0 
L 469 0 
L 469 531 
Q 828 903 1448 1529 
Q 2069 2156 2228 2338 
Q 2531 2678 2651 2914 
Q 2772 3150 2772 3378 
Q 2772 3750 2511 3984 
Q 2250 4219 1831 4219 
Q 1534 4219 1204 4116 
Q 875 4013 500 3803 
L 500 4441 
Q 881 4594 1212 4672 
Q 1544 4750 1819 4750 
Q 2544 4750 2975 4387 
Q 3406 4025 3406 3419 
Q 3406 3131 3298 2873 
Q 3191 2616 2906 2266 
Q 2828 2175 2409 1742 
Q 1991 1309 1228 531 
z
" transform="scale(0.015625)"/>
     </defs>
     <use xlink:href="#DejaVuSans-5a"/>
     <use xlink:href="#DejaVuSans-56" x="68.505859"/>
     <use xlink:href="#DejaVuSans-32" x="136.914062"/>
    </g>
   </g>
  </g>
  <g id="axes_2">
   <g id="patch_8">
    <path d="M 209.484155 177.478594 
L 300.014429 177.478594 
L 300.014429 33.478594 
L 209.484155 33.478594 
L 209.484155 177.478594 
z
" style="fill: none"/>
   </g>
   <g id="matplotlib.axis_3">
    <g id="xtick_5">
     <g id="line2d_10">
      <g>
       <use xlink:href="#meeec8821b6" x="221.219561" y="177.478594" style="stroke: #000000"/>
      </g>
     </g>
     <g id="text_10">
      <!-- R299 -->
      <g transform="translate(226.186436 232.843281) rotate(-90) scale(0.18 -0.18)">
       <defs>
        <path id="DejaVuSans-52" d="M 2841 2188 
Q 3044 2119 3236 1894 
Q 3428 1669 3622 1275 
L 4263 0 
L 3584 0 
L 2988 1197 
Q 2756 1666 2539 1819 
Q 2322 1972 1947 1972 
L 1259 1972 
L 1259 0 
L 628 0 
L 628 4666 
L 2053 4666 
Q 2853 4666 3247 4331 
Q 3641 3997 3641 3322 
Q 3641 2881 3436 2590 
Q 3231 2300 2841 2188 
z
M 1259 4147 
L 1259 2491 
L 2053 2491 
Q 2509 2491 2742 2702 
Q 2975 2913 2975 3322 
Q 2975 3731 2742 3939 
Q 2509 4147 2053 4147 
L 1259 4147 
z
" transform="scale(0.015625)"/>
       </defs>
       <use xlink:href="#DejaVuSans-52"/>
       <use xlink:href="#DejaVuSans-32" x="69.482422"/>
       <use xlink:href="#DejaVuSans-39" x="133.105469"/>
       <use xlink:href="#DejaVuSans-39" x="196.728516"/>
      </g>
     </g>
    </g>
    <g id="xtick_6">
     <g id="line2d_11">
      <g>
       <use xlink:href="#meeec8821b6" x="254.749292" y="177.478594" style="stroke: #000000"/>
      </g>
     </g>
     <g id="text_11">
      <!-- G302 -->
      <g transform="translate(259.716167 234.283281) rotate(-90) scale(0.18 -0.18)">
       <defs>
        <path id="DejaVuSans-47" d="M 3809 666 
L 3809 1919 
L 2778 1919 
L 2778 2438 
L 4434 2438 
L 4434 434 
Q 4069 175 3628 42 
Q 3188 -91 2688 -91 
Q 1594 -91 976 548 
Q 359 1188 359 2328 
Q 359 3472 976 4111 
Q 1594 4750 2688 4750 
Q 3144 4750 3555 4637 
Q 3966 4525 4313 4306 
L 4313 3634 
Q 3963 3931 3569 4081 
Q 3175 4231 2741 4231 
Q 1884 4231 1454 3753 
Q 1025 3275 1025 2328 
Q 1025 1384 1454 906 
Q 1884 428 2741 428 
Q 3075 428 3337 486 
Q 3600 544 3809 666 
z
" transform="scale(0.015625)"/>
       </defs>
       <use xlink:href="#DejaVuSans-47"/>
       <use xlink:href="#DejaVuSans-33" x="77.490234"/>
       <use xlink:href="#DejaVuSans-30" x="141.113281"/>
       <use xlink:href="#DejaVuSans-32" x="204.736328"/>
      </g>
     </g>
    </g>
    <g id="xtick_7">
     <g id="line2d_12">
      <g>
       <use xlink:href="#meeec8821b6" x="288.279023" y="177.478594" style="stroke: #000000"/>
      </g>
     </g>
     <g id="text_12">
      <!-- A311 -->
      <g transform="translate(293.245898 232.649219) rotate(-90) scale(0.18 -0.18)">
       <defs>
        <path id="DejaVuSans-41" d="M 2188 4044 
L 1331 1722 
L 3047 1722 
L 2188 4044 
z
M 1831 4666 
L 2547 4666 
L 4325 0 
L 3669 0 
L 3244 1197 
L 1141 1197 
L 716 0 
L 50 0 
L 1831 4666 
z
" transform="scale(0.015625)"/>
       </defs>
       <use xlink:href="#DejaVuSans-41"/>
       <use xlink:href="#DejaVuSans-33" x="68.408203"/>
       <use xlink:href="#DejaVuSans-31" x="132.03125"/>
       <use xlink:href="#DejaVuSans-31" x="195.654297"/>
      </g>
     </g>
    </g>
   </g>
   <g id="matplotlib.axis_4">
    <g id="ytick_5">
     <g id="line2d_13">
      <g>
       <use xlink:href="#mea692384b0" x="209.484155" y="169.764308" style="stroke: #000000"/>
      </g>
     </g>
     <g id="text_13">
      <!-- 0.0 -->
      <g transform="translate(172.35853 176.602902) scale(0.18 -0.18)">
       <use xlink:href="#DejaVuSans-30"/>
       <use xlink:href="#DejaVuSans-2e" x="63.623047"/>
       <use xlink:href="#DejaVuSans-30" x="95.410156"/>
      </g>
     </g>
    </g>
    <g id="ytick_6">
     <g id="line2d_14">
      <g>
       <use xlink:href="#mea692384b0" x="209.484155" y="129.802198" style="stroke: #000000"/>
      </g>
     </g>
     <g id="text_14">
      <!-- 1.5 -->
      <g transform="translate(172.35853 136.640792) scale(0.18 -0.18)">
       <use xlink:href="#DejaVuSans-31"/>
       <use xlink:href="#DejaVuSans-2e" x="63.623047"/>
       <use xlink:href="#DejaVuSans-35" x="95.410156"/>
      </g>
     </g>
    </g>
    <g id="ytick_7">
     <g id="line2d_15">
      <g>
       <use xlink:href="#mea692384b0" x="209.484155" y="89.840088" style="stroke: #000000"/>
      </g>
     </g>
     <g id="text_15">
      <!-- 3.0 -->
      <g transform="translate(172.35853 96.678682) scale(0.18 -0.18)">
       <use xlink:href="#DejaVuSans-33"/>
       <use xlink:href="#DejaVuSans-2e" x="63.623047"/>
       <use xlink:href="#DejaVuSans-30" x="95.410156"/>
      </g>
     </g>
    </g>
    <g id="ytick_8">
     <g id="line2d_16">
      <g>
       <use xlink:href="#mea692384b0" x="209.484155" y="49.877978" style="stroke: #000000"/>
      </g>
     </g>
     <g id="text_16">
      <!-- 4.5 -->
      <g transform="translate(172.35853 56.716572) scale(0.18 -0.18)">
       <use xlink:href="#DejaVuSans-34"/>
       <use xlink:href="#DejaVuSans-2e" x="63.623047"/>
       <use xlink:href="#DejaVuSans-35" x="95.410156"/>
      </g>
     </g>
    </g>
   </g>
   <g id="line2d_17">
    <path d="M 237.984426 177.478594 
L 237.984426 33.478594 
" clip-path="url(#p438d75db34)" style="fill: none; stroke-dasharray: 2,5; stroke-dashoffset: 0; stroke: #000000"/>
   </g>
   <g id="line2d_18">
    <path d="M 271.514158 177.478594 
L 271.514158 33.478594 
" clip-path="url(#p438d75db34)" style="fill: none; stroke-dasharray: 2,5; stroke-dashoffset: 0; stroke: #000000"/>
   </g>
   <g id="patch_9">
    <path d="M 209.484155 177.478594 
L 209.484155 33.478594 
" style="fill: none; stroke: #000000; stroke-width: 0.8; stroke-linejoin: miter; stroke-linecap: square"/>
   </g>
   <g id="patch_10">
    <path d="M 209.484155 177.478594 
L 300.014429 177.478594 
" style="fill: none; stroke: #000000; stroke-width: 0.8; stroke-linejoin: miter; stroke-linecap: square"/>
   </g>
   <g id="text_17">
    <g id="patch_11">
     <path d="M 212.837128 184.738058 
L 256.183378 184.738058 
L 256.183378 115.055558 
L 212.837128 115.055558 
L 212.837128 184.738058 
z
" style="fill: none"/>
    </g>
    <path d="M 219.286543 169.764308 
L 219.286543 169.764308 
L 220.993741 169.764308 
Q 223.039669 169.764308 223.866169 169.764308 
Q 224.69267 169.764308 224.69267 169.764308 
Q 224.69267 169.764308 223.866169 169.764308 
Q 223.039669 169.764308 220.993741 169.764308 
L 219.286543 169.764308 
z
M 215.122425 169.764308 
L 220.840183 169.764308 
Q 225.203023 169.764308 227.113459 169.764308 
Q 229.023895 169.764308 229.023895 169.764308 
Q 229.023895 169.764308 227.113459 169.764308 
Q 225.203023 169.764308 220.840183 169.764308 
L 219.286543 169.764308 
L 219.286543 169.764308 
L 215.122425 169.764308 
L 215.122425 169.764308 
z
" style="fill: #808080"/>
   </g>
   <g id="text_18">
    <g id="patch_12">
     <path d="M 212.837128 184.738058 
L 256.183378 184.738058 
L 256.183378 115.055558 
L 212.837128 115.055558 
L 212.837128 184.738058 
z
" style="fill: none"/>
    </g>
    <path d="M 220.036265 169.764308 
Q 216.888336 169.764308 215.772786 169.764308 
Q 214.657236 169.764308 214.657236 169.764308 
Q 214.657236 169.764308 216.490893 169.764308 
Q 218.329066 169.764308 221.531192 169.764308 
Q 222.985472 169.764308 224.439752 169.764308 
Q 225.894031 169.764308 227.316697 169.764308 
L 227.316697 169.764308 
Q 225.975327 169.764308 224.593309 169.764308 
Q 223.211292 169.764308 221.856373 169.764308 
Q 220.347896 169.764308 219.539461 169.764308 
Q 218.735542 169.764308 218.735542 169.764308 
Q 218.735542 169.764308 219.322674 169.764308 
Q 219.909805 169.764308 221.770561 169.764308 
L 223.563571 169.764308 
Q 226.106302 169.764308 227.303147 169.764308 
Q 228.504509 169.764308 228.504509 169.764308 
Q 228.504509 169.764308 226.616655 169.764308 
Q 224.733317 169.764308 220.925995 169.764308 
Q 219.358805 169.764308 217.782582 169.764308 
Q 216.210876 169.764308 214.743047 169.764308 
L 214.743047 169.764308 
Q 216.409598 169.764308 217.967755 169.764308 
Q 219.525912 169.764308 221.052454 169.764308 
Q 222.588029 169.764308 223.432595 169.764308 
Q 224.281678 169.764308 224.281678 169.764308 
Q 224.281678 169.764308 223.717128 169.764308 
Q 223.152578 169.764308 222.082192 169.764308 
L 220.036265 169.764308 
z
" style="fill: #808080"/>
   </g>
   <g id="text_19">
    <g id="patch_13">
     <path d="M 212.837128 184.738058 
L 256.183378 184.738058 
L 256.183378 115.055558 
L 212.837128 115.055558 
L 212.837128 184.738058 
z
" style="fill: none"/>
    </g>
    <path d="M 228.477411 169.764308 
L 223.816489 169.764308 
L 228.477411 169.764308 
L 227.402508 169.764308 
L 222.719004 169.764308 
L 222.719004 169.764308 
L 220.289183 169.764308 
L 220.289183 169.764308 
L 215.619228 169.764308 
L 214.544326 169.764308 
L 219.232346 169.764308 
L 214.544326 169.764308 
L 215.619228 169.764308 
L 220.289183 169.764308 
L 220.289183 169.764308 
L 222.719004 169.764308 
L 222.719004 169.764308 
L 227.402508 169.764308 
L 228.477411 169.764308 
z
" style="fill: #808080"/>
   </g>
   <g id="text_20">
    <g id="patch_14">
     <path d="M 212.837128 184.738058 
L 256.183378 184.738058 
L 256.183378 115.055558 
L 212.837128 115.055558 
L 212.837128 184.738058 
z
" style="fill: none"/>
    </g>
    <path d="M 221.531192 169.764308 
L 225.24367 169.764308 
L 229.434887 169.764308 
L 224.426202 169.764308 
L 218.654247 169.764308 
L 213.641046 169.764308 
L 217.832263 169.764308 
L 221.531192 169.764308 
z
" style="fill: #808080"/>
   </g>
   <g id="text_21">
    <g id="patch_15">
     <path d="M 212.837128 184.738058 
L 256.183378 184.738058 
L 256.183378 115.055558 
L 212.837128 115.055558 
L 212.837128 184.738058 
z
" style="fill: none"/>
    </g>
    <path d="M 213.329415 169.764308 
L 216.761877 169.764308 
L 218.184542 169.764308 
L 219.909805 169.764308 
L 223.170644 169.764308 
L 225.157859 169.764308 
L 226.286958 169.764308 
L 229.746518 169.764308 
L 227.461221 169.764308 
L 223.78939 169.764308 
L 221.531192 169.764308 
L 219.413002 169.764308 
L 215.786335 169.764308 
L 213.329415 169.764308 
z
" style="fill: #808080"/>
   </g>
   <g id="text_22">
    <g id="patch_16">
     <path d="M 212.837128 184.738058 
L 256.183378 184.738058 
L 256.183378 115.055558 
L 212.837128 115.055558 
L 212.837128 184.738058 
z
" style="fill: none"/>
    </g>
    <path d="M 225.14431 169.764308 
L 225.14431 169.764308 
L 222.294463 169.764308 
L 222.294463 169.764308 
L 228.784526 169.764308 
L 228.784526 169.764308 
Q 227.58768 169.764308 226.137917 169.764308 
Q 224.69267 169.764308 223.039669 169.764308 
Q 218.947813 169.764308 216.716713 169.764308 
Q 214.490129 169.764308 214.490129 169.764308 
Q 214.490129 169.764308 216.739295 169.764308 
Q 218.992977 169.764308 223.23839 169.764308 
Q 224.507498 169.764308 225.735958 169.764308 
Q 226.964418 169.764308 228.03932 169.764308 
L 228.03932 169.764308 
Q 227.163139 169.764308 226.025007 169.764308 
Q 224.891391 169.764308 223.536472 169.764308 
Q 221.165364 169.764308 219.991101 169.764308 
Q 218.821354 169.764308 218.821354 169.764308 
Q 218.821354 169.764308 219.950453 169.764308 
Q 221.079552 169.764308 223.23839 169.764308 
Q 223.888751 169.764308 224.367489 169.764308 
Q 224.846227 169.764308 225.14431 169.764308 
z
" style="fill: #808080"/>
   </g>
   <g id="text_23">
    <g id="patch_17">
     <path d="M 212.837128 184.738058 
L 256.183378 184.738058 
L 256.183378 115.055558 
L 212.837128 115.055558 
L 212.837128 184.738058 
z
" style="fill: none"/>
    </g>
    <path d="M 214.770146 169.764308 
L 218.934264 169.764308 
L 218.934264 169.764308 
L 224.141669 169.764308 
L 224.141669 169.764308 
L 228.305787 169.764308 
L 228.305787 169.764308 
L 224.141669 169.764308 
L 224.141669 169.764308 
L 218.934264 169.764308 
L 218.934264 169.764308 
L 214.770146 169.764308 
L 214.770146 169.764308 
z
" style="fill: #808080"/>
   </g>
   <g id="text_24">
    <g id="patch_18">
     <path d="M 212.837128 184.738058 
L 256.183378 184.738058 
L 256.183378 115.055558 
L 212.837128 115.055558 
L 212.837128 184.738058 
z
" style="fill: none"/>
    </g>
    <path d="M 222.095742 169.764308 
Q 221.89702 169.764308 221.761528 169.764308 
Q 221.630553 169.764308 221.504094 169.764308 
Q 217.877427 169.764308 216.007638 169.764308 
Q 214.13785 169.764308 214.13785 169.764308 
Q 214.13785 169.764308 216.007638 169.764308 
Q 217.877427 169.764308 221.531192 169.764308 
Q 225.203023 169.764308 227.072811 169.764308 
Q 228.942599 169.764308 228.942599 169.764308 
Q 228.942599 169.764308 228.052869 169.764308 
Q 227.163139 169.764308 225.46949 169.764308 
L 228.093517 169.764308 
L 225.24367 169.764308 
L 222.095742 169.764308 
z
M 221.531192 169.764308 
Q 219.936904 169.764308 219.200731 169.764308 
Q 218.469075 169.764308 218.469075 169.764308 
Q 218.469075 169.764308 219.200731 169.764308 
Q 219.936904 169.764308 221.531192 169.764308 
Q 223.139029 169.764308 223.870686 169.764308 
Q 224.606858 169.764308 224.606858 169.764308 
Q 224.606858 169.764308 223.870686 169.764308 
Q 223.139029 169.764308 221.531192 169.764308 
z
" style="fill: #808080"/>
   </g>
   <g id="text_25">
    <g id="patch_19">
     <path d="M 212.837128 184.738058 
L 256.183378 184.738058 
L 256.183378 115.055558 
L 212.837128 115.055558 
L 212.837128 184.738058 
z
" style="fill: none"/>
    </g>
    <path d="M 228.332886 169.764308 
L 215.208236 169.764308 
L 215.208236 169.764308 
L 228.332886 169.764308 
L 228.332886 169.764308 
L 219.372354 169.764308 
L 219.372354 169.764308 
L 227.48832 169.764308 
L 227.48832 169.764308 
L 219.372354 169.764308 
L 219.372354 169.764308 
L 228.332886 169.764308 
L 228.332886 169.764308 
z
" style="fill: #808080"/>
   </g>
   <g id="text_26">
    <g id="patch_20">
     <path d="M 212.837128 184.738058 
L 256.183378 184.738058 
L 256.183378 115.055558 
L 212.837128 115.055558 
L 212.837128 184.738058 
z
" style="fill: none"/>
    </g>
    <path d="M 214.052038 169.764308 
L 219.020075 169.764308 
L 221.531192 169.764308 
L 224.028759 169.764308 
L 229.023895 169.764308 
L 229.023895 169.764308 
L 225.442392 169.764308 
L 225.442392 169.764308 
L 223.211292 169.764308 
L 219.896256 169.764308 
L 217.638058 169.764308 
L 217.638058 169.764308 
L 214.052038 169.764308 
L 214.052038 169.764308 
z
" style="fill: #808080"/>
   </g>
   <g id="text_27">
    <g id="patch_21">
     <path d="M 212.837128 184.738058 
L 256.183378 184.738058 
L 256.183378 115.055558 
L 212.837128 115.055558 
L 212.837128 184.738058 
z
" style="fill: none"/>
    </g>
    <path d="M 224.227481 169.764308 
Q 224.846227 169.764308 225.3069 169.764308 
Q 225.767572 169.764308 226.426966 169.764308 
L 230.238805 169.764308 
L 225.668212 169.764308 
L 223.12548 169.764308 
Q 223.01257 169.764308 222.831914 169.764308 
Q 221.716364 169.764308 220.203371 169.764308 
L 218.880067 169.764308 
L 218.880067 169.764308 
L 214.715949 169.764308 
L 214.715949 169.764308 
L 220.727273 169.764308 
Q 224.792031 169.764308 226.562458 169.764308 
Q 228.332886 169.764308 228.332886 169.764308 
Q 228.332886 169.764308 227.276049 169.764308 
Q 226.219212 169.764308 224.227481 169.764308 
z
M 218.880067 169.764308 
L 218.880067 169.764308 
L 220.840183 169.764308 
Q 222.547381 169.764308 223.28807 169.764308 
Q 224.028759 169.764308 224.028759 169.764308 
Q 224.028759 169.764308 223.292587 169.764308 
Q 222.56093 169.764308 220.840183 169.764308 
L 218.880067 169.764308 
z
" style="fill: #808080"/>
   </g>
   <g id="text_28">
    <g id="patch_22">
     <path d="M 212.837128 184.738058 
L 256.183378 184.738058 
L 256.183378 115.055558 
L 212.837128 115.055558 
L 212.837128 184.738058 
z
" style="fill: none"/>
    </g>
    <path d="M 215.266949 169.764308 
L 215.266949 169.764308 
L 227.8135 169.764308 
L 227.8135 169.764308 
L 223.622284 169.764308 
L 223.622284 169.764308 
L 227.8135 169.764308 
L 227.8135 169.764308 
L 215.266949 169.764308 
L 215.266949 169.764308 
L 219.458166 169.764308 
L 219.458166 169.764308 
L 215.266949 169.764308 
z
" style="fill: #808080"/>
   </g>
   <g id="text_29">
    <g id="patch_23">
     <path d="M 212.837128 184.738058 
L 256.183378 184.738058 
L 256.183378 115.055558 
L 212.837128 115.055558 
L 212.837128 184.738058 
z
" style="fill: none"/>
    </g>
    <path d="M 228.531607 169.764308 
L 219.571076 169.764308 
L 219.571076 169.764308 
L 227.727689 169.764308 
L 227.727689 169.764308 
L 219.571076 169.764308 
L 219.571076 169.764308 
L 215.406958 169.764308 
L 215.406958 169.764308 
L 228.531607 169.764308 
L 228.531607 169.764308 
z
" style="fill: #808080"/>
   </g>
   <g id="text_30">
    <g id="patch_24">
     <path d="M 212.837128 184.738058 
L 256.183378 184.738058 
L 256.183378 115.055558 
L 212.837128 115.055558 
L 212.837128 184.738058 
z
" style="fill: none"/>
    </g>
    <path d="M 223.622284 169.764308 
L 219.458166 169.764308 
L 219.458166 169.764308 
L 214.106235 169.764308 
L 214.106235 169.764308 
L 228.969698 169.764308 
L 228.969698 169.764308 
L 223.622284 169.764308 
L 223.622284 169.764308 
z
" style="fill: #808080"/>
   </g>
   <g id="text_31">
    <g id="patch_25">
     <path d="M 212.837128 184.738058 
L 256.183378 184.738058 
L 256.183378 115.055558 
L 212.837128 115.055558 
L 212.837128 184.738058 
z
" style="fill: none"/>
    </g>
    <path d="M 212.950038 169.764308 
L 217.439336 169.764308 
L 221.531192 169.764308 
L 225.636597 169.764308 
L 230.125895 169.764308 
L 223.622284 169.764308 
L 223.622284 169.764308 
L 219.458166 169.764308 
L 219.458166 169.764308 
L 212.950038 169.764308 
z
" style="fill: #808080"/>
   </g>
   <g id="text_32">
    <g id="patch_26">
     <path d="M 212.837128 184.738058 
L 256.183378 184.738058 
L 256.183378 115.055558 
L 212.837128 115.055558 
L 212.837128 184.738058 
z
" style="fill: none"/>
    </g>
    <path d="M 221.531192 169.764308 
L 219.571076 169.764308 
L 223.509374 169.764308 
L 221.531192 169.764308 
z
M 218.992977 169.764308 
L 224.087473 169.764308 
L 229.773616 169.764308 
L 225.609498 169.764308 
L 224.313292 169.764308 
L 218.735542 169.764308 
L 217.466435 169.764308 
L 213.302317 169.764308 
L 218.992977 169.764308 
z
" style="fill: #808080"/>
   </g>
   <g id="text_33">
    <g id="patch_27">
     <path d="M 212.837128 184.738058 
L 256.183378 184.738058 
L 256.183378 115.055558 
L 212.837128 115.055558 
L 212.837128 184.738058 
z
" style="fill: none"/>
    </g>
    <path d="M 218.934264 169.764308 
L 218.934264 169.764308 
L 220.063363 169.764308 
Q 222.520283 169.764308 223.563571 169.764308 
Q 224.606858 169.764308 224.606858 169.764308 
Q 224.606858 169.764308 223.563571 169.764308 
Q 222.520283 169.764308 220.063363 169.764308 
L 218.934264 169.764308 
z
M 214.770146 169.764308 
L 219.232346 169.764308 
Q 224.394588 169.764308 226.666335 169.764308 
Q 228.942599 169.764308 228.942599 169.764308 
Q 228.942599 169.764308 226.666335 169.764308 
Q 224.394588 169.764308 219.232346 169.764308 
L 214.770146 169.764308 
L 214.770146 169.764308 
z
" style="fill: #808080"/>
   </g>
   <g id="text_34">
    <g id="patch_28">
     <path d="M 212.837128 184.737777 
L 256.183378 184.737777 
L 256.183378 115.055277 
L 212.837128 115.055277 
L 212.837128 184.737777 
z
" style="fill: none"/>
    </g>
    <path d="M 214.517227 169.763795 
L 218.992977 169.763795 
L 224.864293 169.763963 
L 224.864293 169.763795 
L 228.531607 169.763795 
L 228.531607 169.764026 
L 224.087473 169.764026 
L 218.184542 169.763858 
L 218.184542 169.764026 
L 214.517227 169.764026 
L 214.517227 169.763795 
z
" style="fill: #808080"/>
   </g>
   <g id="text_35">
    <g id="patch_29">
     <path d="M 212.837128 184.025557 
L 256.183378 184.025557 
L 256.183378 114.343057 
L 212.837128 114.343057 
L 212.837128 184.025557 
z
" style="fill: none"/>
    </g>
    <path d="M 228.093517 169.02302 
Q 227.104426 169.036688 226.015974 169.043461 
Q 224.932039 169.050234 223.735194 169.050234 
Q 219.471715 169.050234 217.227066 168.975123 
Q 214.982416 168.899892 214.982416 168.757774 
Q 214.982416 168.615293 217.227066 168.540061 
Q 219.471715 168.46483 223.735194 168.46483 
Q 224.932039 168.46483 226.03404 168.471603 
Q 227.136041 168.478376 228.093517 168.492044 
L 228.093517 168.616019 
Q 227.023131 168.589531 226.011458 168.577315 
Q 225.004301 168.564977 223.929399 168.564977 
Q 221.644102 168.564977 220.478871 168.6136 
Q 219.313641 168.662101 219.313641 168.757774 
Q 219.313641 168.852963 220.478871 168.901585 
Q 221.644102 168.950086 223.929399 168.950086 
Q 225.004301 168.950086 226.011458 168.93787 
Q 227.023131 168.925533 228.093517 168.899045 
L 228.093517 169.02302 
z
" style="fill: #808080"/>
   </g>
   <g id="text_36">
    <g id="patch_30">
     <path d="M 212.837128 182.333891 
L 256.183378 182.333891 
L 256.183378 112.651391 
L 212.837128 112.651391 
L 212.837128 182.333891 
z
" style="fill: none"/>
    </g>
    <path d="M 214.490129 166.463659 
L 218.654247 166.463659 
L 218.654247 166.817422 
L 225.171408 166.463659 
L 229.886526 166.463659 
L 223.23839 166.816316 
L 230.125895 167.358482 
L 225.496589 167.358482 
L 220.501453 166.955683 
L 218.654247 167.055415 
L 218.654247 167.358482 
L 214.490129 167.358482 
L 214.490129 166.463659 
z
" style="fill: #808080"/>
   </g>
   <g id="text_37">
    <g id="patch_31">
     <path d="M 212.837128 179.900364 
L 256.183378 179.900364 
L 256.183378 110.217864 
L 212.837128 110.217864 
L 212.837128 179.900364 
z
" style="fill: none"/>
    </g>
    <path d="M 216.012155 164.924306 
L 216.012155 163.679882 
L 220.176273 163.679882 
L 220.176273 164.70716 
L 229.082608 164.70716 
L 229.082608 164.924306 
L 216.012155 164.924306 
z
" style="fill: #808080"/>
   </g>
   <g id="text_38">
    <g id="patch_32">
     <path d="M 246.366859 184.738058 
L 289.713109 184.738058 
L 289.713109 115.055558 
L 246.366859 115.055558 
L 246.366859 184.738058 
z
" style="fill: none"/>
    </g>
    <path d="M 248.01986 169.764308 
L 252.183978 169.764308 
L 252.183978 169.764308 
L 258.701139 169.764308 
L 263.416258 169.764308 
L 256.768121 169.764308 
L 263.655627 169.764308 
L 259.02632 169.764308 
L 254.031185 169.764308 
L 252.183978 169.764308 
L 252.183978 169.764308 
L 248.01986 169.764308 
L 248.01986 169.764308 
z
" style="fill: #808080"/>
   </g>
   <g id="text_39">
    <g id="patch_33">
     <path d="M 246.366859 184.738058 
L 289.713109 184.738058 
L 289.713109 115.055558 
L 246.366859 115.055558 
L 246.366859 184.738058 
z
" style="fill: none"/>
    </g>
    <path d="M 249.541886 169.764308 
L 249.541886 169.764308 
L 253.706004 169.764308 
L 253.706004 169.764308 
L 262.612339 169.764308 
L 262.612339 169.764308 
L 249.541886 169.764308 
z
" style="fill: #808080"/>
   </g>
   <g id="text_40">
    <g id="patch_34">
     <path d="M 246.366859 184.738058 
L 289.713109 184.738058 
L 289.713109 115.055558 
L 246.366859 115.055558 
L 246.366859 184.738058 
z
" style="fill: none"/>
    </g>
    <path d="M 253.565996 169.764308 
Q 250.418067 169.764308 249.302517 169.764308 
Q 248.186967 169.764308 248.186967 169.764308 
Q 248.186967 169.764308 250.020624 169.764308 
Q 251.858798 169.764308 255.060923 169.764308 
Q 256.515203 169.764308 257.969483 169.764308 
Q 259.423763 169.764308 260.846428 169.764308 
L 260.846428 169.764308 
Q 259.505058 169.764308 258.123041 169.764308 
Q 256.741023 169.764308 255.386104 169.764308 
Q 253.877627 169.764308 253.069192 169.764308 
Q 252.265274 169.764308 252.265274 169.764308 
Q 252.265274 169.764308 252.852405 169.764308 
Q 253.439537 169.764308 255.300292 169.764308 
L 257.093302 169.764308 
Q 259.636034 169.764308 260.832879 169.764308 
Q 262.03424 169.764308 262.03424 169.764308 
Q 262.03424 169.764308 260.146386 169.764308 
Q 258.263049 169.764308 254.455726 169.764308 
Q 252.888536 169.764308 251.312314 169.764308 
Q 249.740608 169.764308 248.272779 169.764308 
L 248.272779 169.764308 
Q 249.939329 169.764308 251.497486 169.764308 
Q 253.055643 169.764308 254.582185 169.764308 
Q 256.11776 169.764308 256.962326 169.764308 
Q 257.811409 169.764308 257.811409 169.764308 
Q 257.811409 169.764308 257.24686 169.764308 
Q 256.68231 169.764308 255.611924 169.764308 
L 253.565996 169.764308 
z
" style="fill: #808080"/>
   </g>
   <g id="text_41">
    <g id="patch_35">
     <path d="M 246.366859 184.738058 
L 289.713109 184.738058 
L 289.713109 115.055558 
L 246.366859 115.055558 
L 246.366859 184.738058 
z
" style="fill: none"/>
    </g>
    <path d="M 258.674041 169.764308 
L 258.674041 169.764308 
L 255.824194 169.764308 
L 255.824194 169.764308 
L 262.314257 169.764308 
L 262.314257 169.764308 
Q 261.117412 169.764308 259.667648 169.764308 
Q 258.222401 169.764308 256.5694 169.764308 
Q 252.477544 169.764308 250.246444 169.764308 
Q 248.01986 169.764308 248.01986 169.764308 
Q 248.01986 169.764308 250.269026 169.764308 
Q 252.522708 169.764308 256.768121 169.764308 
Q 258.037229 169.764308 259.265689 169.764308 
Q 260.494149 169.764308 261.569051 169.764308 
L 261.569051 169.764308 
Q 260.69287 169.764308 259.554738 169.764308 
Q 258.421123 169.764308 257.066204 169.764308 
Q 254.695095 169.764308 253.520832 169.764308 
Q 252.351085 169.764308 252.351085 169.764308 
Q 252.351085 169.764308 253.480184 169.764308 
Q 254.609284 169.764308 256.768121 169.764308 
Q 257.418483 169.764308 257.897221 169.764308 
Q 258.375959 169.764308 258.674041 169.764308 
z
" style="fill: #808080"/>
   </g>
   <g id="text_42">
    <g id="patch_36">
     <path d="M 246.366859 184.738058 
L 289.713109 184.738058 
L 289.713109 115.055558 
L 246.366859 115.055558 
L 246.366859 184.738058 
z
" style="fill: none"/>
    </g>
    <path d="M 248.299877 169.764308 
L 252.463995 169.764308 
L 252.463995 169.764308 
L 257.671401 169.764308 
L 257.671401 169.764308 
L 261.835519 169.764308 
L 261.835519 169.764308 
L 257.671401 169.764308 
L 257.671401 169.764308 
L 252.463995 169.764308 
L 252.463995 169.764308 
L 248.299877 169.764308 
L 248.299877 169.764308 
z
" style="fill: #808080"/>
   </g>
   <g id="text_43">
    <g id="patch_37">
     <path d="M 246.366859 184.738058 
L 289.713109 184.738058 
L 289.713109 115.055558 
L 246.366859 115.055558 
L 246.366859 184.738058 
z
" style="fill: none"/>
    </g>
    <path d="M 255.625473 169.764308 
Q 255.426752 169.764308 255.29126 169.764308 
Q 255.160284 169.764308 255.033825 169.764308 
Q 251.407158 169.764308 249.53737 169.764308 
Q 247.667581 169.764308 247.667581 169.764308 
Q 247.667581 169.764308 249.53737 169.764308 
Q 251.407158 169.764308 255.060923 169.764308 
Q 258.732754 169.764308 260.602542 169.764308 
Q 262.472331 169.764308 262.472331 169.764308 
Q 262.472331 169.764308 261.582601 169.764308 
Q 260.69287 169.764308 258.999222 169.764308 
L 261.623248 169.764308 
L 258.773402 169.764308 
L 255.625473 169.764308 
z
M 255.060923 169.764308 
Q 253.466635 169.764308 252.730462 169.764308 
Q 251.998806 169.764308 251.998806 169.764308 
Q 251.998806 169.764308 252.730462 169.764308 
Q 253.466635 169.764308 255.060923 169.764308 
Q 256.668761 169.764308 257.400417 169.764308 
Q 258.13659 169.764308 258.13659 169.764308 
Q 258.13659 169.764308 257.400417 169.764308 
Q 256.668761 169.764308 255.060923 169.764308 
z
" style="fill: #808080"/>
   </g>
   <g id="text_44">
    <g id="patch_38">
     <path d="M 246.366859 184.738058 
L 289.713109 184.738058 
L 289.713109 115.055558 
L 246.366859 115.055558 
L 246.366859 184.738058 
z
" style="fill: none"/>
    </g>
    <path d="M 261.862617 169.764308 
L 248.737968 169.764308 
L 248.737968 169.764308 
L 261.862617 169.764308 
L 261.862617 169.764308 
L 252.902086 169.764308 
L 252.902086 169.764308 
L 261.018051 169.764308 
L 261.018051 169.764308 
L 252.902086 169.764308 
L 252.902086 169.764308 
L 261.862617 169.764308 
L 261.862617 169.764308 
z
" style="fill: #808080"/>
   </g>
   <g id="text_45">
    <g id="patch_39">
     <path d="M 246.366859 184.738058 
L 289.713109 184.738058 
L 289.713109 115.055558 
L 246.366859 115.055558 
L 246.366859 184.738058 
z
" style="fill: none"/>
    </g>
    <path d="M 247.58177 169.764308 
L 252.549807 169.764308 
L 255.060923 169.764308 
L 257.558491 169.764308 
L 262.553626 169.764308 
L 262.553626 169.764308 
L 258.972123 169.764308 
L 258.972123 169.764308 
L 256.741023 169.764308 
L 253.425988 169.764308 
L 251.167789 169.764308 
L 251.167789 169.764308 
L 247.58177 169.764308 
L 247.58177 169.764308 
z
" style="fill: #808080"/>
   </g>
   <g id="text_46">
    <g id="patch_40">
     <path d="M 246.366859 184.738058 
L 289.713109 184.738058 
L 289.713109 115.055558 
L 246.366859 115.055558 
L 246.366859 184.738058 
z
" style="fill: none"/>
    </g>
    <path d="M 257.757212 169.764308 
Q 258.375959 169.764308 258.836631 169.764308 
Q 259.297304 169.764308 259.956698 169.764308 
L 263.768537 169.764308 
L 259.197943 169.764308 
L 256.655211 169.764308 
Q 256.542302 169.764308 256.361646 169.764308 
Q 255.246096 169.764308 253.733103 169.764308 
L 252.409798 169.764308 
L 252.409798 169.764308 
L 248.24568 169.764308 
L 248.24568 169.764308 
L 254.257005 169.764308 
Q 258.321762 169.764308 260.09219 169.764308 
Q 261.862617 169.764308 261.862617 169.764308 
Q 261.862617 169.764308 260.80578 169.764308 
Q 259.748943 169.764308 257.757212 169.764308 
z
M 252.409798 169.764308 
L 252.409798 169.764308 
L 254.369915 169.764308 
Q 256.077113 169.764308 256.817802 169.764308 
Q 257.558491 169.764308 257.558491 169.764308 
Q 257.558491 169.764308 256.822318 169.764308 
Q 256.090662 169.764308 254.369915 169.764308 
L 252.409798 169.764308 
z
" style="fill: #808080"/>
   </g>
   <g id="text_47">
    <g id="patch_41">
     <path d="M 246.366859 184.738058 
L 289.713109 184.738058 
L 289.713109 115.055558 
L 246.366859 115.055558 
L 246.366859 184.738058 
z
" style="fill: none"/>
    </g>
    <path d="M 248.796681 169.764308 
L 248.796681 169.764308 
L 261.343232 169.764308 
L 261.343232 169.764308 
L 257.152015 169.764308 
L 257.152015 169.764308 
L 261.343232 169.764308 
L 261.343232 169.764308 
L 248.796681 169.764308 
L 248.796681 169.764308 
L 252.987897 169.764308 
L 252.987897 169.764308 
L 248.796681 169.764308 
z
" style="fill: #808080"/>
   </g>
   <g id="text_48">
    <g id="patch_42">
     <path d="M 246.366859 184.738058 
L 289.713109 184.738058 
L 289.713109 115.055558 
L 246.366859 115.055558 
L 246.366859 184.738058 
z
" style="fill: none"/>
    </g>
    <path d="M 262.061339 169.764308 
L 253.100807 169.764308 
L 253.100807 169.764308 
L 261.25742 169.764308 
L 261.25742 169.764308 
L 253.100807 169.764308 
L 253.100807 169.764308 
L 248.936689 169.764308 
L 248.936689 169.764308 
L 262.061339 169.764308 
L 262.061339 169.764308 
z
" style="fill: #808080"/>
   </g>
   <g id="text_49">
    <g id="patch_43">
     <path d="M 246.366859 184.738058 
L 289.713109 184.738058 
L 289.713109 115.055558 
L 246.366859 115.055558 
L 246.366859 184.738058 
z
" style="fill: none"/>
    </g>
    <path d="M 257.152015 169.764308 
L 252.987897 169.764308 
L 252.987897 169.764308 
L 247.635967 169.764308 
L 247.635967 169.764308 
L 262.499429 169.764308 
L 262.499429 169.764308 
L 257.152015 169.764308 
L 257.152015 169.764308 
z
" style="fill: #808080"/>
   </g>
   <g id="text_50">
    <g id="patch_44">
     <path d="M 246.366859 184.738058 
L 289.713109 184.738058 
L 289.713109 115.055558 
L 246.366859 115.055558 
L 246.366859 184.738058 
z
" style="fill: none"/>
    </g>
    <path d="M 246.479769 169.764308 
L 250.969068 169.764308 
L 255.060923 169.764308 
L 259.166328 169.764308 
L 263.655627 169.764308 
L 257.152015 169.764308 
L 257.152015 169.764308 
L 252.987897 169.764308 
L 252.987897 169.764308 
L 246.479769 169.764308 
z
" style="fill: #808080"/>
   </g>
   <g id="text_51">
    <g id="patch_45">
     <path d="M 246.366859 184.738058 
L 289.713109 184.738058 
L 289.713109 115.055558 
L 246.366859 115.055558 
L 246.366859 184.738058 
z
" style="fill: none"/>
    </g>
    <path d="M 255.060923 169.764308 
L 253.100807 169.764308 
L 257.039105 169.764308 
L 255.060923 169.764308 
z
M 252.522708 169.764308 
L 257.617204 169.764308 
L 263.303348 169.764308 
L 259.13923 169.764308 
L 257.843024 169.764308 
L 252.265274 169.764308 
L 250.996166 169.764308 
L 246.832048 169.764308 
L 252.522708 169.764308 
z
" style="fill: #808080"/>
   </g>
   <g id="text_52">
    <g id="patch_46">
     <path d="M 246.366859 184.738058 
L 289.713109 184.738058 
L 289.713109 115.055558 
L 246.366859 115.055558 
L 246.366859 184.738058 
z
" style="fill: none"/>
    </g>
    <path d="M 252.463995 169.764308 
L 252.463995 169.764308 
L 253.593094 169.764308 
Q 256.050014 169.764308 257.093302 169.764308 
Q 258.13659 169.764308 258.13659 169.764308 
Q 258.13659 169.764308 257.093302 169.764308 
Q 256.050014 169.764308 253.593094 169.764308 
L 252.463995 169.764308 
z
M 248.299877 169.764308 
L 252.762077 169.764308 
Q 257.924319 169.764308 260.196067 169.764308 
Q 262.472331 169.764308 262.472331 169.764308 
Q 262.472331 169.764308 260.196067 169.764308 
Q 257.924319 169.764308 252.762077 169.764308 
L 248.299877 169.764308 
L 248.299877 169.764308 
z
" style="fill: #808080"/>
   </g>
   <g id="text_53">
    <g id="patch_47">
     <path d="M 246.366859 184.728419 
L 289.713109 184.728419 
L 289.713109 115.045919 
L 246.366859 115.045919 
L 246.366859 184.728419 
z
" style="fill: none"/>
    </g>
    <path d="M 262.007142 169.749244 
L 257.34622 169.750689 
L 262.007142 169.752146 
L 260.932239 169.753323 
L 256.248736 169.751782 
L 256.248736 169.754664 
L 253.818914 169.754664 
L 253.818914 169.751782 
L 249.14896 169.753323 
L 248.074057 169.752146 
L 252.762077 169.750689 
L 248.074057 169.749244 
L 249.14896 169.748064 
L 253.818914 169.749588 
L 253.818914 169.746706 
L 256.248736 169.746706 
L 256.248736 169.749588 
L 260.932239 169.748064 
L 262.007142 169.749244 
z
" style="fill: #808080"/>
   </g>
   <g id="text_54">
    <g id="patch_48">
     <path d="M 246.366859 184.083324 
L 289.713109 184.083324 
L 289.713109 114.400824 
L 246.366859 114.400824 
L 246.366859 184.083324 
z
" style="fill: none"/>
    </g>
    <path d="M 246.859146 168.583427 
L 250.291608 168.583427 
L 251.714273 168.968922 
L 253.439537 168.719752 
L 256.700375 168.719752 
L 258.68759 168.968922 
L 259.816689 168.583427 
L 263.27625 168.583427 
L 260.990953 169.1086 
L 257.319122 169.1086 
L 255.060923 168.833031 
L 252.942733 169.1086 
L 249.316066 169.1086 
L 246.859146 168.583427 
z
" style="fill: #808080"/>
   </g>
   <g id="text_55">
    <g id="patch_49">
     <path d="M 246.366859 182.783064 
L 289.713109 182.783064 
L 289.713109 113.100564 
L 246.366859 113.100564 
L 246.366859 182.783064 
z
" style="fill: none"/>
    </g>
    <path d="M 261.623248 167.778678 
Q 260.634157 167.793223 259.545706 167.800432 
Q 258.46177 167.80764 257.264925 167.80764 
Q 253.001446 167.80764 250.756797 167.727703 
Q 248.512148 167.647637 248.512148 167.496388 
Q 248.512148 167.344752 250.756797 167.264686 
Q 253.001446 167.18462 257.264925 167.18462 
Q 258.46177 167.18462 259.563771 167.191829 
Q 260.665772 167.199037 261.623248 167.213583 
L 261.623248 167.345524 
Q 260.552862 167.317334 259.541189 167.304333 
Q 258.534033 167.291203 257.45913 167.291203 
Q 255.173833 167.291203 254.008603 167.34295 
Q 252.843372 167.394568 252.843372 167.496388 
Q 252.843372 167.597693 254.008603 167.64944 
Q 255.173833 167.701058 257.45913 167.701058 
Q 258.534033 167.701058 259.541189 167.688057 
Q 260.552862 167.674927 261.623248 167.646736 
L 261.623248 167.778678 
z
" style="fill: #808080"/>
   </g>
   <g id="text_56">
    <g id="patch_50">
     <path d="M 246.366859 181.071129 
L 289.713109 181.071129 
L 289.713109 111.388629 
L 246.366859 111.388629 
L 246.366859 181.071129 
z
" style="fill: none"/>
    </g>
    <path d="M 252.816274 165.362553 
L 252.816274 165.62072 
L 254.523472 165.62072 
Q 256.5694 165.62072 257.395901 165.591914 
Q 258.222401 165.562927 258.222401 165.491546 
Q 258.222401 165.420165 257.395901 165.391359 
Q 256.5694 165.362553 254.523472 165.362553 
L 252.816274 165.362553 
z
M 248.652156 165.216348 
L 254.369915 165.216348 
Q 258.732754 165.216348 260.64319 165.281207 
Q 262.553626 165.346066 262.553626 165.491546 
Q 262.553626 165.637026 260.64319 165.701885 
Q 258.732754 165.766744 254.369915 165.766744 
L 252.816274 165.766744 
L 252.816274 166.095749 
L 248.652156 166.095749 
L 248.652156 165.216348 
z
" style="fill: #808080"/>
   </g>
   <g id="text_57">
    <g id="patch_51">
     <path d="M 246.366859 178.5629 
L 289.713109 178.5629 
L 289.713109 108.8804 
L 246.366859 108.8804 
L 246.366859 178.5629 
z
" style="fill: none"/>
    </g>
    <path d="M 255.060923 163.36929 
L 258.773402 162.267543 
L 262.964618 162.267543 
L 257.955934 163.586704 
L 252.183978 163.586704 
L 247.170778 162.267543 
L 251.361994 162.267543 
L 255.060923 163.36929 
z
" style="fill: #808080"/>
   </g>
   <g id="text_58">
    <g id="patch_52">
     <path d="M 246.366859 175.53575 
L 289.713109 175.53575 
L 289.713109 105.85325 
L 246.366859 105.85325 
L 246.366859 175.53575 
z
" style="fill: none"/>
    </g>
    <path d="M 248.046959 158.481455 
L 252.522708 158.481455 
L 258.394024 159.991272 
L 258.394024 158.481455 
L 262.061339 158.481455 
L 262.061339 160.558149 
L 257.617204 160.558149 
L 251.714273 159.048332 
L 251.714273 160.558149 
L 248.046959 160.558149 
L 248.046959 158.481455 
z
" style="fill: #808080"/>
   </g>
   <g id="text_59">
    <g id="patch_53">
     <path d="M 279.896591 184.738058 
L 323.242841 184.738058 
L 323.242841 115.055558 
L 279.896591 115.055558 
L 279.896591 184.738058 
z
" style="fill: none"/>
    </g>
    <path d="M 295.15298 169.764308 
Q 294.163889 169.764308 293.075437 169.764308 
Q 291.991502 169.764308 290.794657 169.764308 
Q 286.531178 169.764308 284.286528 169.764308 
Q 282.041879 169.764308 282.041879 169.764308 
Q 282.041879 169.764308 284.286528 169.764308 
Q 286.531178 169.764308 290.794657 169.764308 
Q 291.991502 169.764308 293.093503 169.764308 
Q 294.195503 169.764308 295.15298 169.764308 
L 295.15298 169.764308 
Q 294.082594 169.764308 293.070921 169.764308 
Q 292.063764 169.764308 290.988862 169.764308 
Q 288.703565 169.764308 287.538334 169.764308 
Q 286.373104 169.764308 286.373104 169.764308 
Q 286.373104 169.764308 287.538334 169.764308 
Q 288.703565 169.764308 290.988862 169.764308 
Q 292.063764 169.764308 293.070921 169.764308 
Q 294.082594 169.764308 295.15298 169.764308 
L 295.15298 169.764308 
z
" style="fill: #e69f00"/>
   </g>
   <g id="text_60">
    <g id="patch_54">
     <path d="M 279.896591 184.738058 
L 323.242841 184.738058 
L 323.242841 115.055558 
L 279.896591 115.055558 
L 279.896591 184.738058 
z
" style="fill: none"/>
    </g>
    <path d="M 281.549592 169.764308 
L 285.71371 169.764308 
L 285.71371 169.764308 
L 292.230871 169.764308 
L 296.945989 169.764308 
L 290.297853 169.764308 
L 297.185358 169.764308 
L 292.556051 169.764308 
L 287.560916 169.764308 
L 285.71371 169.764308 
L 285.71371 169.764308 
L 281.549592 169.764308 
L 281.549592 169.764308 
z
" style="fill: #e69f00"/>
   </g>
   <g id="text_61">
    <g id="patch_55">
     <path d="M 279.896591 184.738058 
L 323.242841 184.738058 
L 323.242841 115.055558 
L 279.896591 115.055558 
L 279.896591 184.738058 
z
" style="fill: none"/>
    </g>
    <path d="M 281.57669 169.764308 
L 286.05244 169.764308 
L 291.923756 169.764308 
L 291.923756 169.764308 
L 295.59107 169.764308 
L 295.59107 169.764308 
L 291.146935 169.764308 
L 285.244005 169.764308 
L 285.244005 169.764308 
L 281.57669 169.764308 
L 281.57669 169.764308 
z
" style="fill: #e69f00"/>
   </g>
   <g id="text_62">
    <g id="patch_56">
     <path d="M 279.896591 184.738058 
L 323.242841 184.738058 
L 323.242841 115.055558 
L 279.896591 115.055558 
L 279.896591 184.738058 
z
" style="fill: none"/>
    </g>
    <path d="M 286.346005 169.764308 
L 286.346005 169.764308 
L 288.053204 169.764308 
Q 290.099131 169.764308 290.925632 169.764308 
Q 291.752133 169.764308 291.752133 169.764308 
Q 291.752133 169.764308 290.925632 169.764308 
Q 290.099131 169.764308 288.053204 169.764308 
L 286.346005 169.764308 
z
M 282.181887 169.764308 
L 287.899646 169.764308 
Q 292.262486 169.764308 294.172921 169.764308 
Q 296.083357 169.764308 296.083357 169.764308 
Q 296.083357 169.764308 294.172921 169.764308 
Q 292.262486 169.764308 287.899646 169.764308 
L 286.346005 169.764308 
L 286.346005 169.764308 
L 282.181887 169.764308 
L 282.181887 169.764308 
z
" style="fill: #e69f00"/>
   </g>
   <g id="text_63">
    <g id="patch_57">
     <path d="M 279.896591 184.738058 
L 323.242841 184.738058 
L 323.242841 115.055558 
L 279.896591 115.055558 
L 279.896591 184.738058 
z
" style="fill: none"/>
    </g>
    <path d="M 295.536873 169.764308 
L 290.875952 169.764308 
L 295.536873 169.764308 
L 294.461971 169.764308 
L 289.778467 169.764308 
L 289.778467 169.764308 
L 287.348646 169.764308 
L 287.348646 169.764308 
L 282.678691 169.764308 
L 281.603789 169.764308 
L 286.291809 169.764308 
L 281.603789 169.764308 
L 282.678691 169.764308 
L 287.348646 169.764308 
L 287.348646 169.764308 
L 289.778467 169.764308 
L 289.778467 169.764308 
L 294.461971 169.764308 
L 295.536873 169.764308 
z
" style="fill: #e69f00"/>
   </g>
   <g id="text_64">
    <g id="patch_58">
     <path d="M 279.896591 184.738058 
L 323.242841 184.738058 
L 323.242841 115.055558 
L 279.896591 115.055558 
L 279.896591 184.738058 
z
" style="fill: none"/>
    </g>
    <path d="M 288.590655 169.764308 
L 292.303133 169.764308 
L 296.49435 169.764308 
L 291.485665 169.764308 
L 285.71371 169.764308 
L 280.700509 169.764308 
L 284.891726 169.764308 
L 288.590655 169.764308 
z
" style="fill: #e69f00"/>
   </g>
   <g id="text_65">
    <g id="patch_59">
     <path d="M 279.896591 184.738058 
L 323.242841 184.738058 
L 323.242841 115.055558 
L 279.896591 115.055558 
L 279.896591 184.738058 
z
" style="fill: none"/>
    </g>
    <path d="M 280.388878 169.764308 
L 283.82134 169.764308 
L 285.244005 169.764308 
L 286.969268 169.764308 
L 290.230107 169.764308 
L 292.217322 169.764308 
L 293.346421 169.764308 
L 296.805981 169.764308 
L 294.520684 169.764308 
L 290.848853 169.764308 
L 288.590655 169.764308 
L 286.472465 169.764308 
L 282.845798 169.764308 
L 280.388878 169.764308 
z
" style="fill: #e69f00"/>
   </g>
   <g id="text_66">
    <g id="patch_60">
     <path d="M 279.896591 184.738058 
L 323.242841 184.738058 
L 323.242841 115.055558 
L 279.896591 115.055558 
L 279.896591 184.738058 
z
" style="fill: none"/>
    </g>
    <path d="M 292.203772 169.764308 
L 292.203772 169.764308 
L 289.353926 169.764308 
L 289.353926 169.764308 
L 295.843988 169.764308 
L 295.843988 169.764308 
Q 294.647143 169.764308 293.19738 169.764308 
Q 291.752133 169.764308 290.099131 169.764308 
Q 286.007276 169.764308 283.776176 169.764308 
Q 281.549592 169.764308 281.549592 169.764308 
Q 281.549592 169.764308 283.798758 169.764308 
Q 286.05244 169.764308 290.297853 169.764308 
Q 291.56696 169.764308 292.79542 169.764308 
Q 294.02388 169.764308 295.098783 169.764308 
L 295.098783 169.764308 
Q 294.222602 169.764308 293.08447 169.764308 
Q 291.950854 169.764308 290.595935 169.764308 
Q 288.224827 169.764308 287.050563 169.764308 
Q 285.880817 169.764308 285.880817 169.764308 
Q 285.880817 169.764308 287.009916 169.764308 
Q 288.139015 169.764308 290.297853 169.764308 
Q 290.948214 169.764308 291.426952 169.764308 
Q 291.90569 169.764308 292.203772 169.764308 
z
" style="fill: #e69f00"/>
   </g>
   <g id="text_67">
    <g id="patch_61">
     <path d="M 279.896591 184.738058 
L 323.242841 184.738058 
L 323.242841 115.055558 
L 279.896591 115.055558 
L 279.896591 184.738058 
z
" style="fill: none"/>
    </g>
    <path d="M 281.829608 169.764308 
L 285.993726 169.764308 
L 285.993726 169.764308 
L 291.201132 169.764308 
L 291.201132 169.764308 
L 295.36525 169.764308 
L 295.36525 169.764308 
L 291.201132 169.764308 
L 291.201132 169.764308 
L 285.993726 169.764308 
L 285.993726 169.764308 
L 281.829608 169.764308 
L 281.829608 169.764308 
z
" style="fill: #e69f00"/>
   </g>
   <g id="text_68">
    <g id="patch_62">
     <path d="M 279.896591 184.738058 
L 323.242841 184.738058 
L 323.242841 115.055558 
L 279.896591 115.055558 
L 279.896591 184.738058 
z
" style="fill: none"/>
    </g>
    <path d="M 289.155204 169.764308 
Q 288.956483 169.764308 288.820991 169.764308 
Q 288.690016 169.764308 288.563556 169.764308 
Q 284.93689 169.764308 283.067101 169.764308 
Q 281.197313 169.764308 281.197313 169.764308 
Q 281.197313 169.764308 283.067101 169.764308 
Q 284.93689 169.764308 288.590655 169.764308 
Q 292.262486 169.764308 294.132274 169.764308 
Q 296.002062 169.764308 296.002062 169.764308 
Q 296.002062 169.764308 295.112332 169.764308 
Q 294.222602 169.764308 292.528953 169.764308 
L 295.15298 169.764308 
L 292.303133 169.764308 
L 289.155204 169.764308 
z
M 288.590655 169.764308 
Q 286.996367 169.764308 286.260194 169.764308 
Q 285.528538 169.764308 285.528538 169.764308 
Q 285.528538 169.764308 286.260194 169.764308 
Q 286.996367 169.764308 288.590655 169.764308 
Q 290.198492 169.764308 290.930148 169.764308 
Q 291.666321 169.764308 291.666321 169.764308 
Q 291.666321 169.764308 290.930148 169.764308 
Q 290.198492 169.764308 288.590655 169.764308 
z
" style="fill: #e69f00"/>
   </g>
   <g id="text_69">
    <g id="patch_63">
     <path d="M 279.896591 184.738058 
L 323.242841 184.738058 
L 323.242841 115.055558 
L 279.896591 115.055558 
L 279.896591 184.738058 
z
" style="fill: none"/>
    </g>
    <path d="M 295.392349 169.764308 
L 282.267699 169.764308 
L 282.267699 169.764308 
L 295.392349 169.764308 
L 295.392349 169.764308 
L 286.431817 169.764308 
L 286.431817 169.764308 
L 294.547782 169.764308 
L 294.547782 169.764308 
L 286.431817 169.764308 
L 286.431817 169.764308 
L 295.392349 169.764308 
L 295.392349 169.764308 
z
" style="fill: #e69f00"/>
   </g>
   <g id="text_70">
    <g id="patch_64">
     <path d="M 279.896591 184.738058 
L 323.242841 184.738058 
L 323.242841 115.055558 
L 279.896591 115.055558 
L 279.896591 184.738058 
z
" style="fill: none"/>
    </g>
    <path d="M 281.111501 169.764308 
L 286.079538 169.764308 
L 288.590655 169.764308 
L 291.088222 169.764308 
L 296.083357 169.764308 
L 296.083357 169.764308 
L 292.501855 169.764308 
L 292.501855 169.764308 
L 290.270754 169.764308 
L 286.955719 169.764308 
L 284.697521 169.764308 
L 284.697521 169.764308 
L 281.111501 169.764308 
L 281.111501 169.764308 
z
" style="fill: #e69f00"/>
   </g>
   <g id="text_71">
    <g id="patch_65">
     <path d="M 279.896591 184.738058 
L 323.242841 184.738058 
L 323.242841 115.055558 
L 279.896591 115.055558 
L 279.896591 184.738058 
z
" style="fill: none"/>
    </g>
    <path d="M 291.286944 169.764308 
Q 291.90569 169.764308 292.366363 169.764308 
Q 292.827035 169.764308 293.486429 169.764308 
L 297.298268 169.764308 
L 292.727674 169.764308 
L 290.184943 169.764308 
Q 290.072033 169.764308 289.891377 169.764308 
Q 288.775827 169.764308 287.262834 169.764308 
L 285.93953 169.764308 
L 285.93953 169.764308 
L 281.775412 169.764308 
L 281.775412 169.764308 
L 287.786736 169.764308 
Q 291.851493 169.764308 293.621921 169.764308 
Q 295.392349 169.764308 295.392349 169.764308 
Q 295.392349 169.764308 294.335512 169.764308 
Q 293.278675 169.764308 291.286944 169.764308 
z
M 285.93953 169.764308 
L 285.93953 169.764308 
L 287.899646 169.764308 
Q 289.606844 169.764308 290.347533 169.764308 
Q 291.088222 169.764308 291.088222 169.764308 
Q 291.088222 169.764308 290.35205 169.764308 
Q 289.620393 169.764308 287.899646 169.764308 
L 285.93953 169.764308 
z
" style="fill: #e69f00"/>
   </g>
   <g id="text_72">
    <g id="patch_66">
     <path d="M 279.896591 184.738058 
L 323.242841 184.738058 
L 323.242841 115.055558 
L 279.896591 115.055558 
L 279.896591 184.738058 
z
" style="fill: none"/>
    </g>
    <path d="M 282.326412 169.764308 
L 282.326412 169.764308 
L 294.872963 169.764308 
L 294.872963 169.764308 
L 290.681747 169.764308 
L 290.681747 169.764308 
L 294.872963 169.764308 
L 294.872963 169.764308 
L 282.326412 169.764308 
L 282.326412 169.764308 
L 286.517629 169.764308 
L 286.517629 169.764308 
L 282.326412 169.764308 
z
" style="fill: #e69f00"/>
   </g>
   <g id="text_73">
    <g id="patch_67">
     <path d="M 279.896591 184.738058 
L 323.242841 184.738058 
L 323.242841 115.055558 
L 279.896591 115.055558 
L 279.896591 184.738058 
z
" style="fill: none"/>
    </g>
    <path d="M 295.59107 169.764308 
L 286.630538 169.764308 
L 286.630538 169.764308 
L 294.787151 169.764308 
L 294.787151 169.764308 
L 286.630538 169.764308 
L 286.630538 169.764308 
L 282.46642 169.764308 
L 282.46642 169.764308 
L 295.59107 169.764308 
L 295.59107 169.764308 
z
" style="fill: #e69f00"/>
   </g>
   <g id="text_74">
    <g id="patch_68">
     <path d="M 279.896591 184.738058 
L 323.242841 184.738058 
L 323.242841 115.055558 
L 279.896591 115.055558 
L 279.896591 184.738058 
z
" style="fill: none"/>
    </g>
    <path d="M 290.681747 169.764308 
L 286.517629 169.764308 
L 286.517629 169.764308 
L 281.165698 169.764308 
L 281.165698 169.764308 
L 296.029161 169.764308 
L 296.029161 169.764308 
L 290.681747 169.764308 
L 290.681747 169.764308 
z
" style="fill: #e69f00"/>
   </g>
   <g id="text_75">
    <g id="patch_69">
     <path d="M 279.896591 184.738058 
L 323.242841 184.738058 
L 323.242841 115.055558 
L 279.896591 115.055558 
L 279.896591 184.738058 
z
" style="fill: none"/>
    </g>
    <path d="M 280.0095 169.764308 
L 284.498799 169.764308 
L 288.590655 169.764308 
L 292.69606 169.764308 
L 297.185358 169.764308 
L 290.681747 169.764308 
L 290.681747 169.764308 
L 286.517629 169.764308 
L 286.517629 169.764308 
L 280.0095 169.764308 
z
" style="fill: #e69f00"/>
   </g>
   <g id="text_76">
    <g id="patch_70">
     <path d="M 279.896591 184.738058 
L 323.242841 184.738058 
L 323.242841 115.055558 
L 279.896591 115.055558 
L 279.896591 184.738058 
z
" style="fill: none"/>
    </g>
    <path d="M 288.590655 169.764308 
L 286.630538 169.764308 
L 290.568837 169.764308 
L 288.590655 169.764308 
z
M 286.05244 169.764308 
L 291.146935 169.764308 
L 296.833079 169.764308 
L 292.668961 169.764308 
L 291.372755 169.764308 
L 285.795005 169.764308 
L 284.525897 169.764308 
L 280.361779 169.764308 
L 286.05244 169.764308 
z
" style="fill: #e69f00"/>
   </g>
   <g id="text_77">
    <g id="patch_71">
     <path d="M 279.896591 184.738058 
L 323.242841 184.738058 
L 323.242841 115.055558 
L 279.896591 115.055558 
L 279.896591 184.738058 
z
" style="fill: none"/>
    </g>
    <path d="M 285.993726 169.764308 
L 285.993726 169.764308 
L 287.122826 169.764308 
Q 289.579746 169.764308 290.623033 169.764308 
Q 291.666321 169.764308 291.666321 169.764308 
Q 291.666321 169.764308 290.623033 169.764308 
Q 289.579746 169.764308 287.122826 169.764308 
L 285.993726 169.764308 
z
M 281.829608 169.764308 
L 286.291809 169.764308 
Q 291.45405 169.764308 293.725798 169.764308 
Q 296.002062 169.764308 296.002062 169.764308 
Q 296.002062 169.764308 293.725798 169.764308 
Q 291.45405 169.764308 286.291809 169.764308 
L 281.829608 169.764308 
L 281.829608 169.764308 
z
" style="fill: #e69f00"/>
   </g>
   <g id="text_78">
    <g id="patch_72">
     <path d="M 279.896591 183.648291 
L 323.242841 183.648291 
L 323.242841 113.965791 
L 279.896591 113.965791 
L 279.896591 183.648291 
z
" style="fill: none"/>
    </g>
    <path d="M 287.095727 168.276513 
Q 283.947799 168.227268 282.832249 168.17321 
Q 281.716699 168.119153 281.716699 168.027699 
Q 281.716699 167.910326 283.550356 167.84331 
Q 285.388529 167.776108 288.590655 167.776108 
Q 290.044935 167.776108 291.499214 167.789807 
Q 292.953494 167.803322 294.376159 167.829795 
L 294.376159 167.996412 
Q 293.034789 167.95772 291.652772 167.93754 
Q 290.270754 167.917176 288.915835 167.917176 
Q 287.407359 167.917176 286.598924 167.942169 
Q 285.795005 167.966976 285.795005 168.013258 
Q 285.795005 168.049174 286.382137 168.072685 
Q 286.969268 168.096011 288.830024 168.124336 
L 290.623033 168.152106 
Q 293.165765 168.190242 294.36261 168.253372 
Q 295.563972 168.316501 295.563972 168.412398 
Q 295.563972 168.543284 293.676118 168.60771 
Q 291.79278 168.672135 287.985458 168.672135 
Q 286.418268 168.672135 284.842045 168.656954 
Q 283.270339 168.641588 281.80251 168.611412 
L 281.80251 168.434984 
Q 283.469061 168.483673 285.027218 168.507369 
Q 286.585374 168.531066 288.111917 168.531066 
Q 289.647492 168.531066 290.492058 168.502556 
Q 291.341141 168.473861 291.341141 168.42221 
Q 291.341141 168.383518 290.776591 168.354267 
Q 290.212041 168.325017 289.141655 168.308355 
L 287.095727 168.276513 
z
" style="fill: #e69f00"/>
   </g>
   <g id="text_79">
    <g id="patch_73">
     <path d="M 279.896591 180.824868 
L 323.242841 180.824868 
L 323.242841 111.142368 
L 279.896591 111.142368 
L 279.896591 180.824868 
z
" style="fill: none"/>
    </g>
    <path d="M 283.071618 165.837329 
L 283.071618 158.400642 
L 287.235736 158.400642 
L 287.235736 164.539663 
L 296.142071 164.539663 
L 296.142071 165.837329 
L 283.071618 165.837329 
z
" style="fill: #e69f00"/>
   </g>
   <g id="text_80">
    <!-- ZV2 -->
    <g transform="translate(229.181558 27.478594) scale(0.255 -0.255)">
     <use xlink:href="#DejaVuSans-5a"/>
     <use xlink:href="#DejaVuSans-56" x="68.505859"/>
     <use xlink:href="#DejaVuSans-32" x="136.914062"/>
    </g>
   </g>
  </g>
  <g id="text_81">
   <!-- site -->
   <g transform="translate(163.492156 257.405) scale(0.255 -0.255)">
    <defs>
     <path id="DejaVuSans-73" d="M 2834 3397 
L 2834 2853 
Q 2591 2978 2328 3040 
Q 2066 3103 1784 3103 
Q 1356 3103 1142 2972 
Q 928 2841 928 2578 
Q 928 2378 1081 2264 
Q 1234 2150 1697 2047 
L 1894 2003 
Q 2506 1872 2764 1633 
Q 3022 1394 3022 966 
Q 3022 478 2636 193 
Q 2250 -91 1575 -91 
Q 1294 -91 989 -36 
Q 684 19 347 128 
L 347 722 
Q 666 556 975 473 
Q 1284 391 1588 391 
Q 1994 391 2212 530 
Q 2431 669 2431 922 
Q 2431 1156 2273 1281 
Q 2116 1406 1581 1522 
L 1381 1569 
Q 847 1681 609 1914 
Q 372 2147 372 2553 
Q 372 3047 722 3315 
Q 1072 3584 1716 3584 
Q 2034 3584 2315 3537 
Q 2597 3491 2834 3397 
z
" transform="scale(0.015625)"/>
     <path id="DejaVuSans-69" d="M 603 3500 
L 1178 3500 
L 1178 0 
L 603 0 
L 603 3500 
z
M 603 4863 
L 1178 4863 
L 1178 4134 
L 603 4134 
L 603 4863 
z
" transform="scale(0.015625)"/>
     <path id="DejaVuSans-74" d="M 1172 4494 
L 1172 3500 
L 2356 3500 
L 2356 3053 
L 1172 3053 
L 1172 1153 
Q 1172 725 1289 603 
Q 1406 481 1766 481 
L 2356 481 
L 2356 0 
L 1766 0 
Q 1100 0 847 248 
Q 594 497 594 1153 
L 594 3053 
L 172 3053 
L 172 3500 
L 594 3500 
L 594 4494 
L 1172 4494 
z
" transform="scale(0.015625)"/>
     <path id="DejaVuSans-65" d="M 3597 1894 
L 3597 1613 
L 953 1613 
Q 991 1019 1311 708 
Q 1631 397 2203 397 
Q 2534 397 2845 478 
Q 3156 559 3463 722 
L 3463 178 
Q 3153 47 2828 -22 
Q 2503 -91 2169 -91 
Q 1331 -91 842 396 
Q 353 884 353 1716 
Q 353 2575 817 3079 
Q 1281 3584 2069 3584 
Q 2775 3584 3186 3129 
Q 3597 2675 3597 1894 
z
M 3022 2063 
Q 3016 2534 2758 2815 
Q 2500 3097 2075 3097 
Q 1594 3097 1305 2825 
Q 1016 2553 972 2059 
L 3022 2063 
z
" transform="scale(0.015625)"/>
    </defs>
    <use xlink:href="#DejaVuSans-73"/>
    <use xlink:href="#DejaVuSans-69" x="52.099609"/>
    <use xlink:href="#DejaVuSans-74" x="79.882812"/>
    <use xlink:href="#DejaVuSans-65" x="119.091797"/>
   </g>
  </g>
  <g id="text_82">
   <!-- escape fraction -->
   <g transform="translate(26.576016 203.757188) rotate(-90) scale(0.255 -0.255)">
    <defs>
     <path id="DejaVuSans-63" d="M 3122 3366 
L 3122 2828 
Q 2878 2963 2633 3030 
Q 2388 3097 2138 3097 
Q 1578 3097 1268 2742 
Q 959 2388 959 1747 
Q 959 1106 1268 751 
Q 1578 397 2138 397 
Q 2388 397 2633 464 
Q 2878 531 3122 666 
L 3122 134 
Q 2881 22 2623 -34 
Q 2366 -91 2075 -91 
Q 1284 -91 818 406 
Q 353 903 353 1747 
Q 353 2603 823 3093 
Q 1294 3584 2113 3584 
Q 2378 3584 2631 3529 
Q 2884 3475 3122 3366 
z
" transform="scale(0.015625)"/>
     <path id="DejaVuSans-61" d="M 2194 1759 
Q 1497 1759 1228 1600 
Q 959 1441 959 1056 
Q 959 750 1161 570 
Q 1363 391 1709 391 
Q 2188 391 2477 730 
Q 2766 1069 2766 1631 
L 2766 1759 
L 2194 1759 
z
M 3341 1997 
L 3341 0 
L 2766 0 
L 2766 531 
Q 2569 213 2275 61 
Q 1981 -91 1556 -91 
Q 1019 -91 701 211 
Q 384 513 384 1019 
Q 384 1609 779 1909 
Q 1175 2209 1959 2209 
L 2766 2209 
L 2766 2266 
Q 2766 2663 2505 2880 
Q 2244 3097 1772 3097 
Q 1472 3097 1187 3025 
Q 903 2953 641 2809 
L 641 3341 
Q 956 3463 1253 3523 
Q 1550 3584 1831 3584 
Q 2591 3584 2966 3190 
Q 3341 2797 3341 1997 
z
" transform="scale(0.015625)"/>
     <path id="DejaVuSans-70" d="M 1159 525 
L 1159 -1331 
L 581 -1331 
L 581 3500 
L 1159 3500 
L 1159 2969 
Q 1341 3281 1617 3432 
Q 1894 3584 2278 3584 
Q 2916 3584 3314 3078 
Q 3713 2572 3713 1747 
Q 3713 922 3314 415 
Q 2916 -91 2278 -91 
Q 1894 -91 1617 61 
Q 1341 213 1159 525 
z
M 3116 1747 
Q 3116 2381 2855 2742 
Q 2594 3103 2138 3103 
Q 1681 3103 1420 2742 
Q 1159 2381 1159 1747 
Q 1159 1113 1420 752 
Q 1681 391 2138 391 
Q 2594 391 2855 752 
Q 3116 1113 3116 1747 
z
" transform="scale(0.015625)"/>
     <path id="DejaVuSans-20" transform="scale(0.015625)"/>
     <path id="DejaVuSans-66" d="M 2375 4863 
L 2375 4384 
L 1825 4384 
Q 1516 4384 1395 4259 
Q 1275 4134 1275 3809 
L 1275 3500 
L 2222 3500 
L 2222 3053 
L 1275 3053 
L 1275 0 
L 697 0 
L 697 3053 
L 147 3053 
L 147 3500 
L 697 3500 
L 697 3744 
Q 697 4328 969 4595 
Q 1241 4863 1831 4863 
L 2375 4863 
z
" transform="scale(0.015625)"/>
     <path id="DejaVuSans-72" d="M 2631 2963 
Q 2534 3019 2420 3045 
Q 2306 3072 2169 3072 
Q 1681 3072 1420 2755 
Q 1159 2438 1159 1844 
L 1159 0 
L 581 0 
L 581 3500 
L 1159 3500 
L 1159 2956 
Q 1341 3275 1631 3429 
Q 1922 3584 2338 3584 
Q 2397 3584 2469 3576 
Q 2541 3569 2628 3553 
L 2631 2963 
z
" transform="scale(0.015625)"/>
     <path id="DejaVuSans-6f" d="M 1959 3097 
Q 1497 3097 1228 2736 
Q 959 2375 959 1747 
Q 959 1119 1226 758 
Q 1494 397 1959 397 
Q 2419 397 2687 759 
Q 2956 1122 2956 1747 
Q 2956 2369 2687 2733 
Q 2419 3097 1959 3097 
z
M 1959 3584 
Q 2709 3584 3137 3096 
Q 3566 2609 3566 1747 
Q 3566 888 3137 398 
Q 2709 -91 1959 -91 
Q 1206 -91 779 398 
Q 353 888 353 1747 
Q 353 2609 779 3096 
Q 1206 3584 1959 3584 
z
" transform="scale(0.015625)"/>
     <path id="DejaVuSans-6e" d="M 3513 2113 
L 3513 0 
L 2938 0 
L 2938 2094 
Q 2938 2591 2744 2837 
Q 2550 3084 2163 3084 
Q 1697 3084 1428 2787 
Q 1159 2491 1159 1978 
L 1159 0 
L 581 0 
L 581 3500 
L 1159 3500 
L 1159 2956 
Q 1366 3272 1645 3428 
Q 1925 3584 2291 3584 
Q 2894 3584 3203 3211 
Q 3513 2838 3513 2113 
z
" transform="scale(0.015625)"/>
    </defs>
    <use xlink:href="#DejaVuSans-65"/>
    <use xlink:href="#DejaVuSans-73" x="61.523438"/>
    <use xlink:href="#DejaVuSans-63" x="113.623047"/>
    <use xlink:href="#DejaVuSans-61" x="168.603516"/>
    <use xlink:href="#DejaVuSans-70" x="229.882812"/>
    <use xlink:href="#DejaVuSans-65" x="293.359375"/>
    <use xlink:href="#DejaVuSans-20" x="354.882812"/>
    <use xlink:href="#DejaVuSans-66" x="386.669922"/>
    <use xlink:href="#DejaVuSans-72" x="421.875"/>
    <use xlink:href="#DejaVuSans-61" x="462.988281"/>
    <use xlink:href="#DejaVuSans-63" x="524.267578"/>
    <use xlink:href="#DejaVuSans-74" x="579.248047"/>
    <use xlink:href="#DejaVuSans-69" x="618.457031"/>
    <use xlink:href="#DejaVuSans-6f" x="646.240234"/>
    <use xlink:href="#DejaVuSans-6e" x="707.421875"/>
   </g>
  </g>
 </g>
 <defs>
  <clipPath id="p1e66c685d9">
   <rect x="72.899609" y="33.478594" width="90.781604" height="144"/>
  </clipPath>
  <clipPath id="p438d75db34">
   <rect x="209.484155" y="33.478594" width="90.530275" height="144"/>
  </clipPath>
 </defs>
</svg>
