<?xml version="1.0" encoding="utf-8" standalone="no"?>
<!DOCTYPE svg PUBLIC "-//W3C//DTD SVG 1.1//EN"
  "http://www.w3.org/Graphics/SVG/1.1/DTD/svg11.dtd">
<svg xmlns:xlink="http://www.w3.org/1999/xlink" width="330.442841pt" height="268.378203pt" viewBox="0 0 330.442841 268.378203" xmlns="http://www.w3.org/2000/svg" version="1.1">
 <metadata>
  <rdf:RDF xmlns:dc="http://purl.org/dc/elements/1.1/" xmlns:cc="http://creativecommons.org/ns#" xmlns:rdf="http://www.w3.org/1999/02/22-rdf-syntax-ns#">
   <cc:Work>
    <dc:type rdf:resource="http://purl.org/dc/dcmitype/StillImage"/>
    <dc:date>2025-12-18T15:42:41.101968</dc:date>
    <dc:format>image/svg+xml</dc:format>
    <dc:creator>
     <cc:Agent>
      <dc:title>Matplotlib v3.7.1, https://matplotlib.org/</dc:title>
     </cc:Agent>
    </dc:creator>
   </cc:Work>
  </rdf:RDF>
 </metadata>
 <defs>
  <style type="text/css">*{stroke-linejoin: round; stroke-linecap: butt}</style>
 </defs>
 <g id="figure_1">
  <g id="patch_1">
   <path d="M 0 268.378203 
L 330.442841 268.378203 
L 330.442841 0 
L 0 0 
L 0 268.378203 
z
" style="fill: none"/>
  </g>
  <g id="axes_1">
   <g id="patch_2">
    <path d="M 72.899609 177.478594 
L 163.681214 177.478594 
L 163.681214 33.478594 
L 72.899609 33.478594 
L 72.899609 177.478594 
z
" style="fill: none"/>
   </g>
   <g id="patch_3">
    <path d="M 83.255318 177.478594 
L 85.85697 177.478594 
L 85.85697 170.764308 
L 83.255318 170.764308 
z
" clip-path="url(#pe6b51b517f)" style="fill: #cc79a7"/>
   </g>
   <g id="patch_4">
    <path d="M 130.504036 177.478594 
L 133.105687 177.478594 
L 133.105687 170.764308 
L 130.504036 170.764308 
z
" clip-path="url(#pe6b51b517f)" style="fill: #cc79a7"/>
   </g>
   <g id="patch_5">
    <path d="M 149.723853 177.478594 
L 152.325505 177.478594 
L 152.325505 170.764308 
L 149.723853 170.764308 
z
" clip-path="url(#pe6b51b517f)" style="fill: #cc79a7"/>
   </g>
   <g id="matplotlib.axis_1">
    <g id="xtick_1">
     <g id="line2d_1">
      <defs>
       <path id="mf8294fd050" d="M 0 0 
L 0 5 
" style="stroke: #000000"/>
      </defs>
      <g>
       <use xlink:href="#mf8294fd050" x="75.846648" y="177.478594" style="stroke: #000000"/>
      </g>
     </g>
     <g id="text_1">
      <!-- 300 -->
      <g transform="translate(80.813523 220.336094) rotate(-90) scale(0.18 -0.18)">
       <defs>
        <path id="DejaVuSans-33" d="M 2597 2516 
Q 3050 2419 3304 2112 
Q 3559 1806 3559 1356 
Q 3559 666 3084 287 
Q 2609 -91 1734 -91 
Q 1441 -91 1130 -33 
Q 819 25 488 141 
L 488 750 
Q 750 597 1062 519 
Q 1375 441 1716 441 
Q 2309 441 2620 675 
Q 2931 909 2931 1356 
Q 2931 1769 2642 2001 
Q 2353 2234 1838 2234 
L 1294 2234 
L 1294 2753 
L 1863 2753 
Q 2328 2753 2575 2939 
Q 2822 3125 2822 3475 
Q 2822 3834 2567 4026 
Q 2313 4219 1838 4219 
Q 1578 4219 1281 4162 
Q 984 4106 628 3988 
L 628 4550 
Q 988 4650 1302 4700 
Q 1616 4750 1894 4750 
Q 2613 4750 3031 4423 
Q 3450 4097 3450 3541 
Q 3450 3153 3228 2886 
Q 3006 2619 2597 2516 
z
" transform="scale(0.015625)"/>
        <path id="DejaVuSans-30" d="M 2034 4250 
Q 1547 4250 1301 3770 
Q 1056 3291 1056 2328 
Q 1056 1369 1301 889 
Q 1547 409 2034 409 
Q 2525 409 2770 889 
Q 3016 1369 3016 2328 
Q 3016 3291 2770 3770 
Q 2525 4250 2034 4250 
z
M 2034 4750 
Q 2819 4750 3233 4129 
Q 3647 3509 3647 2328 
Q 3647 1150 3233 529 
Q 2819 -91 2034 -91 
Q 1250 -91 836 529 
Q 422 1150 422 2328 
Q 422 3509 836 4129 
Q 1250 4750 2034 4750 
z
" transform="scale(0.015625)"/>
       </defs>
       <use xlink:href="#DejaVuSans-33"/>
       <use xlink:href="#DejaVuSans-30" x="63.623047"/>
       <use xlink:href="#DejaVuSans-30" x="127.246094"/>
      </g>
     </g>
    </g>
    <g id="xtick_2">
     <g id="line2d_2">
      <g>
       <use xlink:href="#mf8294fd050" x="99.87142" y="177.478594" style="stroke: #000000"/>
      </g>
     </g>
     <g id="text_2">
      <!-- 330 -->
      <g transform="translate(104.838295 220.336094) rotate(-90) scale(0.18 -0.18)">
       <use xlink:href="#DejaVuSans-33"/>
       <use xlink:href="#DejaVuSans-33" x="63.623047"/>
       <use xlink:href="#DejaVuSans-30" x="127.246094"/>
      </g>
     </g>
    </g>
    <g id="xtick_3">
     <g id="line2d_3">
      <g>
       <use xlink:href="#mf8294fd050" x="123.896192" y="177.478594" style="stroke: #000000"/>
      </g>
     </g>
     <g id="text_3">
      <!-- 360 -->
      <g transform="translate(128.863067 220.336094) rotate(-90) scale(0.18 -0.18)">
       <defs>
        <path id="DejaVuSans-36" d="M 2113 2584 
Q 1688 2584 1439 2293 
Q 1191 2003 1191 1497 
Q 1191 994 1439 701 
Q 1688 409 2113 409 
Q 2538 409 2786 701 
Q 3034 994 3034 1497 
Q 3034 2003 2786 2293 
Q 2538 2584 2113 2584 
z
M 3366 4563 
L 3366 3988 
Q 3128 4100 2886 4159 
Q 2644 4219 2406 4219 
Q 1781 4219 1451 3797 
Q 1122 3375 1075 2522 
Q 1259 2794 1537 2939 
Q 1816 3084 2150 3084 
Q 2853 3084 3261 2657 
Q 3669 2231 3669 1497 
Q 3669 778 3244 343 
Q 2819 -91 2113 -91 
Q 1303 -91 875 529 
Q 447 1150 447 2328 
Q 447 3434 972 4092 
Q 1497 4750 2381 4750 
Q 2619 4750 2861 4703 
Q 3103 4656 3366 4563 
z
" transform="scale(0.015625)"/>
       </defs>
       <use xlink:href="#DejaVuSans-33"/>
       <use xlink:href="#DejaVuSans-36" x="63.623047"/>
       <use xlink:href="#DejaVuSans-30" x="127.246094"/>
      </g>
     </g>
    </g>
    <g id="xtick_4">
     <g id="line2d_4">
      <g>
       <use xlink:href="#mf8294fd050" x="147.920963" y="177.478594" style="stroke: #000000"/>
      </g>
     </g>
     <g id="text_4">
      <!-- 390 -->
      <g transform="translate(152.887838 220.336094) rotate(-90) scale(0.18 -0.18)">
       <defs>
        <path id="DejaVuSans-39" d="M 703 97 
L 703 672 
Q 941 559 1184 500 
Q 1428 441 1663 441 
Q 2288 441 2617 861 
Q 2947 1281 2994 2138 
Q 2813 1869 2534 1725 
Q 2256 1581 1919 1581 
Q 1219 1581 811 2004 
Q 403 2428 403 3163 
Q 403 3881 828 4315 
Q 1253 4750 1959 4750 
Q 2769 4750 3195 4129 
Q 3622 3509 3622 2328 
Q 3622 1225 3098 567 
Q 2575 -91 1691 -91 
Q 1453 -91 1209 -44 
Q 966 3 703 97 
z
M 1959 2075 
Q 2384 2075 2632 2365 
Q 2881 2656 2881 3163 
Q 2881 3666 2632 3958 
Q 2384 4250 1959 4250 
Q 1534 4250 1286 3958 
Q 1038 3666 1038 3163 
Q 1038 2656 1286 2365 
Q 1534 2075 1959 2075 
z
" transform="scale(0.015625)"/>
       </defs>
       <use xlink:href="#DejaVuSans-33"/>
       <use xlink:href="#DejaVuSans-39" x="63.623047"/>
       <use xlink:href="#DejaVuSans-30" x="127.246094"/>
      </g>
     </g>
    </g>
   </g>
   <g id="matplotlib.axis_2">
    <g id="ytick_1">
     <g id="line2d_5">
      <defs>
       <path id="mce64496e64" d="M 0 0 
L -5 0 
" style="stroke: #000000"/>
      </defs>
      <g>
       <use xlink:href="#mce64496e64" x="72.899609" y="169.764308" style="stroke: #000000"/>
      </g>
     </g>
     <g id="text_5">
      <!-- 0.0 -->
      <g transform="translate(35.773984 176.602902) scale(0.18 -0.18)">
       <defs>
        <path id="DejaVuSans-2e" d="M 684 794 
L 1344 794 
L 1344 0 
L 684 0 
L 684 794 
z
" transform="scale(0.015625)"/>
       </defs>
       <use xlink:href="#DejaVuSans-30"/>
       <use xlink:href="#DejaVuSans-2e" x="63.623047"/>
       <use xlink:href="#DejaVuSans-30" x="95.410156"/>
      </g>
     </g>
    </g>
    <g id="ytick_2">
     <g id="line2d_6">
      <g>
       <use xlink:href="#mce64496e64" x="72.899609" y="125.398736" style="stroke: #000000"/>
      </g>
     </g>
     <g id="text_6">
      <!-- 0.5 -->
      <g transform="translate(35.773984 132.237329) scale(0.18 -0.18)">
       <defs>
        <path id="DejaVuSans-35" d="M 691 4666 
L 3169 4666 
L 3169 4134 
L 1269 4134 
L 1269 2991 
Q 1406 3038 1543 3061 
Q 1681 3084 1819 3084 
Q 2600 3084 3056 2656 
Q 3513 2228 3513 1497 
Q 3513 744 3044 326 
Q 2575 -91 1722 -91 
Q 1428 -91 1123 -41 
Q 819 9 494 109 
L 494 744 
Q 775 591 1075 516 
Q 1375 441 1709 441 
Q 2250 441 2565 725 
Q 2881 1009 2881 1497 
Q 2881 1984 2565 2268 
Q 2250 2553 1709 2553 
Q 1456 2553 1204 2497 
Q 953 2441 691 2322 
L 691 4666 
z
" transform="scale(0.015625)"/>
       </defs>
       <use xlink:href="#DejaVuSans-30"/>
       <use xlink:href="#DejaVuSans-2e" x="63.623047"/>
       <use xlink:href="#DejaVuSans-35" x="95.410156"/>
      </g>
     </g>
    </g>
    <g id="ytick_3">
     <g id="line2d_7">
      <g>
       <use xlink:href="#mce64496e64" x="72.899609" y="81.033163" style="stroke: #000000"/>
      </g>
     </g>
     <g id="text_7">
      <!-- 1.0 -->
      <g transform="translate(35.773984 87.871757) scale(0.18 -0.18)">
       <defs>
        <path id="DejaVuSans-31" d="M 794 531 
L 1825 531 
L 1825 4091 
L 703 3866 
L 703 4441 
L 1819 4666 
L 2450 4666 
L 2450 531 
L 3481 531 
L 3481 0 
L 794 0 
L 794 531 
z
" transform="scale(0.015625)"/>
       </defs>
       <use xlink:href="#DejaVuSans-31"/>
       <use xlink:href="#DejaVuSans-2e" x="63.623047"/>
       <use xlink:href="#DejaVuSans-30" x="95.410156"/>
      </g>
     </g>
    </g>
    <g id="ytick_4">
     <g id="line2d_8">
      <g>
       <use xlink:href="#mce64496e64" x="72.899609" y="36.667591" style="stroke: #000000"/>
      </g>
     </g>
     <g id="text_8">
      <!-- 1.5 -->
      <g transform="translate(35.773984 43.506185) scale(0.18 -0.18)">
       <use xlink:href="#DejaVuSans-31"/>
       <use xlink:href="#DejaVuSans-2e" x="63.623047"/>
       <use xlink:href="#DejaVuSans-35" x="95.410156"/>
      </g>
     </g>
    </g>
   </g>
   <g id="line2d_9">
    <path d="M 74.645409 169.611513 
L 75.446235 169.611513 
L 75.446235 169.758395 
L 79.450364 169.763974 
L 79.450364 169.634406 
L 80.25119 169.634406 
L 80.25119 169.76417 
L 81.052015 169.76417 
L 81.052015 169.168567 
L 81.852841 169.168567 
L 81.852841 169.764308 
L 84.255318 169.764282 
L 84.255318 147.892081 
L 85.056144 147.892081 
L 85.056144 169.764216 
L 87.458621 169.764166 
L 87.458621 168.358807 
L 88.259447 168.358807 
L 88.259447 169.352862 
L 89.060272 169.352862 
L 89.060272 169.764308 
L 92.263575 169.7631 
L 92.263575 169.311957 
L 93.064401 169.311957 
L 93.064401 169.764308 
L 101.873484 169.764308 
L 101.873484 163.422693 
L 102.67431 163.422693 
L 102.67431 169.764308 
L 129.101559 169.762317 
L 129.101559 169.633873 
L 129.902384 169.633873 
L 129.902384 169.764131 
L 131.504036 169.726021 
L 131.504036 142.13343 
L 132.304862 142.13343 
L 132.304862 169.764308 
L 133.906513 169.764308 
L 133.906513 168.119233 
L 134.707339 168.119233 
L 134.707339 169.763757 
L 136.30899 169.764124 
L 136.30899 169.621717 
L 137.109816 169.621717 
L 137.109816 169.764102 
L 149.923028 169.762718 
L 149.923028 169.361557 
L 150.723853 169.361557 
L 150.723853 41.192879 
L 151.524679 41.192879 
L 151.524679 169.756171 
L 153.927156 169.764155 
L 153.927156 168.943545 
L 154.727982 168.943545 
L 154.727982 169.76411 
L 161.935413 169.67256 
L 161.935413 169.67256 
" clip-path="url(#pe6b51b517f)" style="fill: none; stroke: #000000; stroke-linecap: square"/>
   </g>
   <g id="patch_6">
    <path d="M 72.899609 177.478594 
L 72.899609 33.478594 
" style="fill: none; stroke: #000000; stroke-width: 0.8; stroke-linejoin: miter; stroke-linecap: square"/>
   </g>
   <g id="patch_7">
    <path d="M 72.899609 177.478594 
L 163.681214 177.478594 
" style="fill: none; stroke: #000000; stroke-width: 0.8; stroke-linejoin: miter; stroke-linecap: square"/>
   </g>
   <g id="text_9">
    <!-- ZV67 -->
    <g transform="translate(84.61049 27.478594) scale(0.255 -0.255)">
     <defs>
      <path id="DejaVuSans-5a" d="M 359 4666 
L 4025 4666 
L 4025 4184 
L 1075 531 
L 4097 531 
L 4097 0 
L 288 0 
L 288 481 
L 3238 4134 
L 359 4134 
L 359 4666 
z
" transform="scale(0.015625)"/>
      <path id="DejaVuSans-56" d="M 1831 0 
L 50 4666 
L 709 4666 
L 2188 738 
L 3669 4666 
L 4325 4666 
L 2547 0 
L 1831 0 
z
" transform="scale(0.015625)"/>
      <path id="DejaVuSans-37" d="M 525 4666 
L 3525 4666 
L 3525 4397 
L 1831 0 
L 1172 0 
L 2766 4134 
L 525 4134 
L 525 4666 
z
" transform="scale(0.015625)"/>
     </defs>
     <use xlink:href="#DejaVuSans-5a"/>
     <use xlink:href="#DejaVuSans-56" x="68.505859"/>
     <use xlink:href="#DejaVuSans-36" x="136.914062"/>
     <use xlink:href="#DejaVuSans-37" x="200.537109"/>
    </g>
   </g>
  </g>
  <g id="axes_2">
   <g id="patch_8">
    <path d="M 209.484155 177.478594 
L 300.014429 177.478594 
L 300.014429 33.478594 
L 209.484155 33.478594 
L 209.484155 177.478594 
z
" style="fill: none"/>
   </g>
   <g id="matplotlib.axis_3">
    <g id="xtick_5">
     <g id="line2d_10">
      <g>
       <use xlink:href="#mf8294fd050" x="221.219561" y="177.478594" style="stroke: #000000"/>
      </g>
     </g>
     <g id="text_10">
      <!-- A311 -->
      <g transform="translate(226.186436 232.649219) rotate(-90) scale(0.18 -0.18)">
       <defs>
        <path id="DejaVuSans-41" d="M 2188 4044 
L 1331 1722 
L 3047 1722 
L 2188 4044 
z
M 1831 4666 
L 2547 4666 
L 4325 0 
L 3669 0 
L 3244 1197 
L 1141 1197 
L 716 0 
L 50 0 
L 1831 4666 
z
" transform="scale(0.015625)"/>
       </defs>
       <use xlink:href="#DejaVuSans-41"/>
       <use xlink:href="#DejaVuSans-33" x="68.408203"/>
       <use xlink:href="#DejaVuSans-31" x="132.03125"/>
       <use xlink:href="#DejaVuSans-31" x="195.654297"/>
      </g>
     </g>
    </g>
    <g id="xtick_6">
     <g id="line2d_11">
      <g>
       <use xlink:href="#mf8294fd050" x="254.749292" y="177.478594" style="stroke: #000000"/>
      </g>
     </g>
     <g id="text_11">
      <!-- E370 -->
      <g transform="translate(259.716167 231.709844) rotate(-90) scale(0.18 -0.18)">
       <defs>
        <path id="DejaVuSans-45" d="M 628 4666 
L 3578 4666 
L 3578 4134 
L 1259 4134 
L 1259 2753 
L 3481 2753 
L 3481 2222 
L 1259 2222 
L 1259 531 
L 3634 531 
L 3634 0 
L 628 0 
L 628 4666 
z
" transform="scale(0.015625)"/>
       </defs>
       <use xlink:href="#DejaVuSans-45"/>
       <use xlink:href="#DejaVuSans-33" x="63.183594"/>
       <use xlink:href="#DejaVuSans-37" x="126.806641"/>
       <use xlink:href="#DejaVuSans-30" x="190.429688"/>
      </g>
     </g>
    </g>
    <g id="xtick_7">
     <g id="line2d_12">
      <g>
       <use xlink:href="#mf8294fd050" x="288.279023" y="177.478594" style="stroke: #000000"/>
      </g>
     </g>
     <g id="text_12">
      <!-- K394 -->
      <g transform="translate(293.245898 232.140156) rotate(-90) scale(0.18 -0.18)">
       <defs>
        <path id="DejaVuSans-4b" d="M 628 4666 
L 1259 4666 
L 1259 2694 
L 3353 4666 
L 4166 4666 
L 1850 2491 
L 4331 0 
L 3500 0 
L 1259 2247 
L 1259 0 
L 628 0 
L 628 4666 
z
" transform="scale(0.015625)"/>
        <path id="DejaVuSans-34" d="M 2419 4116 
L 825 1625 
L 2419 1625 
L 2419 4116 
z
M 2253 4666 
L 3047 4666 
L 3047 1625 
L 3713 1625 
L 3713 1100 
L 3047 1100 
L 3047 0 
L 2419 0 
L 2419 1100 
L 313 1100 
L 313 1709 
L 2253 4666 
z
" transform="scale(0.015625)"/>
       </defs>
       <use xlink:href="#DejaVuSans-4b"/>
       <use xlink:href="#DejaVuSans-33" x="65.576172"/>
       <use xlink:href="#DejaVuSans-39" x="129.199219"/>
       <use xlink:href="#DejaVuSans-34" x="192.822266"/>
      </g>
     </g>
    </g>
   </g>
   <g id="matplotlib.axis_4">
    <g id="ytick_5">
     <g id="line2d_13">
      <g>
       <use xlink:href="#mce64496e64" x="209.484155" y="169.764308" style="stroke: #000000"/>
      </g>
     </g>
     <g id="text_13">
      <!-- 0.0 -->
      <g transform="translate(172.35853 176.602902) scale(0.18 -0.18)">
       <use xlink:href="#DejaVuSans-30"/>
       <use xlink:href="#DejaVuSans-2e" x="63.623047"/>
       <use xlink:href="#DejaVuSans-30" x="95.410156"/>
      </g>
     </g>
    </g>
    <g id="ytick_6">
     <g id="line2d_14">
      <g>
       <use xlink:href="#mce64496e64" x="209.484155" y="125.398736" style="stroke: #000000"/>
      </g>
     </g>
     <g id="text_14">
      <!-- 0.5 -->
      <g transform="translate(172.35853 132.237329) scale(0.18 -0.18)">
       <use xlink:href="#DejaVuSans-30"/>
       <use xlink:href="#DejaVuSans-2e" x="63.623047"/>
       <use xlink:href="#DejaVuSans-35" x="95.410156"/>
      </g>
     </g>
    </g>
    <g id="ytick_7">
     <g id="line2d_15">
      <g>
       <use xlink:href="#mce64496e64" x="209.484155" y="81.033163" style="stroke: #000000"/>
      </g>
     </g>
     <g id="text_15">
      <!-- 1.0 -->
      <g transform="translate(172.35853 87.871757) scale(0.18 -0.18)">
       <use xlink:href="#DejaVuSans-31"/>
       <use xlink:href="#DejaVuSans-2e" x="63.623047"/>
       <use xlink:href="#DejaVuSans-30" x="95.410156"/>
      </g>
     </g>
    </g>
    <g id="ytick_8">
     <g id="line2d_16">
      <g>
       <use xlink:href="#mce64496e64" x="209.484155" y="36.667591" style="stroke: #000000"/>
      </g>
     </g>
     <g id="text_16">
      <!-- 1.5 -->
      <g transform="translate(172.35853 43.506185) scale(0.18 -0.18)">
       <use xlink:href="#DejaVuSans-31"/>
       <use xlink:href="#DejaVuSans-2e" x="63.623047"/>
       <use xlink:href="#DejaVuSans-35" x="95.410156"/>
      </g>
     </g>
    </g>
   </g>
   <g id="line2d_17">
    <path d="M 237.984426 177.478594 
L 237.984426 33.478594 
" clip-path="url(#pea747699cf)" style="fill: none; stroke-dasharray: 2,5; stroke-dashoffset: 0; stroke: #000000"/>
   </g>
   <g id="line2d_18">
    <path d="M 271.514158 177.478594 
L 271.514158 33.478594 
" clip-path="url(#pea747699cf)" style="fill: none; stroke-dasharray: 2,5; stroke-dashoffset: 0; stroke: #000000"/>
   </g>
   <g id="patch_9">
    <path d="M 209.484155 177.478594 
L 209.484155 33.478594 
" style="fill: none; stroke: #000000; stroke-width: 0.8; stroke-linejoin: miter; stroke-linecap: square"/>
   </g>
   <g id="patch_10">
    <path d="M 209.484155 177.478594 
L 300.014429 177.478594 
" style="fill: none; stroke: #000000; stroke-width: 0.8; stroke-linejoin: miter; stroke-linecap: square"/>
   </g>
   <g id="text_17">
    <g id="patch_11">
     <path d="M 212.837128 184.738058 
L 256.183378 184.738058 
L 256.183378 115.055558 
L 212.837128 115.055558 
L 212.837128 184.738058 
z
" style="fill: none"/>
    </g>
    <path d="M 228.093517 169.764308 
Q 227.104426 169.764308 226.015974 169.764308 
Q 224.932039 169.764308 223.735194 169.764308 
Q 219.471715 169.764308 217.227066 169.764308 
Q 214.982416 169.764308 214.982416 169.764308 
Q 214.982416 169.764308 217.227066 169.764308 
Q 219.471715 169.764308 223.735194 169.764308 
Q 224.932039 169.764308 226.03404 169.764308 
Q 227.136041 169.764308 228.093517 169.764308 
L 228.093517 169.764308 
Q 227.023131 169.764308 226.011458 169.764308 
Q 225.004301 169.764308 223.929399 169.764308 
Q 221.644102 169.764308 220.478871 169.764308 
Q 219.313641 169.764308 219.313641 169.764308 
Q 219.313641 169.764308 220.478871 169.764308 
Q 221.644102 169.764308 223.929399 169.764308 
Q 225.004301 169.764308 226.011458 169.764308 
Q 227.023131 169.764308 228.093517 169.764308 
L 228.093517 169.764308 
z
" style="fill: #e69f00"/>
   </g>
   <g id="text_18">
    <g id="patch_12">
     <path d="M 212.837128 184.738058 
L 256.183378 184.738058 
L 256.183378 115.055558 
L 212.837128 115.055558 
L 212.837128 184.738058 
z
" style="fill: none"/>
    </g>
    <path d="M 214.490129 169.764308 
L 218.654247 169.764308 
L 218.654247 169.764308 
L 225.171408 169.764308 
L 229.886526 169.764308 
L 223.23839 169.764308 
L 230.125895 169.764308 
L 225.496589 169.764308 
L 220.501453 169.764308 
L 218.654247 169.764308 
L 218.654247 169.764308 
L 214.490129 169.764308 
L 214.490129 169.764308 
z
" style="fill: #e69f00"/>
   </g>
   <g id="text_19">
    <g id="patch_13">
     <path d="M 212.837128 184.738058 
L 256.183378 184.738058 
L 256.183378 115.055558 
L 212.837128 115.055558 
L 212.837128 184.738058 
z
" style="fill: none"/>
    </g>
    <path d="M 214.517227 169.764308 
L 218.992977 169.764308 
L 224.864293 169.764308 
L 224.864293 169.764308 
L 228.531607 169.764308 
L 228.531607 169.764308 
L 224.087473 169.764308 
L 218.184542 169.764308 
L 218.184542 169.764308 
L 214.517227 169.764308 
L 214.517227 169.764308 
z
" style="fill: #e69f00"/>
   </g>
   <g id="text_20">
    <g id="patch_14">
     <path d="M 212.837128 184.738058 
L 256.183378 184.738058 
L 256.183378 115.055558 
L 212.837128 115.055558 
L 212.837128 184.738058 
z
" style="fill: none"/>
    </g>
    <path d="M 219.286543 169.764308 
L 219.286543 169.764308 
L 220.993741 169.764308 
Q 223.039669 169.764308 223.866169 169.764308 
Q 224.69267 169.764308 224.69267 169.764308 
Q 224.69267 169.764308 223.866169 169.764308 
Q 223.039669 169.764308 220.993741 169.764308 
L 219.286543 169.764308 
z
M 215.122425 169.764308 
L 220.840183 169.764308 
Q 225.203023 169.764308 227.113459 169.764308 
Q 229.023895 169.764308 229.023895 169.764308 
Q 229.023895 169.764308 227.113459 169.764308 
Q 225.203023 169.764308 220.840183 169.764308 
L 219.286543 169.764308 
L 219.286543 169.764308 
L 215.122425 169.764308 
L 215.122425 169.764308 
z
" style="fill: #e69f00"/>
   </g>
   <g id="text_21">
    <g id="patch_15">
     <path d="M 212.837128 184.738058 
L 256.183378 184.738058 
L 256.183378 115.055558 
L 212.837128 115.055558 
L 212.837128 184.738058 
z
" style="fill: none"/>
    </g>
    <path d="M 228.477411 169.764308 
L 223.816489 169.764308 
L 228.477411 169.764308 
L 227.402508 169.764308 
L 222.719004 169.764308 
L 222.719004 169.764308 
L 220.289183 169.764308 
L 220.289183 169.764308 
L 215.619228 169.764308 
L 214.544326 169.764308 
L 219.232346 169.764308 
L 214.544326 169.764308 
L 215.619228 169.764308 
L 220.289183 169.764308 
L 220.289183 169.764308 
L 222.719004 169.764308 
L 222.719004 169.764308 
L 227.402508 169.764308 
L 228.477411 169.764308 
z
" style="fill: #e69f00"/>
   </g>
   <g id="text_22">
    <g id="patch_16">
     <path d="M 212.837128 184.738058 
L 256.183378 184.738058 
L 256.183378 115.055558 
L 212.837128 115.055558 
L 212.837128 184.738058 
z
" style="fill: none"/>
    </g>
    <path d="M 221.531192 169.764308 
L 225.24367 169.764308 
L 229.434887 169.764308 
L 224.426202 169.764308 
L 218.654247 169.764308 
L 213.641046 169.764308 
L 217.832263 169.764308 
L 221.531192 169.764308 
z
" style="fill: #e69f00"/>
   </g>
   <g id="text_23">
    <g id="patch_17">
     <path d="M 212.837128 184.738058 
L 256.183378 184.738058 
L 256.183378 115.055558 
L 212.837128 115.055558 
L 212.837128 184.738058 
z
" style="fill: none"/>
    </g>
    <path d="M 213.329415 169.764308 
L 216.761877 169.764308 
L 218.184542 169.764308 
L 219.909805 169.764308 
L 223.170644 169.764308 
L 225.157859 169.764308 
L 226.286958 169.764308 
L 229.746518 169.764308 
L 227.461221 169.764308 
L 223.78939 169.764308 
L 221.531192 169.764308 
L 219.413002 169.764308 
L 215.786335 169.764308 
L 213.329415 169.764308 
z
" style="fill: #e69f00"/>
   </g>
   <g id="text_24">
    <g id="patch_18">
     <path d="M 212.837128 184.738058 
L 256.183378 184.738058 
L 256.183378 115.055558 
L 212.837128 115.055558 
L 212.837128 184.738058 
z
" style="fill: none"/>
    </g>
    <path d="M 225.14431 169.764308 
L 225.14431 169.764308 
L 222.294463 169.764308 
L 222.294463 169.764308 
L 228.784526 169.764308 
L 228.784526 169.764308 
Q 227.58768 169.764308 226.137917 169.764308 
Q 224.69267 169.764308 223.039669 169.764308 
Q 218.947813 169.764308 216.716713 169.764308 
Q 214.490129 169.764308 214.490129 169.764308 
Q 214.490129 169.764308 216.739295 169.764308 
Q 218.992977 169.764308 223.23839 169.764308 
Q 224.507498 169.764308 225.735958 169.764308 
Q 226.964418 169.764308 228.03932 169.764308 
L 228.03932 169.764308 
Q 227.163139 169.764308 226.025007 169.764308 
Q 224.891391 169.764308 223.536472 169.764308 
Q 221.165364 169.764308 219.991101 169.764308 
Q 218.821354 169.764308 218.821354 169.764308 
Q 218.821354 169.764308 219.950453 169.764308 
Q 221.079552 169.764308 223.23839 169.764308 
Q 223.888751 169.764308 224.367489 169.764308 
Q 224.846227 169.764308 225.14431 169.764308 
z
" style="fill: #e69f00"/>
   </g>
   <g id="text_25">
    <g id="patch_19">
     <path d="M 212.837128 184.738058 
L 256.183378 184.738058 
L 256.183378 115.055558 
L 212.837128 115.055558 
L 212.837128 184.738058 
z
" style="fill: none"/>
    </g>
    <path d="M 214.770146 169.764308 
L 218.934264 169.764308 
L 218.934264 169.764308 
L 224.141669 169.764308 
L 224.141669 169.764308 
L 228.305787 169.764308 
L 228.305787 169.764308 
L 224.141669 169.764308 
L 224.141669 169.764308 
L 218.934264 169.764308 
L 218.934264 169.764308 
L 214.770146 169.764308 
L 214.770146 169.764308 
z
" style="fill: #e69f00"/>
   </g>
   <g id="text_26">
    <g id="patch_20">
     <path d="M 212.837128 184.738058 
L 256.183378 184.738058 
L 256.183378 115.055558 
L 212.837128 115.055558 
L 212.837128 184.738058 
z
" style="fill: none"/>
    </g>
    <path d="M 222.095742 169.764308 
Q 221.89702 169.764308 221.761528 169.764308 
Q 221.630553 169.764308 221.504094 169.764308 
Q 217.877427 169.764308 216.007638 169.764308 
Q 214.13785 169.764308 214.13785 169.764308 
Q 214.13785 169.764308 216.007638 169.764308 
Q 217.877427 169.764308 221.531192 169.764308 
Q 225.203023 169.764308 227.072811 169.764308 
Q 228.942599 169.764308 228.942599 169.764308 
Q 228.942599 169.764308 228.052869 169.764308 
Q 227.163139 169.764308 225.46949 169.764308 
L 228.093517 169.764308 
L 225.24367 169.764308 
L 222.095742 169.764308 
z
M 221.531192 169.764308 
Q 219.936904 169.764308 219.200731 169.764308 
Q 218.469075 169.764308 218.469075 169.764308 
Q 218.469075 169.764308 219.200731 169.764308 
Q 219.936904 169.764308 221.531192 169.764308 
Q 223.139029 169.764308 223.870686 169.764308 
Q 224.606858 169.764308 224.606858 169.764308 
Q 224.606858 169.764308 223.870686 169.764308 
Q 223.139029 169.764308 221.531192 169.764308 
z
" style="fill: #e69f00"/>
   </g>
   <g id="text_27">
    <g id="patch_21">
     <path d="M 212.837128 184.738058 
L 256.183378 184.738058 
L 256.183378 115.055558 
L 212.837128 115.055558 
L 212.837128 184.738058 
z
" style="fill: none"/>
    </g>
    <path d="M 228.332886 169.764308 
L 215.208236 169.764308 
L 215.208236 169.764308 
L 228.332886 169.764308 
L 228.332886 169.764308 
L 219.372354 169.764308 
L 219.372354 169.764308 
L 227.48832 169.764308 
L 227.48832 169.764308 
L 219.372354 169.764308 
L 219.372354 169.764308 
L 228.332886 169.764308 
L 228.332886 169.764308 
z
" style="fill: #e69f00"/>
   </g>
   <g id="text_28">
    <g id="patch_22">
     <path d="M 212.837128 184.738058 
L 256.183378 184.738058 
L 256.183378 115.055558 
L 212.837128 115.055558 
L 212.837128 184.738058 
z
" style="fill: none"/>
    </g>
    <path d="M 214.052038 169.764308 
L 219.020075 169.764308 
L 221.531192 169.764308 
L 224.028759 169.764308 
L 229.023895 169.764308 
L 229.023895 169.764308 
L 225.442392 169.764308 
L 225.442392 169.764308 
L 223.211292 169.764308 
L 219.896256 169.764308 
L 217.638058 169.764308 
L 217.638058 169.764308 
L 214.052038 169.764308 
L 214.052038 169.764308 
z
" style="fill: #e69f00"/>
   </g>
   <g id="text_29">
    <g id="patch_23">
     <path d="M 212.837128 184.738058 
L 256.183378 184.738058 
L 256.183378 115.055558 
L 212.837128 115.055558 
L 212.837128 184.738058 
z
" style="fill: none"/>
    </g>
    <path d="M 224.227481 169.764308 
Q 224.846227 169.764308 225.3069 169.764308 
Q 225.767572 169.764308 226.426966 169.764308 
L 230.238805 169.764308 
L 225.668212 169.764308 
L 223.12548 169.764308 
Q 223.01257 169.764308 222.831914 169.764308 
Q 221.716364 169.764308 220.203371 169.764308 
L 218.880067 169.764308 
L 218.880067 169.764308 
L 214.715949 169.764308 
L 214.715949 169.764308 
L 220.727273 169.764308 
Q 224.792031 169.764308 226.562458 169.764308 
Q 228.332886 169.764308 228.332886 169.764308 
Q 228.332886 169.764308 227.276049 169.764308 
Q 226.219212 169.764308 224.227481 169.764308 
z
M 218.880067 169.764308 
L 218.880067 169.764308 
L 220.840183 169.764308 
Q 222.547381 169.764308 223.28807 169.764308 
Q 224.028759 169.764308 224.028759 169.764308 
Q 224.028759 169.764308 223.292587 169.764308 
Q 222.56093 169.764308 220.840183 169.764308 
L 218.880067 169.764308 
z
" style="fill: #e69f00"/>
   </g>
   <g id="text_30">
    <g id="patch_24">
     <path d="M 212.837128 184.738058 
L 256.183378 184.738058 
L 256.183378 115.055558 
L 212.837128 115.055558 
L 212.837128 184.738058 
z
" style="fill: none"/>
    </g>
    <path d="M 215.266949 169.764308 
L 215.266949 169.764308 
L 227.8135 169.764308 
L 227.8135 169.764308 
L 223.622284 169.764308 
L 223.622284 169.764308 
L 227.8135 169.764308 
L 227.8135 169.764308 
L 215.266949 169.764308 
L 215.266949 169.764308 
L 219.458166 169.764308 
L 219.458166 169.764308 
L 215.266949 169.764308 
z
" style="fill: #e69f00"/>
   </g>
   <g id="text_31">
    <g id="patch_25">
     <path d="M 212.837128 184.738058 
L 256.183378 184.738058 
L 256.183378 115.055558 
L 212.837128 115.055558 
L 212.837128 184.738058 
z
" style="fill: none"/>
    </g>
    <path d="M 228.531607 169.764308 
L 219.571076 169.764308 
L 219.571076 169.764308 
L 227.727689 169.764308 
L 227.727689 169.764308 
L 219.571076 169.764308 
L 219.571076 169.764308 
L 215.406958 169.764308 
L 215.406958 169.764308 
L 228.531607 169.764308 
L 228.531607 169.764308 
z
" style="fill: #e69f00"/>
   </g>
   <g id="text_32">
    <g id="patch_26">
     <path d="M 212.837128 184.738058 
L 256.183378 184.738058 
L 256.183378 115.055558 
L 212.837128 115.055558 
L 212.837128 184.738058 
z
" style="fill: none"/>
    </g>
    <path d="M 223.622284 169.764308 
L 219.458166 169.764308 
L 219.458166 169.764308 
L 214.106235 169.764308 
L 214.106235 169.764308 
L 228.969698 169.764308 
L 228.969698 169.764308 
L 223.622284 169.764308 
L 223.622284 169.764308 
z
" style="fill: #e69f00"/>
   </g>
   <g id="text_33">
    <g id="patch_27">
     <path d="M 212.837128 184.738058 
L 256.183378 184.738058 
L 256.183378 115.055558 
L 212.837128 115.055558 
L 212.837128 184.738058 
z
" style="fill: none"/>
    </g>
    <path d="M 212.950038 169.764308 
L 217.439336 169.764308 
L 221.531192 169.764308 
L 225.636597 169.764308 
L 230.125895 169.764308 
L 223.622284 169.764308 
L 223.622284 169.764308 
L 219.458166 169.764308 
L 219.458166 169.764308 
L 212.950038 169.764308 
z
" style="fill: #e69f00"/>
   </g>
   <g id="text_34">
    <g id="patch_28">
     <path d="M 212.837128 184.738058 
L 256.183378 184.738058 
L 256.183378 115.055558 
L 212.837128 115.055558 
L 212.837128 184.738058 
z
" style="fill: none"/>
    </g>
    <path d="M 221.531192 169.764308 
L 219.571076 169.764308 
L 223.509374 169.764308 
L 221.531192 169.764308 
z
M 218.992977 169.764308 
L 224.087473 169.764308 
L 229.773616 169.764308 
L 225.609498 169.764308 
L 224.313292 169.764308 
L 218.735542 169.764308 
L 217.466435 169.764308 
L 213.302317 169.764308 
L 218.992977 169.764308 
z
" style="fill: #e69f00"/>
   </g>
   <g id="text_35">
    <g id="patch_29">
     <path d="M 212.837128 184.738058 
L 256.183378 184.738058 
L 256.183378 115.055558 
L 212.837128 115.055558 
L 212.837128 184.738058 
z
" style="fill: none"/>
    </g>
    <path d="M 218.934264 169.764308 
L 218.934264 169.764308 
L 220.063363 169.764308 
Q 222.520283 169.764308 223.563571 169.764308 
Q 224.606858 169.764308 224.606858 169.764308 
Q 224.606858 169.764308 223.563571 169.764308 
Q 222.520283 169.764308 220.063363 169.764308 
L 218.934264 169.764308 
z
M 214.770146 169.764308 
L 219.232346 169.764308 
Q 224.394588 169.764308 226.666335 169.764308 
Q 228.942599 169.764308 228.942599 169.764308 
Q 228.942599 169.764308 226.666335 169.764308 
Q 224.394588 169.764308 219.232346 169.764308 
L 214.770146 169.764308 
L 214.770146 169.764308 
z
" style="fill: #e69f00"/>
   </g>
   <g id="text_36">
    <g id="patch_30">
     <path d="M 212.837128 184.671792 
L 256.183378 184.671792 
L 256.183378 114.989292 
L 212.837128 114.989292 
L 212.837128 184.671792 
z
" style="fill: none"/>
    </g>
    <path d="M 220.036265 169.673839 
Q 216.888336 169.670844 215.772786 169.667557 
Q 214.657236 169.66427 214.657236 169.658709 
Q 214.657236 169.651572 216.490893 169.647497 
Q 218.329066 169.64341 221.531192 169.64341 
Q 222.985472 169.64341 224.439752 169.644243 
Q 225.894031 169.645065 227.316697 169.646675 
L 227.316697 169.656806 
Q 225.975327 169.654454 224.593309 169.653227 
Q 223.211292 169.651988 221.856373 169.651988 
Q 220.347896 169.651988 219.539461 169.653508 
Q 218.735542 169.655016 218.735542 169.657831 
Q 218.735542 169.660015 219.322674 169.661444 
Q 219.909805 169.662863 221.770561 169.664585 
L 223.563571 169.666274 
Q 226.106302 169.668593 227.303147 169.672431 
Q 228.504509 169.67627 228.504509 169.682102 
Q 228.504509 169.69006 226.616655 169.693978 
Q 224.733317 169.697895 220.925995 169.697895 
Q 219.358805 169.697895 217.782582 169.696972 
Q 216.210876 169.696038 214.743047 169.694203 
L 214.743047 169.683475 
Q 216.409598 169.686436 217.967755 169.687876 
Q 219.525912 169.689317 221.052454 169.689317 
Q 222.588029 169.689317 223.432595 169.687584 
Q 224.281678 169.685839 224.281678 169.682698 
Q 224.281678 169.680345 223.717128 169.678567 
Q 223.152578 169.676788 222.082192 169.675775 
L 220.036265 169.673839 
z
" style="fill: #e69f00"/>
   </g>
   <g id="text_37">
    <g id="patch_31">
     <path d="M 212.837128 182.233423 
L 256.183378 182.233423 
L 256.183378 112.550923 
L 212.837128 112.550923 
L 212.837128 182.233423 
z
" style="fill: none"/>
    </g>
    <path d="M 216.012155 167.224914 
L 216.012155 148.478434 
L 220.176273 148.478434 
L 220.176273 163.953742 
L 229.082608 163.953742 
L 229.082608 167.224914 
L 216.012155 167.224914 
z
" style="fill: #e69f00"/>
   </g>
   <g id="text_38">
    <g id="patch_32">
     <path d="M 246.366859 184.738058 
L 289.713109 184.738058 
L 289.713109 115.055558 
L 246.366859 115.055558 
L 246.366859 184.738058 
z
" style="fill: none"/>
    </g>
    <path d="M 261.623248 169.764308 
Q 260.634157 169.764308 259.545706 169.764308 
Q 258.46177 169.764308 257.264925 169.764308 
Q 253.001446 169.764308 250.756797 169.764308 
Q 248.512148 169.764308 248.512148 169.764308 
Q 248.512148 169.764308 250.756797 169.764308 
Q 253.001446 169.764308 257.264925 169.764308 
Q 258.46177 169.764308 259.563771 169.764308 
Q 260.665772 169.764308 261.623248 169.764308 
L 261.623248 169.764308 
Q 260.552862 169.764308 259.541189 169.764308 
Q 258.534033 169.764308 257.45913 169.764308 
Q 255.173833 169.764308 254.008603 169.764308 
Q 252.843372 169.764308 252.843372 169.764308 
Q 252.843372 169.764308 254.008603 169.764308 
Q 255.173833 169.764308 257.45913 169.764308 
Q 258.534033 169.764308 259.541189 169.764308 
Q 260.552862 169.764308 261.623248 169.764308 
L 261.623248 169.764308 
z
" style="fill: #e69f00"/>
   </g>
   <g id="text_39">
    <g id="patch_33">
     <path d="M 246.366859 184.738058 
L 289.713109 184.738058 
L 289.713109 115.055558 
L 246.366859 115.055558 
L 246.366859 184.738058 
z
" style="fill: none"/>
    </g>
    <path d="M 248.01986 169.764308 
L 252.183978 169.764308 
L 252.183978 169.764308 
L 258.701139 169.764308 
L 263.416258 169.764308 
L 256.768121 169.764308 
L 263.655627 169.764308 
L 259.02632 169.764308 
L 254.031185 169.764308 
L 252.183978 169.764308 
L 252.183978 169.764308 
L 248.01986 169.764308 
L 248.01986 169.764308 
z
" style="fill: #e69f00"/>
   </g>
   <g id="text_40">
    <g id="patch_34">
     <path d="M 246.366859 184.738058 
L 289.713109 184.738058 
L 289.713109 115.055558 
L 246.366859 115.055558 
L 246.366859 184.738058 
z
" style="fill: none"/>
    </g>
    <path d="M 249.541886 169.764308 
L 249.541886 169.764308 
L 253.706004 169.764308 
L 253.706004 169.764308 
L 262.612339 169.764308 
L 262.612339 169.764308 
L 249.541886 169.764308 
z
" style="fill: #e69f00"/>
   </g>
   <g id="text_41">
    <g id="patch_35">
     <path d="M 246.366859 184.738058 
L 289.713109 184.738058 
L 289.713109 115.055558 
L 246.366859 115.055558 
L 246.366859 184.738058 
z
" style="fill: none"/>
    </g>
    <path d="M 248.046959 169.764308 
L 252.522708 169.764308 
L 258.394024 169.764308 
L 258.394024 169.764308 
L 262.061339 169.764308 
L 262.061339 169.764308 
L 257.617204 169.764308 
L 251.714273 169.764308 
L 251.714273 169.764308 
L 248.046959 169.764308 
L 248.046959 169.764308 
z
" style="fill: #e69f00"/>
   </g>
   <g id="text_42">
    <g id="patch_36">
     <path d="M 246.366859 184.738058 
L 289.713109 184.738058 
L 289.713109 115.055558 
L 246.366859 115.055558 
L 246.366859 184.738058 
z
" style="fill: none"/>
    </g>
    <path d="M 252.816274 169.764308 
L 252.816274 169.764308 
L 254.523472 169.764308 
Q 256.5694 169.764308 257.395901 169.764308 
Q 258.222401 169.764308 258.222401 169.764308 
Q 258.222401 169.764308 257.395901 169.764308 
Q 256.5694 169.764308 254.523472 169.764308 
L 252.816274 169.764308 
z
M 248.652156 169.764308 
L 254.369915 169.764308 
Q 258.732754 169.764308 260.64319 169.764308 
Q 262.553626 169.764308 262.553626 169.764308 
Q 262.553626 169.764308 260.64319 169.764308 
Q 258.732754 169.764308 254.369915 169.764308 
L 252.816274 169.764308 
L 252.816274 169.764308 
L 248.652156 169.764308 
L 248.652156 169.764308 
z
" style="fill: #e69f00"/>
   </g>
   <g id="text_43">
    <g id="patch_37">
     <path d="M 246.366859 184.738058 
L 289.713109 184.738058 
L 289.713109 115.055558 
L 246.366859 115.055558 
L 246.366859 184.738058 
z
" style="fill: none"/>
    </g>
    <path d="M 253.565996 169.764308 
Q 250.418067 169.764308 249.302517 169.764308 
Q 248.186967 169.764308 248.186967 169.764308 
Q 248.186967 169.764308 250.020624 169.764308 
Q 251.858798 169.764308 255.060923 169.764308 
Q 256.515203 169.764308 257.969483 169.764308 
Q 259.423763 169.764308 260.846428 169.764308 
L 260.846428 169.764308 
Q 259.505058 169.764308 258.123041 169.764308 
Q 256.741023 169.764308 255.386104 169.764308 
Q 253.877627 169.764308 253.069192 169.764308 
Q 252.265274 169.764308 252.265274 169.764308 
Q 252.265274 169.764308 252.852405 169.764308 
Q 253.439537 169.764308 255.300292 169.764308 
L 257.093302 169.764308 
Q 259.636034 169.764308 260.832879 169.764308 
Q 262.03424 169.764308 262.03424 169.764308 
Q 262.03424 169.764308 260.146386 169.764308 
Q 258.263049 169.764308 254.455726 169.764308 
Q 252.888536 169.764308 251.312314 169.764308 
Q 249.740608 169.764308 248.272779 169.764308 
L 248.272779 169.764308 
Q 249.939329 169.764308 251.497486 169.764308 
Q 253.055643 169.764308 254.582185 169.764308 
Q 256.11776 169.764308 256.962326 169.764308 
Q 257.811409 169.764308 257.811409 169.764308 
Q 257.811409 169.764308 257.24686 169.764308 
Q 256.68231 169.764308 255.611924 169.764308 
L 253.565996 169.764308 
z
" style="fill: #e69f00"/>
   </g>
   <g id="text_44">
    <g id="patch_38">
     <path d="M 246.366859 184.738058 
L 289.713109 184.738058 
L 289.713109 115.055558 
L 246.366859 115.055558 
L 246.366859 184.738058 
z
" style="fill: none"/>
    </g>
    <path d="M 262.007142 169.764308 
L 257.34622 169.764308 
L 262.007142 169.764308 
L 260.932239 169.764308 
L 256.248736 169.764308 
L 256.248736 169.764308 
L 253.818914 169.764308 
L 253.818914 169.764308 
L 249.14896 169.764308 
L 248.074057 169.764308 
L 252.762077 169.764308 
L 248.074057 169.764308 
L 249.14896 169.764308 
L 253.818914 169.764308 
L 253.818914 169.764308 
L 256.248736 169.764308 
L 256.248736 169.764308 
L 260.932239 169.764308 
L 262.007142 169.764308 
z
" style="fill: #e69f00"/>
   </g>
   <g id="text_45">
    <g id="patch_39">
     <path d="M 246.366859 184.738058 
L 289.713109 184.738058 
L 289.713109 115.055558 
L 246.366859 115.055558 
L 246.366859 184.738058 
z
" style="fill: none"/>
    </g>
    <path d="M 255.060923 169.764308 
L 258.773402 169.764308 
L 262.964618 169.764308 
L 257.955934 169.764308 
L 252.183978 169.764308 
L 247.170778 169.764308 
L 251.361994 169.764308 
L 255.060923 169.764308 
z
" style="fill: #e69f00"/>
   </g>
   <g id="text_46">
    <g id="patch_40">
     <path d="M 246.366859 184.738058 
L 289.713109 184.738058 
L 289.713109 115.055558 
L 246.366859 115.055558 
L 246.366859 184.738058 
z
" style="fill: none"/>
    </g>
    <path d="M 246.859146 169.764308 
L 250.291608 169.764308 
L 251.714273 169.764308 
L 253.439537 169.764308 
L 256.700375 169.764308 
L 258.68759 169.764308 
L 259.816689 169.764308 
L 263.27625 169.764308 
L 260.990953 169.764308 
L 257.319122 169.764308 
L 255.060923 169.764308 
L 252.942733 169.764308 
L 249.316066 169.764308 
L 246.859146 169.764308 
z
" style="fill: #e69f00"/>
   </g>
   <g id="text_47">
    <g id="patch_41">
     <path d="M 246.366859 184.738058 
L 289.713109 184.738058 
L 289.713109 115.055558 
L 246.366859 115.055558 
L 246.366859 184.738058 
z
" style="fill: none"/>
    </g>
    <path d="M 258.674041 169.764308 
L 258.674041 169.764308 
L 255.824194 169.764308 
L 255.824194 169.764308 
L 262.314257 169.764308 
L 262.314257 169.764308 
Q 261.117412 169.764308 259.667648 169.764308 
Q 258.222401 169.764308 256.5694 169.764308 
Q 252.477544 169.764308 250.246444 169.764308 
Q 248.01986 169.764308 248.01986 169.764308 
Q 248.01986 169.764308 250.269026 169.764308 
Q 252.522708 169.764308 256.768121 169.764308 
Q 258.037229 169.764308 259.265689 169.764308 
Q 260.494149 169.764308 261.569051 169.764308 
L 261.569051 169.764308 
Q 260.69287 169.764308 259.554738 169.764308 
Q 258.421123 169.764308 257.066204 169.764308 
Q 254.695095 169.764308 253.520832 169.764308 
Q 252.351085 169.764308 252.351085 169.764308 
Q 252.351085 169.764308 253.480184 169.764308 
Q 254.609284 169.764308 256.768121 169.764308 
Q 257.418483 169.764308 257.897221 169.764308 
Q 258.375959 169.764308 258.674041 169.764308 
z
" style="fill: #e69f00"/>
   </g>
   <g id="text_48">
    <g id="patch_42">
     <path d="M 246.366859 184.738058 
L 289.713109 184.738058 
L 289.713109 115.055558 
L 246.366859 115.055558 
L 246.366859 184.738058 
z
" style="fill: none"/>
    </g>
    <path d="M 248.299877 169.764308 
L 252.463995 169.764308 
L 252.463995 169.764308 
L 257.671401 169.764308 
L 257.671401 169.764308 
L 261.835519 169.764308 
L 261.835519 169.764308 
L 257.671401 169.764308 
L 257.671401 169.764308 
L 252.463995 169.764308 
L 252.463995 169.764308 
L 248.299877 169.764308 
L 248.299877 169.764308 
z
" style="fill: #e69f00"/>
   </g>
   <g id="text_49">
    <g id="patch_43">
     <path d="M 246.366859 184.738058 
L 289.713109 184.738058 
L 289.713109 115.055558 
L 246.366859 115.055558 
L 246.366859 184.738058 
z
" style="fill: none"/>
    </g>
    <path d="M 255.625473 169.764308 
Q 255.426752 169.764308 255.29126 169.764308 
Q 255.160284 169.764308 255.033825 169.764308 
Q 251.407158 169.764308 249.53737 169.764308 
Q 247.667581 169.764308 247.667581 169.764308 
Q 247.667581 169.764308 249.53737 169.764308 
Q 251.407158 169.764308 255.060923 169.764308 
Q 258.732754 169.764308 260.602542 169.764308 
Q 262.472331 169.764308 262.472331 169.764308 
Q 262.472331 169.764308 261.582601 169.764308 
Q 260.69287 169.764308 258.999222 169.764308 
L 261.623248 169.764308 
L 258.773402 169.764308 
L 255.625473 169.764308 
z
M 255.060923 169.764308 
Q 253.466635 169.764308 252.730462 169.764308 
Q 251.998806 169.764308 251.998806 169.764308 
Q 251.998806 169.764308 252.730462 169.764308 
Q 253.466635 169.764308 255.060923 169.764308 
Q 256.668761 169.764308 257.400417 169.764308 
Q 258.13659 169.764308 258.13659 169.764308 
Q 258.13659 169.764308 257.400417 169.764308 
Q 256.668761 169.764308 255.060923 169.764308 
z
" style="fill: #e69f00"/>
   </g>
   <g id="text_50">
    <g id="patch_44">
     <path d="M 246.366859 184.738058 
L 289.713109 184.738058 
L 289.713109 115.055558 
L 246.366859 115.055558 
L 246.366859 184.738058 
z
" style="fill: none"/>
    </g>
    <path d="M 261.862617 169.764308 
L 248.737968 169.764308 
L 248.737968 169.764308 
L 261.862617 169.764308 
L 261.862617 169.764308 
L 252.902086 169.764308 
L 252.902086 169.764308 
L 261.018051 169.764308 
L 261.018051 169.764308 
L 252.902086 169.764308 
L 252.902086 169.764308 
L 261.862617 169.764308 
L 261.862617 169.764308 
z
" style="fill: #e69f00"/>
   </g>
   <g id="text_51">
    <g id="patch_45">
     <path d="M 246.366859 184.738058 
L 289.713109 184.738058 
L 289.713109 115.055558 
L 246.366859 115.055558 
L 246.366859 184.738058 
z
" style="fill: none"/>
    </g>
    <path d="M 247.58177 169.764308 
L 252.549807 169.764308 
L 255.060923 169.764308 
L 257.558491 169.764308 
L 262.553626 169.764308 
L 262.553626 169.764308 
L 258.972123 169.764308 
L 258.972123 169.764308 
L 256.741023 169.764308 
L 253.425988 169.764308 
L 251.167789 169.764308 
L 251.167789 169.764308 
L 247.58177 169.764308 
L 247.58177 169.764308 
z
" style="fill: #e69f00"/>
   </g>
   <g id="text_52">
    <g id="patch_46">
     <path d="M 246.366859 184.738058 
L 289.713109 184.738058 
L 289.713109 115.055558 
L 246.366859 115.055558 
L 246.366859 184.738058 
z
" style="fill: none"/>
    </g>
    <path d="M 257.757212 169.764308 
Q 258.375959 169.764308 258.836631 169.764308 
Q 259.297304 169.764308 259.956698 169.764308 
L 263.768537 169.764308 
L 259.197943 169.764308 
L 256.655211 169.764308 
Q 256.542302 169.764308 256.361646 169.764308 
Q 255.246096 169.764308 253.733103 169.764308 
L 252.409798 169.764308 
L 252.409798 169.764308 
L 248.24568 169.764308 
L 248.24568 169.764308 
L 254.257005 169.764308 
Q 258.321762 169.764308 260.09219 169.764308 
Q 261.862617 169.764308 261.862617 169.764308 
Q 261.862617 169.764308 260.80578 169.764308 
Q 259.748943 169.764308 257.757212 169.764308 
z
M 252.409798 169.764308 
L 252.409798 169.764308 
L 254.369915 169.764308 
Q 256.077113 169.764308 256.817802 169.764308 
Q 257.558491 169.764308 257.558491 169.764308 
Q 257.558491 169.764308 256.822318 169.764308 
Q 256.090662 169.764308 254.369915 169.764308 
L 252.409798 169.764308 
z
" style="fill: #e69f00"/>
   </g>
   <g id="text_53">
    <g id="patch_47">
     <path d="M 246.366859 184.738058 
L 289.713109 184.738058 
L 289.713109 115.055558 
L 246.366859 115.055558 
L 246.366859 184.738058 
z
" style="fill: none"/>
    </g>
    <path d="M 248.796681 169.764308 
L 248.796681 169.764308 
L 261.343232 169.764308 
L 261.343232 169.764308 
L 257.152015 169.764308 
L 257.152015 169.764308 
L 261.343232 169.764308 
L 261.343232 169.764308 
L 248.796681 169.764308 
L 248.796681 169.764308 
L 252.987897 169.764308 
L 252.987897 169.764308 
L 248.796681 169.764308 
z
" style="fill: #e69f00"/>
   </g>
   <g id="text_54">
    <g id="patch_48">
     <path d="M 246.366859 184.738058 
L 289.713109 184.738058 
L 289.713109 115.055558 
L 246.366859 115.055558 
L 246.366859 184.738058 
z
" style="fill: none"/>
    </g>
    <path d="M 257.152015 169.764308 
L 252.987897 169.764308 
L 252.987897 169.764308 
L 247.635967 169.764308 
L 247.635967 169.764308 
L 262.499429 169.764308 
L 262.499429 169.764308 
L 257.152015 169.764308 
L 257.152015 169.764308 
z
" style="fill: #e69f00"/>
   </g>
   <g id="text_55">
    <g id="patch_49">
     <path d="M 246.366859 184.738058 
L 289.713109 184.738058 
L 289.713109 115.055558 
L 246.366859 115.055558 
L 246.366859 184.738058 
z
" style="fill: none"/>
    </g>
    <path d="M 246.479769 169.764308 
L 250.969068 169.764308 
L 255.060923 169.764308 
L 259.166328 169.764308 
L 263.655627 169.764308 
L 257.152015 169.764308 
L 257.152015 169.764308 
L 252.987897 169.764308 
L 252.987897 169.764308 
L 246.479769 169.764308 
z
" style="fill: #e69f00"/>
   </g>
   <g id="text_56">
    <g id="patch_50">
     <path d="M 246.366859 184.738058 
L 289.713109 184.738058 
L 289.713109 115.055558 
L 246.366859 115.055558 
L 246.366859 184.738058 
z
" style="fill: none"/>
    </g>
    <path d="M 255.060923 169.764308 
L 253.100807 169.764308 
L 257.039105 169.764308 
L 255.060923 169.764308 
z
M 252.522708 169.764308 
L 257.617204 169.764308 
L 263.303348 169.764308 
L 259.13923 169.764308 
L 257.843024 169.764308 
L 252.265274 169.764308 
L 250.996166 169.764308 
L 246.832048 169.764308 
L 252.522708 169.764308 
z
" style="fill: #e69f00"/>
   </g>
   <g id="text_57">
    <g id="patch_51">
     <path d="M 246.366859 184.738058 
L 289.713109 184.738058 
L 289.713109 115.055558 
L 246.366859 115.055558 
L 246.366859 184.738058 
z
" style="fill: none"/>
    </g>
    <path d="M 252.463995 169.764308 
L 252.463995 169.764308 
L 253.593094 169.764308 
Q 256.050014 169.764308 257.093302 169.764308 
Q 258.13659 169.764308 258.13659 169.764308 
Q 258.13659 169.764308 257.093302 169.764308 
Q 256.050014 169.764308 253.593094 169.764308 
L 252.463995 169.764308 
z
M 248.299877 169.764308 
L 252.762077 169.764308 
Q 257.924319 169.764308 260.196067 169.764308 
Q 262.472331 169.764308 262.472331 169.764308 
Q 262.472331 169.764308 260.196067 169.764308 
Q 257.924319 169.764308 252.762077 169.764308 
L 248.299877 169.764308 
L 248.299877 169.764308 
z
" style="fill: #e69f00"/>
   </g>
   <g id="text_58">
    <g id="patch_52">
     <path d="M 246.366859 182.120823 
L 289.713109 182.120823 
L 289.713109 112.438323 
L 246.366859 112.438323 
L 246.366859 182.120823 
z
" style="fill: none"/>
    </g>
    <path d="M 262.061339 147.113942 
L 253.100807 147.113942 
L 253.100807 152.321758 
L 261.25742 152.321758 
L 261.25742 156.546873 
L 253.100807 156.546873 
L 253.100807 167.102178 
L 248.936689 167.102178 
L 248.936689 142.888827 
L 262.061339 142.888827 
L 262.061339 147.113942 
z
" style="fill: #e69f00"/>
   </g>
   <g id="text_59">
    <g id="patch_53">
     <path d="M 279.896591 184.738058 
L 323.242841 184.738058 
L 323.242841 115.055558 
L 279.896591 115.055558 
L 279.896591 184.738058 
z
" style="fill: none"/>
    </g>
    <path d="M 295.15298 169.764308 
Q 294.163889 169.764308 293.075437 169.764308 
Q 291.991502 169.764308 290.794657 169.764308 
Q 286.531178 169.764308 284.286528 169.764308 
Q 282.041879 169.764308 282.041879 169.764308 
Q 282.041879 169.764308 284.286528 169.764308 
Q 286.531178 169.764308 290.794657 169.764308 
Q 291.991502 169.764308 293.093503 169.764308 
Q 294.195503 169.764308 295.15298 169.764308 
L 295.15298 169.764308 
Q 294.082594 169.764308 293.070921 169.764308 
Q 292.063764 169.764308 290.988862 169.764308 
Q 288.703565 169.764308 287.538334 169.764308 
Q 286.373104 169.764308 286.373104 169.764308 
Q 286.373104 169.764308 287.538334 169.764308 
Q 288.703565 169.764308 290.988862 169.764308 
Q 292.063764 169.764308 293.070921 169.764308 
Q 294.082594 169.764308 295.15298 169.764308 
L 295.15298 169.764308 
z
" style="fill: #e69f00"/>
   </g>
   <g id="text_60">
    <g id="patch_54">
     <path d="M 279.896591 184.738058 
L 323.242841 184.738058 
L 323.242841 115.055558 
L 279.896591 115.055558 
L 279.896591 184.738058 
z
" style="fill: none"/>
    </g>
    <path d="M 281.549592 169.764308 
L 285.71371 169.764308 
L 285.71371 169.764308 
L 292.230871 169.764308 
L 296.945989 169.764308 
L 290.297853 169.764308 
L 297.185358 169.764308 
L 292.556051 169.764308 
L 287.560916 169.764308 
L 285.71371 169.764308 
L 285.71371 169.764308 
L 281.549592 169.764308 
L 281.549592 169.764308 
z
" style="fill: #e69f00"/>
   </g>
   <g id="text_61">
    <g id="patch_55">
     <path d="M 279.896591 184.738058 
L 323.242841 184.738058 
L 323.242841 115.055558 
L 279.896591 115.055558 
L 279.896591 184.738058 
z
" style="fill: none"/>
    </g>
    <path d="M 286.346005 169.764308 
L 286.346005 169.764308 
L 288.053204 169.764308 
Q 290.099131 169.764308 290.925632 169.764308 
Q 291.752133 169.764308 291.752133 169.764308 
Q 291.752133 169.764308 290.925632 169.764308 
Q 290.099131 169.764308 288.053204 169.764308 
L 286.346005 169.764308 
z
M 282.181887 169.764308 
L 287.899646 169.764308 
Q 292.262486 169.764308 294.172921 169.764308 
Q 296.083357 169.764308 296.083357 169.764308 
Q 296.083357 169.764308 294.172921 169.764308 
Q 292.262486 169.764308 287.899646 169.764308 
L 286.346005 169.764308 
L 286.346005 169.764308 
L 282.181887 169.764308 
L 282.181887 169.764308 
z
" style="fill: #e69f00"/>
   </g>
   <g id="text_62">
    <g id="patch_56">
     <path d="M 279.896591 184.738058 
L 323.242841 184.738058 
L 323.242841 115.055558 
L 279.896591 115.055558 
L 279.896591 184.738058 
z
" style="fill: none"/>
    </g>
    <path d="M 287.095727 169.764308 
Q 283.947799 169.764308 282.832249 169.764308 
Q 281.716699 169.764308 281.716699 169.764308 
Q 281.716699 169.764308 283.550356 169.764308 
Q 285.388529 169.764308 288.590655 169.764308 
Q 290.044935 169.764308 291.499214 169.764308 
Q 292.953494 169.764308 294.376159 169.764308 
L 294.376159 169.764308 
Q 293.034789 169.764308 291.652772 169.764308 
Q 290.270754 169.764308 288.915835 169.764308 
Q 287.407359 169.764308 286.598924 169.764308 
Q 285.795005 169.764308 285.795005 169.764308 
Q 285.795005 169.764308 286.382137 169.764308 
Q 286.969268 169.764308 288.830024 169.764308 
L 290.623033 169.764308 
Q 293.165765 169.764308 294.36261 169.764308 
Q 295.563972 169.764308 295.563972 169.764308 
Q 295.563972 169.764308 293.676118 169.764308 
Q 291.79278 169.764308 287.985458 169.764308 
Q 286.418268 169.764308 284.842045 169.764308 
Q 283.270339 169.764308 281.80251 169.764308 
L 281.80251 169.764308 
Q 283.469061 169.764308 285.027218 169.764308 
Q 286.585374 169.764308 288.111917 169.764308 
Q 289.647492 169.764308 290.492058 169.764308 
Q 291.341141 169.764308 291.341141 169.764308 
Q 291.341141 169.764308 290.776591 169.764308 
Q 290.212041 169.764308 289.141655 169.764308 
L 287.095727 169.764308 
z
" style="fill: #e69f00"/>
   </g>
   <g id="text_63">
    <g id="patch_57">
     <path d="M 279.896591 184.738058 
L 323.242841 184.738058 
L 323.242841 115.055558 
L 279.896591 115.055558 
L 279.896591 184.738058 
z
" style="fill: none"/>
    </g>
    <path d="M 295.536873 169.764308 
L 290.875952 169.764308 
L 295.536873 169.764308 
L 294.461971 169.764308 
L 289.778467 169.764308 
L 289.778467 169.764308 
L 287.348646 169.764308 
L 287.348646 169.764308 
L 282.678691 169.764308 
L 281.603789 169.764308 
L 286.291809 169.764308 
L 281.603789 169.764308 
L 282.678691 169.764308 
L 287.348646 169.764308 
L 287.348646 169.764308 
L 289.778467 169.764308 
L 289.778467 169.764308 
L 294.461971 169.764308 
L 295.536873 169.764308 
z
" style="fill: #e69f00"/>
   </g>
   <g id="text_64">
    <g id="patch_58">
     <path d="M 279.896591 184.738058 
L 323.242841 184.738058 
L 323.242841 115.055558 
L 279.896591 115.055558 
L 279.896591 184.738058 
z
" style="fill: none"/>
    </g>
    <path d="M 288.590655 169.764308 
L 292.303133 169.764308 
L 296.49435 169.764308 
L 291.485665 169.764308 
L 285.71371 169.764308 
L 280.700509 169.764308 
L 284.891726 169.764308 
L 288.590655 169.764308 
z
" style="fill: #e69f00"/>
   </g>
   <g id="text_65">
    <g id="patch_59">
     <path d="M 279.896591 184.738058 
L 323.242841 184.738058 
L 323.242841 115.055558 
L 279.896591 115.055558 
L 279.896591 184.738058 
z
" style="fill: none"/>
    </g>
    <path d="M 280.388878 169.764308 
L 283.82134 169.764308 
L 285.244005 169.764308 
L 286.969268 169.764308 
L 290.230107 169.764308 
L 292.217322 169.764308 
L 293.346421 169.764308 
L 296.805981 169.764308 
L 294.520684 169.764308 
L 290.848853 169.764308 
L 288.590655 169.764308 
L 286.472465 169.764308 
L 282.845798 169.764308 
L 280.388878 169.764308 
z
" style="fill: #e69f00"/>
   </g>
   <g id="text_66">
    <g id="patch_60">
     <path d="M 279.896591 184.738058 
L 323.242841 184.738058 
L 323.242841 115.055558 
L 279.896591 115.055558 
L 279.896591 184.738058 
z
" style="fill: none"/>
    </g>
    <path d="M 292.203772 169.764308 
L 292.203772 169.764308 
L 289.353926 169.764308 
L 289.353926 169.764308 
L 295.843988 169.764308 
L 295.843988 169.764308 
Q 294.647143 169.764308 293.19738 169.764308 
Q 291.752133 169.764308 290.099131 169.764308 
Q 286.007276 169.764308 283.776176 169.764308 
Q 281.549592 169.764308 281.549592 169.764308 
Q 281.549592 169.764308 283.798758 169.764308 
Q 286.05244 169.764308 290.297853 169.764308 
Q 291.56696 169.764308 292.79542 169.764308 
Q 294.02388 169.764308 295.098783 169.764308 
L 295.098783 169.764308 
Q 294.222602 169.764308 293.08447 169.764308 
Q 291.950854 169.764308 290.595935 169.764308 
Q 288.224827 169.764308 287.050563 169.764308 
Q 285.880817 169.764308 285.880817 169.764308 
Q 285.880817 169.764308 287.009916 169.764308 
Q 288.139015 169.764308 290.297853 169.764308 
Q 290.948214 169.764308 291.426952 169.764308 
Q 291.90569 169.764308 292.203772 169.764308 
z
" style="fill: #e69f00"/>
   </g>
   <g id="text_67">
    <g id="patch_61">
     <path d="M 279.896591 184.738058 
L 323.242841 184.738058 
L 323.242841 115.055558 
L 279.896591 115.055558 
L 279.896591 184.738058 
z
" style="fill: none"/>
    </g>
    <path d="M 281.829608 169.764308 
L 285.993726 169.764308 
L 285.993726 169.764308 
L 291.201132 169.764308 
L 291.201132 169.764308 
L 295.36525 169.764308 
L 295.36525 169.764308 
L 291.201132 169.764308 
L 291.201132 169.764308 
L 285.993726 169.764308 
L 285.993726 169.764308 
L 281.829608 169.764308 
L 281.829608 169.764308 
z
" style="fill: #e69f00"/>
   </g>
   <g id="text_68">
    <g id="patch_62">
     <path d="M 279.896591 184.738058 
L 323.242841 184.738058 
L 323.242841 115.055558 
L 279.896591 115.055558 
L 279.896591 184.738058 
z
" style="fill: none"/>
    </g>
    <path d="M 289.155204 169.764308 
Q 288.956483 169.764308 288.820991 169.764308 
Q 288.690016 169.764308 288.563556 169.764308 
Q 284.93689 169.764308 283.067101 169.764308 
Q 281.197313 169.764308 281.197313 169.764308 
Q 281.197313 169.764308 283.067101 169.764308 
Q 284.93689 169.764308 288.590655 169.764308 
Q 292.262486 169.764308 294.132274 169.764308 
Q 296.002062 169.764308 296.002062 169.764308 
Q 296.002062 169.764308 295.112332 169.764308 
Q 294.222602 169.764308 292.528953 169.764308 
L 295.15298 169.764308 
L 292.303133 169.764308 
L 289.155204 169.764308 
z
M 288.590655 169.764308 
Q 286.996367 169.764308 286.260194 169.764308 
Q 285.528538 169.764308 285.528538 169.764308 
Q 285.528538 169.764308 286.260194 169.764308 
Q 286.996367 169.764308 288.590655 169.764308 
Q 290.198492 169.764308 290.930148 169.764308 
Q 291.666321 169.764308 291.666321 169.764308 
Q 291.666321 169.764308 290.930148 169.764308 
Q 290.198492 169.764308 288.590655 169.764308 
z
" style="fill: #e69f00"/>
   </g>
   <g id="text_69">
    <g id="patch_63">
     <path d="M 279.896591 184.738058 
L 323.242841 184.738058 
L 323.242841 115.055558 
L 279.896591 115.055558 
L 279.896591 184.738058 
z
" style="fill: none"/>
    </g>
    <path d="M 295.392349 169.764308 
L 282.267699 169.764308 
L 282.267699 169.764308 
L 295.392349 169.764308 
L 295.392349 169.764308 
L 286.431817 169.764308 
L 286.431817 169.764308 
L 294.547782 169.764308 
L 294.547782 169.764308 
L 286.431817 169.764308 
L 286.431817 169.764308 
L 295.392349 169.764308 
L 295.392349 169.764308 
z
" style="fill: #e69f00"/>
   </g>
   <g id="text_70">
    <g id="patch_64">
     <path d="M 279.896591 184.738058 
L 323.242841 184.738058 
L 323.242841 115.055558 
L 279.896591 115.055558 
L 279.896591 184.738058 
z
" style="fill: none"/>
    </g>
    <path d="M 281.111501 169.764308 
L 286.079538 169.764308 
L 288.590655 169.764308 
L 291.088222 169.764308 
L 296.083357 169.764308 
L 296.083357 169.764308 
L 292.501855 169.764308 
L 292.501855 169.764308 
L 290.270754 169.764308 
L 286.955719 169.764308 
L 284.697521 169.764308 
L 284.697521 169.764308 
L 281.111501 169.764308 
L 281.111501 169.764308 
z
" style="fill: #e69f00"/>
   </g>
   <g id="text_71">
    <g id="patch_65">
     <path d="M 279.896591 184.738058 
L 323.242841 184.738058 
L 323.242841 115.055558 
L 279.896591 115.055558 
L 279.896591 184.738058 
z
" style="fill: none"/>
    </g>
    <path d="M 291.286944 169.764308 
Q 291.90569 169.764308 292.366363 169.764308 
Q 292.827035 169.764308 293.486429 169.764308 
L 297.298268 169.764308 
L 292.727674 169.764308 
L 290.184943 169.764308 
Q 290.072033 169.764308 289.891377 169.764308 
Q 288.775827 169.764308 287.262834 169.764308 
L 285.93953 169.764308 
L 285.93953 169.764308 
L 281.775412 169.764308 
L 281.775412 169.764308 
L 287.786736 169.764308 
Q 291.851493 169.764308 293.621921 169.764308 
Q 295.392349 169.764308 295.392349 169.764308 
Q 295.392349 169.764308 294.335512 169.764308 
Q 293.278675 169.764308 291.286944 169.764308 
z
M 285.93953 169.764308 
L 285.93953 169.764308 
L 287.899646 169.764308 
Q 289.606844 169.764308 290.347533 169.764308 
Q 291.088222 169.764308 291.088222 169.764308 
Q 291.088222 169.764308 290.35205 169.764308 
Q 289.620393 169.764308 287.899646 169.764308 
L 285.93953 169.764308 
z
" style="fill: #e69f00"/>
   </g>
   <g id="text_72">
    <g id="patch_66">
     <path d="M 279.896591 184.738058 
L 323.242841 184.738058 
L 323.242841 115.055558 
L 279.896591 115.055558 
L 279.896591 184.738058 
z
" style="fill: none"/>
    </g>
    <path d="M 282.326412 169.764308 
L 282.326412 169.764308 
L 294.872963 169.764308 
L 294.872963 169.764308 
L 290.681747 169.764308 
L 290.681747 169.764308 
L 294.872963 169.764308 
L 294.872963 169.764308 
L 282.326412 169.764308 
L 282.326412 169.764308 
L 286.517629 169.764308 
L 286.517629 169.764308 
L 282.326412 169.764308 
z
" style="fill: #e69f00"/>
   </g>
   <g id="text_73">
    <g id="patch_67">
     <path d="M 279.896591 184.738058 
L 323.242841 184.738058 
L 323.242841 115.055558 
L 279.896591 115.055558 
L 279.896591 184.738058 
z
" style="fill: none"/>
    </g>
    <path d="M 295.59107 169.764308 
L 286.630538 169.764308 
L 286.630538 169.764308 
L 294.787151 169.764308 
L 294.787151 169.764308 
L 286.630538 169.764308 
L 286.630538 169.764308 
L 282.46642 169.764308 
L 282.46642 169.764308 
L 295.59107 169.764308 
L 295.59107 169.764308 
z
" style="fill: #e69f00"/>
   </g>
   <g id="text_74">
    <g id="patch_68">
     <path d="M 279.896591 184.738058 
L 323.242841 184.738058 
L 323.242841 115.055558 
L 279.896591 115.055558 
L 279.896591 184.738058 
z
" style="fill: none"/>
    </g>
    <path d="M 290.681747 169.764308 
L 286.517629 169.764308 
L 286.517629 169.764308 
L 281.165698 169.764308 
L 281.165698 169.764308 
L 296.029161 169.764308 
L 296.029161 169.764308 
L 290.681747 169.764308 
L 290.681747 169.764308 
z
" style="fill: #e69f00"/>
   </g>
   <g id="text_75">
    <g id="patch_69">
     <path d="M 279.896591 184.738058 
L 323.242841 184.738058 
L 323.242841 115.055558 
L 279.896591 115.055558 
L 279.896591 184.738058 
z
" style="fill: none"/>
    </g>
    <path d="M 280.0095 169.764308 
L 284.498799 169.764308 
L 288.590655 169.764308 
L 292.69606 169.764308 
L 297.185358 169.764308 
L 290.681747 169.764308 
L 290.681747 169.764308 
L 286.517629 169.764308 
L 286.517629 169.764308 
L 280.0095 169.764308 
z
" style="fill: #e69f00"/>
   </g>
   <g id="text_76">
    <g id="patch_70">
     <path d="M 279.896591 184.738058 
L 323.242841 184.738058 
L 323.242841 115.055558 
L 279.896591 115.055558 
L 279.896591 184.738058 
z
" style="fill: none"/>
    </g>
    <path d="M 288.590655 169.764308 
L 286.630538 169.764308 
L 290.568837 169.764308 
L 288.590655 169.764308 
z
M 286.05244 169.764308 
L 291.146935 169.764308 
L 296.833079 169.764308 
L 292.668961 169.764308 
L 291.372755 169.764308 
L 285.795005 169.764308 
L 284.525897 169.764308 
L 280.361779 169.764308 
L 286.05244 169.764308 
z
" style="fill: #e69f00"/>
   </g>
   <g id="text_77">
    <g id="patch_71">
     <path d="M 279.896591 181.762704 
L 323.242841 181.762704 
L 323.242841 112.080204 
L 279.896591 112.080204 
L 279.896591 181.762704 
z
" style="fill: none"/>
    </g>
    <path d="M 283.071618 166.728633 
L 283.071618 134.195414 
L 287.235736 134.195414 
L 287.235736 161.05174 
L 296.142071 161.05174 
L 296.142071 166.728633 
L 283.071618 166.728633 
z
" style="fill: #e69f00"/>
   </g>
   <g id="text_78">
    <g id="patch_72">
     <path d="M 279.896591 144.894913 
L 323.242841 144.894913 
L 323.242841 75.212413 
L 279.896591 75.212413 
L 279.896591 144.894913 
z
" style="fill: none"/>
    </g>
    <path d="M 285.993726 97.699988 
L 285.993726 122.867491 
L 287.122826 122.867491 
Q 289.579746 122.867491 290.623033 119.997654 
Q 291.666321 117.119756 291.666321 110.243433 
Q 291.666321 103.415478 290.623033 100.561763 
Q 289.579746 97.699988 287.122826 97.699988 
L 285.993726 97.699988 
z
M 281.829608 90.718867 
L 286.291809 90.718867 
Q 291.45405 90.718867 293.725798 95.297708 
Q 296.002062 99.868488 296.002062 110.243433 
Q 296.002062 120.650623 293.725798 125.253648 
Q 291.45405 129.848611 286.291809 129.848611 
L 281.829608 129.848611 
L 281.829608 90.718867 
z
" style="fill: #e69f00"/>
   </g>
   <g id="text_79">
    <g id="patch_73">
     <path d="M 279.896591 101.02801 
L 323.242841 101.02801 
L 323.242841 31.34551 
L 279.896591 31.34551 
L 279.896591 101.02801 
z
" style="fill: none"/>
    </g>
    <path d="M 281.57669 42.556272 
L 286.05244 42.556272 
L 291.923756 74.122055 
L 291.923756 42.556272 
L 295.59107 42.556272 
L 295.59107 85.973758 
L 291.146935 85.973758 
L 285.244005 54.407976 
L 285.244005 85.973758 
L 281.57669 85.973758 
L 281.57669 42.556272 
z
" style="fill: #e69f00"/>
   </g>
   <g id="text_80">
    <!-- ZV67 -->
    <g transform="translate(221.06937 27.478594) scale(0.255 -0.255)">
     <use xlink:href="#DejaVuSans-5a"/>
     <use xlink:href="#DejaVuSans-56" x="68.505859"/>
     <use xlink:href="#DejaVuSans-36" x="136.914062"/>
     <use xlink:href="#DejaVuSans-37" x="200.537109"/>
    </g>
   </g>
  </g>
  <g id="text_81">
   <!-- site -->
   <g transform="translate(163.492156 255.875) scale(0.255 -0.255)">
    <defs>
     <path id="DejaVuSans-73" d="M 2834 3397 
L 2834 2853 
Q 2591 2978 2328 3040 
Q 2066 3103 1784 3103 
Q 1356 3103 1142 2972 
Q 928 2841 928 2578 
Q 928 2378 1081 2264 
Q 1234 2150 1697 2047 
L 1894 2003 
Q 2506 1872 2764 1633 
Q 3022 1394 3022 966 
Q 3022 478 2636 193 
Q 2250 -91 1575 -91 
Q 1294 -91 989 -36 
Q 684 19 347 128 
L 347 722 
Q 666 556 975 473 
Q 1284 391 1588 391 
Q 1994 391 2212 530 
Q 2431 669 2431 922 
Q 2431 1156 2273 1281 
Q 2116 1406 1581 1522 
L 1381 1569 
Q 847 1681 609 1914 
Q 372 2147 372 2553 
Q 372 3047 722 3315 
Q 1072 3584 1716 3584 
Q 2034 3584 2315 3537 
Q 2597 3491 2834 3397 
z
" transform="scale(0.015625)"/>
     <path id="DejaVuSans-69" d="M 603 3500 
L 1178 3500 
L 1178 0 
L 603 0 
L 603 3500 
z
M 603 4863 
L 1178 4863 
L 1178 4134 
L 603 4134 
L 603 4863 
z
" transform="scale(0.015625)"/>
     <path id="DejaVuSans-74" d="M 1172 4494 
L 1172 3500 
L 2356 3500 
L 2356 3053 
L 1172 3053 
L 1172 1153 
Q 1172 725 1289 603 
Q 1406 481 1766 481 
L 2356 481 
L 2356 0 
L 1766 0 
Q 1100 0 847 248 
Q 594 497 594 1153 
L 594 3053 
L 172 3053 
L 172 3500 
L 594 3500 
L 594 4494 
L 1172 4494 
z
" transform="scale(0.015625)"/>
     <path id="DejaVuSans-65" d="M 3597 1894 
L 3597 1613 
L 953 1613 
Q 991 1019 1311 708 
Q 1631 397 2203 397 
Q 2534 397 2845 478 
Q 3156 559 3463 722 
L 3463 178 
Q 3153 47 2828 -22 
Q 2503 -91 2169 -91 
Q 1331 -91 842 396 
Q 353 884 353 1716 
Q 353 2575 817 3079 
Q 1281 3584 2069 3584 
Q 2775 3584 3186 3129 
Q 3597 2675 3597 1894 
z
M 3022 2063 
Q 3016 2534 2758 2815 
Q 2500 3097 2075 3097 
Q 1594 3097 1305 2825 
Q 1016 2553 972 2059 
L 3022 2063 
z
" transform="scale(0.015625)"/>
    </defs>
    <use xlink:href="#DejaVuSans-73"/>
    <use xlink:href="#DejaVuSans-69" x="52.099609"/>
    <use xlink:href="#DejaVuSans-74" x="79.882812"/>
    <use xlink:href="#DejaVuSans-65" x="119.091797"/>
   </g>
  </g>
  <g id="text_82">
   <!-- escape fraction -->
   <g transform="translate(26.576016 203.757187) rotate(-90) scale(0.255 -0.255)">
    <defs>
     <path id="DejaVuSans-63" d="M 3122 3366 
L 3122 2828 
Q 2878 2963 2633 3030 
Q 2388 3097 2138 3097 
Q 1578 3097 1268 2742 
Q 959 2388 959 1747 
Q 959 1106 1268 751 
Q 1578 397 2138 397 
Q 2388 397 2633 464 
Q 2878 531 3122 666 
L 3122 134 
Q 2881 22 2623 -34 
Q 2366 -91 2075 -91 
Q 1284 -91 818 406 
Q 353 903 353 1747 
Q 353 2603 823 3093 
Q 1294 3584 2113 3584 
Q 2378 3584 2631 3529 
Q 2884 3475 3122 3366 
z
" transform="scale(0.015625)"/>
     <path id="DejaVuSans-61" d="M 2194 1759 
Q 1497 1759 1228 1600 
Q 959 1441 959 1056 
Q 959 750 1161 570 
Q 1363 391 1709 391 
Q 2188 391 2477 730 
Q 2766 1069 2766 1631 
L 2766 1759 
L 2194 1759 
z
M 3341 1997 
L 3341 0 
L 2766 0 
L 2766 531 
Q 2569 213 2275 61 
Q 1981 -91 1556 -91 
Q 1019 -91 701 211 
Q 384 513 384 1019 
Q 384 1609 779 1909 
Q 1175 2209 1959 2209 
L 2766 2209 
L 2766 2266 
Q 2766 2663 2505 2880 
Q 2244 3097 1772 3097 
Q 1472 3097 1187 3025 
Q 903 2953 641 2809 
L 641 3341 
Q 956 3463 1253 3523 
Q 1550 3584 1831 3584 
Q 2591 3584 2966 3190 
Q 3341 2797 3341 1997 
z
" transform="scale(0.015625)"/>
     <path id="DejaVuSans-70" d="M 1159 525 
L 1159 -1331 
L 581 -1331 
L 581 3500 
L 1159 3500 
L 1159 2969 
Q 1341 3281 1617 3432 
Q 1894 3584 2278 3584 
Q 2916 3584 3314 3078 
Q 3713 2572 3713 1747 
Q 3713 922 3314 415 
Q 2916 -91 2278 -91 
Q 1894 -91 1617 61 
Q 1341 213 1159 525 
z
M 3116 1747 
Q 3116 2381 2855 2742 
Q 2594 3103 2138 3103 
Q 1681 3103 1420 2742 
Q 1159 2381 1159 1747 
Q 1159 1113 1420 752 
Q 1681 391 2138 391 
Q 2594 391 2855 752 
Q 3116 1113 3116 1747 
z
" transform="scale(0.015625)"/>
     <path id="DejaVuSans-20" transform="scale(0.015625)"/>
     <path id="DejaVuSans-66" d="M 2375 4863 
L 2375 4384 
L 1825 4384 
Q 1516 4384 1395 4259 
Q 1275 4134 1275 3809 
L 1275 3500 
L 2222 3500 
L 2222 3053 
L 1275 3053 
L 1275 0 
L 697 0 
L 697 3053 
L 147 3053 
L 147 3500 
L 697 3500 
L 697 3744 
Q 697 4328 969 4595 
Q 1241 4863 1831 4863 
L 2375 4863 
z
" transform="scale(0.015625)"/>
     <path id="DejaVuSans-72" d="M 2631 2963 
Q 2534 3019 2420 3045 
Q 2306 3072 2169 3072 
Q 1681 3072 1420 2755 
Q 1159 2438 1159 1844 
L 1159 0 
L 581 0 
L 581 3500 
L 1159 3500 
L 1159 2956 
Q 1341 3275 1631 3429 
Q 1922 3584 2338 3584 
Q 2397 3584 2469 3576 
Q 2541 3569 2628 3553 
L 2631 2963 
z
" transform="scale(0.015625)"/>
     <path id="DejaVuSans-6f" d="M 1959 3097 
Q 1497 3097 1228 2736 
Q 959 2375 959 1747 
Q 959 1119 1226 758 
Q 1494 397 1959 397 
Q 2419 397 2687 759 
Q 2956 1122 2956 1747 
Q 2956 2369 2687 2733 
Q 2419 3097 1959 3097 
z
M 1959 3584 
Q 2709 3584 3137 3096 
Q 3566 2609 3566 1747 
Q 3566 888 3137 398 
Q 2709 -91 1959 -91 
Q 1206 -91 779 398 
Q 353 888 353 1747 
Q 353 2609 779 3096 
Q 1206 3584 1959 3584 
z
" transform="scale(0.015625)"/>
     <path id="DejaVuSans-6e" d="M 3513 2113 
L 3513 0 
L 2938 0 
L 2938 2094 
Q 2938 2591 2744 2837 
Q 2550 3084 2163 3084 
Q 1697 3084 1428 2787 
Q 1159 2491 1159 1978 
L 1159 0 
L 581 0 
L 581 3500 
L 1159 3500 
L 1159 2956 
Q 1366 3272 1645 3428 
Q 1925 3584 2291 3584 
Q 2894 3584 3203 3211 
Q 3513 2838 3513 2113 
z
" transform="scale(0.015625)"/>
    </defs>
    <use xlink:href="#DejaVuSans-65"/>
    <use xlink:href="#DejaVuSans-73" x="61.523438"/>
    <use xlink:href="#DejaVuSans-63" x="113.623047"/>
    <use xlink:href="#DejaVuSans-61" x="168.603516"/>
    <use xlink:href="#DejaVuSans-70" x="229.882812"/>
    <use xlink:href="#DejaVuSans-65" x="293.359375"/>
    <use xlink:href="#DejaVuSans-20" x="354.882812"/>
    <use xlink:href="#DejaVuSans-66" x="386.669922"/>
    <use xlink:href="#DejaVuSans-72" x="421.875"/>
    <use xlink:href="#DejaVuSans-61" x="462.988281"/>
    <use xlink:href="#DejaVuSans-63" x="524.267578"/>
    <use xlink:href="#DejaVuSans-74" x="579.248047"/>
    <use xlink:href="#DejaVuSans-69" x="618.457031"/>
    <use xlink:href="#DejaVuSans-6f" x="646.240234"/>
    <use xlink:href="#DejaVuSans-6e" x="707.421875"/>
   </g>
  </g>
 </g>
 <defs>
  <clipPath id="pe6b51b517f">
   <rect x="72.899609" y="33.478594" width="90.781604" height="144"/>
  </clipPath>
  <clipPath id="pea747699cf">
   <rect x="209.484155" y="33.478594" width="90.530275" height="144"/>
  </clipPath>
 </defs>
</svg>
